<?xml version="1.0" standalone="no"?>
<!DOCTYPE svg PUBLIC "-//W3C//DTD SVG 20010904//EN"
 "http://www.w3.org/TR/2001/REC-SVG-20010904/DTD/svg10.dtd">
<svg version="1.0" xmlns="http://www.w3.org/2000/svg"
 width="825.000000pt" height="825.000000pt" viewBox="0 0 825.000000 825.000000"
 preserveAspectRatio="xMidYMid meet">

<g transform="translate(0.000000,825.000000) scale(0.100000,-0.100000)"
fill="#000000" stroke="none">
<path d="M5583 8155 c-3 -9 -3 -18 0 -21 9 -9 27 6 27 22 0 19 -19 18 -27 -1z"/>
<path d="M5446 8028 c-21 -30 -20 -45 4 -58 41 -22 85 33 53 65 -20 21 -39 19
-57 -7z"/>
<path d="M5334 7908 c-147 -77 -364 -237 -580 -428 -128 -113 -431 -422 -446
-455 -5 -11 6 -2 24 20 18 22 59 67 91 100 48 49 56 54 43 28 -9 -18 -16 -37
-16 -44 0 -20 60 -4 157 41 51 24 95 41 98 39 2 -3 -24 -62 -60 -131 l-65
-125 -58 -12 c-67 -13 -176 -76 -264 -152 -60 -52 -68 -56 -68 -36 0 21 -26
51 -38 43 -8 -4 -6 -17 4 -42 l15 -35 -82 -90 c-45 -49 -87 -89 -94 -89 -7 0
-27 30 -44 67 l-32 67 48 49 c55 56 112 86 165 87 33 0 39 5 64 48 15 26 46
70 68 97 22 28 32 43 22 35 -11 -8 -41 -44 -68 -80 -40 -52 -57 -66 -91 -76
-23 -6 -51 -15 -61 -19 -15 -7 -17 -5 -11 6 5 8 1 7 -12 -3 -11 -10 -24 -18
-29 -18 -5 0 -16 -11 -24 -24 -8 -14 -39 -50 -69 -81 l-54 -56 30 -30 c29 -27
59 -107 46 -119 -3 -3 -8 1 -10 8 -10 26 -55 72 -71 72 -13 -1 -11 -6 9 -23
37 -31 61 -71 53 -91 -9 -23 -21 -20 -40 9 -16 25 -44 34 -44 15 0 -5 4 -10 9
-10 5 0 19 -13 31 -30 17 -24 19 -33 10 -51 -12 -21 -12 -21 -45 11 -18 17
-35 28 -39 22 -3 -5 8 -22 24 -37 33 -32 36 -43 17 -69 -13 -17 -15 -16 -35
18 -13 22 -27 34 -33 30 -6 -4 -7 -9 -2 -13 31 -21 57 -91 33 -91 -5 0 -10 6
-10 14 0 8 -11 28 -25 43 l-25 28 26 -48 c33 -60 26 -71 -11 -17 -15 22 -30
38 -33 36 -2 -3 10 -24 27 -48 17 -23 31 -48 31 -54 0 -25 -20 -25 -47 0 -15
15 -31 26 -35 26 -17 0 -6 -20 22 -40 31 -22 37 -44 20 -70 -9 -13 -13 -11
-30 10 -22 29 -27 15 -5 -14 21 -28 19 -57 -5 -63 -16 -4 -18 -9 -9 -19 15
-18 2 -55 -17 -47 -17 6 -19 -8 -3 -24 9 -9 9 -20 2 -40 -6 -15 -12 -55 -13
-88 -1 -33 -3 -73 -4 -90 -1 -16 1 -88 5 -159 5 -104 4 -133 -7 -144 -17 -16
-18 -28 -4 -37 6 -3 10 4 10 17 0 18 2 20 10 8 5 -8 10 -27 10 -41 0 -14 9
-52 20 -83 10 -31 24 -84 30 -117 9 -51 9 -64 -4 -84 -18 -28 -20 -35 -7 -35
5 0 12 12 16 27 5 22 8 25 15 12 16 -29 42 -158 33 -171 -9 -15 -13 -68 -5
-68 3 0 15 8 26 18 20 17 20 17 3 -8 -38 -55 -41 -64 -22 -56 14 5 15 3 8 -6
-6 -7 -12 -18 -14 -24 -2 -7 -12 -3 -24 9 -11 11 -14 17 -6 12 9 -5 12 -3 9 6
-3 8 -12 15 -21 17 -22 4 -24 -43 -2 -52 17 -6 21 -46 5 -46 -5 0 -10 4 -10 9
0 5 -7 26 -16 47 -11 25 -19 34 -22 24 -8 -24 -31 -42 -46 -37 -20 8 -36 117
-16 117 5 0 7 -7 4 -15 -4 -8 -1 -15 6 -15 8 0 10 -12 5 -40 -6 -33 -4 -39 8
-34 22 8 27 60 8 80 -12 12 -13 18 -3 21 6 3 12 9 12 15 0 5 7 17 16 26 13 12
14 17 4 20 -8 3 -24 -7 -37 -22 -13 -15 -27 -25 -31 -22 -14 8 -31 211 -43
491 -10 261 -16 308 -46 378 -12 28 -14 43 -6 60 13 27 33 178 32 233 -1 32
-3 29 -10 -21 -16 -121 -32 -200 -41 -212 -11 -14 -41 -6 -32 9 11 17 64 241
64 269 0 35 17 47 22 17 2 -13 9 22 16 77 49 381 65 464 98 515 35 55 39 94
13 129 -18 24 -20 33 -10 45 7 8 8 17 3 20 -8 5 -13 -5 -27 -56 -2 -5 -3 -12
-4 -16 0 -5 -17 -27 -37 -50 -19 -23 -33 -46 -30 -51 4 -5 1 -13 -5 -17 -8 -4
-9 -3 -5 4 11 18 0 14 -15 -5 -10 -11 -10 -14 -1 -9 22 13 13 -8 -18 -40 -16
-18 -27 -34 -24 -36 2 -3 -13 -23 -34 -44 -21 -21 -49 -55 -62 -74 l-23 -35
37 35 38 35 -19 -32 c-10 -18 -22 -33 -26 -33 -5 0 -5 -5 -2 -10 4 -6 1 -9 -7
-8 -8 2 -12 -5 -11 -18 1 -11 -13 -37 -34 -60 -19 -21 -41 -52 -49 -69 -7 -16
-23 -41 -35 -55 -11 -14 -3 9 19 50 24 44 46 74 54 72 7 -2 10 0 6 3 -4 4 0
21 8 37 9 17 14 32 11 34 -7 7 -70 -95 -128 -206 -30 -59 -68 -123 -83 -141
-16 -18 -40 -58 -53 -89 -36 -77 -145 -263 -160 -273 -7 -4 -13 -12 -13 -17 0
-5 -16 -43 -36 -85 -32 -65 -35 -77 -22 -88 50 -41 124 -170 162 -282 15 -44
38 -93 50 -110 17 -23 25 -50 30 -110 4 -44 12 -82 17 -86 5 -3 7 -14 3 -24
-6 -14 -4 -16 6 -10 10 6 11 2 6 -18 -7 -30 2 -59 16 -51 6 4 7 -2 3 -16 -5
-14 -3 -20 3 -16 6 4 8 -2 4 -16 -4 -16 -2 -19 8 -13 9 5 11 4 6 -4 -4 -6 8
-37 26 -69 44 -75 51 -101 32 -119 -7 -8 -14 -20 -14 -26 0 -7 9 -1 19 12 13
18 20 20 23 10 4 -12 7 -12 22 0 11 10 31 12 68 8 28 -4 53 -9 55 -11 3 -3 -4
-18 -16 -34 -12 -17 -21 -34 -21 -40 0 -5 -7 -15 -15 -22 -8 -7 -15 -20 -15
-30 0 -10 -9 -20 -20 -23 -11 -3 -20 -14 -20 -25 0 -11 -7 -25 -15 -32 -9 -8
-15 -9 -15 -2 0 6 5 14 11 18 6 3 8 17 5 30 -5 19 -2 24 14 24 11 0 20 5 20
10 0 6 -4 10 -10 10 -5 0 -10 9 -10 21 0 12 -4 17 -11 14 -6 -4 -8 -13 -5 -21
6 -16 -10 -29 -19 -14 -11 18 -25 11 -45 -22 l-19 -31 -25 56 c-47 102 -48
105 -23 110 22 4 22 4 -1 6 -14 1 -26 10 -32 27 -13 33 -13 34 5 34 21 0 19
17 -4 25 -14 4 -24 32 -46 123 -30 128 -52 186 -93 246 -33 49 -108 86 -173
86 -46 0 -47 0 -57 43 -10 37 -35 231 -61 462 -5 44 -7 104 -4 133 4 32 2 52
-5 52 -10 0 -22 -23 -22 -44 0 -7 -24 -37 -53 -67 -28 -29 -68 -79 -88 -109
-165 -252 -203 -312 -205 -323 -7 -47 -142 -310 -155 -302 -5 4 -6 -2 -2 -11
4 -11 3 -15 -4 -11 -7 5 -9 0 -6 -13 4 -13 1 -20 -7 -18 -6 2 -16 -7 -21 -20
-6 -15 -5 -21 1 -17 16 10 11 -4 -8 -23 -20 -20 -67 -186 -77 -272 -4 -30 -11
-77 -16 -104 -22 -120 0 -262 45 -291 41 -27 66 -27 76 0 6 17 19 25 42 29 18
2 65 9 103 15 99 15 128 16 142 8 7 -4 21 -2 31 4 29 18 48 5 55 -38 4 -21 15
-56 26 -77 11 -21 18 -43 15 -47 -2 -4 1 -11 8 -16 7 -4 20 -17 28 -27 13 -18
13 -19 0 -11 -8 5 0 -5 18 -22 17 -17 32 -35 32 -40 0 -4 -10 3 -21 17 l-21
25 18 -32 c10 -18 22 -29 27 -26 6 3 7 1 3 -5 -11 -17 68 -132 91 -132 7 0 20
14 28 30 26 51 135 392 142 443 l6 49 55 -7 c43 -5 53 -4 50 7 -3 9 -19 12
-49 10 -29 -2 -51 2 -64 13 -19 15 -15 16 63 12 45 -2 85 -7 88 -10 4 -3 0
-28 -9 -54 -12 -36 -13 -49 -4 -55 17 -10 -5 -43 -28 -43 -10 0 -20 -6 -22
-13 -3 -8 1 -10 12 -5 15 5 16 3 6 -15 -7 -12 -18 -22 -26 -22 -8 0 -12 -6 -9
-14 5 -14 -20 -64 -39 -77 -5 -4 -17 -4 -27 -2 -10 3 -20 0 -24 -5 -3 -5 6
-13 22 -17 l27 -7 -23 -9 c-13 -5 -21 -13 -17 -19 9 -14 -13 -50 -30 -50 -8 0
-20 -10 -26 -22 -11 -21 -11 -22 4 -9 24 20 22 -4 -3 -29 -11 -11 -20 -29 -20
-40 0 -11 -6 -20 -14 -20 -8 0 -13 -8 -12 -17 1 -14 -5 -17 -25 -15 -18 2 -26
-2 -26 -12 0 -12 7 -14 26 -9 25 6 25 5 10 -13 -27 -32 -87 -154 -124 -254
-20 -52 -49 -124 -65 -160 -15 -36 -33 -101 -40 -144 -7 -44 -14 -86 -17 -93
-3 -8 -2 -13 3 -12 23 4 32 -5 53 -52 13 -28 35 -72 49 -97 14 -25 58 -115 98
-199 l72 -152 -47 -21 c-96 -43 -96 -44 -93 -79 1 -17 13 -58 26 -91 23 -55
23 -60 7 -74 -16 -15 -20 -14 -42 12 -49 53 -86 142 -60 142 16 0 42 58 46 99
1 20 6 52 10 72 5 27 2 47 -14 78 -23 44 -44 52 -61 22 -16 -31 -12 -63 15
-110 28 -47 31 -77 13 -116 -19 -42 -28 -29 -28 43 -1 82 -21 130 -74 171 -48
38 -56 39 -56 1 0 -74 22 -132 66 -177 31 -31 47 -57 55 -91 16 -64 41 -111
77 -146 26 -24 29 -31 19 -48 -10 -16 -7 -23 24 -51 20 -18 63 -65 95 -106
115 -143 119 -155 52 -132 -76 27 -88 5 -28 -54 21 -21 37 -42 35 -46 -3 -4
-23 -10 -45 -14 -37 -6 -44 -4 -80 29 -59 54 -80 49 -174 -35 l-79 -71 -77 6
c-67 6 -176 28 -185 38 -4 4 8 65 34 163 45 175 51 329 17 423 -7 20 -19 73
-26 117 -6 44 -27 128 -46 187 l-34 106 20 35 c33 56 37 153 10 267 -12 52
-30 103 -39 114 -9 10 -59 47 -111 81 -128 85 -152 111 -190 205 -18 44 -38
80 -46 80 -18 0 -68 -74 -103 -153 -40 -88 -61 -191 -61 -292 0 -75 4 -93 29
-143 17 -31 41 -70 54 -86 l24 -30 -39 -50 c-57 -75 -87 -143 -94 -214 -5 -46
-11 -62 -22 -62 -13 0 -13 -2 0 -17 8 -10 23 -50 33 -90 9 -39 23 -80 31 -90
14 -17 14 -16 5 4 -14 28 -14 43 0 20 6 -10 12 -28 13 -40 2 -12 14 -38 28
-58 13 -20 32 -63 42 -95 79 -266 134 -389 214 -488 31 -38 72 -79 92 -92 92
-60 250 -53 250 12 0 12 -6 10 -27 -5 -37 -26 -76 -31 -148 -18 -52 8 -65 16
-110 61 -28 28 -65 71 -82 96 -39 57 -103 208 -138 325 -15 50 -33 107 -41
127 -16 43 -14 45 21 22 13 -9 28 -14 32 -11 4 3 9 -28 10 -69 2 -42 11 -95
22 -123 39 -104 194 -262 308 -316 81 -39 220 -47 279 -17 l40 20 30 -36 c70
-83 154 -256 154 -316 0 -32 -4 -36 -67 -66 -42 -19 -91 -33 -129 -37 -60 -5
-61 -5 -72 23 -27 72 -29 69 56 93 42 13 83 21 91 19 14 -3 39 27 29 37 -3 3
-48 -8 -99 -25 -81 -26 -184 -50 -316 -74 -25 -4 -33 -1 -37 12 -14 43 -164
163 -222 178 -19 5 -24 17 -34 86 -6 45 -11 120 -10 167 1 47 2 92 1 99 -1 15
-28 16 -33 0 -8 -22 -66 34 -124 118 -32 46 -55 86 -52 89 3 3 17 -12 31 -32
15 -21 44 -51 64 -67 37 -28 36 -27 -8 20 -25 27 -59 66 -74 87 -15 21 -30 35
-33 32 -7 -7 -32 15 -32 27 0 6 7 5 16 -3 8 -7 3 8 -13 34 -15 25 -32 47 -36
47 -5 0 1 -16 13 -35 25 -41 21 -48 -6 -7 -10 15 -17 35 -17 45 1 9 -3 15 -8
11 -6 -3 -9 0 -8 7 1 8 -20 61 -48 119 -69 141 -79 168 -105 269 -29 116 -29
245 1 319 12 30 21 75 21 105 0 95 -53 244 -83 234 -6 -2 -15 -23 -19 -48 -4
-24 -15 -61 -23 -82 -31 -78 -16 -191 33 -242 14 -16 20 -42 25 -112 4 -51 13
-111 22 -135 8 -24 15 -50 15 -59 0 -24 35 -129 65 -196 15 -32 40 -89 58
-128 17 -38 51 -100 76 -138 25 -37 60 -89 76 -116 40 -64 114 -163 133 -178
9 -7 26 -13 38 -13 22 0 23 -4 23 -87 1 -110 23 -277 43 -323 22 -51 65 -98
111 -122 45 -22 53 -22 227 11 126 25 140 25 140 6 0 -26 31 -93 46 -99 25
-10 104 13 199 56 50 22 96 41 103 41 6 0 12 4 12 9 0 4 9 8 20 8 11 0 20 5
20 11 0 6 9 9 20 6 11 -3 22 -2 25 3 8 14 54 -2 60 -21 4 -10 15 -19 25 -19
29 0 90 32 90 47 0 29 17 10 34 -38 10 -28 25 -53 32 -56 7 -2 38 4 67 16 l55
20 30 -50 c31 -48 48 -59 68 -39 16 16 54 21 48 6 -3 -7 3 -19 12 -27 15 -12
16 -10 10 26 -3 22 -2 54 3 70 8 23 9 13 7 -48 -3 -73 -1 -81 30 -130 19 -29
34 -58 34 -65 0 -7 4 -11 8 -8 8 5 52 -46 52 -60 0 -3 11 -19 25 -36 31 -37
31 -46 0 -54 -18 -4 -54 9 -137 50 -176 87 -300 99 -304 30 -3 -41 -49 -189
-67 -218 -14 -21 -25 -24 -109 -28 -92 -5 -93 -5 -128 25 -19 17 -48 51 -64
76 -15 25 -53 76 -83 114 -51 63 -83 84 -83 53 0 -8 8 -13 17 -12 33 2 176
-210 157 -233 -8 -10 -94 63 -94 80 0 4 10 9 22 12 18 5 19 8 8 22 -7 8 -25
14 -41 13 l-28 -2 17 -31 c27 -49 83 -104 119 -116 46 -15 41 -27 -14 -34 -27
-3 -60 -9 -75 -11 -24 -5 -32 1 -60 40 -17 25 -35 46 -40 46 -12 0 -10 -24 4
-38 7 -7 8 -12 2 -12 -14 0 -83 50 -107 78 -19 20 -18 21 5 15 12 -3 31 -15
40 -27 27 -33 21 -1 -8 47 -33 52 -94 117 -111 117 -24 0 -13 -47 26 -107 41
-63 107 -124 159 -146 l32 -13 -72 -12 c-40 -7 -82 -13 -92 -15 -13 -1 -31 13
-52 43 -19 25 -40 54 -49 65 -12 16 -16 17 -24 6 -7 -11 -16 -8 -45 14 -33 25
-35 29 -19 41 16 11 19 10 23 -8 3 -12 11 -23 19 -26 19 -6 -25 77 -62 116
-18 19 -41 32 -55 32 -21 0 -23 -3 -17 -28 14 -58 99 -154 154 -173 23 -9 89
-85 80 -93 -8 -7 -150 -36 -176 -36 -22 0 -39 13 -79 63 -28 34 -63 81 -79
105 -15 23 -34 42 -42 42 -8 0 -12 4 -8 10 17 28 -83 160 -122 160 -36 0 21
-108 84 -158 71 -56 191 -198 186 -219 -1 -4 -50 -12 -107 -18 l-105 -10 -97
153 c-53 83 -101 152 -106 152 -4 0 -8 8 -8 17 0 18 -53 117 -78 146 -8 9 -23
17 -34 17 -14 0 -18 -7 -18 -32 1 -54 41 -119 91 -148 24 -15 61 -48 81 -76
49 -64 141 -214 135 -220 -9 -9 -103 18 -150 44 -52 28 -93 71 -174 184 -26
36 -94 123 -151 193 -154 191 -175 224 -362 580 -62 119 -147 325 -220 535
-49 139 -64 202 -89 352 -28 169 -30 209 -36 533 -7 366 -4 412 42 643 9 45
13 85 9 89 -11 11 -17 -4 -23 -49 -2 -24 -7 -50 -10 -58 -3 -8 -7 -28 -9 -45
-2 -16 -9 -61 -16 -100 -9 -50 -12 -175 -10 -444 2 -340 5 -387 27 -525 37
-229 45 -267 66 -318 24 -59 119 -338 119 -350 0 -5 -9 -4 -20 2 -11 6 -20 9
-20 7 0 -29 169 -391 250 -537 84 -149 241 -409 252 -416 7 -5 8 -2 3 7 -5 8
-4 10 0 6 5 -4 10 -14 11 -23 3 -17 42 -80 130 -209 34 -49 69 -106 78 -126
22 -48 50 -59 112 -48 27 5 81 12 119 15 89 8 128 12 138 13 4 1 6 6 5 13 -4
17 143 33 153 17 4 -7 18 -9 35 -5 47 11 98 20 177 31 26 3 47 12 47 18 0 7 4
6 11 -3 8 -11 12 -12 16 -2 2 6 9 10 14 6 5 -3 9 0 9 5 0 6 5 11 11 11 5 0 7
-4 4 -10 -3 -5 -2 -10 3 -10 6 0 12 7 16 15 3 8 13 15 23 15 15 0 16 -2 3 -11
-11 -7 -4 -8 25 -3 22 4 41 10 43 14 2 4 12 6 23 3 11 -3 68 2 127 10 59 9
165 21 236 27 165 14 197 29 217 103 6 21 21 50 33 62 27 27 68 26 205 -7 57
-13 100 -17 135 -13 l51 6 28 -53 c52 -100 175 -163 297 -154 36 3 207 10 380
15 363 13 384 10 442 -60 26 -30 46 -43 86 -54 61 -16 163 -78 184 -113 25
-41 132 -144 183 -177 97 -61 103 -62 326 -41 25 2 84 22 130 44 46 21 99 45
116 52 53 20 83 54 83 94 0 33 13 49 45 56 44 10 196 73 220 92 14 11 29 18
32 14 3 -3 11 3 17 13 6 10 26 40 44 65 36 50 36 76 2 76 -28 0 -36 26 -16 49
22 24 86 177 86 205 0 12 -13 35 -29 50 l-29 28 19 66 c10 37 19 68 19 69 0 1
-11 13 -25 25 l-24 23 29 85 c33 95 37 155 15 239 -8 31 -14 65 -14 76 -1 11
-1 72 0 135 0 129 -14 219 -36 236 -9 6 -22 36 -31 65 -9 30 -22 63 -29 75
-10 15 -11 33 -4 72 15 78 -5 362 -29 437 -53 162 -144 347 -192 390 -13 12
-18 25 -14 38 4 11 2 17 -3 14 -6 -4 -19 0 -29 8 -28 21 -32 19 -40 -21 -4
-20 -17 -55 -30 -77 -12 -22 -20 -46 -17 -53 3 -8 -1 -14 -9 -14 -7 0 -19 -10
-27 -22 l-14 -23 23 20 23 20 -23 -45 c-30 -61 -129 -192 -140 -185 -4 3 -18
-10 -29 -29 -12 -19 -47 -55 -79 -82 -31 -26 -68 -59 -81 -71 -13 -13 -48 -37
-78 -54 l-54 -31 -21 22 -21 23 29 21 c72 52 144 118 144 132 0 8 -15 21 -32
30 l-33 15 -75 -74 c-60 -58 -187 -147 -212 -147 -2 0 1 37 8 83 7 45 17 163
23 262 9 168 9 181 -8 196 -18 15 -17 18 9 77 42 91 70 214 76 332 5 89 3 110
-13 140 -25 49 -59 52 -78 7 -19 -46 -45 -212 -45 -294 l-1 -68 -15 35 c-28
64 -76 93 -91 54 -10 -27 27 -176 59 -234 17 -30 37 -67 45 -82 8 -16 22 -28
30 -28 14 0 15 -19 9 -167 -6 -148 -15 -235 -31 -309 -4 -18 -35 -36 -60 -34
-3 0 -32 -13 -65 -30 -71 -36 -76 -36 -83 -8 -3 13 -8 33 -12 44 -6 19 -2 22
32 28 42 8 121 50 140 75 19 25 15 72 -10 115 -28 50 -40 54 -72 22 -35 -35
-32 -72 7 -113 31 -32 31 -33 12 -48 -32 -24 -110 -46 -138 -39 -17 4 -26 2
-26 -5 0 -27 -39 12 -80 81 -78 130 -171 300 -167 304 6 6 50 -62 82 -126 34
-68 121 -187 146 -201 31 -16 24 19 -17 81 -20 30 -66 109 -102 175 -86 158
-82 153 -114 164 -33 12 -37 -3 -12 -50 8 -17 13 -33 10 -36 -2 -3 -16 17 -29
44 l-25 49 9 183 c7 135 6 187 -2 197 -9 11 -7 14 8 14 31 0 71 46 78 90 4 26
0 64 -15 116 -11 43 -17 80 -13 83 5 3 27 18 50 33 59 39 74 66 80 150 5 62 2
82 -17 126 -12 28 -26 52 -31 52 -14 0 -11 -16 12 -60 19 -35 21 -52 16 -112
-7 -79 -19 -97 -95 -149 -42 -28 -44 -29 -49 -9 -3 11 -9 17 -14 15 -13 -9
-39 51 -39 90 0 38 10 64 42 105 l20 25 -5 -95 -6 -95 12 101 c12 100 13 102
56 145 87 89 114 207 72 318 -14 38 -17 60 -10 102 4 30 10 137 13 238 4 101
9 187 11 191 3 4 18 10 33 13 16 3 43 18 60 32 62 52 67 149 13 236 -28 46
-31 58 -31 133 0 69 -4 88 -21 110 -31 40 -65 34 -124 -20 -58 -55 -93 -79
-102 -71 -3 4 9 48 27 99 18 51 49 158 70 238 34 129 154 476 180 522 6 10 10
25 10 33 0 13 62 176 99 260 91 206 105 250 107 340 1 73 6 97 24 128 33 56
16 45 -19 -13 -29 -47 -53 -62 -66 -41 -8 14 -174 63 -186 55 -12 -7 -89 -13
-89 -6 0 24 129 250 178 310 82 103 222 212 271 212 40 0 59 32 40 66 -18 35
-45 30 -68 -13 -6 -13 -37 -42 -69 -65 -81 -59 -152 -124 -184 -168 -21 -28
-43 -43 -90 -60 -35 -12 -90 -38 -124 -56 -33 -19 -65 -34 -70 -34 -5 0 32 41
81 90 49 50 93 90 97 90 5 0 8 -7 8 -16 0 -9 6 -14 13 -11 6 2 12 16 12 31 -1
30 45 71 325 296 24 19 67 55 95 80 43 37 128 105 194 154 11 9 12 6 6 -13 -5
-17 -4 -22 6 -19 8 3 13 14 12 26 -2 17 23 39 33 29 2 -2 -15 -46 -37 -98 -23
-51 -54 -130 -69 -174 -120 -350 -132 -375 -181 -375 -35 0 -36 -3 -8 -31 19
-19 19 -22 5 -42 -24 -35 -86 -144 -86 -153 0 -5 25 32 55 81 30 49 53 91 51
93 -2 2 11 18 29 35 35 33 44 56 140 332 28 83 68 186 87 231 38 87 52 140 39
148 -4 3 -34 -9 -67 -26z m-224 -181 c0 -2 -10 -12 -22 -23 l-23 -19 19 23
c18 21 26 27 26 19z m-55 -47 c-3 -6 -39 -36 -78 -67 -40 -31 -74 -60 -77 -63
-3 -3 -27 -23 -55 -45 -63 -50 -255 -223 -277 -250 -9 -11 -19 -17 -22 -14 -6
5 42 52 224 219 82 76 274 229 288 230 2 0 0 -5 -3 -10z m-355 -741 c46 -14
45 -22 -23 -139 -75 -129 -139 -310 -176 -495 -7 -33 -19 -87 -26 -120 -8 -33
-19 -87 -25 -120 -12 -61 -39 -165 -44 -165 -1 0 -20 26 -41 58 -21 31 -50 75
-65 97 -33 48 -71 119 -86 160 -10 27 -7 34 28 78 21 27 59 88 84 135 26 48
57 101 70 118 13 18 64 113 114 212 91 179 94 183 144 191 5 0 26 -4 46 -10z
m-130 -5 c0 -15 -148 -306 -185 -364 -23 -36 -55 -90 -70 -120 -15 -30 -47
-82 -71 -116 -23 -34 -46 -73 -49 -87 -10 -37 33 -125 134 -275 46 -68 81
-126 77 -129 -3 -3 -23 9 -44 28 -54 47 -70 60 -124 97 -25 17 -60 51 -77 74
-39 53 -40 97 -6 193 28 79 30 99 14 144 -17 49 -55 38 -88 -26 -23 -45 -49
-215 -42 -279 2 -17 116 -128 201 -197 125 -100 150 -127 150 -162 l0 -30 -18
28 c-85 128 -319 129 -384 2 -6 -11 9 -1 33 22 52 50 84 63 148 63 79 0 149
-34 190 -92 20 -29 30 -83 19 -102 -24 -43 -3 -346 24 -346 9 0 56 26 122 68
63 40 114 58 128 44 6 -6 13 -31 15 -55 l5 -45 -39 5 c-94 12 -201 -112 -203
-235 0 -44 30 -116 52 -125 9 -3 6 -10 -10 -22 -61 -45 -94 -104 -93 -169 0
-42 24 -85 102 -178 37 -45 46 -62 42 -85 -28 -170 -169 -399 -370 -601 -87
-87 -164 -141 -303 -215 -47 -24 -120 -68 -162 -96 -43 -28 -81 -51 -84 -51
-4 0 -27 -16 -51 -36 -65 -53 -407 -224 -448 -224 -3 0 -3 11 1 24 7 31 -13
44 -34 22 -16 -16 -16 -18 3 -32 27 -20 10 -29 -69 -40 -33 -4 -70 -9 -81 -10
-103 -15 -176 -15 -228 0 -55 16 -57 18 -57 51 0 92 106 341 179 420 38 41
137 174 197 265 28 41 78 115 112 163 34 48 62 94 62 101 0 8 16 26 36 41 20
15 76 62 124 104 106 91 251 204 340 264 36 24 85 57 110 74 25 17 63 36 85
43 59 19 127 55 149 79 15 16 18 30 13 65 -4 26 -2 48 3 51 6 3 14 14 19 24 7
13 6 18 -5 18 -7 0 -14 -6 -14 -13 0 -29 -18 -20 -53 27 -20 28 -37 57 -37 65
0 7 -6 14 -14 14 -9 0 -12 -8 -8 -25 2 -14 10 -25 17 -25 17 0 65 -71 65 -96
-1 -15 -8 -11 -35 21 -19 22 -35 46 -35 53 0 6 -4 12 -10 12 -15 0 -12 -40 3
-40 12 -1 52 -48 45 -55 -8 -9 -58 9 -58 21 0 7 -6 11 -13 8 -35 -13 -99 125
-127 277 -7 35 -21 107 -31 161 -19 94 -19 98 0 206 13 76 29 128 50 169 27
51 31 68 31 143 1 57 7 102 19 135 10 28 33 91 50 140 18 50 37 92 42 93 5 2
9 12 9 21 0 10 14 47 32 82 20 41 32 77 31 100 -2 33 5 44 74 110 81 79 123
134 123 161 0 21 133 126 207 163 65 33 143 54 143 39z m292 -63 c4 -3 -15
-71 -43 -151 -28 -80 -66 -194 -86 -255 -19 -60 -57 -153 -83 -205 -26 -52
-55 -120 -64 -150 -15 -48 -42 -123 -66 -185 -19 -49 -50 -163 -50 -183 0 -12
-5 -22 -11 -22 -6 0 -8 -9 -4 -20 7 -21 -30 -180 -51 -220 -12 -23 -13 -23
-14 -4 0 40 20 279 31 354 11 76 31 175 74 355 13 55 33 141 45 190 40 177 81
278 173 430 53 87 53 87 101 80 22 -4 44 -10 48 -14z m33 -117 c4 -29 3 -50
-4 -57 -8 -8 -11 -1 -11 25 0 20 -5 38 -11 40 -7 2 -9 13 -5 26 11 32 23 19
31 -34z m-35 -60 c0 -14 4 -23 9 -20 5 4 7 -3 4 -14 -8 -30 -23 -24 -23 9 0
17 -5 33 -10 36 -6 4 -8 11 -4 16 9 16 24 -1 24 -27z m-16 -114 c-12 -33 -30
37 -24 95 1 11 8 -2 16 -30 7 -27 11 -57 8 -65z m-915 36 c-3 -3 -11 5 -18 17
-13 21 -12 21 5 5 10 -10 16 -20 13 -22z m886 -103 c-8 -27 -8 -26 -17 17 -4
25 -5 56 -2 70 7 23 8 21 17 -17 5 -23 6 -54 2 -70z m-1250 -69 c-9 -82 -19
-170 -22 -195 -5 -42 -9 -47 -53 -72 -26 -15 -51 -27 -55 -27 -15 0 19 289 37
325 15 28 99 127 105 122 2 -3 -3 -72 -12 -153z m383 131 c-3 -3 -9 2 -12 12
-6 14 -5 15 5 6 7 -7 10 -15 7 -18z m22 -50 c0 -5 -5 -3 -10 5 -5 8 -10 20
-10 25 0 6 5 3 10 -5 5 -8 10 -19 10 -25z m819 -45 c0 -19 -3 -41 -8 -48 -12
-20 -23 43 -15 87 6 30 8 33 15 16 4 -11 8 -36 8 -55z m-30 -92 c1 -31 -15
-47 -22 -21 -3 10 -3 1 -2 -19 3 -38 -9 -60 -18 -36 -3 7 -5 -6 -5 -30 1 -23
-4 -48 -10 -54 -9 -9 -12 -7 -12 10 0 12 -4 22 -10 22 -12 0 -12 2 -1 -38 7
-22 6 -42 -1 -60 l-10 -27 -16 33 c-16 32 -15 35 20 105 20 40 44 97 54 127
14 44 19 51 25 35 4 -11 8 -32 8 -47z m-779 31 c0 -6 -4 -7 -10 -4 -5 3 -10
11 -10 16 0 6 5 7 10 4 6 -3 10 -11 10 -16z m-24 -24 c4 -8 3 -23 -1 -32 -7
-17 -8 -16 -15 2 -5 11 -9 26 -9 33 -1 17 18 15 25 -3z m-542 -112 c-4 -65 -7
-126 -6 -135 0 -9 -9 -26 -21 -37 -61 -56 -80 -72 -83 -68 -7 7 17 190 27 209
12 23 11 31 -3 22 -7 -4 -8 -3 -4 5 4 6 11 9 14 7 4 -2 23 22 42 55 19 32 36
59 38 59 2 0 1 -53 -4 -117z m519 65 c3 -11 0 -33 -8 -47 l-13 -26 -11 28 c-8
20 -8 34 -1 48 14 25 26 24 33 -3z m-38 -68 c3 -10 -2 -34 -11 -52 l-17 -33
-10 28 c-7 21 -6 36 4 53 15 29 26 30 34 4z m-591 -45 c-13 -20 -16 -46 -15
-114 l2 -89 -74 -84 c-41 -45 -87 -105 -102 -133 -16 -27 -42 -67 -58 -88 -17
-21 -36 -55 -42 -75 -9 -25 -20 -38 -34 -40 -12 -2 -21 0 -21 5 0 13 185 380
237 470 51 88 109 173 118 173 3 0 -2 -11 -11 -25z m546 -49 c0 -19 -4 -37 -9
-40 -5 -4 -12 -25 -16 -47 -9 -50 -25 -34 -25 24 0 27 4 36 12 31 8 -5 9 -2 5
9 -3 10 -2 17 3 17 6 0 10 9 10 20 0 11 5 20 10 20 6 0 10 -15 10 -34z m798
-52 c6 -20 7 -45 3 -57 -8 -20 -10 -18 -20 18 -6 22 -11 48 -11 58 0 29 16 19
28 -19z m-1118 2 c0 -23 -16 -27 -17 -5 -1 10 2 19 8 19 5 0 9 -6 9 -14z m-30
-70 c0 -41 -3 -77 -7 -79 -5 -3 -7 27 -6 66 2 50 0 66 -7 52 -8 -18 -9 -17 -9
8 -1 18 4 27 14 27 12 0 15 -15 15 -74z m1124 -11 c6 -49 6 -50 -9 -20 -15 33
-21 111 -6 85 5 -8 12 -37 15 -65z m-1171 -43 c-3 -56 -8 -100 -11 -97 -7 7
-4 183 3 196 13 20 14 3 8 -99z m347 54 c17 -60 2 -83 -20 -30 -16 37 -16 74
0 74 4 0 13 -20 20 -44z m-396 -94 c4 -61 2 -91 -4 -87 -6 3 -10 -4 -11 -17
-1 -50 -29 69 -29 127 0 82 18 59 23 -30 3 -68 3 -67 5 19 1 49 4 87 6 85 2
-2 6 -46 10 -97z m385 -7 c0 -15 -5 -11 -19 15 -11 19 -19 46 -19 60 1 22 3
20 20 -15 10 -22 18 -49 18 -60z m811 61 c0 -19 5 -36 11 -38 10 -3 2 -38 -10
-38 -10 0 -29 71 -24 91 9 31 23 22 23 -15z m-1176 -18 c4 -17 2 -28 -4 -28
-5 0 -10 14 -10 32 0 36 4 35 14 -4z m-74 -51 c0 -29 4 -69 9 -89 5 -22 5 -38
0 -38 -11 0 -16 26 -24 119 -5 51 -3 71 4 66 6 -3 11 -30 11 -58z m426 -23 c9
-24 15 -47 12 -50 -7 -7 -58 84 -58 103 0 27 28 -5 46 -53z m-439 -129 c-7
-18 -27 95 -26 143 1 39 4 31 15 -43 8 -49 13 -94 11 -100z m130 138 c-3 -10
-5 -2 -5 17 0 19 2 27 5 18 2 -10 2 -26 0 -35z m1113 6 c16 -58 3 -86 -16 -34
-12 34 -11 75 1 75 2 0 9 -18 15 -41z m-1276 -85 c12 -75 12 -91 0 -104 -12
-12 -14 -5 -14 51 0 37 -2 88 -5 115 -8 76 4 36 19 -62z m150 44 c12 2 17 -2
14 -15 -2 -10 -12 -18 -23 -18 -17 0 -20 7 -22 45 -1 37 0 40 6 15 5 -22 12
-29 25 -27z m-172 -132 c2 -41 -1 -61 -10 -64 -6 -2 -12 -13 -12 -24 0 -39
-13 -9 -26 59 -20 103 -15 140 7 48 10 -44 16 -62 14 -40 -17 139 -18 155 -4
171 12 15 15 11 21 -37 4 -30 8 -81 10 -113z m498 72 c0 -4 -15 9 -34 29 -19
21 -31 43 -29 51 4 8 16 -2 34 -30 16 -24 29 -46 29 -50z m785 -6 c-9 -9 -14
3 -19 48 l-6 45 15 -44 c8 -25 13 -47 10 -49z m-816 -6 c18 -40 19 -49 7 -88
l-12 -43 -7 64 c-4 36 -14 72 -22 81 -19 21 -19 30 -1 30 8 0 23 -20 35 -44z
m796 -22 c3 -24 2 -45 -3 -48 -12 -7 -33 70 -25 91 8 22 20 3 28 -43z m-1326
-54 c20 -89 27 -149 16 -138 -6 6 -45 195 -45 221 0 37 9 13 29 -83z m-1 -165
c-2 -18 -13 18 -30 95 -14 69 -23 129 -20 134 8 14 53 -193 50 -229z m277 167
c19 -20 39 -53 45 -72 6 -19 15 -132 20 -250 5 -118 12 -255 15 -303 l5 -88
-24 28 c-32 37 -89 38 -117 3 -66 -83 -93 -207 -50 -229 10 -6 21 -7 25 -4 16
16 3 -22 -20 -60 -43 -68 -65 -89 -81 -75 -59 49 -153 363 -153 510 0 179 106
448 228 580 24 26 27 27 49 13 13 -9 39 -32 58 -53z m1031 -34 l4 -53 -20 45
c-13 28 -19 54 -15 70 6 22 8 23 16 7 6 -9 12 -41 15 -69z m-1353 -28 c15 -66
30 -176 22 -168 -9 8 -55 205 -55 233 1 42 14 16 33 -65z m-503 -32 c-6 -29
-16 -91 -21 -138 -13 -129 -21 -145 -130 -274 -15 -17 -50 -70 -78 -118 -29
-49 -58 -88 -67 -88 -8 0 -12 -5 -9 -11 9 -13 -8 -55 -56 -139 -49 -87 -96
-227 -108 -325 -29 -218 -52 -315 -77 -315 -14 0 -47 96 -39 110 4 6 1 10 -6
10 -15 0 -8 93 16 225 31 171 63 260 151 425 19 36 68 134 109 218 41 84 104
199 141 255 82 125 177 244 181 230 3 -7 -1 -35 -7 -65z m484 -33 c23 -92 34
-176 22 -164 -3 2 -16 56 -31 119 -14 63 -28 123 -31 133 -3 9 -1 17 4 17 5 0
21 -47 36 -105z m-430 3 c7 -82 41 -380 51 -448 5 -32 4 -31 -23 20 -15 30
-45 81 -66 114 -33 52 -36 61 -27 89 6 16 11 53 11 81 0 61 31 237 41 230 4
-2 10 -41 13 -86z m1783 39 c3 -20 2 -44 -2 -54 -7 -15 -9 -13 -15 12 -4 17
-8 46 -9 65 -1 44 17 28 26 -23z m-1373 -96 c21 -86 25 -122 20 -168 -4 -32
-10 -51 -12 -43 -3 8 -8 17 -12 20 -9 6 -53 221 -46 227 5 5 46 -101 46 -119
0 -6 3 -9 6 -5 4 3 -3 37 -14 74 -26 88 -34 135 -23 128 5 -3 21 -54 35 -114z
m-57 57 c-3 -8 -6 -5 -6 6 -1 11 2 17 5 13 3 -3 4 -12 1 -19z m1411 -58 c1
-23 0 -23 -8 -5 -5 11 -8 34 -8 50 0 29 0 29 8 5 4 -14 8 -36 8 -50z m-1414
-26 c10 -31 16 -58 13 -60 -5 -5 -47 89 -47 105 0 29 18 5 34 -45z m-83 26 c5
0 9 -6 9 -14 0 -8 3 -16 8 -18 21 -9 67 -97 97 -184 19 -54 33 -100 31 -101
-2 -2 -18 27 -36 64 -18 38 -54 102 -80 143 -71 113 -76 124 -55 117 9 -4 21
-7 26 -7z m1480 -73 c-12 -12 -26 57 -15 75 5 8 11 0 16 -26 5 -24 5 -43 -1
-49z m-12 -47 c1 -13 0 -13 -9 0 -5 8 -9 24 -9 35 l0 20 9 -20 c5 -11 9 -27 9
-35z m-27 -67 c-8 -14 -11 -13 -17 6 -4 12 -4 34 0 49 l8 27 9 -33 c5 -19 5
-39 0 -49z m-21 -60 c-9 -15 -10 -12 -10 17 0 29 1 32 10 18 7 -12 7 -24 0
-35z m-1750 -137 c17 -32 33 -55 36 -52 3 3 -2 17 -11 32 -10 14 -16 28 -14
30 3 2 15 -15 28 -38 13 -22 17 -37 10 -33 -10 6 -12 4 -7 -8 7 -18 -19 -32
-29 -15 -4 7 -3 8 4 4 7 -4 -6 30 -29 74 -22 45 -43 80 -45 77 -3 -3 6 -28 20
-56 37 -72 32 -77 -8 -7 -27 45 -32 62 -23 72 15 16 27 2 68 -80z m-31 -42
c19 -31 41 -64 50 -72 13 -13 13 -15 0 -10 -19 6 -120 148 -120 168 1 19 22
-7 70 -86z m2036 77 c46 -28 75 -82 81 -150 5 -54 3 -60 -23 -89 -16 -17 -40
-33 -54 -37 -25 -6 -25 -6 2 12 36 23 61 86 53 133 -22 120 -124 170 -168 83
-28 -56 -29 -92 -2 -119 28 -28 51 -30 77 -7 37 33 10 112 -30 86 -24 -15 -27
-45 -6 -61 18 -13 17 -13 -6 -10 -36 4 -41 65 -7 103 20 24 27 27 53 18 38
-12 78 -85 69 -127 -13 -72 -71 -113 -133 -96 -96 25 -120 129 -51 216 29 38
68 63 99 64 8 0 29 -9 46 -19z m-2042 -121 c9 -17 15 -30 12 -30 -8 0 -96 122
-96 133 0 12 59 -61 84 -103z m-52 24 c24 -31 51 -66 61 -78 16 -18 18 -19 13
-2 -6 16 -4 17 9 6 12 -10 13 -16 3 -29 -7 -9 -13 -17 -14 -19 -1 -2 -26 30
-55 70 -30 40 -60 81 -67 90 -7 10 -9 18 -3 18 5 0 29 -25 53 -56z m-40 -1
c33 -37 93 -127 81 -122 -14 6 -123 130 -123 140 0 16 16 9 42 -18z m138 -4
c0 -6 -4 -7 -10 -4 -5 3 -10 11 -10 16 0 6 5 7 10 4 6 -3 10 -11 10 -16z m272
-15 c53 -28 116 -174 183 -428 32 -122 57 -184 106 -258 l38 -57 -32 -29 c-18
-15 -39 -37 -47 -47 -8 -11 1 -6 20 10 29 25 32 26 15 5 -11 -14 -24 -28 -29
-31 -5 -4 -5 -13 -2 -20 4 -8 1 -5 -8 6 -30 40 -50 55 -64 50 -12 -4 -13 2 -6
37 5 24 9 97 9 163 0 97 -4 127 -19 157 -20 42 -63 68 -112 68 -64 0 -127
-111 -141 -247 -6 -51 -4 -56 22 -77 l28 -23 -52 -204 c-29 -112 -57 -221 -62
-243 -9 -35 -12 -37 -26 -23 -36 36 -165 286 -177 342 -12 60 -36 281 -36 336
0 159 125 448 222 511 46 30 114 31 170 2z m-319 -118 c10 10 8 -8 -2 -25 -12
-19 -34 -4 -104 66 -42 44 -56 64 -51 77 6 15 19 6 78 -53 40 -40 75 -68 79
-65z m1859 6 c7 -13 30 -34 53 -48 l40 -24 -38 0 c-65 0 -105 68 -88 150 4 22
6 20 13 -15 4 -22 13 -50 20 -63z m-1954 5 c72 -73 89 -97 52 -77 -33 18 -140
121 -140 136 0 25 14 15 88 -59z m-57 0 c24 -23 61 -57 83 -75 21 -18 35 -36
32 -39 -16 -16 -177 122 -169 145 6 16 4 18 54 -31z m1060 12 c44 -31 35 -43
-11 -13 -22 15 -40 28 -40 30 0 10 25 2 51 -17z m-1018 -95 c37 -28 64 -54 61
-57 -3 -3 -15 -43 -27 -88 -19 -72 -22 -107 -20 -239 1 -85 5 -165 8 -177 7
-28 -19 -32 -30 -5 -6 15 -8 15 -15 -4 -6 -16 -21 -23 -55 -28 -26 -4 -49 -5
-52 -2 -3 3 0 35 7 71 17 91 6 93 -14 1 -17 -75 -26 -86 -68 -86 -20 0 -21 4
-15 83 6 94 -7 75 -18 -26 -4 -37 -11 -67 -16 -67 -12 0 -12 141 0 172 12 32
24 104 16 97 -12 -12 -45 -164 -46 -216 -2 -41 -6 -52 -21 -56 -13 -4 -18 0
-18 17 0 50 31 250 49 323 37 142 115 315 144 321 14 3 43 -16 155 -101 6 -5
12 -7 12 -5 0 2 -36 33 -80 67 -44 35 -80 67 -80 71 0 17 15 18 35 2 12 -9 52
-40 88 -68z m1002 66 c17 -11 26 -20 22 -20 -11 0 -67 29 -67 35 0 10 16 4 45
-15z m-6 -49 c62 -32 55 -49 -10 -24 -49 19 -69 31 -69 44 0 15 23 9 79 -20z
m97 -171 l6 -155 -33 -19 c-19 -11 -62 -44 -97 -73 -85 -71 -103 -70 -61 5 81
146 100 182 128 259 17 46 31 98 33 118 5 79 17 10 24 -135z m-105 114 c53
-26 64 -44 13 -21 -90 41 -98 46 -81 46 10 1 40 -11 68 -25z m335 -26 c-19
-27 -21 -10 -4 28 10 21 14 24 16 11 2 -9 -4 -27 -12 -39z m726 -44 c-2 -38
-8 -98 -13 -134 -5 -36 -9 -72 -9 -80 0 -22 -78 59 -100 105 -11 23 -20 51
-20 63 0 42 99 129 135 118 6 -1 9 -31 7 -72z m-667 55 c4 -6 4 -13 0 -17 -4
-4 -10 -1 -12 6 -3 6 -9 10 -14 6 -5 -3 -9 0 -9 5 0 14 27 14 35 0z m132 -33
c-6 -16 -79 -60 -117 -71 -21 -6 -20 -2 14 27 43 37 97 70 104 63 3 -2 2 -11
-1 -19z m-519 -12 c28 -8 28 -12 -8 -89 -16 -35 -30 -68 -30 -73 0 -5 -15 -8
-32 -6 -49 5 -78 13 -78 22 0 4 25 36 55 70 30 35 55 67 55 73 0 10 6 11 38 3z
m337 -24 c-3 -5 -11 -10 -16 -10 -6 0 -7 5 -4 10 3 6 11 10 16 10 6 0 7 -4 4
-10z m74 7 c-2 -1 -14 -11 -26 -21 -13 -11 -23 -16 -23 -13 0 10 31 37 42 37
6 0 9 -1 7 -3z m-209 -37 c0 -5 -7 -10 -16 -10 -8 0 -12 5 -9 10 3 6 10 10 16
10 5 0 9 -4 9 -10z m-51 -42 c0 -31 -1 -31 -10 -10 -5 13 -7 28 -3 33 10 16
14 9 13 -23z m71 24 c0 -13 -12 -22 -22 -16 -10 6 -1 24 13 24 5 0 9 -4 9 -8z
m100 -12 c0 -11 -50 -34 -57 -26 -3 2 5 7 16 11 12 3 21 11 21 16 0 5 5 9 10
9 6 0 10 -5 10 -10z m-85 -30 c-3 -5 -14 -10 -23 -9 -14 0 -13 2 3 9 27 11 27
11 20 0z m-714 -20 c34 -19 20 -28 -26 -17 -25 6 -45 14 -45 19 0 11 48 10 71
-2z m279 -23 c0 -5 -4 -5 -10 -2 -5 3 -10 14 -10 23 0 15 2 15 10 2 5 -8 10
-19 10 -23z m-212 -40 c13 -48 3 -77 -17 -53 -7 8 -46 21 -87 27 -48 8 -74 18
-74 26 0 17 2 17 89 -7 40 -12 76 -19 78 -16 2 2 -3 18 -11 35 -20 37 -20 42
-2 35 8 -3 19 -24 24 -47z m564 31 c-7 -7 -12 -8 -12 -2 0 6 3 14 7 17 3 4 9
5 12 2 2 -3 -1 -11 -7 -17z m68 8 c0 -7 -66 -46 -76 -46 -5 0 9 12 31 25 42
26 45 28 45 21z m-704 -17 c24 -6 44 -16 44 -21 0 -5 -5 -6 -10 -3 -6 4 -25 8
-43 11 -18 2 -45 8 -62 13 l-30 9 28 1 c16 1 48 -4 73 -10z m595 -56 c-13 -10
-53 -42 -90 -72 -68 -57 -148 -117 -184 -137 -10 -7 -42 -34 -70 -60 -39 -39
-46 -42 -28 -17 27 40 132 134 142 128 4 -3 45 26 91 64 78 64 146 112 158
110 3 0 -6 -7 -19 -16z m-684 1 c-3 -3 -12 -4 -19 -1 -8 3 -5 6 6 6 11 1 17
-2 13 -5z m30 -20 c-3 -3 -12 -4 -19 -1 -8 3 -5 6 6 6 11 1 17 -2 13 -5z m70
-10 c-3 -3 -12 -4 -19 -1 -8 3 -5 6 6 6 11 1 17 -2 13 -5z m-47 -14 c30 -5 66
-12 79 -16 18 -5 22 -4 16 6 -5 8 -3 11 6 8 8 -3 15 -14 17 -26 3 -20 1 -21
-24 -12 -15 6 -34 8 -41 6 -8 -3 -12 -2 -9 3 14 21 -116 28 -133 7 -13 -15 1
-32 18 -21 5 3 12 1 16 -5 6 -10 -7 -14 -33 -11 -8 2 -12 -5 -10 -16 2 -13 16
-20 48 -24 44 -7 44 -7 -10 -5 -63 1 -68 9 -50 75 12 46 17 47 110 31z m53
-60 c32 -7 57 -14 54 -16 -8 -8 -147 19 -147 28 0 5 8 7 18 4 9 -2 43 -10 75
-16z m262 -18 c-8 -8 -25 10 -19 20 4 6 9 5 15 -3 4 -7 6 -15 4 -17z m-265 -8
c0 -2 -30 -3 -67 -3 -47 1 -59 3 -38 8 29 6 105 3 105 -5z m250 -24 c0 -5 -7
-10 -15 -10 -8 0 -15 5 -15 10 0 6 7 10 15 10 8 0 15 -4 15 -10z m1318 -111
c20 -81 -4 -159 -72 -234 l-35 -40 6 100 c5 87 10 109 40 169 19 38 38 65 42
60 5 -5 13 -30 19 -55z m-1456 -75 c16 -34 -4 -69 -102 -185 -136 -160 -160
-192 -222 -296 -71 -116 -91 -132 -27 -21 23 40 49 87 57 103 8 17 28 49 43
71 16 23 25 44 22 48 -4 3 -1 6 6 6 7 0 10 4 7 9 -3 4 2 17 10 27 9 10 12 12
8 4 -4 -8 -3 -12 1 -7 5 4 9 15 10 25 1 18 104 181 138 220 26 28 35 28 49 -4z
m1342 -121 c-9 -115 -28 -142 -59 -83 -18 34 -7 41 13 9 22 -35 35 -8 17 34
-8 20 -11 37 -6 37 5 0 11 -3 14 -7 2 -5 2 -2 0 5 -3 12 19 92 25 92 2 0 0
-39 -4 -87z m-59 -99 c11 -18 14 -29 7 -36 -7 -7 -15 0 -26 20 -18 36 -19 42
-7 42 5 0 16 -12 26 -26z m-22 -29 c12 -17 15 -30 9 -41 -8 -14 -11 -14 -26 7
-16 24 -22 59 -8 59 4 0 15 -12 25 -25z m-29 -37 c9 -15 13 -44 12 -81 -3 -57
0 -63 48 -131 22 -31 13 -49 -9 -20 -43 55 -127 186 -122 190 10 10 27 -7 48
-48 11 -22 23 -37 26 -34 3 3 -6 25 -21 50 -33 57 -33 80 1 41 l25 -30 -21 36
c-11 20 -21 39 -21 43 0 14 21 4 34 -16z m-1415 -55 c-58 -85 -129 -176 -129
-166 0 19 150 224 158 217 2 -1 -11 -24 -29 -51z m1413 -121 c44 -61 58 -86
49 -95 -6 -6 -12 -9 -14 -6 -2 2 -17 22 -34 44 -30 40 -93 157 -93 172 1 9 3
6 92 -115z m-82 56 c13 -24 43 -71 67 -105 44 -64 49 -73 35 -73 -13 0 -142
197 -142 215 0 17 20 -2 40 -37z m20 -89 c61 -92 75 -123 43 -98 -16 13 -17
12 -5 -3 13 -16 9 -38 -6 -38 -15 0 -142 177 -142 198 0 26 19 10 75 -63 31
-41 59 -75 62 -75 3 0 1 6 -4 13 -48 61 -91 126 -98 146 -13 40 11 15 75 -80z
m-24 -97 c31 -42 44 -68 39 -80 -5 -14 -9 -12 -22 13 -8 17 -26 41 -38 55 -29
32 -85 121 -85 134 1 13 46 -38 106 -122z m-80 47 c27 -34 64 -86 82 -115 34
-55 98 -128 119 -135 15 -5 4 -59 -12 -59 -21 0 -73 69 -109 145 -18 39 -51
93 -73 120 -55 69 -77 105 -66 105 5 0 32 -28 59 -61z m-22 -29 c31 -41 70
-103 87 -139 44 -93 86 -150 115 -157 23 -6 25 -10 20 -43 -3 -20 -11 -83 -17
-141 -6 -58 -14 -106 -18 -108 -5 -1 -17 -9 -27 -16 -18 -14 -18 -16 4 -61 25
-52 22 -91 -6 -80 -17 7 -87 20 -155 31 -36 5 -38 7 -24 22 8 9 23 40 33 67
25 66 25 231 1 331 -22 93 -73 238 -102 290 l-22 42 26 20 c14 11 27 19 27 18
1 0 27 -35 58 -76z m-111 8 c108 -261 121 -311 122 -468 0 -108 -3 -131 -22
-172 -12 -27 -25 -48 -29 -48 -3 0 -3 8 1 18 35 86 42 188 20 296 -23 113
-117 355 -137 356 -13 0 -9 -13 16 -66 39 -82 94 -235 107 -302 15 -79 7 -196
-18 -252 l-18 -42 1 58 c3 168 -42 396 -102 518 -20 40 -31 72 -25 74 6 2 21
12 33 22 27 23 44 25 51 8z m422 -40 c8 -28 15 -62 15 -75 0 -38 -27 -91 -50
-98 -27 -9 -29 -7 -23 32 3 20 10 30 18 27 23 -9 26 15 6 35 -20 20 -21 31 -5
109 7 37 22 25 39 -30z m-61 -40 c-11 -140 -21 -154 -68 -97 -18 22 -25 38
-20 53 8 30 40 71 53 69 6 -2 11 3 11 11 0 8 6 17 13 19 6 3 13 6 14 6 0 1 -1
-27 -3 -61z m684 45 c6 -10 13 -33 17 -50 6 -32 6 -33 -22 -27 -33 6 -67 -23
-58 -48 7 -18 53 -41 66 -33 10 7 13 -68 3 -78 -4 -3 -13 1 -22 9 -10 11 -25
14 -44 10 l-29 -6 6 48 c20 153 56 228 83 175z m-3253 -76 c33 -79 101 -147
196 -198 31 -17 68 -43 83 -58 31 -32 66 -161 65 -241 -1 -63 -19 -132 -36
-137 -7 -3 -22 18 -34 46 -12 28 -25 51 -30 51 -4 0 -11 17 -15 38 -19 108
-83 188 -247 311 l-92 69 -7 -41 c-17 -107 -1 -189 53 -270 32 -49 34 -73 6
-111 -22 -30 -51 -6 -91 75 -33 65 -36 79 -36 155 0 113 14 173 66 278 43 85
72 123 85 108 3 -4 19 -38 34 -75z m2139 -20 c20 -41 45 -115 56 -165 20 -93
41 -302 29 -302 -3 0 -9 46 -13 103 -9 154 -47 282 -106 367 -16 23 -24 51
-21 73 2 18 20 -7 55 -76z m-74 42 c0 -6 16 -38 36 -71 62 -107 86 -196 90
-338 l3 -125 -14 140 c-15 162 -27 200 -95 306 -53 83 -59 99 -35 99 8 0 15
-5 15 -11z m7 -113 c29 -49 58 -105 64 -125 11 -36 31 -283 23 -290 -11 -11
-34 76 -34 127 0 114 -51 265 -112 329 -28 29 -31 59 -5 50 5 -1 34 -43 64
-91z m-105 -1 c62 -87 81 -148 87 -280 7 -123 9 -134 44 -172 24 -27 11 -30
-19 -5 -42 35 -57 82 -64 197 -7 117 -27 184 -75 256 -28 43 -30 49 -15 49 6
0 25 -20 42 -45z m101 -105 c10 -34 22 -98 28 -143 10 -85 22 -148 35 -182 7
-18 6 -19 -10 -6 -33 28 -46 68 -46 148 0 89 -28 204 -66 273 l-25 45 33 -36
c20 -23 40 -61 51 -99z m-149 52 c20 -62 22 -94 12 -172 -7 -55 -10 -61 -18
-40 -5 13 -8 65 -7 115 1 65 -3 101 -15 129 -13 31 -13 36 -2 26 8 -6 22 -33
30 -58z m-67 36 c-3 -8 -6 -5 -6 6 -1 11 2 17 5 13 3 -3 4 -12 1 -19z m-18
-46 c-1 -83 -18 -95 -18 -14 -1 46 3 71 9 67 6 -3 10 -27 9 -53z m-39 -27 c-8
-40 -8 -40 -9 15 0 35 3 50 8 40 5 -8 5 -33 1 -55z m175 -20 c10 -28 20 -101
24 -165 4 -63 10 -121 14 -128 5 -6 6 -12 3 -12 -3 0 -18 18 -33 41 -25 38
-27 47 -27 167 -1 70 -5 136 -10 147 -6 14 -6 17 2 10 5 -5 18 -32 27 -60z
m-235 41 c0 -8 -4 -17 -9 -20 -10 -7 -23 19 -14 28 11 11 23 6 23 -8z m37 -33
c-3 -10 -5 -2 -5 17 0 19 2 27 5 18 2 -10 2 -26 0 -35z m-1691 -91 c35 -30 72
-72 88 -102 31 -56 49 -120 35 -120 -20 0 -59 24 -59 37 0 28 -30 70 -57 81
-70 26 -79 25 -93 -19 -17 -52 -24 -55 -48 -22 -40 57 -63 184 -46 250 6 22 7
21 63 -16 31 -21 84 -61 117 -89z m1805 53 l-9 -60 -1 61 c0 33 2 64 6 68 12
12 13 -6 4 -69z m-34 -17 c-2 -13 -4 -3 -4 22 0 25 2 35 4 23 2 -13 2 -33 0
-45z m1370 25 c23 4 25 2 19 -26 -8 -40 -12 -43 -34 -24 -10 10 -24 17 -30 17
-7 0 -12 15 -12 37 0 37 0 37 16 14 12 -16 23 -22 41 -18z m-1602 -9 l27 -35
22 20 c25 23 47 26 76 11 30 -16 96 -120 124 -192 13 -35 33 -82 44 -104 11
-22 36 -85 55 -139 37 -104 95 -251 126 -320 10 -22 33 -73 51 -112 30 -67 50
-87 64 -64 9 13 -26 103 -88 231 l-56 116 31 84 c38 106 61 155 74 155 14 0
42 -102 74 -276 33 -179 50 -214 106 -225 82 -15 109 18 103 123 -2 34 0 59 4
57 10 -6 11 -168 1 -178 -4 -4 -7 -24 -5 -44 1 -20 -1 -31 -4 -24 -12 27 -21
0 -13 -40 11 -59 11 -108 -1 -108 -5 0 -10 19 -10 43 -1 32 -3 38 -10 25 -7
-11 -5 -35 5 -74 18 -69 18 -74 5 -74 -5 0 -13 18 -16 40 -4 22 -10 40 -15 40
-13 0 -11 -14 12 -74 11 -31 19 -72 17 -93 l-3 -38 -17 32 c-10 18 -18 46 -18
63 0 16 -4 30 -10 30 -27 0 2 -105 42 -147 17 -18 19 -28 13 -60 -5 -21 -7
-64 -6 -97 3 -67 -6 -67 -37 1 -40 86 -47 96 -59 101 -40 13 16 -131 75 -190
42 -44 62 -48 62 -14 0 19 4 22 25 18 39 -7 71 5 84 34 16 35 6 42 -22 16 -14
-13 -36 -22 -55 -22 l-32 0 0 78 c1 42 5 111 10 152 5 41 12 111 15 155 3 44
11 132 17 196 l11 116 37 -41 c20 -22 51 -57 69 -76 19 -19 59 -66 89 -105 54
-68 146 -168 207 -227 34 -32 88 -46 110 -28 8 7 15 25 15 41 0 34 -45 131
-85 183 -15 20 -26 38 -24 40 2 1 45 14 94 28 98 28 308 108 358 135 31 18
100 71 185 142 61 50 196 190 231 237 16 21 47 72 69 113 38 71 41 73 48 47
11 -45 -2 -188 -21 -231 -51 -118 -70 -154 -123 -238 -57 -90 -106 -155 -204
-269 -40 -46 -58 -78 -45 -78 2 0 43 14 93 31 49 17 95 31 102 32 6 0 12 4 12
9 0 4 9 8 19 8 11 0 23 5 27 11 3 6 15 9 25 6 11 -3 19 -2 19 3 0 4 15 13 33
20 17 7 46 18 62 26 73 31 85 34 85 20 0 -32 -44 -114 -82 -153 -26 -27 -39
-47 -35 -57 8 -20 43 -21 50 -2 3 7 26 18 51 25 25 6 71 22 100 36 30 14 57
25 61 25 16 0 -26 -135 -66 -212 -13 -25 28 -36 45 -12 7 9 18 14 24 10 7 -4
12 -3 12 2 0 10 99 36 108 28 11 -12 -17 -120 -51 -191 -19 -38 -50 -90 -70
-113 -21 -24 -37 -48 -37 -53 0 -15 41 -10 84 10 23 11 53 23 69 26 23 6 27 4
27 -14 0 -56 -71 -157 -144 -205 -29 -19 -58 -42 -65 -50 -8 -9 -22 -16 -32
-16 -30 0 -13 -23 54 -68 74 -51 131 -101 123 -109 -11 -11 -173 -33 -247 -33
-43 0 -95 7 -119 15 -52 18 -71 19 -68 3 4 -19 175 -69 237 -69 31 0 49 -4 42
-8 -9 -6 -8 -10 5 -15 11 -4 20 -2 23 5 2 8 6 8 11 -1 5 -7 16 -14 27 -15 16
-2 27 -5 73 -23 8 -3 19 -4 23 -3 5 1 23 -5 40 -13 18 -8 40 -16 50 -20 47
-15 -3 -47 -114 -72 -59 -13 -92 -15 -164 -8 -49 5 -135 9 -190 9 -111 0 -130
6 -246 72 -74 42 -109 53 -109 33 0 -12 424 -220 450 -220 5 0 10 -7 10 -15 0
-8 6 -12 14 -9 8 3 34 -3 58 -14 54 -25 151 -57 202 -68 22 -5 41 -14 43 -20
6 -18 -70 -36 -133 -32 -36 3 -93 -2 -149 -14 -95 -20 -102 -20 -230 19 -116
36 -382 180 -430 233 -10 11 -24 20 -32 20 -52 0 80 -170 185 -238 30 -18 62
-42 71 -51 19 -19 143 -81 161 -81 38 0 160 -93 160 -121 0 -34 -263 12 -364
63 -67 34 -198 132 -246 185 -25 27 -72 83 -104 125 -42 54 -68 79 -87 83 -32
7 -49 0 -49 -19 0 -6 -21 -22 -47 -35 -57 -27 -143 -89 -143 -102 0 -5 7 -9
15 -9 8 0 20 -10 26 -22 6 -13 30 -47 52 -76 22 -29 37 -55 34 -58 -13 -14
-83 19 -127 60 -66 62 -100 69 -274 59 -77 -4 -195 -5 -261 -1 -66 5 -134 8
-151 9 l-31 1 -12 121 c-7 67 -13 126 -14 131 -1 6 5 11 15 13 17 4 17 6 39
-154 6 -46 16 -83 21 -83 6 0 8 12 4 28 -16 72 -27 225 -17 235 6 6 13 8 16 5
3 -3 10 -55 15 -116 6 -60 13 -117 16 -125 3 -8 0 -18 -5 -22 -6 -3 -9 -11 -5
-16 7 -11 34 7 34 23 0 15 68 98 124 151 74 72 216 163 273 177 210 50 237 53
406 52 142 -2 188 2 295 23 205 40 281 68 409 152 56 37 172 154 197 200 86
155 91 172 91 283 0 91 -3 110 -23 141 -27 44 -89 89 -179 132 -89 41 -197 49
-265 19 -63 -27 -116 -77 -129 -121 -25 -85 37 -227 116 -265 57 -28 150 -27
198 3 49 30 87 81 87 116 0 23 -17 55 -57 104 -2 3 -9 -1 -15 -7 -9 -9 -6 -18
15 -40 41 -43 37 -82 -15 -127 -51 -43 -70 -49 -150 -43 -56 4 -64 8 -99 45
-62 67 -79 180 -36 244 57 85 194 113 322 64 111 -41 179 -101 203 -175 17
-56 24 -151 11 -166 -6 -7 -8 -17 -5 -23 4 -5 0 -16 -8 -24 -15 -15 -48 -87
-40 -87 2 0 -4 -8 -13 -19 -10 -10 -31 -42 -48 -71 -16 -29 -49 -72 -73 -94
-46 -44 -206 -146 -229 -146 -7 0 -30 35 -52 78 -21 42 -53 90 -69 106 -30 28
-32 28 -80 16 -28 -6 -86 -32 -129 -57 -172 -98 -200 -110 -463 -185 -50 -15
-102 -42 -124 -67 -11 -12 -23 -21 -27 -21 -4 0 -19 24 -33 53 -37 74 -56 94
-97 101 -27 5 -42 2 -60 -12 -35 -28 -86 -52 -93 -45 -3 4 -6 2 -6 -3 0 -13
-77 -47 -88 -40 -5 3 -17 32 -27 66 -10 33 -20 58 -22 56 -3 -2 4 -34 15 -70
20 -64 20 -67 2 -76 -38 -20 -39 -18 -71 109 -5 23 -12 41 -14 40 -3 -4 15
-95 30 -150 6 -24 2 -28 -36 -43 -23 -9 -43 -16 -44 -14 -1 2 -7 12 -14 23
-10 18 -11 18 -6 -5 5 -22 0 -27 -36 -42 -23 -10 -43 -17 -44 -15 0 1 -6 13
-12 27 -11 24 -12 24 -6 -6 4 -25 1 -32 -14 -36 -19 -5 -47 16 -205 153 -31
28 -86 73 -122 101 -36 28 -66 54 -66 58 0 5 -16 37 -37 72 -83 144 -93 164
-93 190 0 50 8 47 116 -41 6 -5 14 -37 18 -71 4 -34 10 -60 13 -57 2 3 0 37
-6 77 -8 51 -8 76 0 91 11 22 3 38 -36 71 -25 21 -13 35 17 19 70 -37 73 -40
85 -93 l11 -53 -4 80 c-4 58 -10 88 -25 108 -21 30 -15 35 15 12 11 -8 28 -15
38 -15 16 0 27 -24 42 -100 2 -14 2 8 -1 48 l-5 74 30 -16 c42 -22 47 -33 26
-63 -16 -26 -16 -27 7 -46 13 -10 30 -33 36 -50 l13 -32 -6 35 c-10 60 -9 67
22 95 30 28 44 31 44 11 0 -8 5 -16 12 -18 6 -2 18 -20 25 -39 l13 -34 -4 35
c-3 36 11 80 26 80 4 0 8 -10 8 -23 0 -47 42 -56 61 -13 8 18 9 18 6 -7 -3
-15 6 -54 19 -85 26 -63 32 -58 9 7 -13 38 -13 41 4 41 12 0 24 14 34 38 14
34 15 35 16 10 1 -14 -3 -28 -8 -30 -4 -1 0 -21 11 -43 18 -38 19 -35 4 11 -5
18 -2 21 24 21 18 0 30 -6 30 -14 0 -7 5 -13 10 -13 6 0 10 -20 10 -46 0 -25
9 -64 20 -88 10 -23 26 -75 35 -115 10 -40 19 -70 21 -68 3 2 -4 41 -14 86
-19 77 -19 81 -2 81 12 0 23 -14 33 -42 9 -24 16 -35 16 -25 1 10 -4 27 -9 37
-6 11 -12 44 -15 75 -6 73 -24 141 -92 348 -31 93 -64 178 -74 188 -11 11 -19
25 -19 32 0 8 -3 8 -9 -2 -7 -11 -10 -10 -14 5 -3 13 -5 11 -6 -8 -1 -26 -15
-38 -23 -19 -1 4 -14 12 -26 16 -22 6 -23 5 -17 -16 7 -21 6 -22 -8 -11 -13
11 -16 10 -20 -5 -3 -14 -6 -12 -11 10 -5 15 -13 27 -18 27 -6 0 -8 -12 -4
-27 6 -25 5 -26 -7 -10 -18 22 -28 22 -20 0 4 -11 3 -14 -5 -9 -7 4 -12 15
-12 24 0 12 -3 13 -8 5 -5 -8 -13 -9 -22 -3 -22 14 -30 12 -30 -6 0 -11 -5
-14 -16 -10 -9 3 -20 6 -25 6 -5 0 -9 7 -9 16 0 8 -4 13 -9 9 -5 -3 -12 -1
-16 5 -12 19 -26 0 -15 -20 5 -10 10 -29 9 -42 0 -15 -3 -18 -6 -8 -10 28 -45
81 -50 76 -3 -2 3 -18 13 -35 10 -17 14 -34 10 -38 -4 -4 -11 -1 -16 7 -5 8
-16 24 -25 35 -13 17 -13 14 2 -17 16 -37 11 -67 -7 -38 -8 13 -11 12 -23 -4
-13 -17 -16 -15 -50 40 -56 90 -60 94 -26 25 16 -34 29 -65 27 -67 -3 -2 -15
-5 -28 -6 -18 -2 -30 6 -49 34 -28 44 -40 44 -17 -1 19 -35 19 -41 6 -41 -5 0
-21 21 -34 48 -28 55 -96 168 -96 160 0 -3 20 -45 45 -94 25 -48 45 -91 45
-96 0 -14 -38 15 -51 39 -7 13 -14 21 -16 19 -3 -2 3 -18 12 -35 27 -53 -7
-39 -80 33 -36 35 -65 61 -65 59 0 -3 16 -28 35 -54 40 -56 38 -60 -10 -23
-33 25 -84 117 -155 284 -18 41 -35 77 -37 80 -9 9 9 -44 32 -95 57 -122 113
-255 109 -255 -9 0 -91 135 -106 175 -8 22 -13 46 -10 54 3 8 0 11 -6 7 -6 -3
-14 4 -17 16 -4 13 -27 69 -52 125 -37 85 -43 107 -36 130 9 26 11 24 38 -45
15 -40 30 -70 32 -68 2 2 -10 39 -27 82 -33 85 -27 124 9 58 24 -43 19 -9 -5
38 -11 21 -11 33 -3 52 l12 25 42 -24 c23 -14 44 -23 47 -20 2 3 -20 76 -49
162 -62 180 -87 283 -68 283 7 0 19 -26 28 -57 55 -192 101 -361 102 -378 1
-11 10 -22 20 -24 14 -2 16 1 10 15 -21 50 -96 293 -110 360 -17 72 -14 104 5
74 17 -26 131 -383 137 -428 7 -49 7 -50 67 -61 50 -9 60 -6 22 8 -23 9 -23
11 -30 213 -3 112 -9 233 -12 269 l-6 67 133 70 c74 38 139 70 145 71 7 0 24
-15 39 -35z m1480 16 c24 -26 45 -120 45 -200 l0 -65 -30 50 c-28 48 -60 161
-60 211 0 29 20 31 45 4z m-3595 -58 c27 -70 31 -174 9 -215 -14 -27 -15 -26
-14 32 0 45 -5 65 -18 78 -27 28 -39 1 -34 -81 4 -62 3 -67 -9 -45 -7 13 -14
47 -14 74 -1 54 40 226 51 219 4 -2 17 -30 29 -62z m1784 -124 c13 -109 7
-118 -23 -38 -26 67 -27 76 -12 82 27 11 28 10 35 -44z m1916 45 c-1 -5 -7
-19 -15 -33 l-14 -25 -1 33 c0 22 5 32 15 32 8 0 15 -3 15 -7z m-1943 -109
c48 -132 39 -146 -12 -19 -51 126 -49 118 -32 113 6 -3 27 -45 44 -94z m-37 4
c21 -46 41 -97 45 -115 3 -17 13 -34 21 -37 11 -4 14 -31 14 -132 0 -107 -2
-125 -14 -115 -8 7 -17 26 -20 44 -3 18 -30 106 -60 197 -62 192 -73 236 -57
226 6 -4 11 -12 11 -17 0 -5 19 -62 43 -127 24 -64 50 -143 57 -175 7 -32 17
-60 22 -63 4 -3 8 -3 8 0 0 14 -53 182 -89 284 -23 61 -36 112 -30 112 6 0 28
-37 49 -82z m-169 -6 c6 -31 20 -79 31 -107 24 -58 70 -226 65 -232 -14 -13
-38 17 -61 75 -38 97 -87 315 -73 324 18 11 25 1 38 -60z m-1571 32 c0 -8 -4
-14 -10 -14 -5 0 -10 9 -10 21 0 11 5 17 10 14 6 -3 10 -13 10 -21z m566 -66
c31 -29 92 -146 111 -213 21 -76 43 -205 43 -251 0 -23 -6 -56 -13 -73 -17
-41 -121 -157 -146 -164 -19 -5 -21 -1 -21 34 0 24 8 51 20 67 11 15 29 66 41
114 l21 88 -21 92 c-25 107 -54 178 -73 178 -8 0 -33 -37 -56 -83 -72 -138
-66 -244 17 -339 37 -42 39 -46 35 -103 -3 -33 -8 -62 -12 -66 -40 -37 -104 0
-139 79 -13 31 -37 82 -51 112 -23 47 -27 68 -26 136 1 97 23 147 111 256 45
58 103 153 103 171 0 3 5 18 12 34 l12 28 4 -37 c2 -23 12 -45 28 -60z m948
46 c5 -21 23 -96 41 -166 l31 -127 -30 16 c-46 24 -130 98 -161 143 -25 36
-26 43 -18 102 l8 63 50 6 c68 8 69 8 79 -37z m-176 30 c17 -5 22 -13 22 -41
0 -40 -13 -36 -43 16 -19 32 -17 35 21 25z m-1338 -70 c0 -8 -5 -12 -10 -9 -6
4 -8 11 -5 16 9 14 15 11 15 -7z m4567 -78 c33 -64 108 -322 126 -436 3 -18 5
-16 6 10 2 72 -75 342 -131 453 -15 31 -26 57 -24 57 10 0 61 -100 98 -189 76
-183 80 -206 82 -411 1 -170 0 -185 -16 -184 -10 1 -18 -4 -18 -12 0 -25 -16
-15 -33 21 -9 19 -14 41 -11 49 3 8 -11 26 -35 46 -29 22 -41 40 -42 58 -1 25
-2 23 -15 -17 -7 -22 -12 -10 -38 90 -13 52 -35 117 -48 145 -21 44 -23 56
-14 79 9 22 14 25 22 14 13 -17 40 -93 49 -137 4 -18 9 -32 11 -29 9 9 -19
114 -43 158 -20 37 -23 52 -16 80 l9 33 18 -43 c9 -24 28 -80 42 -125 13 -45
22 -63 19 -41 -4 22 -22 85 -42 140 -19 55 -38 113 -41 130 -4 26 -3 28 10 17
9 -7 21 -26 28 -43 7 -16 14 -28 16 -26 2 2 -14 42 -36 89 -42 90 -45 98 -32
98 11 0 51 -63 73 -116 13 -32 18 -38 14 -19 -3 17 -18 56 -34 88 -15 31 -25
59 -23 62 6 6 47 -48 69 -89z m-1830 37 c-3 -10 -5 -4 -5 12 0 17 2 24 5 18 2
-7 2 -21 0 -30z m-2036 0 c36 -21 37 -31 4 -39 -52 -13 -110 24 -74 47 21 13
38 11 70 -8z m2329 10 c0 -5 -5 -15 -10 -23 -8 -12 -10 -11 -10 8 0 12 5 22
10 22 6 0 10 -3 10 -7z m-446 -82 c-2 -3 -24 15 -47 38 l-42 44 47 -38 c26
-22 45 -41 42 -44z m593 6 c15 -23 40 -69 56 -102 16 -33 49 -87 72 -120 59
-84 63 -97 16 -45 -23 25 -53 67 -68 95 -14 27 -48 85 -74 128 -27 43 -49 83
-49 88 0 18 20 -1 47 -44z m-599 -34 c2 -1 -1 -18 -8 -38 -16 -50 -18 -48 -75
100 -5 13 6 7 36 -20 24 -22 45 -41 47 -42z m659 -193 c19 -36 50 -90 69 -120
19 -30 34 -58 34 -62 0 -4 -12 -11 -27 -14 -33 -9 -44 4 -120 140 -31 55 -72
127 -91 158 -32 54 -34 61 -27 114 l7 56 60 -104 c33 -56 76 -132 95 -168z
m-2453 204 c8 -31 -5 -49 -55 -73 l-37 -18 -21 55 c-11 31 -18 58 -15 61 10
10 99 17 111 9 6 -5 14 -20 17 -34z m2176 -36 c47 -14 49 -17 42 -60 l-7 -36
-58 34 c-32 19 -79 46 -105 60 l-47 26 70 -7 c39 -3 86 -11 105 -17z m-2391
-87 c26 -80 27 -95 1 -53 -24 39 -42 40 -69 6 -39 -50 -23 -135 42 -228 16
-23 17 -30 6 -37 -8 -5 -17 -9 -20 -9 -23 0 -89 131 -89 178 0 45 20 103 57
171 40 71 39 71 72 -28z m257 32 c35 -84 73 -251 78 -342 6 -105 -5 -145 -53
-196 -48 -51 -119 -215 -133 -309 -3 -16 -11 -11 -51 28 -58 58 -80 100 -108
203 l-22 78 29 20 c79 55 149 149 164 218 10 50 4 108 -25 243 -6 28 -4 31 34
49 23 10 46 24 52 32 16 18 17 18 35 -24z m2074 -10 c72 -39 90 -52 90 -70 0
-13 -2 -23 -4 -23 -4 0 -48 32 -162 117 -46 35 -21 27 76 -24z m276 -159 l82
-143 -45 -7 c-52 -8 -161 0 -173 13 -5 4 -2 76 5 158 8 83 15 154 15 160 0 15
27 -27 116 -181z m-280 101 c52 -37 94 -73 94 -80 0 -21 -7 -19 -59 15 -47 29
-152 130 -137 130 4 0 50 -29 102 -65z m-11 -105 c-10 -11 -15 -31 -13 -51 4
-45 25 -48 34 -4 5 29 9 33 20 24 22 -18 18 -91 -6 -117 -27 -28 -36 -28 -65
4 -25 27 -58 123 -69 204 -4 25 -10 56 -13 69 -4 17 11 7 61 -44 64 -63 67
-68 51 -85z m-1575 86 c0 -6 -4 -5 -9 3 -7 11 -11 10 -20 -5 -10 -18 -10 -18
-11 2 0 11 3 24 7 27 8 9 33 -12 33 -27z m-119 7 c31 -27 49 -67 49 -113 0
-42 -5 -47 -30 -29 -11 8 -12 12 -2 16 27 11 -2 73 -35 73 -8 0 -13 12 -13 35
0 40 2 41 31 18z m2405 -48 c16 -40 17 -54 5 -74 -15 -23 -71 23 -71 58 0 57
44 68 66 16z m-2290 -5 c16 0 19 -16 5 -25 -10 -5 -32 25 -30 42 0 4 3 2 6 -4
2 -7 11 -13 19 -13z m3159 -72 c36 -79 70 -227 57 -240 -7 -7 -14 -9 -17 -6
-3 3 -19 53 -34 110 -16 58 -34 115 -40 127 -11 19 -7 61 5 61 3 0 16 -24 29
-52z m-4 -141 c30 -105 31 -127 4 -127 -8 0 -15 6 -16 13 0 6 -4 2 -9 -10 -14
-34 -28 -28 -40 17 -6 22 -20 62 -31 87 -16 38 -18 52 -9 72 16 34 28 17 57
-76 13 -43 21 -60 17 -38 -3 22 -13 58 -21 80 -24 64 -26 84 -12 101 11 14 13
14 22 -1 5 -9 22 -62 38 -118z m-2931 61 c11 -24 18 -34 15 -23 -11 37 13 2
33 -50 63 -158 104 -252 133 -303 38 -67 25 -59 -20 13 -17 28 -31 45 -31 39
0 -16 54 -96 81 -120 89 -77 296 -132 385 -101 29 9 47 11 59 4 11 -6 25 -6
39 1 27 13 94 26 124 23 12 -1 22 3 22 9 0 8 11 10 33 6 17 -3 38 -2 46 3 8 5
27 5 44 0 23 -7 33 -5 39 5 4 8 18 11 33 8 14 -2 25 0 25 6 0 13 53 11 62 -3
17 -23 4 -34 -69 -55 -229 -65 -261 -79 -326 -145 -14 -13 -24 -12 -98 15 -45
17 -83 29 -85 27 -2 -2 29 -16 68 -32 40 -15 77 -31 82 -36 18 -17 -23 -20
-53 -5 -65 34 -104 9 -52 -33 27 -22 45 -59 24 -49 -5 2 -24 12 -45 22 -63 33
-94 -6 -43 -54 22 -21 35 -60 19 -60 -4 0 -22 14 -41 31 -78 68 -123 4 -68
-98 15 -26 46 -82 71 -123 44 -75 55 -108 31 -93 -18 11 -236 249 -277 303
-19 25 -88 105 -154 178 -65 73 -117 135 -115 136 2 2 31 -5 64 -16 33 -11 89
-21 125 -22 63 -3 57 2 -20 18 -32 7 -81 86 -232 374 -97 185 -98 199 -18 224
30 9 58 17 62 17 4 1 16 -18 28 -41z m1888 -41 c16 -19 26 -67 14 -67 -14 0
-52 49 -52 66 0 17 24 18 38 1z m-53 -16 c3 -10 17 -31 30 -45 24 -26 24 -27
5 -46 -19 -19 -19 -19 -39 14 -11 18 -29 41 -41 51 -29 26 -25 45 9 45 20 0
32 -6 36 -19z m-73 -14 c10 -12 40 -53 66 -92 26 -38 67 -97 92 -130 49 -65
94 -162 88 -192 -2 -12 -14 -19 -33 -21 -26 -3 -42 9 -147 119 -116 120 -142
155 -94 124 19 -13 28 -14 50 -4 49 23 22 99 -37 104 -26 3 -57 -21 -57 -43 0
-19 -38 15 -110 99 l-49 56 106 1 c97 1 107 0 125 -21z m1083 -60 c14 -37 25
-71 25 -76 0 -14 -41 -21 -45 -8 -1 7 -12 39 -22 72 -15 45 -17 65 -9 78 14
22 21 14 51 -66z m-49 -18 c14 -40 18 -89 6 -89 -8 0 -42 96 -42 119 0 24 24
5 36 -30z m-30 -35 c16 -39 16 -65 -2 -71 -14 -5 -49 81 -39 96 12 20 26 11
41 -25z m-40 -39 c14 -34 12 -55 -5 -55 -13 0 -34 58 -27 75 8 23 16 18 32
-20z m351 13 c31 -35 58 -91 45 -96 -18 -6 -25 0 -57 49 -42 61 -32 95 12 47z
m-3171 -20 c9 -18 22 -40 29 -48 7 -8 27 -44 46 -80 18 -36 41 -77 51 -92 10
-14 18 -29 18 -33 0 -15 -157 166 -188 216 -20 33 -20 36 -5 52 24 24 30 22
49 -15z m2794 -50 c0 -5 -7 -8 -15 -8 -19 0 -29 24 -20 48 6 15 8 14 20 -8 8
-14 14 -28 15 -32z m-3696 3 c19 -122 86 -249 154 -295 15 -10 35 -31 44 -47
10 -17 28 -31 45 -34 15 -3 75 -19 133 -35 58 -17 133 -31 167 -32 35 -2 63
-4 63 -5 0 -2 -19 -13 -42 -25 -34 -18 -59 -23 -118 -22 -134 1 -237 56 -359
191 -80 88 -110 150 -118 241 -6 71 -1 102 15 102 5 0 12 -17 16 -39z m4060
-2 c27 -32 33 -49 16 -49 -5 0 -10 4 -10 9 0 5 -12 23 -26 40 -14 17 -21 31
-16 31 6 0 22 -14 36 -31z m-404 -10 c0 -5 -4 -9 -10 -9 -5 0 -10 7 -10 16 0
8 5 12 10 9 6 -3 10 -10 10 -16z m400 -39 c0 -5 -13 -16 -29 -24 -25 -14 -30
-14 -41 -1 -7 8 -9 22 -6 31 5 14 9 13 26 -7 22 -27 27 -14 5 14 -7 11 -11 26
-8 35 5 12 11 10 30 -12 13 -15 23 -31 23 -36z m-435 20 c-3 -5 -14 -10 -23
-10 -15 0 -15 2 -2 10 20 13 33 13 25 0z m605 -86 c24 -65 25 -94 5 -94 -25 0
-30 4 -27 18 2 8 -4 32 -12 53 -9 22 -16 43 -16 46 0 13 27 -31 38 -62 7 -22
11 -24 11 -10 0 11 -10 40 -24 64 -28 49 -32 70 -10 51 8 -6 23 -36 35 -66z
m-250 25 c0 -6 -4 -7 -10 -4 -5 3 -10 11 -10 16 0 6 5 7 10 4 6 -3 10 -11 10
-16z m-4216 -5 c3 -8 2 -12 -4 -9 -6 3 -10 10 -10 16 0 14 7 11 14 -7z m4436
-83 c-1 -10 -6 -7 -15 9 -19 33 -18 50 0 26 8 -11 15 -27 15 -35z m-15 -21 c4
-17 3 -21 -3 -11 -8 11 -10 11 -14 0 -3 -8 -5 1 -5 19 0 36 11 32 22 -8z m-30
-30 c3 -5 1 -10 -4 -10 -6 0 -11 5 -11 10 0 6 2 10 4 10 3 0 8 -4 11 -10z
m-3285 -125 c7 -8 11 -17 9 -19 -9 -8 -189 -42 -189 -36 0 9 70 73 95 87 21
12 60 -2 85 -32z m3429 -142 c-5 -13 -13 -23 -18 -23 -13 0 -21 41 -14 69 5
18 3 22 -7 16 -7 -5 -11 -4 -9 1 9 16 27 59 35 79 5 14 10 -1 14 -50 4 -38 4
-80 -1 -92z m-3207 56 c40 -45 86 -94 101 -108 16 -14 53 -56 83 -92 44 -55
54 -73 54 -105 0 -35 -1 -36 -14 -18 -8 10 -11 20 -7 22 10 4 1 52 -9 52 -5 0
-10 -8 -12 -17 -2 -11 -14 9 -30 47 -14 35 -31 66 -38 68 -13 5 72 -163 98
-191 15 -17 17 -17 29 -1 12 16 13 15 13 -10 0 -19 -4 -25 -12 -20 -7 4 -2 -9
10 -30 29 -48 28 -59 -1 -22 l-23 29 -60 -26 c-95 -42 -93 -42 -128 43 -32 77
-190 395 -209 418 -16 20 6 33 70 41 6 0 44 -36 85 -80z m-2062 34 c7 -21 23
-57 36 -81 12 -23 19 -40 13 -37 -21 13 -85 155 -70 155 5 0 15 -17 21 -37z
m1905 -26 c28 -49 31 -62 13 -51 -8 4 -10 3 -5 -2 5 -5 12 -8 15 -8 10 2 141
-249 136 -258 -9 -15 -20 -8 -31 20 l-12 27 2 -29 c3 -52 -21 -40 -38 19 -9
31 -19 54 -22 52 -2 -3 0 -22 6 -44 15 -53 14 -83 -4 -83 -8 0 -17 14 -21 38
-4 20 -11 44 -16 52 -6 10 -7 3 -2 -20 9 -48 1 -37 -51 68 -24 51 -46 92 -49
92 -2 0 18 -50 46 -110 31 -68 47 -117 43 -128 -4 -12 -18 13 -44 80 -40 100
-89 193 -98 185 -3 -3 4 -18 16 -34 30 -42 91 -208 84 -232 -8 -30 -16 -26
-34 17 l-16 37 5 -49 c6 -60 -8 -56 -33 9 -9 26 -19 44 -21 42 -2 -2 3 -20 11
-40 17 -41 19 -67 6 -67 -5 0 -12 16 -16 36 -8 46 -91 206 -145 281 -39 54
-40 58 -23 74 10 10 34 21 54 24 34 6 38 4 58 -28 12 -19 29 -41 38 -48 9 -8
5 4 -10 26 -34 50 -34 63 1 71 15 3 41 10 57 14 61 16 73 12 100 -33z m1279
-34 c52 -158 69 -263 42 -263 -25 0 -32 27 -36 138 0 6 -6 12 -14 12 -11 0
-13 9 -9 35 5 28 2 35 -11 35 -9 0 -21 -11 -26 -25 -12 -33 -22 -32 -18 1 4
34 -24 54 -51 37 -15 -10 -22 -9 -31 2 -18 21 -41 18 -47 -5 -7 -26 -23 -26
-23 0 0 21 -30 42 -46 32 -6 -4 -16 -16 -22 -27 -11 -19 -11 -19 -12 3 0 13
-6 22 -16 22 -24 0 -7 18 39 42 41 21 115 34 209 37 l46 1 26 -77z m2033 -5
c-3 -8 -6 -5 -6 6 -1 11 2 17 5 13 3 -3 4 -12 1 -19z m-2 -66 c-11 -11 -27 17
-20 35 6 16 8 16 16 -6 5 -13 7 -26 4 -29z m-25 -2 c0 -5 -4 -10 -10 -10 -5 0
-10 5 -10 10 0 6 5 10 10 10 6 0 10 -4 10 -10z m104 -185 c6 -72 -6 -130 -38
-194 l-17 -31 -54 27 c-50 25 -55 31 -56 63 l-2 35 -6 -32 -6 -31 -34 17 c-26
14 -30 19 -17 24 9 4 17 5 19 4 1 -1 13 8 27 21 27 25 40 16 40 -31 0 -16 4
-26 9 -23 5 4 5 22 0 43 -6 28 -5 42 6 52 15 15 19 5 29 -64 2 -16 2 -2 0 33
-2 34 -1 62 2 62 6 0 22 -41 40 -105 l14 -50 -6 48 c-3 26 -12 64 -20 83 -12
28 -12 39 -3 50 19 23 29 4 37 -67 l8 -64 7 54 c5 31 4 57 -1 60 -5 3 -14 16
-21 29 -10 18 -9 23 4 28 8 3 15 18 15 33 1 51 18 -2 24 -74z m-5159 25 c14
-28 30 -48 35 -45 12 7 41 -50 35 -67 -3 -7 11 -40 31 -73 84 -139 110 -176
117 -169 3 3 34 -31 69 -77 35 -45 90 -114 123 -153 33 -39 73 -91 89 -116 16
-25 38 -55 49 -67 28 -31 17 -29 -27 6 -20 16 -67 71 -104 123 -83 115 -86
119 -146 207 -27 39 -51 69 -54 67 -2 -3 43 -72 101 -153 58 -81 104 -149 102
-151 -1 -1 -14 2 -28 9 -15 7 -31 28 -41 53 -9 22 -43 77 -77 121 -64 85 -131
192 -196 315 -22 41 -57 104 -76 140 -20 36 -37 68 -37 73 0 18 12 3 35 -43z
m2229 -78 c-1 -7 -2 -29 -3 -49 -2 -31 -4 -34 -11 -18 -14 32 -12 87 3 83 6
-3 12 -10 11 -16z m41 -31 c3 -5 -2 -16 -10 -24 -18 -18 -20 -31 -3 -21 8 5 9
2 5 -10 -4 -10 -7 -27 -8 -39 -1 -12 -5 -2 -10 23 -9 46 -4 80 11 80 5 0 11
-4 15 -9z m2030 -63 c21 -35 47 -74 57 -87 19 -24 19 -25 -10 -36 -29 -13
-166 -47 -264 -66 -29 -5 -129 -10 -223 -10 -154 1 -222 -4 -310 -24 l-30 -7
25 20 c29 24 190 77 293 97 76 14 142 37 212 73 22 12 65 32 95 45 30 14 64
32 75 41 11 8 25 16 31 16 6 0 28 -28 49 -62z m-2011 -5 c-7 -54 -23 -81 -17
-31 6 50 13 78 19 78 3 0 2 -21 -2 -47z m56 -82 c-12 -74 -20 -76 -20 -4 0 59
7 81 21 66 4 -5 3 -32 -1 -62z m38 -33 c2 56 12 65 36 30 17 -24 19 -77 6
-148 -7 -38 -8 -30 -8 48 0 51 -2 96 -6 99 -7 7 -9 -44 -7 -121 2 -44 0 -48
-13 -36 -9 7 -16 27 -16 44 0 24 -3 27 -10 16 -7 -11 -10 5 -10 51 0 84 13 99
21 22 l6 -58 1 53z m101 -49 c19 -26 22 -40 19 -80 -3 -27 -2 -52 3 -55 4 -2
9 16 11 41 l3 45 100 -109 c55 -59 107 -117 116 -128 22 -27 35 -173 15 -173
-15 0 -26 50 -26 122 0 26 -4 50 -10 53 -6 4 -7 -23 -3 -75 4 -52 2 -80 -4
-80 -15 0 -23 35 -24 105 0 33 -5 69 -10 80 -6 13 -8 -12 -6 -77 2 -54 -1 -98
-5 -98 -5 0 -20 11 -33 25 -22 21 -25 32 -24 97 1 78 7 70 28 -37 8 -43 9 -38
4 35 -3 47 -10 87 -14 88 -5 2 -9 16 -9 30 0 21 -2 24 -10 12 -5 -8 -10 -51
-11 -95 -1 -62 -3 -72 -9 -45 -6 28 -8 30 -9 10 l-1 -25 -21 25 c-17 21 -19
35 -15 90 3 36 8 81 11 100 5 28 4 32 -5 17 -6 -10 -15 -46 -19 -80 -5 -34 -9
-51 -10 -37 -2 22 -3 23 -10 5 -7 -18 -9 -18 -25 8 -15 22 -17 41 -12 114 3
55 2 79 -3 63 -5 -14 -9 -50 -10 -79 -1 -41 -4 -52 -12 -44 -13 13 -3 183 10
183 4 0 18 -14 30 -31z m904 -31 c8 -35 14 -64 13 -64 0 -1 -10 -4 -22 -8 -19
-6 -22 -1 -33 50 -15 76 -14 84 8 84 14 0 22 -14 34 -62z m-60 -25 c14 -53 15
-68 5 -75 -7 -4 -16 -8 -19 -8 -8 0 -28 132 -22 143 10 18 19 3 36 -60z m-49
-15 c4 -24 9 -52 12 -64 4 -15 -2 -23 -20 -32 -27 -12 -26 -14 -41 85 -5 33
-3 43 12 51 24 14 29 9 37 -40z m1847 17 c-4 -37 -9 -45 -25 -45 -13 0 -38 65
-29 74 3 2 17 4 31 3 24 -2 27 -6 23 -32z m-134 3 c8 20 43 14 43 -8 0 -23 -1
-24 -52 -8 -25 7 -34 14 -26 19 7 4 16 3 21 -4 7 -9 10 -9 14 1z m-1770 -96
c8 -45 7 -54 -8 -68 -17 -15 -18 -15 -23 7 -12 61 -14 138 -3 142 15 5 22 -12
34 -81z m-57 -13 c3 -35 8 -69 12 -75 4 -6 -14 -32 -41 -58 l-49 -48 -5 48
c-20 165 -20 162 3 174 12 6 24 10 26 8 2 -3 7 -34 10 -69 11 -105 26 -106 19
0 -5 75 -4 92 7 89 8 -3 15 -28 18 -69z m-2566 -8 c26 -49 27 -76 3 -68 -6 2
-11 17 -12 33 0 21 -5 29 -18 29 -22 0 -37 22 -37 53 0 36 31 13 64 -47z
m2446 12 c1 -5 7 -51 14 -103 10 -70 11 -100 3 -115 -9 -17 -13 -9 -23 50 -16
86 -17 175 -4 175 6 0 10 -3 10 -7z m-2193 -55 c34 -38 37 -48 12 -45 -27 4
-65 67 -41 67 5 0 18 -10 29 -22z m507 -59 c26 -31 38 -65 14 -41 -7 7 -20 12
-29 12 -9 0 -19 8 -23 18 -3 9 -10 27 -16 40 -8 20 -8 21 9 12 10 -5 31 -23
45 -41z m3803 39 c-3 -7 -13 -33 -23 -58 -9 -25 -24 -54 -31 -65 -12 -18 -13
-16 -7 21 4 26 2 44 -5 48 -20 13 -11 32 22 49 40 19 51 21 44 5z m-4010 -37
c18 -24 16 -31 -10 -31 -22 0 -47 33 -47 61 0 13 41 -9 57 -30z m1762 -28 c19
-128 22 -173 11 -173 -5 0 -10 12 -10 26 0 14 -4 23 -9 20 -5 -3 -11 18 -15
47 -12 90 -18 117 -28 117 -6 0 -7 -9 -3 -22 4 -13 10 -48 15 -78 4 -30 11
-67 15 -82 6 -25 4 -28 -18 -28 -23 0 -24 3 -30 83 -3 45 -8 89 -12 98 -4 11
4 23 27 37 18 12 36 22 40 22 3 0 11 -30 17 -67z m2152 -14 c-2 -35 1 -54 10
-60 7 -4 10 -11 6 -15 -12 -13 -20 5 -27 59 -5 34 -3 55 4 59 6 4 11 8 11 8 0
0 -2 -23 -4 -51z m-4164 4 c-11 -10 -26 8 -20 23 5 15 7 14 15 -1 6 -9 7 -19
5 -22z m3813 27 c0 -5 -2 -10 -4 -10 -3 0 -8 5 -11 10 -3 6 -1 10 4 10 6 0 11
-4 11 -10z m30 -6 c0 -8 -4 -12 -10 -9 -5 3 -10 10 -10 16 0 5 5 9 10 9 6 0
10 -7 10 -16z m30 -5 c0 -11 -4 -17 -10 -14 -5 3 -10 13 -10 21 0 8 5 14 10
14 6 0 10 -9 10 -21z m33 -16 c5 -26 4 -26 -9 -8 -15 21 -19 49 -5 41 5 -3 11
-18 14 -33z m-1978 -92 l7 -71 -26 0 c-27 0 -31 11 -39 116 -3 44 -1 52 17 60
25 11 31 -2 41 -105z m2033 76 c3 -21 0 -25 -17 -20 -12 3 -21 11 -21 18 0 8
-3 21 -6 29 -5 13 -2 15 17 8 15 -6 25 -19 27 -35z m123 -31 c1 -19 3 -24 6
-13 5 18 5 18 20 0 13 -17 14 -16 8 12 -3 17 -8 39 -12 50 -4 16 -3 17 7 8 7
-6 15 -34 18 -61 l4 -49 -38 6 c-38 6 -39 8 -44 54 -4 26 -4 50 -1 53 10 10
31 -30 32 -60z m-92 5 c2 -26 -13 -1 -16 27 -2 23 -1 24 7 7 5 -11 9 -26 9
-34z m46 13 c7 -41 4 -47 -19 -38 -10 4 -16 18 -16 40 0 47 26 45 35 -2z m142
14 c-3 -8 -6 -5 -6 6 -1 11 2 17 5 13 3 -3 4 -12 1 -19z m-870 -23 c9 -24 -1
-27 -15 -5 -8 13 -8 20 -2 20 6 0 13 -7 17 -15z m-339 -20 c7 -14 12 -32 12
-40 0 -26 -15 -16 -28 17 -15 42 -25 31 -11 -12 11 -29 10 -35 -7 -47 -18 -13
-19 -11 -26 27 -4 22 -10 44 -13 50 -6 10 23 29 46 30 9 0 21 -11 27 -25z
m-74 -52 c5 -39 3 -50 -11 -61 -16 -12 -18 -9 -21 32 -4 62 -18 58 -16 -4 1
-56 -7 -63 -25 -23 -11 25 -11 25 6 12 16 -13 16 -12 -1 15 l-19 30 27 23 c40
34 52 29 60 -24z m456 21 c0 -8 -4 -12 -10 -9 -5 3 -10 13 -10 21 0 8 5 12 10
9 6 -3 10 -13 10 -21z m30 -27 c0 -10 -4 -15 -10 -12 -5 3 -10 18 -10 33 0 21
2 24 10 12 5 -8 10 -23 10 -33z m-2580 13 c0 -5 -2 -10 -4 -10 -3 0 -8 5 -11
10 -3 6 -1 10 4 10 6 0 11 -4 11 -10z m2614 -23 c4 -19 3 -26 -4 -22 -5 3 -10
18 -10 32 0 32 5 28 14 -10z m34 11 c7 -7 13 -21 13 -32 1 -18 2 -18 6 -3 7
27 23 9 23 -26 -1 -29 -2 -30 -14 -15 -7 10 -16 15 -19 12 -5 -5 -37 58 -37
72 0 8 17 3 28 -8z m-2468 -18 c-8 -5 -37 -9 -65 -8 l-50 1 50 7 c82 11 82 11
65 0z m2057 -72 l6 -65 -44 -17 c-35 -14 -47 -15 -66 -5 -13 7 -26 23 -29 35
-3 13 -11 21 -19 18 -21 -9 -28 16 -9 31 12 8 21 10 25 3 3 -5 9 -1 11 10 3
11 16 25 28 32 l23 12 -6 -63 c-3 -40 -2 -56 3 -44 5 11 9 41 9 66 1 67 26 74
35 10 3 -27 3 -57 -1 -66 -5 -13 -3 -16 7 -10 9 6 11 25 6 74 -5 47 -4 63 4
55 6 -6 13 -40 17 -76z m533 15 c0 -8 -5 -11 -11 -7 -8 5 -10 -1 -7 -20 8 -40
-7 -31 -19 12 -10 37 -10 37 -13 7 -2 -30 -2 -30 -10 -5 -4 14 -8 33 -9 42 -1
17 1 17 34 1 19 -9 35 -23 35 -30z m-505 -25 c5 -26 4 -38 -4 -38 -6 0 -11 12
-11 28 0 15 -3 38 -6 52 -4 19 -3 21 4 10 6 -8 13 -32 17 -52z m35 -7 c0 -21
-16 -2 -25 29 -7 24 -7 24 9 5 8 -11 16 -27 16 -34z m520 -18 c0 -51 -24 -36
-28 17 -3 39 -2 42 12 31 9 -8 16 -29 16 -48z m71 17 c36 -12 59 -49 59 -94 0
-16 -2 -16 -30 1 -24 14 -30 25 -32 53 l-1 35 -4 -33 c-3 -25 -8 -32 -20 -28
-8 3 -18 6 -23 6 -4 0 -7 18 -6 40 0 23 5 38 11 36 5 -3 26 -10 46 -16z m491
-6 c-7 -12 -11 -13 -17 -4 -4 7 -2 16 6 21 18 11 23 4 11 -17z m-159 -46 c6
-49 -1 -67 -24 -68 -8 0 -20 100 -13 111 15 25 32 5 37 -43z m31 -5 c4 -27 2
-43 -4 -43 -5 0 -10 15 -10 34 0 19 -3 43 -6 53 -5 12 -4 15 3 8 6 -5 13 -29
17 -52z m55 20 c-1 -37 -1 -37 -8 -8 -7 28 -5 45 5 45 2 0 3 -17 3 -37z m41 6
c0 -10 -4 -19 -10 -19 -5 0 -10 12 -10 26 0 14 4 23 10 19 6 -3 10 -15 10 -26z
m-66 -21 c4 -24 3 -38 -4 -38 -5 0 -10 19 -10 42 0 49 5 47 14 -4z m-924 11
c18 -37 29 -84 21 -92 -6 -6 -51 89 -51 110 0 10 24 -4 30 -18z m629 -16 c6
-21 12 -49 15 -63 2 -17 4 -12 6 15 l3 40 7 -45 c7 -40 7 -38 5 18 -2 45 1 62
10 62 23 0 35 -99 16 -129 -11 -17 -42 -7 -68 22 -25 27 -38 117 -17 117 7 0
18 -17 23 -37z m174 30 c11 -18 19 -103 9 -103 -5 0 -12 18 -16 39 -3 22 -9
46 -12 55 -6 16 11 23 19 9z m-73 -29 c15 -39 13 -104 -4 -104 -11 0 -15 17
-18 65 -3 68 6 83 22 39z m37 14 c6 -7 13 -32 16 -55 4 -32 1 -43 -10 -48 -21
-7 -20 -9 -25 58 -5 57 1 68 19 45z m-808 -35 c17 -62 14 -91 -11 -99 -36 -13
-42 -11 -68 14 -14 14 -36 32 -48 40 l-24 15 24 13 c32 18 46 17 51 -3 4 -14
5 -14 6 3 0 12 8 27 16 34 13 11 15 4 16 -56 1 -64 2 -66 11 -34 5 19 8 52 5
73 -3 20 -1 37 3 37 5 0 14 -17 19 -37z m-164 -34 c20 -21 19 -21 -17 2 -21
13 -38 28 -38 32 0 12 33 -8 55 -34z m245 26 c0 -8 -2 -15 -4 -15 -2 0 -6 7
-10 15 -3 8 -1 15 4 15 6 0 10 -7 10 -15z m-47 -45 c3 -11 1 -23 -4 -26 -5 -3
-9 6 -9 20 0 31 6 34 13 6z m221 -77 c5 -11 1 -22 -11 -31 -15 -11 -20 -10
-31 5 -7 10 -22 28 -32 41 -11 12 -20 31 -20 43 0 19 3 18 44 -10 24 -17 47
-38 50 -48z m-100 0 c12 -49 13 -69 5 -80 -19 -22 -28 -15 -26 20 1 17 -2 53
-6 80 -12 71 8 57 27 -20z m-63 -9 l6 -49 2 50 c2 38 4 45 11 30 10 -22 13
-115 5 -115 -16 0 -65 32 -65 42 0 6 -3 9 -6 5 -9 -9 -66 22 -62 34 2 6 6 9 9
7 3 -2 14 5 24 15 13 13 20 15 25 7 5 -8 9 -4 13 10 10 37 32 16 38 -36z
m-170 29 c13 -16 12 -17 -3 -4 -10 7 -18 15 -18 17 0 8 8 3 21 -13z m280 -76
c-13 -13 -17 -9 -25 28 l-6 30 20 -24 c14 -17 18 -27 11 -34z m-118 -71 c-4
-16 -1 -18 21 -12 34 8 127 -42 103 -55 -22 -13 -103 19 -143 56 -6 5 -34 30
-62 55 -74 64 -64 77 18 22 54 -37 68 -51 63 -66z m257 87 c0 -10 3 -29 6 -43
5 -17 3 -22 -4 -15 -15 15 -26 75 -13 75 6 0 11 -8 11 -17z m-25 -30 c16 -38
14 -63 -5 -63 -5 0 -10 12 -10 28 0 15 -4 34 -9 42 -9 13 -6 30 4 30 3 0 12
-17 20 -37z m-29 -35 c6 -40 4 -47 -15 -57 -17 -9 -30 -7 -71 14 -28 14 -48
30 -44 36 3 6 8 8 11 5 2 -2 14 5 25 16 21 21 33 16 41 -17 3 -11 5 -5 4 13
-1 20 4 36 13 42 21 13 29 1 36 -52z m109 53 c3 -6 -4 -15 -15 -21 -11 -6 -20
-9 -20 -6 0 2 -3 11 -6 20 -4 11 0 16 14 16 12 0 23 -4 27 -9z m91 -68 c0 -56
-25 -60 -28 -5 -1 37 -1 37 -7 -8 -5 -36 -10 -45 -26 -45 -17 0 -20 7 -22 45
l-2 45 13 -40 14 -40 1 41 c1 47 4 52 34 50 19 -1 22 -7 23 -43z m32 7 c-3
-35 -18 -41 -18 -7 0 21 7 37 17 37 2 0 2 -13 1 -30z m41 21 c12 -8 12 -12 2
-25 -19 -23 -31 -20 -31 9 0 27 6 30 29 16z m61 -5 c0 -2 -7 -6 -15 -10 -8 -3
-15 -1 -15 4 0 6 7 10 15 10 8 0 15 -2 15 -4z m-230 -62 c0 -17 -7 -23 -35
-26 -42 -5 -68 7 -45 21 9 7 17 6 21 0 3 -6 9 0 13 13 l7 23 9 -22 c14 -34 23
-28 15 10 -5 24 -4 28 4 17 6 -8 11 -25 11 -36z m-110 -44 c12 -8 9 -10 -13
-10 -16 0 -26 4 -22 10 8 12 16 12 35 0z"/>
<path d="M4105 5690 c-50 -11 -75 -33 -102 -85 -21 -40 -26 -65 -27 -130 -1
-78 0 -81 22 -81 15 0 19 3 12 10 -5 6 -10 38 -10 73 0 144 86 222 192 175 55
-24 79 -57 109 -149 12 -40 26 -73 30 -73 4 0 9 15 11 34 2 19 0 34 -4 33 -5
-1 -17 22 -27 51 -35 101 -123 162 -206 142z"/>
<path d="M3959 5664 c-5 -15 -8 -29 -5 -31 2 -2 8 10 14 26 13 38 5 41 -9 5z"/>
<path d="M4130 5593 c-51 -26 -75 -81 -74 -170 0 -40 -4 -73 -9 -73 -5 0 -7
-6 -4 -12 2 -7 -4 -37 -15 -67 -20 -61 -22 -73 -8 -51 9 13 14 11 33 -10 12
-14 30 -37 40 -50 17 -24 17 -24 1 9 -9 19 -27 45 -40 58 -32 32 -20 52 13 22
13 -13 42 -47 65 -77 38 -48 40 -55 28 -77 -7 -13 -17 -22 -22 -19 -4 3 -8 0
-8 -5 0 -18 19 -12 30 9 6 11 14 19 18 16 4 -2 7 10 7 27 0 38 -28 92 -84 166
-32 43 -38 58 -30 73 5 10 12 18 14 18 3 0 18 -26 34 -57 17 -32 43 -78 60
-102 l29 -44 16 31 c19 37 21 57 2 24 l-12 -23 -26 33 c-14 18 -42 66 -62 106
-26 52 -41 72 -52 68 -10 -4 -13 0 -10 17 3 12 8 39 11 59 6 38 45 80 87 94
62 19 132 -192 94 -287 -19 -47 -12 -52 9 -6 8 17 20 40 27 49 9 12 9 23 1 40
-6 13 -16 49 -23 81 -12 59 -62 139 -90 145 -8 1 -31 -6 -50 -15z m16 -387
c48 -80 38 -92 -15 -17 -23 34 -54 69 -67 77 -20 13 -22 19 -13 36 11 20 12
20 35 -8 13 -16 40 -55 60 -88z"/>
<path d="M3932 5560 c0 -19 2 -27 5 -17 2 9 2 25 0 35 -3 9 -5 1 -5 -18z"/>
<path d="M4136 5484 c-31 -31 -13 -74 31 -74 31 0 42 43 18 70 -22 24 -29 25
-49 4z"/>
<path d="M3927 5450 c6 -36 19 -58 28 -49 3 3 -4 23 -15 45 l-19 39 6 -35z"/>
<path d="M4305 5409 c-4 -6 -5 -12 -2 -15 2 -3 7 2 10 11 7 17 1 20 -8 4z"/>
<path d="M4335 5260 c-3 -5 7 -26 22 -47 32 -42 45 -25 18 26 -16 32 -29 39
-40 21z"/>
<path d="M4000 5192 c0 -7 9 -17 20 -24 12 -7 35 -34 51 -60 37 -57 49 -64 19
-10 -34 59 -90 118 -90 94z"/>
<path d="M3977 5129 l-16 -41 36 -44 c47 -58 53 -57 9 2 -31 40 -38 74 -16 74
4 0 8 11 8 25 0 14 -2 25 -3 25 -1 0 -9 -19 -18 -41z"/>
<path d="M4285 5140 c-11 -18 4 -45 45 -84 22 -21 40 -42 40 -47 0 -6 5 -7 10
-4 25 15 -4 91 -46 124 -30 23 -40 26 -49 11z"/>
<path d="M4022 5103 c9 -10 25 -36 37 -58 12 -22 21 -33 21 -24 0 17 -55 99
-67 99 -3 0 1 -8 9 -17z"/>
<path d="M4110 5029 c0 -10 -4 -21 -10 -24 -5 -3 -10 -12 -10 -18 1 -12 23 13
40 44 6 11 5 16 -6 16 -7 0 -14 -8 -14 -18z"/>
<path d="M4190 4962 c0 -10 15 -26 35 -36 19 -10 45 -34 57 -52 25 -37 36 -42
44 -19 9 23 -15 72 -48 100 -35 30 -88 34 -88 7z"/>
<path d="M4076 4765 c-23 -36 -20 -45 17 -45 37 0 71 -30 103 -90 l19 -35 3
39 c5 56 -23 123 -58 141 -41 21 -65 19 -84 -10z"/>
<path d="M3711 4502 c-49 -49 -108 -103 -133 -120 -24 -16 -66 -57 -93 -89
-27 -32 -97 -108 -155 -168 -124 -129 -289 -329 -343 -413 -29 -45 -39 -73
-43 -118 -8 -82 4 -106 67 -138 59 -29 145 -35 229 -15 25 6 91 19 148 29 119
22 142 34 337 180 215 162 283 247 330 418 25 88 17 219 -17 293 -32 71 -127
172 -190 204 l-50 25 -87 -88z m172 -43 c31 -28 57 -58 57 -66 0 -16 -120 83
-128 105 -8 24 15 11 71 -39z m-100 -16 c9 -48 -2 -333 -15 -377 -25 -84 -178
-206 -472 -375 -15 -9 -45 -27 -65 -40 -20 -13 -77 -46 -127 -72 -99 -54 -114
-52 -114 8 0 56 39 121 144 236 56 62 112 126 125 142 58 75 493 505 512 505
4 0 9 -12 12 -27z m144 -86 c17 -16 36 -26 42 -23 10 7 18 -7 36 -63 6 -18 -1
-15 -30 18 -21 22 -42 41 -47 41 -14 0 -108 79 -108 91 0 12 69 -29 107 -64z
m-16 -53 c82 -70 92 -83 19 -28 -95 72 -96 73 -84 74 5 0 35 -21 65 -46z m23
-50 l38 -32 -29 2 c-31 1 -109 43 -99 53 3 4 19 -2 34 -13 37 -28 52 -36 52
-30 0 3 -20 19 -45 36 -25 17 -45 36 -45 41 0 13 40 -12 94 -57z m-12 -51 c35
-20 71 -43 81 -51 16 -14 17 -13 11 19 -4 19 -3 31 1 27 4 -4 9 -26 11 -48 3
-50 -10 -51 -62 -4 -21 19 -58 47 -81 61 -24 13 -43 27 -43 29 0 10 24 1 82
-33z m48 -7 c0 -2 -9 -2 -20 1 -11 3 -20 9 -20 15 0 5 9 4 20 -2 11 -6 20 -12
20 -14z m-30 -46 c24 -22 52 -43 62 -46 20 -6 25 -34 6 -34 -7 0 -28 9 -45 20
-18 11 -39 17 -46 14 -8 -3 -20 3 -28 12 -13 16 -12 17 6 10 12 -4 4 7 -18 26
-20 18 -37 38 -37 45 0 21 53 -4 100 -47z m-69 -6 c12 -15 11 -16 -9 -10 -34
11 -26 -1 21 -30 23 -15 53 -38 67 -50 14 -13 34 -30 45 -39 48 -36 -42 7
-100 48 -47 34 -60 49 -61 70 -1 30 17 35 37 11z m99 -70 c22 -15 40 -28 40
-30 0 -9 -61 20 -76 37 -24 26 -11 24 36 -7z m-72 -29 c34 -25 66 -45 71 -45
15 0 21 -14 12 -29 -6 -10 -14 -8 -37 6 -70 44 -124 88 -124 100 0 21 12 16
78 -32z m-1 -56 c99 -73 74 -93 -27 -21 -13 9 -21 11 -17 5 5 -7 29 -27 55
-45 35 -24 42 -33 29 -36 -9 -2 -14 -8 -11 -14 4 -7 2 -8 -5 -4 -6 4 -9 11 -6
16 3 5 -4 11 -15 15 -11 3 -38 21 -60 40 -22 18 -45 35 -52 37 -8 3 -8 12 3
36 8 18 19 30 24 28 6 -2 43 -28 82 -57z m-82 -43 c20 -15 20 -15 -2 -10 -12
4 -30 15 -40 26 -18 20 -17 21 2 10 11 -6 29 -17 40 -26z m-74 -3 c-9 -4 -4
-10 16 -18 17 -7 33 -23 36 -35 5 -20 4 -20 -16 -7 -12 8 -32 20 -44 28 -16
10 -19 16 -11 26 6 7 16 13 22 12 6 0 5 -3 -3 -6z m126 -59 c18 -14 33 -31 33
-38 0 -18 -31 -29 -44 -16 -13 13 -29 13 -20 -1 5 -8 1 -8 -14 0 -12 6 -24 17
-28 24 -5 9 -4 9 7 0 20 -19 31 -15 19 6 -17 32 -12 34 21 7 32 -27 49 -33 49
-16 0 6 -6 10 -13 10 -8 0 -24 11 -37 25 -30 32 -16 32 27 -1z m-177 -4 c0 -5
5 -10 11 -10 5 0 37 -18 70 -41 49 -33 58 -43 48 -55 -18 -22 -31 -17 -91 36
-31 28 -59 50 -62 50 -17 0 1 -19 54 -60 33 -25 59 -48 60 -52 0 -4 -9 -12
-19 -17 -14 -8 -22 -7 -32 7 -13 15 -12 16 4 3 9 -7 17 -10 17 -6 0 10 -103
105 -114 105 -12 0 34 50 46 50 4 0 8 -4 8 -10z m-73 -55 c-4 -9 11 -26 41
-49 26 -19 56 -44 66 -55 36 -40 -10 -24 -56 19 -58 55 -78 66 -78 43 0 -15
-2 -16 -10 -3 -6 10 -3 21 12 37 25 27 32 29 25 8z m82 -49 c14 -14 20 -26 15
-26 -10 1 -74 57 -74 65 0 10 35 -13 59 -39z m-60 -70 c28 -29 32 -38 22 -50
-11 -13 -21 -7 -68 40 -35 35 -53 61 -49 70 5 13 10 13 33 -4 16 -11 43 -36
62 -56z m61 -16 c0 -23 -19 -15 -57 22 -60 58 -54 79 7 27 28 -23 50 -45 50
-49z m-124 8 c30 -28 54 -55 54 -59 0 -10 -61 -45 -90 -52 -20 -4 -35 3 -72
38 -45 40 -60 65 -39 65 14 0 98 -49 111 -65 13 -16 30 -20 30 -7 0 4 -25 23
-54 42 -30 19 -54 40 -52 45 6 23 36 13 77 -24 23 -22 44 -39 47 -37 2 2 -17
23 -42 46 -25 23 -43 46 -40 51 9 15 14 11 70 -43z m-127 -75 c69 -55 67 -53
51 -63 -12 -8 -26 2 -64 42 -27 29 -43 44 -35 33 7 -11 26 -35 43 -52 16 -18
27 -35 24 -39 -4 -3 -28 -11 -54 -18 l-48 -12 -38 44 c-21 24 -38 47 -38 53 0
13 17 11 29 -3 58 -73 86 -91 34 -22 -23 31 -30 54 -15 54 4 0 22 -23 41 -50
19 -28 36 -48 38 -46 3 2 -9 23 -26 47 -36 49 -37 56 -13 62 9 3 19 5 21 6 2
0 25 -16 50 -36z m-135 -70 c27 -31 34 -43 22 -43 -9 0 -16 5 -16 10 0 6 -5
10 -11 10 -5 0 -7 -4 -4 -10 14 -23 -15 -7 -39 21 -29 34 -32 45 -13 52 18 8
19 6 61 -40z m-70 -5 c24 -34 19 -44 -9 -18 -14 13 -25 27 -25 32 0 16 19 8
34 -14z m-25 -22 c14 -15 19 -26 12 -31 -6 -3 -11 -1 -11 5 0 6 -5 8 -11 5 -5
-4 -19 1 -30 11 -15 13 -16 19 -7 26 19 11 22 10 47 -16z m-39 -37 c0 -9 -39
1 -46 12 -3 5 -2 14 1 20 7 10 45 -16 45 -32z m-65 11 c3 -5 2 -10 -4 -10 -5
0 -13 5 -16 10 -3 6 -2 10 4 10 5 0 13 -4 16 -10z"/>
<path d="M3988 4569 c-28 -16 -22 -32 28 -73 27 -23 54 -57 65 -83 27 -63 44
-46 43 43 -1 64 -3 69 -35 95 -35 29 -71 36 -101 18z"/>
<path d="M2577 5459 c-6 -23 18 -38 35 -21 8 8 8 15 -2 27 -17 20 -27 19 -33
-6z"/>
<path d="M2389 5173 c-11 -31 -5 -57 14 -51 15 6 22 48 8 48 -6 0 -8 7 -5 15
4 8 3 15 0 15 -4 0 -11 -12 -17 -27z"/>
<path d="M2202 4758 c2 -13 8 -23 13 -23 6 0 11 10 13 23 2 15 -2 22 -13 22
-11 0 -15 -7 -13 -22z"/>
<path d="M2121 4436 c-16 -19 -10 -51 9 -51 17 0 26 43 12 57 -5 5 -14 3 -21
-6z"/>
<path d="M2375 4889 c-23 -64 -44 -133 -41 -136 2 -2 11 18 21 44 10 27 25 56
33 66 12 13 13 20 4 29 -8 8 -13 8 -17 -3z"/>
<path d="M2420 4872 c0 -10 -4 -22 -8 -27 -11 -12 -43 -95 -38 -95 3 0 16 24
30 54 14 30 31 58 36 61 12 7 4 25 -11 25 -5 0 -9 -8 -9 -18z"/>
<path d="M2461 4817 c-6 -16 -11 -33 -11 -38 0 -10 -5 -21 -34 -76 -9 -18 -14
-33 -9 -33 14 1 80 149 72 162 -5 8 -11 3 -18 -15z"/>
<path d="M2360 4719 c-6 -11 -10 -25 -8 -30 2 -5 8 4 15 21 13 34 9 40 -7 9z"/>
<path d="M2300 4670 c0 -5 5 -10 10 -10 6 0 10 5 10 10 0 6 -4 10 -10 10 -5 0
-10 -4 -10 -10z"/>
<path d="M2340 4659 c0 -5 5 -7 10 -4 6 3 10 8 10 11 0 2 -4 4 -10 4 -5 0 -10
-5 -10 -11z"/>
<path d="M2291 4633 c-1 -6 -4 -20 -7 -30 -5 -17 -5 -17 6 0 6 10 9 23 6 30
-3 9 -5 9 -5 0z"/>
<path d="M2372 4580 c-12 -33 -18 -60 -14 -60 8 0 46 110 40 116 -2 2 -14 -23
-26 -56z"/>
<path d="M2421 4574 c-22 -85 -21 -96 3 -39 15 35 22 63 17 68 -6 6 -14 -6
-20 -29z"/>
<path d="M2438 4433 c-9 -48 -15 -89 -12 -92 9 -9 17 11 29 76 6 37 14 74 16
82 2 7 0 15 -6 17 -5 2 -18 -35 -27 -83z"/>
<path d="M2331 4427 c-14 -79 -14 -97 -1 -97 6 0 10 19 10 43 0 23 4 59 9 80
5 20 5 37 1 37 -4 0 -13 -28 -19 -63z"/>
<path d="M3359 4403 c-13 -16 -12 -17 4 -4 9 7 17 15 17 17 0 8 -8 3 -21 -13z"/>
<path d="M4547 4253 c-13 -12 -7 -43 7 -43 19 0 28 14 20 34 -7 17 -16 20 -27
9z"/>
<path d="M3059 4153 c-43 -48 -62 -73 -57 -73 3 0 24 23 47 50 45 53 52 69 10
23z"/>
<path d="M3556 3222 c-9 -17 -25 -65 -37 -108 -18 -65 -21 -97 -17 -194 6
-144 20 -180 77 -203 26 -11 70 -17 116 -17 67 0 76 2 87 23 6 12 12 45 11 74
0 59 -46 163 -134 310 -28 46 -54 96 -58 110 -10 38 -27 39 -45 5z m38 -200
c37 -95 66 -192 66 -217 0 -11 -7 -30 -15 -42 -37 -53 -104 32 -113 143 -5 66
16 212 28 197 3 -4 19 -41 34 -81z m44 11 c13 -20 20 -38 17 -41 -10 -10 -28
16 -46 65 -10 27 -12 40 -6 29 7 -10 22 -34 35 -53z m51 -123 c6 0 16 -10 22
-22 12 -22 11 -22 -8 -5 -11 9 -24 17 -30 17 -13 0 -23 24 -23 53 1 18 4 16
15 -10 8 -18 19 -33 24 -33z m22 -59 l24 -20 -25 6 -25 6 28 -30 c34 -36 34
-46 2 -31 -14 6 -28 23 -31 37 -3 14 -7 32 -10 39 -5 18 10 15 37 -7z m-1 -95
c0 -2 -9 -6 -20 -9 -15 -4 -20 0 -20 14 0 17 3 18 20 9 11 -6 20 -12 20 -14z"/>
<path d="M3442 3213 c5 -25 28 -28 28 -4 0 12 -6 21 -16 21 -9 0 -14 -7 -12
-17z"/>
<path d="M3406 3142 c-16 -26 -36 -146 -36 -219 0 -83 25 -240 41 -257 17 -19
10 -39 -11 -33 -11 3 -20 2 -20 -3 0 -4 14 -10 31 -14 43 -8 124 -8 115 1 -4
4 -27 6 -52 4 -30 -2 -44 1 -40 8 4 6 -3 43 -16 83 -30 97 -32 263 -4 356 14
44 16 66 9 73 -7 7 -13 7 -17 1z"/>
<path d="M2980 2757 c0 -12 42 -118 45 -115 5 5 -28 105 -37 114 -5 4 -8 5 -8
1z"/>
<path d="M3030 2708 c0 -9 5 -20 10 -23 13 -8 13 5 0 25 -8 13 -10 13 -10 -2z"/>
<path d="M3265 2660 c-3 -5 3 -10 14 -10 12 0 21 5 21 10 0 6 -6 10 -14 10 -8
0 -18 -4 -21 -10z"/>
<path d="M3740 2662 c0 -13 -47 -32 -77 -32 -15 0 -24 -3 -20 -6 3 -4 36 -3
71 1 61 6 65 8 56 26 -11 19 -30 26 -30 11z"/>
<path d="M3315 2649 c7 -11 44 -18 50 -9 3 4 -8 10 -25 12 -16 2 -27 1 -25 -3z"/>
<path d="M3080 2610 c6 -11 13 -20 16 -20 2 0 0 9 -6 20 -6 11 -13 20 -16 20
-2 0 0 -9 6 -20z"/>
<path d="M2991 2616 c-1 -10 89 -207 101 -221 13 -15 -4 28 -55 135 -25 52
-46 91 -46 86z"/>
<path d="M3568 2613 c12 -2 32 -2 45 0 12 2 2 4 -23 4 -25 0 -35 -2 -22 -4z"/>
<path d="M3062 2565 c12 -24 23 -43 26 -41 4 5 -36 86 -43 86 -3 0 5 -20 17
-45z"/>
<path d="M3130 2584 c0 -6 7 -19 16 -30 14 -18 14 -18 3 6 -14 31 -19 36 -19
24z"/>
<path d="M3161 2529 c-2 -13 90 -201 95 -196 3 3 -17 49 -45 103 -27 55 -50
96 -50 93z"/>
<path d="M3211 2495 c0 -5 8 -26 19 -45 11 -19 19 -30 19 -25 0 6 -8 26 -19
45 -11 19 -19 31 -19 25z"/>
<path d="M3100 2481 c0 -6 4 -13 10 -16 6 -3 7 1 4 9 -7 18 -14 21 -14 7z"/>
<path d="M3287 2424 c-7 -7 42 -108 68 -139 9 -11 4 2 -11 28 -15 27 -32 64
-39 83 -6 19 -14 31 -18 28z"/>
<path d="M3276 2357 c3 -10 9 -15 12 -12 3 3 0 11 -7 18 -10 9 -11 8 -5 -6z"/>
<path d="M3367 2325 c9 -19 18 -33 20 -32 5 6 -21 67 -29 67 -4 0 0 -16 9 -35z"/>
<path d="M3315 2280 c14 -27 28 -50 30 -50 3 0 -6 23 -20 50 -14 28 -28 50
-30 50 -3 0 6 -22 20 -50z"/>
<path d="M3260 2315 c0 -5 5 -17 10 -25 5 -8 10 -10 10 -5 0 6 -5 17 -10 25
-5 8 -10 11 -10 5z"/>
<path d="M3457 2274 c-3 -6 6 -33 21 -62 29 -57 41 -64 18 -11 -7 19 -18 45
-23 58 -5 14 -12 20 -16 15z"/>
<path d="M4991 2244 c-11 -14 -23 -42 -26 -63 -3 -20 -8 -51 -11 -69 -6 -39
-53 -95 -94 -112 -19 -8 -47 -10 -76 -5 -40 6 -56 16 -108 68 -34 34 -88 92
-121 130 -58 67 -81 78 -115 57 -12 -7 -15 -35 -15 -141 l0 -133 32 -8 c18 -5
39 -19 47 -31 22 -35 29 -113 16 -170 -14 -58 -40 -92 -85 -112 -69 -32 -105
-89 -105 -168 0 -74 48 -103 140 -84 30 6 40 3 63 -19 42 -38 82 -40 179 -9
45 15 106 40 133 55 28 15 82 40 120 55 112 42 165 67 229 108 46 30 66 37 88
33 27 -5 28 -4 28 32 0 45 -24 99 -79 179 -44 64 -58 115 -60 217 -2 87 -20
143 -56 182 -42 44 -93 47 -124 8z m98 -14 c29 -15 49 -78 56 -180 9 -123 16
-147 60 -215 21 -31 36 -57 34 -59 -7 -5 -95 -44 -194 -86 -55 -23 -149 -69
-208 -102 -107 -60 -179 -88 -223 -88 -58 0 -62 103 -10 244 48 127 47 165 -3
252 -34 58 -38 71 -29 95 5 16 13 29 16 29 4 0 27 -23 51 -51 65 -76 108 -101
176 -101 52 -1 59 2 97 38 45 44 68 88 68 134 0 17 7 46 14 65 13 29 20 35 46
35 17 0 39 -4 49 -10z"/>
<path d="M5155 1840 c-3 -5 -2 -10 4 -10 5 0 13 5 16 10 3 6 2 10 -4 10 -5 0
-13 -4 -16 -10z"/>
<path d="M3146 2247 c3 -10 9 -15 12 -12 3 3 0 11 -7 18 -10 9 -11 8 -5 -6z"/>
<path d="M3530 2204 c0 -6 7 -19 16 -30 14 -18 14 -18 3 6 -14 31 -19 36 -19
24z"/>
<path d="M3421 2150 c14 -31 19 -36 19 -24 0 6 -7 19 -16 30 -14 18 -14 18 -3
-6z"/>
<path d="M4210 2135 c0 -34 66 -183 76 -172 2 2 -9 33 -26 68 -16 35 -30 78
-30 96 0 17 -4 35 -10 38 -6 4 -10 -8 -10 -30z"/>
<path d="M3451 2093 c7 -12 15 -20 18 -17 3 2 -3 12 -13 22 -17 16 -18 16 -5
-5z"/>
<path d="M3621 1664 c0 -11 3 -14 6 -6 3 7 2 16 -1 19 -3 4 -6 -2 -5 -13z"/>
<path d="M4030 1647 c0 -12 32 -107 36 -107 3 0 1 12 -2 28 -8 32 -33 91 -34
79z"/>
<path d="M3721 1620 c0 -8 4 -24 9 -35 5 -13 9 -14 9 -5 0 8 -4 24 -9 35 -5
13 -9 14 -9 5z"/>
<path d="M3971 1594 c0 -11 3 -14 6 -6 3 7 2 16 -1 19 -3 4 -6 -2 -5 -13z"/>
<path d="M3552 1570 c0 -14 2 -19 5 -12 2 6 2 18 0 25 -3 6 -5 1 -5 -13z"/>
<path d="M3982 1540 c0 -14 2 -19 5 -12 2 6 2 18 0 25 -3 6 -5 1 -5 -13z"/>
<path d="M3562 1500 c0 -19 2 -27 5 -17 2 9 2 25 0 35 -3 9 -5 1 -5 -18z"/>
<path d="M4068 1493 c5 -21 7 -23 10 -9 2 10 0 22 -6 28 -6 6 -7 0 -4 -19z"/>
<path d="M3482 1485 c0 -16 2 -22 5 -12 2 9 2 23 0 30 -3 6 -5 -1 -5 -18z"/>
<path d="M4002 1460 c0 -14 2 -19 5 -12 2 6 2 18 0 25 -3 6 -5 1 -5 -13z"/>
<path d="M4082 1450 c0 -8 4 -26 8 -40 6 -20 8 -21 8 -5 0 11 -3 29 -8 40 -5
12 -8 14 -8 5z"/>
<path d="M4201 1444 c0 -11 3 -14 6 -6 3 7 2 16 -1 19 -3 4 -6 -2 -5 -13z"/>
<path d="M3492 1430 c0 -14 2 -19 5 -12 2 6 2 18 0 25 -3 6 -5 1 -5 -13z"/>
<path d="M3571 1440 c0 -8 6 -28 14 -45 17 -39 18 -21 0 25 -7 19 -14 28 -14
20z"/>
<path d="M4010 1425 c0 -5 5 -17 10 -25 5 -8 10 -10 10 -5 0 6 -5 17 -10 25
-5 8 -10 11 -10 5z"/>
<path d="M4221 1364 c0 -11 3 -14 6 -6 3 7 2 16 -1 19 -3 4 -6 -2 -5 -13z"/>
<path d="M4170 1344 c0 -10 5 -26 10 -34 8 -11 9 -7 4 15 -8 37 -14 45 -14 19z"/>
<path d="M4231 1324 c0 -11 3 -14 6 -6 3 7 2 16 -1 19 -3 4 -6 -2 -5 -13z"/>
<path d="M5931 2864 c0 -11 3 -14 6 -6 3 7 2 16 -1 19 -3 4 -6 -2 -5 -13z"/>
<path d="M5941 2824 c0 -11 3 -14 6 -6 3 7 2 16 -1 19 -3 4 -6 -2 -5 -13z"/>
<path d="M5951 2790 c0 -8 4 -24 9 -35 5 -13 9 -14 9 -5 0 8 -4 24 -9 35 -5
13 -9 14 -9 5z"/>
<path d="M5976 2695 c3 -22 10 -47 15 -55 12 -18 1 44 -12 75 -7 14 -7 7 -3
-20z"/>
<path d="M5932 2610 c0 -14 2 -19 5 -12 2 6 2 18 0 25 -3 6 -5 1 -5 -13z"/>
<path d="M6001 2610 c0 -8 4 -24 9 -35 5 -13 9 -14 9 -5 0 8 -4 24 -9 35 -5
13 -9 14 -9 5z"/>
<path d="M5971 2594 c0 -11 3 -14 6 -6 3 7 2 16 -1 19 -3 4 -6 -2 -5 -13z"/>
<path d="M5901 2584 c0 -11 3 -14 6 -6 3 7 2 16 -1 19 -3 4 -6 -2 -5 -13z"/>
<path d="M5942 2560 c0 -14 2 -19 5 -12 2 6 2 18 0 25 -3 6 -5 1 -5 -13z"/>
<path d="M5912 2530 c0 -19 2 -27 5 -17 2 9 2 25 0 35 -3 9 -5 1 -5 -18z"/>
<path d="M6063 2500 c0 -25 2 -35 4 -22 2 12 2 32 0 45 -2 12 -4 2 -4 -23z"/>
<path d="M5956 2495 c3 -22 10 -44 15 -49 12 -13 11 -9 -6 44 l-15 45 6 -40z"/>
<path d="M5991 2521 c-2 -25 23 -131 30 -131 4 0 1 24 -6 53 -7 28 -16 61 -18
72 -3 11 -5 14 -6 6z"/>
<path d="M6064 2428 c-10 -16 -6 -70 6 -82 7 -7 10 9 10 42 0 53 -3 61 -16 40z"/>
<path d="M6025 2340 c10 -11 20 -18 23 -15 7 6 -18 35 -31 35 -5 0 -2 -9 8
-20z"/>
<path d="M2914 2515 c11 -38 76 -180 76 -168 0 7 -16 49 -36 95 -36 82 -52
111 -40 73z"/>
<path d="M2990 2325 c0 -5 5 -17 10 -25 5 -8 10 -10 10 -5 0 6 -5 17 -10 25
-5 8 -10 11 -10 5z"/>
<path d="M3152 1985 c2 -3 38 -7 79 -10 50 -3 64 -1 44 4 -33 9 -131 14 -123
6z"/>
<path d="M3311 1966 c2 -2 22 -6 44 -9 28 -5 34 -4 20 3 -19 8 -73 14 -64 6z"/>
<path d="M4735 2229 c-20 -32 31 -90 68 -76 24 9 27 47 6 68 -21 21 -64 26
-74 8z"/>
<path d="M6171 1854 c0 -11 3 -14 6 -6 3 7 2 16 -1 19 -3 4 -6 -2 -5 -13z"/>
<path d="M2710 1871 c0 -5 5 -13 10 -16 6 -3 10 -2 10 4 0 5 -4 13 -10 16 -5
3 -10 2 -10 -4z"/>
<path d="M2770 1872 c0 -12 39 -82 46 -82 4 0 -34 80 -42 89 -2 2 -4 -1 -4 -7z"/>
<path d="M2692 1821 c18 -27 34 -48 36 -46 6 6 -49 95 -59 95 -5 0 5 -22 23
-49z"/>
<path d="M2566 1838 c4 -7 30 -44 57 -81 27 -37 62 -91 78 -120 16 -29 29 -48
29 -44 0 15 -43 92 -80 142 -20 27 -44 65 -54 83 -9 17 -21 32 -27 32 -6 0 -7
-6 -3 -12z"/>
<path d="M2530 1833 c0 -7 4 -13 9 -13 6 0 29 -29 52 -65 47 -73 61 -86 27
-24 -29 50 -87 118 -88 102z"/>
<path d="M2770 1761 c0 -6 4 -13 10 -16 6 -3 7 1 4 9 -7 18 -14 21 -14 7z"/>
<path d="M2790 1724 c0 -5 4 -14 9 -19 5 -6 14 -27 21 -48 7 -21 14 -36 17
-33 7 6 -14 62 -34 91 -7 11 -13 15 -13 9z"/>
<path d="M2646 1667 c3 -10 9 -15 12 -12 3 3 0 11 -7 18 -10 9 -11 8 -5 -6z"/>
<path d="M2666 1620 c3 -14 11 -32 16 -40 6 -10 7 -7 2 10 -3 14 -11 32 -16
40 -6 10 -7 7 -2 -10z"/>
<path d="M1091 1540 c0 -8 6 -24 14 -34 19 -25 19 -9 0 24 -8 14 -14 19 -14
10z"/>
<path d="M3626 1112 c-8 -13 -5 -133 3 -128 4 3 9 35 10 71 2 61 -1 75 -13 57z"/>
<path d="M5173 7725 c-3 -9 -3 -18 0 -21 9 -9 27 6 27 22 0 19 -19 18 -27 -1z"/>
<path d="M4937 7533 c-12 -11 -8 -23 7 -23 8 0 16 7 20 15 5 15 -14 21 -27 8z"/>
<path d="M2687 5903 c-4 -3 -7 -13 -7 -21 0 -12 3 -12 15 -2 8 7 15 16 15 21
0 11 -14 12 -23 2z"/>
<path d="M3602 5838 c-14 -14 -16 -28 -3 -28 9 0 24 30 18 36 -2 2 -9 -2 -15
-8z"/>
<path d="M3616 5786 c-8 -33 -3 -42 11 -24 6 7 7 22 3 33 -6 17 -8 16 -14 -9z"/>
<path d="M1327 5718 c-35 -27 -50 -131 -43 -293 10 -244 32 -476 55 -585 5
-25 15 -72 21 -105 25 -125 152 -416 246 -562 20 -32 47 -81 60 -109 21 -49
47 -73 58 -55 3 5 -18 46 -46 92 -144 236 -228 416 -265 569 -31 127 -34 282
-9 460 20 146 21 432 2 515 -8 32 -22 65 -32 72 -22 16 -26 16 -47 1z"/>
<path d="M5331 5696 l-23 -24 48 -59 c27 -33 69 -92 94 -131 45 -71 63 -82 83
-51 8 13 3 35 -22 93 -19 42 -39 81 -47 87 -7 6 -27 33 -44 60 -36 55 -56 61
-89 25z"/>
<path d="M3637 5666 c-4 -10 -5 -21 -2 -24 9 -9 17 6 13 25 -3 17 -4 17 -11
-1z"/>
<path d="M3626 5491 c-4 -7 -5 -15 -2 -18 9 -9 19 4 14 18 -4 11 -6 11 -12 0z"/>
<path d="M2172 5478 c-7 -7 -12 -25 -12 -40 0 -21 5 -28 20 -28 25 0 42 37 28
63 -10 20 -20 21 -36 5z"/>
<path d="M5311 5446 c-28 -30 -21 -66 21 -101 29 -24 32 -25 49 -9 11 9 19 23
19 30 0 15 -52 104 -61 104 -3 0 -16 -11 -28 -24z"/>
<path d="M3610 5431 c-12 -24 -13 -31 -1 -31 5 0 11 11 13 25 6 30 2 32 -12 6z"/>
<path d="M3657 5354 c-4 -4 -7 -17 -7 -28 1 -19 1 -20 11 -3 11 19 8 43 -4 31z"/>
<path d="M3670 5311 c0 -5 -3 -16 -6 -25 -3 -9 -2 -16 4 -16 5 0 12 11 14 25
3 14 1 25 -3 25 -5 0 -9 -4 -9 -9z"/>
<path d="M1940 5294 c-37 -23 -88 -94 -135 -189 -23 -46 -56 -100 -73 -120
-16 -21 -35 -56 -40 -79 -11 -48 -5 -166 9 -181 16 -16 47 34 54 85 4 25 18
79 31 122 21 63 33 84 72 120 26 25 54 49 62 54 22 13 97 114 109 146 9 23 7
30 -12 43 -27 19 -45 19 -77 -1z"/>
<path d="M5206 5294 c-3 -9 -6 -43 -6 -76 0 -33 -7 -106 -16 -161 -13 -82 -14
-111 -4 -160 14 -72 14 -250 0 -313 -6 -26 -19 -59 -29 -73 -42 -60 -53 -140
-24 -181 20 -30 33 -40 53 -40 29 0 42 18 45 61 1 24 10 102 19 172 17 138 15
279 -5 518 -12 134 -12 137 10 172 22 36 22 37 5 67 -20 33 -39 39 -48 14z"/>
<path d="M3610 5254 c0 -8 5 -12 10 -9 6 3 10 10 10 16 0 5 -4 9 -10 9 -5 0
-10 -7 -10 -16z"/>
<path d="M3656 5235 c-9 -9 -13 -21 -10 -27 3 -5 13 0 21 12 19 26 11 37 -11
15z"/>
<path d="M3701 5204 c-6 -15 -9 -29 -7 -32 3 -2 10 8 16 23 6 15 9 29 7 31 -2
2 -9 -8 -16 -22z"/>
<path d="M2252 5165 c-17 -37 -14 -45 4 -12 9 16 14 31 11 33 -2 2 -9 -7 -15
-21z"/>
<path d="M3653 5153 c-14 -5 -18 -33 -5 -33 10 0 32 22 32 32 0 9 -8 9 -27 1z"/>
<path d="M3664 5100 c-20 -8 -41 -40 -26 -40 4 0 21 11 37 25 31 25 27 30 -11
15z"/>
<path d="M3706 5044 c-3 -9 -2 -23 2 -31 7 -11 9 -6 10 16 1 34 -3 39 -12 15z"/>
<path d="M3742 5035 c-7 -14 -12 -37 -12 -50 0 -13 -4 -27 -10 -30 -5 -3 -10
-12 -10 -18 0 -7 4 -6 10 3 5 8 13 11 17 6 4 -4 -3 -17 -16 -28 -19 -14 -22
-21 -12 -27 7 -5 12 -12 11 -17 0 -5 5 -10 12 -11 15 -3 53 45 43 55 -3 3 -10
0 -15 -8 -5 -8 -11 -12 -14 -9 -3 3 3 15 14 27 11 12 20 29 20 39 -1 17 -1 17
-14 0 -13 -16 -14 -15 -12 10 1 15 4 33 7 38 4 6 3 18 0 28 -6 17 -8 16 -19
-8z"/>
<path d="M3667 5043 c-11 -19 -18 -73 -9 -73 5 0 12 17 15 37 6 36 4 52 -6 36z"/>
<path d="M7030 4903 c-28 -43 -48 -84 -45 -91 2 -7 1 -10 -5 -7 -5 3 -14 -3
-19 -14 -14 -26 -14 -34 2 -25 8 5 8 3 -2 -9 -7 -9 -18 -14 -24 -10 -6 3 -7 1
-3 -6 8 -12 -24 -70 -51 -92 -14 -12 -16 -12 -8 1 21 38 -78 -90 -117 -151
-32 -50 16 -55 52 -6 35 47 148 173 283 312 76 80 115 128 112 138 -8 20 -49
37 -90 37 -31 0 -38 -6 -85 -77z"/>
<path d="M3155 4790 c-16 -18 -16 -20 -2 -20 9 0 21 9 27 20 6 11 7 20 2 20
-5 0 -17 -9 -27 -20z"/>
<path d="M3230 4715 c0 -8 5 -15 10 -15 6 0 10 7 10 15 0 8 -4 15 -10 15 -5 0
-10 -7 -10 -15z"/>
<path d="M6904 4708 l-19 -23 23 19 c12 11 22 21 22 23 0 8 -8 2 -26 -19z"/>
<path d="M1274 4605 c-9 -48 2 -94 41 -178 92 -199 155 -376 197 -557 44 -188
54 -286 40 -384 -41 -285 -20 -443 77 -566 34 -43 33 -15 -4 61 -19 41 -39 97
-45 124 -12 60 -4 330 11 400 20 90 22 381 4 497 -23 150 -38 191 -154 413
-11 22 -37 74 -57 115 -42 86 -60 110 -85 110 -13 0 -20 -10 -25 -35z"/>
<path d="M3345 4630 c-3 -5 -1 -10 4 -10 6 0 11 5 11 10 0 6 -2 10 -4 10 -3 0
-8 -4 -11 -10z"/>
<path d="M3255 4591 c-3 -5 -1 -12 5 -16 17 -10 0 -26 -21 -20 -23 7 -25 -7
-4 -25 11 -10 18 -9 30 3 8 9 15 20 15 25 0 6 7 12 15 16 8 3 15 10 15 16 0
13 -47 13 -55 1z"/>
<path d="M3376 4591 c-11 -4 -15 -10 -10 -13 10 -6 54 8 54 17 0 7 -21 5 -44
-4z"/>
<path d="M3225 4580 c3 -5 8 -10 11 -10 2 0 4 5 4 10 0 6 -5 10 -11 10 -5 0
-7 -4 -4 -10z"/>
<path d="M3357 4553 c-12 -11 -8 -23 8 -23 8 0 15 7 15 15 0 16 -12 20 -23 8z"/>
<path d="M1637 4403 c-15 -15 -5 -51 35 -117 50 -84 118 -183 168 -246 153
-191 332 -523 379 -702 16 -60 31 -112 35 -115 3 -3 12 -1 19 5 11 9 18 3 36
-28 38 -67 51 -129 51 -241 0 -91 -6 -143 -35 -306 -2 -13 -7 -27 -10 -33 -4
-6 -10 -24 -15 -40 -13 -46 6 -36 24 13 44 119 71 338 56 466 -9 76 -8 84 17
138 32 69 41 174 24 265 -14 77 -78 256 -99 281 -28 32 -39 20 -40 -40 -1 -32
-8 -91 -17 -131 -8 -40 -15 -91 -15 -113 0 -49 -12 -50 -29 -1 -16 43 -67 159
-82 185 -5 10 -33 62 -61 115 -28 53 -64 113 -79 132 -41 53 -148 231 -210
348 -76 146 -122 196 -152 165z m717 -775 c54 -144 69 -278 41 -363 -13 -39
-13 -39 -8 30 4 56 1 81 -17 128 -42 112 -71 51 -46 -98 9 -49 18 -101 22
-114 13 -43 -16 -13 -41 43 -36 81 -41 183 -16 299 12 53 21 111 21 129 0 44
14 27 44 -54z m1 -209 c7 -33 3 -45 -14 -34 -13 8 -15 65 -2 65 5 0 12 -14 16
-31z m-101 -44 c5 -22 4 -26 -4 -15 -5 8 -10 24 -10 34 0 26 6 18 14 -19z
m116 -105 c0 -22 -4 -40 -10 -40 -5 0 -10 8 -10 18 0 9 -3 27 -6 40 -5 16 -2
22 10 22 12 0 16 -10 16 -40z"/>
<path d="M3035 4329 c-4 -6 -5 -12 -2 -15 2 -3 7 2 10 11 7 17 1 20 -8 4z"/>
<path d="M747 4273 c-11 -11 -8 -51 5 -59 15 -10 37 23 31 46 -5 20 -23 26
-36 13z"/>
<path d="M6500 4238 c-19 -22 -46 -57 -60 -78 -60 -91 -120 -173 -207 -287
-51 -68 -106 -143 -121 -167 -40 -64 -82 -117 -152 -193 -103 -112 -123 -140
-104 -147 36 -14 58 -4 107 50 54 59 78 92 59 80 -34 -21 110 156 214 264 125
128 194 208 255 294 18 27 46 65 60 85 23 32 49 92 49 111 0 7 -46 31 -58 29
-4 0 -23 -19 -42 -41z"/>
<path d="M2940 4260 c0 -5 4 -10 9 -10 6 0 13 5 16 10 3 6 -1 10 -9 10 -9 0
-16 -4 -16 -10z"/>
<path d="M795 4214 c-13 -29 -15 -42 -6 -60 16 -36 37 -29 55 17 30 75 -15
115 -49 43z m45 -4 c0 -5 -5 -20 -12 -34 -8 -20 -14 -23 -24 -15 -10 8 -10 16
-2 35 11 23 38 34 38 14z"/>
<path d="M2972 4179 c2 -7 10 -15 17 -17 8 -3 12 1 9 9 -2 7 -10 15 -17 17 -8
3 -12 -1 -9 -9z"/>
<path d="M2930 4150 c0 -5 4 -10 9 -10 6 0 13 5 16 10 3 6 -1 10 -9 10 -9 0
-16 -4 -16 -10z"/>
<path d="M5432 4121 c-12 -35 -11 -40 37 -144 33 -72 71 -178 71 -199 0 -33
22 -88 35 -88 20 0 19 46 -1 135 -37 168 -67 249 -111 304 l-20 24 -11 -32z"/>
<path d="M5120 4115 c0 -12 28 -35 44 -35 14 0 5 38 -10 44 -25 9 -34 7 -34
-9z"/>
<path d="M1022 3988 c-18 -99 0 -156 86 -276 l45 -64 -13 -163 c-16 -198 -8
-462 16 -550 20 -75 66 -169 113 -232 40 -53 140 -138 150 -127 3 3 -3 11 -14
18 -44 24 -133 125 -168 189 -71 130 -79 168 -85 397 -5 198 5 351 30 482 9
47 7 69 -7 130 -33 132 -96 258 -129 258 -7 0 -17 -27 -24 -62z m78 -29 c38
-73 59 -141 64 -207 l5 -67 -10 55 c-16 93 -74 146 -74 68 0 -47 -18 -34 -39
29 -19 54 -20 93 -5 146 9 33 13 36 25 26 9 -7 24 -29 34 -50z m30 -161 c0 -5
-9 -4 -20 2 -11 6 -18 15 -14 21 6 11 34 -7 34 -23z m20 -83 c0 -8 -4 -15 -9
-15 -5 0 -11 7 -15 15 -3 9 0 15 9 15 8 0 15 -7 15 -15z"/>
<path d="M5091 3991 c-21 -13 -3 -31 31 -31 23 0 29 4 24 16 -3 9 -6 18 -6 20
0 7 -35 4 -49 -5z"/>
<path d="M652 3958 c-7 -7 -12 -25 -12 -40 0 -25 4 -28 30 -28 40 0 47 21 17
53 -18 20 -26 24 -35 15z"/>
<path d="M4524 3942 c-19 -13 -23 -39 -9 -58 11 -16 15 -16 29 -4 30 24 11 83
-20 62z"/>
<path d="M5070 3870 c-13 -9 -13 -11 0 -20 8 -5 30 -10 48 -10 30 0 32 2 22
20 -11 21 -45 26 -70 10z"/>
<path d="M2525 3820 c-3 -5 -2 -10 4 -10 5 0 13 5 16 10 3 6 2 10 -4 10 -5 0
-13 -4 -16 -10z"/>
<path d="M2712 3785 c-15 -8 -20 -15 -13 -19 6 -4 21 2 33 13 24 23 15 26 -20
6z"/>
<path d="M5061 3751 c-22 -14 -5 -28 39 -29 43 -2 52 11 21 28 -24 12 -41 13
-60 1z"/>
<path d="M598 3672 c-10 -11 -8 -18 10 -32 12 -10 22 -23 22 -29 0 -6 4 -11
10 -11 12 0 23 41 18 66 -4 22 -44 26 -60 6z"/>
<path d="M2541 3671 c-8 -5 -9 -11 -3 -15 5 -3 15 1 22 9 14 16 3 20 -19 6z"/>
<path d="M2660 3604 c0 -8 5 -12 10 -9 6 3 10 10 10 16 0 5 -4 9 -10 9 -5 0
-10 -7 -10 -16z"/>
<path d="M5648 3593 c-2 -17 -1 -39 3 -49 4 -11 8 -34 8 -52 1 -32 56 -139
100 -192 15 -19 22 -22 31 -14 25 25 -51 233 -113 308 l-24 30 -5 -31z"/>
<path d="M2645 3540 c3 -5 8 -10 11 -10 2 0 4 5 4 10 0 6 -5 10 -11 10 -5 0
-7 -4 -4 -10z"/>
<path d="M2596 3531 c-4 -7 -5 -15 -2 -18 9 -9 19 4 14 18 -4 11 -6 11 -12 0z"/>
<path d="M4830 3464 c-12 -31 -13 -64 -2 -64 5 0 18 11 29 24 11 13 27 26 34
28 12 4 12 7 0 21 -20 25 -50 21 -61 -9z"/>
<path d="M4520 3413 c0 -5 19 -28 42 -53 24 -25 42 -48 40 -52 -1 -5 3 -8 9
-8 5 0 8 -4 5 -9 -6 -9 68 -116 97 -140 40 -32 17 7 -103 179 -48 69 -90 107
-90 83z m136 -165 c42 -62 50 -77 21 -43 -28 33 -61 85 -54 85 2 0 17 -19 33
-42z"/>
<path d="M4480 3299 c0 -16 4 -28 9 -25 5 3 24 -15 42 -40 19 -25 44 -57 57
-72 l23 -27 -22 32 c-12 18 -20 36 -16 39 7 8 97 -114 134 -181 36 -68 6 -42
-47 41 -23 35 -44 64 -47 64 -12 0 85 -146 117 -175 18 -16 20 -17 20 -1 0 29
-39 95 -132 225 -113 159 -138 181 -138 120z m64 -40 c39 -55 29 -58 -12 -3
-18 24 -29 44 -25 44 4 0 21 -19 37 -41z"/>
<path d="M578 3283 c-35 -17 -40 -63 -8 -63 14 0 20 -7 20 -21 0 -43 25 -11
28 36 4 57 -4 66 -40 48z"/>
<path d="M4494 3167 c-3 -8 11 -31 31 -53 20 -22 61 -89 92 -151 51 -104 117
-193 144 -193 19 0 -3 43 -74 145 -39 55 -77 116 -86 135 -42 92 -94 149 -107
117z m216 -306 c17 -24 28 -47 25 -49 -9 -9 -55 49 -81 101 l-25 52 26 -30
c14 -16 39 -50 55 -74z"/>
<path d="M5670 2945 c-7 -9 -10 -18 -7 -21 3 -3 10 4 17 15 13 25 8 27 -10 6z"/>
<path d="M609 2853 c-1 -10 -1 -23 0 -29 1 -6 -9 -10 -21 -10 -17 1 -23 -5
-23 -19 0 -15 7 -20 28 -20 22 1 27 -4 27 -23 0 -15 5 -22 13 -19 12 4 13 40
2 105 -6 34 -24 44 -26 15z"/>
<path d="M5597 2836 c-4 -10 -1 -13 9 -9 7 3 14 9 14 14 0 14 -17 10 -23 -5z"/>
<path d="M692 2359 c5 -40 3 -45 -15 -45 -27 1 -31 -17 -9 -44 17 -21 19 -21
34 -6 15 15 17 13 23 -14 7 -34 25 -50 25 -23 0 23 -44 161 -55 170 -4 5 -5
-13 -3 -38z"/>
<path d="M2547 1060 c8 -30 21 -34 15 -5 -2 14 -8 25 -12 25 -5 0 -6 -9 -3
-20z"/>
<path d="M1973 663 c9 -2 23 -2 30 0 6 3 -1 5 -18 5 -16 0 -22 -2 -12 -5z"/>
<path d="M8235 580 c-3 -5 -1 -10 4 -10 6 0 11 5 11 10 0 6 -2 10 -4 10 -3 0
-8 -4 -11 -10z"/>
<path d="M7255 190 c3 -5 8 -10 11 -10 2 0 4 5 4 10 0 6 -5 10 -11 10 -5 0 -7
-4 -4 -10z"/>
</g>
</svg>
