<?xml version="1.0" encoding="utf-8"?>
<!-- Generator: Adobe Illustrator 21.0.0, SVG Export Plug-In . SVG Version: 6.00 Build 0)  -->
<svg version="1.1" id="Layer_1" xmlns="http://www.w3.org/2000/svg" xmlns:xlink="http://www.w3.org/1999/xlink" x="0px" y="0px"
	 viewBox="0 0 512 512" style="enable-background:new 0 0 512 512;" xml:space="preserve">
<style type="text/css">
	.st0{fill:#75B4E2;}
	.st1{fill:#E85558;}
	.st2{fill:#FFFFFF;}
	.st3{fill:#FBC749;}
	.st4{fill:#17171D;}
</style>
<g id="Photography_Copyright">
	<g>
		<path class="st0" d="M337.7,223.1c-30.4-9.8-52.4-38.3-52.4-71.8c0-4,0.3-8,0.9-11.8H104.5v183.9l46.7-53.4l61.1,69.8L308.4,230
			l29.3,33.5V223.1z M142.5,226.7c-17.5,0-31.8-14.3-31.8-31.8c0-17.5,14.3-31.8,31.8-31.8c17.5,0,31.8,14.3,31.8,31.8
			C174.3,212.4,160,226.7,142.5,226.7z M194.9,191.8v-11.3h52.4v11.3H194.9z M282.2,226.7h-52.4v-11.3h52.4V226.7z"/>
		<polygon class="st1" points="213.8,355.1 337.7,355.1 337.7,280.6 308.4,247.1 		"/>
		<path class="st2" d="M348.9,366.4H93.2V128.1h195.7c0.7-2.1,1.4-4.2,2.3-6.2H87v285.6h81.7v11.3H87v6.2h268.1V226.5
			c-2.1-0.2-4.2-0.4-6.2-0.7V366.4z"/>
		<path class="st0" d="M360.8,87c-35.4,0-64.2,28.8-64.2,64.2s28.8,64.2,64.2,64.2c35.4,0,64.2-28.8,64.2-64.2S396.2,87,360.8,87z
			 M360.8,209.3c-32,0-58-26-58-58s26-58,58-58c32,0,58,26,58,58S392.8,209.3,360.8,209.3z"/>
		<path class="st2" d="M360.8,104.5c-25.8,0-46.8,21-46.8,46.8s21,46.8,46.8,46.8c25.8,0,46.8-21,46.8-46.8S386.6,104.5,360.8,104.5
			z M359.9,178.1c-14.8,0-26.9-12-26.9-26.9c0-14.8,12-26.9,26.9-26.9c9.6,0,18.5,5.1,23.3,13.4l-9.7,5.6c-2.8-4.8-8-7.8-13.5-7.8
			c-8.6,0-15.6,7-15.6,15.6s7,15.6,15.6,15.6c5.5,0,10.7-3,13.5-7.8l9.7,5.6C378.3,172.9,369.4,178.1,359.9,178.1z"/>
		<polygon class="st1" points="104.5,340.4 104.5,355.1 198.9,355.1 204.8,348.3 151.2,287 		"/>
		<path class="st3" d="M142.5,174.3c-11.3,0-20.6,9.2-20.6,20.6c0,11.3,9.2,20.6,20.6,20.6c11.3,0,20.6-9.2,20.6-20.6
			C163,183.5,153.8,174.3,142.5,174.3z"/>
		<path class="st4" d="M360.8,75.8c-26.7,0-50.2,13.9-63.6,34.9H75.8v325.6h290.6V226.5c39-2.9,69.8-35.5,69.8-75.2
			C436.2,109.6,402.4,75.8,360.8,75.8z M355.1,425H87v-6.2h81.7v-11.3H87V121.9h204.2c-0.9,2-1.6,4.1-2.3,6.2H93.2v238.3h255.7
			V225.8c2,0.3,4.1,0.5,6.2,0.7V425z M308.4,230l-96.1,109.8l-61.1-69.8l-46.7,53.4V139.4h181.7c-0.6,3.9-0.9,7.8-0.9,11.8
			c0,33.6,22,62.1,52.4,71.8v40.4L308.4,230z M337.7,280.6v74.6H213.8l94.5-108L337.7,280.6z M204.8,348.3l-6,6.8h-94.4v-14.7
			l46.7-53.4L204.8,348.3z M360.8,215.4c-35.4,0-64.2-28.8-64.2-64.2S325.4,87,360.8,87c35.4,0,64.2,28.8,64.2,64.2
			S396.2,215.4,360.8,215.4z"/>
		<path class="st4" d="M359.9,166.8c-8.6,0-15.6-7-15.6-15.6s7-15.6,15.6-15.6c5.5,0,10.7,3,13.5,7.8l9.7-5.6
			c-4.8-8.3-13.7-13.4-23.3-13.4c-14.8,0-26.9,12-26.9,26.9c0,14.8,12,26.9,26.9,26.9c9.6,0,18.5-5.1,23.3-13.4l-9.7-5.6
			C370.6,163.8,365.4,166.8,359.9,166.8z"/>
		<path class="st4" d="M360.8,93.2c-32,0-58,26-58,58s26,58,58,58c32,0,58-26,58-58S392.8,93.2,360.8,93.2z M360.8,198
			c-25.8,0-46.8-21-46.8-46.8s21-46.8,46.8-46.8c25.8,0,46.8,21,46.8,46.8S386.6,198,360.8,198z"/>
		<path class="st4" d="M142.5,163.1c-17.5,0-31.8,14.3-31.8,31.8c0,17.5,14.3,31.8,31.8,31.8c17.5,0,31.8-14.3,31.8-31.8
			C174.3,177.3,160,163.1,142.5,163.1z M142.5,215.4c-11.3,0-20.6-9.2-20.6-20.6c0-11.3,9.2-20.6,20.6-20.6
			c11.3,0,20.6,9.2,20.6,20.6C163,206.2,153.8,215.4,142.5,215.4z"/>
		<rect x="194.9" y="180.5" class="st4" width="52.4" height="11.3"/>
		<rect x="229.8" y="215.4" class="st4" width="52.4" height="11.3"/>
	</g>
</g>
</svg>
