<svg width="229" height="276" viewBox="0 0 229 276" fill="none" xmlns="http://www.w3.org/2000/svg">
<path d="M124.042 76.138C124.042 87.6158 131.665 104.69 152.667 104.69C173.668 104.69 181.292 87.6158 181.292 76.138V66.6207H124.042V76.138Z" fill="black"/>
<path d="M76.3334 104.69C97.3346 104.69 104.958 87.6158 104.958 76.138V66.6207H47.7084V76.138C47.7084 87.6158 55.3322 104.69 76.3334 104.69Z" fill="black"/>
<path d="M57.25 161.793H76.3333V180.828H95.4167V161.793H133.583V180.828H152.667V161.793H171.75V142.759H57.25V161.793Z" fill="black"/>
<path d="M171.75 0H57.25C25.6766 0 0 25.6109 0 57.1034V266.483C0 270.328 2.32817 273.802 5.88721 275.277C9.45579 276.742 13.5492 275.933 16.2876 273.211L46.6778 242.899L68.7 272.193C70.3603 274.401 72.8983 275.781 75.6559 275.971C78.442 276.171 81.1233 275.162 83.0793 273.202L114.5 241.871L145.921 273.211C147.877 275.162 150.606 276.133 153.344 275.981C156.102 275.781 158.64 274.401 160.3 272.203L182.332 242.909L212.722 273.221C214.535 275.029 216.978 276 219.458 276C220.689 276 221.93 275.762 223.113 275.277C226.672 273.802 229 270.328 229 266.483V57.1034C229 25.6109 203.323 0 171.75 0ZM209.917 243.508L188.038 221.685C186.082 219.725 183.362 218.716 180.614 218.916C177.857 219.115 175.319 220.495 173.658 222.694L151.627 251.988L121.236 221.676C119.385 219.829 116.943 218.897 114.5 218.897C112.057 218.897 109.615 219.829 107.754 221.685L77.3638 251.998L55.3417 222.703C53.6814 220.495 51.1433 219.115 48.3858 218.925C45.6855 218.763 42.9184 219.744 40.9624 221.695L19.0833 243.508V57.1034C19.0833 36.1084 36.2011 19.0345 57.25 19.0345H171.75C192.799 19.0345 209.917 36.1084 209.917 57.1034V243.508Z" fill="black"/>
</svg>
