<?xml version="1.0" standalone="no"?>
<!DOCTYPE svg PUBLIC "-//W3C//DTD SVG 20010904//EN"
 "http://www.w3.org/TR/2001/REC-SVG-20010904/DTD/svg10.dtd">
<svg version="1.0" xmlns="http://www.w3.org/2000/svg"
 width="825.000000pt" height="825.000000pt" viewBox="0 0 825.000000 825.000000"
 preserveAspectRatio="xMidYMid meet">

<g transform="translate(0.000000,825.000000) scale(0.100000,-0.100000)"
fill="#000000" stroke="none">
<path d="M750 5040 c0 -1786 4 -3210 9 -3210 5 0 20 15 34 33 39 50 136 148
192 192 28 22 52 43 55 46 13 17 212 145 311 200 105 59 113 66 178 153 38 50
92 120 120 155 l51 64 -20 31 c-12 17 -33 56 -47 86 -25 51 -27 64 -27 200 -1
135 1 150 27 220 83 222 208 379 442 555 175 133 247 194 376 321 l117 115
-62 102 c-34 56 -69 113 -77 127 -9 14 -55 90 -104 170 -126 208 -333 523
-429 655 -315 434 -545 771 -633 925 -111 195 -133 255 -143 383 -7 95 -9 101
-84 252 -123 249 -167 370 -208 565 -25 121 -20 213 15 291 21 48 31 59 62 69
52 17 132 7 193 -24 l50 -25 27 52 c15 29 40 66 55 82 15 17 33 46 39 65 9 29
23 42 80 73 96 52 143 67 241 77 111 12 509 -5 705 -30 375 -48 886 -169 1184
-281 81 -30 154 -47 316 -74 721 -121 1258 -267 1747 -476 496 -212 849 -428
1097 -672 81 -80 201 -225 201 -243 0 -3 8 -18 18 -32 38 -54 94 -204 112
-302 36 -184 19 -327 -56 -489 -46 -98 -137 -242 -173 -275 -12 -11 -21 -24
-21 -30 1 -6 46 -45 101 -86 174 -130 319 -289 393 -431 21 -39 62 -93 104
-135 38 -38 84 -92 101 -119 l31 -49 0 856 0 855 -31 69 c-16 38 -44 100 -62
137 l-32 68 -100 -6 c-55 -3 -118 -8 -140 -12 -80 -11 -25 8 89 31 65 13 119
26 122 28 6 6 -129 201 -181 263 -307 361 -946 790 -1600 1075 -281 122 -658
259 -950 345 -44 12 -174 52 -290 88 -184 58 -435 127 -457 127 -5 0 -8 -15
-8 -32 0 -18 -11 -57 -25 -87 -28 -60 -94 -155 -103 -147 -3 3 1 14 10 23 32
39 78 160 78 206 l0 47 -1510 0 -1510 0 0 -3210z m618 759 c72 -139 105 -196
283 -488 35 -56 71 -114 79 -126 19 -29 177 -283 208 -333 12 -20 25 -44 29
-52 3 -8 14 -26 23 -40 18 -27 127 -236 148 -285 20 -44 -1 -18 -35 45 -17 30
-40 71 -51 90 -12 19 -31 53 -43 75 -12 22 -96 159 -187 305 -248 397 -355
580 -432 736 -63 128 -80 167 -65 152 3 -3 22 -38 43 -79z m54 -299 c41 -80
114 -212 163 -295 48 -82 96 -166 107 -185 11 -19 25 -41 30 -48 6 -7 8 -15 5
-18 -3 -3 -11 2 -17 13 -6 10 -38 61 -70 113 -143 229 -300 527 -300 568 0 10
7 -2 82 -148z m61 -572 c46 -74 49 -78 44 -78 -4 0 -19 21 -71 103 -10 15 -16
27 -12 27 3 0 20 -24 39 -52z m268 -10 c11 -21 11 -22 -4 -9 -10 7 -17 17 -17
22 0 15 9 10 21 -13z m37 -73 c-3 -3 -9 2 -12 12 -6 14 -5 15 5 6 7 -7 10 -15
7 -18z m-478 -295 c6 -11 8 -20 6 -20 -3 0 -10 9 -16 20 -6 11 -8 20 -6 20 3
0 10 -9 16 -20z"/>
<path d="M4255 8240 l-180 -5 95 -28 c348 -104 806 -252 980 -317 615 -230
1166 -530 1580 -861 219 -175 325 -280 469 -466 46 -60 76 -88 108 -103 66
-31 123 -69 130 -86 7 -19 -24 -54 -49 -54 -25 0 -23 -8 22 -97 l40 -78 -3
240 c-2 132 -12 312 -21 400 -32 316 -37 361 -46 430 -5 39 -12 120 -15 180
-3 61 -12 193 -20 295 -8 102 -20 269 -26 373 l-12 187 -1436 -2 c-790 -1
-1517 -5 -1616 -8z"/>
<path d="M7330 8215 c0 -19 7 -81 15 -137 8 -57 19 -148 25 -203 5 -55 16
-152 24 -215 8 -63 20 -167 26 -230 24 -231 28 -195 29 308 l1 512 -60 0 -60
0 0 -35z"/>
<path d="M1640 7879 c-41 -4 -86 -12 -99 -17 -21 -7 -14 -10 40 -16 35 -3 98
-15 139 -26 57 -15 108 -20 218 -20 79 0 276 -5 439 -11 162 -6 297 -8 299 -6
8 8 -264 55 -411 71 -125 14 -497 38 -535 35 -8 -1 -49 -5 -90 -10z"/>
<path d="M1575 7800 c3 -5 21 -10 38 -10 24 0 28 3 17 10 -20 13 -63 13 -55 0z"/>
<path d="M1670 7751 l-55 -6 54 -24 c115 -49 462 -278 711 -468 823 -627 1420
-1252 1824 -1908 47 -77 91 -147 96 -155 6 -8 13 -22 17 -30 3 -8 25 -49 48
-90 23 -41 70 -129 105 -195 62 -120 87 -159 77 -120 -3 11 -9 49 -12 85 -9
86 -51 310 -71 380 -114 389 -256 684 -501 1040 -173 251 -588 645 -948 901
-284 201 -758 445 -1080 554 -116 39 -175 47 -265 36z"/>
<path d="M1950 7756 c0 -2 30 -14 68 -26 176 -59 507 -215 722 -340 424 -247
901 -647 1173 -982 64 -80 207 -281 207 -291 0 -2 24 -44 54 -93 215 -358 358
-763 406 -1156 l13 -98 31 22 c49 34 202 194 276 290 147 189 224 405 236 657
14 311 -87 612 -298 891 -100 132 -261 297 -392 402 -142 114 -374 261 -553
352 -100 50 -399 174 -532 220 -313 108 -439 126 -1061 146 -361 11 -350 11
-350 6z"/>
<path d="M1392 7724 c-21 -14 -51 -65 -72 -119 -8 -21 -1 -30 78 -93 221 -177
461 -400 862 -802 157 -157 275 -274 264 -260 -12 14 -49 68 -84 120 -74 112
-161 227 -219 290 -23 25 -53 63 -68 85 -35 51 -89 118 -143 175 -23 25 -62
71 -86 103 -82 110 -471 517 -494 517 -8 0 -26 -7 -38 -16z"/>
<path d="M897 7689 c-25 -15 -16 -61 29 -154 37 -77 143 -246 144 -230 2 57
25 203 43 274 l23 89 -30 5 c-17 2 -34 -1 -38 -7 -6 -8 -10 -8 -16 1 -19 30
-118 44 -155 22z"/>
<path d="M840 7547 c0 -85 27 -214 70 -342 17 -49 35 -103 41 -120 5 -16 34
-79 65 -140 54 -108 54 -109 49 -61 -3 27 -5 115 -5 196 l0 148 -34 49 c-59
86 -145 241 -162 293 -9 28 -18 50 -20 50 -2 0 -4 -33 -4 -73z"/>
<path d="M3890 7561 c47 -22 135 -67 195 -101 74 -41 171 -83 295 -127 172
-60 298 -109 395 -153 22 -10 81 -36 130 -58 345 -152 918 -480 1110 -636 88
-71 144 -139 101 -123 -8 3 -54 37 -103 75 -122 96 -236 170 -458 299 -334
194 -496 277 -775 400 -154 68 -411 166 -417 159 -3 -2 6 -10 19 -17 12 -7 53
-34 89 -61 37 -26 70 -48 73 -48 10 0 622 -304 741 -368 356 -192 665 -385
900 -562 128 -97 261 -218 250 -228 -6 -7 -38 16 -160 113 -96 77 -164 126
-370 264 -263 178 -569 351 -1040 588 l-230 115 128 -122 c86 -83 161 -144
230 -187 447 -284 683 -446 1087 -747 220 -164 488 -373 528 -412 18 -18 15
-27 -7 -21 -10 2 -173 121 -362 264 -474 358 -721 534 -1070 764 -112 75 -210
139 -218 144 -8 4 20 -34 61 -86 41 -52 84 -110 96 -130 13 -21 55 -59 100
-90 147 -101 428 -314 702 -534 384 -307 491 -391 598 -471 89 -66 111 -94 75
-94 -16 0 -225 153 -344 251 -24 21 -123 100 -219 177 -96 78 -229 185 -295
239 -138 112 -548 423 -553 418 -2 -1 8 -27 22 -56 13 -30 32 -76 42 -102 20
-51 14 -45 309 -276 66 -52 122 -97 125 -101 3 -3 39 -33 80 -65 94 -74 554
-455 683 -566 35 -29 31 -57 -5 -38 -20 11 -208 164 -393 319 -49 42 -182 152
-295 244 -113 92 -214 175 -225 185 -47 39 -221 177 -232 184 -9 6 -10 1 -3
-20 11 -33 36 -175 45 -255 6 -57 7 -57 43 -63 47 -8 222 -60 287 -86 93 -37
180 -92 236 -150 46 -48 61 -72 79 -130 21 -64 22 -77 11 -134 -11 -61 -35
-125 -63 -170 -150 -236 -585 -602 -1018 -855 -69 -40 -127 -75 -129 -76 -2
-2 14 -43 35 -92 28 -63 44 -87 54 -84 101 28 499 197 712 301 217 106 285
144 455 252 184 116 255 169 249 184 -7 18 14 35 44 35 17 0 45 17 81 49 l54
49 -27 7 c-16 4 -28 14 -28 22 0 15 29 14 72 -2 21 -8 202 171 194 192 -3 8
-2 11 3 8 23 -14 173 208 226 335 103 244 47 551 -149 814 -272 365 -945 756
-1731 1006 -330 105 -620 176 -997 245 -104 19 -194 35 -201 35 -7 0 26 -18
73 -39z"/>
<path d="M1302 7493 c-6 -21 -13 -59 -16 -86 l-6 -48 93 -67 c372 -271 737
-559 807 -638 l25 -28 -35 24 c-46 32 -307 228 -335 252 -11 10 -140 105 -285
212 l-265 194 -3 -66 c-2 -37 1 -68 5 -69 32 -11 678 -478 828 -599 97 -78
189 -161 165 -148 -28 14 -183 124 -390 274 -113 82 -295 213 -405 290 l-200
141 -3 -68 c-5 -110 -56 -64 501 -457 154 -109 487 -359 574 -430 97 -80 82
-82 -32 -3 -57 40 -123 86 -147 102 -23 17 -115 82 -203 146 -88 63 -195 140
-238 170 -43 29 -138 97 -212 150 -73 53 -139 100 -145 104 -12 7 17 -36 200
-299 64 -91 79 -106 217 -208 81 -60 157 -116 168 -124 11 -8 54 -39 95 -70
41 -31 143 -104 225 -163 200 -143 465 -340 465 -345 0 -5 -107 58 -175 102
-65 43 -570 402 -709 506 -72 52 -131 94 -133 92 -5 -4 242 -378 265 -401 11
-11 84 -64 163 -117 293 -197 475 -329 704 -507 91 -70 225 -181 245 -201 3
-3 20 -18 38 -33 19 -15 31 -27 27 -27 -12 0 -164 107 -420 294 -314 231 -461
336 -598 426 -12 8 37 -43 109 -113 188 -181 358 -377 467 -538 27 -39 69 -79
145 -135 275 -203 550 -426 551 -447 1 -12 -160 102 -391 275 -109 81 -200
148 -202 148 -3 0 9 -28 26 -62 38 -77 63 -154 78 -238 l12 -65 116 -85 c127
-92 302 -229 302 -237 0 -10 -109 58 -256 160 -86 60 -157 107 -159 105 -1 -2
-5 -26 -9 -54 l-6 -52 57 -32 c68 -37 267 -186 303 -225 l25 -28 -25 13 c-14
7 -69 43 -123 79 -54 36 -130 87 -170 112 l-72 46 -11 -27 c-28 -66 -29 -63
58 -130 46 -35 129 -109 185 -163 l103 -100 137 80 c76 45 188 108 249 142
l111 62 -13 70 c-42 220 -149 508 -242 650 -9 15 -32 53 -51 85 -80 137 -300
471 -373 566 -32 43 -91 126 -130 185 -39 60 -90 133 -113 163 -23 30 -61 82
-86 114 -191 256 -987 1059 -1329 1341 -130 108 -117 102 -128 58z"/>
<path d="M2073 7264 c185 -218 441 -543 519 -659 124 -183 119 -176 153 -220
50 -63 130 -185 164 -248 18 -32 54 -85 80 -117 44 -53 67 -85 150 -215 14
-22 49 -70 78 -106 29 -37 88 -123 132 -190 44 -68 115 -178 158 -244 43 -66
113 -181 157 -255 43 -74 98 -164 121 -200 45 -70 107 -177 174 -305 24 -44
46 -83 49 -87 9 -9 394 204 400 220 3 10 -57 131 -157 315 -17 31 -45 83 -62
115 -17 31 -39 68 -48 82 -9 14 -21 34 -28 45 -73 123 -144 231 -243 373 -53
75 -299 379 -393 484 -151 171 -478 493 -657 648 -35 30 -79 70 -99 88 -128
116 -627 508 -693 543 -13 7 7 -23 45 -67z"/>
<path d="M1315 6820 c30 -117 50 -161 84 -184 20 -13 56 -39 81 -57 l44 -34
-34 49 c-19 27 -57 82 -85 121 -27 40 -60 85 -73 101 -23 28 -23 28 -17 4z"/>
<path d="M1406 6574 c32 -87 267 -367 448 -534 35 -32 33 -28 -28 65 -185 284
-228 340 -309 401 -123 93 -119 90 -111 68z"/>
<path d="M1130 6538 c0 -48 52 -167 144 -333 6 -12 43 -67 81 -124 39 -57 77
-114 85 -126 24 -37 191 -270 249 -348 29 -40 64 -88 77 -107 13 -19 42 -60
64 -90 22 -30 51 -71 65 -90 13 -19 40 -57 60 -85 67 -94 256 -377 286 -429
32 -55 133 -222 149 -246 16 -25 71 -129 125 -234 27 -55 54 -100 60 -100 13
-1 83 93 90 122 5 19 -8 47 -52 119 -32 52 -63 102 -68 111 -68 115 -456 692
-596 887 -32 44 -72 99 -88 123 -17 23 -45 61 -61 85 -17 23 -49 67 -71 97
-22 30 -108 125 -192 210 -218 221 -325 366 -377 509 -22 60 -30 73 -30 49z"/>
<path d="M7304 6414 c39 -66 39 -67 77 -59 l34 8 -37 31 c-20 17 -51 40 -69
50 l-33 19 28 -49z"/>
<path d="M1840 5695 c0 -3 46 -69 101 -147 219 -301 506 -730 681 -1015 35
-57 66 -103 71 -103 4 0 7 28 7 63 0 172 -123 414 -349 691 -96 117 -511 532
-511 511z"/>
<path d="M5310 5601 c-6 -31 -13 -69 -16 -86 -15 -84 -57 -200 -107 -300 -95
-187 -299 -431 -494 -588 l-73 -59 16 -31 c8 -18 23 -46 32 -64 l16 -32 65 36
c248 135 452 268 631 412 203 162 397 370 421 451 24 81 -35 155 -179 222 -86
41 -135 57 -239 82 l-62 14 -11 -57z"/>
<path d="M6623 5034 c-80 -83 -82 -85 -58 -94 195 -74 341 -149 502 -256 122
-82 122 -82 104 -45 -48 92 -204 267 -346 386 -33 28 -71 60 -85 73 -14 12
-27 22 -30 22 -3 -1 -42 -39 -87 -86z"/>
<path d="M6453 4874 c-40 -37 -45 -43 -26 -44 67 -1 319 -110 444 -193 231
-152 312 -301 229 -415 -64 -88 -277 -188 -560 -261 -162 -42 -189 -52 -130
-46 325 34 502 67 642 121 52 20 77 37 107 72 57 66 92 143 94 206 2 50 -1 57
-55 127 -53 69 -150 159 -243 227 -96 69 -314 192 -417 235 l-36 15 -49 -44z"/>
<path d="M6343 4788 c-36 -25 -42 -38 -17 -38 24 0 132 -49 189 -86 69 -45
153 -129 170 -172 32 -74 11 -119 -74 -161 -81 -40 -150 -61 -486 -146 -165
-41 -403 -102 -530 -135 -126 -33 -329 -81 -450 -106 -121 -26 -223 -50 -227
-53 -8 -7 37 -137 52 -155 5 -4 86 6 182 23 215 38 620 94 839 115 132 13 550
113 730 175 343 118 427 201 353 349 -29 58 -106 131 -218 208 -118 80 -396
204 -459 204 -12 0 -37 -10 -54 -22z"/>
<path d="M6205 4687 c-206 -146 -565 -343 -860 -472 -106 -46 -395 -163 -468
-188 -16 -6 -16 -9 0 -49 9 -24 17 -44 18 -45 7 -11 610 128 960 222 94 25
211 55 260 66 414 93 555 147 555 210 0 63 -113 175 -242 240 -58 29 -135 59
-153 59 -5 -1 -37 -20 -70 -43z"/>
<path d="M3750 4565 c0 -5 11 -51 25 -104 13 -53 27 -113 30 -133 3 -21 9 -38
13 -38 4 0 20 11 36 23 l29 23 -33 60 c-18 32 -46 84 -62 114 -33 60 -38 68
-38 55z"/>
<path d="M4465 4466 c-11 -8 -88 -51 -170 -96 -83 -45 -160 -89 -172 -96 l-23
-14 22 -44 21 -44 36 15 c40 17 353 172 359 178 4 4 -44 115 -50 115 -2 0 -12
-6 -23 -14z"/>
<path d="M7280 4460 c7 -14 23 -38 36 -55 12 -16 41 -61 64 -100 40 -68 41
-69 34 -30 -8 50 -50 117 -105 170 -32 31 -39 35 -29 15z"/>
<path d="M7299 4309 c8 -124 -32 -196 -147 -260 -31 -18 -64 -38 -72 -44 -39
-31 -145 -81 -250 -116 l-115 -40 70 7 c192 17 238 29 316 81 147 98 170 116
234 178 60 60 64 66 55 91 -16 40 -81 154 -88 154 -4 0 -5 -23 -3 -51z"/>
<path d="M2866 4248 c-9 -12 -16 -27 -16 -33 0 -6 30 -30 68 -53 37 -23 96
-70 132 -103 58 -54 61 -58 25 -38 -22 13 -82 51 -132 86 -51 35 -95 63 -98
63 -2 0 10 -24 28 -52 18 -29 78 -97 134 -151 l101 -99 71 48 c39 26 71 50 71
54 0 3 -12 15 -28 27 -15 11 -71 56 -124 100 -53 44 -123 101 -156 127 l-61
46 -15 -22z"/>
<path d="M7442 4170 c0 -19 2 -27 5 -17 2 9 2 25 0 35 -3 9 -5 1 -5 -18z"/>
<path d="M3888 4134 c-45 -28 -58 -41 -58 -60 0 -22 3 -24 28 -18 28 7 134 44
140 50 7 5 -32 64 -43 64 -5 0 -36 -17 -67 -36z"/>
<path d="M4610 4108 c0 -29 -3 -71 -7 -92 -6 -38 -6 -39 20 -32 14 3 37 10 51
16 l25 9 -31 76 c-38 90 -58 98 -58 23z"/>
<path d="M4405 4053 c-82 -41 -154 -78 -158 -83 -5 -4 0 -28 11 -53 l20 -46
79 24 c191 59 187 57 196 106 4 24 6 62 5 85 l-3 41 -150 -74z"/>
<path d="M7350 4079 c-30 -27 -93 -76 -139 -109 -46 -33 -80 -60 -75 -60 25 0
123 32 169 55 63 31 108 88 103 133 l-3 30 -55 -49z"/>
<path d="M2774 4099 c-4 -7 8 -23 27 -38 57 -43 115 -100 103 -101 -7 0 -44
25 -83 55 l-72 55 -23 -27 -23 -27 48 -49 c27 -28 49 -54 49 -59 0 -5 -22 8
-50 29 -27 20 -50 41 -50 45 0 12 -28 10 -35 -2 -4 -6 12 -32 34 -59 62 -74
53 -85 -18 -21 -25 22 -46 40 -48 40 -2 0 -16 -11 -30 -24 l-27 -25 46 -49
c46 -49 78 -97 60 -91 -6 2 -36 27 -68 54 -31 28 -62 50 -67 50 -24 0 -15 -26
26 -76 23 -30 53 -71 65 -92 19 -34 20 -37 3 -28 -10 6 -46 42 -81 81 -41 46
-66 67 -75 62 -26 -15 -115 -95 -115 -103 0 -4 11 -18 24 -31 31 -30 93 -113
113 -152 15 -28 15 -30 0 -18 -9 8 -49 52 -88 98 -40 46 -75 84 -78 84 -3 0
-17 -9 -30 -19 l-24 -19 40 -48 c23 -27 51 -69 62 -94 22 -44 21 -44 -51 33
-74 79 -88 87 -106 65 -7 -10 6 -33 49 -86 64 -79 96 -132 79 -132 -5 0 -42
40 -82 89 -40 49 -80 90 -88 90 -25 1 -65 -39 -54 -54 59 -82 75 -108 71 -118
-2 -7 -27 13 -58 45 -54 55 -55 56 -77 39 l-23 -17 27 -24 c41 -38 84 -101 84
-123 0 -14 -17 -1 -64 49 l-64 69 -22 -21 -21 -21 25 -38 c15 -21 24 -40 22
-43 -3 -2 -20 8 -40 23 l-35 26 -24 -38 -24 -38 24 -18 c13 -10 28 -27 34 -38
10 -20 10 -20 -30 0 -22 12 -42 21 -45 21 -2 0 -7 -14 -11 -31 -6 -24 -2 -36
17 -56 l23 -25 -32 7 c-33 6 -33 6 -33 -30 0 -20 7 -43 15 -51 19 -20 19 -38
0 -30 -21 7 -19 -36 3 -90 l17 -42 105 101 c191 183 522 428 720 533 30 16 64
40 74 54 10 14 63 69 118 123 l99 98 -63 112 c-36 65 -81 130 -106 155 -47 44
-57 49 -68 31z m-301 -408 c48 -33 97 -91 116 -139 21 -52 7 -47 -45 14 -27
32 -66 73 -86 92 -21 19 -38 41 -38 48 0 20 6 18 53 -15z"/>
<path d="M7427 4047 c-19 -47 -82 -101 -152 -130 -41 -17 -189 -57 -211 -57
-7 0 -57 -28 -111 -62 -192 -121 -357 -184 -698 -268 -156 -38 -493 -105 -560
-111 -5 0 42 -12 105 -25 111 -24 120 -24 258 -12 229 19 467 -10 617 -77 219
-97 397 -332 465 -615 43 -176 55 -290 55 -500 0 -359 -58 -621 -203 -915
l-39 -80 89 -3 c49 -1 115 2 146 8 33 6 60 6 65 1 20 -20 -40 -33 -178 -38
-138 -6 -145 -7 -160 -30 l-15 -23 97 -1 c54 -1 158 0 231 1 77 1 132 -2 132
-8 0 -14 -105 -22 -301 -22 -100 0 -180 -4 -184 -9 -3 -6 14 -12 37 -15 86
-10 326 -26 396 -26 57 0 72 -3 72 -15 0 -19 -141 -20 -384 -5 -138 9 -162 8
-175 -5 -8 -8 -13 -17 -10 -19 7 -7 327 -52 469 -67 150 -15 173 -34 30 -25
-126 8 -393 34 -435 42 -16 4 -28 4 -25 1 3 -3 64 -19 135 -36 163 -40 367
-99 379 -112 23 -22 -12 -17 -164 21 -89 22 -164 39 -166 37 -2 -2 33 -19 77
-38 76 -31 170 -98 141 -99 -7 0 -47 17 -90 39 -110 55 -424 153 -440 137 -2
-3 4 -8 14 -12 105 -36 281 -111 330 -139 54 -32 92 -70 82 -81 -3 -2 -60 25
-129 59 -68 34 -172 79 -231 99 l-106 37 -61 -47 c-33 -26 -60 -50 -60 -54 -1
-3 27 -22 62 -42 79 -45 102 -64 93 -73 -4 -4 -48 14 -97 41 -83 44 -93 47
-120 36 -48 -20 -51 -31 -34 -101 32 -126 126 -208 260 -224 63 -8 156 9 187
35 22 17 22 20 9 71 -14 52 -13 53 12 75 16 14 34 20 46 17 33 -9 117 -97 130
-136 17 -50 -7 -99 -74 -149 -68 -51 -105 -68 -180 -80 -55 -9 -77 -8 -159 11
-159 37 -273 127 -347 275 -21 43 -39 84 -39 91 0 10 -22 6 -79 -15 -84 -31
-258 -70 -310 -70 -24 0 -34 -6 -41 -25 -11 -28 -45 -45 -93 -45 -84 0 -253
64 -309 117 -15 15 -29 25 -31 22 -2 -2 -9 -69 -16 -148 -6 -79 -16 -152 -22
-163 -7 -13 -9 -47 -4 -93 l6 -72 -36 -23 c-32 -20 -41 -21 -75 -11 -21 6 -41
18 -44 27 -4 11 -14 13 -39 9 -53 -10 -145 11 -234 55 -279 137 -629 534 -825
934 -27 56 -57 104 -66 108 -9 4 -34 7 -55 7 -28 1 -39 -4 -43 -17 -6 -18 -48
-105 -76 -156 -27 -50 -24 -53 60 -58 115 -7 236 -68 282 -143 32 -52 26 -69
-51 -147 -54 -56 -69 -76 -61 -88 5 -8 18 -17 28 -19 25 -4 53 -29 70 -62 12
-25 11 -28 -39 -71 -72 -62 -126 -78 -263 -78 -145 0 -202 17 -266 82 -47 46
-49 47 -118 49 -66 2 -71 0 -112 -33 -232 -190 -622 -348 -998 -404 -63 -9
-117 -18 -119 -20 -2 -2 4 -13 14 -24 18 -20 28 -20 2562 -20 l2543 0 0 2045
c0 1125 -1 2045 -2 2045 -2 0 -11 -19 -21 -43z m-312 -2776 c9 -16 -30 -31
-79 -31 -77 0 -57 23 29 33 17 2 33 5 37 6 4 0 9 -3 13 -8z m-912 -886 c46
-16 68 -38 53 -52 -3 -4 -16 -1 -29 5 -47 23 -116 35 -220 35 -126 1 -149 -10
-102 -48 32 -26 28 -32 -8 -14 -48 26 -50 64 -4 85 44 20 242 13 310 -11z
m-52 -224 c35 -28 21 -32 -50 -14 -42 11 -58 19 -49 24 23 15 75 10 99 -10z
m44 -121 c3 -6 -1 -7 -9 -4 -18 7 -21 14 -7 14 6 0 13 -4 16 -10z"/>
<path d="M3648 3997 c-69 -39 -125 -73 -124 -75 4 -4 135 45 199 75 45 21 57
31 57 50 0 13 -1 23 -2 23 -2 0 -60 -33 -130 -73z"/>
<path d="M2960 3967 c0 -4 71 -140 76 -145 4 -5 53 31 54 40 0 3 -29 29 -65
57 -36 28 -65 50 -65 48z"/>
<path d="M4642 3943 c-30 -10 -44 -22 -48 -39 -4 -14 -4 -27 -1 -30 5 -5 91 9
134 22 19 5 -5 64 -25 63 -10 0 -36 -7 -60 -16z"/>
<path d="M6840 3939 c-145 -35 -503 -89 -895 -134 -205 -23 -278 -34 -465 -65
-96 -16 -240 -39 -320 -51 -153 -23 -188 -33 -158 -44 9 -4 99 7 200 24 101
16 284 42 408 56 729 84 1090 142 1246 201 106 40 102 43 -16 13z"/>
<path d="M4422 3870 c-62 -21 -115 -40 -117 -42 -2 -2 -1 -9 3 -15 6 -9 28 -7
87 8 163 41 155 38 155 64 0 14 -3 25 -7 24 -5 0 -59 -18 -121 -39z"/>
<path d="M3941 3829 c-139 -65 -161 -80 -161 -106 0 -8 10 -8 38 3 20 7 97 32
170 55 140 44 150 52 114 95 l-17 21 -144 -68z"/>
<path d="M4663 3842 l-72 -16 -6 -55 c-3 -31 -8 -73 -10 -93 -3 -21 -1 -38 4
-38 12 0 225 51 229 55 8 7 -52 165 -62 164 -6 -1 -43 -8 -83 -17z"/>
<path d="M6780 3820 c-74 -9 -184 -23 -245 -29 -515 -55 -1496 -189 -1514
-206 -2 -3 5 -31 17 -62 11 -32 23 -73 27 -92 7 -33 8 -33 49 -27 45 6 182 19
376 37 324 28 834 133 1105 226 150 51 392 174 340 171 -11 0 -81 -8 -155 -18z"/>
<path d="M4425 3788 c-49 -11 -91 -21 -92 -22 -4 -4 58 -150 68 -160 4 -5 33
-4 68 4 59 12 61 14 61 45 0 18 3 60 6 94 8 71 17 68 -111 39z"/>
<path d="M4125 3775 c-5 -2 -91 -29 -190 -61 -99 -31 -182 -58 -184 -60 -16
-14 16 -10 84 12 44 14 131 40 194 58 63 18 117 38 119 44 4 12 -3 14 -23 7z"/>
<path d="M3642 3690 c-45 -21 -82 -41 -82 -44 0 -10 149 46 161 60 23 28 2 24
-79 -16z"/>
<path d="M4120 3709 c-19 -6 -117 -35 -217 -66 -180 -55 -182 -56 -210 -97
-15 -22 -51 -71 -80 -108 l-54 -68 33 7 c18 3 86 23 151 44 107 35 421 122
472 132 11 2 19 7 18 13 -7 30 -61 148 -69 150 -5 1 -25 -2 -44 -7z"/>
<path d="M3530 3581 c-199 -70 -415 -157 -495 -198 -148 -76 -251 -142 -264
-169 -6 -15 -10 -28 -9 -29 10 -8 106 27 150 55 137 87 191 117 308 175 114
58 292 135 413 180 26 10 47 22 47 26 0 13 -3 12 -150 -40z"/>
<path d="M4745 3620 c-16 -4 -63 -13 -102 -20 -63 -10 -73 -15 -73 -32 0 -16
5 -19 23 -15 12 3 51 11 87 17 148 25 169 31 163 46 -6 15 -49 17 -98 4z"/>
<path d="M4453 3558 c-46 -15 -42 -32 5 -24 20 3 43 6 50 6 6 0 12 7 12 15 0
17 -20 18 -67 3z"/>
<path d="M4762 3534 c-198 -49 -199 -49 -206 -91 -8 -52 -8 -103 2 -103 11 0
292 30 328 36 l32 4 -25 83 c-14 45 -28 85 -32 88 -3 4 -48 -4 -99 -17z"/>
<path d="M3610 3543 c-58 -20 -335 -142 -407 -180 -167 -86 -231 -126 -173
-108 12 4 114 28 228 53 114 26 216 54 227 62 28 21 132 137 145 160 11 20 7
23 -20 13z"/>
<path d="M4210 3448 c-148 -25 -212 -42 -343 -94 -488 -193 -903 -462 -1119
-724 -63 -76 -68 -88 -54 -129 l12 -34 80 75 c204 194 553 446 777 563 22 11
50 30 64 43 13 12 30 19 36 16 7 -4 9 -3 4 1 -17 19 149 103 313 158 223 76
333 126 293 133 -4 1 -33 -3 -63 -8z"/>
<path d="M4473 3452 c-10 -6 -8 -19 7 -57 15 -40 19 -45 20 -24 0 15 3 41 6
58 7 32 -6 40 -33 23z"/>
<path d="M4275 3385 l-30 -13 37 -1 c29 -1 36 2 32 14 -4 8 -7 15 -8 15 0 -1
-14 -7 -31 -15z"/>
<path d="M6085 3342 l-50 -7 80 -29 c487 -176 827 -477 943 -836 111 -342 -38
-718 -376 -948 -69 -46 -82 -60 -77 -77 19 -68 27 -142 22 -227 l-5 -98 71 0
c40 0 88 -3 107 -6 29 -4 37 -2 49 17 13 22 13 22 -48 16 -109 -9 -84 25 27
38 l63 7 48 102 c88 182 124 289 167 501 26 121 27 147 28 390 0 244 -2 268
-27 385 -35 168 -67 264 -119 361 -96 181 -234 305 -403 361 -119 40 -377 66
-500 50z"/>
<path d="M4160 3331 c-68 -10 -186 -59 -395 -166 -369 -188 -734 -438 -965
-662 -62 -59 -64 -63 -38 -63 23 0 54 26 160 133 73 74 176 166 229 205 305
226 684 399 1088 496 57 14 105 27 107 28 2 2 -1 9 -5 17 -10 16 -107 22 -181
12z"/>
<path d="M4670 3303 c-66 -10 -76 -14 -58 -24 11 -6 30 -3 60 10 43 20 43 21
-2 14z"/>
<path d="M3345 3283 c-11 -3 -121 -29 -244 -59 -207 -50 -229 -57 -277 -94
-102 -77 -122 -101 -139 -164 -8 -33 -13 -61 -12 -62 6 -6 260 116 291 139 62
47 174 113 301 179 119 62 135 74 80 61z"/>
<path d="M3438 3259 c-21 -11 -38 -22 -38 -24 0 -5 79 32 89 41 12 11 -18 1
-51 -17z"/>
<path d="M5286 3265 c-133 -16 -156 -22 -156 -38 0 -7 11 -57 25 -111 14 -54
25 -107 25 -117 0 -11 2 -19 5 -19 3 0 31 25 62 55 70 70 156 131 262 188 l82
44 -47 7 c-64 8 -130 6 -258 -9z"/>
<path d="M4540 3255 c0 -8 7 -15 15 -15 8 0 15 4 15 9 0 5 -7 11 -15 15 -9 3
-15 0 -15 -9z"/>
<path d="M5670 3248 c-194 -88 -301 -157 -402 -261 -68 -70 -75 -81 -60 -105
6 -9 20 -3 53 26 116 100 537 332 576 317 27 -10 1 -27 -172 -114 -159 -79
-312 -174 -400 -248 -44 -36 -46 -40 -40 -78 4 -22 11 -57 16 -78 10 -37 11
-38 32 -23 48 34 300 177 442 251 229 119 318 166 345 185 38 27 70 34 70 17
0 -8 -6 -19 -12 -24 -13 -10 -173 -97 -403 -218 -135 -71 -355 -198 -412 -237
-24 -16 -43 -35 -43 -43 0 -8 2 -15 4 -15 2 0 46 25 97 56 52 30 162 87 244
127 83 39 257 125 388 191 220 111 293 137 223 81 -16 -12 -196 -106 -400
-208 -204 -102 -410 -209 -458 -238 -77 -46 -88 -56 -88 -80 0 -59 6 -59 93
-7 85 52 395 206 602 299 155 70 385 183 409 201 18 14 17 16 -15 36 -34 21
-223 100 -291 121 -33 11 -38 10 -60 -11 -12 -13 -131 -81 -263 -152 -251
-136 -370 -208 -445 -270 -46 -39 -64 -34 -36 8 41 63 192 155 702 425 14 7
22 17 17 21 -9 9 -172 45 -243 53 -25 3 -56 1 -70 -5z"/>
<path d="M4260 3229 c-331 -87 -675 -230 -919 -382 -66 -41 -259 -183 -316
-232 -26 -22 -19 -20 50 13 98 48 214 86 320 103 112 19 429 17 517 -3 l68
-15 23 31 c12 17 31 44 41 60 30 47 242 260 305 306 l59 43 -18 46 c-21 55
-29 56 -130 30z"/>
<path d="M4880 3180 c-30 -9 -67 -22 -82 -28 l-28 -11 38 -58 c49 -76 77 -140
102 -235 29 -111 28 -298 -2 -431 -22 -96 -22 -100 -5 -145 10 -26 33 -99 52
-162 18 -63 48 -162 65 -220 17 -58 35 -118 40 -135 4 -16 21 -70 38 -120 35
-108 66 -215 93 -322 11 -43 24 -94 29 -113 9 -34 5 501 -4 545 -2 11 -7 48
-11 81 -6 55 -11 66 -47 100 -66 64 -121 156 -159 269 -21 61 -24 88 -23 210
0 147 14 220 63 330 12 26 21 60 21 76 0 31 -48 241 -86 377 -4 16 -27 14 -94
-8z"/>
<path d="M2730 3115 c-20 -24 -6 -28 15 -5 10 11 13 20 8 20 -6 0 -16 -7 -23
-15z"/>
<path d="M4665 3098 c-22 -11 -41 -21 -42 -22 -1 -1 9 -33 24 -71 14 -39 49
-140 79 -225 48 -139 78 -223 119 -330 12 -34 13 -34 19 -10 41 168 30 346
-29 495 -33 82 -94 179 -115 182 -8 1 -33 -7 -55 -19z"/>
<path d="M2366 2947 c-54 -45 -142 -122 -194 -173 -87 -82 -95 -92 -77 -101
16 -8 53 4 185 59 l166 70 12 87 c7 47 15 98 18 114 4 15 2 27 -2 26 -5 0 -53
-37 -108 -82z"/>
<path d="M2960 2980 c-101 -51 -220 -151 -274 -229 -26 -37 -27 -45 -20 -87
l9 -48 37 61 c38 61 190 223 263 281 71 56 90 71 85 71 -3 0 -48 -22 -100 -49z"/>
<path d="M6227 2906 c-109 -56 -224 -112 -255 -125 -104 -44 -496 -238 -589
-292 -86 -49 -93 -56 -93 -84 0 -18 2 -34 5 -37 3 -2 141 63 308 147 166 83
340 168 387 189 350 158 520 241 520 254 0 10 -64 52 -76 51 -5 -1 -98 -47
-207 -103z"/>
<path d="M4349 2883 c-56 -54 -124 -125 -151 -157 l-50 -59 119 -61 c65 -34
128 -68 140 -76 12 -8 24 -12 26 -10 3 3 8 93 11 200 4 107 9 210 13 228 3 17
3 32 -1 32 -3 0 -51 -44 -107 -97z"/>
<path d="M6460 2889 c-41 -21 -174 -84 -295 -140 -287 -133 -498 -236 -660
-323 -72 -39 -147 -80 -167 -91 -32 -16 -36 -23 -31 -45 3 -14 7 -27 9 -28 4
-5 83 35 219 113 151 86 510 265 680 340 167 74 339 161 356 181 10 13 10 17
-2 25 -20 12 -24 11 -109 -32z"/>
<path d="M4497 2850 c-4 -35 -7 -132 -7 -217 l0 -155 104 -101 c57 -56 115
-118 130 -137 l26 -35 -25 80 c-13 44 -43 132 -65 195 -23 63 -45 129 -50 145
-5 17 -23 68 -40 115 -17 47 -35 97 -40 112 -19 62 -27 62 -33 -2z"/>
<path d="M2708 2864 c-47 -24 -48 -25 -48 -72 l1 -47 22 28 c12 15 39 48 61
73 43 50 33 55 -36 18z"/>
<path d="M6585 2864 c-32 -25 -195 -104 -420 -204 -190 -84 -540 -258 -655
-324 -33 -19 -39 -26 -24 -26 12 0 91 33 175 74 156 75 415 189 700 309 86 37
192 82 235 102 l79 36 -28 25 c-33 28 -36 28 -62 8z"/>
<path d="M6655 2787 c-11 -8 -112 -53 -225 -102 -321 -137 -478 -206 -620
-273 -52 -24 -119 -55 -149 -69 -42 -18 -51 -27 -40 -34 26 -16 49 -10 188 50
133 57 238 100 586 236 205 80 355 145 355 154 0 12 -48 51 -62 51 -7 0 -22
-6 -33 -13z"/>
<path d="M2303 2692 c-73 -31 -133 -60 -133 -63 0 -18 246 -129 283 -129 11 0
12 11 6 51 -5 28 -9 85 -11 125 -1 41 -4 74 -7 73 -4 0 -66 -26 -138 -57z"/>
<path d="M6680 2673 c-41 -19 -262 -109 -490 -200 -228 -91 -426 -171 -439
-178 -24 -12 -24 -13 -4 -19 13 -4 56 7 119 32 55 22 213 81 353 132 388 140
581 219 581 238 0 12 -23 32 -34 31 -6 0 -45 -16 -86 -36z"/>
<path d="M5049 2608 c-32 -123 -32 -272 -1 -370 29 -93 65 -167 102 -208 l31
-35 -5 60 c-5 62 -11 103 -46 335 -12 74 -27 172 -33 217 -7 45 -15 84 -18 87
-3 4 -17 -35 -30 -86z"/>
<path d="M6789 2625 c-40 -22 -286 -117 -547 -211 -131 -47 -282 -102 -336
-122 l-99 -36 33 -14 c31 -12 39 -11 132 28 55 23 233 85 396 140 164 54 341
115 394 135 l97 37 -15 29 c-17 33 -19 34 -55 14z"/>
<path d="M3505 2554 c-147 -26 -325 -93 -404 -153 -23 -18 -22 -18 70 -24 202
-12 381 -79 524 -194 53 -43 161 -166 191 -219 7 -12 6 9 -3 56 -8 41 -16 140
-19 220 -5 138 1 199 31 296 6 19 2 21 -56 27 -98 11 -247 7 -334 -9z"/>
<path d="M6780 2514 c-111 -45 -286 -106 -605 -210 -143 -47 -261 -87 -263
-89 -9 -9 55 -32 68 -25 8 4 96 36 195 70 461 159 689 249 699 276 7 18 6 18
-94 -22z"/>
<path d="M4055 2453 c-12 -42 -17 -95 -16 -193 0 -115 6 -163 37 -315 31 -154
72 -323 118 -492 6 -23 14 -45 18 -48 9 -9 237 219 286 285 l41 55 -19 70
c-32 115 -69 325 -72 405 l-3 74 -65 53 c-36 29 -92 67 -125 85 -60 33 -162
78 -176 78 -4 0 -15 -26 -24 -57z"/>
<path d="M1884 2472 c-193 -248 -271 -359 -347 -490 -31 -53 -37 -72 -37 -121
0 -125 67 -299 160 -415 54 -69 153 -166 168 -166 6 0 15 23 21 50 27 123 106
307 185 428 98 150 205 264 349 371 86 64 107 86 107 111 0 5 -46 23 -102 40
-57 17 -126 40 -155 50 -71 26 -250 117 -289 146 -17 13 -33 24 -35 23 -2 0
-13 -12 -25 -27z"/>
<path d="M6844 2474 c-51 -30 -460 -183 -682 -255 l-163 -53 53 -32 52 -32 50
20 c28 11 112 40 186 63 286 92 569 191 585 206 5 6 5 13 -1 19 -6 6 -29 0
-64 -16 -113 -52 -675 -232 -687 -220 -2 2 54 22 124 46 361 121 613 219 613
239 0 16 -12 41 -19 40 -3 -1 -25 -12 -47 -25z"/>
<path d="M6630 2249 c-162 -54 -342 -113 -398 -130 -70 -21 -101 -34 -94 -41
7 -7 52 3 139 30 70 22 209 64 308 93 215 62 355 116 355 135 0 8 -3 13 -7 12
-5 0 -141 -45 -303 -99z"/>
<path d="M2911 2249 c-50 -45 -91 -86 -91 -91 0 -18 43 -88 55 -88 9 0 134
123 225 223 l34 37 -66 0 -65 0 -92 -81z"/>
<path d="M3156 2306 c-3 -13 -64 -80 -135 -148 -108 -103 -128 -127 -119 -141
8 -15 21 -7 106 65 53 45 130 114 170 153 40 38 78 70 84 70 49 0 -44 -103
-234 -258 -84 -68 -101 -87 -77 -87 15 0 243 187 322 265 47 46 72 64 79 57 7
-7 7 -16 0 -29 -18 -33 -185 -187 -279 -257 -51 -38 -93 -72 -93 -76 0 -4 7
-13 15 -20 18 -15 13 -18 140 94 169 149 265 239 260 244 -3 3 2 13 11 23 14
16 12 18 -33 33 -46 15 -159 36 -194 36 -9 0 -20 -11 -23 -24z"/>
<path d="M6900 2264 c-106 -46 -522 -171 -657 -197 -35 -6 -63 -15 -63 -19 0
-3 15 -17 33 -29 17 -13 61 -51 97 -85 l65 -63 175 40 c268 59 358 95 375 148
l7 22 -51 -25 c-101 -51 -256 -99 -400 -122 -182 -29 -153 -13 123 70 181 54
326 112 340 135 8 13 -6 15 -19 2 -19 -16 -143 -59 -260 -89 -168 -44 -307
-64 -372 -56 -30 3 -53 8 -51 9 2 2 93 22 203 45 308 64 505 123 505 152 0 12
-9 10 -104 -26 -130 -49 -488 -137 -502 -123 -3 2 24 12 58 22 315 87 548 168
548 191 0 17 -6 17 -50 -2z"/>
<path d="M1280 2204 c-201 -125 -365 -265 -480 -411 l-41 -52 1 -505 0 -506
36 -52 c261 -377 642 -563 1215 -594 69 -4 151 -4 182 0 l57 7 -61 67 c-134
145 -245 328 -312 512 -25 68 -57 210 -57 253 l0 37 -95 0 c-244 0 -440 93
-524 250 -60 111 -75 150 -90 236 -32 189 16 358 189 669 34 61 71 120 83 133
33 35 9 25 -103 -44z"/>
<path d="M3450 2244 c0 -26 -263 -271 -410 -382 -5 -3 50 -55 121 -115 l34
-27 26 27 c14 16 70 69 125 118 54 50 131 120 170 157 40 37 84 79 99 92 17
15 25 32 21 41 -4 11 -29 -10 -93 -76 -170 -176 -393 -347 -393 -300 0 5 55
55 123 112 124 104 317 287 317 300 0 4 -7 9 -15 13 -10 4 -39 -20 -88 -71
-135 -142 -347 -303 -400 -303 -14 0 1 13 179 162 82 69 173 151 203 183 l54
57 -24 14 c-33 18 -49 17 -49 -2z"/>
<path d="M4500 2205 c0 -67 67 -395 81 -395 3 0 22 26 42 57 27 42 35 64 31
82 -10 43 -59 142 -108 216 -42 64 -46 68 -46 40z"/>
<path d="M2506 2145 c-3 -8 -1 -15 3 -15 5 0 11 7 15 15 3 8 1 15 -3 15 -5 0
-11 -7 -15 -15z"/>
<path d="M5495 2151 c-60 -16 -114 -50 -121 -77 -16 -65 28 -185 91 -244 24
-23 35 -25 115 -25 95 0 96 -7 4 -28 l-58 -13 95 -72 c221 -166 466 -230 689
-179 110 25 109 25 75 94 -62 124 -128 202 -267 316 -186 153 -488 264 -623
228z"/>
<path d="M3540 1987 c-75 -73 -177 -166 -227 -207 l-91 -74 32 -22 33 -23 192
187 c205 200 237 238 219 259 -6 7 -13 13 -17 13 -3 -1 -67 -60 -141 -133z"/>
<path d="M2436 2083 c-33 -45 -151 -285 -168 -343 -40 -131 -48 -160 -48 -182
0 -22 43 -68 65 -68 6 0 19 -16 28 -35 24 -49 22 -147 -4 -231 -20 -66 -24
-173 -6 -191 4 -3 24 2 45 12 20 11 67 28 104 40 l68 21 -29 35 c-45 54 -98
156 -126 242 -58 177 -41 374 50 577 29 63 54 151 43 150 -2 0 -12 -12 -22
-27z"/>
<path d="M3718 2033 c-9 -16 -40 -52 -68 -80 -29 -29 -49 -53 -45 -53 14 0
154 143 149 151 -9 15 -19 10 -36 -18z"/>
<path d="M2309 2000 c-62 -54 -186 -204 -237 -285 -75 -121 -166 -348 -179
-445 -5 -42 -3 -47 21 -58 32 -14 54 -5 104 41 31 30 32 33 33 116 1 128 5
135 68 142 29 4 53 9 54 10 2 2 13 47 26 99 34 143 108 325 163 403 29 41 10
33 -53 -23z"/>
<path d="M3740 1966 c-54 -65 -305 -275 -386 -322 -17 -10 -17 -12 11 -26 l29
-15 135 115 c195 166 272 243 269 266 -5 32 -21 27 -58 -18z"/>
<path d="M2654 1924 c-17 -36 -28 -77 -28 -106 -1 -25 -4 -42 -7 -36 -14 22
-24 -20 -27 -112 -6 -160 49 -327 149 -452 64 -80 116 -123 197 -164 72 -37
80 -34 81 24 2 42 83 185 138 240 32 32 76 64 114 81 l61 28 -36 21 c-21 12
-39 22 -42 22 -10 0 -170 103 -227 147 -80 61 -230 212 -287 288 -24 33 -47
64 -51 69 -5 5 -20 -18 -35 -50z"/>
<path d="M6840 1943 c-91 -39 -295 -83 -385 -83 -61 0 -73 -9 -45 -35 19 -17
25 -17 155 9 168 33 252 59 290 91 37 30 31 38 -15 18z"/>
<path d="M3798 1908 c-26 -35 -202 -194 -311 -281 -57 -47 -58 -47 -33 -58 22
-10 32 -5 123 72 147 124 273 241 273 254 0 6 -6 19 -13 29 -12 17 -15 15 -39
-16z"/>
<path d="M4637 1814 c-30 -46 -37 -66 -32 -89 8 -42 36 -115 45 -115 25 0 48
156 33 224 l-8 39 -38 -59z"/>
<path d="M3780 1759 c-52 -50 -130 -118 -172 -151 -74 -57 -92 -78 -67 -78 11
0 278 221 321 267 16 16 24 33 20 40 -5 8 -40 -19 -102 -78z"/>
<path d="M6798 1844 c-16 -15 -173 -47 -260 -53 l-97 -6 19 -31 20 -31 108 32
c59 18 132 40 163 49 31 9 59 23 63 31 5 15 -5 21 -16 9z"/>
<path d="M1403 1713 c-22 -60 -46 -129 -52 -155 -35 -147 21 -283 137 -335 76
-33 170 -53 260 -53 l73 0 -3 28 c-2 20 -21 43 -68 83 -36 31 -89 84 -118 120
-68 82 -145 241 -167 342 -9 42 -17 77 -18 77 -2 0 -21 -48 -44 -107z"/>
<path d="M3855 1729 c-35 -36 -213 -176 -260 -204 -16 -10 -15 -12 8 -22 23
-11 31 -7 99 49 99 82 208 190 208 205 0 22 -14 15 -55 -28z"/>
<path d="M6650 1725 c-36 -7 -86 -13 -112 -14 l-46 -1 25 -47 c14 -27 26 -49
28 -51 4 -5 106 63 145 97 19 16 33 30 30 29 -3 0 -34 -6 -70 -13z"/>
<path d="M3353 1692 c-36 -24 -50 -39 -43 -46 7 -7 26 5 58 37 55 55 54 56
-15 9z"/>
<path d="M5385 1604 c13 -238 37 -609 40 -613 2 -2 23 4 47 13 24 9 83 22 131
29 l88 12 -34 40 c-47 56 -99 148 -127 225 -31 86 -23 126 33 184 l42 43 -65
46 c-36 26 -79 59 -96 74 -70 64 -65 68 -59 -53z"/>
<path d="M3873 1640 c-29 -27 -84 -74 -123 -105 -38 -32 -70 -59 -70 -61 0 -2
7 -4 16 -4 9 0 60 43 113 95 54 52 103 95 109 95 7 0 12 7 12 15 0 8 -1 15 -2
15 -2 0 -26 -23 -55 -50z"/>
<path d="M4514 1643 c-21 -26 -84 -92 -139 -147 l-100 -99 45 7 c81 12 177 46
226 79 67 45 72 56 46 111 -12 25 -22 51 -22 58 0 7 -4 19 -9 26 -6 9 -18 0
-47 -35z"/>
<path d="M4895 1644 c-9 -66 -55 -160 -106 -217 l-41 -47 38 -68 c38 -68 103
-165 158 -237 26 -34 166 -188 166 -182 -7 67 -52 260 -114 487 -31 113 -61
223 -67 244 -17 68 -26 73 -34 20z"/>
<path d="M3926 1623 c-4 -11 -42 -55 -85 -96 -55 -52 -75 -77 -65 -81 9 -3 41
20 81 59 37 36 71 65 75 65 21 0 3 -37 -43 -86 -30 -31 -46 -54 -37 -54 8 0
25 11 38 25 28 30 43 23 35 -16 -5 -22 -3 -29 8 -29 8 0 18 8 21 17 8 19 -3
167 -14 198 -7 19 -7 19 -14 -2z"/>
<path d="M4010 1437 c0 -26 4 -37 14 -37 12 0 13 6 4 33 -15 45 -18 46 -18 4z"/>
<path d="M6408 1385 c-20 -7 -63 -16 -95 -20 -32 -3 -71 -9 -86 -12 l-28 -5
46 -40 c82 -72 125 -121 157 -177 l32 -55 17 41 c31 73 34 271 4 279 -5 1 -26
-4 -47 -11z"/>
<path d="M5705 1370 c-12 -19 4 -78 38 -142 30 -58 139 -178 160 -178 6 0 2 7
-9 15 -17 13 -11 14 66 14 47 0 130 -5 185 -12 55 -7 110 -11 122 -9 21 3 22
5 9 30 -21 40 -113 125 -183 170 -103 66 -369 143 -388 112z"/>
<path d="M4670 1319 c-62 -52 -179 -95 -298 -108 -40 -5 -76 -11 -79 -14 -3
-3 22 -61 56 -129 97 -197 225 -380 376 -537 202 -209 373 -309 469 -272 25
10 28 15 23 44 -2 17 -12 82 -21 142 -9 61 -26 164 -38 230 l-22 120 -59 55
c-108 100 -259 295 -337 433 -17 31 -35 57 -38 57 -4 -1 -18 -10 -32 -21z"/>
<path d="M3397 1226 c-97 -41 -123 -75 -134 -177 l-6 -62 76 6 c182 16 407
125 407 198 0 38 -38 50 -175 55 -100 5 -115 3 -168 -20z"/>
<path d="M6695 1070 c55 -3 104 -2 110 2 5 5 -40 7 -100 6 l-110 -2 100 -6z"/>
<path d="M6581 1026 c12 -12 164 -34 173 -25 5 5 8 10 5 13 -7 6 -184 18 -178
12z"/>
<path d="M2010 1000 c-25 -10 -67 -21 -93 -25 -32 -5 -47 -11 -44 -19 3 -7 8
-39 12 -72 16 -141 87 -322 198 -509 74 -124 193 -285 209 -285 34 1 224 31
313 50 126 27 337 97 450 149 96 45 169 87 294 170 67 44 80 56 65 62 -116 43
-154 60 -211 99 -43 29 -84 67 -113 107 -40 55 -51 64 -100 79 -30 9 -95 35
-145 57 -103 45 -193 61 -240 41 -16 -7 -51 -28 -78 -47 -26 -19 -76 -43 -111
-53 l-64 -18 35 -65 c52 -97 162 -254 242 -346 l26 -30 -34 30 c-42 38 -157
175 -202 240 -50 75 -57 86 -80 131 -19 37 -27 42 -63 46 -23 3 -61 18 -85 33
-42 28 -58 51 -103 148 -12 26 -24 47 -27 46 -4 -1 -26 -9 -51 -19z"/>
<path d="M5580 989 c-36 -5 -86 -13 -112 -20 -45 -10 -48 -13 -48 -44 l0 -33
73 25 c39 13 116 31 169 40 79 13 96 19 87 30 -13 14 -67 15 -169 2z"/>
<path d="M6043 983 c15 -2 39 -2 55 0 15 2 2 4 -28 4 -30 0 -43 -2 -27 -4z"/>
<path d="M6158 973 c12 -2 30 -2 40 0 9 3 -1 5 -23 4 -22 0 -30 -2 -17 -4z"/>
<path d="M5641 915 c-86 -16 -209 -53 -217 -67 -3 -5 -3 -26 1 -48 l7 -40 36
30 c64 51 157 77 347 98 l70 8 -32 17 c-38 20 -107 21 -212 2z"/>
<path d="M6618 903 c6 -2 18 -2 25 0 6 3 1 5 -13 5 -14 0 -19 -2 -12 -5z"/>
<path d="M6455 892 c-3 -3 -5 -26 -5 -52 0 -40 4 -48 24 -58 21 -9 31 -6 80
29 31 22 56 44 56 48 0 10 -147 41 -155 33z"/>
<path d="M5715 836 c-125 -20 -209 -51 -245 -92 -34 -39 -38 -74 -12 -96 40
-34 231 -88 316 -88 47 0 48 1 33 18 -34 37 -8 37 46 -1 24 -17 39 -19 95 -14
75 7 198 37 285 70 l58 22 -3 75 -3 75 -98 7 c-54 4 -122 14 -152 23 -63 18
-205 18 -320 1z"/>
<path d="M3595 823 c-22 -8 -87 -22 -145 -32 l-105 -19 40 -17 c45 -20 192
-48 206 -39 5 3 9 12 9 20 0 8 9 33 21 55 11 23 19 42 17 44 -2 1 -21 -4 -43
-12z"/>
<path d="M3884 776 c-32 -14 -61 -45 -33 -34 8 3 38 13 67 22 28 10 52 19 52
22 0 9 -57 2 -86 -10z"/>
<path d="M755 593 c2 -16 4 -155 4 -310 l1 -283 798 0 c793 0 797 1 772 20
-23 18 -42 20 -208 20 -442 0 -750 81 -1031 268 -97 65 -219 176 -281 257 -47
61 -60 68 -55 28z"/>
<path d="M5615 526 c68 -34 185 -52 217 -34 22 13 21 13 -17 16 -38 2 -198 28
-233 38 -10 2 6 -7 33 -20z"/>
</g>
</svg>
