<?xml version="1.0" standalone="no"?>
<!DOCTYPE svg PUBLIC "-//W3C//DTD SVG 20010904//EN"
 "http://www.w3.org/TR/2001/REC-SVG-20010904/DTD/svg10.dtd">
<svg version="1.0" xmlns="http://www.w3.org/2000/svg"
 width="619.000000pt" height="825.000000pt" viewBox="0 0 619.000000 825.000000"
 preserveAspectRatio="xMidYMid meet">

<g transform="translate(0.000000,825.000000) scale(0.100000,-0.100000)"
fill="#000000" stroke="none">
<path d="M1390 8235 c0 -8 5 -15 11 -15 6 0 33 -21 60 -47 40 -38 49 -53 49
-80 0 -43 23 -98 46 -111 17 -10 17 -14 -11 -73 -17 -35 -47 -96 -67 -136 -21
-40 -36 -73 -33 -73 2 0 23 33 45 73 34 58 41 66 36 39 -4 -23 -2 -31 6 -26 8
5 9 -2 4 -22 -15 -63 -15 -68 0 -39 15 30 15 30 10 -25 -4 -37 -2 -50 4 -40 5
8 10 36 10 63 0 42 2 47 23 47 13 0 32 -14 47 -35 26 -35 92 -79 104 -68 9 9
8 -16 -4 -75 -5 -28 -18 -60 -29 -71 -28 -28 -51 -87 -51 -130 0 -20 11 -60
25 -89 26 -57 84 -142 95 -142 4 0 13 14 20 30 15 37 21 37 43 1 23 -40 96
-103 109 -95 7 5 9 38 5 103 l-5 96 22 -28 c31 -38 39 -23 14 24 -11 22 -18
43 -15 46 4 3 -3 17 -13 31 -27 33 -25 50 2 26 17 -14 16 -11 -5 14 -35 43
-34 57 1 35 24 -15 24 -14 -5 14 -18 16 -33 36 -33 43 0 11 3 11 12 2 16 -16
33 -15 19 1 -6 8 -8 17 -4 21 4 4 -3 15 -16 25 -16 12 -22 25 -19 42 4 24 4
23 24 -8 11 -18 23 -30 26 -27 3 3 20 -20 37 -50 24 -40 30 -62 25 -81 -7 -28
-18 -24 -28 10 -3 11 -3 2 -1 -20 3 -22 5 -60 6 -85 1 -25 3 -37 6 -27 4 15
11 12 51 -21 26 -21 59 -47 75 -57 l27 -17 -1 43 c0 32 -3 38 -8 24 -8 -19 -8
-19 -20 3 -6 12 -9 22 -6 22 4 0 -1 7 -9 16 -9 8 -14 20 -11 25 4 5 2 9 -3 9
-6 0 -13 7 -16 16 -3 8 -2 12 4 9 18 -11 10 4 -15 29 -14 14 -25 31 -25 38 1
21 79 -72 89 -106 7 -25 9 -26 10 -8 1 29 6 28 53 -9 21 -17 40 -30 41 -28 1
2 0 38 -2 79 l-5 75 -6 -55 -5 -55 -24 34 c-18 25 -21 35 -11 41 9 5 4 12 -16
21 -36 18 -46 44 -13 35 15 -4 11 0 -10 11 -40 21 -56 49 -22 40 11 -3 19 -1
15 4 -3 5 -11 9 -18 9 -14 0 -60 40 -53 46 2 3 16 0 31 -6 18 -6 25 -6 21 0
-3 6 -12 10 -19 10 -8 0 -24 9 -37 20 -23 18 -23 19 -4 20 16 1 13 4 -10 14
-37 15 -18 30 28 21 24 -5 28 -4 17 4 -8 6 -32 11 -52 11 -32 0 -46 8 -85 48
-27 26 -71 68 -99 94 -28 25 -54 53 -57 62 -4 9 -15 16 -25 16 -17 0 -92 68
-92 84 0 4 20 33 45 65 38 49 45 64 45 102 0 25 -6 53 -13 63 -13 18 -73 36
-117 35 -25 0 -25 0 -2 -9 31 -13 28 -26 -8 -33 l-30 -6 0 -73 0 -73 -45 47
c-38 39 -45 53 -45 87 0 21 5 42 10 44 6 3 5 4 -2 3 -7 -1 -15 -20 -18 -41
l-5 -39 -47 52 c-49 55 -58 61 -58 37z m295 -55 c7 -11 -33 -103 -59 -135 -14
-19 -15 -15 -16 53 0 66 2 73 23 82 30 12 45 12 52 0z m50 -110 c-3 -9 -21
-31 -40 -50 -31 -30 -37 -32 -50 -19 -14 13 -11 23 22 90 l38 74 18 -39 c9
-21 15 -46 12 -56z m-137 -55 c-2 -11 -11 -21 -20 -23 -22 -4 -47 35 -55 84
l-6 39 42 -40 c27 -25 41 -47 39 -60z m47 -27 c3 -7 -6 -40 -20 -73 l-25 -60
0 41 c0 69 30 131 45 92z m30 -49 c-5 -14 1 -28 19 -45 22 -22 26 -36 29 -102
l3 -77 2 80 c1 60 -2 86 -14 103 -23 33 -12 37 17 6 21 -23 24 -34 22 -100 -1
-82 -9 -124 -22 -124 -21 0 -78 50 -99 87 -20 37 -21 46 -12 89 14 62 40 115
52 108 5 -3 6 -15 3 -25z m156 -137 c-33 43 9 12 76 -54 56 -55 73 -79 73
-100 0 -16 -4 -28 -9 -28 -6 0 -31 32 -57 70 -26 39 -52 74 -58 78 -6 3 5 -16
25 -44 47 -66 61 -92 54 -104 -13 -21 -53 14 -81 72 -16 33 -32 62 -36 65 -5
2 6 -25 24 -61 30 -62 31 -68 19 -99 -17 -39 -30 -147 -19 -153 4 -3 8 21 8
53 0 61 20 108 35 84 4 -7 2 -18 -4 -24 -14 -14 -15 -30 -1 -22 13 8 13 -11
-2 -38 -10 -20 -10 -21 5 -8 15 12 17 11 17 -6 0 -10 -6 -25 -12 -32 -11 -10
-9 -11 6 -5 17 7 18 4 13 -24 -5 -22 -3 -31 6 -29 6 1 13 -10 15 -25 4 -35
-11 -36 -33 -2 -14 21 -19 24 -27 13 -7 -12 -9 -11 -7 1 1 8 1 24 0 35 -1 15
-3 17 -10 6 -7 -11 -11 -8 -17 10 -4 13 -8 28 -9 33 -1 23 -22 13 -33 -16
l-12 -33 -26 44 -27 43 17 117 c9 64 16 127 16 141 0 20 2 22 10 10 8 -12 10
-8 11 15 1 17 1 39 1 50 -2 16 4 13 30 -16 18 -19 27 -27 19 -17z m180 -174
c1 -7 1 -22 0 -33 0 -11 2 -14 5 -7 8 18 34 -4 34 -29 0 -11 4 -19 9 -19 5 0
13 -10 17 -22 3 -12 13 -28 21 -36 7 -8 11 -24 8 -36 -2 -11 -2 -15 1 -8 7 16
34 -3 34 -24 0 -8 4 -14 10 -14 5 0 16 -13 25 -30 9 -16 13 -30 9 -30 -4 0
-40 30 -81 66 -71 64 -113 124 -113 160 0 10 -3 14 -7 11 -8 -8 -33 11 -33 25
0 6 6 6 14 -1 11 -9 15 -6 20 14 7 26 25 35 27 13z m-85 -105 c-7 -7 -26 7
-26 19 0 6 6 6 15 -2 9 -7 13 -15 11 -17z m-192 -62 c-6 -6 -24 19 -24 34 1 6
7 1 15 -9 8 -11 12 -22 9 -25z m-34 16 c0 -7 -6 -19 -12 -26 -11 -10 -10 -11
5 -6 21 9 24 -23 5 -44 -11 -11 -10 -13 4 -8 15 5 16 2 8 -19 -15 -38 -12 -50
6 -28 15 19 15 19 11 -1 -3 -11 -7 -27 -9 -35 -3 -8 -3 -12 -1 -7 12 20 24 4
18 -25 -4 -22 -3 -28 3 -20 7 11 10 9 14 -6 9 -31 -6 -46 -24 -25 -52 59 -78
161 -58 224 13 38 30 53 30 26z m58 -47 c9 -11 25 -42 34 -68 9 -26 17 -40 18
-31 0 9 -5 30 -11 47 -7 19 -7 37 -1 47 7 14 11 13 26 -10 11 -17 15 -36 11
-52 -4 -16 -2 -22 5 -18 5 3 10 -1 10 -9 0 -9 5 -16 11 -16 11 0 9 -17 -7 -67
-3 -11 1 -8 11 7 l16 25 -4 -25 c-3 -14 -8 -34 -12 -45 -7 -20 -6 -20 9 -1 15
19 16 19 16 -11 0 -46 -14 -48 -49 -6 -23 28 -30 45 -27 68 2 16 1 22 -1 12
-3 -13 -11 -16 -26 -12 -21 6 -21 6 -3 -9 11 -9 17 -19 13 -22 -10 -10 -39 18
-33 32 3 7 1 16 -4 19 -6 4 -10 13 -10 22 0 14 3 13 23 -3 14 -12 13 -8 -5 12
-31 34 -37 54 -10 33 9 -7 7 -2 -5 12 -28 30 -29 41 -5 32 13 -5 12 -1 -5 16
-13 12 -23 26 -23 31 0 17 19 11 38 -10z m286 -26 c3 -8 4 -28 1 -42 -3 -15
-2 -21 1 -14 8 17 24 5 24 -19 0 -11 4 -18 8 -15 9 5 46 -63 39 -70 -2 -2 -29
19 -60 47 -58 52 -67 73 -45 109 15 24 24 25 32 4z m-148 -62 c24 -16 52 -132
32 -132 -9 0 -9 -3 0 -12 7 -7 12 -21 12 -32 0 -28 -20 -6 -24 25 -1 14 -6 30
-10 37 -4 7 -2 12 5 12 7 0 4 6 -7 14 -10 8 -16 18 -12 22 4 4 3 13 -3 21 -9
10 -8 13 1 13 9 0 7 7 -5 20 -18 19 -11 27 11 12z m54 -22 c0 -5 -2 -10 -4
-10 -3 0 -8 5 -11 10 -3 6 -1 10 4 10 6 0 11 -4 11 -10z m-173 -122 c-3 -8 -6
-5 -6 6 -1 11 2 17 5 13 3 -3 4 -12 1 -19z m148 -86 c-3 -3 -15 4 -27 16 -18
18 -19 23 -8 37 12 14 15 13 27 -16 7 -18 11 -34 8 -37z"/>
<path d="M1790 7805 c0 -5 5 -17 10 -25 5 -8 10 -10 10 -5 0 6 -5 17 -10 25
-5 8 -10 11 -10 5z"/>
<path d="M1781 7694 c0 -32 4 -77 9 -99 6 -27 6 -10 3 55 -6 108 -13 133 -12
44z"/>
<path d="M1802 7520 c0 -19 2 -27 5 -17 2 9 2 25 0 35 -3 9 -5 1 -5 -18z"/>
<path d="M1835 7299 c-4 -6 -5 -12 -2 -15 2 -3 7 2 10 11 7 17 1 20 -8 4z"/>
<path d="M1563 8233 c9 -2 25 -2 35 0 9 3 1 5 -18 5 -19 0 -27 -2 -17 -5z"/>
<path d="M4729 8012 c-100 -52 -147 -176 -114 -303 30 -117 88 -195 178 -241
l29 -15 -52 -46 c-89 -80 -216 -130 -284 -113 -21 5 -26 13 -27 39 -2 30 -2
30 -6 5 -5 -34 -11 -34 -54 -5 -46 31 -87 115 -99 204 -21 152 26 277 129 340
40 25 35 31 -7 9 -40 -21 -77 -64 -108 -126 -25 -48 -28 -67 -29 -145 0 -168
42 -265 135 -312 100 -51 223 -20 352 90 63 53 66 54 119 51 51 -3 52 -3 12 5
-24 4 -45 10 -49 13 -3 4 5 22 19 40 39 51 87 159 86 193 -1 28 -2 27 -9 -7
-8 -44 -61 -151 -94 -193 -22 -27 -25 -28 -54 -16 -50 21 -120 95 -149 158
-23 49 -28 71 -28 148 0 107 21 158 85 204 124 89 233 9 250 -183 5 -61 8 -70
10 -36 1 25 4 36 7 25 13 -59 29 -92 64 -130 46 -50 62 -88 53 -129 -7 -35
-50 -86 -73 -87 -10 0 -11 -3 -4 -5 19 -8 60 24 78 62 25 54 12 107 -41 164
-33 36 -46 59 -55 101 -6 30 -17 64 -25 76 -8 12 -14 31 -14 41 0 29 -57 110
-92 132 -44 27 -76 25 -139 -8z"/>
<path d="M4513 7877 c12 -13 24 -22 26 -20 6 4 -30 43 -40 43 -5 0 2 -10 14
-23z"/>
<path d="M1477 7696 c-20 -40 -37 -76 -37 -82 1 -5 19 26 41 70 22 43 39 80
37 81 -2 2 -20 -29 -41 -69z"/>
<path d="M1501 7659 c-6 -18 -9 -34 -7 -36 2 -2 9 10 15 28 6 18 9 34 7 36 -2
2 -9 -10 -15 -28z"/>
<path d="M4496 7664 c-10 -16 -13 -23 -5 -16 48 45 33 -40 -22 -124 -37 -57
-40 -67 -31 -92 6 -15 13 -36 15 -47 4 -17 5 -17 6 3 0 13 -4 32 -9 43 -11 20
-1 47 45 115 29 43 40 90 27 123 l-8 23 -18 -28z"/>
<path d="M1385 7627 c-22 -23 -31 -35 -21 -27 18 14 18 13 11 -10 -4 -14 -5
-23 -3 -20 8 8 60 100 56 99 -1 0 -21 -19 -43 -42z"/>
<path d="M2125 7633 c11 -10 31 -29 44 -43 l24 -25 -22 33 c-12 17 -32 37 -44
43 -22 10 -22 10 -2 -8z"/>
<path d="M1527 7595 c-15 -14 -24 -25 -19 -25 5 0 19 11 32 25 30 32 23 32
-13 0z"/>
<path d="M1432 7553 c-48 -23 -32 -27 19 -3 24 11 37 20 29 20 -8 0 -30 -8
-48 -17z"/>
<path d="M2198 7545 c5 -11 12 -27 15 -35 5 -13 6 -13 6 1 1 8 -6 24 -15 35
-15 19 -15 19 -6 -1z"/>
<path d="M1951 7550 c0 -3 6 -25 13 -50 8 -25 15 -36 15 -25 0 17 -26 88 -28
75z"/>
<path d="M1366 7515 c-11 -8 -17 -17 -14 -20 2 -3 13 4 23 15 21 23 18 25 -9
5z"/>
<path d="M2222 7470 c0 -14 2 -19 5 -12 2 6 2 18 0 25 -3 6 -5 1 -5 -13z"/>
<path d="M4966 7461 c-19 -7 -18 -8 4 -14 13 -3 26 -4 29 -2 2 3 -1 5 -8 5 -7
0 -9 5 -6 10 7 11 7 11 -19 1z"/>
<path d="M4940 7013 c-35 -7 -45 -18 -47 -50 l-2 -28 10 25 c5 15 25 32 47 42
38 16 36 19 -8 11z"/>
<path d="M3650 6974 c-6 -14 -10 -35 -9 -47 1 -12 5 -3 11 21 5 23 13 40 19
37 5 -4 9 -1 9 4 0 21 -21 11 -30 -15z"/>
<path d="M3752 6970 c0 -19 2 -27 5 -17 2 9 2 25 0 35 -3 9 -5 1 -5 -18z"/>
<path d="M5620 6989 c0 -5 5 -7 10 -4 6 3 10 8 10 11 0 2 -4 4 -10 4 -5 0 -10
-5 -10 -11z"/>
<path d="M3680 6954 c1 -29 38 -202 39 -180 1 22 -29 189 -35 195 -2 2 -4 -4
-4 -15z"/>
<path d="M4883 6895 c0 -22 2 -30 4 -17 2 12 2 30 0 40 -3 9 -5 -1 -4 -23z"/>
<path d="M3763 6865 c0 -33 2 -45 4 -27 2 18 2 45 0 60 -2 15 -4 0 -4 -33z"/>
<path d="M5380 6884 c-6 -14 -11 -33 -11 -42 -1 -9 -5 -3 -9 13 -5 18 -6 2 -3
-40 8 -102 19 -119 21 -33 1 41 6 87 11 101 6 15 8 27 6 27 -3 0 -10 -12 -15
-26z"/>
<path d="M3633 6855 c0 -27 2 -38 4 -22 2 15 2 37 0 50 -2 12 -4 0 -4 -28z"/>
<path d="M5232 6888 c-7 -7 -12 -17 -12 -22 0 -6 5 -3 11 7 6 9 15 14 21 11 7
-4 8 -2 4 4 -9 15 -9 15 -24 0z"/>
<path d="M5463 6874 c-21 -33 -30 -129 -13 -149 24 -29 73 -14 98 30 9 16 11
17 12 4 0 -30 -20 -124 -37 -167 l-16 -43 -48 2 c-27 2 -52 0 -56 -4 -3 -4 17
-7 46 -7 l52 0 -16 -31 c-17 -31 -41 -35 -39 -5 2 14 -11 16 -95 14 l-96 -2
84 -3 c72 -3 86 -7 101 -26 18 -21 18 -21 39 -3 11 10 23 26 26 36 5 16 18 17
138 13 73 -3 129 -2 125 2 -6 6 -48 9 -217 14 -28 1 -32 4 -26 19 32 72 72
351 46 312 -6 -8 -11 -31 -11 -51 0 -41 -36 -102 -63 -107 -36 -7 -50 18 -44
77 7 67 35 103 64 80 16 -13 17 -12 4 4 -19 24 -38 21 -58 -9z"/>
<path d="M5844 6842 c-21 -77 -66 -124 -92 -98 -13 13 -14 21 -3 58 14 47 37
78 57 78 7 0 15 -8 17 -17 3 -13 5 -12 6 5 1 20 -3 23 -26 20 -51 -6 -95 -128
-57 -159 13 -11 21 -11 44 3 l28 16 6 -39 c3 -21 11 -41 17 -45 8 -4 9 1 3 17
-13 35 -8 90 11 148 9 28 15 57 12 64 -3 6 -13 -16 -23 -51z"/>
<path d="M5674 6775 c0 -60 1 -84 3 -52 2 32 2 81 0 110 -2 29 -3 3 -3 -58z"/>
<path d="M5262 6835 c0 -16 2 -22 5 -12 2 9 2 23 0 30 -3 6 -5 -1 -5 -18z"/>
<path d="M5214 6782 c2 -58 0 -63 -22 -69 -31 -8 -42 9 -42 69 0 48 -15 71
-31 47 -15 -23 -10 -34 6 -13 13 18 14 15 15 -29 0 -27 5 -57 10 -68 11 -19
54 -27 64 -11 3 5 18 7 34 4 16 -2 32 0 36 6 3 5 -5 7 -19 4 -25 -4 -35 11
-15 23 6 3 10 14 9 23 0 13 -3 12 -11 -5 -17 -36 -27 -27 -31 30 -3 44 -4 42
-3 -11z"/>
<path d="M4955 6814 c-11 -8 -28 -13 -37 -10 -10 2 -18 0 -18 -5 0 -16 37 -10
61 11 28 23 23 26 -6 4z"/>
<path d="M5010 6821 c0 -6 6 -8 14 -5 17 7 32 -18 41 -69 4 -20 11 -37 16 -37
11 0 11 15 1 38 -5 9 -15 30 -23 47 -14 29 -49 47 -49 26z"/>
<path d="M4602 6798 c-7 -7 -12 -25 -12 -41 0 -23 -4 -28 -16 -23 -12 5 -15 2
-10 -10 3 -8 6 -36 6 -61 0 -65 8 -50 21 43 6 43 16 85 22 92 12 15 5 16 -11
0z"/>
<path d="M3623 6755 c0 -27 2 -40 4 -28 2 12 16 27 31 32 l27 11 -27 -5 c-22
-4 -27 -1 -31 17 -2 13 -4 1 -4 -27z"/>
<path d="M4230 6785 c-7 -9 -10 -18 -6 -22 3 -3 6 -1 6 6 0 8 7 11 15 7 8 -3
15 -1 15 4 0 17 -18 20 -30 5z"/>
<path d="M3774 6728 c1 -42 7 -73 15 -80 11 -11 12 -10 7 0 -4 7 -12 43 -16
80 l-9 67 3 -67z"/>
<path d="M3824 6765 c-3 -8 -4 -20 -2 -27 3 -7 7 -1 10 15 6 29 1 36 -8 12z"/>
<path d="M3978 6698 c2 -46 7 -86 10 -90 4 -4 6 33 4 82 -2 50 -7 90 -10 90
-4 0 -6 -37 -4 -82z"/>
<path d="M4034 6745 c-19 -47 -19 -114 2 -122 8 -3 20 -1 26 5 8 8 5 9 -11 5
-19 -5 -21 -1 -21 36 0 23 7 57 14 76 8 19 13 35 10 35 -3 0 -12 -16 -20 -35z"/>
<path d="M4139 6764 c-8 -10 -14 -39 -14 -73 0 -55 0 -56 30 -58 28 -2 28 -1
5 5 -28 9 -35 35 -25 88 7 38 24 46 26 12 1 -17 3 -18 6 -6 2 10 0 25 -5 33
-8 15 -10 15 -23 -1z"/>
<path d="M4365 6759 c-10 -30 -2 -32 12 -3 6 13 7 24 3 24 -5 0 -12 -9 -15
-21z"/>
<path d="M4885 6746 c5 -50 30 -76 71 -76 18 0 35 3 38 8 2 4 -13 6 -34 4 -41
-4 -54 9 -72 73 -7 26 -7 25 -3 -9z"/>
<path d="M3851 6765 c1 -19 18 -51 18 -35 0 8 -4 22 -9 30 -5 8 -9 11 -9 5z"/>
<path d="M3895 6759 c-4 -5 -4 -13 -1 -16 3 -4 6 0 7 8 0 8 4 6 9 -6 7 -16 9
-17 9 -3 1 21 -15 32 -24 17z"/>
<path d="M4087 6753 c-8 -12 -12 -111 -5 -118 3 -3 8 22 12 56 6 61 4 80 -7
62z"/>
<path d="M4250 6744 c0 -8 -6 -25 -12 -37 -12 -21 -13 -21 -19 13 -5 30 -7 28
-7 -20 l-1 -55 24 40 c23 36 33 75 20 75 -3 0 -5 -7 -5 -16z"/>
<path d="M4318 6700 c2 -33 8 -60 14 -60 6 0 8 10 4 23 -3 12 -6 39 -6 60 0
20 -3 37 -7 37 -5 0 -6 -27 -5 -60z"/>
<path d="M4432 6748 c-7 -7 -12 -19 -11 -27 0 -11 4 -8 11 7 6 12 17 22 25 22
8 0 11 -5 7 -12 -4 -7 -3 -8 4 -4 7 4 12 11 12 17 0 13 -34 11 -48 -3z"/>
<path d="M4391 6734 c0 -11 3 -14 6 -6 3 7 2 16 -1 19 -3 4 -6 -2 -5 -13z"/>
<path d="M3723 6695 c0 -27 2 -38 4 -22 2 15 2 37 0 50 -2 12 -4 0 -4 -28z"/>
<path d="M4502 6725 c-1 -11 -10 -32 -19 -45 -14 -21 -14 -23 -1 -12 13 10 16
9 21 -8 3 -11 11 -20 19 -20 9 0 10 2 1 8 -6 4 -13 28 -16 52 -2 25 -4 36 -5
25z"/>
<path d="M3921 6683 c0 -24 3 -43 8 -43 11 0 24 31 16 38 -3 3 -6 -1 -6 -9 -1
-8 -5 2 -9 21 l-7 35 -2 -42z"/>
<path d="M3870 6667 c0 -30 4 -46 10 -42 13 8 13 55 0 75 -7 11 -10 2 -10 -33z"/>
<path d="M3613 6665 c0 -22 2 -30 4 -17 2 12 2 30 0 40 -3 9 -5 -1 -4 -23z"/>
<path d="M4416 6675 c7 -40 18 -49 41 -36 17 11 16 12 -3 6 -17 -4 -23 1 -32
27 -11 32 -11 32 -6 3z"/>
<path d="M5440 6639 c-7 -11 -10 -23 -7 -25 2 -2 9 7 15 21 14 30 7 33 -8 4z"/>
<path d="M4227 6628 c6 -11 31 -10 37 1 3 5 -5 8 -18 7 -13 0 -22 -4 -19 -8z"/>
<path d="M4090 6610 c0 -5 5 -10 11 -10 5 0 7 5 4 10 -3 6 -8 10 -11 10 -2 0
-4 -4 -4 -10z"/>
<path d="M4638 6563 c39 -2 105 -2 145 0 39 1 7 3 -73 3 -80 0 -112 -2 -72 -3z"/>
<path d="M4968 6563 c23 -2 59 -2 80 0 20 2 1 4 -43 4 -44 0 -61 -2 -37 -4z"/>
<path d="M4195 6549 c-71 -3 -195 -8 -275 -9 -80 -1 -154 -6 -165 -11 -13 -6
27 -7 115 -4 74 2 209 7 300 10 225 8 302 13 308 20 7 6 -108 4 -283 -6z"/>
<path d="M5238 6553 c23 -2 59 -2 80 0 20 2 1 4 -43 4 -44 0 -61 -2 -37 -4z"/>
<path d="M5738 6553 c12 -2 30 -2 40 0 9 3 -1 5 -23 4 -22 0 -30 -2 -17 -4z"/>
<path d="M4618 6533 c23 -2 59 -2 80 0 20 2 1 4 -43 4 -44 0 -61 -2 -37 -4z"/>
<path d="M3410 6515 c-80 -7 -215 -18 -300 -25 -85 -6 -157 -14 -160 -17 -3
-3 33 -3 79 1 101 8 610 36 664 36 20 0 37 5 37 10 0 13 -134 11 -320 -5z"/>
<path d="M4888 6523 c7 -3 16 -2 19 1 4 3 -2 6 -13 5 -11 0 -14 -3 -6 -6z"/>
<path d="M5027 6513 c18 -2 50 -2 70 0 21 2 7 4 -32 4 -38 0 -55 -2 -38 -4z"/>
<path d="M3579 6097 c-15 -12 -46 -44 -70 -72 -37 -43 -33 -40 28 18 76 71
107 83 123 45 5 -14 9 -17 9 -7 2 41 -50 51 -90 16z"/>
<path d="M173 6062 c-6 -4 -14 -21 -18 -37 l-7 -30 14 25 c12 22 19 25 63 21
28 -1 65 -9 84 -17 47 -20 52 -17 11 6 -19 11 -50 19 -68 20 -18 0 -41 4 -51
9 -9 5 -22 6 -28 3z"/>
<path d="M3045 6061 l30 -7 -32 -11 c-18 -7 -59 -27 -90 -46 -32 -18 -67 -36
-78 -40 -31 -11 43 50 95 79 25 14 34 22 20 18 -14 -4 -42 -19 -64 -33 -21
-14 -50 -34 -64 -43 -14 -9 -28 -20 -31 -25 -12 -17 -92 -66 -97 -60 -4 3 -19
0 -35 -8 -18 -10 -30 -11 -34 -5 -3 6 -1 10 4 10 6 0 11 5 11 12 0 9 -3 9 -12
0 -7 -7 -13 -18 -13 -25 0 -7 -35 -18 -90 -27 -49 -8 -91 -17 -93 -20 -1 -3
-31 -5 -67 -5 -70 1 -86 -9 -32 -19 47 -9 136 2 160 19 12 8 31 15 43 15 20 0
21 -3 13 -37 -12 -53 -11 -196 2 -290 13 -94 60 -243 93 -298 l24 -40 -32 -40
c-47 -57 -68 -102 -64 -138 3 -30 1 -32 -37 -39 -22 -4 -58 -7 -80 -8 -89 -1
-206 -89 -221 -165 -7 -37 -57 -85 -69 -65 -3 5 -4 14 -1 18 3 4 8 69 11 144
6 133 6 137 -17 158 -20 19 -30 21 -88 15 -36 -3 -81 -9 -100 -12 -20 -3 -32
-2 -27 3 4 5 92 68 195 139 103 72 188 138 190 147 2 12 -7 7 -30 -15 -32 -31
-336 -240 -388 -267 -17 -9 -67 -13 -160 -13 -171 1 -191 -6 -215 -76 -14 -42
-15 -62 -7 -109 6 -31 9 -58 8 -58 -37 -32 -804 -554 -894 -609 -45 -27 -78
-51 -73 -53 12 -4 240 143 501 323 118 81 265 182 325 223 61 41 117 81 126
89 15 12 17 10 23 -18 3 -17 6 -71 6 -119 l0 -87 -37 -15 -38 -14 34 -2 c18 0
35 -2 37 -4 2 -2 5 -35 6 -73 l3 -69 -60 -33 c-117 -67 -385 -203 -399 -203
-7 0 -27 -7 -42 -15 -58 -30 -57 -13 1 21 60 35 114 61 347 169 70 33 126 61
124 63 -4 3 -285 -122 -379 -170 -74 -37 -67 -26 33 53 44 35 78 65 75 67 -2
2 -49 -34 -105 -80 -114 -93 -162 -127 -171 -122 -8 4 -37 -18 -196 -147 -176
-142 -176 -143 -225 -141 -70 3 -78 9 -71 45 6 30 5 31 -13 17 -18 -15 -18
-14 -2 10 9 14 23 24 32 22 10 -2 16 4 16 17 0 11 3 27 7 37 4 11 3 15 -5 10
-7 -4 -14 7 -18 31 -6 31 -8 34 -15 18 -4 -11 -5 -34 -2 -52 4 -27 -4 -43 -59
-114 -34 -46 -66 -87 -70 -93 -4 -6 -13 -4 -24 5 -16 13 -16 12 -6 -7 9 -17 4
-29 -33 -78 -45 -61 -82 -93 -93 -81 -4 3 -15 27 -25 53 l-17 47 6 -40 c3 -22
10 -44 15 -49 18 -19 8 -27 -27 -24 -54 4 -61 34 -22 87 16 23 33 39 38 36 4
-3 11 6 14 20 4 14 16 27 29 30 12 3 33 22 46 42 18 28 25 33 33 22 8 -11 8
-10 4 5 -4 10 -1 26 6 34 10 12 10 14 1 8 -19 -11 -16 0 13 44 29 44 57 51 76
20 7 -11 16 -20 21 -20 4 0 -4 16 -18 35 -24 30 -27 64 -5 50 11 -7 33 22 26
34 -4 5 -1 13 5 17 8 5 10 2 5 -7 -10 -19 26 25 70 84 39 53 16 51 -29 -3 -14
-16 -30 -30 -34 -30 -5 0 -24 -21 -41 -46 -18 -25 -38 -44 -45 -41 -19 6 -98
130 -92 145 3 8 -9 30 -26 49 -17 20 -28 42 -25 50 3 8 6 19 6 23 0 5 20 23
45 40 l45 31 50 -52 c47 -50 50 -56 50 -106 0 -29 3 -53 6 -53 7 0 66 32 74
40 3 3 25 15 50 26 69 33 408 279 473 344 32 32 77 71 100 87 51 34 113 94
109 106 -1 4 9 19 22 33 13 15 22 34 19 43 -2 10 3 53 12 96 12 58 27 95 59
145 52 79 64 89 70 58 20 -93 26 -139 20 -149 -11 -19 12 -6 53 28 38 32 163
129 248 192 25 19 43 36 40 39 -3 3 -16 -5 -30 -18 -14 -13 -25 -19 -25 -14 1
13 86 74 104 74 8 0 19 6 23 13 4 7 31 28 58 47 28 18 74 54 104 79 30 25 66
55 80 66 14 11 27 25 27 30 7 43 57 212 73 243 l20 38 -74 13 c-40 7 -78 12
-85 9 -7 -2 23 -10 66 -17 45 -8 72 -16 65 -21 -7 -4 -25 -4 -40 1 -14 5 -61
14 -103 21 -43 6 -78 16 -78 22 0 5 -8 2 -17 -6 -10 -9 -34 -19 -53 -23 -19
-4 -51 -16 -72 -26 -20 -10 -85 -38 -145 -63 -92 -37 -193 -87 -253 -126 -8
-5 -46 -28 -85 -51 -38 -23 -133 -82 -210 -130 -77 -48 -240 -137 -361 -198
-122 -62 -230 -119 -240 -127 -17 -13 227 103 299 142 15 8 27 13 27 10 0 -6
-107 -76 -118 -76 -4 0 -25 -14 -46 -30 -22 -17 -45 -30 -52 -30 -8 0 -28 -15
-47 -32 -18 -18 -39 -34 -45 -36 -7 -1 -33 -15 -60 -32 -34 -21 -41 -29 -24
-27 12 0 22 5 22 9 0 4 6 8 13 8 8 0 22 9 32 20 10 11 21 18 24 16 4 -3 18 4
31 15 54 42 161 112 165 107 10 -9 -479 -349 -567 -394 -53 -27 -62 -29 -52
-12 9 14 0 9 -84 -50 -34 -24 -62 -50 -62 -58 0 -13 5 -12 27 4 36 25 200 122
207 122 3 0 2 -8 -1 -17 -6 -16 -5 -17 13 -3 18 14 18 14 5 -3 -8 -9 -16 -15
-19 -13 -2 3 -12 -5 -21 -17 -19 -25 -101 -156 -101 -161 0 -2 -25 -46 -55
-97 -55 -94 -65 -116 -43 -103 8 5 9 2 3 -12 -13 -28 -18 -134 -7 -134 5 0 17
9 27 20 10 11 22 20 26 20 15 0 -16 -63 -38 -77 -22 -15 -32 -43 -15 -43 5 0
28 17 52 37 l43 37 31 -39 c50 -63 102 -112 135 -126 17 -8 31 -22 31 -31 0
-9 5 -20 10 -23 22 -13 7 -50 -54 -138 -36 -51 -76 -105 -91 -122 -31 -37
-127 -186 -122 -191 2 -2 22 23 46 57 41 59 43 59 59 39 17 -20 45 -25 113
-22 31 2 42 10 90 70 41 51 55 63 57 49 4 -19 21 -20 67 -2 14 5 17 5 10 -2
-25 -26 -319 -268 -424 -350 -23 -18 -30 -28 -21 -31 7 -3 24 8 37 24 15 19
23 24 23 13 0 -19 -44 -62 -53 -52 -4 3 -7 0 -7 -7 0 -8 -10 -24 -22 -37 -12
-13 -16 -23 -10 -23 8 0 9 -7 2 -26 -6 -14 -10 -40 -9 -57 0 -30 2 -29 25 23
14 30 26 63 27 73 1 18 102 114 220 210 36 29 122 100 191 158 120 101 128
106 174 107 75 2 405 92 502 137 43 20 30 17 -140 -35 -214 -65 -228 -69 -295
-81 -96 -16 -104 -10 -43 36 29 23 71 48 93 57 22 8 65 25 95 37 30 12 91 36
135 53 103 39 293 128 524 245 109 56 181 87 177 78 -11 -29 -34 -130 -41
-177 -3 -26 -11 -51 -17 -54 -7 -5 -8 -2 -3 6 4 7 -21 -10 -56 -37 -35 -27
-113 -80 -174 -118 -60 -38 -153 -97 -205 -130 -237 -154 -391 -246 -400 -240
-5 3 -10 0 -10 -7 0 -7 -19 -29 -42 -50 -51 -45 -46 -50 7 -8 21 17 41 30 44
30 3 0 15 -18 27 -39 l21 -39 -111 -88 c-60 -49 -160 -131 -221 -183 -60 -52
-162 -133 -225 -180 -111 -81 -280 -235 -280 -254 0 -5 39 30 88 77 48 46 142
126 209 176 67 49 148 114 180 143 32 29 74 65 93 81 19 15 51 41 70 56 153
126 201 160 225 160 47 0 110 44 301 214 49 43 125 106 169 139 44 34 130 105
192 159 61 54 114 98 117 98 3 0 6 -9 6 -19 0 -11 -15 -30 -32 -43 -18 -12
-40 -30 -48 -39 -20 -22 -208 -182 -345 -294 -60 -49 -177 -146 -260 -215
-166 -139 -286 -234 -572 -453 -105 -81 -194 -151 -198 -156 -3 -5 -48 -44
-101 -86 -52 -43 -93 -79 -90 -82 5 -6 44 24 164 127 97 82 160 133 237 190
79 58 484 377 495 389 13 15 213 183 280 236 83 66 143 116 298 250 114 97
117 98 159 36 13 -19 27 -64 34 -109 10 -63 17 -81 42 -103 28 -26 29 -30 25
-101 -9 -170 -155 -350 -399 -491 -58 -33 -154 -129 -179 -178 -11 -20 -39
-51 -62 -70 -24 -18 -65 -54 -93 -79 -48 -46 -74 -65 -254 -188 -112 -76 -170
-128 -178 -160 -3 -15 -36 -59 -73 -99 -89 -95 -101 -135 -70 -224 12 -35 24
-85 27 -111 3 -26 9 -48 12 -47 3 0 57 57 119 125 107 117 209 209 346 314 65
50 129 112 163 157 12 17 46 42 75 57 29 15 78 49 108 77 30 28 87 78 125 111
39 34 129 119 200 189 72 71 147 141 167 156 21 15 56 55 79 88 52 76 86 113
122 131 15 8 51 33 80 55 29 21 68 44 87 49 40 11 84 46 75 61 -9 14 -25 11
-25 -6 0 -9 -24 -26 -57 -41 -32 -14 -74 -38 -93 -53 -19 -15 -48 -35 -65 -44
-37 -19 -90 -74 -144 -151 -23 -33 -53 -67 -66 -76 -14 -9 -110 -98 -213 -197
-227 -219 -328 -307 -397 -340 -36 -18 -61 -39 -79 -67 -14 -23 -57 -66 -96
-96 -170 -134 -263 -216 -379 -336 l-125 -128 -13 68 c-10 50 -11 71 -3 76 6
4 102 97 213 206 111 110 299 289 417 399 118 109 269 249 335 311 245 228
749 657 759 646 3 -3 6 -30 6 -60 0 -31 3 -52 7 -49 3 4 5 35 4 70 l-2 63 123
100 c68 55 129 104 136 108 8 5 34 2 59 -5 43 -12 47 -11 64 9 9 12 34 26 56
30 l38 8 3 69 3 70 132 105 c291 233 289 231 370 241 39 4 91 8 115 9 l43 0
-3 -195 -3 -196 -35 3 -35 3 1 190 c0 199 -9 188 -21 -25 -9 -154 -1 -180 50
-180 26 0 42 -7 58 -26 21 -24 26 -25 67 -17 39 7 48 14 64 47 11 22 21 62 22
90 l3 51 -8 -50 c-5 -27 -17 -67 -27 -87 -16 -35 -21 -38 -60 -38 -42 0 -78
23 -52 33 10 4 10 7 1 14 -14 10 -19 87 -15 261 l2 122 34 0 c18 0 56 10 85
21 46 19 51 25 52 53 0 26 2 27 8 11 9 -24 41 -27 125 -13 139 23 200 104 252
336 44 202 54 215 241 340 104 70 149 79 197 41 32 -25 35 -59 6 -59 -11 0
-24 -8 -27 -17 -4 -10 -17 -26 -28 -35 -20 -15 -23 -31 -30 -175 -5 -87 -9
-189 -10 -228 l0 -70 65 -3 c35 -2 61 0 57 4 -4 4 -29 7 -56 5 -68 -3 -65 -25
-41 299 6 80 17 151 23 159 10 11 34 12 137 6 69 -4 171 -9 227 -11 56 -1 106
-5 112 -9 15 -8 13 -54 -4 -150 -8 -44 -20 -114 -25 -155 -6 -41 -13 -90 -16
-108 l-5 -34 -158 7 c-88 4 -161 4 -164 -1 -2 -5 70 -10 161 -12 108 -2 167 0
172 7 12 20 97 25 124 7 25 -15 49 -76 41 -99 -8 -22 -29 -301 -29 -386 0 -80
2 -85 29 -109 32 -27 50 -27 300 -1 61 6 195 7 345 3 135 -4 247 -6 250 -6 12
3 10 52 -2 53 -62 4 -509 -5 -572 -12 -199 -22 -254 -23 -282 -4 l-27 17 5
132 c3 85 2 113 -3 81 -5 -27 -10 -87 -11 -132 -3 -92 5 -108 65 -130 l32 -11
-32 -1 c-20 -1 -42 8 -58 22 -23 20 -26 29 -26 92 -1 39 5 133 12 210 20 221
19 238 -15 274 -22 23 -39 31 -63 31 -21 0 -32 4 -28 10 11 18 76 4 102 -23
32 -31 43 -93 38 -202 l-4 -80 9 65 c5 36 7 94 3 130 -5 56 -10 69 -38 97 -30
30 -38 33 -94 33 l-62 0 6 53 c4 28 13 86 22 127 9 41 16 109 17 150 l1 75
-137 3 c-125 2 -139 4 -148 22 -6 11 -20 20 -30 20 -16 0 -20 7 -20 38 0 43
-38 107 -70 117 -39 12 -43 10 285 196 213 122 230 132 200 122 -25 -9 -289
-157 -420 -236 -94 -57 -104 -61 -155 -59 -57 3 -150 -22 -224 -60 -80 -41
-214 -192 -232 -262 -4 -16 -25 -39 -53 -58 -25 -18 -92 -67 -148 -110 l-103
-77 0 75 c0 44 -4 73 -9 69 -5 -3 -10 -38 -9 -78 0 -148 -11 -316 -21 -335 -6
-11 -25 -25 -43 -31 -38 -14 -304 -35 -319 -25 -5 3 -15 1 -22 -4 -21 -17 -68
-22 -262 -33 -348 -18 -528 -20 -554 -7 -13 7 -30 30 -37 50 -12 35 -11 39 9
53 12 8 22 21 22 27 0 6 6 13 14 16 9 3 11 0 6 -9 -5 -8 -4 -11 1 -6 5 5 9 14
9 20 0 12 283 206 302 206 7 1 41 21 76 46 36 25 67 45 70 45 9 0 137 81 137
87 0 2 -4 1 -10 -2 -5 -3 -15 -3 -20 0 -17 11 7 33 35 33 22 0 24 -3 13 -16
-12 -14 -10 -14 12 -1 19 11 54 14 147 11 l122 -3 10 -50 c6 -28 23 -71 37
-95 15 -25 25 -47 22 -49 -2 -2 -43 14 -91 35 -100 45 -140 57 -230 70 -34 5
-71 10 -82 12 -13 2 -20 -3 -20 -12 0 -11 9 -14 35 -12 55 5 169 -16 240 -45
108 -43 142 -63 195 -119 47 -50 54 -54 86 -48 18 4 43 12 54 19 23 14 48 72
34 81 -5 3 -9 17 -9 32 0 15 -16 60 -35 101 -19 40 -35 75 -35 78 0 10 105 -8
112 -20 4 -6 10 -8 14 -4 4 3 1 13 -6 22 -9 10 -31 15 -75 15 -51 0 -65 4 -81
21 -21 24 -95 59 -124 59 -10 0 -21 8 -24 18 -8 23 -66 80 -66 64 0 -7 -4 -11
-9 -9 -5 1 -10 -2 -11 -8 -1 -5 -16 -17 -33 -26 -18 -9 -47 -24 -65 -34 -53
-27 -49 -9 4 24 27 16 58 37 69 46 23 19 -67 -30 -108 -58 -24 -16 -32 -17
-58 -7 -16 7 -44 31 -61 53 -27 34 -30 41 -17 51 8 6 28 29 44 51 16 22 51 65
77 96 l48 56 50 -49 c29 -30 56 -48 66 -46 23 4 90 91 75 96 -17 6 -13 26 9
55 12 15 20 40 20 62 0 28 8 44 35 72 l35 36 1 -79 c0 -43 3 -72 7 -64 3 10
10 -1 19 -30 l13 -45 -5 42 c-5 38 -2 44 33 72 l37 31 -37 -21 c-28 -16 -38
-18 -39 -7 0 7 -4 4 -8 -7 -6 -13 -8 7 -7 52 1 79 6 84 17 20 7 -36 8 -34 4
14 -5 54 6 100 36 153 9 15 5 24 -18 48 l-28 30 70 66 c39 36 56 56 39 44 -18
-12 -51 -42 -75 -66 -38 -37 -47 -42 -68 -35 -27 10 -32 0 62 114 56 67 83
105 73 105 -2 0 -41 -45 -86 -101 -74 -91 -85 -100 -112 -97 -28 3 -32 8 -55
83 -14 44 -30 86 -35 93 -6 7 -9 15 -6 18 10 9 57 -15 70 -36 7 -11 19 -20 28
-20 10 0 7 5 -8 16 -12 8 -20 19 -17 24 8 13 -64 76 -82 72 -8 -2 -12 1 -9 7
10 16 -49 41 -96 40 -39 -1 -40 -2 -13 -8z m79 -23 c-5 -8 -2 -9 10 -5 9 4 15
3 12 -2 -7 -11 20 -34 32 -27 5 3 22 -8 38 -25 l28 -30 -33 17 c-72 36 -147
-7 -177 -102 -9 -30 -21 -54 -27 -54 -5 0 -7 -9 -4 -20 3 -11 2 -18 -3 -15
-22 14 -26 -181 -5 -275 8 -36 14 -70 15 -77 0 -7 -29 -41 -65 -77 -36 -36
-58 -63 -48 -59 16 6 17 5 3 -13 -8 -10 0 -6 18 10 17 16 29 32 27 35 -3 2 12
22 32 43 l38 39 16 -38 16 -38 -46 -56 c-25 -31 -66 -82 -90 -113 -24 -31 -47
-56 -50 -56 -4 0 -15 14 -25 31 -17 29 -17 31 1 52 l18 22 -22 -18 c-21 -18
-22 -18 -38 7 -9 14 -14 30 -10 36 3 5 2 10 -4 10 -20 0 -73 112 -97 207 -19
75 -25 124 -25 213 0 64 2 122 5 130 2 8 7 27 10 41 4 18 16 31 38 39 49 19
217 102 270 134 26 15 69 31 95 36 27 4 49 8 51 9 2 0 0 -4 -4 -11z m-494
-203 c-10 -12 -10 -15 3 -15 8 0 18 6 21 13 4 6 4 -3 1 -22 -3 -18 -6 -43 -6
-55 -1 -16 -3 -14 -10 9 -5 19 -7 -13 -4 -85 3 -112 17 -177 82 -405 19 -67
20 -77 6 -82 -15 -5 -66 94 -88 173 -56 197 -58 484 -3 484 7 0 6 -5 -2 -15z
m-734 -127 c-24 -46 -46 -96 -50 -111 -10 -42 -43 -88 -93 -127 -24 -19 -102
-94 -174 -166 -71 -72 -131 -128 -133 -125 -3 3 36 51 85 105 49 54 86 102 83
108 -3 5 0 17 8 27 7 9 1 4 -14 -13 -15 -16 -25 -33 -22 -38 3 -5 1 -7 -4 -6
-5 2 -39 -34 -76 -79 -37 -46 -69 -83 -73 -83 -7 0 -10 -5 111 148 54 67 101
120 106 117 4 -3 13 2 20 10 7 8 9 15 5 15 -4 0 6 12 21 28 50 47 124 134 176
205 28 37 54 67 59 67 5 0 -11 -37 -35 -82z m1340 19 c4 -12 13 -62 20 -112 6
-49 12 -74 13 -55 1 34 -15 148 -25 183 -4 13 0 17 20 17 14 0 28 -4 31 -10 3
-5 14 -10 24 -10 10 0 30 -9 45 -21 29 -23 34 -68 12 -108 l-13 -24 -11 33
c-7 18 -9 36 -6 41 3 5 0 9 -7 9 -6 0 -9 8 -6 20 3 11 1 18 -4 14 -5 -3 -9 3
-9 12 0 10 -3 15 -6 12 -3 -4 2 -45 12 -92 l18 -86 -29 -30 c-42 -41 -155
-103 -160 -87 -23 66 -34 262 -16 296 10 19 52 31 78 23 7 -2 15 -14 19 -25z
m-1406 -7 c-17 -17 -36 -28 -41 -24 -6 3 -20 -2 -31 -13 l-22 -18 17 25 c17
25 71 59 95 60 7 0 -1 -14 -18 -30z m-150 -45 c0 -2 -14 -12 -31 -20 -17 -9
-29 -19 -26 -22 3 -2 -55 -80 -129 -171 -124 -155 -151 -194 -122 -176 7 4 8
3 4 -5 -4 -6 -11 -9 -15 -6 -5 2 -21 -13 -36 -35 -15 -22 -30 -40 -32 -40 -8
0 22 48 92 144 44 59 71 106 67 114 -3 9 -1 13 5 9 6 -4 29 20 52 53 23 32 53
68 67 79 14 11 25 22 25 25 -2 20 2 25 32 40 33 16 47 19 47 11z m40 2 c0 -2
-10 -12 -21 -23 -22 -19 -22 -19 -10 4 10 18 31 31 31 19z m-166 -59 c-5 -7
-28 -39 -52 -70 -24 -32 -40 -62 -37 -68 4 -6 2 -9 -3 -8 -11 4 -43 -35 -112
-135 -42 -60 -56 -74 -63 -62 -5 10 -1 25 13 46 12 16 23 37 25 47 2 9 4 19 4
21 1 2 7 -2 15 -8 11 -9 16 -9 22 0 4 8 3 9 -4 5 -7 -4 -12 -2 -12 3 0 18 5
26 14 23 5 -2 6 4 3 12 -7 18 18 42 28 26 10 -16 23 -3 61 56 19 30 48 70 65
89 31 35 47 46 33 23z m94 -46 c-116 -142 -234 -292 -283 -360 -32 -45 -60
-80 -63 -78 -11 12 220 315 327 429 41 44 52 49 19 9z m359 -28 c-6 -6 -147
38 -147 46 0 3 34 -5 76 -18 41 -13 73 -26 71 -28z m-532 26 c-9 -10 -22 -18
-28 -17 -9 2 -29 -21 -95 -108 -12 -17 -19 -22 -16 -12 10 28 -3 19 -28 -20
-50 -79 -152 -229 -215 -318 -24 -33 -41 -66 -38 -73 2 -7 0 -10 -5 -7 -5 3
-35 -33 -66 -80 -58 -91 -87 -111 -39 -28 43 74 285 431 335 495 25 31 50 55
57 53 7 -2 10 2 6 11 -3 8 1 14 11 14 8 0 22 13 31 29 8 17 34 41 57 55 52 31
56 32 33 6z m437 -210 c-2 -3 -6 0 -8 5 -2 6 -19 42 -38 80 -19 39 -32 74 -29
79 3 4 22 -30 43 -75 20 -46 35 -86 32 -89z m-491 137 c-6 -8 -9 -16 -6 -19 3
-2 -2 -5 -10 -5 -13 0 -13 3 2 19 19 21 31 25 14 5z m1686 -108 c-46 -53 -44
-70 13 -123 27 -25 44 -46 38 -46 -20 0 -101 89 -94 105 3 8 1 15 -3 15 -9 0
-18 17 -31 62 -7 22 -5 26 8 21 8 -4 13 -2 10 3 -3 5 8 23 25 39 17 17 24 21
16 10 -13 -18 -13 -19 4 -6 9 7 17 21 18 30 0 9 7 -4 14 -28 14 -44 13 -45
-18 -82z m-1784 87 c-10 -13 -20 -20 -22 -14 -1 5 5 16 15 23 26 20 28 18 7
-9z m347 10 c0 -3 -4 -8 -10 -11 -5 -3 -10 -1 -10 4 0 6 5 11 10 11 6 0 10 -2
10 -4z m-384 -40 c-2 -13 -175 -266 -182 -266 -2 0 -1 7 2 15 4 8 4 15 1 15
-8 0 -115 -170 -182 -288 -52 -92 -87 -133 -102 -119 -2 3 3 18 12 34 12 20
12 22 1 8 -43 -57 -46 -59 -27 -20 23 47 56 91 47 63 -3 -10 -4 -18 -1 -18 2
0 59 82 126 183 181 270 244 356 209 285 -10 -21 -9 -21 9 2 23 28 27 45 9 34
-7 -4 -10 -4 -6 0 3 4 9 7 13 6 3 0 20 17 36 39 31 44 38 49 35 27z m-82 -44
c-6 -4 -13 -11 -15 -17 -6 -14 -309 -468 -321 -480 -7 -7 -8 -2 -3 13 12 41
-3 22 -56 -68 -28 -50 -54 -88 -57 -86 -7 7 63 128 141 246 39 57 70 110 70
118 0 7 4 9 9 4 6 -6 -14 -45 -47 -96 -32 -48 -55 -89 -53 -91 2 -3 35 44 72
103 37 59 62 102 55 95 -10 -10 -15 -9 -24 4 -13 17 -24 1 -179 -257 -87 -146
-102 -167 -110 -159 -4 3 13 36 36 73 178 277 280 427 293 432 9 4 27 25 40
49 25 41 65 85 65 70 0 -12 -70 -104 -92 -119 -11 -8 -21 -22 -23 -32 -1 -11
-7 -18 -13 -17 -6 2 -10 -6 -9 -17 1 -17 3 -18 17 -5 9 8 20 12 25 8 4 -5 5
-3 1 4 -8 14 22 65 34 58 4 -2 29 28 56 67 61 91 76 108 89 108 6 0 6 -3 -1
-8z m686 -37 c0 -5 -5 -3 -10 5 -5 8 -10 20 -10 25 0 6 5 3 10 -5 5 -8 10 -19
10 -25z m-184 -56 c16 -61 18 -109 5 -109 -5 0 -11 24 -15 53 -4 28 -9 68 -13
87 -8 51 6 31 23 -31z m1234 7 c0 -2 -8 -10 -17 -17 -16 -13 -17 -12 -4 4 13
16 21 21 21 13z m-1910 -32 c0 -3 -13 -18 -28 -32 -31 -30 -182 -255 -286
-428 -62 -105 -106 -161 -106 -136 0 26 205 357 297 479 60 81 123 140 123
117z m1725 -36 c8 -18 23 -46 34 -62 19 -28 20 -46 2 -46 -5 0 -14 15 -21 33
-6 17 -18 44 -26 59 -14 27 -18 48 -8 48 3 0 11 -15 19 -32z m1565 15 c0 -9
-62 -48 -148 -93 -35 -18 -82 -50 -105 -70 -67 -59 -202 -151 -205 -140 -6 17
66 115 126 172 32 31 82 68 111 83 67 34 221 67 221 48z m-3059 -22 c-6 -10
-8 -21 -4 -24 8 -9 -57 -108 -67 -102 -12 8 -112 -153 -104 -168 4 -6 4 -9 -1
-5 -4 4 -16 -3 -26 -15 -32 -39 -20 -4 19 54 20 31 62 95 92 143 59 94 89 136
96 136 3 0 0 -8 -5 -19z m3120 4 c38 -20 69 -71 69 -114 0 -30 -2 -33 -22 -27
-13 3 -28 6 -33 6 -6 0 -11 10 -12 22 -3 32 -36 60 -80 67 l-38 7 40 26 c48
32 40 31 76 13z m-3446 -25 c-9 -10 -22 -18 -28 -17 -5 1 -69 -87 -141 -195
-127 -190 -162 -239 -137 -190 18 35 5 26 -19 -14 -12 -19 -20 -38 -16 -41 3
-3 1 -14 -5 -25 -22 -41 0 -27 25 17 42 70 41 53 0 -22 -38 -69 -63 -104 -50
-70 3 9 8 25 11 35 5 15 5 15 -7 -1 -22 -32 -40 -53 -33 -39 12 23 -6 34 -26
16 -10 -9 -19 -13 -19 -9 0 5 -7 0 -15 -11 -9 -11 -7 0 5 24 12 24 24 41 27
38 3 -3 0 -12 -7 -21 -7 -9 -10 -18 -7 -21 3 -3 13 9 23 28 9 18 24 44 32 58
13 24 13 24 -3 5 -9 -11 -20 -19 -25 -18 -12 3 -72 -97 -67 -111 3 -6 -8 -25
-24 -40 -37 -37 -36 -31 5 46 99 187 163 288 179 285 6 -1 13 7 15 18 2 11 15
33 29 49 13 16 21 31 19 34 -7 6 -34 -26 -93 -110 -25 -38 -48 -66 -50 -64 -2
2 13 32 34 67 21 35 38 68 38 74 0 5 42 38 92 74 54 37 88 68 82 72 -8 5 -8 8
0 13 6 4 11 2 11 -4 0 -6 5 -8 13 -4 14 9 3 -6 -59 -81 -40 -49 -149 -208
-173 -252 -19 -37 -5 -26 20 15 51 83 173 249 206 280 29 27 33 35 23 47 -7 8
-11 15 -9 16 2 0 11 2 20 4 9 1 37 19 64 39 49 38 72 41 40 6z m470 -37 c-29
-49 -98 -139 -91 -119 6 19 97 146 103 146 2 0 -3 -12 -12 -27z m-145 -37
c-30 -49 -36 -46 -8 3 12 22 24 38 26 36 3 -2 -6 -20 -18 -39z m1520 -27 c52
-106 114 -171 167 -173 7 -1 12 -5 12 -11 -1 -5 -6 -8 -12 -6 -7 2 -28 3 -47
3 -56 -2 -109 53 -87 93 7 14 -1 10 -27 -13 -42 -37 -50 -35 -108 25 l-37 38
47 57 c26 32 49 58 52 58 3 0 21 -32 40 -71z m55 -5 c16 -25 15 -54 -3 -54
-10 0 -32 44 -32 65 0 23 16 18 35 -11z m-1570 -51 c-35 -54 -44 -63 -61 -63
-13 0 -12 4 3 25 10 13 22 25 26 25 5 0 6 4 2 9 -5 9 31 41 47 41 4 0 -4 -17
-17 -37z m3200 17 c29 -7 28 -8 -10 -8 -22 -1 -58 3 -80 7 l-40 9 50 0 c28 0
64 -4 80 -8z m-1468 -111 l28 0 -24 -10 c-33 -13 -88 6 -128 44 -35 32 -40 46
-23 63 7 7 28 -7 65 -43 38 -37 63 -53 82 -54z m-811 67 c17 -13 19 -25 16
-118 -2 -82 -6 -106 -19 -115 -15 -12 -15 -13 -1 -13 13 0 15 -8 11 -42 -7
-52 -9 -55 -106 -108 l-78 -42 -1 73 c-1 150 -7 313 -12 335 -7 26 9 31 109
37 28 2 53 4 56 5 3 1 14 -4 25 -12z m528 -55 c3 -4 -9 -6 -27 -3 -25 3 -29 1
-17 -7 13 -9 13 -11 -2 -11 -34 0 -64 60 -42 83 6 6 77 -44 88 -62z m500 -24
l-7 -47 -101 0 c-111 0 -150 11 -103 29 16 6 36 11 45 11 14 0 14 2 3 9 -11 7
-7 13 20 24 19 8 50 26 69 40 l35 25 23 -22 c19 -19 21 -28 16 -69z m-2063 45
c-11 -21 -28 -45 -38 -53 -17 -13 -17 -13 0 14 10 15 15 33 11 39 -4 7 -3 8 4
4 6 -3 16 3 22 14 20 37 21 21 1 -18z m532 22 c7 -8 190 -5 215 2 11 4 9 -1
-7 -15 -13 -12 -35 -21 -50 -21 -29 0 -59 -22 -84 -62 -21 -33 -156 -123 -168
-111 -13 13 -13 124 0 156 13 32 77 67 94 51z m301 -26 c3 -18 7 -117 10 -220
5 -177 4 -188 -14 -198 -26 -14 -35 -12 -21 4 12 14 17 283 6 294 -3 3 -5 -61
-5 -142 0 -121 -3 -148 -15 -152 -8 -4 -13 -9 -10 -13 2 -5 -19 -4 -48 0 -29
4 -78 10 -110 14 -31 4 -55 11 -52 16 3 5 -1 6 -10 3 -20 -8 -106 16 -110 30
-2 6 -6 43 -9 82 l-6 72 63 41 c35 22 66 41 70 41 4 0 7 -10 7 -23 0 -12 7
-32 15 -44 13 -18 13 -24 -1 -52 -8 -17 -20 -31 -26 -31 -6 0 -5 7 3 18 7 9 2
7 -11 -5 -27 -26 -22 -40 9 -23 20 10 21 8 23 -32 2 -69 2 -71 17 -76 11 -4
12 1 7 19 -4 13 -10 41 -13 62 -7 44 4 47 54 16 19 -12 36 -19 39 -17 3 4 -64
43 -94 54 -1 1 0 9 4 18 3 9 17 16 31 16 35 0 61 16 79 51 13 26 13 36 3 60
-6 17 -20 34 -30 40 -23 12 -24 25 -2 33 11 4 25 -4 44 -26 16 -18 28 -28 29
-22 0 6 -9 19 -20 29 -11 10 -20 24 -20 31 0 16 63 55 73 45 4 -4 10 -31 14
-59 3 -29 10 -52 15 -52 5 0 7 8 4 18 -13 45 -18 112 -8 112 6 0 13 -15 16
-32z m1963 -25 c-19 -37 -44 -124 -61 -214 -8 -41 -25 -99 -39 -130 -24 -56
-90 -139 -109 -139 -6 0 -24 -6 -41 -14 -40 -18 -100 -26 -116 -17 -15 10 -3
91 13 91 7 0 35 7 63 15 43 13 56 23 83 62 17 26 42 86 56 133 46 155 50 164
107 203 28 20 53 37 55 37 1 0 -4 -12 -11 -27z m-3357 14 c0 -2 -34 -48 -75
-102 -72 -96 -95 -136 -57 -102 10 10 21 14 25 11 3 -3 10 5 17 18 11 22 10
22 -4 4 -21 -26 -20 -12 0 19 15 23 34 26 34 6 0 -16 -80 -132 -88 -127 -4 3
-33 -36 -63 -87 -30 -50 -61 -93 -69 -95 -7 -3 -3 10 11 29 34 48 47 69 64
108 17 38 13 55 -5 22 -6 -12 -14 -19 -19 -17 -4 3 -32 -36 -61 -86 -30 -49
-56 -85 -58 -79 -2 6 21 48 51 93 29 46 66 104 81 131 29 49 39 59 30 30 -5
-15 -3 -15 10 1 19 23 21 40 4 30 -7 -4 -8 -3 -4 5 4 6 11 9 15 7 9 -6 75 103
67 111 -3 4 15 21 42 39 49 34 52 36 52 31z m620 -12 c0 -2 -10 -9 -22 -15
-22 -11 -22 -10 -4 4 21 17 26 19 26 11z m620 -10 c-7 -8 -19 -15 -27 -15 -13
0 -13 3 -3 15 7 8 19 15 27 15 13 0 13 -3 3 -15z m985 -5 c18 -20 17 -20 -11
-19 -16 0 -38 4 -49 8 -19 8 -19 8 0 19 28 16 39 15 60 -8z m475 10 c12 -7 11
-13 -10 -34 -30 -33 -36 -32 -44 1 -10 36 20 55 54 33z m-2030 -10 c0 -5 -2
-10 -4 -10 -3 0 -8 5 -11 10 -3 6 -1 10 4 10 6 0 11 -4 11 -10z m1353 -17 c10
-9 -44 -43 -56 -36 -6 4 -7 1 -2 -7 6 -10 4 -12 -9 -7 -11 5 -15 3 -10 -5 5
-8 2 -9 -10 -5 -11 5 -15 3 -10 -5 5 -8 2 -9 -10 -5 -11 5 -15 3 -10 -5 5 -8
2 -9 -9 -5 -9 3 -19 1 -23 -5 -5 -7 -2 -8 6 -3 8 5 11 4 6 -3 -4 -6 -12 -9
-19 -7 -7 3 -49 -17 -94 -44 -64 -38 -83 -45 -83 -33 0 21 36 82 49 82 5 0 11
9 14 20 6 24 99 70 142 70 24 0 27 -2 15 -11 -12 -9 -11 -9 5 -4 57 21 99 28
108 18z m739 -10 c24 -21 23 -36 -1 -23 -11 5 -29 10 -40 10 -14 0 -19 5 -15
15 8 20 33 19 56 -2z m-2065 -15 c-3 -8 -6 -5 -6 6 -1 11 2 17 5 13 3 -3 4
-12 1 -19z m1509 10 c35 -6 64 -14 64 -18 0 -3 -14 -14 -31 -24 -23 -14 -28
-21 -18 -27 8 -5 20 -2 32 8 13 13 20 14 29 5 7 -7 9 -13 5 -13 -18 -3 -24 -6
-46 -18 -14 -8 -21 -9 -17 -2 14 22 -7 10 -57 -33 -56 -47 -217 -149 -217
-138 0 4 -5 -1 -11 -11 -6 -9 -14 -15 -18 -13 -4 3 -48 -25 -97 -62 -104 -79
-164 -117 -164 -105 0 14 23 33 40 33 8 0 21 9 27 19 15 24 213 157 230 155 7
-1 11 2 8 6 -7 12 44 42 57 34 7 -5 8 -3 3 6 -5 8 -4 11 2 7 6 -4 18 2 28 13
10 11 21 18 25 15 3 -2 18 7 33 21 15 14 27 22 27 19 0 -3 16 6 35 21 44 33
39 42 -6 15 -52 -32 -58 -25 -11 10 23 17 42 35 42 41 0 5 -26 -12 -57 -39
-81 -68 -124 -101 -230 -172 -86 -57 -98 -62 -159 -67 -37 -2 -71 -7 -77 -11
-15 -9 1 119 18 134 4 4 5 2 0 -6 -5 -9 -3 -12 6 -9 8 3 13 10 12 16 -2 7 4 9
14 5 11 -4 14 -3 9 5 -4 7 -4 12 1 13 4 0 17 2 29 3 17 2 206 108 289 162 25
16 71 17 151 2z m-952 -29 c30 -35 32 -46 10 -77 -36 -52 -85 -52 -103 0 -17
49 -13 65 22 86 42 27 41 27 71 -9z m-1386 -21 c-14 -18 -48 -66 -77 -106 -30
-40 -56 -71 -59 -68 -5 6 -113 -158 -131 -199 -12 -28 -118 -212 -144 -252
-42 -63 -37 -32 9 60 52 103 114 207 123 207 4 0 13 15 21 33 7 17 16 36 18
41 3 5 -2 5 -9 1 -8 -5 -11 -4 -6 1 5 5 14 9 20 9 5 0 12 6 15 14 3 9 0 11 -8
6 -15 -9 -16 -12 42 80 35 56 36 83 3 55 -9 -8 -15 -8 -15 -2 0 5 15 19 33 30
19 11 47 28 63 38 l29 19 -26 -35 c-14 -19 -29 -42 -34 -50 -7 -12 -6 -13 7
-3 8 7 17 10 20 7 3 -2 19 20 36 49 26 47 73 97 90 97 2 0 -7 -15 -20 -32z
m3362 16 c0 -25 -57 -199 -78 -238 -32 -59 -52 -72 -117 -81 -56 -8 -85 -21
-85 -37 0 -7 5 -6 15 2 12 10 13 6 8 -27 -3 -21 -9 -42 -13 -47 -11 -11 -23
131 -16 180 3 21 5 42 6 45 0 3 44 39 98 79 53 40 113 86 132 101 34 27 50 35
50 23z m-2796 -19 c-4 -8 -11 -15 -16 -15 -6 0 -5 6 2 15 7 8 14 15 16 15 2 0
1 -7 -2 -15z m2219 -35 c4 -30 3 -38 -3 -25 -8 19 -14 83 -6 74 2 -2 6 -24 9
-49z m130 25 c38 -39 59 -93 65 -165 4 -63 3 -67 -22 -84 -15 -9 -35 -14 -45
-11 -22 7 -52 38 -55 57 -1 7 -10 25 -19 39 -17 26 -37 83 -37 104 0 5 17 -21
37 -59 38 -70 73 -100 95 -78 13 13 -2 75 -27 107 -10 13 -8 4 5 -27 23 -54
19 -83 -11 -68 -40 22 -68 130 -31 122 8 -1 11 2 6 9 -5 9 -13 6 -25 -10 l-18
-22 -16 37 c-26 62 -21 74 29 74 33 0 49 -6 69 -25z m41 3 c9 -12 16 -26 16
-31 0 -13 -29 12 -41 35 -14 26 6 23 25 -4z m-2271 -23 c23 -32 17 -32 -13 0
-13 14 -19 25 -14 25 5 0 17 -12 27 -25z m-179 -10 c-4 -8 -10 -15 -15 -15 -4
0 -6 7 -3 15 4 8 10 15 15 15 4 0 6 -7 3 -15z m-62 -37 c-7 -7 -12 -8 -12 -2
0 14 12 26 19 19 2 -3 -1 -11 -7 -17z m178 -13 c13 -14 21 -25 18 -25 -2 0
-15 11 -28 25 -13 14 -21 25 -18 25 2 0 15 -11 28 -25z m129 -30 c-3 -2 -16
10 -29 28 l-23 32 29 -27 c15 -15 26 -30 23 -33z m-369 15 c-6 -11 -32 -32
-58 -46 -26 -15 -55 -34 -65 -42 -27 -23 -32 -7 -7 27 22 32 40 40 40 19 1 -7
11 -1 23 13 37 44 86 65 67 29z m136 -62 l29 -33 -32 29 c-31 28 -38 36 -30
36 2 0 16 -15 33 -32z m2495 7 c6 17 8 15 8 -11 1 -17 -6 -37 -14 -44 -13 -11
-15 -6 -14 36 1 29 4 39 7 24 4 -23 5 -24 13 -5z m-2576 -5 c10 -11 16 -20 13
-20 -3 0 -13 9 -23 20 -10 11 -16 20 -13 20 3 0 13 -9 23 -20z m-760 0 c-3 -5
-11 -10 -16 -10 -6 0 -7 5 -4 10 3 6 11 10 16 10 6 0 7 -4 4 -10z m539 -32
c-17 -32 -35 -51 -42 -43 -7 6 39 75 49 75 5 0 2 -15 -7 -32z m207 15 c13 -16
12 -17 -3 -4 -10 7 -18 15 -18 17 0 8 8 3 21 -13z m1369 -43 c0 -38 -5 -54
-22 -70 l-23 -21 -3 53 c-3 41 1 55 15 66 10 7 17 18 15 23 -1 6 2 8 8 4 5 -3
10 -28 10 -55z m-1630 11 c0 -14 -44 -74 -58 -79 -15 -5 -6 22 20 61 19 26 38
36 38 18z m1570 -58 c0 -52 -1 -54 -35 -69 -20 -8 -67 -14 -112 -14 -87 0
-126 13 -74 25 17 4 37 12 44 19 7 7 44 29 82 48 39 20 69 41 68 47 -2 5 4 8
12 5 11 -5 15 -22 15 -61z m-1685 27 c-10 -11 -23 -20 -28 -20 -6 0 0 11 13
25 27 29 42 25 15 -5z m235 26 c0 -2 -7 -7 -16 -10 -8 -3 -12 -2 -9 4 6 10 25
14 25 6z m1410 -1 c0 -2 -10 -9 -22 -15 -22 -11 -22 -10 -4 4 21 17 26 19 26
11z m1324 -28 c-3 -8 -12 -18 -20 -21 -11 -4 -10 0 3 18 20 26 27 28 17 3z
m-2790 -11 c-10 -8 -21 -12 -24 -9 -3 2 4 11 14 19 11 7 22 12 25 9 2 -3 -4
-12 -15 -19z m4094 12 c-6 -18 -28 -21 -28 -4 0 9 7 16 16 16 9 0 14 -5 12
-12z m-4234 -29 c-18 -36 -63 -84 -70 -76 -7 7 65 107 77 107 5 0 2 -14 -7
-31z m1209 -20 c120 -19 120 -26 -3 -33 -63 -4 -123 -9 -132 -12 -15 -5 -18 1
-18 39 l0 45 40 -14 c23 -8 73 -19 113 -25z m612 11 c-12 -19 -95 -71 -105
-65 -6 3 -10 17 -10 30 0 25 7 28 70 38 45 8 51 7 45 -3z m-1885 -5 c0 -12
-55 -91 -74 -107 -26 -22 -40 -23 -33 -3 12 29 82 115 94 115 7 0 13 -2 13 -5z
m231 -12 c13 -16 12 -17 -3 -4 -10 7 -18 15 -18 17 0 8 8 3 21 -13z m1525 -38
c-3 -9 -12 -12 -21 -9 -14 6 -14 9 2 26 18 20 30 10 19 -17z m-1871 -43 c-35
-61 -55 -83 -55 -63 0 6 -4 11 -10 11 -5 0 -10 -6 -10 -14 0 -7 -7 -19 -16
-27 -13 -11 -13 -7 2 24 12 25 21 34 28 27 6 -6 23 11 48 51 50 79 60 71 13
-9z m200 52 c-11 -8 -19 -18 -17 -22 1 -4 -1 -7 -5 -7 -15 -1 -58 -28 -103
-64 -66 -54 -149 -111 -160 -111 -33 0 10 47 85 92 28 16 82 51 120 78 39 27
77 49 85 49 11 0 10 -4 -5 -15z m1340 -4 c-3 -5 -25 -9 -48 -9 -40 1 -40 2
-12 9 44 11 67 11 60 0z m-1576 -44 c-7 -14 -16 -26 -21 -26 -5 0 -1 13 8 30
21 35 30 33 13 -4z m1491 -2 c-81 -47 -179 -94 -195 -94 -8 0 -15 8 -15 18 0
9 -3 34 -6 54 l-6 37 43 4 c24 2 85 4 134 5 l90 2 -45 -26z m230 16 l65 0
-166 -84 c-161 -81 -170 -84 -245 -87 -64 -3 -79 -1 -79 10 0 9 61 48 145 93
124 67 150 78 180 73 19 -2 64 -5 100 -5z m127 -29 c-2 -36 -8 -43 -85 -101
l-82 -62 -95 7 c-52 4 -95 10 -95 14 0 6 337 179 352 180 4 1 7 -16 5 -38z
m-1922 -55 c-47 -76 -59 -91 -49 -58 5 14 3 14 -10 -2 -9 -11 -16 -24 -16 -30
0 -5 -3 -7 -6 -4 -3 4 2 21 11 39 12 21 19 28 25 20 5 -9 9 -8 13 4 4 9 3 13
-3 10 -17 -10 -11 9 11 35 l20 25 -11 -25 c-10 -23 -10 -24 4 -7 8 11 12 25 9
33 -3 8 1 14 10 14 8 0 18 7 21 16 4 9 9 14 12 12 3 -3 -16 -40 -41 -82z
m1985 77 c0 -10 -32 -43 -41 -43 -5 0 -8 11 -7 25 2 19 8 25 25 25 13 0 23 -3
23 -7z m-2110 -23 c-6 -11 -13 -20 -16 -20 -2 0 0 9 6 20 6 11 13 20 16 20 2
0 0 -9 -6 -20z m2105 -20 c-3 -5 -16 -15 -28 -21 -21 -10 -21 -9 2 10 25 23
36 27 26 11z m54 7 c-2 -1 -13 -9 -24 -17 -19 -14 -19 -14 -6 3 7 9 18 17 24
17 6 0 8 -1 6 -3z m-2105 -74 c-45 -82 -54 -94 -64 -88 -5 3 -12 -4 -15 -16
-4 -11 -9 -18 -12 -16 -2 3 2 18 11 34 8 15 15 21 16 13 0 -13 2 -13 9 0 6 8
7 18 5 22 -3 4 -1 8 4 8 4 0 19 19 32 43 25 45 40 67 47 67 2 0 -13 -30 -33
-67z m2051 37 c-3 -5 -2 -10 3 -10 6 0 13 -16 16 -35 9 -45 46 -65 124 -65
l59 0 -9 -52 c-5 -29 -10 -127 -10 -217 -1 -149 0 -165 17 -177 12 -9 15 -17
9 -23 -51 -48 -240 -194 -212 -165 85 91 106 146 68 184 -13 13 -20 33 -20 56
0 45 -15 72 -45 84 -16 6 -30 26 -44 65 -32 86 -59 133 -102 179 -21 24 -36
46 -32 49 3 4 32 7 63 7 65 0 81 12 73 51 -4 22 1 35 18 54 25 26 34 32 24 15z
m-2135 -8 c0 -5 -7 -17 -15 -28 -14 -18 -14 -17 -4 9 12 27 19 34 19 19z
m2080 -66 c0 -25 -16 -36 -56 -36 -32 0 -30 11 9 38 40 28 47 28 47 -2z
m-1934 -24 c-16 -32 -45 -59 -66 -64 -8 -2 -18 -7 -22 -13 -5 -7 -8 -6 -8 1 0
5 7 19 16 30 8 10 13 12 9 4 -4 -8 1 -6 10 5 9 11 20 20 25 20 5 0 17 10 25
23 22 31 28 28 11 -6z m1386 -18 c7 3 32 7 55 10 77 11 39 -19 -145 -112 -97
-50 -190 -97 -207 -106 -112 -58 -370 -169 -515 -222 l-65 -23 40 36 c74 66
189 133 455 267 146 74 285 145 310 159 43 25 45 26 52 7 4 -11 13 -18 20 -16z
m1433 27 c-6 -4 -80 -62 -165 -129 -85 -67 -170 -133 -187 -147 l-33 -26 0
144 0 144 51 7 c29 4 101 6 161 5 60 -1 112 1 115 5 4 3 20 6 37 6 17 0 26 -4
21 -9z m-1165 -27 c30 -4 64 -7 75 -5 14 1 10 -4 -13 -19 -18 -11 -38 -17 -44
-14 -6 4 -8 3 -5 -3 3 -5 -17 -22 -45 -37 -27 -15 -51 -26 -52 -24 -1 2 -11
26 -23 55 -22 56 -18 65 27 58 14 -2 50 -7 80 -11z m770 -132 c0 -143 -1 -149
-24 -171 l-23 -22 -7 73 c-4 40 -14 111 -22 158 -14 79 -14 85 2 97 10 7 30
13 46 13 l28 0 0 -148z m-100 116 c0 -13 7 -54 14 -93 8 -38 18 -104 21 -145
l7 -75 -71 -58 c-61 -49 -74 -56 -91 -47 -13 7 -20 20 -19 38 2 23 2 24 6 5 2
-13 9 -23 15 -23 6 0 7 8 3 17 -29 76 -32 297 -5 371 11 31 14 32 66 32 49 0
54 -2 54 -22z m-787 -33 c24 -51 22 -71 -13 -85 -34 -14 -66 -45 -34 -33 17 6
18 5 4 -13 -8 -10 2 -4 24 14 21 18 40 31 43 28 12 -12 -9 -36 -76 -85 l-71
-51 5 57 c10 119 48 203 90 203 6 0 19 -16 28 -35z m254 29 c-4 -4 7 -22 23
-41 17 -18 30 -38 30 -44 0 -6 4 -8 9 -5 17 11 54 -68 116 -242 3 -7 10 -10
15 -7 8 5 7 11 -1 21 -16 19 -4 30 16 14 11 -9 15 -32 15 -86 0 -43 4 -74 10
-74 6 0 10 7 10 16 0 8 5 12 10 9 33 -21 -8 -106 -83 -172 -20 -18 -37 -39
-37 -46 0 -8 -35 -43 -77 -78 -216 -177 -488 -414 -673 -583 -113 -104 -254
-235 -315 -290 -193 -179 -317 -298 -470 -454 -82 -85 -159 -158 -170 -164
-12 -6 -6 5 16 28 61 68 65 81 6 24 l-57 -54 0 35 c0 46 30 90 132 197 44 46
84 95 89 110 9 26 32 44 274 209 39 26 88 66 110 88 22 22 63 60 92 83 30 25
50 49 47 56 -3 7 18 38 45 68 49 53 72 70 228 171 69 45 203 161 203 177 0 5
16 32 35 61 44 68 66 133 68 206 2 69 -10 133 -24 133 -6 0 -8 -10 -4 -22 l6
-23 -19 22 c-11 13 -24 51 -31 95 -11 67 -22 93 -63 150 -11 15 -9 21 9 40 18
17 23 19 27 7 2 -8 12 -38 21 -68 21 -64 62 -115 87 -106 18 7 55 91 44 102
-3 3 -6 1 -6 -6 0 -27 -33 -81 -49 -81 -25 1 -50 42 -68 114 l-18 66 45 45
c24 25 48 45 53 45 5 0 18 12 29 26 23 29 38 19 38 -25 0 -20 -3 -22 -12 -13
-7 7 -16 12 -22 12 -5 0 -2 -6 9 -13 15 -12 17 -23 13 -78 -4 -37 -2 -56 2
-44 5 11 9 37 9 58 1 20 5 37 10 37 4 0 4 23 -1 52 l-10 52 43 37 c35 30 47
35 64 27 18 -8 20 -16 17 -91 -2 -46 3 -112 11 -152 18 -82 6 -108 -17 -38 -9
26 -30 63 -47 81 -41 43 -47 41 -11 -5 16 -21 38 -60 48 -88 22 -62 20 -60 39
-45 12 10 15 10 19 -1 16 -59 25 -75 49 -89 24 -13 30 -13 54 0 44 25 59 61
47 109 -13 46 -7 102 7 79 13 -19 11 5 -2 39 -6 15 -19 73 -29 128 -10 55 -19
84 -19 65 0 -19 4 -54 8 -78 5 -24 5 -40 1 -35 -42 45 -138 172 -134 176 3 3
7 12 8 20 1 9 13 25 26 36 23 19 41 29 27 15z m-1898 -31 c-11 -30 -47 -73
-61 -73 -12 0 19 56 44 80 28 26 30 25 17 -7z m89 -30 c6 -16 23 -46 37 -68
14 -22 32 -53 40 -68 15 -26 15 -27 -2 -16 -34 22 -96 112 -100 146 -4 40 8
43 25 6z m1702 13 c0 -6 -96 -76 -104 -76 -20 0 1 22 47 48 57 34 57 34 57 28z
m23 -24 c-11 -9 -44 -36 -71 -60 -34 -28 -53 -39 -58 -31 -4 6 -1 15 7 20 8 4
41 28 74 52 33 24 62 42 65 40 3 -2 -5 -12 -17 -21z m-1477 -21 c-13 -20 -26
-11 -26 16 0 25 1 26 16 11 9 -9 13 -21 10 -27z m1484 -13 c0 -16 -3 -19 -11
-11 -6 6 -8 16 -5 22 11 17 16 13 16 -11z m107 -106 c30 -40 53 -75 51 -78 -3
-2 -17 13 -31 33 -15 21 -47 58 -72 83 -25 24 -45 51 -45 59 0 21 32 -10 97
-97z m-2007 73 c0 -2 -10 -9 -22 -15 -22 -11 -22 -10 -4 4 21 17 26 19 26 11z
m1956 -57 c56 -61 91 -109 103 -140 10 -26 8 -28 -59 -62 l-69 -35 -11 37
c-15 55 -25 242 -13 242 6 0 28 -19 49 -42z m-196 24 c0 -5 -19 -26 -42 -47
-24 -21 -60 -54 -80 -74 -33 -30 -38 -32 -38 -15 0 13 27 43 72 82 70 60 88
71 88 54z m-751 -36 c-2 -2 -24 -14 -49 -26 -37 -19 -42 -20 -30 -5 8 9 23 21
35 25 21 9 52 13 44 6z m4698 -59 c-2 -7 -13 -12 -25 -11 -12 0 -131 2 -264 4
-285 4 -218 16 95 17 146 1 197 -2 194 -10z m-554 -14 c-13 -2 -33 -2 -45 0
-13 2 -3 4 22 4 25 0 35 -2 23 -4z m-2547 -109 c-3 -8 -19 -14 -37 -14 -24 0
-30 3 -25 16 3 9 6 24 6 35 0 11 12 32 28 47 l27 27 3 -49 c2 -27 1 -55 -2
-62z m2452 99 c-10 -2 -26 -2 -35 0 -10 3 -2 5 17 5 19 0 27 -2 18 -5z m-3508
-16 c-51 -46 -171 -147 -270 -227 -63 -52 -158 -133 -212 -181 -142 -129 -247
-203 -264 -186 -2 2 47 44 111 92 63 48 118 92 122 99 3 6 -3 3 -14 -6 -11
-10 -23 -18 -27 -18 -6 0 -64 -38 -76 -50 -3 -3 -31 -27 -63 -54 -63 -52 -73
-52 -102 3 -13 26 -12 27 98 97 423 270 510 322 520 318 7 -2 26 9 42 26 16
16 32 30 37 30 5 0 30 16 56 35 48 35 69 46 42 22z m980 -95 c-5 -22 -17 -42
-25 -46 -16 -6 -75 12 -74 22 0 4 24 26 52 48 57 45 65 41 47 -24z m-480 -2
c0 -5 -2 -10 -4 -10 -3 0 -8 5 -11 10 -3 6 -1 10 4 10 6 0 11 -4 11 -10z m-5
-68 c-9 -42 -35 -49 -62 -17 -31 35 -29 45 10 46 30 1 30 2 7 8 -24 7 -24 7
-5 18 30 18 59 -14 50 -55z m-1360 48 c-3 -5 -16 -15 -28 -21 -21 -10 -21 -9
2 10 25 23 36 27 26 11z m-75 -53 c0 -8 -82 -69 -86 -64 -3 3 14 19 38 36 45
31 48 33 48 28z m1453 -14 c-7 -20 -32 -43 -47 -43 -6 0 0 7 12 16 12 8 22 22
22 30 0 8 4 14 10 14 5 0 7 -8 3 -17z m-69 -52 c-5 -7 -24 11 -35 32 -11 20
-9 20 13 -3 13 -14 23 -27 22 -29z m-1489 -20 c-6 -5 -39 -32 -75 -61 -36 -28
-65 -55 -65 -60 0 -7 -192 -173 -289 -250 -47 -37 60 77 119 127 28 24 59 51
70 60 11 10 22 18 25 19 19 3 39 18 35 25 -6 9 163 148 180 149 6 0 6 -3 0 -9z
m-215 -54 c0 -2 -10 -12 -22 -23 l-23 -19 19 23 c18 21 26 27 26 19z m-55 -66
c-3 -6 -11 -11 -17 -11 -6 0 -6 6 2 15 14 17 26 13 15 -4z m336 -1219 c-12
-22 -41 -48 -41 -36 0 8 40 54 47 54 2 0 -1 -8 -6 -18z"/>
<path d="M2828 5264 c-16 -8 -28 -17 -28 -19 0 -6 32 6 55 22 26 18 7 16 -27
-3z"/>
<path d="M2859 5223 c-13 -16 -12 -17 4 -4 9 7 17 15 17 17 0 8 -8 3 -21 -13z"/>
<path d="M1375 5439 c-5 -8 -4 -10 3 -5 16 9 15 -7 0 -22 -6 -6 -9 -14 -6 -18
4 -3 12 4 18 16 13 25 -1 52 -15 29z"/>
<path d="M1322 5333 c-26 -38 -34 -53 -29 -53 2 0 16 18 31 40 29 45 28 56 -2
13z"/>
<path d="M1141 5264 c-18 -25 -30 -48 -28 -50 2 -3 12 7 21 21 9 14 23 36 32
50 28 43 9 27 -25 -21z"/>
<path d="M1039 5203 c-13 -16 -12 -17 4 -4 16 13 21 21 13 21 -2 0 -10 -8 -17
-17z"/>
<path d="M1217 5176 c-15 -24 -27 -47 -27 -52 0 -5 14 13 31 40 17 26 29 50
27 51 -2 2 -16 -15 -31 -39z"/>
<path d="M738 5013 c-31 -47 -50 -83 -44 -83 2 0 13 15 24 33 11 19 27 46 37
60 9 15 15 27 12 27 -2 0 -15 -17 -29 -37z"/>
<path d="M673 4908 c-15 -20 -25 -38 -20 -38 3 0 12 11 21 25 17 26 16 35 -1
13z"/>
<path d="M576 4863 c-6 -14 -5 -15 5 -6 7 7 10 15 7 18 -3 3 -9 -2 -12 -12z"/>
<path d="M540 4800 c-6 -11 -8 -20 -6 -20 3 0 10 9 16 20 6 11 8 20 6 20 -3 0
-10 -9 -16 -20z"/>
<path d="M556 4726 c-14 -19 -22 -37 -18 -40 5 -3 19 13 31 34 27 49 22 51
-13 6z"/>
<path d="M2120 4780 c-8 -5 -10 -10 -5 -10 6 0 17 5 25 10 8 5 11 10 5 10 -5
0 -17 -5 -25 -10z"/>
<path d="M2070 4760 c-8 -5 -10 -10 -5 -10 6 0 17 5 25 10 8 5 11 10 5 10 -5
0 -17 -5 -25 -10z"/>
<path d="M1890 4685 c-14 -8 -20 -14 -15 -14 6 0 21 6 35 14 14 8 21 14 15 14
-5 0 -21 -6 -35 -14z"/>
<path d="M1795 4640 c-3 -6 1 -7 9 -4 18 7 21 14 7 14 -6 0 -13 -4 -16 -10z"/>
<path d="M454 4755 c-9 -14 -15 -28 -12 -30 2 -2 12 9 22 25 21 36 13 40 -10
5z"/>
<path d="M419 4748 c-8 -15 -14 -19 -17 -9 -4 13 -42 -34 -42 -54 0 -5 9 3 19
18 12 19 20 24 23 16 3 -9 11 -4 23 14 10 15 15 30 12 33 -3 3 -11 -5 -18 -18z"/>
<path d="M335 4740 c-4 -6 -10 -8 -15 -5 -9 6 -84 -94 -77 -102 3 -2 20 18 38
46 20 29 36 46 40 39 4 -7 11 -3 18 11 12 21 8 30 -4 11z"/>
<path d="M1615 4560 c-3 -6 1 -7 9 -4 18 7 21 14 7 14 -6 0 -13 -4 -16 -10z"/>
<path d="M2070 4400 c-12 -7 -10 -9 7 -7 12 0 19 5 17 9 -6 10 -6 10 -24 -2z"/>
<path d="M1684 4089 c-19 -22 -19 -22 3 -10 24 12 39 31 25 31 -5 0 -17 -10
-28 -21z"/>
<path d="M2009 4263 c-13 -16 -12 -17 4 -4 9 7 17 15 17 17 0 8 -8 3 -21 -13z"/>
<path d="M1286 3756 c-77 -62 -149 -126 -160 -142 -20 -28 -19 -27 21 6 22 19
93 79 157 133 101 86 136 118 124 117 -2 -1 -66 -52 -142 -114z"/>
<path d="M395 3600 c-3 -6 1 -7 9 -4 18 7 21 14 7 14 -6 0 -13 -4 -16 -10z"/>
<path d="M3656 6025 c-9 -26 -7 -32 5 -12 6 10 9 21 6 23 -2 3 -7 -2 -11 -11z"/>
<path d="M366 5975 c24 -39 24 -40 24 -28 0 6 -9 21 -21 34 l-20 24 17 -30z"/>
<path d="M141 5974 c0 -11 3 -14 6 -6 3 7 2 16 -1 19 -3 4 -6 -2 -5 -13z"/>
<path d="M250 5981 c0 -5 7 -12 16 -15 14 -5 15 -4 4 9 -14 17 -20 19 -20 6z"/>
<path d="M291 5964 c0 -11 3 -14 6 -6 3 7 2 16 -1 19 -3 4 -6 -2 -5 -13z"/>
<path d="M3560 5918 l-55 -50 55 43 c30 24 57 44 59 46 2 2 2 5 0 7 -3 3 -29
-18 -59 -46z"/>
<path d="M151 5935 c0 -11 6 -31 14 -45 16 -28 21 -19 5 10 -8 15 -5 19 26 24
47 9 70 0 82 -32 10 -28 47 -72 60 -72 4 0 25 -50 46 -110 21 -61 40 -109 43
-107 2 2 -12 50 -32 105 -39 113 -41 122 -21 122 13 0 61 -96 86 -173 6 -21
14 -36 16 -34 6 5 -37 119 -64 173 -15 29 -19 53 -16 85 3 41 3 41 -5 10 -19
-71 -65 -72 -101 -2 -22 44 -51 58 -97 47 -17 -5 -29 -3 -34 6 -6 9 -9 7 -8
-7z"/>
<path d="M2769 5933 c-13 -16 -12 -17 4 -4 16 13 21 21 13 21 -2 0 -10 -8 -17
-17z"/>
<path d="M3276 5845 c4 -16 11 -37 15 -45 6 -10 7 -4 3 15 -4 17 -11 37 -15
45 -6 10 -7 4 -3 -15z"/>
<path d="M191 5825 c0 -5 6 -21 14 -35 8 -14 14 -20 14 -15 0 6 -6 21 -14 35
-8 14 -14 21 -14 15z"/>
<path d="M271 5815 c0 -5 9 -28 20 -50 10 -22 16 -29 13 -15 -7 28 -33 80 -33
65z"/>
<path d="M4042 5784 c-29 -19 -52 -37 -52 -40 0 -6 9 -1 60 34 22 15 42 21 57
17 28 -7 30 1 5 14 -15 8 -30 2 -70 -25z"/>
<path d="M2293 5793 c15 -2 39 -2 55 0 15 2 2 4 -28 4 -30 0 -43 -2 -27 -4z"/>
<path d="M4145 5790 c-3 -6 1 -7 9 -4 18 7 21 14 7 14 -6 0 -13 -4 -16 -10z"/>
<path d="M3890 5729 c-92 -55 -137 -90 -55 -43 102 58 160 94 150 94 -5 -1
-48 -23 -95 -51z"/>
<path d="M5240 5760 c-9 -6 -10 -10 -3 -10 6 0 15 5 18 10 8 12 4 12 -15 0z"/>
<path d="M3860 5659 c-63 -44 -119 -85 -125 -91 -5 -6 45 26 113 72 104 71
145 102 130 100 -2 -1 -55 -37 -118 -81z"/>
<path d="M5146 5715 c-11 -8 -15 -15 -10 -15 6 0 19 7 30 15 10 8 15 14 9 14
-5 0 -19 -6 -29 -14z"/>
<path d="M3985 5674 l-30 -26 33 22 c17 12 32 23 32 26 0 7 -4 5 -35 -22z"/>
<path d="M321 5685 c0 -5 6 -21 14 -35 8 -14 14 -20 14 -15 0 6 -6 21 -14 35
-8 14 -14 21 -14 15z"/>
<path d="M4998 5639 c-54 -27 -98 -51 -98 -54 0 -3 45 17 100 45 55 28 100 52
100 55 0 7 6 9 -102 -46z"/>
<path d="M3727 5636 c-53 -32 -60 -42 -12 -18 51 27 73 42 60 42 -5 -1 -27
-11 -48 -24z"/>
<path d="M3929 5633 c-13 -16 -12 -17 4 -4 9 7 17 15 17 17 0 8 -8 3 -21 -13z"/>
<path d="M3889 5603 c-13 -16 -12 -17 4 -4 16 13 21 21 13 21 -2 0 -10 -8 -17
-17z"/>
<path d="M480 5606 c0 -2 13 -35 29 -72 16 -38 28 -71 26 -73 -8 -7 -70 52
-80 77 -10 22 -10 21 -10 -16 0 -52 -12 -63 -35 -34 -10 12 -21 22 -24 22 -3
0 -17 11 -32 25 -26 24 -61 35 -49 15 3 -5 11 -10 18 -10 6 0 32 -21 58 -46
45 -44 69 -50 69 -18 0 19 9 18 55 -11 35 -21 88 -37 59 -17 -5 4 -25 42 -44
85 -30 68 -40 87 -40 73z"/>
<path d="M366 5570 c3 -14 11 -32 16 -40 6 -10 7 -7 2 10 -3 14 -11 32 -16 40
-6 10 -7 7 -2 -10z"/>
<path d="M3830 5559 c-35 -31 -35 -31 -3 -9 18 11 35 25 38 30 10 16 2 11 -35
-21z"/>
<path d="M3589 5549 l-24 -20 28 17 c15 9 27 18 27 20 0 8 -8 4 -31 -17z"/>
<path d="M3629 5496 c-48 -35 -90 -70 -94 -76 -4 -7 36 20 89 60 84 63 104 80
94 80 -2 0 -42 -29 -89 -64z"/>
<path d="M3764 5508 l-19 -23 23 19 c21 18 27 26 19 26 -2 0 -12 -10 -23 -22z"/>
<path d="M3520 5510 c-9 -6 -10 -10 -3 -10 6 0 15 5 18 10 8 12 4 12 -15 0z"/>
<path d="M3464 5474 c-18 -14 -18 -15 4 -4 12 6 22 13 22 15 0 8 -5 6 -26 -11z"/>
<path d="M3705 5464 l-30 -26 33 22 c17 12 32 23 32 26 0 7 -4 5 -35 -22z"/>
<path d="M2374 5426 c-3 -8 -4 -27 -2 -43 3 -23 5 -20 9 15 5 43 2 53 -7 28z"/>
<path d="M3453 5367 c-35 -23 -63 -45 -63 -49 0 -4 29 13 65 38 36 25 65 47
65 50 0 6 0 6 -67 -39z"/>
<path d="M3599 5389 l-24 -20 28 17 c15 9 27 18 27 20 0 8 -8 4 -31 -17z"/>
<path d="M3530 5345 c-11 -13 -10 -14 4 -9 9 3 16 10 16 15 0 13 -6 11 -20 -6z"/>
<path d="M3331 5334 c0 -11 3 -14 6 -6 3 7 2 16 -1 19 -3 4 -6 -2 -5 -13z"/>
<path d="M3347 5291 c-9 -68 -21 -80 -177 -194 -22 -16 -22 -16 -2 -7 18 9 22
8 22 -6 0 -13 10 -7 37 19 20 21 40 37 44 37 10 0 75 97 88 133 7 17 8 35 3
44 -7 11 -11 4 -15 -26z"/>
<path d="M3298 5254 c-14 -30 -22 -51 -16 -48 11 7 52 94 46 99 -1 2 -15 -21
-30 -51z"/>
<path d="M3419 5263 c-13 -16 -12 -17 4 -4 16 13 21 21 13 21 -2 0 -10 -8 -17
-17z"/>
<path d="M3355 5214 l-30 -26 33 22 c17 12 32 23 32 26 0 7 -4 5 -35 -22z"/>
<path d="M3213 5193 c9 -2 25 -2 35 0 9 3 1 5 -18 5 -19 0 -27 -2 -17 -5z"/>
<path d="M1509 4973 c-13 -16 -12 -17 4 -4 9 7 17 15 17 17 0 8 -8 3 -21 -13z"/>
<path d="M290 4920 c-9 -6 -10 -10 -3 -10 6 0 15 5 18 10 8 12 4 12 -15 0z"/>
<path d="M365 4890 c-3 -6 1 -7 9 -4 18 7 21 14 7 14 -6 0 -13 -4 -16 -10z"/>
<path d="M4370 4826 c0 -37 4 -66 10 -66 6 0 10 5 10 10 0 6 8 5 20 -2 32 -20
55 1 54 48 -2 60 -51 85 -65 33 -7 -24 -7 -24 -8 3 -1 15 -5 30 -11 33 -6 4
-10 -18 -10 -59z m80 8 c12 -29 -2 -64 -25 -64 -11 0 -15 11 -15 38 0 57 23
72 40 26z"/>
<path d="M4630 4856 c6 -17 5 -26 -3 -29 -7 -2 -9 -8 -5 -12 13 -13 28 6 28
36 0 19 -5 29 -15 29 -11 0 -12 -5 -5 -24z"/>
<path d="M299 4843 c-13 -16 -12 -17 4 -4 9 7 17 15 17 17 0 8 -8 3 -21 -13z"/>
<path d="M4525 4830 c-3 -5 -13 -6 -21 -3 -14 5 -14 3 -3 -16 16 -25 29 -27
29 -6 0 18 16 20 24 3 5 -10 7 -10 12 0 9 20 24 14 25 -10 1 -18 2 -19 6 -5 8
30 -5 51 -21 38 -10 -8 -16 -9 -21 -1 -8 13 -22 13 -30 0z"/>
<path d="M10 4755 c-16 -19 0 -19 26 0 16 12 16 14 3 15 -9 0 -22 -7 -29 -15z"/>
<path d="M155 4690 c-11 -12 -20 -27 -21 -33 -1 -7 -17 -37 -36 -67 -59 -93
-98 -170 -98 -193 0 -14 16 8 43 58 24 44 55 98 68 120 54 87 79 135 71 135
-5 0 -17 -9 -27 -20z"/>
<path d="M26 4605 c-24 -22 -26 -31 -25 -90 1 -36 3 -64 4 -63 13 15 73 148
67 148 -5 0 -14 -10 -20 -22 -8 -17 -11 -18 -11 -7 -1 9 6 22 14 29 16 14 20
30 6 30 -4 0 -20 -11 -35 -25z"/>
<path d="M3280 4512 c-47 -37 -99 -77 -114 -90 -16 -12 -27 -24 -25 -27 3 -2
56 37 119 87 135 106 126 98 114 97 -5 0 -47 -31 -94 -67z"/>
<path d="M4340 4560 c-67 -5 -46 -7 100 -7 102 0 210 -4 241 -8 l56 -7 7 -86
c4 -48 12 -144 19 -214 15 -155 12 -208 -13 -208 -10 0 -20 7 -23 15 -3 7 -6
103 -7 212 0 109 -4 213 -8 232 l-7 33 -205 -1 c-112 -1 -205 -3 -207 -4 -4
-4 -22 -208 -29 -324 -6 -110 -7 -113 -30 -113 -28 0 -28 -8 -9 175 8 77 17
176 20 220 4 76 4 75 -9 -25 -8 -58 -19 -161 -25 -229 -6 -69 -16 -130 -22
-137 -5 -7 -6 -14 -2 -16 15 -8 77 -1 80 8 1 5 9 101 17 213 11 141 20 207 28
213 7 4 95 8 194 8 164 0 183 -2 189 -17 5 -10 10 -117 12 -238 3 -121 8 -223
12 -227 3 -3 19 -8 35 -10 28 -3 29 -2 33 49 2 28 -5 134 -15 235 -10 100 -19
198 -19 216 0 18 -2 34 -4 36 -9 8 -329 13 -409 6z"/>
<path d="M2380 4520 c-9 -6 -10 -10 -3 -10 6 0 15 5 18 10 8 12 4 12 -15 0z"/>
<path d="M1444 4474 c-18 -14 -18 -14 6 -3 31 14 36 19 24 19 -6 0 -19 -7 -30
-16z"/>
<path d="M1375 4440 c-3 -6 1 -7 9 -4 18 7 21 14 7 14 -6 0 -13 -4 -16 -10z"/>
<path d="M3935 4373 c11 -116 16 -143 25 -138 5 3 6 20 3 38 -3 23 0 37 11 47
24 19 39 0 42 -50 1 -23 5 -44 9 -48 13 -12 -1 108 -14 121 -9 9 -16 9 -31 -1
-29 -18 -30 -16 -30 32 0 25 -5 48 -10 51 -7 4 -8 -14 -5 -52z"/>
<path d="M1275 4390 c-3 -6 1 -7 9 -4 18 7 21 14 7 14 -6 0 -13 -4 -16 -10z"/>
<path d="M1345 4364 l-40 -36 43 32 c36 27 49 40 40 40 -2 0 -21 -16 -43 -36z"/>
<path d="M3494 4326 c3 -43 6 -105 6 -138 0 -32 3 -58 8 -58 9 0 -3 259 -13
268 -4 4 -5 -29 -1 -72z"/>
<path d="M1056 4294 c-37 -19 -66 -37 -64 -39 2 -3 38 13 79 35 41 22 70 39
64 39 -5 0 -41 -16 -79 -35z"/>
<path d="M4050 4300 c-12 -8 -11 -10 8 -10 12 0 22 5 22 10 0 13 -11 13 -30 0z"/>
<path d="M4055 4270 c-3 -5 1 -10 10 -10 9 0 13 5 10 10 -3 6 -8 10 -10 10 -2
0 -7 -4 -10 -10z"/>
<path d="M950 4235 c-14 -8 -20 -14 -14 -15 5 0 19 7 30 15 24 18 16 19 -16 0z"/>
<path d="M1380 3980 c-9 -6 -10 -10 -3 -10 6 0 15 5 18 10 8 12 4 12 -15 0z"/>
<path d="M5565 3940 l-30 -8 30 0 c17 0 44 4 60 8 l30 8 -30 0 c-16 0 -43 -4
-60 -8z"/>
<path d="M5613 3848 c4 -45 12 -86 18 -92 8 -8 10 -5 5 10 -4 12 -8 54 -9 93
-1 39 -6 71 -11 71 -5 0 -6 -35 -3 -82z"/>
<path d="M5225 3888 c-19 -22 -25 -38 -20 -55 3 -13 -1 -36 -10 -53 -34 -67
-7 -80 54 -25 36 32 39 34 44 15 13 -51 86 -29 99 30 16 75 -15 130 -63 115
-26 -9 -16 -19 18 -20 33 0 47 -42 33 -97 -21 -75 -88 -56 -75 21 4 22 11 43
16 47 5 3 9 10 9 16 0 19 -28 -11 -34 -37 -6 -22 -9 -23 -31 -13 l-25 11 20
34 c24 41 24 43 6 43 -8 0 -26 -14 -41 -32z m18 -18 c-9 -16 -21 -30 -26 -30
-9 0 -1 17 21 43 23 26 25 21 5 -13z m26 -49 c18 -12 -7 -49 -50 -75 l-31 -18
7 23 c22 69 43 90 74 70z"/>
<path d="M5558 3863 c7 -3 12 -23 12 -49 0 -25 5 -44 11 -44 6 0 8 7 5 16 -3
9 -6 31 -6 50 0 26 -4 34 -17 33 -11 0 -13 -3 -5 -6z"/>
<path d="M5473 3830 c-6 -24 -21 -26 -29 -5 -4 8 -10 15 -15 15 -4 0 1 -16 12
-35 12 -19 25 -35 31 -35 5 0 7 4 3 10 -8 12 5 60 16 60 5 0 9 -8 9 -17 0 -10
4 -24 9 -32 7 -11 13 -7 25 17 21 40 20 53 -1 23 l-16 -24 -8 21 c-10 28 -29
28 -36 2z"/>
<path d="M4642 3738 c-21 -26 -41 -89 -52 -165 -6 -43 -13 -86 -16 -95 -4 -14
1 -18 20 -18 32 0 42 19 51 95 4 33 14 80 21 105 8 25 14 55 14 68 0 24 -21
30 -38 10z m28 -17 c0 -5 -6 -26 -14 -47 -7 -22 -16 -68 -20 -104 -8 -70 -21
-104 -37 -94 -18 11 7 155 38 222 14 30 33 43 33 23z"/>
<path d="M4233 3474 c-11 -30 21 -45 123 -55 54 -5 110 -13 124 -18 34 -11 50
-4 50 24 0 21 -7 24 -82 34 -46 7 -105 17 -131 22 -65 12 -77 12 -84 -7z m164
-19 c91 -13 113 -19 113 -34 0 -8 -257 23 -266 32 -14 14 10 28 35 22 14 -4
67 -13 118 -20z"/>
<path d="M4542 3401 c-1 -38 25 -49 52 -22 16 17 17 22 6 35 -7 9 -22 16 -35
16 -17 0 -22 -6 -23 -29z m46 -3 c-6 -18 -28 -21 -28 -4 0 9 7 16 16 16 9 0
14 -5 12 -12z"/>
<path d="M4598 3363 c-10 -2 -18 -9 -18 -14 0 -27 144 -199 166 -199 8 0 14 9
14 19 0 30 -121 203 -139 200 -3 -1 -14 -3 -23 -6z m72 -65 c43 -54 89 -133
73 -127 -22 10 -143 156 -143 173 0 21 35 -2 70 -46z"/>
<path d="M4393 3214 c-79 -128 -76 -109 -58 -296 l8 -78 -36 -15 c-20 -8 -64
-15 -97 -15 l-60 0 0 48 c0 171 -48 244 -169 259 -138 16 -278 -87 -322 -236
l-13 -43 -44 6 c-25 3 -57 6 -72 6 -26 0 -27 3 -36 73 -8 62 -12 72 -29 72
-23 0 -43 -48 -44 -102 -1 -22 -6 -33 -16 -33 -8 0 -18 -16 -24 -37 -5 -21
-12 -49 -15 -63 -4 -14 -11 -94 -16 -179 -8 -128 -7 -158 5 -182 8 -15 15 -36
15 -47 0 -33 29 -118 53 -153 12 -19 31 -55 41 -81 20 -55 31 -65 51 -48 10 9
15 32 15 74 0 57 2 63 29 79 16 9 32 17 35 17 3 0 6 -25 6 -55 0 -50 -2 -56
-29 -70 -42 -21 -58 -75 -35 -114 30 -51 86 -55 114 -8 28 45 25 74 -11 109
-28 29 -30 33 -20 76 5 25 7 51 4 59 -4 10 9 13 58 13 35 0 74 3 87 6 18 5 22
2 22 -18 0 -13 -9 -31 -20 -41 -37 -31 -16 -104 32 -114 15 -3 30 -14 34 -25
9 -30 52 -42 80 -23 34 22 34 87 -1 117 -22 19 -25 30 -25 87 0 36 4 72 9 80
8 12 125 77 209 116 18 9 61 41 95 73 72 66 213 226 232 262 12 24 49 255 47
294 -1 10 19 60 43 111 25 52 42 101 39 109 -3 9 -20 20 -37 25 -18 5 -39 11
-47 15 -11 4 -35 -26 -87 -110z m132 76 c3 -4 -9 -39 -26 -77 -30 -69 -31 -70
-91 -91 -34 -12 -62 -21 -64 -19 -5 4 94 157 118 183 18 21 52 23 63 4z m-540
-201 c-28 -6 -27 -7 11 -8 60 -2 83 -25 99 -101 16 -73 20 -169 6 -155 -5 6
-13 48 -19 94 -6 49 -16 87 -24 92 -24 16 -52 4 -72 -30 l-20 -34 21 -36 c28
-49 21 -91 -16 -91 l-27 0 3 133 c2 72 5 137 7 143 3 7 16 9 33 6 l28 -6 -30
-7z m-58 -36 c-3 -10 -5 -2 -5 17 0 19 2 27 5 18 2 -10 2 -26 0 -35z m-17 -85
c0 -84 -3 -118 -10 -108 -6 8 -7 40 -4 70 7 68 -7 86 -60 76 -43 -8 -60 -44
-47 -99 12 -50 4 -77 -23 -77 -11 0 -38 -3 -59 -6 l-38 -7 13 29 c19 45 93
157 119 180 20 18 96 64 106 64 2 0 3 -55 3 -122z m-97 83 c-44 -31 -70 -64
-115 -145 -28 -48 -30 -29 -3 24 31 59 120 150 148 150 6 0 -8 -13 -30 -29z
m308 -67 c4 -22 8 -59 8 -84 l-1 -45 -8 50 c-4 28 -13 70 -18 94 -7 28 -7 40
0 33 5 -5 14 -27 19 -48z m309 49 c-14 -2 -40 -8 -57 -13 -18 -5 -33 -5 -33 0
0 9 38 17 85 17 25 0 26 0 5 -4z m25 -55 c-21 -146 -29 -186 -43 -208 -18 -30
-170 -207 -201 -234 -25 -23 -25 -25 -5 72 15 71 14 134 -2 175 -5 14 0 17 33
17 45 0 104 18 115 34 6 9 3 82 -6 150 -1 8 69 31 107 35 5 1 6 -18 2 -41z
m-400 7 c0 -5 -10 -11 -22 -13 -16 -2 -23 2 -23 13 0 11 7 15 23 13 12 -2 22
-7 22 -13z m-205 -5 c12 -8 9 -10 -12 -10 -16 0 -28 5 -28 10 0 13 20 13 40 0z
m-374 -232 c-1 -204 -2 -223 -18 -226 -15 -3 -18 4 -19 35 -4 343 -3 379 9
401 7 12 17 20 21 18 5 -3 8 -106 7 -228z m578 167 c-4 -8 -13 -15 -22 -15
-13 0 -12 3 4 15 24 18 25 18 18 0z m-124 -45 c0 -22 -3 -40 -8 -40 -4 0 -6
18 -4 40 2 22 6 40 8 40 2 0 4 -18 4 -40z m-83 24 c-3 -3 -12 -4 -19 -1 -8 3
-5 6 6 6 11 1 17 -2 13 -5z m233 -31 c0 -32 -5 -28 -14 10 -4 19 -3 26 4 22 5
-3 10 -18 10 -32z m-203 -10 c-3 -10 -5 -4 -5 12 0 17 2 24 5 18 2 -7 2 -21 0
-30z m173 2 c0 -16 -6 -25 -15 -25 -15 0 -21 31 -8 43 13 14 23 6 23 -18z
m-192 -4 c-5 -23 -48 -28 -48 -4 0 12 8 18 26 19 18 2 24 -2 22 -15z m-265
-24 c27 -8 54 -22 63 -35 40 -57 166 -80 310 -57 139 22 128 29 121 -72 -5
-94 -32 -221 -51 -239 -6 -6 -73 -44 -148 -83 -129 -67 -141 -71 -203 -71 -36
0 -82 -7 -102 -15 l-36 -15 8 72 c13 127 6 305 -15 406 -29 138 -32 131 53
109z m515 -22 c2 -2 -20 -8 -49 -15 -58 -14 -273 -8 -324 8 -22 8 10 10 128
10 87 0 161 3 165 6 5 5 72 -2 80 -9z m-322 -30 c38 -8 96 -15 129 -16 l60 -1
-45 -9 c-78 -16 -214 5 -242 38 -11 14 -10 15 8 9 12 -3 52 -13 90 -21z m330
-82 c-8 -102 -35 -253 -46 -253 -4 0 1 35 11 78 11 46 19 114 19 170 0 62 4
92 11 92 9 0 10 -25 5 -87z m30 -53 c-5 -79 -32 -188 -43 -176 -3 2 0 29 7 58
6 29 14 98 17 152 5 77 8 94 16 75 5 -13 6 -62 3 -109z m-684 -168 c28 2 34
-1 36 -19 3 -18 -4 -24 -35 -32 -71 -20 -103 -9 -103 34 0 34 19 46 46 29 13
-9 38 -14 56 -12z m33 -109 c4 -10 9 -79 12 -153 5 -119 4 -134 -9 -123 -31
26 -54 153 -43 238 7 56 26 73 40 38z m385 -134 c0 -31 -2 -58 -5 -61 -3 -3
-21 10 -40 28 -46 43 -46 75 -2 96 40 19 47 11 47 -63z m10 -149 c0 -5 -4 -10
-10 -10 -5 0 -10 5 -10 10 0 6 5 10 10 10 6 0 10 -4 10 -10z"/>
<path d="M1990 2748 c0 -29 -5 -219 -11 -423 -6 -203 -9 -395 -7 -425 1 -30 2
-107 2 -171 l-2 -117 91 -1 c50 -1 93 -3 94 -5 2 -2 -116 -5 -262 -9 -145 -3
-269 -8 -275 -12 -6 -4 -10 -68 -10 -171 0 -149 -7 -192 -24 -148 -8 20 -8
118 0 232 6 81 9 91 28 96 22 5 195 23 280 29 l49 3 -4 175 c-5 248 -2 372 10
469 12 90 15 267 5 257 -3 -3 -8 -47 -10 -99 -2 -51 -8 -136 -13 -188 -14
-132 -16 -290 -6 -452 l8 -137 -24 -5 c-13 -3 -62 -8 -109 -11 -127 -9 -214
-24 -225 -39 -5 -7 -10 -47 -10 -88 0 -59 -3 -75 -14 -74 -7 1 -16 -5 -18 -11
-3 -7 2 -13 11 -13 9 0 16 -7 16 -17 0 -9 -3 -13 -7 -10 -3 4 -12 2 -18 -3
-15 -13 -22 51 -31 303 -4 98 -11 174 -15 170 -5 -5 -4 -92 1 -193 5 -102 10
-296 10 -431 0 -188 3 -248 13 -251 6 -3 59 0 117 5 72 7 133 7 195 0 60 -8
138 -8 235 -2 134 8 405 4 458 -7 22 -4 23 -3 18 38 -3 24 -8 225 -11 448 -3
223 -9 421 -14 440 -8 33 -5 -778 3 -863 4 -33 1 -38 -22 -44 -15 -3 -79 -1
-142 5 -63 6 -135 9 -160 7 -151 -13 -318 -15 -360 -4 -34 9 -80 9 -176 2 -71
-6 -130 -9 -132 -8 -1 1 -4 66 -5 144 -2 127 0 143 16 152 21 12 22 29 2 29
-8 0 -15 7 -15 16 0 8 4 13 9 9 6 -3 14 3 20 12 8 14 10 4 11 -43 0 -70 10
-83 68 -95 l37 -7 -32 -1 c-21 -1 -36 -8 -43 -20 -11 -21 -3 -78 13 -99 14
-18 103 -16 111 4 9 25 7 83 -4 105 -14 25 -45 23 360 20 170 -1 257 -6 243
-11 -23 -9 -26 -20 -26 -73 1 -56 12 -75 45 -83 18 -4 27 -9 21 -11 -18 -7
-16 -23 3 -23 9 0 18 9 21 20 3 11 9 20 13 20 5 0 14 15 20 34 15 46 -3 116
-31 123 -19 5 -19 6 1 20 19 14 20 22 16 136 -7 160 -20 226 -49 232 -21 4
-65 8 -247 21 -60 5 -89 11 -98 23 -10 13 -12 125 -7 569 2 305 7 557 10 562
3 5 1 11 -5 15 -6 4 -10 -14 -10 -47z m217 -1154 c-3 -3 -12 -4 -19 -1 -8 3
-5 6 6 6 11 1 17 -2 13 -5z m153 -36 c6 -18 14 -91 16 -161 5 -140 0 -158 -45
-156 l-26 1 25 7 25 7 0 143 0 143 -28 24 -28 24 24 0 c19 0 28 -8 37 -32z
m-80 8 c19 -3 40 -13 46 -21 14 -19 25 -257 12 -270 -5 -6 -57 -8 -131 -6 -67
3 -224 5 -349 5 l-228 1 0 147 0 147 58 4 c79 6 549 0 592 -7z m-28 -324 c8
-8 -2 -10 -33 -7 -24 2 -170 5 -324 7 -154 1 -269 6 -255 10 38 12 600 2 612
-10z m-557 -92 c0 -44 -1 -45 -34 -48 -41 -4 -48 3 -53 48 -3 32 0 35 27 41
54 12 60 8 60 -41z m695 24 c14 -36 12 -67 -4 -89 -12 -16 -19 -18 -42 -10
-23 8 -30 18 -35 50 -9 52 4 75 42 75 22 0 32 -6 39 -26z"/>
<path d="M1630 1152 c0 -30 8 -45 20 -37 9 6 0 65 -11 65 -5 0 -9 -13 -9 -28z"/>
<path d="M2330 1151 c0 -5 6 -11 13 -14 9 -3 9 -7 0 -19 -7 -8 -10 -18 -6 -21
10 -11 43 -8 43 3 0 6 -4 10 -9 10 -4 0 -6 11 -3 25 3 20 0 25 -17 25 -11 0
-21 -4 -21 -9z"/>
<path d="M2135 2640 c-3 -5 -1 -10 4 -10 6 0 11 -21 11 -50 0 -27 5 -50 10
-50 6 0 10 23 10 50 0 28 5 50 10 50 6 0 10 -8 11 -17 1 -40 19 -89 19 -54 0
8 5 9 19 1 30 -15 36 -13 54 23 10 19 15 23 11 10 -3 -13 -1 -23 5 -23 6 0 11
-10 11 -22 0 -29 6 -20 13 19 5 26 1 38 -17 58 -26 28 -29 26 -40 -17 -3 -16
-13 -28 -21 -28 -12 0 -14 7 -9 26 4 17 2 29 -7 35 -19 12 -86 11 -94 -1z m85
-25 c0 -8 -2 -15 -4 -15 -2 0 -6 7 -10 15 -3 8 -1 15 4 15 6 0 10 -7 10 -15z"/>
<path d="M2424 2611 c-6 -33 -8 -34 -13 -12 -8 29 -32 46 -55 38 -20 -8 -21
-47 -2 -73 13 -16 18 -17 35 -6 14 8 21 8 21 2 0 -7 10 -4 22 4 31 22 36 20
41 -11 3 -16 4 -1 3 31 -1 53 -3 60 -23 61 -17 1 -23 -6 -29 -34z m-24 -9 c0
-4 -4 -13 -9 -21 -12 -19 -31 -4 -31 25 0 22 3 23 20 14 11 -6 20 -14 20 -18z
m61 -5 c-13 -13 -26 -3 -16 12 3 6 11 8 17 5 6 -4 6 -10 -1 -17z"/>
<path d="M2080 2619 c-10 -17 -8 -21 9 -26 12 -3 21 -12 21 -20 0 -11 -7 -14
-21 -10 -13 3 -19 1 -16 -6 6 -18 39 -14 51 6 9 16 7 22 -12 34 -21 15 -21 16
-5 29 17 12 17 13 1 14 -10 0 -22 -9 -28 -21z"/>
<path d="M3048 2613 c6 -2 18 -2 25 0 6 3 1 5 -13 5 -14 0 -19 -2 -12 -5z"/>
<path d="M1500 2491 c0 -5 7 -11 14 -14 10 -4 13 -1 9 9 -6 15 -23 19 -23 5z"/>
<path d="M1470 2026 c0 -14 5 -28 10 -31 6 -4 10 7 10 24 0 17 -4 31 -10 31
-5 0 -10 -11 -10 -24z"/>
<path d="M1478 1955 c-3 -3 -3 -18 0 -32 5 -25 6 -25 13 -8 14 36 6 59 -13 40z"/>
<path d="M3928 1823 c7 -3 16 -2 19 1 4 3 -2 6 -13 5 -11 0 -14 -3 -6 -6z"/>
<path d="M2460 1504 c0 -8 5 -12 10 -9 6 3 10 10 10 16 0 5 -4 9 -10 9 -5 0
-10 -7 -10 -16z"/>
<path d="M1525 1490 c-3 -5 1 -10 9 -10 9 0 16 5 16 10 0 6 -4 10 -9 10 -6 0
-13 -4 -16 -10z"/>
<path d="M2455 1470 c-4 -6 -3 -16 3 -22 6 -6 12 -6 17 2 4 6 3 16 -3 22 -6 6
-12 6 -17 -2z"/>
<path d="M2660 1447 c0 -9 21 -34 47 -56 58 -49 53 -61 -7 -21 -61 41 -67 14
-10 -41 42 -41 65 -45 42 -8 -12 19 -11 19 9 9 14 -8 25 -8 31 -2 6 6 -8 30
-43 68 -58 65 -69 73 -69 51z"/>
<path d="M2460 1390 c0 -5 5 -10 10 -10 6 0 10 5 10 10 0 6 -4 10 -10 10 -5 0
-10 -4 -10 -10z"/>
<path d="M2464 1347 c-8 -21 2 -35 16 -21 5 5 6 15 0 24 -8 12 -10 12 -16 -3z"/>
<path d="M3260 1341 c-17 -32 7 -121 33 -121 13 1 57 34 57 44 0 12 -28 5 -40
-9 -9 -11 -16 -13 -23 -6 -7 7 -5 17 8 31 22 24 13 39 -11 19 -16 -13 -17 -11
-10 24 8 41 2 48 -14 18z"/>
<path d="M2548 1308 c-7 -19 2 -38 18 -38 8 0 14 -4 14 -10 0 -5 -7 -7 -15 -4
-9 4 -15 0 -15 -9 0 -12 10 -16 41 -14 23 1 43 7 46 14 6 15 33 18 33 4 0 -11
59 -20 65 -10 13 21 -8 38 -46 36 -24 -2 -39 2 -39 9 0 17 -30 26 -45 14 -9
-8 -14 -6 -19 5 -7 18 -32 20 -38 3z m74 -50 c-7 -7 -12 -8 -12 -2 0 14 12 26
19 19 2 -3 -1 -11 -7 -17z"/>
<path d="M1311 1288 c-7 -17 -5 -26 7 -35 9 -8 11 -13 4 -13 -7 0 -12 -6 -12
-14 0 -19 79 -20 87 0 7 19 23 18 23 -1 0 -8 6 -15 14 -15 8 0 21 -3 30 -6 11
-4 16 0 16 14 0 13 -10 24 -30 31 -16 5 -30 8 -30 5 0 -3 -11 7 -23 22 -24 27
-47 26 -47 -2 0 -8 -5 -12 -10 -9 -6 4 -8 15 -5 26 9 27 -14 24 -24 -3z m76
-43 c-4 -8 -11 -15 -17 -15 -14 0 -13 27 3 33 16 6 21 1 14 -18z"/>
<path d="M4153 1298 c-31 -38 -45 -156 -23 -183 27 -32 60 -13 60 36 0 19 -9
23 -42 20 -22 -3 -22 -3 2 70 21 61 22 81 3 57z m17 -158 c0 -11 -7 -20 -15
-20 -15 0 -21 21 -8 33 12 13 23 7 23 -13z"/>
<path d="M4224 1275 c-20 -48 -18 -62 9 -69 22 -5 23 -9 19 -66 -2 -33 0 -60
5 -60 5 0 10 23 11 52 1 28 9 74 17 101 17 59 18 67 6 67 -5 0 -13 -17 -18
-37 -5 -23 -15 -39 -26 -41 -21 -4 -22 19 -2 58 10 19 11 30 5 30 -6 0 -18
-16 -26 -35z"/>
<path d="M4070 1179 c0 -77 4 -118 10 -114 6 4 10 55 10 121 0 69 -4 114 -10
114 -6 0 -10 -47 -10 -121z"/>
<path d="M4896 1263 c-10 -21 -27 -67 -37 -102 -17 -58 -17 -67 -4 -88 16 -24
45 -22 45 4 0 13 -3 13 -15 3 -12 -10 -16 -9 -21 4 -8 21 22 131 47 172 21 34
23 44 11 44 -5 0 -16 -17 -26 -37z"/>
<path d="M5716 1248 c-9 -29 -20 -59 -23 -65 -3 -9 6 -13 30 -13 l35 0 -14
-72 c-9 -45 -10 -76 -4 -82 10 -10 8 -20 47 203 4 24 2 32 -6 27 -6 -4 -11
-16 -11 -26 0 -11 -9 -24 -20 -30 -29 -15 -34 6 -15 59 17 51 18 51 7 51 -5 0
-16 -24 -26 -52z"/>
<path d="M2455 1281 c-6 -11 9 -23 19 -14 9 9 7 23 -3 23 -6 0 -12 -4 -16 -9z"/>
<path d="M2830 1263 c0 -4 48 -56 108 -116 l107 -108 -47 -44 c-53 -51 -86
-101 -74 -112 4 -4 38 25 74 65 l67 73 91 -93 c50 -51 107 -114 128 -141 21
-26 42 -44 48 -41 7 5 5 13 -8 23 -10 9 -39 41 -64 71 -25 30 -75 86 -113 124
l-67 70 60 61 c52 53 73 85 54 85 -3 0 -30 -27 -61 -60 -30 -33 -62 -60 -71
-60 -8 0 -62 47 -120 105 -102 104 -112 112 -112 98z"/>
<path d="M4587 1250 c-3 -8 -7 -24 -9 -34 -2 -13 -15 -23 -36 -28 -40 -11 -43
-30 -2 -22 l30 6 -15 -41 c-8 -22 -10 -41 -6 -41 12 0 54 135 48 156 -3 15 -5
16 -10 4z"/>
<path d="M1525 1241 c-6 -11 9 -23 19 -14 9 9 7 23 -3 23 -6 0 -12 -4 -16 -9z"/>
<path d="M5830 1203 c-1 -27 -5 -68 -10 -93 -4 -25 -7 -46 -5 -48 8 -9 55 12
55 25 0 10 -6 12 -20 8 -14 -4 -19 -2 -16 7 11 35 16 148 6 148 -5 0 -10 -21
-10 -47z"/>
<path d="M5915 1216 c-31 -7 -45 -14 -37 -19 6 -5 17 -5 23 -1 9 5 10 -14 4
-71 -6 -63 -4 -76 7 -73 8 3 13 20 13 44 1 99 3 104 35 111 17 3 30 9 30 14 0
11 -11 10 -75 -5z"/>
<path d="M2450 1200 c0 -13 5 -20 13 -17 6 2 12 10 12 17 0 7 -6 15 -12 18 -8
2 -13 -5 -13 -18z"/>
<path d="M1522 1176 c1 -10 8 -17 13 -17 15 1 12 24 -3 29 -9 3 -13 -2 -10
-12z"/>
<path d="M4316 1151 c-11 -12 -13 -21 -7 -25 5 -4 14 2 20 11 9 16 12 16 20 3
6 -8 8 -25 4 -37 -7 -28 13 -31 22 -3 3 11 11 20 16 20 6 0 8 -4 4 -9 -13 -22
19 -22 37 0 l20 24 -6 -27 c-7 -30 8 -39 18 -12 12 31 6 54 -13 54 -11 0 -22
-6 -24 -12 -4 -10 -8 -10 -15 1 -6 8 -17 11 -25 8 -9 -3 -18 1 -21 9 -8 20
-30 18 -50 -5z"/>
<path d="M4608 1159 c-11 -6 -18 -22 -18 -40 0 -36 15 -31 25 8 3 15 12 31 18
35 18 12 -6 9 -25 -3z"/>
<path d="M4938 1143 c-3 -16 -9 -36 -13 -45 -12 -28 11 -21 23 7 14 31 16 65
3 65 -5 0 -11 -12 -13 -27z"/>
<path d="M6170 1163 c0 -4 5 -15 10 -23 8 -13 10 -13 10 2 0 9 -4 20 -10 23
-5 3 -10 3 -10 -2z"/>
<path d="M4647 1153 c-9 -8 -9 -48 0 -56 3 -4 16 -1 27 6 18 12 23 12 39 -4
18 -16 18 -17 -3 -32 -16 -11 -18 -17 -9 -23 7 -4 20 2 31 17 20 23 20 24 -3
42 -19 16 -21 21 -11 38 7 10 8 19 3 19 -6 0 -13 -5 -16 -10 -4 -7 -12 -7 -25
0 -22 12 -25 12 -33 3z m23 -28 c0 -8 -4 -15 -10 -15 -5 0 -10 7 -10 15 0 8 5
15 10 15 6 0 10 -7 10 -15z"/>
<path d="M5514 1138 c22 -31 20 -43 -14 -81 -31 -36 -36 -47 -22 -47 5 0 21
17 35 37 21 30 27 34 33 20 10 -28 24 -19 18 12 -4 18 0 38 11 55 10 14 13 26
9 26 -5 0 -15 -10 -22 -21 l-14 -21 -14 21 c-8 11 -20 21 -25 21 -6 0 -3 -10
5 -22z"/>
<path d="M5980 1145 c-8 -10 -11 -30 -7 -56 6 -47 11 -54 32 -45 13 5 13 8 -5
26 -23 23 -24 33 -9 62 13 25 6 34 -11 13z"/>
<path d="M2450 1135 c0 -9 5 -15 11 -13 6 2 11 8 11 13 0 5 -5 11 -11 13 -6 2
-11 -4 -11 -13z"/>
<path d="M4490 1135 c-13 -16 -10 -47 5 -52 21 -6 36 14 29 40 -7 30 -16 34
-34 12z"/>
<path d="M4987 1121 c-8 -40 -1 -53 17 -29 10 14 14 14 22 2 12 -19 74 -31 74
-14 0 7 -7 10 -15 6 -19 -7 -19 8 -1 24 17 14 10 41 -9 34 -7 -3 -17 -15 -23
-27 -10 -21 -11 -21 -11 7 -1 28 -2 28 -20 12 -18 -17 -19 -17 -23 1 -3 12 -6
6 -11 -16z"/>
<path d="M5119 1114 c-11 -31 -12 -29 21 -37 25 -6 26 -4 22 28 -5 42 -28 47
-43 9z"/>
<path d="M5208 1128 c-18 -14 -34 -58 -21 -58 10 1 55 70 44 70 -4 0 -14 -6
-23 -12z"/>
<path d="M6033 1133 c-18 -7 -16 -43 2 -43 16 0 19 -17 9 -44 -3 -8 -12 -12
-20 -9 -8 3 -14 -1 -14 -11 0 -21 36 -21 44 0 3 9 6 26 6 39 0 26 26 40 54 29
12 -5 16 0 16 20 0 16 -6 26 -15 26 -8 0 -15 -7 -15 -15 0 -8 -4 -15 -10 -15
-5 0 -10 8 -10 18 0 14 -2 15 -10 2 -6 -10 -10 -11 -10 -2 0 13 -6 14 -27 5z"/>
<path d="M6140 1121 c0 -12 6 -21 16 -21 9 0 14 7 12 17 -5 25 -28 28 -28 4z"/>
<path d="M5332 1114 c-9 -16 -82 -48 -82 -36 0 3 7 14 17 24 15 17 15 18 -4
18 -13 0 -23 -8 -27 -22 -8 -34 8 -44 47 -30 57 21 84 13 55 -16 -9 -9 -8 -12
4 -12 25 0 41 25 24 39 -8 6 -12 21 -9 31 6 24 -12 27 -25 4z"/>
<path d="M1537 1113 c-12 -11 -8 -23 8 -23 8 0 15 7 15 15 0 16 -12 20 -23 8z"/>
<path d="M2455 1090 c-4 -7 -2 -17 4 -23 6 -6 11 -7 11 -1 0 5 4 3 9 -5 5 -7
11 -9 13 -5 9 14 -29 47 -37 34z"/>
<path d="M6155 1069 c-16 -16 -25 -29 -19 -29 18 0 57 35 53 47 -2 6 -17 -3
-34 -18z"/>
<path d="M1646 1061 c-4 -7 -5 -15 -2 -18 9 -9 19 4 14 18 -4 11 -6 11 -12 0z"/>
<path d="M1565 1049 c-4 -6 -5 -13 -2 -16 7 -7 27 6 27 18 0 12 -17 12 -25 -2z"/>
<path d="M1735 1049 c-4 -6 -5 -13 -2 -16 7 -7 27 6 27 18 0 12 -17 12 -25 -2z"/>
<path d="M1805 1049 c-10 -15 3 -25 16 -12 7 7 7 13 1 17 -6 3 -14 1 -17 -5z"/>
<path d="M2085 1051 c-6 -11 9 -23 19 -14 9 9 7 23 -3 23 -6 0 -12 -4 -16 -9z"/>
<path d="M2145 1049 c-4 -6 -5 -12 -2 -15 7 -7 37 7 37 17 0 13 -27 11 -35 -2z"/>
<path d="M1860 1035 c0 -9 5 -15 11 -13 6 2 11 8 11 13 0 5 -5 11 -11 13 -6 2
-11 -4 -11 -13z"/>
<path d="M1925 1041 c-6 -11 9 -23 19 -14 9 9 7 23 -3 23 -6 0 -12 -4 -16 -9z"/>
<path d="M2000 1034 c0 -17 22 -14 28 4 2 7 -3 12 -12 12 -9 0 -16 -7 -16 -16z"/>
<path d="M2205 1040 c-3 -5 1 -10 9 -10 9 0 16 5 16 10 0 6 -4 10 -9 10 -6 0
-13 -4 -16 -10z"/>
<path d="M2405 1040 c-3 -5 3 -10 15 -10 12 0 18 5 15 10 -3 6 -10 10 -15 10
-5 0 -12 -4 -15 -10z"/>
<path d="M2285 1031 c-7 -12 12 -24 25 -16 11 7 4 25 -10 25 -5 0 -11 -4 -15
-9z"/>
<path d="M760 980 c0 -5 5 -10 10 -10 6 0 10 5 10 10 0 6 -4 10 -10 10 -5 0
-10 -4 -10 -10z"/>
<path d="M1966 928 c-22 -32 -20 -58 4 -58 23 0 41 31 21 38 -9 3 -9 7 -1 17
7 8 7 15 1 19 -5 4 -17 -4 -25 -16z"/>
<path d="M2021 928 c-7 -16 -5 -26 5 -34 8 -6 14 -16 14 -23 0 -27 18 -8 25
25 4 26 2 39 -7 45 -20 13 -28 11 -37 -13z"/>
<path d="M2085 911 c-3 -2 -5 -11 -5 -19 0 -10 7 -12 26 -8 21 6 25 4 21 -8
-4 -10 -1 -16 9 -16 11 0 14 8 12 27 -2 21 -8 27 -31 28 -15 0 -30 -1 -32 -4z"/>
<path d="M4173 833 c-37 -19 -78 -44 -89 -55 -35 -32 -72 -110 -79 -169 -13
-107 31 -157 180 -201 76 -22 96 -23 365 -23 612 1 1164 12 1198 25 31 12 42
33 22 45 -6 4 -10 54 -10 116 0 118 -13 161 -62 205 -48 44 -82 47 -493 49
-214 1 -437 5 -495 9 -163 10 -381 26 -427 31 -33 4 -54 -3 -110 -32z m272 1
c111 -10 370 -18 675 -23 558 -7 546 -6 597 -82 27 -41 28 -47 28 -170 l0
-128 -41 -10 c-40 -10 -359 -15 -1119 -16 l-330 0 -86 28 c-59 19 -94 36 -115
58 -26 28 -29 37 -29 97 1 75 23 128 72 174 29 28 138 88 157 88 6 0 92 -8
191 -16z"/>
<path d="M4406 778 c-17 -26 -36 -112 -36 -163 0 -39 33 -54 62 -28 34 31 13
82 -25 61 -19 -10 -20 -8 -14 36 4 25 14 60 23 77 19 38 12 50 -10 17z m24
-157 c0 -22 -15 -35 -30 -26 -7 4 -7 13 0 26 14 25 30 25 30 0z"/>
<path d="M4192 767 c-28 -30 -42 -70 -42 -120 0 -55 13 -76 37 -61 27 16 39
59 23 79 -10 12 -16 13 -27 4 -7 -7 -16 -9 -19 -7 -7 8 23 78 43 100 9 10 14
20 11 23 -2 3 -14 -5 -26 -18z m-2 -161 c-20 -20 -32 16 -12 37 17 19 17 19
20 -3 2 -12 -1 -27 -8 -34z"/>
<path d="M4288 785 c-2 -3 -3 -18 0 -35 3 -22 10 -30 24 -30 16 0 19 -6 16
-37 -3 -32 -6 -38 -26 -37 -26 1 -24 -19 3 -25 23 -4 45 25 45 60 0 38 -9 59
-26 59 -8 0 -14 7 -14 15 0 8 7 15 15 15 8 0 15 5 15 10 0 10 -42 14 -52 5z"/>
<path d="M4572 750 c-27 -59 -38 -125 -23 -135 16 -9 61 2 61 15 0 6 -11 8
-27 4 -26 -7 -26 -7 -19 36 4 23 13 55 22 72 8 16 13 35 11 41 -3 7 -14 -8
-25 -33z"/>
<path d="M4646 697 c-8 -29 -8 -82 0 -74 11 10 22 87 14 92 -4 3 -10 -5 -14
-18z"/>
<path d="M4695 700 c-3 -5 -1 -10 6 -10 8 0 9 -13 5 -45 -4 -26 -3 -45 2 -45
5 0 12 19 15 42 3 24 11 44 16 46 6 2 9 8 5 13 -7 12 -41 12 -49 -1z"/>
<path d="M4772 698 c-13 -13 -17 -102 -4 -94 5 3 21 -2 37 -10 72 -37 119 29
51 70 -13 9 -20 7 -31 -8 -8 -10 -16 -24 -18 -30 -2 -6 -7 -8 -11 -4 -4 3 0
20 8 37 9 16 16 35 16 41 0 14 -33 13 -48 -2z m14 -40 c-19 -26 -20 -20 -5 19
6 15 13 22 16 16 2 -7 -3 -23 -11 -35z m82 -35 c3 -23 -18 -36 -37 -23 -10 6
-10 12 -1 29 13 26 34 23 38 -6z"/>
<path d="M5348 699 c-18 -10 -24 -61 -12 -105 9 -32 48 -47 67 -26 19 20 37
66 37 92 0 41 -52 63 -92 39z m69 -61 c-3 -23 -12 -48 -21 -56 -23 -24 -46 6
-46 62 0 48 17 62 54 43 15 -7 17 -17 13 -49z"/>
<path d="M4909 674 c-10 -13 -10 -20 4 -44 21 -35 21 -44 2 -36 -9 3 -15 0
-15 -9 0 -20 36 -19 44 1 4 9 -1 28 -9 41 -9 13 -13 33 -10 43 8 24 2 25 -16
4z"/>
<path d="M5157 664 c-12 -23 -15 -24 -26 -10 -21 25 -33 19 -16 -8 15 -22 15
-27 1 -55 -18 -34 -19 -41 -8 -41 4 0 12 10 17 23 6 13 17 21 28 19 18 -3 23
13 7 23 -6 4 -3 17 10 35 22 31 25 40 10 40 -5 0 -15 -12 -23 -26z"/>
<path d="M5539 627 c-6 -22 -16 -48 -22 -58 -15 -24 1 -39 17 -16 21 28 46 21
46 -13 0 -16 5 -30 10 -30 6 0 10 13 10 28 0 15 6 34 12 40 10 10 10 15 1 20
-6 4 -13 20 -15 36 -2 22 -9 30 -26 31 -18 1 -24 -6 -33 -38z m44 -17 c-3 -11
-9 -20 -14 -20 -10 0 -11 12 -3 34 9 22 23 10 17 -14z"/>
<path d="M5470 606 c0 -31 5 -56 10 -56 6 0 10 22 10 49 0 28 -4 53 -10 56 -6
4 -10 -15 -10 -49z"/>
<path d="M2820 804 c0 -42 15 -74 35 -74 17 0 35 30 35 59 0 25 -26 51 -51 51
-15 0 -19 -7 -19 -36z m45 -17 c0 -15 -4 -26 -10 -24 -5 1 -10 14 -10 30 -1
15 4 26 10 24 5 -2 10 -16 10 -30z"/>
<path d="M3442 688 c-15 -15 -16 -70 -1 -85 8 -8 16 -9 29 -1 29 18 67 2 79
-34 9 -26 9 -34 -4 -40 -23 -13 -18 -30 8 -26 31 4 34 45 4 88 -19 30 -29 35
-62 36 -33 0 -41 4 -43 22 -2 12 1 22 7 22 6 0 11 7 11 15 0 18 -12 19 -28 3z"/>
<path d="M1798 589 c-21 -12 -24 -31 -4 -23 16 6 31 -55 21 -86 -3 -10 -1 -21
5 -25 5 -3 10 -21 10 -38 0 -18 5 -39 11 -47 7 -11 9 1 4 43 -5 46 -4 58 7 55
7 -1 13 2 13 7 0 6 -5 9 -11 7 -13 -3 -24 29 -24 71 0 22 4 27 26 27 14 0 23
4 19 10 -8 13 -55 12 -77 -1z"/>
<path d="M2198 493 c-14 -16 -14 -23 1 -72 17 -57 38 -78 65 -68 12 5 16 19
16 57 0 41 -5 56 -25 75 -29 30 -37 31 -57 8z m50 -26 c15 -18 26 -93 15 -100
-13 -8 -33 7 -38 29 -2 10 -7 34 -11 52 -5 25 -3 32 9 32 8 0 19 -6 25 -13z"/>
<path d="M1962 483 c-6 -3 -9 -9 -6 -14 3 -6 0 -16 -6 -24 -18 -22 -3 -55 25
-55 27 0 48 30 43 62 -3 22 -34 38 -56 31z m38 -37 c0 -13 -6 -29 -13 -35 -26
-21 -38 18 -14 44 18 21 27 18 27 -9z"/>
<path d="M2065 449 c12 -75 28 -80 46 -16 10 35 13 39 20 22 4 -11 8 -32 8
-47 1 -16 6 -28 12 -28 14 0 4 77 -13 97 -12 15 -38 0 -38 -23 0 -8 -4 -14
-10 -14 -5 0 -10 9 -10 19 0 11 -5 23 -11 27 -8 5 -9 -6 -4 -37z"/>
<path d="M2322 478 c-28 -28 -6 -98 31 -98 43 0 61 45 37 91 -12 21 -50 25
-68 7z m52 -14 c10 -27 7 -62 -7 -67 -29 -11 -54 32 -37 64 13 23 36 25 44 3z"/>
<path d="M5794 419 c-8 -14 11 -33 25 -25 16 10 13 36 -3 36 -8 0 -18 -5 -22
-11z"/>
<path d="M5860 370 c0 -11 7 -20 15 -20 8 0 15 9 15 20 0 11 -7 20 -15 20 -8
0 -15 -9 -15 -20z"/>
<path d="M5912 328 c2 -12 10 -23 18 -23 22 0 19 39 -3 43 -15 3 -18 -1 -15
-20z"/>
<path d="M4342 317 c-18 -21 -35 -115 -27 -153 l6 -35 53 4 c29 2 57 7 63 10
6 4 16 0 23 -8 22 -26 50 -18 66 20 28 68 13 135 -31 135 -14 0 -34 5 -44 12
-15 9 -23 9 -35 -1 -18 -15 -22 -56 -6 -66 6 -3 5 -15 -2 -30 -13 -29 -23 -32
-32 -9 -4 10 -13 14 -26 11 -19 -5 -20 -2 -14 31 4 21 11 48 16 61 10 28 5 37
-10 18z m108 -34 c0 -5 -7 -16 -14 -26 -16 -20 -30 -8 -20 17 6 16 34 23 34 9z
m68 -58 c3 -43 -17 -83 -36 -71 -13 8 -17 98 -5 110 18 18 38 -1 41 -39z m-67
-1 c-5 -16 -10 -21 -10 -12 -1 18 10 51 15 45 2 -1 -1 -16 -5 -33z"/>
<path d="M4609 283 c-7 -21 -13 -66 -13 -101 -1 -52 3 -66 18 -78 24 -17 28
-17 52 0 15 12 17 17 7 27 -10 10 -13 10 -13 1 0 -19 -28 -14 -40 7 -14 26
-13 56 4 119 15 61 4 80 -15 25z"/>
<path d="M5339 258 c0 -35 -4 -72 -9 -83 -7 -17 -11 -12 -30 32 -12 29 -26 50
-31 47 -12 -7 -11 -181 1 -189 6 -4 10 19 10 62 1 66 1 67 16 41 16 -31 24
-34 42 -16 9 9 12 3 12 -29 0 -43 16 -65 30 -42 5 7 5 20 0 28 -4 9 -11 60
-15 114 -8 108 -25 131 -26 35z"/>
<path d="M4170 281 c-15 -29 -12 -71 5 -77 10 -4 15 -20 15 -48 0 -48 7 -61
26 -45 9 7 10 19 3 42 -5 18 -9 58 -9 89 0 44 -3 58 -15 58 -8 0 -19 -9 -25
-19z m17 -48 c-3 -10 -5 -2 -5 17 0 19 2 27 5 18 2 -10 2 -26 0 -35z"/>
<path d="M4131 192 c-1 -79 2 -103 12 -99 13 5 12 104 -3 166 -6 28 -8 12 -9
-67z"/>
<path d="M4750 221 c0 -17 -4 -33 -10 -36 -5 -3 -10 -11 -10 -16 0 -6 5 -7 10
-4 6 4 10 -12 10 -39 0 -25 4 -46 9 -46 10 0 18 76 13 133 -4 44 -22 50 -22 8z"/>
<path d="M5102 200 c-9 -22 -20 -40 -23 -40 -3 0 -13 16 -22 35 -9 19 -22 35
-28 35 -6 0 1 -21 15 -46 l26 -46 -22 -39 c-26 -46 -18 -64 8 -20 13 22 24 29
36 25 20 -6 24 6 7 23 -7 7 -3 25 15 62 15 28 21 51 15 51 -6 0 -18 -18 -27
-40z"/>
<path d="M4690 155 c0 -25 5 -45 10 -45 6 0 10 20 10 45 0 25 -4 45 -10 45 -5
0 -10 -20 -10 -45z"/>
<path d="M5571 169 c-6 -18 -11 -41 -11 -51 0 -13 -6 -18 -17 -16 -14 2 -18
13 -18 43 0 29 -4 40 -15 40 -11 0 -14 -10 -13 -39 3 -46 -10 -66 -43 -66 -31
0 -31 22 1 54 15 15 22 31 19 40 -18 47 -67 -19 -62 -82 2 -30 7 -38 26 -40
13 -2 30 2 38 8 10 9 14 9 14 1 0 -19 38 -12 45 9 7 23 21 26 32 6 12 -21 73
-26 73 -6 0 6 -11 8 -25 4 -28 -7 -45 17 -27 39 6 6 13 29 17 50 6 29 4 37 -8
37 -8 0 -20 -14 -26 -31z m-118 -14 c-3 -9 -8 -14 -10 -11 -3 3 -2 9 2 15 9
16 15 13 8 -4z"/>
<path d="M4796 164 c-9 -25 -7 -64 4 -64 6 0 10 18 10 40 0 43 -4 50 -14 24z"/>
<path d="M4250 160 c0 -5 4 -10 9 -10 6 0 13 5 16 10 3 6 -1 10 -9 10 -9 0
-16 -4 -16 -10z"/>
<path d="M4830 151 c0 -11 5 -23 10 -26 6 -4 10 5 10 19 0 14 -4 26 -10 26 -5
0 -10 -9 -10 -19z"/>
</g>
</svg>
