<?xml version="1.0" standalone="no"?>
<!DOCTYPE svg PUBLIC "-//W3C//DTD SVG 20010904//EN"
 "http://www.w3.org/TR/2001/REC-SVG-20010904/DTD/svg10.dtd">
<svg version="1.0" xmlns="http://www.w3.org/2000/svg"
 width="2126.000000pt" height="2126.000000pt" viewBox="0 0 2126.000000 2126.000000"
 preserveAspectRatio="xMidYMid meet">

<g transform="translate(0.000000,2126.000000) scale(0.100000,-0.100000)"
fill="#000000" stroke="none">
<path d="M3320 10630 l0 -9400 7305 0 7305 0 0 9400 0 9400 -7305 0 -7305 0 0
-9400z m2199 9269 c17 -6 31 -14 31 -18 0 -4 6 -8 13 -8 6 0 45 -16 85 -36 40
-20 91 -42 113 -48 59 -18 67 -34 37 -67 -14 -15 -29 -41 -33 -59 -3 -17 -12
-36 -19 -42 -8 -7 -11 -22 -8 -38 3 -14 1 -23 -4 -20 -5 3 -8 -22 -6 -56 1
-34 -2 -114 -7 -177 -23 -264 0 -891 39 -1040 5 -19 11 -80 14 -135 2 -55 10
-113 16 -130 7 -16 14 -57 15 -90 2 -33 7 -69 11 -79 5 -12 3 -21 -4 -24 -7
-2 -12 -8 -12 -13 0 -6 4 -7 10 -4 5 3 11 -4 14 -17 2 -13 8 -43 13 -68 5 -25
9 -78 8 -117 0 -45 4 -74 11 -77 6 -2 14 -27 16 -56 4 -41 12 -59 40 -88 40
-43 88 -126 88 -153 0 -11 -7 -19 -15 -19 -9 0 -15 9 -15 23 0 27 -55 97 -77
97 -13 0 -15 -10 -10 -61 5 -39 3 -58 -3 -54 -6 3 -10 2 -10 -4 0 -5 6 -14 13
-18 16 -10 38 -81 27 -88 -5 -3 -11 1 -13 7 -4 8 -6 7 -6 -4 -1 -9 7 -23 17
-30 10 -7 26 -40 36 -73 10 -33 23 -69 28 -81 5 -11 11 -40 12 -62 1 -23 7
-47 14 -54 7 -7 12 -19 12 -27 0 -9 7 -25 15 -35 8 -11 15 -29 15 -41 0 -11 8
-36 19 -55 10 -19 22 -46 26 -60 4 -14 13 -38 20 -55 41 -96 59 -144 68 -175
11 -43 16 -190 5 -190 -4 0 -5 -65 -2 -145 3 -80 2 -145 -3 -145 -5 0 -7 -17
-6 -37 3 -67 -56 -207 -118 -280 -57 -67 -154 -91 -235 -57 -120 50 -282 239
-315 368 -4 17 -17 65 -29 106 -11 41 -22 103 -25 137 -2 35 -6 67 -9 72 -3 5
-10 73 -15 152 -9 150 -12 159 -83 319 -14 30 -23 61 -20 69 2 8 -5 21 -18 31
-15 11 -22 28 -24 56 -1 21 -6 45 -10 53 -7 10 -4 12 13 6 22 -7 22 -5 15 68
-4 48 -3 81 4 93 10 17 12 14 13 -16 5 -139 51 -310 84 -310 24 0 26 16 15
142 -5 68 -12 156 -15 195 -3 40 -10 84 -14 97 -7 16 -6 27 2 35 16 16 -7 31
-48 31 -47 1 -108 34 -143 78 -36 45 -67 131 -84 235 -10 61 -15 72 -53 105
-46 40 -228 138 -312 167 -29 11 -53 23 -53 28 0 22 83 -7 223 -78 82 -41 154
-75 158 -75 5 0 9 29 9 64 0 59 -3 67 -39 112 -42 53 -51 75 -56 132 -2 20
-10 63 -19 94 -24 90 -38 269 -30 411 11 207 3 218 -191 261 -38 9 -96 16
-127 16 -31 0 -60 5 -63 10 -8 13 -45 13 -45 -1 0 -13 -79 -8 -83 5 -4 19 71
28 203 23 145 -5 212 -20 275 -63 51 -34 62 -31 69 19 13 86 56 127 133 127
27 0 33 3 26 13 -20 24 -73 233 -73 283 0 22 3 26 10 14 8 -13 10 -12 11 5 1
11 5 -2 10 -30 5 -27 7 -58 5 -67 -2 -10 -1 -18 4 -18 4 0 10 -21 14 -46 3
-26 10 -52 15 -58 5 -6 18 -40 30 -76 31 -99 44 -132 67 -170 12 -19 38 -71
59 -115 20 -44 47 -100 60 -125 12 -25 28 -66 36 -92 7 -27 17 -48 21 -48 4 0
8 -7 8 -16 0 -9 12 -39 27 -67 20 -36 24 -52 15 -55 -6 -2 -12 -8 -12 -13 0
-6 4 -8 9 -5 12 8 38 -25 47 -59 4 -16 15 -41 26 -54 10 -13 18 -31 18 -40 0
-9 9 -27 20 -41 11 -14 20 -29 20 -34 0 -9 56 -131 71 -156 5 -8 25 -46 43
-83 19 -37 39 -73 44 -80 5 -7 13 -23 17 -37 10 -32 29 -50 54 -50 16 0 21 6
21 26 0 14 -4 23 -9 20 -5 -4 -12 6 -15 21 -16 79 -36 224 -52 363 -2 19 -9
67 -14 105 -6 39 -12 88 -15 110 -3 22 -7 54 -10 70 -11 62 -20 183 -20 278 0
53 -3 97 -7 97 -4 0 -8 24 -8 53 0 28 -1 135 -3 237 -3 250 8 562 23 633 6 32
20 79 31 104 20 46 20 46 -1 68 -11 12 -20 26 -20 32 0 6 -8 9 -19 6 -10 -2
-54 13 -97 35 -82 42 -120 50 -166 37 -24 -6 -28 -12 -28 -45 0 -22 -4 -41 -9
-44 -5 -3 -12 -36 -16 -73 -4 -38 -11 -73 -16 -79 -9 -11 -15 -32 -24 -79 -15
-85 -25 -120 -38 -130 -9 -6 -15 -18 -15 -26 2 -31 -2 -50 -11 -45 -5 3 -11
-13 -15 -35 -5 -29 -11 -39 -20 -36 -8 3 -17 -1 -20 -9 -6 -16 -47 -19 -74 -5
-9 5 -25 12 -34 15 -11 3 -15 12 -11 26 6 22 32 24 74 6 36 -16 87 69 113 187
10 42 22 77 27 77 5 0 9 15 9 33 0 17 14 79 30 137 17 58 30 120 30 137 l0 33
54 0 c29 0 67 -5 85 -11z m-1288 -325 c4 -11 3 -27 -1 -34 -6 -10 -15 -7 -40
14 -26 22 -35 24 -47 14 -27 -22 -32 -55 -23 -140 5 -45 7 -84 5 -86 -12 -12
-38 80 -39 139 -1 52 3 71 18 87 33 37 114 41 127 6z m14 -93 c-3 -11 -1 -22
4 -25 5 -4 9 -48 9 -99 -1 -147 13 -391 23 -403 5 -7 9 -16 8 -20 -4 -17 14
-67 30 -84 9 -10 25 -29 36 -43 14 -16 23 -21 28 -13 5 7 7 3 5 -9 -2 -11 -12
-21 -22 -23 -13 -3 -16 0 -11 9 5 8 4 10 -4 5 -19 -12 -62 23 -81 67 -24 54
-41 195 -41 327 1 128 1 119 -3 207 -2 42 0 71 5 67 5 -3 9 0 9 5 0 6 -4 11
-10 11 -5 0 -10 9 -10 20 0 11 7 20 16 20 11 0 13 -6 9 -19z m171 -202 c13
-22 6 -187 -12 -246 -26 -85 -46 -101 -27 -22 11 47 13 91 9 165 -4 55 -3 103
0 107 10 10 22 9 30 -4z m679 -29 c3 -5 -1 -10 -9 -10 -9 0 -16 5 -16 10 0 6
4 10 9 10 6 0 13 -4 16 -10z m-735 -821 c5 -35 14 -86 21 -114 6 -27 12 -61
13 -75 0 -14 9 -34 19 -44 9 -11 17 -25 17 -32 0 -24 59 -130 99 -178 46 -54
71 -75 133 -112 24 -14 34 -23 23 -20 -11 2 -35 7 -52 11 -80 16 -251 279
-268 410 -2 20 -6 45 -9 54 -8 28 -18 176 -12 170 4 -3 11 -35 16 -70z m1000
-1259 c0 -5 -5 -10 -11 -10 -5 0 -7 5 -4 10 3 6 8 10 11 10 2 0 4 -4 4 -10z
m-30 -50 c0 -5 -2 -10 -4 -10 -3 0 -8 5 -11 10 -3 6 -1 10 4 10 6 0 11 -4 11
-10z m-33 -1637 c77 -76 162 -167 188 -203 167 -221 279 -341 415 -442 89 -66
145 -122 136 -137 -4 -7 -1 -9 8 -5 9 3 19 -3 26 -18 7 -13 28 -38 47 -56 43
-40 39 -58 -12 -54 l-38 4 7 -104 c4 -56 8 -119 9 -138 3 -56 -24 -43 -60 29
-35 68 -43 114 -19 105 21 -8 28 10 30 82 1 35 8 70 14 76 9 9 5 20 -14 45
-31 41 -104 109 -169 160 -93 71 -251 238 -345 363 -107 142 -212 259 -317
350 -40 35 -73 67 -73 71 0 28 43 -6 167 -128z m3222 -609 c179 -55 308 -140
496 -329 130 -129 252 -282 299 -373 37 -72 55 -150 54 -239 0 -137 26 -181
104 -169 81 13 340 16 524 6 271 -14 909 -107 1104 -160 353 -97 544 -177 613
-255 26 -30 49 -74 42 -85 -3 -5 0 -12 5 -15 22 -14 60 -155 60 -221 0 -40
-19 -96 -31 -88 -5 3 -6 -1 -3 -9 8 -21 -50 -65 -141 -107 -72 -34 -129 -50
-220 -64 -16 -2 -59 -9 -95 -15 -36 -6 -130 -16 -210 -21 -498 -35 -666 -42
-1089 -45 -290 -3 -467 -8 -470 -14 -4 -6 -71 -5 -191 5 -222 17 -276 25 -403
53 -90 21 -97 24 -97 47 0 29 -3 29 94 4 52 -14 121 -22 205 -25 224 -7 340
-21 372 -44 28 -21 31 -21 87 -6 53 15 234 21 253 9 17 -10 353 -7 504 5 88 6
275 21 415 31 261 20 387 34 475 50 28 5 93 17 145 26 121 21 221 55 266 89
19 15 41 25 47 22 7 -3 14 3 15 12 1 9 5 35 8 57 12 87 -43 270 -100 327 -14
14 -26 31 -26 37 0 5 -4 10 -10 10 -5 0 -42 15 -82 34 -186 85 -630 208 -856
236 -45 6 -93 14 -105 19 -12 5 -58 12 -102 15 -44 4 -98 11 -120 16 -192 42
-986 46 -1041 5 -13 -9 -23 -10 -35 -2 -21 13 -50 2 -43 -16 3 -8 18 -17 33
-20 15 -3 38 -15 52 -26 l24 -20 -40 -1 c-22 0 -54 8 -70 19 -33 19 -61 15
-84 -13 -7 -9 -23 -16 -35 -16 -33 0 -49 -15 -42 -37 5 -16 16 -21 52 -21 63
-2 158 -19 234 -44 89 -29 234 -93 271 -120 30 -22 59 -65 59 -87 0 -20 -55
-39 -148 -51 -151 -21 -528 1 -605 35 -24 10 -34 9 -65 -6 -57 -28 -161 -34
-280 -15 -94 15 -140 14 -115 -3 6 -3 30 -35 55 -71 24 -36 64 -92 89 -125 24
-32 66 -90 93 -129 27 -39 65 -92 85 -118 20 -26 72 -95 116 -154 73 -98 139
-182 212 -274 40 -49 106 -123 198 -220 44 -47 111 -120 148 -163 38 -42 73
-77 79 -77 6 0 28 18 50 41 49 50 43 59 -46 68 -75 8 -102 26 -91 61 5 17 12
20 28 15 62 -19 96 -22 109 -9 11 11 20 12 47 1 32 -12 33 -11 74 38 94 112
105 122 113 101 4 -10 2 -33 -4 -50 -9 -24 -8 -40 1 -68 8 -21 16 -40 19 -44
4 -3 86 -9 184 -14 199 -9 421 0 594 24 63 9 162 22 220 30 219 30 395 56 407
61 22 8 14 22 -18 35 -23 10 -76 12 -216 7 -251 -9 -236 3 42 33 120 13 175 7
234 -27 35 -20 51 -24 80 -18 20 4 43 8 51 9 51 9 123 53 166 102 49 58 87 71
99 34 7 -22 24 -27 26 -7 1 6 3 28 5 47 13 143 5 210 -28 247 -16 17 -19 30
-14 57 7 36 28 47 43 24 4 -7 16 -44 26 -83 18 -70 26 -252 13 -274 -4 -6 4
-26 18 -44 34 -44 43 -72 61 -197 17 -114 22 -283 30 -1040 7 -617 13 -969 20
-1130 3 -69 8 -199 10 -290 3 -91 10 -262 15 -380 21 -468 23 -590 8 -590 -10
0 -10 -2 0 -8 9 -6 19 -123 37 -443 14 -239 27 -443 29 -454 3 -11 8 -63 11
-115 4 -52 8 -102 10 -110 2 -8 7 -60 10 -115 4 -55 10 -118 14 -140 6 -39 8
-40 48 -40 51 0 60 -8 45 -39 -8 -18 -20 -26 -44 -28 -31 -3 -33 -5 -30 -38 9
-110 12 -145 26 -240 8 -58 20 -148 26 -200 7 -52 18 -135 26 -185 7 -49 24
-182 38 -295 14 -113 30 -232 36 -265 10 -62 39 -277 65 -490 14 -115 25 -185
45 -305 5 -30 21 -138 35 -240 25 -183 46 -320 86 -558 12 -68 19 -132 16
-143 -3 -10 -1 -19 3 -19 7 0 15 -41 26 -130 2 -14 6 -37 10 -52 7 -31 -9 -39
-21 -10 -9 22 -18 77 -19 125 -1 20 -4 37 -7 37 -7 0 -15 55 -26 165 -3 33 -9
65 -13 70 -8 10 -16 42 -25 100 -3 17 -12 68 -21 114 -8 47 -17 129 -20 184
-2 56 -9 106 -16 114 -11 13 -29 136 -44 293 -4 36 -11 71 -16 77 -6 7 -8 23
-4 36 3 13 2 27 -2 31 -7 8 -10 31 -16 132 -2 34 -8 76 -14 95 -11 34 -19 87
-26 184 -8 112 -19 191 -28 202 -5 6 -8 29 -7 50 2 21 -1 45 -6 53 -5 8 -13
57 -17 110 -5 52 -13 122 -19 155 -6 33 -12 80 -14 105 -2 25 -8 63 -14 85 -6
22 -11 62 -11 88 0 27 -5 57 -10 67 -6 10 -14 63 -20 117 -5 54 -16 145 -24
203 -8 58 -12 114 -10 126 8 33 -14 44 -66 33 -25 -6 -108 -14 -185 -19 -77
-5 -174 -14 -215 -19 -41 -6 -122 -15 -180 -21 -58 -5 -116 -12 -130 -14 -72
-13 -381 -43 -515 -50 -60 -3 -209 -8 -330 -11 -121 -3 -254 -7 -295 -10 -41
-3 -183 -7 -315 -10 -132 -2 -382 -7 -555 -10 -269 -4 -1426 9 -1530 19 -19 2
-123 8 -230 15 -107 7 -217 16 -245 20 -97 14 -111 -7 -39 -59 25 -18 74 -56
108 -84 33 -29 106 -79 161 -111 55 -32 132 -77 170 -100 98 -59 175 -96 285
-140 179 -70 225 -90 320 -136 239 -116 573 -201 865 -220 83 -5 155 -11 162
-14 7 -2 15 -1 17 4 3 4 44 11 91 14 115 8 281 41 623 123 108 27 329 113 403
159 123 76 154 97 219 151 30 24 73 58 95 75 22 16 60 49 85 72 25 24 62 56
83 72 21 17 59 47 85 67 52 42 82 49 82 19 0 -12 -28 -42 -72 -78 -40 -32
-102 -87 -139 -123 -101 -98 -159 -142 -181 -137 -10 3 -21 1 -24 -4 -3 -5 1
-9 8 -9 7 0 2 -9 -12 -20 -53 -43 -112 -80 -126 -80 -7 0 -14 -4 -14 -8 0 -12
-84 -65 -145 -92 -27 -13 -60 -27 -72 -33 -16 -7 -27 -6 -39 3 -14 12 -15 11
-12 -5 2 -13 -6 -21 -27 -27 -16 -5 -39 -13 -50 -18 -44 -19 -88 -29 -97 -24
-5 3 -14 2 -21 -3 -14 -11 -165 -50 -297 -77 -312 -62 -289 -60 -490 -60 -203
-1 -353 12 -492 43 -27 6 -69 15 -94 21 -25 5 -50 12 -55 16 -6 3 -38 13 -72
21 -34 7 -72 20 -84 28 -12 8 -30 15 -40 15 -10 0 -83 29 -162 65 -80 36 -151
65 -158 65 -7 0 -21 4 -31 10 -33 18 -157 69 -187 76 -16 4 -50 17 -75 30 -25
13 -50 24 -56 24 -6 0 -17 7 -24 15 -7 8 -18 15 -26 15 -7 0 -46 19 -86 43
-40 24 -107 63 -148 87 -90 53 -154 99 -277 200 -115 94 -142 114 -172 130
-13 6 -89 16 -170 21 -80 5 -198 15 -261 23 -63 8 -162 18 -220 21 -58 4 -147
13 -199 21 -52 8 -98 11 -103 6 -4 -4 -3 -35 2 -68 6 -34 12 -85 15 -115 3
-30 7 -61 10 -69 4 -14 41 -247 51 -319 3 -21 0 -38 -8 -44 -10 -6 -9 -8 3 -4
14 5 19 -8 28 -76 7 -45 16 -107 21 -137 5 -30 12 -75 15 -100 2 -25 16 -110
30 -190 14 -80 30 -174 36 -210 6 -36 20 -105 31 -155 10 -49 28 -146 40 -215
11 -69 24 -134 29 -145 17 -45 20 -78 7 -87 -11 -6 -10 -10 1 -17 15 -10 53
-140 45 -153 -3 -4 0 -8 5 -8 6 0 11 -11 11 -25 0 -34 -18 -32 -25 3 -4 15
-15 54 -27 87 -11 33 -24 78 -28 100 -4 22 -13 64 -19 94 -6 29 -9 57 -6 61 3
5 1 10 -4 12 -10 3 -65 257 -76 353 -4 33 -12 71 -17 85 -5 14 -16 68 -23 120
-8 52 -16 106 -19 120 -2 14 -10 59 -16 100 -6 41 -16 93 -21 115 -5 22 -16
87 -24 145 -8 58 -19 128 -24 155 -6 28 -15 86 -20 130 -5 44 -16 118 -24 165
-8 47 -23 134 -33 193 -13 83 -22 110 -36 118 -23 12 -23 27 1 47 18 16 19 21
5 117 -9 55 -16 143 -17 195 -1 52 -6 101 -11 109 -5 8 -11 52 -13 98 -2 47
-8 93 -13 103 -5 10 -12 56 -14 102 -3 46 -6 85 -7 88 -1 3 -4 16 -5 30 -2 14
-8 57 -14 95 -5 39 -12 101 -15 139 -3 39 -7 84 -11 101 -3 16 -7 57 -9 90 -2
33 -7 78 -10 100 -13 85 -24 154 -40 250 -17 103 -25 166 -29 245 -2 25 -6 52
-9 60 -4 8 -5 22 -4 30 2 16 -16 153 -35 258 -6 35 -12 85 -13 110 -1 26 -10
97 -19 157 -9 61 -18 128 -20 150 -5 54 -45 351 -51 378 -2 12 -6 42 -9 67 -2
25 -16 133 -30 240 -14 107 -30 233 -36 280 -18 147 -31 242 -45 340 -22 150
-46 397 -70 715 -2 34 -12 49 -64 101 -64 63 -72 80 -45 91 11 4 25 -4 43 -25
29 -35 51 -42 51 -14 -1 9 -7 44 -15 76 -8 33 -12 63 -9 68 5 7 44 12 44 5 0
-2 4 -28 10 -58 5 -30 12 -79 15 -109 7 -58 18 -80 42 -80 9 0 12 7 9 18 -8
26 -28 221 -28 271 0 40 -5 49 -63 109 -35 36 -62 69 -59 73 2 5 -6 20 -18 34
-27 30 -98 145 -164 265 -26 47 -56 98 -67 113 -54 78 -64 173 -33 295 9 33
16 74 16 90 0 56 34 103 62 86 6 -4 7 -24 4 -48 -12 -81 -29 -232 -29 -271 -1
-32 13 -66 66 -165 38 -69 90 -161 117 -205 27 -44 58 -97 70 -118 26 -47 55
-77 76 -77 12 0 15 13 13 72 -3 95 -7 107 -35 114 -30 8 -30 15 2 70 25 42 26
52 25 165 0 66 -3 124 -6 129 -3 4 -7 102 -10 218 -5 233 -18 348 -41 373 -12
14 -14 27 -7 60 7 36 14 45 36 51 15 5 39 11 55 16 21 6 32 20 49 62 12 30 26
56 32 58 6 2 11 10 11 18 0 18 107 124 175 173 51 38 202 131 211 131 3 0 20
11 37 24 34 26 315 168 357 181 14 4 102 45 195 90 236 114 251 120 332 149
58 20 90 39 159 99 90 78 263 177 310 177 14 0 35 5 46 11 12 6 50 17 85 25
55 11 71 11 106 -1 23 -8 48 -15 55 -15 7 0 28 -11 46 -25 18 -14 37 -25 42
-25 5 0 22 -11 38 -25 27 -23 40 -26 163 -40 75 -8 113 -24 113 -46 0 -10 4
-19 9 -19 18 0 121 129 121 152 0 37 15 51 62 58 94 16 178 11 267 -16z m3990
-10897 c0 -12 4 -40 10 -62 5 -22 15 -89 21 -149 6 -61 14 -128 17 -150 18
-133 26 -326 12 -326 -5 0 -10 21 -11 48 0 26 -3 61 -4 77 -12 102 -17 142
-34 250 -29 186 -34 244 -21 259 9 11 8 18 -4 29 -16 16 -20 39 -9 50 11 11
24 -3 23 -26z m81 -719 c-1 -13 -1 -25 0 -28 3 -9 10 -274 10 -380 -1 -106
-12 -140 -47 -140 -17 0 -18 101 -2 117 14 14 19 56 18 148 -2 126 -2 159 4
230 5 77 5 75 13 75 3 0 5 -10 4 -22z"/>
<path d="M5023 18811 c-15 -15 -23 -38 -28 -88 -6 -60 -4 -74 19 -123 14 -30
26 -63 26 -73 0 -10 6 -30 14 -45 7 -15 17 -52 20 -82 4 -30 11 -75 16 -100 5
-25 12 -94 15 -155 9 -169 15 -249 20 -263 9 -25 80 -44 183 -50 56 -3 102 -3
102 -1 0 2 -5 31 -10 64 -7 45 -7 61 3 68 8 6 7 7 -4 4 -12 -4 -19 7 -28 46
-7 29 -24 85 -37 126 -13 41 -22 76 -20 78 2 2 -7 34 -21 71 -58 160 -73 206
-68 210 3 3 1 10 -4 16 -5 6 -25 56 -45 111 -76 206 -100 235 -153 186z"/>
<path d="M5234 18583 c1 -15 7 -37 13 -48 12 -24 36 -92 70 -200 14 -44 32
-100 40 -125 8 -25 16 -54 18 -65 3 -11 14 -51 25 -90 11 -38 27 -102 34 -142
14 -66 48 -163 68 -189 14 -19 38 -114 48 -189 5 -38 14 -104 20 -145 6 -41
13 -95 15 -119 3 -40 10 -50 64 -100 34 -31 61 -61 61 -68 0 -6 9 -18 20 -26
13 -9 18 -20 14 -31 -4 -11 -1 -16 12 -16 17 0 17 -1 0 -13 -17 -12 -17 -14
-2 -20 9 -4 16 -2 16 3 0 22 18 8 31 -22 7 -18 16 -35 19 -38 15 -13 60 -101
60 -118 0 -10 9 -27 20 -37 11 -10 20 -22 20 -27 0 -5 14 -38 31 -74 17 -36
28 -68 25 -71 -2 -2 6 -26 19 -51 13 -26 27 -64 30 -85 4 -21 18 -60 30 -85
13 -26 29 -68 36 -92 23 -81 66 -105 56 -31 -7 54 -46 178 -98 311 -46 119
-119 342 -114 350 3 5 1 11 -5 15 -5 3 -10 13 -10 22 0 8 -7 29 -15 46 -19 42
-62 217 -82 331 -13 79 -58 198 -81 216 -9 7 -65 112 -156 295 -104 207 -126
256 -126 275 0 9 -4 20 -8 26 -5 5 -23 45 -41 89 -18 44 -44 103 -57 130 -12
28 -26 64 -30 80 -4 17 -14 40 -21 52 -8 12 -12 26 -9 31 3 5 -10 23 -29 41
l-35 32 4 -28z"/>
<path d="M4983 18513 c-29 -10 4 -436 38 -503 4 -9 3 -24 -3 -34 -7 -13 -7
-17 0 -12 12 7 35 -28 25 -38 -3 -3 -2 -6 4 -6 28 0 32 27 22 165 -9 130 -22
227 -51 365 -12 61 -17 70 -35 63z"/>
<path d="M5365 18390 c-3 -5 -1 -10 4 -10 6 0 11 5 11 10 0 6 -2 10 -4 10 -3
0 -8 -4 -11 -10z"/>
<path d="M5165 17820 c3 -5 8 -10 11 -10 2 0 4 5 4 10 0 6 -5 10 -11 10 -5 0
-7 -4 -4 -10z"/>
<path d="M5129 17794 c-10 -12 -14 -12 -20 -2 -7 10 -9 9 -9 -4 0 -9 4 -19 9
-22 4 -3 11 -29 15 -57 9 -69 30 -106 72 -131 19 -11 34 -24 34 -29 0 -5 6 -9
13 -9 14 0 72 -66 72 -83 0 -7 -9 -12 -20 -12 -13 0 -19 6 -18 18 0 10 -2 16
-5 13 -3 -3 -27 15 -54 39 -40 38 -51 44 -67 35 -19 -10 -19 -11 3 -57 13 -27
28 -69 35 -94 17 -61 73 -117 130 -130 23 -5 46 -7 51 -4 13 8 -6 63 -35 105
-42 61 -27 94 22 48 13 -12 25 -19 28 -16 3 3 7 43 9 89 3 46 5 84 6 84 1 0 3
23 4 50 2 28 6 68 10 90 5 31 2 45 -12 61 -17 20 -77 40 -66 22 7 -11 -142 -9
-173 3 -15 5 -25 3 -34 -7z"/>
<path d="M5482 17332 c2 -71 15 -101 38 -87 17 10 1 117 -22 140 -19 20 -19
19 -16 -53z"/>
<path d="M5240 17266 c0 -2 7 -6 15 -10 8 -3 15 -1 15 4 0 6 -7 10 -15 10 -8
0 -15 -2 -15 -4z"/>
<path d="M5488 17195 c-3 -3 -4 -90 -2 -193 6 -351 17 -432 54 -432 37 0 42
23 26 110 -10 51 -16 135 -15 225 0 159 -8 263 -24 283 -10 12 -30 16 -39 7z"/>
<path d="M5604 17097 c16 -118 26 -240 20 -248 -3 -6 -1 -15 4 -22 15 -17 28
-322 15 -330 -6 -4 -27 7 -48 23 -28 22 -41 27 -55 20 -23 -12 -28 -40 -20
-118 6 -69 1 -78 -41 -74 -20 3 -25 -1 -24 -15 25 -243 56 -382 115 -510 11
-24 20 -46 20 -51 0 -5 14 -21 30 -37 17 -16 30 -34 30 -40 0 -6 36 -40 80
-77 43 -36 78 -67 76 -69 -2 -2 30 -5 72 -7 61 -2 83 1 103 15 110 75 178 294
146 473 -18 99 -37 132 -102 180 -30 22 -55 45 -55 50 0 16 33 12 59 -7 23
-16 24 -16 19 13 -3 16 -24 79 -47 139 -23 61 -55 148 -72 195 -17 47 -46 117
-64 155 -23 47 -33 80 -30 100 4 26 4 27 -3 5 -7 -23 -11 -19 -47 45 -22 39
-43 77 -47 85 -4 8 -21 33 -38 55 -16 22 -33 47 -36 56 -3 8 -19 20 -35 26
l-30 12 5 -42z"/>
<path d="M8307 14852 c-56 -5 -41 -26 24 -33 62 -7 109 -26 109 -44 0 -16 -30
-24 -55 -14 -32 12 -90 10 -109 -4 -16 -12 -17 -22 -11 -76 4 -35 13 -65 20
-67 7 -3 26 9 43 25 35 35 88 43 99 14 5 -12 -11 -32 -57 -74 -60 -53 -63 -59
-53 -82 11 -23 85 -88 207 -181 73 -55 247 -228 318 -316 33 -41 67 -79 75
-83 9 -6 30 2 61 21 142 90 232 122 246 86 11 -29 7 -32 -89 -78 -53 -25 -109
-55 -126 -67 -29 -21 -30 -22 -12 -41 10 -11 34 -29 53 -39 19 -11 50 -29 69
-41 l34 -22 54 30 c53 28 54 30 50 64 -3 19 -8 47 -12 62 -6 23 -5 26 13 21
12 -3 25 -18 31 -34 5 -16 17 -29 25 -29 13 0 16 14 16 73 0 114 -18 166 -102
294 -67 103 -76 112 -247 281 -197 194 -307 269 -471 325 -78 26 -138 34 -203
29z"/>
<path d="M7380 14790 c-8 -5 -49 -23 -90 -41 -80 -33 -160 -79 -160 -91 0 -14
27 -8 101 22 41 16 78 30 83 30 5 0 27 8 50 19 23 10 55 23 71 28 42 12 39 37
-5 40 -19 1 -42 -2 -50 -7z"/>
<path d="M7555 14781 c-3 -12 -12 -21 -19 -21 -8 0 -19 -7 -26 -15 -11 -13 -8
-15 18 -15 17 0 34 5 37 10 3 6 21 10 40 10 63 0 58 33 -7 45 -31 6 -37 4 -43
-14z"/>
<path d="M8350 14786 c0 -9 30 -14 35 -6 4 6 -3 10 -14 10 -12 0 -21 -2 -21
-4z"/>
<path d="M7416 14685 c4 -8 10 -15 15 -15 5 0 9 7 9 15 0 8 -7 15 -15 15 -9 0
-12 -6 -9 -15z"/>
<path d="M8140 14645 c-47 -48 -51 -55 -34 -61 10 -4 34 -13 53 -20 50 -21 71
-18 71 9 0 56 -14 127 -24 127 -7 0 -36 -25 -66 -55z"/>
<path d="M7351 14673 c-1 -7 -9 -13 -18 -13 -9 0 -30 -4 -47 -9 -17 -5 -60
-17 -96 -27 -36 -9 -72 -24 -80 -33 -8 -9 -25 -15 -37 -13 -24 4 -108 -66
-118 -98 -6 -19 27 -91 50 -110 11 -9 31 -4 89 24 41 20 81 42 88 49 8 6 50
30 93 52 44 22 94 53 112 69 l33 28 -22 28 c-13 15 -28 36 -35 46 -6 11 -12
13 -12 7z"/>
<path d="M7485 14670 c-10 -16 -11 -78 -1 -87 4 -4 24 3 44 15 20 13 54 30 75
39 20 9 37 20 37 25 0 4 -24 8 -52 8 -29 0 -63 3 -74 6 -12 3 -25 1 -29 -6z"/>
<path d="M8110 14491 c0 -11 39 -41 52 -41 19 0 5 31 -18 40 -31 12 -34 12
-34 1z"/>
<path d="M6660 14400 c-69 -33 -150 -70 -180 -83 -30 -13 -79 -35 -107 -47
-59 -26 -67 -40 -25 -40 43 0 132 -29 139 -46 3 -8 18 -14 35 -14 31 0 52 -18
106 -94 37 -53 55 -51 68 7 3 18 12 43 19 57 7 14 25 54 41 90 16 36 42 87 57
114 24 41 27 55 20 80 -6 20 -16 32 -28 33 -11 1 -76 -25 -145 -57z"/>
<path d="M7725 14430 c-220 -80 -341 -137 -469 -220 -52 -33 -99 -67 -105 -74
-6 -7 -13 -30 -15 -53 -6 -48 -21 -89 -35 -97 -5 -4 -13 -32 -17 -64 -4 -31
-10 -67 -15 -79 -5 -14 -4 -25 5 -32 17 -14 141 -16 191 -3 22 6 81 13 130 17
50 4 109 11 132 16 24 5 72 13 107 18 69 10 176 57 176 77 0 7 -7 42 -15 78
-16 68 -22 297 -10 378 4 25 3 48 -2 51 -5 3 -31 -3 -58 -13z"/>
<path d="M7839 14413 c-11 -29 -14 -280 -3 -343 9 -55 25 -100 35 -100 5 0 28
12 50 26 l41 25 -7 52 c-4 29 -12 63 -17 77 -9 23 -20 95 -36 230 -6 47 -10
55 -29 58 -17 3 -26 -4 -34 -25z"/>
<path d="M7935 14411 c-3 -6 4 -70 16 -143 12 -73 24 -148 26 -166 8 -49 32
-37 70 33 28 51 32 70 33 131 0 58 -4 76 -22 99 -32 41 -108 69 -123 46z"/>
<path d="M6808 14238 c-25 -51 -49 -104 -53 -118 -4 -14 -12 -28 -18 -32 -7
-4 -6 -12 2 -22 20 -24 29 -20 45 19 8 19 35 56 60 83 57 60 71 96 55 134 -20
50 -41 35 -91 -64z"/>
<path d="M8126 14312 c-3 -5 -2 -22 3 -38 12 -47 -31 -174 -83 -243 -30 -41
-31 -48 -10 -101 13 -32 23 -42 55 -52 55 -16 65 -30 51 -76 -10 -32 -9 -39
11 -60 21 -23 77 -57 81 -50 1 2 17 35 35 74 29 63 33 81 33 150 -1 101 -26
181 -95 303 -51 92 -69 112 -81 93z"/>
<path d="M8263 14253 c3 -10 23 -58 43 -108 32 -76 38 -104 42 -182 5 -108 -6
-163 -51 -249 -38 -74 -38 -73 76 -140 73 -43 89 -49 154 -52 70 -4 74 -3 103
26 23 23 30 39 30 69 0 45 -15 102 -42 161 -27 60 -18 62 19 4 51 -79 56 -95
57 -157 1 -85 -40 -146 -91 -137 -7 2 -13 -2 -13 -8 0 -6 -23 -10 -52 -10 -64
1 -140 30 -225 88 -61 41 -83 50 -83 34 0 -14 143 -194 170 -213 82 -59 367
-86 478 -44 132 49 186 148 152 280 -15 56 -67 159 -91 181 -19 17 -22 18 -33
2 -7 -9 -25 -20 -40 -24 l-28 -7 7 54 6 54 -43 33 c-91 69 -128 99 -216 175
-50 42 -97 77 -105 77 -11 0 -13 -14 -10 -70 4 -73 2 -75 -41 -82 -13 -2 -20
4 -22 22 -14 91 -28 123 -81 181 -55 59 -80 74 -70 42z"/>
<path d="M8716 14045 c4 -8 15 -15 25 -15 23 0 25 16 3 24 -25 10 -34 7 -28
-9z"/>
<path d="M5845 13979 c-22 -17 -56 -46 -76 -65 -20 -19 -42 -34 -50 -32 -8 2
-13 -2 -12 -8 1 -6 -16 -28 -39 -49 -43 -41 -88 -124 -88 -166 0 -14 8 -33 18
-41 23 -20 110 -48 175 -56 99 -13 783 3 824 19 18 7 23 16 23 44 l0 36 -77
-4 c-94 -6 -252 8 -347 30 -100 22 -256 106 -256 136 0 6 -7 18 -16 28 -17 19
-21 76 -9 130 9 39 -16 38 -70 -2z"/>
<path d="M6703 13954 c-9 -23 -8 -56 1 -156 l8 -86 -30 -27 c-16 -14 -28 -34
-26 -43 14 -73 10 -69 71 -76 32 -4 74 -9 93 -12 l36 -6 2 59 c1 32 3 67 5 78
2 16 -6 21 -40 25 -23 4 -48 12 -56 18 -17 14 -36 103 -38 185 -2 56 -13 73
-26 41z"/>
<path d="M7938 13927 c-37 -30 -35 -37 11 -37 53 0 71 8 64 28 -14 37 -37 40
-75 9z"/>
<path d="M5975 13920 c-3 -6 1 -13 10 -16 19 -8 30 0 20 15 -8 14 -22 14 -30
1z"/>
<path d="M6864 13916 c-8 -22 3 -33 18 -18 9 9 9 15 0 24 -9 9 -13 7 -18 -6z"/>
<path d="M6142 13908 c5 -15 28 -18 29 -3 0 6 -7 12 -17 13 -10 3 -15 -1 -12
-10z"/>
<path d="M9035 13740 c-4 -7 -2 -22 4 -33 6 -12 15 -34 21 -49 12 -35 27 -36
42 -3 10 22 7 28 -24 61 -24 25 -38 32 -43 24z"/>
<path d="M8028 13722 c-21 -10 -38 -24 -38 -32 0 -21 78 -110 96 -110 19 0 80
46 88 66 8 21 -61 94 -88 93 -11 0 -38 -8 -58 -17z"/>
<path d="M7893 13659 c-13 -5 -23 -15 -23 -23 0 -24 -29 -34 -119 -41 -46 -4
-99 -16 -119 -25 -35 -17 -36 -17 -54 4 l-19 21 11 -23 c9 -19 8 -23 -15 -32
-15 -6 -29 -10 -32 -10 -3 0 -18 -11 -35 -25 -35 -30 -59 -32 -81 -7 -19 21
-23 67 -7 77 6 4 40 7 75 6 67 0 85 11 38 24 -36 10 -275 15 -331 8 -34 -5
-43 -10 -49 -30 -6 -28 16 -51 92 -97 82 -49 155 -66 287 -67 188 -1 229 1
286 11 61 11 232 88 232 105 0 6 -14 24 -31 41 -17 16 -35 39 -40 51 -11 29
-39 43 -66 32z"/>
<path d="M5496 13632 c-2 -4 -1 -51 4 -103 5 -52 12 -158 16 -237 3 -78 10
-145 15 -147 4 -3 63 -8 131 -10 68 -3 152 -8 188 -12 36 -4 101 -5 146 -4 92
3 108 -6 98 -58 -5 -22 -15 -36 -31 -42 -13 -5 -26 -16 -29 -24 -7 -18 -110
-20 -339 -5 -88 6 -153 6 -158 1 -12 -12 -9 -259 4 -282 8 -16 20 -17 107 -12
53 3 144 0 202 -7 58 -6 136 -15 174 -19 50 -5 72 -12 82 -26 27 -36 18 -50
-33 -51 -27 0 -88 -6 -138 -12 -49 -6 -159 -12 -244 -12 l-153 0 3 -129 c4
-147 3 -145 115 -235 28 -22 90 -74 137 -113 47 -40 89 -73 92 -73 4 0 21 -11
38 -24 53 -40 208 -107 280 -122 38 -7 103 -16 145 -20 43 -3 109 -15 147 -25
132 -34 229 -42 439 -36 125 4 224 12 261 22 33 8 114 24 180 36 152 26 155
29 155 150 0 68 -3 89 -13 89 -8 0 -18 -10 -24 -23 -6 -12 -22 -36 -36 -53
-24 -29 -29 -30 -94 -27 -37 1 -110 3 -161 3 l-93 0 -16 38 c-9 20 -18 60 -19
87 -2 28 -6 75 -9 106 l-7 55 47 37 c31 24 66 40 104 48 31 6 81 18 112 25 31
8 84 14 118 14 l61 0 -6 43 c-8 51 -21 118 -35 172 -6 22 -19 83 -29 135 -17
86 -38 161 -117 420 -19 64 -39 103 -80 158 -64 84 -81 98 -148 117 -48 14
-223 40 -347 52 -65 6 -67 3 -45 -57 61 -167 202 -317 386 -409 34 -18 61 -35
57 -38 -12 -12 -94 9 -141 37 -27 16 -64 36 -81 44 -73 35 -203 215 -256 353
l-31 81 -221 -4 c-122 -3 -268 -9 -326 -15 -118 -11 -310 3 -345 25 -11 7 -34
12 -50 9 -39 -5 -123 42 -145 81 -17 31 -35 43 -44 28z"/>
<path d="M6958 13575 c-29 -38 -23 -45 42 -45 65 0 72 8 44 48 -21 30 -64 29
-86 -3z"/>
<path d="M8155 13544 c-20 -15 -19 -16 15 -45 41 -36 87 -62 101 -57 6 2 -3
21 -20 42 -17 21 -33 46 -36 57 -8 23 -33 24 -60 3z"/>
<path d="M9070 13492 c0 -33 -31 -94 -69 -134 -19 -21 -33 -40 -30 -42 12 -12
328 -28 449 -22 154 7 189 13 197 33 10 27 -77 73 -243 129 -79 26 -130 37
-184 39 -41 2 -85 6 -97 10 -19 6 -23 4 -23 -13z"/>
<path d="M8045 13464 c-20 -15 -130 -69 -190 -92 -16 -7 -73 -18 -125 -26 -52
-8 -115 -24 -140 -35 -55 -25 -70 -26 -70 -3 -1 20 -24 54 -33 46 -3 -3 -1
-20 4 -37 5 -18 9 -32 9 -33 0 -1 -23 -4 -50 -7 -56 -7 -114 8 -91 23 19 11
-53 84 -75 76 -13 -5 -12 -10 6 -33 11 -15 30 -33 40 -40 11 -8 20 -24 20 -35
0 -12 4 -35 10 -52 82 -262 104 -342 129 -456 16 -74 35 -155 41 -180 11 -42
29 -140 51 -270 5 -30 9 -149 10 -264 1 -182 -1 -211 -15 -222 -17 -12 -142
-38 -236 -49 -30 -4 -71 -11 -92 -16 -80 -20 -204 -29 -419 -29 -124 -1 -237
4 -251 9 -14 5 -108 21 -209 36 -101 14 -191 29 -199 32 -8 4 -22 7 -30 8 -63
8 -274 126 -377 212 -150 125 -198 162 -204 155 -12 -13 22 -266 40 -302 24
-47 174 -123 276 -139 108 -17 375 -40 640 -56 132 -8 296 -21 365 -30 69 -8
154 -15 190 -15 72 -1 137 -13 153 -29 13 -13 -15 -13 -253 4 -102 7 -216 13
-255 14 -295 6 -800 46 -899 72 -23 6 -70 26 -105 45 -75 42 -100 40 -76 -5
19 -38 19 -71 1 -71 -16 0 -56 46 -56 65 0 43 -80 169 -96 152 -10 -10 15
-311 47 -567 17 -129 34 -273 40 -320 5 -47 11 -91 14 -98 5 -13 21 -141 30
-232 3 -30 7 -68 10 -85 4 -27 36 -274 50 -380 2 -22 9 -71 14 -110 38 -267
44 -335 31 -350 -10 -12 -10 -15 4 -15 9 0 16 -1 16 -2 3 -36 42 -373 50 -422
6 -38 12 -105 15 -148 2 -43 7 -83 10 -88 3 -6 10 -52 16 -103 5 -50 13 -126
19 -167 16 -129 29 -240 45 -400 24 -236 68 -618 91 -785 3 -22 8 -65 10 -95
3 -30 11 -104 19 -165 8 -60 14 -113 15 -117 1 -13 104 -29 325 -48 393 -35
521 -44 539 -37 16 6 15 10 -7 39 -13 18 -44 67 -67 108 -25 43 -70 100 -107
135 -55 52 -67 71 -93 144 -33 90 -31 105 16 99 26 -3 30 -8 40 -56 7 -30 23
-65 36 -79 12 -14 48 -52 79 -84 31 -32 72 -89 92 -127 40 -77 106 -156 146
-176 48 -25 577 -63 971 -71 157 -3 389 -8 515 -10 348 -8 919 -6 1310 5 578
16 987 30 995 35 5 3 55 7 112 10 141 7 140 7 162 60 10 26 29 59 41 73 12 15
37 55 56 90 30 58 35 63 63 60 27 -3 31 -6 27 -28 -1 -14 -10 -38 -18 -55 -20
-38 -85 -138 -95 -145 -4 -3 -4 -11 0 -18 9 -13 40 -11 177 12 117 20 561 59
587 53 12 -4 32 3 49 15 27 20 28 24 23 82 -2 34 -6 94 -9 133 -2 40 -8 90
-13 110 -5 21 -10 78 -11 127 -1 49 -7 98 -12 108 -11 20 -9 87 3 94 5 3 1 13
-8 21 -13 13 -15 33 -12 95 2 43 0 78 -3 78 -12 0 -7 175 5 182 8 5 8 10 -1
19 -6 6 -9 17 -7 24 3 7 1 16 -5 20 -7 4 -9 22 -5 46 4 21 2 45 -3 51 -6 7
-11 86 -11 175 -1 89 -6 173 -12 187 -6 16 -6 27 1 31 5 4 7 10 4 15 -3 5 -8
98 -11 207 -8 243 -9 286 -21 489 -6 88 -8 175 -6 191 3 17 0 40 -6 50 -6 12
-6 24 -1 29 5 5 5 47 1 99 -6 57 -5 97 2 112 7 15 7 26 0 35 -22 27 -41 657
-20 670 9 6 9 12 0 26 -14 23 -22 540 -9 560 5 8 4 18 -3 25 -7 7 -11 85 -11
240 l0 230 -107 -7 c-220 -13 -360 -25 -413 -36 -30 -6 -71 -10 -90 -11 -19 0
-89 -1 -155 -4 -66 -2 -219 -7 -340 -10 -121 -3 -266 -10 -323 -15 -99 -9
-609 -26 -701 -24 -70 2 -98 60 -43 88 31 16 52 53 52 93 0 23 -3 25 -32 20
-18 -2 -43 -1 -54 4 -18 6 -33 -6 -100 -83 -43 -50 -100 -104 -127 -121 -31
-19 -46 -34 -43 -44 4 -8 -4 -17 -20 -23 -14 -6 -40 -21 -58 -35 -47 -35 -94
-31 -51 5 9 7 13 16 9 19 -3 3 -362 6 -797 6 -634 0 -805 3 -857 14 -94 20
-99 22 -65 32 17 5 132 5 270 -1 132 -6 522 -13 866 -17 l626 -6 24 28 c13 16
32 36 43 44 10 9 50 47 88 84 l70 68 -24 27 c-13 15 -32 38 -40 52 -9 14 -72
90 -140 170 -67 80 -136 163 -153 184 -16 21 -57 73 -91 115 -75 94 -278 365
-364 486 -259 364 -289 401 -360 435 -76 37 -113 59 -173 103 -56 41 -72 44
-102 21z m-2198 -2256 c-3 -8 -6 -5 -6 6 -1 11 2 17 5 13 3 -3 4 -12 1 -19z
m3454 -277 c48 -39 -1 -67 -161 -90 -36 -6 -110 -20 -165 -32 -55 -12 -118
-25 -140 -29 -22 -5 -60 -13 -85 -18 -25 -6 -79 -15 -120 -22 -151 -23 -322
-82 -362 -124 -31 -33 -90 -128 -100 -161 -20 -69 -25 -154 -16 -250 9 -81 16
-107 37 -140 l27 -40 135 3 c74 1 181 9 239 17 58 8 191 21 295 30 290 22 535
59 542 82 2 6 -13 14 -39 18 -60 10 -93 29 -117 68 -42 69 -16 153 72 232 29
25 63 56 77 69 49 44 131 97 159 102 35 7 98 -21 106 -47 9 -26 -3 -75 -21
-89 -18 -16 -44 -5 -44 18 0 11 -7 25 -15 32 -18 15 -93 -34 -186 -122 -82
-79 -103 -110 -95 -142 12 -47 109 -61 313 -45 l151 13 39 -26 c48 -33 99 -29
114 9 5 14 6 112 0 246 -4 122 -6 236 -3 252 7 46 5 76 -6 87 -7 7 -84 6 -231
-2 -212 -12 -304 -9 -316 10 -12 20 125 50 300 65 169 15 251 14 301 -6 20 -7
21 -13 15 -71 -7 -75 -8 -529 -1 -607 l5 -54 -40 -12 c-45 -14 -161 -31 -305
-45 -52 -6 -158 -21 -235 -34 -230 -41 -336 -56 -420 -61 -194 -12 -237 -15
-277 -24 -65 -15 -340 -42 -442 -44 -106 -2 -129 8 -152 61 -24 59 -55 202
-56 262 0 69 20 218 34 245 26 50 82 135 88 135 4 0 10 9 13 20 3 13 17 22 36
26 18 4 36 15 41 24 5 10 26 21 47 25 21 3 71 18 111 32 40 13 135 33 210 44
146 20 243 38 332 62 30 8 98 22 150 32 52 9 102 21 110 26 21 12 25 11 51
-10z m-575 -246 c72 -19 143 -63 151 -94 8 -30 -19 -82 -58 -110 -37 -28 -36
-36 4 -51 46 -19 94 -56 100 -79 8 -31 -27 -94 -73 -134 -24 -20 -48 -37 -52
-37 -5 0 -30 -9 -55 -21 -92 -42 -255 -69 -293 -49 -25 14 -42 44 -34 64 5 13
16 15 59 10 60 -7 128 6 228 44 69 26 147 83 147 106 0 39 -150 57 -266 31
-127 -28 -144 -37 -144 -80 0 -43 -15 -75 -35 -75 -8 0 -19 9 -25 19 -13 25
-12 190 1 256 6 28 13 73 17 100 7 47 9 50 35 48 20 -1 31 4 38 21 19 41 152
58 255 31z m470 7 c29 -19 15 -66 -86 -290 -27 -60 -43 -112 -47 -150 -9 -103
-36 -139 -66 -89 -14 22 -12 107 2 107 4 0 5 15 3 34 -2 18 1 37 7 40 6 4 11
15 11 24 0 9 11 39 24 67 50 104 86 188 86 200 0 49 34 78 66 57z m-1383 -33
c5 -9 7 -28 3 -42 -5 -22 -12 -27 -36 -27 -24 0 -33 6 -41 26 -15 42 -3 66 33
62 17 -2 35 -10 41 -19z m-124 -54 c62 -22 82 -50 75 -100 -4 -22 -12 -51 -19
-65 -21 -42 -48 -168 -41 -194 3 -13 3 -38 0 -55 -5 -23 -12 -31 -28 -31 -57
0 -60 58 -12 225 19 66 32 123 29 128 -2 4 -22 16 -43 27 -47 24 -52 32 -44
65 7 29 6 29 83 0z m95 -435 c52 -19 23 -74 -36 -68 -26 2 -34 8 -36 26 -7 50
16 64 72 42z"/>
<path d="M9523 10183 c9 -2 23 -2 30 0 6 3 -1 5 -18 5 -16 0 -22 -2 -12 -5z"/>
<path d="M8605 10632 c-11 -2 -45 -12 -75 -22 l-55 -19 -12 -58 c-17 -80 -16
-113 2 -113 26 0 229 71 270 95 57 32 79 59 62 73 -31 26 -146 53 -192 44z"/>
<path d="M11613 12255 c-58 -55 -87 -70 -195 -100 -46 -13 -58 -21 -58 -36 0
-19 6 -20 85 -18 67 1 89 -2 104 -15 18 -16 51 -13 51 5 0 5 7 9 15 9 8 0 15
5 15 11 0 5 17 25 37 44 35 32 36 35 20 53 -21 23 -21 41 -2 66 19 25 19 36 0
36 -8 0 -41 -25 -72 -55z m-23 -155 c0 -5 -6 -10 -14 -10 -8 0 -18 5 -21 10
-3 6 3 10 14 10 12 0 21 -4 21 -10z"/>
<path d="M11730 12239 c-13 -8 -11 -12 10 -29 32 -25 39 -25 33 0 -7 28 -26
41 -43 29z"/>
<path d="M11381 12201 c-8 -5 -9 -11 -3 -15 5 -3 15 1 22 9 14 16 3 20 -19 6z"/>
<path d="M7447 12159 c-16 -42 -14 -63 5 -57 9 3 37 71 38 91 0 4 -6 7 -13 7
-8 0 -21 -19 -30 -41z"/>
<path d="M11230 12118 c-65 -12 -83 -24 -46 -34 38 -9 121 8 121 25 0 19 -10
20 -75 9z"/>
<path d="M11505 12060 c-9 -15 3 -30 25 -30 18 0 34 23 23 34 -10 10 -41 7
-48 -4z"/>
<path d="M11387 12033 c-7 -39 2 -48 24 -24 23 25 24 37 3 45 -22 8 -21 9 -27
-21z"/>
<path d="M10825 12030 c-55 -4 -70 -9 -73 -22 -2 -10 8 -23 26 -32 28 -15 30
-14 35 6 5 17 11 20 36 15 19 -4 31 -2 34 6 3 8 11 4 22 -10 9 -13 25 -23 37
-23 29 0 119 43 115 55 -4 11 -117 13 -232 5z"/>
<path d="M11120 12021 c0 -26 17 -30 59 -15 54 18 51 34 -8 34 -44 0 -51 -3
-51 -19z"/>
<path d="M10585 12015 c-5 -2 -40 -6 -77 -10 -75 -7 -93 -25 -53 -51 26 -17
33 -16 120 21 17 7 38 15 48 17 10 1 18 8 18 13 0 10 -38 17 -56 10z"/>
<path d="M11733 11998 c-6 -7 -10 -21 -10 -31 0 -15 3 -15 23 4 13 12 21 26
18 30 -7 13 -20 11 -31 -3z"/>
<path d="M10280 11981 c-25 -16 1 -30 43 -23 21 4 39 12 40 17 3 13 -64 18
-83 6z"/>
<path d="M9932 11924 c-12 -8 -25 -13 -30 -11 -4 3 -27 -5 -52 -18 -44 -23
-42 -37 5 -31 29 4 145 58 145 68 0 14 -44 9 -68 -8z"/>
<path d="M11768 11909 c-25 -14 -22 -29 5 -29 29 0 51 15 43 29 -9 14 -25 14
-48 0z"/>
<path d="M10821 11854 c-7 -8 -11 -18 -7 -21 9 -10 36 6 36 22 0 19 -11 19
-29 -1z"/>
<path d="M10362 11847 c-18 -5 -31 -14 -30 -19 2 -5 7 -9 11 -9 4 1 18 1 32 1
14 0 29 8 35 20 12 23 5 24 -48 7z"/>
<path d="M10908 7093 c7 -3 16 -2 19 1 4 3 -2 6 -13 5 -11 0 -14 -3 -6 -6z"/>
<path d="M6216 5911 c-4 -7 -5 -15 -2 -18 9 -9 19 4 14 18 -4 11 -6 11 -12 0z"/>
</g>
</svg>
