<svg xmlns="http://www.w3.org/2000/svg" viewBox="0 0 64 64"><g id="HOUSE-34" data-name="HOUSE"><path d="M63,51H58.91V49.81a3.58,3.58,0,0,0,2.77-3.52c0-.1-.81-10-3.5-10s-3.5,9.94-3.5,10a3.58,3.58,0,0,0,2.77,3.52V51h-7V33.93l3.15,3.73c.83,1,2.3-.37,1.46-1.32l-26.18-31A1,1,0,0,0,28.14,5a1.08,1.08,0,0,0-.72.31L17.6,16H4.85a1,1,0,0,0-1,1V51H1a1,1,0,0,0,0,2H63A1,1,0,0,0,63,51Zm-6.89-4.71c0-1.85,1.15-7.65,2-8.49.89.84,2,6.64,2,8.49a2.1,2.1,0,0,1-1.32,2c0-.61.25-2-.73-2s-.69,1.39-.73,2A2.11,2.11,0,0,1,56.14,46.29ZM48.48,33V51H34.91V33ZM28.09,7.49,48,31H25.21V17a1,1,0,0,0-1-1h-4ZM5.82,18H23.27V51H21.33V23a1,1,0,0,0-1-1H11.64a1,1,0,0,0-1,1V51H5.82ZM19.39,42H12.61V24h6.78Zm-6.78,9V44h6.78v7Zm12.6,0V33H33V51Z"/></g></svg>