<?xml version="1.0" standalone="no"?>
<!DOCTYPE svg PUBLIC "-//W3C//DTD SVG 20010904//EN"
 "http://www.w3.org/TR/2001/REC-SVG-20010904/DTD/svg10.dtd">
<svg version="1.0" xmlns="http://www.w3.org/2000/svg"
 width="825.000000pt" height="825.000000pt" viewBox="0 0 825.000000 825.000000"
 preserveAspectRatio="xMidYMid meet">

<g transform="translate(0.000000,825.000000) scale(0.100000,-0.100000)"
fill="#000000" stroke="none">
<path d="M4894 7931 c-159 -87 -231 -133 -317 -207 -138 -116 -257 -330 -306
-549 -17 -78 -32 -270 -23 -295 8 -22 9 -22 19 6 6 16 21 67 34 114 87 325
362 712 628 884 98 64 120 87 98 104 -8 5 -53 -14 -133 -57z m36 -5 c0 -2 -24
-19 -53 -38 -196 -131 -472 -519 -573 -806 l-34 -97 5 78 c15 209 134 479 268
608 48 48 204 157 307 216 77 44 80 45 80 39z"/>
<path d="M4452 7907 c-33 -15 -67 -84 -51 -103 12 -14 39 -19 39 -7 0 3 -7 14
-16 24 -15 17 -14 20 10 43 14 14 33 26 43 26 28 0 63 -29 63 -52 0 -31 -61
-108 -137 -173 -221 -190 -293 -295 -329 -482 -15 -78 -17 -236 -4 -288 4 -16
5 17 2 75 -12 263 60 428 267 605 58 50 119 105 136 122 94 96 112 167 53 203
-37 22 -44 23 -76 7z"/>
<path d="M3152 7700 c-11 -14 -41 -48 -65 -77 -25 -28 -50 -69 -57 -90 -7 -21
-20 -49 -30 -63 -19 -29 -31 -56 -37 -85 -2 -11 -10 -23 -18 -28 -8 -4 -15
-16 -15 -25 0 -15 2 -15 11 -2 12 17 11 14 -17 -97 -9 -35 -20 -63 -25 -63 -4
0 -7 -53 -5 -117 4 -136 37 -291 92 -429 42 -108 67 -141 145 -193 33 -22 70
-52 81 -66 11 -14 34 -32 51 -40 18 -9 24 -10 13 -3 -10 7 -28 21 -40 31 -18
16 -17 16 14 -1 19 -11 86 -33 148 -48 61 -16 112 -33 112 -37 0 -5 -8 -6 -17
-3 -36 10 -108 18 -102 12 6 -6 172 -35 202 -36 5 0 5 -4 2 -10 -3 -6 1 -7 10
-4 10 4 24 -2 36 -15 11 -11 31 -24 44 -27 14 -3 25 -10 25 -15 0 -11 35 -29
68 -35 15 -3 30 -10 33 -16 4 -7 15 -13 25 -14 33 -5 104 -49 93 -58 -2 -1
-35 -25 -74 -53 -102 -75 -113 -78 -172 -59 -51 17 -186 44 -215 43 -10 0 -18
-5 -18 -10 0 -5 -6 -7 -13 -4 -8 3 -31 -6 -53 -19 -21 -13 -51 -29 -66 -36
-16 -7 -28 -18 -28 -25 0 -7 -4 -13 -10 -13 -5 0 -10 5 -10 12 0 6 -3 8 -7 4
-5 -4 -8 -13 -8 -19 0 -7 -11 -13 -25 -15 -20 -2 -22 -1 -10 8 12 9 10 10 -10
5 -47 -14 -77 -8 -152 29 -147 72 -258 191 -347 368 -66 133 -68 140 -130 473
-51 277 -63 363 -54 378 4 7 8 52 8 101 0 62 4 91 13 93 13 5 16 50 6 77 -11
28 -33 17 -43 -21 -6 -21 -20 -69 -30 -108 -61 -214 -89 -484 -61 -585 5 -19
12 -51 15 -70 8 -52 16 -71 24 -66 4 3 22 -32 40 -77 18 -45 47 -107 65 -137
18 -30 45 -80 60 -110 54 -104 238 -329 295 -359 36 -19 83 -31 166 -40 39 -5
106 -15 150 -24 44 -9 97 -19 118 -22 32 -5 37 -9 33 -28 -3 -12 -8 -39 -11
-60 -7 -42 -39 -103 -58 -110 -14 -5 -35 2 -169 57 -110 45 -184 48 -309 11
-46 -13 -91 -25 -99 -25 -26 0 -125 73 -182 135 -77 84 -153 201 -211 324 -27
58 -67 132 -88 163 -35 51 -48 89 -73 201 -4 16 -12 27 -19 24 -19 -6 -9 -200
13 -267 11 -30 26 -86 35 -125 68 -306 218 -479 447 -519 42 -7 89 -22 105
-33 15 -10 45 -26 66 -36 l38 -17 -25 -43 c-14 -23 -36 -63 -51 -89 -14 -27
-27 -48 -29 -48 -2 0 -23 7 -47 15 -24 9 -95 29 -158 45 -128 33 -212 37 -304
16 -55 -14 -58 -13 -72 7 -16 23 -50 127 -105 322 -17 61 -53 178 -79 260 -56
173 -73 240 -69 275 2 19 -2 25 -17 25 -17 0 -20 -6 -17 -37 1 -21 -5 -63 -14
-95 -14 -49 -16 -88 -11 -258 9 -281 26 -349 112 -444 38 -42 122 -91 157 -91
9 0 40 -29 68 -65 49 -62 85 -92 103 -87 4 1 10 -5 13 -13 3 -8 10 -13 14 -10
5 3 14 -1 22 -8 7 -8 43 -24 78 -36 50 -18 77 -22 118 -17 64 8 119 29 142 56
10 11 20 20 24 20 3 0 20 16 38 35 l33 35 64 -20 c52 -17 70 -18 97 -10 37 12
75 53 104 110 17 33 26 39 62 45 61 10 117 45 171 108 37 44 54 55 84 60 64 9
131 43 153 79 26 42 36 113 20 133 -17 21 4 45 39 45 29 0 117 39 164 72 21
15 53 25 97 29 128 12 256 63 208 82 -7 3 -8 6 -3 6 6 0 30 -17 53 -38 33 -29
41 -41 30 -47 -7 -5 -13 -28 -14 -54 0 -25 -4 -69 -9 -97 -6 -41 -4 -63 9 -98
17 -44 17 -45 -8 -78 -15 -19 -42 -67 -62 -108 -62 -126 -48 -220 51 -337 76
-90 173 -256 194 -334 7 -26 11 -64 8 -85 -18 -121 -19 -144 -9 -156 9 -10 8
-18 -2 -33 -26 -35 -150 -160 -204 -203 -28 -24 -49 -48 -45 -53 3 -6 1 -8 -4
-5 -6 4 -58 -30 -115 -76 -58 -45 -140 -109 -183 -142 -202 -156 -336 -357
-380 -570 -31 -151 -60 -137 -59 28 1 101 4 120 32 193 20 51 51 103 84 145
29 35 80 100 113 144 33 44 144 164 248 268 103 103 187 193 187 200 0 8 4 7
11 -3 9 -12 10 -12 5 4 -4 10 2 32 13 50 11 17 40 81 65 143 39 95 46 122 46
180 0 120 -38 218 -103 267 -72 55 -217 52 -281 -4 -41 -37 -95 -148 -103
-211 -3 -27 -11 -49 -17 -49 -14 0 -65 -82 -97 -155 -44 -97 -28 -294 36 -458
20 -51 19 -90 -6 -138 -11 -23 -18 -47 -15 -55 3 -8 -1 -22 -8 -32 -165 -205
-169 -211 -203 -300 -32 -86 -43 -239 -21 -292 l15 -35 -131 -138 c-72 -76
-145 -158 -162 -181 -46 -61 -153 -273 -160 -315 -9 -59 -15 -69 -24 -46 -14
34 -11 74 9 113 26 50 29 119 9 162 -9 19 -32 74 -51 122 -40 104 -39 105 71
83 75 -16 128 -10 157 17 11 10 -14 30 -27 22 -4 -3 -8 6 -8 19 0 46 -145 444
-208 572 -21 44 -43 91 -47 105 -9 29 -45 109 -125 275 -99 207 -177 248 -246
130 -31 -54 -64 -157 -64 -205 -1 -19 -7 -71 -15 -115 -22 -121 -46 -425 -47
-596 -1 -109 6 -159 21 -159 11 0 22 57 16 83 -8 32 5 45 50 48 46 4 44 19 24
-149 -13 -109 -2 -180 28 -183 7 -1 17 -2 23 -3 11 -1 39 -37 40 -51 0 -5 -9
4 -20 20 -46 70 -10 -11 101 -225 30 -58 74 -148 98 -200 23 -52 66 -135 95
-185 30 -49 63 -108 75 -130 12 -22 26 -47 31 -55 6 -8 47 -85 91 -170 98
-185 139 -248 211 -316 56 -54 107 -80 134 -70 13 5 15 15 11 46 l-5 40 26
-20 c35 -28 46 -14 61 80 21 125 68 284 126 420 18 41 38 99 44 127 7 29 18
53 24 53 6 0 32 21 57 48 30 32 62 53 95 64 28 10 72 25 99 34 31 11 51 14 53
8 2 -6 26 -9 59 -6 45 4 59 1 77 -15 12 -11 29 -23 38 -26 9 -3 24 -21 33 -41
9 -20 21 -36 27 -36 6 0 50 -39 99 -86 108 -105 144 -132 191 -144 32 -9 40
-17 58 -63 15 -38 45 -76 98 -130 64 -64 88 -81 152 -106 111 -43 177 -53 251
-35 14 3 37 8 53 11 15 3 30 10 34 16 4 6 -2 8 -17 4 -16 -4 -9 6 27 38 32 29
62 68 83 112 27 55 35 63 40 48 4 -11 3 -28 -2 -39 -7 -12 -7 -21 0 -25 9 -5
-71 -101 -84 -101 -3 0 -12 -7 -21 -15 -24 -25 -6 -31 25 -8 15 11 42 27 60
37 18 9 48 41 68 71 37 55 36 53 18 128 -1 4 -2 12 -3 19 0 6 -4 8 -8 5 -3 -4
-12 -2 -20 4 -8 8 -13 8 -13 1 0 -6 6 -13 13 -16 9 -5 9 -7 0 -12 -7 -3 -9
-13 -6 -22 4 -12 1 -11 -10 3 -12 16 -13 31 -7 65 19 100 -52 329 -126 406
-34 36 -102 77 -114 69 -17 -11 2 -32 38 -44 47 -14 96 -72 129 -154 24 -56
26 -76 27 -197 1 -126 -1 -139 -26 -192 -35 -76 -97 -141 -160 -168 -43 -18
-62 -21 -110 -16 -146 17 -289 111 -363 240 l-29 49 50 -9 c170 -31 261 18
367 196 l51 85 5 117 c8 153 0 197 -51 298 -45 88 -88 130 -134 130 -16 0 -24
6 -24 18 0 30 -57 138 -94 180 l-36 39 0 102 c0 82 -4 108 -20 138 -11 21 -20
47 -20 58 0 11 -9 37 -20 58 -35 65 -29 80 86 213 34 38 104 131 156 205 214
305 246 366 287 552 17 76 31 156 31 178 0 77 -50 250 -89 309 -44 67 -74 165
-69 225 3 28 22 90 44 140 54 125 54 190 2 296 -42 85 -119 166 -168 175 -46
10 -44 15 37 77 57 43 118 142 152 246 25 77 6 201 -47 291 -14 25 -81 102
-149 171 -136 140 -163 185 -184 302 -12 67 -8 137 18 285 4 25 2 32 -11 32
-9 0 -16 -7 -16 -15 0 -8 -21 -45 -46 -82 -60 -88 -95 -159 -143 -289 -52
-146 -59 -170 -66 -234 -4 -30 -11 -69 -17 -87 -5 -18 -10 -46 -10 -63 -1 -35
-5 -36 -38 -13 -23 15 -24 16 -12 0 8 -9 22 -19 31 -22 15 -4 19 -21 24 -88 8
-93 28 -173 59 -232 70 -135 134 -198 268 -265 65 -33 77 -44 92 -79 43 -100
76 -328 82 -571 3 -101 -16 -198 -54 -281 l-20 -44 6 40 c23 181 7 272 -67
366 -16 20 -29 49 -29 63 0 16 -6 26 -15 26 -8 0 -15 5 -15 11 0 5 6 7 13 3 6
-4 0 4 -15 19 -16 14 -28 32 -28 39 0 18 -45 65 -78 82 -69 35 -177 31 -237
-9 l-35 -24 -34 53 c-46 68 -65 115 -61 146 12 78 28 160 32 160 2 0 15 -13
28 -28 13 -16 62 -53 107 -83 46 -29 109 -75 141 -102 56 -48 59 -49 100 -41
37 8 42 13 50 46 8 32 4 47 -27 112 -34 71 -81 140 -133 195 -12 14 -23 29
-23 32 0 7 -123 114 -159 139 -11 8 -21 20 -21 28 0 7 -4 11 -9 8 -9 -6 -121
79 -121 92 -1 4 -58 59 -128 122 -135 121 -162 151 -218 240 -51 81 -69 150
-54 208 13 54 23 68 62 88 44 23 111 20 154 -6 76 -48 107 -181 57 -249 -25
-32 -82 -40 -120 -16 -26 17 -26 22 -7 98 5 20 3 27 -9 27 -20 0 -36 -21 -43
-56 -7 -36 27 -89 73 -117 42 -24 103 -10 133 32 25 35 42 119 33 164 -14 73
-79 171 -139 208 -55 33 -95 22 -161 -46 -77 -78 -97 -128 -98 -240 0 -171 53
-237 379 -468 37 -27 66 -50 64 -52 -2 -2 -51 14 -108 37 -97 37 -115 41 -235
47 -144 8 -174 17 -257 79 -201 151 -264 230 -347 433 -72 176 -85 249 -71
419 12 137 25 205 62 309 64 185 71 219 30 171z m-67 -164 c-13 -35 -36 -126
-51 -202 -24 -125 -26 -152 -20 -269 4 -71 13 -160 20 -196 17 -77 76 -201
135 -279 58 -77 142 -161 154 -153 5 3 7 2 4 -4 -9 -14 43 -61 100 -89 l48
-23 -40 6 c-76 10 -160 46 -256 110 -97 63 -123 89 -135 137 -3 14 -12 30 -19
34 -18 10 -58 109 -51 127 3 8 2 15 -2 15 -4 0 -16 37 -27 83 -31 127 -28 302
8 431 37 135 129 336 153 336 2 0 -8 -29 -21 -64z m-561 -736 c9 -47 21 -116
27 -155 18 -110 74 -314 107 -385 56 -124 195 -300 236 -300 8 0 16 -3 18 -8
2 -4 34 -29 71 -56 38 -26 67 -49 65 -51 -8 -8 -104 17 -133 35 -63 39 -223
238 -285 355 -24 44 -51 92 -61 107 -11 14 -19 29 -19 33 0 4 -15 46 -34 94
-52 130 -70 233 -70 396 0 108 5 163 22 237 12 54 23 101 24 105 0 5 5 -66 9
-157 4 -91 15 -203 23 -250z m2043 248 c-1 -107 3 -132 25 -195 29 -81 42 -98
167 -228 48 -49 93 -103 101 -119 8 -16 20 -30 27 -33 6 -3 9 -12 6 -20 -4
-10 -2 -14 4 -10 7 4 18 -12 28 -40 9 -27 21 -58 26 -71 14 -37 11 -76 -15
-158 -30 -94 -91 -186 -158 -238 -27 -21 -50 -37 -52 -35 -2 2 -9 27 -16 54
-8 28 -29 86 -47 130 -18 43 -33 81 -33 84 0 2 -2 2 -5 -1 -3 -2 4 -31 15 -64
22 -63 60 -205 60 -224 0 -6 -40 10 -90 36 -99 50 -157 106 -214 203 -52 90
-67 145 -73 271 -9 191 47 420 154 638 39 80 78 142 87 142 2 0 3 -55 3 -122z
m-691 -53 c18 -13 16 -14 -23 -15 -23 0 -49 -3 -59 -7 -12 -4 -15 -3 -10 6 8
12 42 29 62 30 5 1 19 -6 30 -14z m-757 -209 c23 -54 40 -103 39 -108 -7 -20
-88 166 -88 201 0 22 4 14 49 -93z m639 -196 c49 -73 159 -187 275 -284 32
-27 55 -51 53 -53 -3 -3 -40 21 -83 54 -43 32 -97 71 -121 86 -61 40 -154 138
-181 193 -16 31 -25 70 -27 113 l-4 66 19 -50 c10 -28 41 -84 69 -125z m162
-363 c19 -9 73 -30 120 -48 115 -42 153 -62 236 -125 99 -74 144 -128 205
-248 48 -96 57 -136 30 -136 -9 0 -164 128 -186 154 -32 37 -249 195 -288 209
-11 4 -21 16 -24 27 -3 12 -14 20 -25 20 -11 0 -35 12 -53 28 -18 15 -65 45
-104 67 -39 22 -71 43 -71 46 0 4 -9 9 -21 12 -12 3 -19 10 -16 14 8 13 157
-2 197 -20z m-179 -14 c32 -21 59 -41 59 -45 0 -4 -31 9 -70 30 -65 34 -85 52
-59 52 6 0 37 -17 70 -37z m-1338 -338 c70 -106 108 -155 157 -208 56 -62 74
-71 100 -55 16 10 22 10 32 -1 11 -11 9 -12 -9 -7 -12 4 -24 2 -28 -4 -10 -16
-66 -11 -111 9 -79 36 -207 238 -282 446 -65 181 -59 192 20 35 41 -80 95
-176 121 -215z m-119 289 c3 -8 2 -12 -4 -9 -6 3 -10 10 -10 16 0 14 7 11 14
-7z m-10 -184 c39 -99 63 -145 128 -244 21 -32 37 -61 34 -63 -9 -9 -79 74
-111 132 -39 69 -67 143 -89 233 -16 65 -21 107 -6 62 4 -14 24 -68 44 -120z
m-308 -110 c33 -151 97 -353 145 -455 15 -32 26 -61 24 -63 -2 -3 -26 6 -52
19 -66 33 -103 87 -143 210 -34 104 -34 104 -33 282 3 211 11 255 30 152 6
-38 20 -104 29 -145z m2049 130 l29 -19 -64 -30 c-36 -16 -81 -32 -100 -36
l-35 -6 30 19 c17 11 44 36 62 56 36 42 38 42 78 16z m-2017 -112 c12 -50 36
-135 86 -303 34 -117 41 -160 13 -94 -29 72 -117 390 -117 424 0 28 8 15 18
-27z m1635 19 c58 -16 53 -21 -48 -62 -56 -22 -90 -29 -170 -32 -55 -2 -116
-1 -135 2 l-35 7 34 14 c18 8 54 29 80 48 25 18 53 36 61 40 22 9 157 -2 213
-17z m652 -108 l20 -22 -33 19 c-18 10 -40 30 -49 43 l-16 24 29 -20 c16 -12
38 -31 49 -44z m563 -9 c23 -23 57 -69 74 -103 28 -54 32 -72 33 -142 0 -70
-4 -89 -34 -155 -42 -91 -53 -192 -27 -254 9 -21 16 -40 16 -42 0 -2 -16 4
-35 13 -34 16 -45 36 -25 48 15 9 12 65 -2 65 -10 0 -10 2 -1 8 7 5 11 23 9
45 -2 20 0 37 5 37 4 0 6 10 3 23 -3 12 -6 36 -8 53 -2 17 -6 36 -10 42 -3 6
0 12 6 15 10 3 10 7 1 18 -7 8 -12 24 -11 34 0 19 -5 53 -17 120 -6 33 -52
170 -67 198 -7 14 -4 17 20 17 19 0 41 -13 70 -40z m-1333 -62 c-8 -52 -46
-119 -81 -147 -35 -27 -48 -27 -39 2 3 12 14 56 23 97 l17 75 40 6 c22 3 42 7
43 8 2 0 1 -18 -3 -41z m-406 -129 c37 -8 177 -64 190 -75 7 -7 -56 -56 -98
-76 -36 -17 -55 -19 -105 -14 -84 10 -168 37 -162 53 6 15 -10 27 -19 13 -3
-5 -12 -10 -19 -10 -16 0 -106 59 -106 70 0 5 28 17 63 28 69 22 187 27 256
11z m1080 -69 c22 -40 22 -41 4 -88 -26 -66 -23 -172 6 -234 39 -81 135 -109
209 -62 24 16 43 53 35 67 -2 4 -18 -4 -35 -18 -41 -35 -80 -33 -123 8 -29 26
-37 42 -41 82 -9 74 9 126 61 179 51 51 91 63 151 47 44 -12 101 -61 115 -99
5 -14 12 -66 16 -116 6 -89 4 -96 -37 -216 -23 -69 -55 -168 -70 -220 -27 -93
-106 -268 -138 -303 -27 -30 -35 3 -21 88 10 58 10 85 1 126 -15 63 -104 223
-182 327 -31 42 -67 95 -79 117 -28 53 -28 143 0 205 24 54 87 150 98 150 4 0
17 -18 30 -40z m618 -22 c-3 -7 -5 -2 -5 12 0 14 2 19 5 13 2 -7 2 -19 0 -25z
m-552 -52 c-53 -90 -61 -190 -21 -251 20 -30 21 -41 2 -26 -20 17 -46 97 -46
140 0 56 19 112 52 154 40 50 47 40 13 -17z m562 -63 c-2 -16 -4 -3 -4 27 0
30 2 43 4 28 2 -16 2 -40 0 -55z m-1861 42 c16 -8 41 -15 56 -15 33 0 41 -12
25 -33 -11 -15 -15 -15 -54 2 -23 11 -46 29 -53 40 -13 25 -11 25 26 6z m-30
-26 c10 -12 34 -28 52 -36 l33 -14 -21 -29 c-39 -54 -142 -88 -169 -56 -11 13
-11 16 2 16 13 0 25 18 32 50 1 3 6 16 12 30 6 14 14 33 17 43 7 23 19 22 42
-4z m267 -8 c-23 -19 -97 -36 -114 -25 -21 12 12 29 69 35 31 3 59 7 62 7 3 1
-5 -7 -17 -17z m1434 -43 c-3 -8 -6 -5 -6 6 -1 11 2 17 5 13 3 -3 4 -12 1 -19z
m-2112 -37 c39 -11 96 -29 127 -40 32 -12 64 -21 72 -21 47 0 -2 -69 -82 -117
-101 -60 -246 -23 -350 88 -26 29 -52 56 -58 63 -8 8 5 15 50 27 84 22 158 22
241 0z m514 -3 c-39 -76 -89 -109 -140 -93 -18 6 -13 10 32 25 37 13 63 30 82
54 33 41 43 46 26 14z m1675 -108 c42 -90 16 -383 -44 -499 l-30 -56 8 45 c11
72 8 230 -7 297 -11 50 -11 66 -1 78 7 8 10 24 7 35 -3 12 -1 18 5 14 6 -4 9
12 7 44 -2 29 0 48 5 44 5 -3 6 2 3 12 -4 10 -10 30 -14 44 l-6 27 23 -20 c13
-11 32 -40 44 -65z m-98 -69 c-5 -28 -13 -48 -18 -45 -9 6 -1 48 14 77 14 28
15 20 4 -32z m-658 -74 c81 -30 132 -116 140 -239 5 -91 -7 -138 -76 -276 -59
-117 -101 -173 -179 -237 -34 -27 -107 -102 -164 -165 -101 -114 -137 -147
-103 -96 25 39 20 99 -16 190 -36 93 -54 211 -48 308 4 52 14 86 41 142 20 39
45 80 57 91 20 18 20 18 20 -3 0 -49 32 -102 76 -128 37 -22 52 -25 90 -19 24
3 61 13 80 21 35 14 83 60 84 78 0 13 -60 -2 -89 -22 -15 -9 -33 -17 -41 -18
-8 -1 -25 -2 -37 -3 -13 0 -23 -5 -23 -11 0 -19 85 -4 128 23 7 5 12 4 12 -2
0 -18 -59 -42 -114 -48 -42 -4 -57 -1 -86 19 -19 13 -40 35 -47 48 -22 43 -16
143 12 213 29 72 84 133 110 123 9 -3 26 1 38 9 25 18 88 18 135 2z m618 -90
c-13 -35 -35 -88 -49 -118 -14 -30 -28 -67 -32 -84 -4 -16 -9 -25 -12 -18 -5
13 40 159 87 288 10 26 13 28 21 13 6 -12 2 -36 -15 -81z m348 28 l6 -40 -15
45 c-17 53 -18 57 -6 45 5 -6 12 -28 15 -50z m-51 -48 c3 -37 8 -71 12 -76 3
-6 0 -24 -7 -41 -12 -30 -13 -27 -15 46 0 42 -4 98 -7 123 -4 29 -3 40 3 31 4
-8 11 -45 14 -83z m14 31 c-2 -13 -4 -3 -4 22 0 25 2 35 4 23 2 -13 2 -33 0
-45z m-44 -16 c4 -21 3 -31 -3 -27 -6 3 -10 20 -10 37 0 38 5 34 13 -10z m155
-24 c10 -24 26 -78 35 -120 15 -73 14 -83 -3 -156 -32 -131 -76 -252 -133
-362 -31 -58 -71 -136 -91 -175 -19 -38 -54 -95 -78 -126 -124 -161 -191 -238
-201 -232 -5 3 -7 2 -4 -4 7 -11 -39 -71 -48 -62 -3 4 4 16 16 28 13 12 18 21
12 21 -7 0 -21 -13 -33 -30 -20 -28 -20 -30 -3 -31 16 0 16 -1 -2 -9 -11 -5
-16 -9 -12 -9 4 -1 2 -7 -5 -15 -7 -8 -16 -12 -19 -10 -7 4 -34 -24 -34 -35 0
-3 -12 -6 -28 -7 -34 -1 -38 -5 -41 -38 -3 -23 -1 -25 13 -14 9 7 19 18 23 23
5 7 8 6 8 -1 0 -6 -39 -48 -86 -94 -47 -46 -90 -92 -96 -103 -8 -16 -12 -17
-19 -6 -5 9 3 24 27 48 18 19 34 38 34 43 0 4 7 8 15 8 15 0 20 12 9 22 -6 7
-94 -78 -94 -90 0 -5 -12 -15 -26 -23 -33 -17 -104 -88 -95 -93 4 -3 32 18 64
46 105 92 59 32 -76 -98 -73 -71 -150 -154 -172 -184 -22 -30 -63 -86 -93
-123 -107 -136 -202 -351 -202 -459 0 -27 -4 -48 -10 -48 -5 0 -10 9 -10 21 0
11 -27 61 -60 111 -33 49 -60 98 -60 108 0 26 21 80 31 80 5 0 9 7 9 16 0 18
66 114 87 127 7 4 13 13 13 19 0 6 11 21 24 33 27 25 29 32 26 90 -1 32 -3 36
-10 20 -5 -11 -9 -36 -9 -56 -1 -23 -7 -39 -16 -43 -12 -4 -15 3 -15 35 0 42
23 80 94 157 31 33 31 33 38 10 5 -20 6 -19 7 9 1 24 15 46 59 92 31 34 60 61
63 61 7 0 1 -45 -8 -70 -4 -11 -8 -8 -13 10 l-8 25 -1 -28 c-1 -31 -17 -67
-30 -67 -5 0 -6 12 -4 28 2 15 -4 5 -14 -23 -11 -30 -27 -54 -40 -61 -13 -6
-20 -13 -17 -17 3 -3 -1 -16 -10 -29 l-16 -22 -1 34 c-1 31 -2 30 -11 -15 -5
-27 -14 -55 -20 -62 -12 -15 -7 -25 7 -15 6 4 27 33 49 64 21 32 55 73 76 92
21 19 42 41 46 49 5 8 36 43 68 78 32 35 68 79 78 97 11 17 26 32 34 32 8 0
14 6 14 14 0 13 23 43 140 185 31 36 66 82 79 101 14 19 32 44 42 55 39 43 54
63 66 81 6 10 15 18 20 17 5 -1 10 10 11 25 1 15 9 32 17 38 8 6 15 15 15 19
0 4 52 85 115 180 63 95 121 185 128 201 7 16 34 63 61 104 50 77 153 284 211
425 63 154 60 152 93 83z m-362 -60 c8 -86 -9 -225 -35 -300 -23 -64 -91 -211
-96 -206 -2 2 3 30 11 63 9 36 16 116 18 200 1 77 6 147 11 155 5 8 10 21 11
28 2 8 9 28 17 45 8 18 21 51 28 75 16 56 27 38 35 -60z m193 -38 c0 -31 5
-60 10 -65 5 -6 3 -23 -5 -40 -7 -16 -14 -28 -15 -25 -7 20 -22 227 -16 223 4
-2 8 2 8 9 3 29 17 -51 18 -102z m68 78 c-3 -8 -6 -5 -6 6 -1 11 2 17 5 13 3
-3 4 -12 1 -19z m-90 -216 c8 -5 8 -13 -2 -32 -10 -19 -15 -21 -18 -10 -9 28
-15 165 -9 195 5 21 9 3 12 -58 3 -51 10 -91 17 -95z m-40 1 c10 -88 3 -140
-17 -128 -12 8 -12 215 0 215 4 0 12 -39 17 -87z m-250 -95 c-6 -118 -39 -274
-71 -333 -27 -49 -174 -275 -180 -275 -2 0 3 19 11 42 11 32 14 82 12 194 l-3
151 31 50 c17 28 51 73 75 100 25 27 62 78 82 111 21 34 40 62 43 62 3 0 3
-46 0 -102z m215 25 c1 -38 2 -80 1 -94 -1 -26 -42 -99 -55 -99 -12 0 -9 178
2 185 6 4 10 -16 10 -54 0 -33 4 -62 9 -65 5 -3 6 22 4 58 -6 70 3 136 17 136
6 0 11 -30 12 -67z m-102 -280 c-19 -35 -39 -63 -44 -63 -4 0 -5 7 -2 16 3 9
6 45 6 80 0 40 4 64 11 64 7 0 10 -17 7 -45 -2 -25 0 -45 4 -45 5 0 8 31 8 69
0 90 13 125 21 56 6 -50 6 -50 9 20 l3 70 7 -80 c6 -78 5 -81 -30 -142z m375
115 c-20 -74 -126 -298 -132 -281 -4 11 24 82 37 93 13 11 80 168 91 213 6 26
14 45 17 43 2 -3 -3 -34 -13 -68z m-430 -153 c-3 -35 -12 -71 -19 -80 -10 -14
-11 -5 -8 52 3 65 22 128 30 103 2 -6 1 -40 -3 -75z m-306 -91 c1 -50 -3 -114
-9 -143 -20 -109 -106 -251 -256 -426 -24 -27 -96 -118 -161 -201 -218 -279
-293 -368 -421 -499 -113 -115 -133 -141 -175 -225 -64 -128 -97 -250 -104
-377 -5 -91 -4 -103 12 -109 27 -11 35 13 35 106 0 61 7 104 23 150 23 69 92
197 133 246 l23 29 1 -51 c0 -68 20 -121 70 -189 23 -31 47 -74 55 -96 13 -36
12 -46 -7 -107 -11 -37 -33 -92 -49 -123 -15 -31 -44 -121 -64 -200 -19 -79
-40 -160 -45 -180 -6 -20 -10 -54 -11 -75 0 -45 1 -48 -57 101 -58 147 -146
353 -172 405 -36 72 -140 250 -181 313 -21 31 -34 57 -30 57 5 0 14 21 21 48
23 93 102 244 177 338 71 91 288 302 433 424 126 106 248 239 291 316 40 74
54 131 24 100 -8 -8 -15 -17 -15 -20 0 -9 -73 -119 -110 -165 -19 -24 -78 -82
-130 -129 -52 -48 -94 -90 -92 -95 1 -5 -1 -6 -6 -3 -5 3 -24 -9 -42 -27 l-33
-32 7 40 c10 53 33 118 64 184 27 58 192 232 261 275 99 63 362 291 467 406
70 77 71 75 73 -66z m266 27 c-4 -41 -13 -75 -21 -82 -13 -11 -14 -3 -8 57 6
67 20 111 31 100 3 -2 2 -36 -2 -75z m-2026 33 c26 -23 56 -68 84 -127 84
-172 117 -243 117 -250 0 -4 16 -42 36 -84 52 -113 55 -121 41 -127 -7 -2 -4
-5 6 -5 9 -1 17 -6 17 -12 0 -5 -6 -7 -12 -4 -7 4 -5 0 6 -9 10 -8 15 -19 11
-25 -3 -6 -1 -11 4 -11 6 0 11 -9 11 -20 0 -11 5 -20 10 -20 6 0 10 -8 10 -18
0 -10 4 -22 9 -27 28 -28 125 -337 116 -366 -7 -22 -52 -26 -78 -6 -17 13 -82
140 -136 267 -84 194 -138 307 -168 348 -21 28 -30 32 -69 32 -58 0 -74 -9
-110 -62 -16 -24 -31 -45 -34 -48 -3 -3 -18 -39 -34 -80 -15 -41 -34 -89 -42
-107 -7 -18 -9 -35 -5 -38 5 -3 7 -14 4 -25 -3 -11 -10 -17 -16 -13 -6 4 -8 0
-4 -11 4 -10 3 -15 -4 -11 -13 9 -3 318 16 450 8 55 19 134 24 175 17 131 88
270 137 270 7 0 32 -16 53 -36z m1620 -32 c-43 -47 -303 -268 -389 -328 -36
-26 -82 -63 -102 -82 -21 -20 -38 -31 -38 -26 0 17 128 135 215 199 84 62 206
160 290 232 27 24 51 43 53 43 3 0 -11 -17 -29 -38z m361 -61 c0 -39 -4 -73
-10 -76 -6 -4 -7 19 -3 61 5 51 3 68 -8 75 -11 7 -11 9 4 9 15 0 17 -10 17
-69z m-30 -49 c0 -36 -6 -66 -15 -78 -13 -17 -14 -14 -15 43 0 34 3 68 6 77
13 33 24 14 24 -42z m-46 -121 c-5 -10 -10 3 -15 38 -5 36 -3 60 4 73 10 16
12 10 15 -38 2 -31 0 -64 -4 -73z m-43 -64 c-8 -8 -11 0 -11 26 0 20 -4 37
-10 37 -6 0 -10 -28 -10 -62 0 -35 -5 -70 -11 -78 -7 -11 -8 2 -3 43 4 38 3
57 -4 57 -7 0 -12 -29 -14 -72 -2 -39 -8 -73 -14 -75 -7 -2 -9 18 -6 59 4 51
12 76 46 133 l41 70 3 -64 c2 -36 -2 -69 -7 -74z m-95 -94 c-8 -74 -25 -109
-37 -76 -6 13 -8 10 -8 -14 -1 -46 -21 -41 -21 5 0 72 24 112 33 55 3 -19 4
-15 6 15 1 41 15 82 28 82 3 0 3 -30 -1 -67z m-76 -97 c0 -36 -4 -67 -9 -71
-6 -3 -9 23 -8 65 2 88 17 93 17 6z m-1686 -13 c3 -21 6 -60 6 -88 0 -36 3
-46 10 -35 7 11 10 6 10 -22 0 -33 -4 -38 -35 -49 -42 -16 -89 -82 -104 -147
-5 -24 -11 -45 -13 -47 -1 -1 -22 -6 -45 -10 -50 -8 -50 -9 -24 90 53 197 75
249 135 313 39 42 52 40 60 -5z m1662 21 c-3 -9 -6 -34 -6 -57 0 -26 -8 -52
-19 -67 l-20 -25 6 65 c3 36 10 73 15 83 11 21 32 23 24 1z m-1617 -1 c-3 -21
2 -33 13 -27 7 4 8 3 4 -4 -4 -6 7 -21 24 -34 18 -13 35 -38 42 -63 7 -22 15
-42 19 -45 8 -5 89 -175 89 -185 0 -5 45 -103 88 -192 l30 -61 -52 1 -52 1
-49 105 c-28 58 -74 146 -104 195 -50 83 -54 96 -65 185 -12 100 -11 131 5
131 5 0 8 -3 8 -7z m1567 -104 c-5 -46 -14 -68 -33 -88 l-25 -26 7 32 c3 18 2
34 -4 38 -7 4 -7 12 2 25 16 26 25 25 30 -2 2 -13 3 -7 2 12 -1 30 12 70 24
70 2 0 0 -27 -3 -61z m-76 -146 c-9 -15 -10 -12 -7 15 2 17 0 32 -5 32 -4 0
-8 -17 -8 -39 0 -50 -26 -75 -32 -31 -3 21 4 43 26 77 l31 47 3 -42 c2 -23 -2
-50 -8 -59z m389 70 c-56 -73 -229 -237 -229 -217 0 6 232 234 239 234 2 0 -3
-8 -10 -17z m50 -36 c12 -24 21 -49 21 -55 0 -6 12 -37 26 -69 23 -53 25 -66
21 -148 -3 -49 -8 -99 -10 -110 -2 -11 -8 -38 -12 -60 -3 -22 -15 -56 -25 -75
-10 -19 -28 -56 -39 -81 -48 -103 -184 -235 -327 -315 -69 -39 -67 -38 -279
-95 -82 -22 -161 -47 -174 -55 -13 -9 -27 -12 -32 -7 -12 12 13 100 45 159 14
27 30 62 36 77 19 52 220 336 304 427 22 25 59 69 81 97 22 29 71 80 110 115
102 93 147 138 189 191 21 26 40 47 41 47 2 0 13 -19 24 -43z m-1908 -70 c46
-62 147 -262 154 -307 6 -38 7 -39 -42 35 -41 64 -172 326 -160 322 7 -2 28
-25 48 -50z m1390 -60 c-13 -13 -15 41 -3 70 5 13 8 8 10 -21 2 -21 -1 -43 -7
-49z m-1464 51 c-2 -7 3 -18 11 -24 11 -8 12 -16 5 -30 -6 -10 -34 -90 -63
-177 -37 -109 -56 -155 -64 -147 -12 12 1 82 46 250 27 97 47 140 66 140 2 0
2 -6 -1 -12z m1436 -61 c-7 -45 -23 -59 -23 -20 0 17 3 38 6 47 10 27 23 8 17
-27z m-1507 -39 c-11 -40 -23 -75 -26 -78 -3 -3 -5 -11 -6 -17 -5 -61 -4 -59
-15 -41 -7 12 -5 28 6 55 9 21 16 38 15 38 -1 0 1 7 3 15 3 8 10 34 16 58 7
23 15 42 20 42 5 0 -1 -33 -13 -72z m212 -149 c18 -26 32 -52 32 -58 0 -6 4
-11 9 -11 4 0 19 -23 32 -52 13 -28 45 -96 72 -151 47 -97 57 -140 36 -152
-10 -7 -30 -47 -36 -75 -22 -104 -26 -154 -14 -188 16 -45 121 -261 137 -282
6 -8 29 -49 50 -90 41 -78 42 -80 75 -120 75 -90 207 -344 195 -375 -8 -21
-18 -19 -64 15 -54 39 -126 152 -247 385 -54 105 -101 192 -106 195 -4 3 -10
17 -14 32 -4 15 -13 32 -21 39 -8 6 -14 17 -14 23 0 6 -18 38 -39 72 -41 65
-98 179 -154 309 -87 201 -111 252 -133 282 -13 17 -24 37 -24 43 0 16 63 202
96 284 l28 70 36 -75 c20 -41 50 -95 68 -120z m1251 115 l-13 -29 -3 26 c-2
14 2 38 8 55 l13 29 3 -26 c2 -14 -2 -38 -8 -55z m-1622 34 c-3 -8 -6 -5 -6 6
-1 11 2 17 5 13 3 -3 4 -12 1 -19z m1581 -80 l-13 -23 -3 29 c-2 16 2 41 10
54 l13 26 3 -32 c2 -17 -3 -41 -10 -54z m150 -129 c-109 -124 -169 -199 -161
-199 5 0 23 17 39 37 77 98 194 224 194 210 0 -4 -24 -33 -52 -65 -160 -178
-350 -484 -388 -627 -16 -61 -26 -74 -35 -46 -9 29 7 73 77 221 57 118 98 187
142 237 11 13 17 25 14 28 -18 18 -156 -215 -229 -385 -18 -43 -19 -43 -13
-10 14 84 120 267 253 435 52 66 199 225 209 225 2 0 -20 -27 -50 -61z m-1621
29 c-3 -8 -6 -5 -6 6 -1 11 2 17 5 13 3 -3 4 -12 1 -19z m2224 -80 c60 -82 79
-135 79 -223 0 -69 -28 -208 -29 -148 -1 25 -16 39 -26 23 -3 -5 -1 -10 4 -10
6 0 11 -9 11 -20 0 -13 -5 -18 -15 -14 -9 4 -15 0 -15 -10 0 -10 6 -13 16 -9
14 5 14 3 3 -15 -7 -11 -17 -18 -23 -15 -5 4 -7 -1 -3 -10 4 -10 1 -17 -6 -17
-8 0 -7 -4 3 -10 13 -8 11 -12 -7 -30 -13 -11 -26 -20 -30 -19 -4 0 -9 -5 -12
-12 -2 -7 1 -9 8 -5 6 4 11 5 11 3 0 -11 -127 -91 -178 -112 -130 -53 -275
-31 -406 61 -11 7 -33 11 -50 8 -17 -3 15 11 72 30 57 20 116 45 132 56 15 11
31 20 35 20 19 0 106 72 181 148 66 69 94 106 129 177 24 50 50 114 56 143 7
28 16 52 21 52 4 0 22 -19 39 -42z m-1841 -9 c0 -6 -4 -7 -10 -4 -5 3 -10 11
-10 16 0 6 5 7 10 4 6 -3 10 -11 10 -16z m771 -202 c-8 -8 -11 2 -11 34 0 59
14 73 18 19 2 -24 -2 -48 -7 -53z m-35 -49 c-15 -22 -16 -21 -16 28 0 27 6 56
13 63 19 20 22 -63 3 -91z m-1006 -10 c0 -18 -11 -6 -27 30 -26 58 -26 60 1
17 14 -22 26 -43 26 -47z m2287 58 c40 -34 94 -154 103 -229 7 -58 0 -158 -16
-224 -13 -54 -79 -168 -124 -214 -60 -60 -128 -84 -214 -75 -166 17 -210 39
-351 179 -77 77 -86 89 -60 82 124 -32 208 -28 299 14 82 38 168 103 200 152
52 77 86 193 86 289 0 46 2 50 24 50 14 0 38 -11 53 -24z m-1316 -93 c-8 -14
-10 -5 -11 38 0 31 3 59 8 63 11 12 14 -82 3 -101z m-88 64 c-4 -7 -32 -47
-62 -89 -57 -81 -85 -101 -36 -26 38 58 129 165 98 115z m53 -113 c-9 -13 -16
-30 -16 -39 0 -9 -4 -13 -10 -10 -5 3 -9 30 -9 58 2 47 2 49 8 17 6 -33 7 -34
14 -10 4 14 7 39 7 56 0 50 15 50 18 -1 2 -30 -2 -55 -12 -71z m-188 -89 c-6
-14 -13 -23 -15 -21 -5 5 15 46 22 46 3 0 -1 -11 -7 -25z m-405 -122 c-3 -19
-2 -24 5 -15 7 10 12 5 22 -20 7 -18 23 -46 35 -63 12 -16 30 -45 39 -63 10
-19 20 -31 23 -28 3 3 -13 34 -36 70 -44 70 -57 104 -17 46 22 -33 116 -198
142 -250 25 -50 94 -200 94 -205 0 -2 11 -28 24 -57 31 -70 69 -179 63 -184
-2 -2 -17 24 -32 58 -15 35 -64 140 -107 233 -44 94 -89 194 -100 223 -11 29
-22 52 -24 50 -6 -7 35 -127 52 -153 9 -14 14 -28 11 -31 -3 -3 -13 9 -23 28
-9 18 -31 50 -48 70 -48 57 -130 207 -152 278 -15 48 -18 112 -7 124 11 11 41
-80 36 -111z m-158 -83 c19 -38 33 -70 30 -70 -2 0 -21 32 -40 70 -19 39 -33
70 -30 70 2 0 21 -31 40 -70z m902 -2 c-2 -13 -4 -3 -4 22 0 25 2 35 4 23 2
-13 2 -33 0 -45z m-543 -347 c4 -5 -3 -7 -14 -4 -23 6 -26 13 -6 13 8 0 17 -4
20 -9z m31 -52 c22 -42 15 -44 -12 -3 -12 19 -18 34 -13 34 5 0 17 -14 25 -31z"/>
<path d="M4340 5368 c-24 -40 -25 -39 0 -66 39 -41 100 -17 100 40 0 60 -69
77 -100 26z m68 -29 c-2 -18 -9 -24 -27 -24 -33 0 -37 19 -11 45 25 25 44 15
38 -21z"/>
<path d="M3751 5029 c-11 -12 -19 -25 -16 -28 3 -2 15 6 26 18 12 12 19 25 16
27 -3 3 -14 -5 -26 -17z"/>
<path d="M3800 4878 c-11 -18 -20 -38 -20 -43 0 -20 24 -35 55 -35 56 0 85 58
47 93 -29 27 -60 21 -82 -15z m70 -7 c0 -25 -14 -41 -36 -41 -28 0 -30 7 -7
32 17 19 43 24 43 9z"/>
<path d="M3686 4738 c-8 -18 18 -63 42 -72 20 -9 14 22 -7 34 -11 5 -21 20
-24 32 -3 20 -5 21 -11 6z"/>
<path d="M4265 3530 c-10 -11 -15 -23 -12 -27 8 -7 47 25 47 39 0 14 -16 9
-35 -12z"/>
<path d="M3987 3255 c-10 -14 -14 -25 -10 -25 4 0 16 12 26 25 10 14 14 25 10
25 -4 0 -16 -12 -26 -25z"/>
<path d="M3942 3199 c-19 -30 -11 -32 11 -3 10 13 14 24 10 24 -5 0 -14 -9
-21 -21z"/>
<path d="M2450 4262 c25 -10 48 -17 53 -15 14 8 7 22 -10 21 -10 0 -34 3 -53
6 -32 6 -32 5 10 -12z"/>
<path d="M2650 3953 c0 -4 5 -15 10 -23 8 -13 10 -13 10 2 0 9 -4 20 -10 23
-5 3 -10 3 -10 -2z"/>
<path d="M2725 3760 c3 -5 8 -10 11 -10 2 0 4 5 4 10 0 6 -5 10 -11 10 -5 0
-7 -4 -4 -10z"/>
<path d="M2541 7244 c0 -11 3 -14 6 -6 3 7 2 16 -1 19 -3 4 -6 -2 -5 -13z"/>
<path d="M4081 6844 c0 -11 3 -14 6 -6 3 7 2 16 -1 19 -3 4 -6 -2 -5 -13z"/>
<path d="M4091 6810 c0 -8 6 -26 15 -40 l15 -25 -7 25 c-3 14 -10 32 -15 40
-7 13 -8 13 -8 0z"/>
<path d="M4135 6688 c4 -13 11 -27 16 -33 5 -5 4 5 -2 23 -12 36 -24 44 -14
10z"/>
<path d="M4210 6532 c6 -13 14 -21 18 -18 3 4 -2 14 -12 24 -18 16 -18 16 -6
-6z"/>
<path d="M2461 6500 c0 -8 4 -22 9 -30 12 -18 12 -2 0 25 -6 13 -9 15 -9 5z"/>
<path d="M2480 6434 c0 -6 7 -29 16 -50 9 -22 20 -50 25 -63 5 -13 12 -22 14
-19 3 2 -9 36 -25 74 -16 38 -30 64 -30 58z"/>
<path d="M3300 6306 c0 -2 7 -6 15 -10 8 -3 15 -1 15 4 0 6 -7 10 -15 10 -8 0
-15 -2 -15 -4z"/>
<path d="M3345 6290 c3 -5 11 -10 16 -10 6 0 7 5 4 10 -3 6 -11 10 -16 10 -6
0 -7 -4 -4 -10z"/>
<path d="M2546 6265 c4 -8 11 -15 16 -15 6 0 5 6 -2 15 -7 8 -14 15 -16 15 -2
0 -1 -7 2 -15z"/>
<path d="M2570 6235 c0 -14 45 -93 69 -120 14 -17 35 -47 46 -68 11 -20 23
-37 27 -37 13 0 10 6 -37 72 -24 35 -56 84 -70 111 -23 42 -35 57 -35 42z"/>
<path d="M7300 5980 c-13 -8 -12 -10 3 -10 9 0 17 5 17 10 0 12 -1 12 -20 0z"/>
<path d="M7309 5948 c-4 -41 16 -108 32 -108 5 0 3 15 -5 34 -7 18 -12 45 -9
60 3 15 1 26 -6 26 -6 0 -12 -6 -12 -12z"/>
<path d="M2775 5930 c3 -5 11 -10 16 -10 6 0 7 5 4 10 -3 6 -11 10 -16 10 -6
0 -7 -4 -4 -10z"/>
<path d="M7605 4970 c-3 -5 -1 -10 4 -10 6 0 11 5 11 10 0 6 -2 10 -4 10 -3 0
-8 -4 -11 -10z"/>
<path d="M6928 4523 c7 -3 16 -2 19 1 4 3 -2 6 -13 5 -11 0 -14 -3 -6 -6z"/>
<path d="M4010 4459 c0 -5 5 -7 10 -4 6 3 10 8 10 11 0 2 -4 4 -10 4 -5 0 -10
-5 -10 -11z"/>
<path d="M7945 3260 c-8 -13 5 -13 25 0 13 8 13 10 -2 10 -9 0 -20 -4 -23 -10z"/>
<path d="M7451 3224 c0 -11 3 -14 6 -6 3 7 2 16 -1 19 -3 4 -6 -2 -5 -13z"/>
<path d="M7976 3222 c-3 -5 1 -9 9 -9 8 0 12 4 9 9 -3 4 -7 8 -9 8 -2 0 -6 -4
-9 -8z"/>
<path d="M7700 3196 c0 -2 7 -6 15 -10 8 -3 15 -1 15 4 0 6 -7 10 -15 10 -8 0
-15 -2 -15 -4z"/>
<path d="M7846 3188 c3 -5 10 -6 15 -3 13 9 11 12 -6 12 -8 0 -12 -4 -9 -9z"/>
<path d="M7993 3184 c0 -7 9 -14 19 -14 10 0 18 2 18 5 0 2 -8 9 -18 14 -14 8
-19 6 -19 -5z"/>
<path d="M7780 3160 c0 -5 10 -10 23 -10 18 0 19 2 7 10 -19 13 -30 13 -30 0z"/>
<path d="M7995 3150 c-3 -5 1 -10 9 -10 9 0 16 5 16 10 0 6 -4 10 -9 10 -6 0
-13 -4 -16 -10z"/>
<path d="M7116 3057 c-11 -8 -16 -20 -13 -28 4 -10 6 -10 6 3 1 11 6 15 16 12
8 -4 12 -11 8 -17 -3 -6 -1 -7 5 -3 13 8 16 46 4 46 -5 0 -16 -6 -26 -13z"/>
<path d="M7977 3049 c7 -7 15 -10 18 -7 3 3 -2 9 -12 12 -14 6 -15 5 -6 -5z"/>
<path d="M7171 3014 c1 -21 16 -47 21 -38 4 5 0 18 -8 29 -8 10 -14 15 -13 9z"/>
<path d="M7767 3004 c2 -7 11 -10 19 -7 19 7 18 10 -5 16 -13 3 -18 1 -14 -9z"/>
<path d="M7490 2997 c0 -25 29 -33 48 -12 16 17 16 17 -3 7 -15 -8 -22 -6 -32
6 -11 16 -12 16 -13 -1z"/>
<path d="M7717 2963 c-13 -13 -7 -21 13 -16 11 3 17 9 14 14 -6 11 -18 12 -27
2z"/>
<path d="M8100 2961 c0 -6 4 -13 10 -16 6 -3 7 1 4 9 -7 18 -14 21 -14 7z"/>
<path d="M7215 2950 c-3 -6 1 -7 9 -4 18 7 21 14 7 14 -6 0 -13 -4 -16 -10z"/>
<path d="M7880 2946 c0 -8 4 -17 8 -20 4 -2 8 4 8 15 0 10 -4 19 -8 19 -4 0
-8 -6 -8 -14z"/>
<path d="M7995 2950 c3 -5 8 -10 11 -10 2 0 4 5 4 10 0 6 -5 10 -11 10 -5 0
-7 -4 -4 -10z"/>
<path d="M8065 2950 c-3 -5 1 -10 10 -10 9 0 13 5 10 10 -3 6 -8 10 -10 10 -2
0 -7 -4 -10 -10z"/>
<path d="M7610 2940 c-17 -11 -8 -23 14 -18 9 2 12 8 8 15 -5 8 -13 9 -22 3z"/>
<path d="M7660 2940 c-10 -6 -9 -9 1 -13 9 -3 4 -9 -13 -16 -16 -6 -28 -13
-28 -15 0 -3 7 -3 15 0 8 4 22 1 30 -6 13 -11 18 -10 29 6 13 17 14 16 10 -11
-2 -17 -1 -24 2 -17 4 9 11 7 24 -9 22 -25 45 -17 30 10 -5 10 -6 22 -2 26 4
5 -1 5 -11 2 -22 -8 -36 21 -16 35 11 8 11 9 -3 5 -9 -3 -19 -3 -22 1 -10 9
-32 11 -46 2z m40 -14 c0 -3 -4 -8 -10 -11 -5 -3 -10 -1 -10 4 0 6 5 11 10 11
6 0 10 -2 10 -4z"/>
<path d="M8126 2934 c-6 -15 -4 -15 10 -3 15 12 16 11 9 -10 -6 -21 -5 -22 8
-10 11 10 12 18 5 27 -14 16 -25 15 -32 -4z"/>
<path d="M8206 2939 c2 -4 -1 -9 -8 -11 -7 -3 -3 -7 8 -10 14 -3 20 0 21 12 1
9 -5 17 -12 17 -8 0 -12 -4 -9 -8z"/>
<path d="M8080 2915 c0 -8 2 -15 4 -15 2 0 6 7 10 15 3 8 1 15 -4 15 -6 0 -10
-7 -10 -15z"/>
<path d="M7601 2894 c0 -11 3 -14 6 -6 3 7 2 16 -1 19 -3 4 -6 -2 -5 -13z"/>
<path d="M7910 2895 c7 -9 15 -13 17 -11 7 7 -7 26 -19 26 -6 0 -6 -6 2 -15z"/>
<path d="M7775 2871 c3 -11 1 -22 -5 -26 -12 -7 11 -35 29 -35 6 0 11 -3 11
-7 0 -5 15 -8 33 -9 29 -1 30 0 10 9 -13 5 -23 14 -23 19 0 4 -9 17 -20 28
-16 16 -17 20 -4 20 8 0 12 5 9 10 -3 6 -15 10 -26 10 -16 0 -19 -5 -14 -19z
m42 -47 c-3 -3 -12 -4 -19 -1 -8 3 -5 6 6 6 11 1 17 -2 13 -5z"/>
<path d="M8051 2844 c0 -11 3 -14 6 -6 3 7 2 16 -1 19 -3 4 -6 -2 -5 -13z"/>
<path d="M7840 2840 c0 -12 28 -21 35 -11 2 5 -4 11 -15 14 -11 3 -20 2 -20
-3z"/>
<path d="M7320 2821 c0 -6 4 -12 8 -15 5 -3 9 1 9 9 0 8 -4 15 -9 15 -4 0 -8
-4 -8 -9z"/>
<path d="M7720 2822 c0 -5 7 -9 15 -9 8 0 12 4 9 9 -3 4 -9 8 -15 8 -5 0 -9
-4 -9 -8z"/>
<path d="M7583 2811 c-26 -5 -30 -9 -23 -21 6 -10 10 -11 10 -2 0 6 10 12 23
11 16 0 18 -2 7 -7 -22 -10 -21 -39 1 -45 20 -5 27 9 7 15 -7 3 -8 9 -3 19 8
12 17 42 12 38 -1 -1 -17 -4 -34 -8z"/>
<path d="M8090 2811 c0 -6 4 -13 10 -16 6 -3 7 1 4 9 -7 18 -14 21 -14 7z"/>
<path d="M7285 2796 c11 -8 23 -12 27 -10 5 3 8 0 8 -6 0 -6 5 -8 11 -4 8 4 7
9 -2 15 -7 4 -16 6 -20 3 -4 -2 -10 0 -14 6 -3 5 -11 10 -18 10 -6 0 -2 -6 8
-14z"/>
<path d="M7360 2800 c8 -5 20 -10 25 -10 6 0 3 5 -5 10 -8 5 -19 10 -25 10 -5
0 -3 -5 5 -10z"/>
<path d="M7404 2803 c4 -9 -7 -19 -34 -30 -45 -20 -52 -33 -17 -33 16 0 23 -6
24 -22 1 -12 -3 -26 -10 -30 -16 -9 1 -27 32 -33 15 -3 21 0 18 8 -3 8 4 14
16 15 18 1 19 -1 7 -9 -11 -8 -7 -9 15 -3 17 4 38 6 48 6 15 -1 15 1 3 14 -9
8 -12 22 -9 32 5 13 3 14 -7 5 -7 -6 -19 -9 -26 -6 -8 3 -14 1 -14 -4 0 -15
-28 -11 -34 4 -3 7 -2 12 2 12 20 -3 32 3 32 16 0 8 -4 15 -10 15 -5 0 -10 -4
-10 -9 0 -5 -14 -4 -31 2 l-30 12 33 7 c18 3 37 4 43 0 5 -4 16 -7 23 -8 8 -2
17 -6 20 -10 4 -4 -1 -4 -10 -1 -12 4 -15 2 -12 -8 7 -18 31 -9 37 15 3 14 1
17 -11 13 -11 -5 -14 -2 -9 11 8 22 -18 33 -38 16 -12 -10 -18 -10 -32 1 -11
9 -14 10 -9 2z m81 -113 c-3 -5 -10 -10 -16 -10 -5 0 -9 5 -9 10 0 6 7 10 16
10 8 0 12 -4 9 -10z"/>
<path d="M7916 2801 c-19 -7 -18 -8 4 -14 13 -3 26 -4 29 -2 2 3 -1 5 -8 5 -7
0 -9 5 -6 10 7 11 7 11 -19 1z"/>
<path d="M7636 2788 c3 -4 9 -8 15 -8 5 0 9 4 9 8 0 5 -7 9 -15 9 -8 0 -12 -4
-9 -9z"/>
<path d="M7230 2781 c0 -5 7 -12 16 -15 14 -5 15 -4 4 9 -14 17 -20 19 -20 6z"/>
<path d="M7524 2778 c-4 -7 -4 -10 1 -6 4 4 14 3 22 -4 11 -8 12 -7 7 6 -7 19
-20 21 -30 4z"/>
<path d="M7830 2780 c0 -5 5 -10 11 -10 5 0 7 5 4 10 -3 6 -8 10 -11 10 -2 0
-4 -4 -4 -10z"/>
<path d="M7510 2749 c0 -5 9 -9 20 -9 11 0 20 2 20 4 0 2 -9 6 -20 9 -11 3
-20 1 -20 -4z"/>
<path d="M7290 2740 c-12 -7 -10 -9 7 -7 12 0 19 5 17 9 -6 10 -6 10 -24 -2z"/>
<path d="M7920 2740 c0 -5 5 -10 10 -10 6 0 10 5 10 10 0 6 -4 10 -10 10 -5 0
-10 -4 -10 -10z"/>
<path d="M7230 2732 c0 -5 7 -9 15 -9 8 0 15 4 15 9 0 4 -7 8 -15 8 -8 0 -15
-4 -15 -8z"/>
<path d="M7716 2728 c3 -4 11 -5 19 -1 21 7 19 12 -4 10 -11 0 -18 -5 -15 -9z"/>
<path d="M7736 2704 c-3 -8 -10 -12 -16 -9 -5 3 -10 2 -10 -2 0 -5 10 -14 23
-22 16 -10 19 -10 10 -1 -10 11 -9 16 4 25 10 8 12 14 6 18 -6 4 -14 0 -17 -9z"/>
<path d="M7305 2700 c-3 -6 1 -7 9 -4 18 7 21 14 7 14 -6 0 -13 -4 -16 -10z"/>
<path d="M7920 2694 c0 -8 5 -12 10 -9 6 3 10 10 10 16 0 5 -4 9 -10 9 -5 0
-10 -7 -10 -16z"/>
<path d="M7560 2680 c0 -6 7 -10 15 -10 8 0 15 2 15 4 0 2 -7 6 -15 10 -8 3
-15 1 -15 -4z"/>
<path d="M7815 2670 c-3 -5 -1 -10 4 -10 6 0 11 5 11 10 0 6 -2 10 -4 10 -3 0
-8 -4 -11 -10z"/>
<path d="M7346 2661 c-4 -6 -12 -9 -17 -6 -5 4 -9 -8 -9 -24 0 -17 -4 -31 -10
-31 -5 0 -10 -5 -10 -11 0 -5 4 -8 9 -5 5 3 9 -6 9 -19 0 -15 -6 -25 -14 -25
-8 0 -14 -5 -14 -10 0 -7 6 -7 19 0 28 14 58 12 64 -5 4 -8 2 -17 -3 -20 -4
-3 -10 1 -13 7 -2 7 -7 10 -11 7 -4 -4 3 -17 15 -28 20 -18 24 -19 32 -6 11
20 33 19 41 -1 5 -13 9 -14 21 -4 8 7 15 9 15 5 0 -5 9 0 20 10 20 18 21 18
14 0 -5 -12 -4 -16 3 -12 6 4 14 1 17 -5 5 -11 7 -11 12 0 9 19 24 4 24 -26 0
-21 2 -24 10 -12 5 8 7 26 4 40 -5 22 -4 23 6 7 7 -10 9 -25 6 -33 -6 -16 2
-21 47 -28 24 -4 27 -3 17 10 -10 11 -8 14 10 14 16 0 21 -4 16 -16 -4 -9 -1
-23 5 -30 10 -12 8 -13 -6 -8 -11 5 -16 3 -12 -2 3 -6 -5 -10 -19 -9 -14 0
-29 7 -34 15 -7 10 -10 11 -10 3 0 -7 -4 -13 -10 -13 -12 0 -50 37 -44 43 2 2
-4 10 -13 18 -16 13 -17 12 -4 -3 7 -10 10 -18 5 -18 -5 0 -2 -6 7 -13 18 -14
21 -47 5 -47 -6 0 -4 -5 4 -11 12 -9 11 -10 -5 -6 -11 3 -29 8 -40 11 -11 4
-5 -1 13 -10 17 -10 33 -26 33 -36 3 -34 4 -38 14 -35 6 1 8 7 6 12 -1 6 -5
25 -6 43 -3 28 -1 32 21 32 27 0 32 -15 8 -24 -10 -4 -13 -2 -8 7 5 9 4 9 -6
0 -11 -10 -10 -16 5 -33 10 -11 14 -20 10 -20 -4 0 2 -9 15 -20 l22 -19 -53 4
c-30 2 -48 2 -41 -1 6 -3 9 -11 5 -17 -4 -6 0 -8 10 -4 8 3 17 0 20 -7 3 -8
-5 -11 -24 -10 -16 1 -32 -2 -35 -7 -9 -15 -21 -10 -27 11 -3 13 2 25 14 33
18 13 17 15 -16 45 -40 37 -41 37 -62 16 -12 -12 -13 -15 -2 -13 29 6 66 -10
64 -28 -1 -22 -13 -43 -24 -43 -11 0 -10 34 2 41 5 4 -7 8 -27 11 -20 2 -36 0
-36 -4 0 -8 16 -12 34 -9 5 1 3 -5 -4 -14 -11 -13 -10 -14 6 -8 16 6 17 5 6
-9 -11 -14 -10 -16 12 -14 16 2 26 -2 26 -9 0 -17 -38 -26 -44 -11 -3 8 -5 8
-5 0 -1 -6 6 -17 14 -24 8 -7 15 -8 15 -3 0 11 55 15 84 7 15 -5 16 -8 5 -15
-19 -12 -52 -11 -44 1 3 6 1 10 -4 10 -6 0 -11 -6 -11 -12 0 -9 -4 -8 -10 2
-5 8 -10 10 -10 4 0 -7 -11 -14 -25 -16 -18 -4 -25 -1 -25 10 0 12 -5 11 -20
-6 -26 -27 -34 -28 -20 -3 13 25 13 31 0 31 -5 0 -10 -5 -10 -11 0 -6 -7 -17
-15 -25 -8 -9 -15 -11 -15 -6 0 5 -10 8 -22 6 -13 -1 -29 -3 -36 -3 -7 -1 -10
-6 -7 -12 4 -6 -2 -13 -14 -16 -11 -3 -18 -9 -15 -14 3 -5 15 -2 28 6 17 12
33 13 69 6 25 -4 49 -6 51 -3 3 2 13 -3 22 -13 17 -16 16 -17 -22 -12 -37 5
-40 3 -57 -29 -9 -20 -13 -33 -8 -30 5 3 15 -2 22 -11 10 -12 10 -14 2 -9 -7
4 -13 2 -13 -3 0 -12 26 -15 33 -3 2 4 2 1 1 -5 -2 -7 3 -13 11 -13 9 0 12 6
8 18 -6 15 -3 14 17 -3 l23 -20 -12 23 c-8 14 -8 22 -1 22 5 0 10 -7 10 -15 0
-8 4 -15 10 -15 5 0 9 15 8 33 -1 18 4 42 11 53 12 18 12 18 6 0 -3 -11 -1
-23 6 -26 8 -6 8 -13 0 -29 -10 -17 -9 -21 4 -21 9 0 13 5 10 10 -3 6 -1 10 4
10 6 0 11 -7 11 -15 0 -9 -10 -15 -27 -16 l-28 -1 25 -7 c17 -5 21 -9 12 -15
-7 -4 -10 -13 -6 -19 3 -7 -1 -4 -10 6 -16 21 -116 31 -116 12 0 -7 15 -9 36
-7 26 3 35 1 30 -7 -4 -6 -14 -11 -22 -11 -16 0 -19 -16 -5 -25 5 -3 13 0 16
6 4 5 13 8 21 5 8 -3 14 0 14 7 0 8 3 9 8 1 4 -6 16 -16 27 -23 18 -11 18 -12
-7 -8 -16 2 -28 0 -28 -5 0 -14 -42 1 -60 20 -16 18 -63 25 -53 9 4 -6 -1 -8
-11 -4 -13 5 -18 0 -22 -22 -5 -23 -13 -30 -35 -33 -16 -3 -29 -1 -29 4 0 5
-5 6 -12 2 -6 -4 -8 -3 -5 3 4 6 19 9 34 6 l28 -3 -25 12 c-35 17 -36 18 -20
28 13 8 12 10 -2 10 -9 0 -18 -10 -21 -22 -3 -20 -5 -21 -11 -6 -5 10 -2 30 7
48 17 34 16 37 -7 14 -13 -12 -16 -12 -16 -2 0 8 5 19 11 25 8 8 7 13 -3 18
-7 5 -10 5 -6 0 4 -4 1 -14 -7 -21 -19 -19 -28 -17 -16 4 6 12 5 21 -5 30 -12
11 -14 10 -14 -4 0 -11 -5 -14 -17 -10 -16 5 -16 5 0 -8 18 -14 18 -14 0 -19
-15 -4 -15 -5 -2 -6 9 0 19 -8 23 -16 7 -20 0 -19 -34 5 -29 21 -60 18 -60 -5
0 -10 11 -12 35 -9 19 2 35 0 35 -4 0 -5 9 -19 20 -32 21 -24 18 -43 -5 -34
-8 3 -11 13 -8 22 5 14 3 15 -8 5 -16 -16 -29 -17 -29 -3 0 6 7 10 15 10 8 0
15 5 15 11 0 6 -6 9 -12 6 -7 -2 -21 0 -30 5 -14 7 -18 4 -18 -12 0 -11 5 -20
11 -20 8 0 8 -4 0 -14 -9 -10 -8 -16 4 -26 14 -11 19 -7 16 13 0 4 4 7 9 7 6
0 8 -11 4 -25 -3 -14 -2 -25 4 -25 5 0 12 9 15 21 4 14 10 18 18 13 10 -6 10
-9 1 -12 -7 -2 -12 -10 -12 -18 0 -8 -7 -14 -15 -14 -8 0 -15 -4 -15 -10 0 -9
14 -14 33 -11 4 0 7 -4 7 -9 0 -6 -4 -10 -9 -10 -5 0 -11 -9 -14 -20 -6 -24
-3 -25 18 -4 20 20 29 13 20 -16 -5 -15 -12 -19 -26 -15 -13 5 -19 2 -17 -7 2
-7 -2 -12 -8 -11 -7 1 -26 -2 -43 -7 -22 -6 -31 -5 -31 3 0 7 -9 -7 -20 -30
-10 -24 -24 -43 -30 -43 -7 0 -5 -7 4 -16 9 -8 14 -20 11 -25 -8 -12 -26 -12
-22 0 1 5 -2 9 -8 9 -5 0 -9 -4 -8 -9 2 -5 -4 -9 -13 -9 -8 0 -12 5 -9 10 4 6
1 9 -7 8 -7 -2 -14 7 -16 20 -2 12 -8 20 -13 17 -14 -9 19 -65 39 -66 9 -1 28
-1 42 0 24 2 24 1 6 -14 -11 -8 -16 -15 -10 -15 5 0 0 -7 -11 -16 -19 -14 -19
-15 2 -12 12 2 22 -1 22 -7 0 -5 -7 -9 -15 -7 -8 2 -14 -3 -14 -9 0 -7 -7 -4
-15 7 -13 18 -14 18 -9 -6 l5 -25 -14 25 c-9 14 -13 28 -11 32 3 4 -2 5 -10 2
-9 -3 -16 -1 -16 5 0 6 -10 11 -22 11 -21 1 -22 2 -5 14 16 13 16 14 -5 28
-27 18 -38 21 -38 11 0 -5 4 -8 9 -8 5 0 13 -3 17 -7 4 -5 2 -8 -5 -8 -7 0 -9
-4 -6 -10 6 -10 -7 -14 -31 -11 -17 2 -27 -48 -13 -65 10 -12 8 -18 -7 -30
-10 -9 -13 -13 -6 -9 7 4 12 0 12 -9 0 -26 -12 -46 -24 -39 -6 4 -5 -1 3 -11
10 -11 24 -16 41 -14 15 2 32 -2 39 -9 10 -11 6 -13 -21 -13 -84 0 -145 -6
-145 -15 0 -11 47 -12 65 -1 6 3 13 2 17 -4 4 -6 12 -7 18 -4 8 5 8 3 0 -7
-16 -16 -17 -29 -3 -29 6 0 15 10 20 23 8 20 9 19 8 -8 -2 -36 8 -55 28 -55 8
0 13 -4 9 -9 -3 -5 3 -16 13 -23 21 -15 42 -45 24 -34 -7 4 -12 3 -12 -3 0 -5
9 -13 21 -16 11 -4 19 -9 16 -11 -2 -3 -16 0 -31 6 -15 5 -25 6 -21 1 3 -5 1
-12 -4 -16 -6 -3 -8 -11 -6 -18 3 -7 0 -19 -5 -27 -8 -13 -11 -13 -19 -1 -7
11 -11 10 -20 -7 -15 -28 -14 -32 4 -26 8 4 22 1 30 -6 14 -11 19 -7 16 13 -1
4 10 5 24 1 16 -4 25 -2 25 6 0 6 4 9 9 5 5 -3 12 -1 16 5 3 5 1 10 -4 10 -6
0 -11 8 -11 18 1 16 2 15 15 -2 8 -10 12 -22 10 -27 -3 -4 -2 -9 2 -12 5 -2 2
-2 -4 -1 -18 5 -16 -6 5 -23 15 -13 15 -13 -5 -4 -28 14 -54 15 -33 1 20 -13
4 -13 -20 0 -13 7 -19 6 -24 -5 -4 -10 -14 -14 -31 -11 -22 4 -24 2 -15 -15 6
-10 16 -19 23 -20 7 0 2 -5 -10 -11 -13 -6 -23 -15 -23 -20 0 -5 4 -7 8 -4 5
3 22 1 38 -4 28 -8 28 -8 4 -10 -14 -1 -28 -2 -31 -2 -3 1 -6 -5 -6 -13 0 -8
4 -12 8 -9 9 5 4 -30 -7 -48 -5 -7 -3 -8 6 -3 10 6 12 4 7 -9 -4 -10 -7 -19
-7 -21 0 -2 -9 -1 -21 2 -15 4 -22 0 -26 -16 -3 -13 -14 -21 -27 -21 -17 -1
-16 -3 9 -14 17 -7 33 -11 38 -9 4 2 7 -1 7 -6 0 -6 9 -11 19 -11 11 0 23 -5
27 -12 4 -7 3 -8 -4 -4 -7 4 -20 2 -29 -3 -16 -9 -14 -10 10 -11 21 0 27 -5
28 -22 0 -13 2 -30 4 -38 7 -36 12 -64 8 -53 -7 19 -52 -6 -50 -28 1 -11 5
-19 9 -19 4 0 8 -4 8 -10 0 -16 -27 -12 -34 5 -3 8 0 15 6 15 6 0 6 6 -3 16
-12 14 -14 13 -21 -7 -6 -15 -12 -19 -16 -12 -4 7 -20 17 -36 23 -24 9 -31 7
-42 -7 -7 -10 -14 -13 -14 -7 0 5 5 15 12 22 9 9 5 12 -17 12 -17 0 -25 -4
-20 -8 6 -4 19 -24 29 -44 11 -21 26 -38 35 -38 14 0 14 -2 1 -9 -8 -6 -18 -7
-22 -5 -4 3 -8 1 -8 -4 0 -6 18 -9 39 -8 22 1 38 -2 35 -6 -3 -4 -13 -8 -22
-8 -16 -1 -16 -1 1 -11 23 -13 22 -28 -3 -37 -14 -5 -17 -11 -10 -22 8 -12 12
-13 19 -2 5 9 21 12 45 9 20 -3 39 -1 42 4 10 17 22 9 33 -22 8 -25 8 -34 -4
-46 -13 -13 -15 -13 -15 0 0 9 5 17 10 19 6 2 4 11 -5 23 -9 11 -13 14 -10 7
5 -9 -1 -15 -14 -19 -12 -3 -21 -9 -21 -14 0 -5 -7 -9 -15 -9 -8 0 -12 6 -9
14 4 11 0 13 -15 9 -26 -7 -38 -23 -17 -23 24 0 19 -24 -6 -35 -12 -6 -23 -17
-25 -25 -4 -13 -2 -13 9 1 27 32 55 31 49 -4 0 -4 4 -7 9 -7 6 0 10 8 8 18 -2
9 2 16 8 15 7 -1 10 6 7 17 -4 14 0 20 11 20 10 0 16 -9 16 -24 0 -13 7 -26
15 -30 23 -8 19 -46 -5 -46 -11 0 -20 -4 -20 -9 0 -20 -31 -40 -56 -35 -16 3
-23 1 -19 -6 3 -5 2 -10 -4 -10 -5 0 -16 -3 -25 -6 -9 -3 -16 -1 -16 5 0 6 6
11 13 11 6 0 21 8 32 17 14 11 15 14 4 10 -9 -3 -21 -1 -25 3 -5 5 -15 5 -24
0 -12 -8 -12 -10 5 -10 17 0 17 -2 -5 -17 -14 -10 -29 -17 -34 -15 -4 1 -17 0
-27 -3 -14 -5 -18 -12 -14 -26 4 -11 2 -19 -4 -19 -6 0 -11 -13 -11 -29 0 -23
5 -31 23 -34 15 -3 12 -5 -11 -6 -20 0 -31 3 -27 9 3 6 1 10 -6 10 -8 0 -8 4
2 16 10 13 10 17 -2 25 -8 5 -17 9 -20 9 -3 0 -6 7 -6 15 0 11 4 12 14 4 10
-9 13 -7 13 9 0 11 6 23 13 25 7 3 6 6 -5 6 -9 1 -19 -3 -23 -8 -8 -14 -46 -9
-41 5 7 19 -5 24 -28 12 l-21 -11 20 20 c16 16 24 18 40 10 17 -9 18 -8 8 5
-7 8 -10 18 -7 21 3 3 -8 4 -25 2 -17 -2 -34 1 -37 7 -4 6 -3 8 3 5 6 -4 20 8
32 26 11 17 21 26 21 18 0 -8 3 -12 6 -9 3 4 1 15 -5 26 -6 11 -7 22 -2 24 5
2 2 10 -7 18 -14 13 -15 12 -9 -2 4 -12 0 -19 -14 -23 -10 -4 -16 -11 -13 -17
4 -7 2 -8 -5 -4 -6 4 -9 12 -6 17 9 14 -31 11 -43 -3 -5 -7 -13 -23 -16 -35
-6 -17 -3 -20 12 -16 18 4 40 -23 27 -35 -3 -3 -5 0 -5 6 0 7 -5 12 -11 12 -6
0 -9 -7 -5 -15 3 -9 -3 -19 -14 -25 -11 -6 -20 -7 -20 -3 0 4 -4 1 -10 -7 -5
-8 -5 -17 -1 -20 4 -3 2 -18 -6 -35 l-13 -30 4 33 c4 32 -2 40 -20 22 -14 -14
-54 -1 -47 16 3 8 9 14 15 14 5 0 7 -4 3 -9 -3 -5 0 -13 6 -17 8 -4 9 -3 5 4
-4 7 -3 12 3 12 6 0 8 6 5 14 -3 8 -12 12 -19 10 -10 -4 -12 1 -8 15 3 13 1
21 -6 21 -7 0 -10 -4 -7 -9 8 -12 -3 -41 -15 -41 -4 0 -5 8 -2 17 5 14 3 13
-14 -3 -11 -10 -18 -22 -16 -26 2 -4 -1 -9 -6 -13 -7 -4 -7 -15 0 -32 5 -14 7
-28 4 -31 -3 -3 -5 0 -5 7 0 7 -5 9 -11 6 -5 -4 -9 -19 -7 -33 3 -24 0 -27
-27 -24 -21 2 -26 0 -16 -7 8 -5 12 -17 9 -27 -4 -14 1 -19 19 -20 32 -2 37
-9 23 -31 -10 -16 -11 -16 -6 0 6 19 -5 22 -21 6 -21 -21 6 -59 38 -57 22 2
26 5 17 15 -8 10 -7 12 6 7 9 -3 16 -1 16 5 0 8 4 8 14 -1 9 -9 10 -15 3 -20
-6 -4 426 -7 961 -8 l973 -1 -1 974 c-1 535 -4 978 -8 984 -4 5 -14 13 -22 17
-8 3 -5 4 8 2 16 -3 22 1 22 15 0 10 -6 19 -12 19 -10 0 -10 3 0 9 10 6 13 25
9 72 -3 35 -8 73 -11 84 -2 11 -5 24 -5 29 -1 5 -4 6 -8 2 -9 -9 -11 -46 -2
-41 4 3 9 -2 13 -10 3 -8 1 -15 -5 -15 -6 0 -7 -5 -3 -12 4 -6 3 -8 -3 -5 -18
11 -83 17 -83 7 0 -5 -8 -6 -17 -3 -15 6 -15 7 3 14 18 7 17 8 -3 8 -12 1 -28
7 -35 14 -7 7 -16 14 -20 15 -5 1 -8 5 -7 8 0 4 -5 11 -13 15 -10 7 -10 9 3 9
8 0 21 -6 28 -12 10 -11 11 -9 5 6 -11 28 16 38 44 15 14 -11 28 -17 31 -13 3
3 -2 10 -12 16 -15 8 -16 12 -5 26 10 12 10 14 1 8 -7 -4 -13 -4 -13 1 0 4
-14 16 -30 25 -27 15 -32 16 -36 3 -4 -8 -12 -15 -20 -15 -21 0 -17 17 6 23
20 5 28 27 10 27 -5 0 -10 -5 -10 -11 0 -5 -5 -7 -11 -4 -6 4 -8 13 -5 21 4
11 0 11 -19 2 -26 -11 -36 -34 -12 -25 8 3 14 -1 14 -8 0 -7 -7 -11 -16 -8
-13 4 -12 2 2 -10 16 -13 16 -15 1 -21 -24 -9 -31 -7 -14 4 11 7 3 9 -27 7
-23 -2 -40 -1 -38 2 1 3 -12 6 -31 7 -19 0 -34 -3 -34 -8 0 -4 6 -8 14 -8 17
0 29 -41 16 -54 -7 -7 -10 -3 -10 11 0 16 -5 20 -20 16 -12 -3 -20 0 -20 6 0
7 -5 9 -12 5 -7 -4 -8 -3 -4 5 4 6 11 9 16 6 4 -3 11 5 15 18 4 12 8 25 10 30
1 4 3 14 4 24 1 14 3 14 21 -2 20 -18 21 -18 14 0 -6 14 -4 16 6 10 8 -5 11
-4 7 2 -4 6 -18 9 -32 8 -14 -2 -25 1 -25 6 0 5 6 9 14 9 8 0 17 4 21 9 3 6
-6 9 -19 8 -14 -1 -24 3 -23 8 1 6 5 9 10 7 19 -6 4 15 -19 25 -31 14 -46 9
-37 -12 4 -12 1 -13 -13 -8 -37 14 -56 40 -49 65 4 12 4 20 0 16 -4 -4 -14 0
-23 8 -10 11 -17 12 -22 5 -4 -8 -14 -5 -28 7 -21 19 -21 19 23 20 25 0 45 -4
45 -9 0 -5 5 -9 11 -9 8 0 8 4 0 14 -14 17 -51 28 -51 15 0 -5 -13 -3 -29 6
-29 15 -49 7 -36 -15 4 -6 -1 -7 -12 -3 -27 9 -43 24 -37 34 5 9 -16 13 -43
10 -7 -1 -13 3 -13 9 0 5 -8 10 -17 10 -14 0 -14 -3 5 -20 12 -11 30 -20 41
-20 25 0 36 -16 16 -24 -8 -3 -15 0 -15 5 0 6 -9 9 -20 6 -11 -3 -20 -1 -20 4
0 5 -5 9 -11 9 -5 0 -7 -4 -4 -10 3 -6 -1 -7 -9 -4 -13 5 -21 28 -18 55 1 3
-12 6 -29 7 -20 0 -29 -4 -27 -13 2 -8 0 -14 -4 -14 -5 -1 -8 1 -8 4 0 3 0 11
0 19 0 8 10 18 22 22 12 3 28 13 36 20 11 12 6 14 -33 14 -31 0 -47 -5 -51
-15 -4 -8 -10 -15 -15 -15 -4 0 -6 6 -3 14 8 20 -11 53 -20 37z m9 -21 c3 -5
-1 -10 -10 -10 -9 0 -13 5 -10 10 3 6 8 10 10 10 2 0 7 -4 10 -10z m75 -20 c0
-5 -7 -10 -15 -10 -8 0 -15 5 -15 10 0 6 7 10 15 10 8 0 15 -4 15 -10z m31
-59 c7 11 9 11 9 -3 0 -10 -7 -18 -15 -18 -9 0 -15 9 -14 23 1 19 2 19 6 3 4
-15 7 -16 14 -5z m374 -150 c3 -5 1 -12 -5 -16 -5 -3 -10 1 -10 9 0 18 6 21
15 7z m-32 -38 c13 -15 14 -22 2 -43 -8 -15 -10 -31 -5 -40 5 -9 4 -22 -1 -31
-8 -11 -12 -11 -16 -1 -6 15 -30 16 -35 0 -3 -7 -7 -6 -11 5 -6 17 7 22 42 18
10 -2 10 3 -3 20 -10 15 -12 27 -6 34 8 9 -5 14 -47 19 -41 5 -59 3 -65 -6 -6
-10 -8 -10 -8 -1 0 18 32 32 55 23 27 -10 53 -1 33 11 -9 6 -3 9 18 9 17 0 38
-8 47 -17z m-113 -48 c0 -8 -9 -15 -21 -15 -11 0 -17 5 -14 10 4 6 11 8 16 5
5 -4 9 -1 9 4 0 6 2 11 5 11 3 0 5 -7 5 -15z m164 0 c-6 -16 -24 -21 -24 -7 0
11 11 22 21 22 5 0 6 -7 3 -15z m-124 1 c0 -2 -7 -6 -15 -10 -8 -3 -15 -1 -15
4 0 6 7 10 15 10 8 0 15 -2 15 -4z m101 -43 c13 -16 12 -17 -3 -4 -10 7 -18
15 -18 17 0 8 8 3 21 -13z m-116 -13 c-3 -5 -16 -10 -28 -9 -20 1 -20 2 3 9
14 4 26 8 28 9 2 1 0 -3 -3 -9z m376 -7 c13 -16 12 -17 -3 -4 -10 7 -18 15
-18 17 0 8 8 3 21 -13z m-486 -23 c3 -6 -1 -7 -9 -4 -18 7 -21 14 -7 14 6 0
13 -4 16 -10z m74 -3 c8 -11 4 -13 -22 -11 -41 3 -39 2 -32 14 9 14 41 12 54
-3z m38 -2 c0 -8 -4 -12 -9 -9 -5 3 -6 10 -3 15 9 13 12 11 12 -6z m206 -4
c-2 -6 2 -11 8 -11 6 0 9 -5 7 -11 -4 -12 -17 -13 -19 -1 -1 4 -5 15 -11 26
-8 14 -7 17 4 13 7 -2 12 -10 11 -16z m-168 -9 c-3 -3 -11 0 -18 7 -9 10 -8
11 6 5 10 -3 15 -9 12 -12z m248 1 c3 7 6 5 6 -5 1 -10 -1 -18 -4 -18 -13 0
-55 25 -55 33 0 5 11 2 24 -7 18 -12 26 -12 29 -3z m-273 -30 c0 -8 -5 -11
-12 -7 -8 5 -9 2 -5 -10 9 -24 -1 -40 -17 -27 -6 6 -18 6 -25 2 -10 -7 -9 -10
8 -16 18 -5 19 -8 7 -21 -17 -16 -30 -19 -21 -4 4 6 2 17 -4 24 -9 11 -8 18 4
29 11 12 12 17 2 21 -6 3 -2 3 11 0 15 -4 22 -1 22 9 0 7 7 14 15 14 8 0 15
-7 15 -14z m50 -9 c0 3 18 -6 40 -20 22 -15 37 -30 35 -34 -3 -5 0 -11 5 -13
6 -3 5 -4 -2 -2 -7 1 -12 8 -10 14 2 10 -11 15 -23 9 -2 -2 -11 7 -19 18 -11
15 -22 20 -41 16 -14 -2 -23 -7 -20 -11 7 -6 12 -7 43 -10 16 -2 16 -2 -1 -12
-9 -5 -21 -8 -26 -4 -5 3 -13 0 -17 -6 -5 -9 3 -10 32 -6 l39 7 -28 -18 c-15
-10 -24 -22 -20 -27 5 -4 0 -5 -11 -1 -14 5 -17 2 -12 -9 5 -13 2 -14 -16 -4
-19 10 -20 9 -14 -7 6 -15 5 -16 -5 -7 -9 9 -10 18 -1 35 6 13 11 18 11 11 1
-7 8 -10 16 -7 12 5 13 9 3 21 -9 11 -9 16 1 23 10 5 10 9 2 15 -9 5 -9 10 -1
20 7 8 8 20 4 27 -4 7 2 4 14 -6 12 -11 22 -16 22 -12z m200 -8 c0 -2 -8 -10
-17 -17 -16 -13 -17 -12 -4 4 13 16 21 21 21 13z m-50 -40 c0 -8 -51 -3 -56 5
-3 5 3 6 12 2 12 -5 15 -3 9 6 -6 10 -3 11 14 2 11 -7 21 -13 21 -15z m-330
-6 c8 -5 12 -11 9 -14 -3 -3 -14 1 -25 9 -21 16 -8 20 16 5z m305 -38 c-3 -3
-11 0 -18 7 -9 10 -8 11 6 5 10 -3 15 -9 12 -12z m215 4 c-7 -7 -13 -7 -20 0
-6 6 -3 10 10 10 13 0 16 -4 10 -10z m-102 -19 c10 4 14 2 9 -3 -13 -14 -57
-12 -57 4 0 7 5 10 10 7 6 -3 11 0 11 7 1 7 3 5 6 -4 3 -11 10 -15 21 -11z
m-588 -13 c0 -8 -4 -14 -10 -14 -5 0 -10 5 -10 12 0 9 -3 9 -11 1 -6 -6 -18
-9 -27 -6 -10 4 -13 2 -8 -5 4 -8 2 -10 -8 -6 -8 3 -12 12 -9 20 3 8 8 12 12
10 4 -3 13 -1 20 3 18 12 51 2 51 -15z m383 19 c-7 -2 -19 -2 -25 0 -7 3 -2 5
12 5 14 0 19 -2 13 -5z m354 1 c-3 -3 -12 -4 -19 -1 -8 3 -5 6 6 6 11 1 17 -2
13 -5z m-267 -24 c-16 -10 -43 -6 -47 7 -2 5 10 8 28 5 19 -3 26 -7 19 -12z
m-310 -15 c0 -9 -6 -12 -16 -8 -13 5 -13 7 -2 14 17 11 18 11 18 -6z m-53 -10
c0 -17 -13 -20 -21 -6 -4 5 0 12 6 14 7 3 13 6 14 6 0 1 1 -6 1 -14z m117 6
c3 -4 -4 -7 -14 -6 -27 2 -33 10 -10 12 11 1 22 -2 24 -6z m349 -8 c-6 -16
-25 -13 -31 5 -2 6 6 10 16 9 12 -1 18 -6 15 -14z m77 11 c0 -3 -7 -12 -15
-20 -12 -13 -15 -13 -15 -1 0 7 3 17 7 20 8 8 23 9 23 1z m-338 -31 c0 -5 9
-14 19 -21 29 -20 23 -35 -6 -16 -17 11 -25 25 -24 43 0 22 9 17 11 -6z m108
8 c0 -12 -39 -21 -45 -11 -3 5 5 11 17 13 13 2 24 5 26 6 1 0 2 -3 2 -8z
m-253 -16 c0 -8 -6 -16 -13 -19 -7 -3 -10 2 -7 15 6 22 20 26 20 4z m367 6 c3
-4 -4 -17 -17 -27 l-22 -19 19 23 c17 19 17 22 3 22 -10 0 -17 -5 -17 -12 0
-6 -3 -9 -6 -5 -9 9 5 27 21 27 8 0 16 -4 19 -9z m73 -7 c-3 -3 -12 -4 -19 -1
-8 3 -5 6 6 6 11 1 17 -2 13 -5z m-193 -13 c7 -11 -14 -20 -32 -13 -11 4 -11
6 0 13 17 11 26 11 32 0z m74 -15 c-2 -1 -12 -8 -22 -16 -11 -8 -17 -10 -13
-3 4 6 3 14 -3 18 -5 3 -10 1 -10 -6 0 -7 -3 -10 -6 -6 -12 12 7 24 31 19 14
-2 25 -5 23 -6z m-358 -11 c11 -13 10 -14 -4 -9 -9 3 -16 10 -16 15 0 13 6 11
20 -6z m173 -15 c-3 -11 -9 -20 -15 -20 -5 0 -4 9 2 20 6 11 12 20 14 20 2 0
2 -9 -1 -20z m292 2 c-3 -3 -11 0 -18 7 -9 10 -8 11 6 5 10 -3 15 -9 12 -12z
m-361 -8 c3 -8 2 -12 -4 -9 -6 3 -10 10 -10 16 0 14 7 11 14 -7z m-295 -44 c1
-3 -15 -5 -34 -5 -23 0 -35 5 -35 14 0 8 7 11 19 8 12 -3 22 1 26 12 6 14 8
13 15 -4 5 -11 9 -22 9 -25z m201 30 c-8 -5 -19 -10 -25 -10 -5 0 -3 5 5 10 8
5 20 10 25 10 6 0 3 -5 -5 -10z m43 -5 c-3 -9 -8 -14 -10 -11 -3 3 -2 9 2 15
9 16 15 13 8 -4z m77 -15 c0 -5 -5 -10 -11 -10 -5 0 -7 5 -4 10 3 6 8 10 11
10 2 0 4 -4 4 -10z m120 0 c0 -5 -4 -10 -10 -10 -5 0 -10 5 -10 10 0 6 5 10
10 10 6 0 10 -4 10 -10z m-613 -46 c-3 -3 -12 -4 -19 -1 -8 3 -5 6 6 6 11 1
17 -2 13 -5z m413 -6 c0 -11 -32 -10 -50 2 -11 8 -7 10 18 8 17 -1 32 -6 32
-10z m440 -14 c0 -2 -7 -4 -15 -4 -8 0 -15 4 -15 10 0 5 7 7 15 4 8 -4 15 -8
15 -10z m177 10 c-3 -3 -12 -4 -19 -1 -8 3 -5 6 6 6 11 1 17 -2 13 -5z m-986
-13 c-14 -9 -6 -55 9 -46 5 3 11 1 14 -4 4 -5 -3 -12 -14 -16 -11 -3 -20 -10
-20 -15 0 -5 -7 -16 -16 -24 -12 -13 -18 -13 -29 -3 -7 6 -11 15 -9 18 1 3 -4
18 -12 33 -18 36 -18 42 1 26 8 -7 15 -9 15 -5 0 4 6 2 13 -4 15 -12 27 -5 27
16 0 17 -40 17 -41 1 0 -10 -2 -10 -6 0 -2 6 -12 12 -21 13 -32 1 18 15 62 17
27 2 36 -1 27 -7z m442 2 c-7 -2 -19 -2 -25 0 -7 3 -2 5 12 5 14 0 19 -2 13
-5z m-393 -13 c0 -5 -10 -10 -22 -9 -22 0 -22 1 -3 9 11 5 21 9 23 9 1 1 2 -3
2 -9z m294 -15 c4 -10 -1 -15 -15 -15 -17 0 -18 2 -7 15 16 18 15 18 22 0z
m-48 -24 c-12 -19 -24 -12 -19 10 4 13 9 17 15 11 6 -6 7 -15 4 -21z m24 -31
c0 -5 -10 -10 -22 -9 -22 0 -22 1 -3 9 11 5 21 9 23 9 1 1 2 -3 2 -9z m-57
-25 c-1 -5 -7 -11 -15 -13 -10 -3 -9 -1 1 6 11 8 9 11 -10 15 l-24 5 25 -1
c14 -1 24 -6 23 -12z m-331 -9 c5 3 4 -3 -4 -15 -7 -12 -16 -21 -20 -21 -15 0
-38 13 -38 21 0 13 44 29 48 18 2 -5 8 -6 14 -3z m48 -16 c0 -5 -5 -10 -11
-10 -5 0 -7 5 -4 10 3 6 8 10 11 10 2 0 4 -4 4 -10z m-120 -4 c0 -3 -4 -8 -10
-11 -5 -3 -10 -1 -10 4 0 6 5 11 10 11 6 0 10 -2 10 -4z m165 -6 c3 -6 -1 -7
-9 -4 -18 7 -21 14 -7 14 6 0 13 -4 16 -10z m-88 -42 c-3 -8 -6 -5 -6 6 -1 11
2 17 5 13 3 -3 4 -12 1 -19z m88 -38 c-3 -5 1 -11 7 -14 7 -3 4 -4 -7 -3 -11
2 -19 9 -17 16 1 7 -3 21 -10 30 -9 11 -6 10 9 -3 13 -10 20 -22 18 -26z
m-125 5 c-7 -9 -15 -13 -19 -10 -3 3 1 10 9 15 21 14 24 12 10 -5z m470 11 c0
-2 -7 -7 -16 -10 -8 -3 -12 -2 -9 4 6 10 25 14 25 6z m-557 -31 c-3 -9 -8 -14
-10 -11 -3 3 -2 9 2 15 9 16 15 13 8 -4z m107 -14 c23 -7 22 -8 -14 -15 -24
-5 -43 -3 -49 3 -15 15 -30 14 -21 -1 4 -7 3 -8 -5 -4 -34 21 31 33 89 17z
m-113 -47 c1 -25 0 -26 -4 -4 -3 14 -10 29 -17 33 -7 6 -6 7 4 4 8 -2 16 -16
17 -33z m115 8 c-6 -2 -10 -7 -7 -11 2 -5 -8 -8 -23 -7 -22 1 -26 -3 -24 -19
2 -16 1 -17 -7 -5 -22 32 -13 46 32 46 23 0 36 -1 29 -4z m-322 -30 c8 -2 19
-10 23 -18 4 -8 15 -14 22 -14 18 0 20 -19 3 -24 -55 -17 -55 -16 -28 -31 22
-13 23 -14 5 -15 -11 0 -31 -3 -45 -6 -22 -5 -23 -4 -6 6 14 10 15 14 5 20
-18 12 -20 38 -2 44 11 4 13 2 9 -9 -6 -16 5 -18 44 -5 17 5 19 8 8 9 -10 1
-18 7 -18 14 0 9 -3 8 -9 -2 -6 -9 -11 -10 -15 -2 -4 6 -2 11 4 11 6 0 8 5 4
11 -5 8 -10 6 -16 -5 -8 -13 -13 -15 -24 -6 -11 10 -11 17 -2 33 9 17 12 19
17 7 3 -8 13 -16 21 -18z m243 -2 c3 -11 2 -18 -2 -15 -4 2 -8 -2 -8 -10 0
-10 6 -11 26 -3 14 6 36 10 48 10 13 -1 23 5 26 16 4 15 5 15 6 1 1 -21 -36
-46 -75 -50 -16 -2 -37 -9 -46 -17 -20 -16 -60 -12 -66 7 -3 9 0 11 7 6 8 -4
14 1 18 14 3 12 10 21 15 21 5 0 6 -6 2 -12 -5 -9 -2 -9 9 1 9 7 17 22 17 32
0 25 16 24 23 -1z m162 -56 c37 -7 42 -11 27 -26 -9 -9 -12 -9 -12 0 0 7 -7
12 -15 12 -8 0 -15 -4 -15 -9 0 -5 -7 -12 -16 -15 -15 -6 -15 -4 -3 11 8 9 9
14 2 10 -6 -4 -14 -3 -18 3 -4 7 -12 7 -24 0 -23 -12 -35 -1 -19 17 7 9 21 12
37 8 14 -3 39 -8 56 -11z m519 8 c2 -4 -4 -8 -15 -8 -10 0 -19 4 -19 8 0 4 6
8 14 8 8 0 17 -4 20 -8z m-844 -20 c0 -5 -7 -9 -15 -9 -8 0 -12 4 -9 9 3 4 9
8 15 8 5 0 9 -4 9 -8z m100 -34 c0 -8 -21 -5 -37 5 -23 15 -13 25 12 14 14 -7
25 -15 25 -19z m74 4 c-1 -23 29 -32 41 -12 3 5 0 7 -8 4 -22 -8 -29 12 -10
27 12 10 14 10 9 2 -9 -16 17 -17 44 -3 16 9 18 7 14 -14 -2 -13 2 -29 11 -36
12 -10 15 -9 15 6 0 16 2 17 10 4 15 -23 12 -30 -12 -31 -19 -1 -18 -3 7 -10
l30 -8 -30 1 c-49 0 -57 -1 -50 -12 4 -6 9 -9 13 -6 4 2 16 0 27 -5 12 -4 -6
-6 -43 -3 l-62 5 5 -36 c3 -24 1 -34 -7 -29 -7 5 -9 -2 -6 -19 3 -15 0 -29 -6
-32 -6 -3 1 -3 17 0 34 7 38 -20 5 -29 -14 -4 -19 -9 -12 -13 6 -5 7 -18 3
-33 -4 -14 -8 -18 -9 -10 -1 9 -5 5 -11 -10 -8 -20 -6 -27 13 -42 l23 -17 -25
5 c-14 3 -33 6 -43 6 -10 -1 -22 9 -26 20 -5 14 -10 18 -15 10 -4 -7 -12 -12
-19 -12 -8 0 -8 3 1 12 16 16 15 29 -2 22 -9 -3 -17 3 -21 15 -3 12 -13 21
-20 21 -9 0 -12 6 -8 16 4 11 8 12 13 4 4 -6 10 -11 14 -11 19 3 27 0 22 -7
-3 -5 1 -9 9 -9 8 0 15 4 15 9 0 4 8 8 18 8 10 0 13 -3 6 -8 -6 -4 -14 -15
-17 -25 -9 -25 12 -17 31 11 13 20 12 22 -12 28 -14 3 -26 11 -26 16 0 6 6 8
14 5 7 -3 20 3 29 14 18 20 12 25 -13 9 -19 -12 -33 9 -18 27 7 9 7 13 -1 13
-6 0 -11 -4 -11 -10 0 -5 -5 -10 -12 -10 -6 0 -8 3 -5 7 4 3 3 11 -3 17 -6 8
-2 16 11 24 16 10 19 10 19 -3 0 -14 12 -20 34 -16 5 1 6 -5 3 -14 -4 -9 -1
-15 9 -15 13 0 13 3 0 29 -14 26 -14 30 4 46 11 10 20 23 20 29 0 6 -5 4 -11
-4 -9 -12 -10 -11 -6 8 3 12 -1 25 -7 30 -7 4 -19 18 -26 32 -13 25 -13 25 7
7 19 -16 21 -16 27 -2 3 9 3 21 0 27 -4 6 -1 9 7 6 8 -3 13 -15 13 -26z m-117
-18 c-3 -3 -12 -4 -19 -1 -8 3 -5 6 6 6 11 1 17 -2 13 -5z m37 -25 c-9 -15
-34 -10 -28 5 3 8 12 12 20 9 8 -3 11 -9 8 -14z m36 -18 c7 -15 8 -21 1 -17
-7 5 -9 1 -5 -8 3 -9 11 -13 17 -9 5 3 7 1 4 -4 -8 -12 -57 -14 -57 -3 0 5 5
10 11 12 6 2 12 16 12 31 0 31 0 31 17 -2z m224 -10 c3 -5 -1 -14 -9 -21 -11
-9 -14 -8 -12 9 1 22 12 28 21 12z m-404 -15 c0 -2 -9 -6 -20 -9 -11 -3 -20
-1 -20 4 0 5 9 9 20 9 11 0 20 -2 20 -4z m99 -25 c-6 -2 -18 4 -27 13 -15 15
-15 15 10 4 15 -7 23 -15 17 -17z m-104 -1 c3 -5 1 -10 -4 -10 -6 0 -11 5 -11
10 0 6 2 10 4 10 3 0 8 -4 11 -10z m280 -16 c1 -12 -5 -21 -13 -21 -8 0 -12 7
-9 18 3 10 0 20 -7 23 -6 3 -2 5 8 3 12 -1 20 -10 21 -23z m-205 -4 c0 -5 -4
-10 -10 -10 -5 0 -10 5 -10 10 0 6 5 10 10 10 6 0 10 -4 10 -10z m-15 -70 c3
5 25 10 48 10 31 0 38 -3 27 -10 -9 -6 -11 -10 -3 -10 7 0 10 -7 7 -15 -7 -18
-30 -20 -40 -3 -4 7 -3 8 4 4 7 -4 12 -2 12 4 0 7 -6 10 -12 7 -50 -18 -57
-18 -69 5 -11 20 -11 22 3 10 11 -9 18 -10 23 -2z m99 -157 c4 -5 12 -8 18 -8
6 0 15 -11 20 -25 5 -13 6 -21 2 -17 -4 4 -13 2 -21 -4 -16 -14 -17 3 -1 19 9
9 8 12 -5 12 -9 0 -17 4 -17 9 0 5 -8 12 -17 14 -15 4 -15 5 -2 6 9 0 19 -2
23 -6z m-84 -23 c16 -16 17 -20 4 -20 -8 0 -13 -4 -9 -9 7 -12 -25 -45 -34
-35 -3 4 0 9 7 11 6 3 12 10 12 17 0 18 -33 16 -47 -3 -10 -14 -12 -13 -10 7
1 12 5 22 10 22 4 0 5 5 2 10 -3 6 1 10 10 10 9 0 14 -5 10 -12 -3 -7 0 -5 7
5 16 21 14 21 38 -3z m195 0 c-3 -5 -19 -8 -34 -7 -16 1 -27 6 -24 10 3 5 16
6 30 2 18 -4 23 -2 17 6 -4 8 -3 9 5 5 6 -4 9 -11 6 -16z m-160 -61 c10 -15
-1 -23 -20 -15 -9 3 -13 10 -10 16 8 13 22 13 30 -1z m-42 -42 c-3 -16 -2 -18
5 -8 8 11 14 11 33 -3 13 -9 19 -16 13 -16 -5 0 -15 5 -22 12 -9 9 -12 9 -12
-1 0 -8 -7 -11 -20 -8 -13 3 -20 0 -20 -10 0 -8 -5 -11 -10 -8 -6 4 -8 10 -5
15 3 4 -1 11 -7 13 -7 3 -2 6 12 7 14 1 19 4 13 7 -7 2 -13 9 -13 14 0 6 5 7
10 4 6 -3 10 -1 10 5 0 6 4 9 9 6 5 -3 7 -16 4 -29z m-59 8 c-4 -8 -9 -15 -13
-15 -4 0 -8 7 -8 15 0 8 6 15 13 15 8 0 11 -6 8 -15z m237 -13 c-13 -2 -27 0
-32 5 -6 6 3 7 23 4 28 -4 29 -6 9 -9z m-8 -29 c-7 -2 -19 -2 -25 0 -7 3 -2 5
12 5 14 0 19 -2 13 -5z m-215 -15 c15 -15 16 -28 2 -28 -5 0 -10 6 -10 14 0 8
-6 17 -12 19 -7 3 -8 6 -2 6 5 1 15 -4 22 -11z m62 -8 c-8 -5 -19 -10 -25 -10
-5 0 -3 5 5 10 8 5 20 10 25 10 6 0 3 -5 -5 -10z m218 -34 c-1 -15 -7 -22 -15
-19 -16 6 -17 23 -2 23 5 0 7 5 4 10 -3 6 -1 10 4 10 6 0 10 -11 9 -24z m-334
-5 c3 -5 -2 -12 -12 -17 -14 -6 -12 -8 13 -14 29 -7 29 -8 4 -9 -30 -1 -69 33
-47 42 21 9 36 8 42 -2z m156 -1 c0 -5 -5 -10 -11 -10 -5 0 -7 5 -4 10 3 6 8
10 11 10 2 0 4 -4 4 -10z m10 -67 c0 -2 -10 -1 -21 2 -16 6 -20 4 -14 -6 4 -8
0 -7 -10 3 -26 24 -10 42 21 22 13 -9 24 -18 24 -21z m103 23 c4 -10 1 -13 -8
-9 -8 3 -12 9 -9 14 7 12 11 11 17 -5z m-181 -28 c-7 -7 -12 -8 -12 -2 0 14
12 26 19 19 2 -3 -1 -11 -7 -17z m22 -109 c-3 -5 0 -9 7 -9 7 0 10 -2 7 -5 -3
-3 -16 -1 -29 4 -13 5 -18 10 -11 10 7 1 10 5 7 11 -3 6 1 7 9 4 9 -3 13 -10
10 -15z m-107 -41 c-3 -8 -6 -5 -6 6 -1 11 2 17 5 13 3 -3 4 -12 1 -19z m231
-23 c-1 -16 -3 -24 -6 -16 -3 10 -6 11 -12 1 -5 -8 -15 -10 -26 -5 -18 7 -17
8 3 18 20 8 21 12 8 21 -13 9 -11 11 9 11 21 0 24 -5 24 -30z m42 4 c0 -5 -6
-6 -13 -3 -8 3 -14 11 -14 19 0 11 4 12 14 4 7 -6 13 -15 13 -20z m-356 -4 c3
-8 1 -15 -3 -15 -5 0 -11 7 -15 15 -3 8 -1 15 3 15 5 0 11 -7 15 -15z m381 -5
c3 -5 1 -10 -4 -10 -6 0 -11 5 -11 10 0 6 2 10 4 10 3 0 8 -4 11 -10z m-211
-12 c-3 -4 -9 -8 -15 -8 -5 0 -9 4 -9 8 0 5 7 9 15 9 8 0 12 -4 9 -9z m-94
-48 c0 -5 -7 -7 -15 -4 -8 4 -15 8 -15 10 0 2 7 4 15 4 8 0 15 -4 15 -10z m90
0 c0 -5 -5 -10 -11 -10 -5 0 -7 5 -4 10 3 6 8 10 11 10 2 0 4 -4 4 -10z m-10
-45 c-7 -8 -17 -12 -23 -8 -6 4 -3 9 9 14 27 11 28 11 14 -6z m154 -1 c3 -8 2
-12 -4 -9 -6 3 -10 10 -10 16 0 14 7 11 14 -7z m-534 -104 c0 -5 -4 -10 -10
-10 -5 0 -10 5 -10 10 0 6 5 10 10 10 6 0 10 -4 10 -10z m523 -15 c-3 -9 -8
-14 -10 -11 -3 3 -2 9 2 15 9 16 15 13 8 -4z m-176 -17 c-3 -8 -6 -5 -6 6 -1
11 2 17 5 13 3 -3 4 -12 1 -19z m-387 -2 c0 -3 -4 -8 -10 -11 -5 -3 -10 -1
-10 4 0 6 5 11 10 11 6 0 10 -2 10 -4z m-26 -88 c-7 -11 -34 -10 -34 1 0 6 9
9 19 8 11 0 17 -5 15 -9z m391 2 c-3 -5 -12 -10 -18 -10 -7 0 -6 4 3 10 19 12
23 12 15 0z m-573 -42 c-7 -7 -12 -8 -12 -2 0 14 12 26 19 19 2 -3 -1 -11 -7
-17z m517 0 c-5 -10 -12 -18 -15 -18 -3 0 -2 5 1 10 3 6 -1 10 -10 10 -12 0
-15 -6 -10 -19 3 -11 2 -22 -3 -25 -19 -12 -20 34 -1 47 29 21 50 18 38 -5z
m-249 -20 c0 -16 -3 -19 -11 -11 -6 6 -8 16 -5 22 11 17 16 13 16 -11z m160
12 c0 -5 -6 -11 -12 -11 -7 -1 -23 -3 -35 -4 -13 -1 -20 2 -17 9 6 15 64 20
64 6z m-396 -16 c7 -19 -2 -37 -15 -29 -12 8 -12 45 0 45 5 0 12 -7 15 -16z
m136 -3 c0 -6 -4 -13 -10 -16 -5 -3 -10 1 -10 9 0 9 5 16 10 16 6 0 10 -4 10
-9z m-90 -11 c0 -5 -2 -10 -4 -10 -3 0 -8 5 -11 10 -3 6 -1 10 4 10 6 0 11 -4
11 -10z m315 -28 c-8 -8 -25 10 -19 20 4 6 9 5 15 -3 4 -7 6 -15 4 -17z m-30
-2 c3 -6 -1 -7 -9 -4 -18 7 -21 14 -7 14 6 0 13 -4 16 -10z m-310 -10 c3 -6
-1 -7 -10 -4 -11 5 -14 2 -9 -10 3 -9 11 -13 17 -9 6 4 7 1 3 -6 -6 -9 -12 -9
-25 3 -10 9 -24 16 -32 17 -8 1 -3 5 11 9 35 11 38 11 45 0z m155 0 c0 -6 -8
-10 -17 -10 -15 0 -16 -2 -3 -10 8 -5 10 -10 5 -10 -12 0 -35 20 -35 30 0 3
11 7 25 8 14 1 25 -3 25 -8z m-233 -25 c0 -8 -6 -15 -14 -15 -14 0 -17 12 -6
23 11 11 20 8 20 -8z m43 -33 c0 -10 -7 -19 -15 -19 -17 0 -17 0 -9 21 8 22
24 20 24 -2z m136 -8 c-9 -8 -16 -20 -16 -25 0 -5 -4 -9 -10 -9 -14 0 -13 23
2 38 7 7 18 12 26 12 10 0 10 -3 -2 -16z m-89 -26 c-3 -8 -6 -5 -6 6 -1 11 2
17 5 13 3 -3 4 -12 1 -19z"/>
<path d="M7015 1460 c-3 -5 1 -10 9 -10 9 0 16 5 16 10 0 6 -4 10 -9 10 -6 0
-13 -4 -16 -10z"/>
<path d="M7150 1400 c0 -5 5 -10 10 -10 6 0 10 5 10 10 0 6 -4 10 -10 10 -5 0
-10 -4 -10 -10z"/>
<path d="M7171 1381 c-8 -5 -9 -11 -3 -15 5 -3 12 1 16 9 6 17 6 18 -13 6z"/>
<path d="M7120 1350 c8 -5 20 -10 25 -10 6 0 3 5 -5 10 -8 5 -19 10 -25 10 -5
0 -3 -5 5 -10z"/>
<path d="M7058 1198 c-7 -17 15 -19 29 -3 4 4 3 5 -4 2 -6 -4 -13 -2 -15 5 -3
8 -6 6 -10 -4z"/>
<path d="M7058 1144 c-5 -4 -8 -19 -8 -33 1 -23 2 -24 11 -8 11 19 9 53 -3 41z"/>
<path d="M7623 2663 c9 -2 23 -2 30 0 6 3 -1 5 -18 5 -16 0 -22 -2 -12 -5z"/>
<path d="M7677 2659 c7 -7 15 -10 18 -7 3 3 -2 9 -12 12 -14 6 -15 5 -6 -5z"/>
<path d="M7948 2663 c6 -3 10 -9 7 -13 -3 -5 0 -12 7 -16 7 -4 10 -4 6 1 -4 4
-4 13 2 19 6 8 2 12 -13 13 -12 0 -16 -1 -9 -4z"/>
<path d="M8170 2659 c11 -8 8 -9 -15 -5 -28 5 -28 5 -7 -6 12 -6 22 -17 22
-25 0 -7 5 -13 11 -13 5 0 7 5 4 10 -3 6 -1 10 4 10 6 0 10 6 9 13 -3 14 -19
27 -33 27 -5 0 -3 -5 5 -11z"/>
<path d="M7015 2650 c-3 -5 -1 -10 4 -10 6 0 11 5 11 10 0 6 -2 10 -4 10 -3 0
-8 -4 -11 -10z"/>
<path d="M7890 2656 c0 -2 6 -9 13 -15 10 -8 14 -7 14 4 0 8 -6 15 -14 15 -7
0 -13 -2 -13 -4z"/>
<path d="M7635 2641 c-3 -6 4 -9 15 -8 11 1 20 5 20 9 0 11 -28 10 -35 -1z"/>
<path d="M7758 2643 c7 -3 16 -2 19 1 4 3 -2 6 -13 5 -11 0 -14 -3 -6 -6z"/>
<path d="M7494 2625 c-10 -8 -14 -14 -9 -15 15 0 40 18 34 24 -3 3 -14 -1 -25
-9z"/>
<path d="M7543 2633 c-15 -5 -17 -23 -4 -23 5 0 11 7 15 15 3 8 4 15 3 14 -1
0 -8 -3 -14 -6z"/>
<path d="M8011 2620 c-9 -5 -4 -7 13 -7 29 0 32 2 13 10 -8 3 -20 2 -26 -3z"/>
<path d="M8126 2615 c4 -8 8 -15 10 -15 2 0 4 7 4 15 0 8 -4 15 -10 15 -5 0
-7 -7 -4 -15z"/>
<path d="M7288 2613 c7 -3 16 -2 19 1 4 3 -2 6 -13 5 -11 0 -14 -3 -6 -6z"/>
<path d="M7918 2613 c-16 -2 -28 -8 -28 -13 0 -5 15 -7 33 -3 17 3 29 2 25 -2
-9 -10 10 -35 25 -35 8 0 8 3 0 11 -6 6 -9 18 -5 27 5 13 7 12 14 -4 8 -18 8
-18 5 1 -2 21 -21 26 -69 18z"/>
<path d="M6808 2593 c6 -2 18 -2 25 0 6 3 1 5 -13 5 -14 0 -19 -2 -12 -5z"/>
<path d="M7639 2589 c-12 -7 -12 -9 1 -10 27 -3 35 -5 58 -13 12 -4 38 -2 57
4 36 12 47 30 19 30 -8 0 -12 -4 -9 -10 4 -6 -10 -9 -34 -8 -23 1 -41 4 -41 8
0 9 -35 9 -51 -1z"/>
<path d="M7815 2590 c-3 -5 -1 -10 4 -10 6 0 11 5 11 10 0 6 -2 10 -4 10 -3 0
-8 -4 -11 -10z"/>
<path d="M6697 2579 c7 -7 15 -10 18 -7 3 3 -2 9 -12 12 -14 6 -15 5 -6 -5z"/>
<path d="M7860 2582 c0 -12 19 -26 26 -19 2 2 -2 10 -11 17 -9 8 -15 8 -15 2z"/>
<path d="M8064 2583 c5 -9 0 -13 -13 -13 -12 0 -21 -4 -21 -10 0 -5 5 -10 11
-10 5 0 7 -5 3 -12 -5 -8 0 -9 15 -5 18 4 22 2 18 -12 -3 -14 1 -17 22 -14
l26 4 -25 -15 c-14 -8 -37 -13 -52 -10 -16 2 -28 0 -28 -6 0 -5 13 -10 29 -10
16 0 42 -5 58 -11 19 -7 29 -7 31 0 2 7 18 9 41 5 l36 -6 0 41 c0 23 -3 41 -8
41 -4 0 -5 -6 -1 -12 6 -10 5 -10 -7 -1 -8 7 -26 10 -40 7 -15 -4 -19 -2 -12
3 15 11 4 28 -24 37 -15 5 -23 3 -23 -5 0 -7 -8 -5 -22 7 -12 10 -18 13 -14 7z
m66 -101 c0 -5 -7 -9 -15 -9 -8 0 -12 4 -9 9 3 4 9 8 15 8 5 0 9 -4 9 -8z"/>
<path d="M8180 2579 c0 -5 5 -7 10 -4 6 3 10 8 10 11 0 2 -4 4 -10 4 -5 0 -10
-5 -10 -11z"/>
<path d="M6655 2570 c-3 -5 -1 -10 4 -10 6 0 11 5 11 10 0 6 -2 10 -4 10 -3 0
-8 -4 -11 -10z"/>
<path d="M6755 2570 c-3 -5 3 -10 15 -10 12 0 18 5 15 10 -3 6 -10 10 -15 10
-5 0 -12 -4 -15 -10z"/>
<path d="M8005 2550 c4 -7 -5 -9 -25 -5 -20 4 -29 2 -25 -5 3 -5 0 -10 -7 -10
-9 0 -9 -3 2 -10 20 -13 33 -13 25 0 -3 6 -1 10 4 10 6 0 11 -6 11 -12 0 -10
3 -9 9 1 7 10 9 11 13 1 2 -7 14 -15 26 -17 19 -2 21 -1 10 11 -7 8 -16 12
-20 9 -4 -2 -5 2 -2 10 3 8 -2 17 -11 21 -10 3 -14 2 -10 -4z"/>
<path d="M6746 2543 c-3 -4 -24 -6 -46 -5 -23 2 -40 -2 -40 -8 0 -5 -7 -10
-16 -10 -8 0 -22 -6 -30 -14 -12 -13 -12 -16 3 -25 14 -8 15 -11 3 -12 -8 -1
-19 -1 -24 0 -14 3 -57 -50 -50 -61 5 -8 1 -9 -12 -4 -10 4 -15 3 -10 -1 4 -4
15 -8 24 -9 46 -3 53 -5 47 -14 -3 -6 5 -14 18 -19 13 -5 27 -16 30 -24 8 -22
49 -10 42 12 -3 9 2 26 11 37 8 10 13 13 9 7 -7 -14 21 -18 29 -5 3 5 19 7 35
6 33 -2 42 11 14 20 -10 2 -32 3 -50 2 -28 -2 -31 0 -27 21 2 12 0 23 -6 23
-5 0 -10 -4 -10 -10 0 -5 -4 -10 -9 -10 -5 0 -7 9 -4 20 3 11 9 17 14 14 5 -3
9 0 9 5 0 14 -6 14 -32 0 -18 -10 -20 -9 -14 6 5 13 2 16 -11 11 -11 -4 -9 1
6 13 17 12 36 18 57 15 20 -2 36 2 44 11 12 15 10 21 -4 8z m-83 -112 c8 -8 6
-11 -7 -11 -16 0 -16 -1 -1 -16 9 -9 13 -19 10 -22 -3 -4 -9 -2 -13 4 -13 20
-50 35 -54 22 -6 -18 -38 -1 -37 19 1 17 2 17 6 1 2 -10 9 -18 14 -18 6 0 7 9
4 21 -6 19 -4 20 30 16 20 -3 42 -10 48 -16z m-3 -83 c0 -5 -11 2 -25 14 -13
11 -22 25 -18 31 6 9 42 -30 43 -45z"/>
<path d="M6795 2540 c-3 -5 -1 -10 4 -10 6 0 11 5 11 10 0 6 -2 10 -4 10 -3 0
-8 -4 -11 -10z"/>
<path d="M7918 2543 c7 -3 16 -2 19 1 4 3 -2 6 -13 5 -11 0 -14 -3 -6 -6z"/>
<path d="M7810 2533 c0 -7 5 -15 11 -19 7 -4 1 -12 -17 -20 -20 -10 -22 -12
-6 -8 13 3 29 1 37 -6 10 -8 13 -8 11 2 -2 18 -36 65 -36 51z"/>
<path d="M7780 2515 c0 -8 2 -15 4 -15 2 0 6 7 10 15 3 8 1 15 -4 15 -6 0 -10
-7 -10 -15z"/>
<path d="M6555 2510 c-17 -7 -17 -9 -3 -9 12 -1 15 -6 11 -18 -6 -17 -5 -17
11 0 22 22 10 38 -19 27z"/>
<path d="M7050 2500 c-6 -11 -8 -20 -6 -20 3 0 10 9 16 20 6 11 8 20 6 20 -3
0 -10 -9 -16 -20z"/>
<path d="M7926 2507 c3 -7 18 -22 34 -34 27 -22 28 -22 23 -3 -4 14 0 20 11
20 9 0 16 4 16 8 0 5 -7 9 -15 9 -8 0 -15 -4 -15 -9 0 -4 -7 -8 -15 -8 -8 0
-15 4 -15 9 0 5 -7 11 -14 14 -9 4 -13 1 -10 -6z"/>
<path d="M6735 2500 c3 -6 -2 -10 -12 -11 -10 0 -13 -3 -6 -5 7 -3 20 -1 29 4
15 8 15 9 0 15 -10 4 -15 3 -11 -3z"/>
<path d="M7320 2489 c0 -11 4 -18 10 -14 5 3 7 12 3 20 -7 21 -13 19 -13 -6z"/>
<path d="M7863 2497 c-3 -6 -1 -7 4 -4 6 4 14 0 17 -9 4 -11 -1 -18 -15 -21
-16 -4 -17 -8 -7 -14 17 -12 31 -11 23 0 -3 5 3 12 14 16 26 8 20 40 -8 41
-12 1 -24 -3 -28 -9z"/>
<path d="M7105 2470 c-3 -5 -1 -10 4 -10 6 0 11 5 11 10 0 6 -2 10 -4 10 -3 0
-8 -4 -11 -10z"/>
<path d="M7190 2461 c0 -12 -4 -19 -10 -16 -5 3 -10 1 -10 -4 0 -6 5 -11 10
-11 6 0 10 -7 10 -16 0 -14 3 -14 15 -4 9 7 12 16 8 19 -4 3 -10 15 -11 26 -5
29 -12 32 -12 6z"/>
<path d="M6776 2457 c3 -10 9 -15 12 -12 3 3 0 11 -7 18 -10 9 -11 8 -5 -6z"/>
<path d="M7805 2460 c-3 -5 -2 -10 4 -10 5 0 13 5 16 10 3 6 2 10 -4 10 -5 0
-13 -4 -16 -10z"/>
<path d="M7367 2454 c-11 -11 13 -44 31 -44 13 0 11 4 -7 16 -18 13 -20 18
-10 25 8 5 9 9 3 9 -6 0 -14 -3 -17 -6z"/>
<path d="M6808 2443 c7 -3 16 -2 19 1 4 3 -2 6 -13 5 -11 0 -14 -3 -6 -6z"/>
<path d="M7951 2441 c-8 -5 -9 -11 -3 -15 5 -3 12 1 16 9 6 17 6 18 -13 6z"/>
<path d="M8195 2440 c-3 -6 1 -13 10 -16 19 -8 30 0 20 15 -8 14 -22 14 -30 1z"/>
<path d="M7088 2424 c-38 -20 -35 -23 7 -10 19 6 35 14 35 18 0 11 -11 9 -42
-8z"/>
<path d="M7445 2430 c3 -5 8 -10 11 -10 2 0 4 5 4 10 0 6 -5 10 -11 10 -5 0
-7 -4 -4 -10z"/>
<path d="M7990 2436 c0 -9 39 -13 51 -5 10 6 4 9 -18 9 -18 0 -33 -2 -33 -4z"/>
<path d="M6886 2417 c3 -10 9 -15 12 -12 3 3 0 11 -7 18 -10 9 -11 8 -5 -6z"/>
<path d="M7903 2418 c1 -7 -4 -12 -10 -10 -7 1 -13 -2 -13 -8 0 -5 7 -10 15
-10 8 0 15 -7 15 -15 0 -20 16 -19 24 1 3 8 11 12 17 8 8 -4 9 -3 5 4 -4 6
-13 9 -21 5 -10 -3 -15 2 -15 16 0 12 -4 21 -10 21 -5 0 -9 -6 -7 -12z"/>
<path d="M6850 2410 c-9 -6 -10 -10 -3 -10 6 0 15 5 18 10 8 12 4 12 -15 0z"/>
<path d="M6958 2408 c6 -6 18 -8 28 -6 14 3 12 5 -9 10 -19 3 -25 2 -19 -4z"/>
<path d="M7970 2408 c1 -16 21 -44 35 -48 6 -1 15 -5 22 -7 6 -3 22 -3 35 0
17 3 15 5 -9 6 -18 0 -33 6 -33 11 0 6 -7 10 -15 10 -8 0 -15 4 -15 9 0 4 12
6 26 3 18 -3 25 -1 20 6 -4 6 -13 9 -20 6 -8 -3 -17 -1 -21 5 -9 15 -25 14
-25 -1z"/>
<path d="M8048 2413 c7 -3 16 -2 19 1 4 3 -2 6 -13 5 -11 0 -14 -3 -6 -6z"/>
<path d="M7415 2400 l-20 -9 20 -1 c20 -1 20 -1 1 -15 -11 -8 -15 -15 -10 -15
6 0 15 5 22 12 9 9 12 8 12 -5 0 -11 5 -14 17 -10 11 4 13 8 5 11 -7 2 -10 8
-6 13 3 5 -3 9 -13 10 -16 0 -16 1 2 9 13 5 14 9 5 9 -8 0 -24 -4 -35 -9z"/>
<path d="M7503 2395 c0 -8 4 -12 9 -9 5 3 6 10 3 15 -9 13 -12 11 -12 -6z"/>
<path d="M8104 2393 c2 -9 8 -18 15 -19 6 -1 7 0 1 3 -5 2 -8 9 -5 13 3 5 1
11 -4 14 -5 4 -8 -2 -7 -11z"/>
<path d="M8130 2400 c0 -5 7 -7 15 -4 8 4 15 8 15 10 0 2 -7 4 -15 4 -8 0 -15
-4 -15 -10z"/>
<path d="M7206 2385 c-3 -8 -1 -15 4 -15 6 0 10 5 10 11 0 5 5 7 12 3 7 -4 8
-3 4 4 -10 16 -23 15 -30 -3z"/>
<path d="M6936 2375 c-4 -13 -2 -14 14 -5 23 13 26 20 6 20 -8 0 -16 -7 -20
-15z"/>
<path d="M7315 2380 c3 -5 8 -10 11 -10 2 0 4 5 4 10 0 6 -5 10 -11 10 -5 0
-7 -4 -4 -10z"/>
<path d="M6880 2366 c0 -2 7 -7 16 -10 8 -3 12 -2 9 4 -6 10 -25 14 -25 6z"/>
<path d="M6805 2350 c3 -5 11 -10 16 -10 6 0 7 5 4 10 -3 6 -11 10 -16 10 -6
0 -7 -4 -4 -10z"/>
<path d="M7355 2350 c3 -5 10 -10 16 -10 5 0 9 5 9 10 0 6 -7 10 -16 10 -8 0
-12 -4 -9 -10z"/>
<path d="M7995 2340 c3 -5 8 -10 11 -10 2 0 4 5 4 10 0 6 -5 10 -11 10 -5 0
-7 -4 -4 -10z"/>
<path d="M7498 2331 c8 -4 14 -12 15 -17 0 -5 7 -15 14 -22 11 -11 13 -10 10
8 -3 21 -23 40 -42 40 -5 0 -4 -4 3 -9z"/>
<path d="M8086 2323 c-6 -14 -5 -15 5 -6 7 7 10 15 7 18 -3 3 -9 -2 -12 -12z"/>
<path d="M8140 2329 c0 -6 6 -9 14 -6 8 3 17 1 20 -6 2 -7 5 -4 5 6 1 11 -6
17 -19 17 -11 0 -20 -5 -20 -11z"/>
<path d="M5026 2316 c6 -16 34 -30 34 -18 0 10 -22 32 -32 32 -4 0 -5 -6 -2
-14z"/>
<path d="M3714 2304 c-28 -6 -111 -84 -122 -115 -5 -13 -13 -48 -17 -76 -4
-29 -11 -53 -15 -53 -13 0 -23 -41 -21 -85 2 -51 10 -77 21 -70 12 7 33 -62
27 -86 -3 -12 2 -23 14 -30 11 -5 17 -14 14 -19 -3 -5 8 -24 25 -43 16 -19 30
-42 30 -51 0 -9 9 -21 20 -28 11 -7 20 -16 20 -19 0 -14 97 -110 149 -149 78
-57 128 -74 179 -61 23 7 48 19 57 27 64 64 115 181 115 264 0 98 -39 221 -96
309 -12 18 -20 40 -17 49 4 9 2 13 -4 9 -6 -4 -28 15 -49 41 -63 80 -127 143
-164 162 -36 18 -129 32 -166 24z m92 -93 c28 -37 85 -71 123 -71 26 0 35 -16
15 -24 -34 -13 -78 -5 -134 26 -57 30 -136 97 -97 83 12 -5 17 -2 17 9 0 32
47 18 76 -23z m88 13 c64 -29 78 -44 42 -44 -42 0 -116 39 -116 62 0 13 14 10
74 -18z m-180 -52 c42 -47 150 -102 198 -102 19 0 50 5 67 11 27 10 36 9 49
-4 14 -15 14 -18 -4 -38 -42 -48 -147 -72 -222 -51 -36 11 -123 92 -139 130
-11 28 -12 40 -2 63 6 16 13 29 15 29 2 0 19 -17 38 -38z m-1 -158 c70 -65 91
-75 172 -76 61 -2 91 9 147 54 22 17 30 19 42 9 13 -11 11 -21 -15 -79 -17
-37 -45 -79 -62 -94 -46 -39 -142 -40 -222 -2 -56 27 -123 92 -153 149 -17 33
-21 113 -8 160 l8 30 16 -48 c11 -35 31 -62 75 -103z m-5 -182 c61 -52 116
-72 194 -72 95 0 135 28 185 133 16 31 30 57 33 57 12 0 41 -92 50 -163 14
-95 9 -121 -38 -215 -38 -79 -85 -122 -132 -122 -46 0 -149 62 -208 126 -121
130 -188 244 -198 339 l-6 60 35 -51 c20 -28 58 -70 85 -92z"/>
<path d="M7275 2300 c-3 -5 -2 -10 4 -10 5 0 13 5 16 10 3 6 2 10 -4 10 -5 0
-13 -4 -16 -10z"/>
<path d="M7171 2288 c0 -10 9 -28 21 -40 15 -15 17 -20 5 -15 -9 3 -19 2 -22
-4 -4 -5 -11 -7 -16 -4 -5 4 -9 2 -9 -3 0 -5 11 -12 25 -14 14 -3 25 -1 25 3
0 5 7 9 15 9 8 0 17 -14 21 -35 5 -30 8 -32 20 -20 8 8 21 12 29 9 10 -4 15 0
15 11 0 9 -4 13 -10 10 -5 -3 -10 1 -10 9 0 9 -7 16 -17 16 -9 0 -13 3 -10 7
10 10 -24 44 -36 36 -6 -4 -8 0 -5 9 4 8 0 15 -8 15 -7 0 -11 -4 -8 -9 3 -4 1
-8 -5 -8 -5 0 -12 8 -14 18 -4 16 -5 16 -6 0z"/>
<path d="M8125 2280 c3 -5 11 -10 16 -10 6 0 7 5 4 10 -3 6 -11 10 -16 10 -6
0 -7 -4 -4 -10z"/>
<path d="M8195 2280 c-17 -8 -17 -9 7 -7 15 1 24 5 22 9 -3 4 -6 8 -7 7 -1 0
-11 -4 -22 -9z"/>
<path d="M6770 2260 c-9 -6 -10 -10 -3 -10 6 0 15 5 18 10 8 12 4 12 -15 0z"/>
<path d="M7285 2260 c6 -9 2 -10 -15 -5 -15 5 -20 4 -16 -4 9 -13 46 -15 46
-2 0 6 -5 13 -12 17 -7 5 -8 3 -3 -6z"/>
<path d="M7330 2250 c-9 -6 -10 -10 -3 -10 6 0 15 5 18 10 8 12 4 12 -15 0z"/>
<path d="M7510 2250 c0 -5 5 -10 11 -10 5 0 7 5 4 10 -3 6 -8 10 -11 10 -2 0
-4 -4 -4 -10z"/>
<path d="M6880 2240 c0 -5 5 -10 11 -10 8 0 9 -12 5 -32 -5 -31 -5 -32 7 -10
7 12 17 19 21 15 5 -4 1 4 -9 20 -17 27 -35 36 -35 17z"/>
<path d="M6936 2218 c3 -5 10 -6 15 -3 13 9 11 12 -6 12 -8 0 -12 -4 -9 -9z"/>
<path d="M7352 2225 c11 -12 -11 -35 -28 -28 -8 3 -14 0 -14 -6 0 -19 39 -12
50 8 7 15 7 22 -2 27 -7 4 -10 4 -6 -1z"/>
<path d="M8101 2192 c-7 -14 -6 -18 10 -19 10 -1 21 3 25 8 3 5 0 8 -8 7 -7
-2 -12 3 -10 10 3 18 -6 15 -17 -6z"/>
<path d="M6516 2188 c3 -4 9 -8 15 -8 5 0 9 4 9 8 0 5 -7 9 -15 9 -8 0 -12 -4
-9 -9z"/>
<path d="M6970 2181 c0 -10 -7 -22 -16 -25 -12 -5 -14 -1 -9 16 l7 21 -23 -22
c-12 -11 -26 -21 -31 -21 -4 0 -8 -9 -8 -20 0 -11 -4 -20 -10 -20 -5 0 -9 3
-9 8 1 4 1 16 0 27 -1 18 -3 18 -14 4 -7 -9 -21 -19 -32 -22 -18 -4 -18 -5 -2
-6 10 0 16 -5 13 -10 -4 -5 2 -7 13 -4 10 3 22 0 25 -6 4 -6 16 -11 28 -11 11
0 22 -8 25 -19 3 -12 14 -18 29 -18 27 0 30 7 12 25 -7 7 -8 12 -2 12 6 0 14
-3 18 -7 3 -4 13 -8 22 -9 12 -2 13 1 3 12 -6 8 -28 14 -48 14 -34 1 -35 2
-17 15 11 8 15 15 9 15 -6 0 -16 -7 -23 -15 -17 -20 -25 -19 -27 4 -1 11 4 19
10 17 7 -1 9 -1 4 1 -4 3 -4 9 -1 14 4 6 10 6 18 0 14 -12 58 -3 50 11 -3 5 0
15 6 23 10 12 9 15 -4 15 -9 0 -16 -8 -16 -19z"/>
<path d="M7131 2188 c-1 -20 14 -24 25 -6 4 6 3 8 -4 4 -5 -3 -13 0 -15 6 -3
8 -6 6 -6 -4z"/>
<path d="M7051 2144 c0 -11 3 -14 6 -6 3 7 2 16 -1 19 -3 4 -6 -2 -5 -13z"/>
<path d="M8158 2153 c6 -2 18 -2 25 0 6 3 1 5 -13 5 -14 0 -19 -2 -12 -5z"/>
<path d="M7075 2120 c-3 -5 -1 -10 4 -10 6 0 11 5 11 10 0 6 -2 10 -4 10 -3 0
-8 -4 -11 -10z"/>
<path d="M7205 2120 c-3 -6 1 -7 9 -4 18 7 21 14 7 14 -6 0 -13 -4 -16 -10z"/>
<path d="M7100 2116 c0 -9 30 -14 35 -6 4 6 -3 10 -14 10 -12 0 -21 -2 -21 -4z"/>
<path d="M7280 2070 c-9 -16 -8 -18 5 -14 8 4 15 12 15 20 0 20 -7 17 -20 -6z"/>
<path d="M40 2046 c0 -27 15 -42 25 -26 8 13 -3 50 -16 50 -5 0 -9 -11 -9 -24z"/>
<path d="M7105 2050 c-3 -5 -2 -10 4 -10 5 0 13 5 16 10 3 6 2 10 -4 10 -5 0
-13 -4 -16 -10z"/>
<path d="M6885 2040 c-3 -5 -1 -10 4 -10 6 0 11 5 11 10 0 6 -2 10 -4 10 -3 0
-8 -4 -11 -10z"/>
<path d="M7016 2029 c-9 -11 -12 -19 -6 -19 5 0 12 5 15 10 4 6 10 8 14 6 4
-3 13 -1 20 3 9 6 8 10 -7 13 -12 3 -26 -2 -36 -13z"/>
<path d="M7291 2021 c-8 -5 -9 -11 -3 -15 5 -3 12 1 16 9 6 17 6 18 -13 6z"/>
<path d="M7317 2016 c-4 -9 -2 -16 4 -16 6 0 7 -4 4 -10 -3 -5 -1 -10 4 -10
13 0 14 20 2 38 -7 11 -9 11 -14 -2z"/>
<path d="M7228 2013 c6 -2 18 -2 25 0 6 3 1 5 -13 5 -14 0 -19 -2 -12 -5z"/>
<path d="M6988 1993 c7 -3 16 -2 19 1 4 3 -2 6 -13 5 -11 0 -14 -3 -6 -6z"/>
<path d="M7229 1983 c-13 -16 -12 -17 4 -4 16 13 21 21 13 21 -2 0 -10 -8 -17
-17z"/>
<path d="M7270 1980 c0 -5 5 -10 10 -10 6 0 10 5 10 10 0 6 -4 10 -10 10 -5 0
-10 -4 -10 -10z"/>
<path d="M7035 1939 c-4 -6 -5 -12 -2 -15 2 -3 7 2 10 11 7 17 1 20 -8 4z"/>
<path d="M4200 1901 c0 -6 4 -13 10 -16 6 -3 7 1 4 9 -7 18 -14 21 -14 7z"/>
<path d="M6968 1873 c7 -3 16 -2 19 1 4 3 -2 6 -13 5 -11 0 -14 -3 -6 -6z"/>
<path d="M7062 1864 c10 -10 20 -16 22 -13 3 3 -5 11 -17 18 -21 13 -21 12 -5
-5z"/>
<path d="M3395 1808 c-3 -7 -6 -31 -8 -53 -5 -51 38 -139 100 -204 23 -24 46
-54 49 -65 4 -12 10 -23 13 -26 15 -11 81 -109 81 -119 0 -6 4 -11 9 -11 5 0
13 -9 16 -21 9 -29 170 -236 258 -334 40 -44 102 -116 137 -160 36 -44 81 -98
102 -120 40 -44 143 -169 155 -189 34 -53 132 -75 167 -37 14 15 16 26 8 53
-5 18 -7 39 -5 46 3 6 -2 12 -10 12 -9 0 -18 8 -21 18 -3 9 -19 31 -35 48 -17
18 -27 35 -23 39 4 5 2 5 -4 2 -14 -8 -66 52 -57 66 3 6 2 7 -4 4 -12 -8 -129
115 -203 212 -30 40 -82 107 -116 149 -33 42 -87 113 -119 157 -33 44 -78 100
-101 125 -23 25 -62 77 -87 116 -38 61 -74 106 -152 197 -8 9 -15 21 -15 26 0
5 -18 25 -40 45 -40 36 -86 48 -95 24z m87 -80 c18 -24 45 -61 60 -83 33 -49
73 -95 83 -95 5 0 -2 11 -15 25 -18 19 -20 25 -8 25 9 0 18 -8 20 -17 3 -10 6
-22 7 -28 7 -24 23 -45 31 -40 5 3 12 0 16 -6 4 -8 3 -9 -4 -5 -18 11 -14 -10
5 -25 14 -12 16 -12 9 1 -4 8 -1 6 8 -4 8 -10 13 -23 10 -28 -7 -11 15 -40 26
-33 4 2 18 -7 31 -21 17 -18 19 -23 6 -18 -23 8 -21 1 5 -22 13 -12 18 -13 13
-4 -5 9 0 8 13 -4 12 -11 22 -27 22 -36 0 -9 10 -28 23 -42 34 -38 79 -92 107
-129 14 -18 45 -58 70 -88 25 -31 67 -83 92 -116 25 -33 74 -89 108 -125 142
-147 159 -167 189 -221 l31 -56 -20 -18 c-16 -14 -23 -16 -32 -7 -7 7 -20 12
-30 12 -10 0 -23 11 -28 24 -5 13 -36 50 -69 82 -33 31 -58 61 -55 66 3 5 0 7
-8 6 -7 -2 -14 7 -16 19 -2 13 -15 32 -30 43 -14 12 -34 34 -43 50 -26 42 -61
80 -75 80 -6 0 -18 8 -25 17 -8 10 -9 14 -2 10 6 -4 14 -3 18 3 3 5 -1 10 -9
10 -9 0 -16 6 -17 13 0 9 -2 9 -6 -1 -3 -8 -10 -5 -23 10 -10 12 -16 28 -13
34 2 7 -4 18 -14 25 -11 8 -22 22 -26 33 -6 14 -10 16 -21 7 -17 -14 -32 4
-27 33 2 17 -36 63 -50 59 -4 -1 -5 5 -2 15 2 9 -5 27 -16 38 -11 12 -17 25
-14 28 4 3 -1 6 -10 6 -10 0 -14 -5 -11 -15 11 -28 -5 -15 -41 31 -37 50 -46
75 -17 53 15 -13 16 -12 4 3 -8 10 -19 16 -24 15 -6 -1 -13 4 -16 12 -3 8 0
11 7 7 7 -5 9 -1 4 9 -4 12 -8 13 -13 5 -5 -8 -15 -2 -29 19 -12 17 -19 36
-15 42 4 8 3 9 -4 5 -7 -4 -12 -1 -12 9 0 10 -5 13 -12 9 -7 -4 -8 -3 -4 4 4
6 -1 19 -11 29 -34 34 -144 204 -159 245 -25 71 6 80 58 16z m99 -105 c13 -16
12 -17 -3 -4 -17 13 -22 21 -14 21 2 0 10 -8 17 -17z m213 -449 c5 -14 4 -15
-9 -4 -17 14 -19 20 -6 20 5 0 12 -7 15 -16z m63 -86 c-3 -8 -6 -5 -6 6 -1 11
2 17 5 13 3 -3 4 -12 1 -19z"/>
<path d="M3720 1270 c0 -5 5 -10 11 -10 5 0 7 5 4 10 -3 6 -8 10 -11 10 -2 0
-4 -4 -4 -10z"/>
<path d="M7006 1795 c4 -8 8 -15 10 -15 2 0 4 7 4 15 0 8 -4 15 -10 15 -5 0
-7 -7 -4 -15z"/>
<path d="M7061 1784 c0 -11 3 -14 6 -6 3 7 2 16 -1 19 -3 4 -6 -2 -5 -13z"/>
<path d="M6880 1770 c0 -5 5 -10 11 -10 5 0 7 5 4 10 -3 6 -8 10 -11 10 -2 0
-4 -4 -4 -10z"/>
<path d="M7082 1765 c2 -15 -2 -19 -17 -17 -16 3 -18 1 -7 -9 10 -11 15 -10
29 4 14 14 15 19 4 29 -10 11 -12 9 -9 -7z"/>
<path d="M6968 1733 c7 -3 16 -2 19 1 4 3 -2 6 -13 5 -11 0 -14 -3 -6 -6z"/>
<path d="M6947 1719 c7 -7 15 -10 18 -7 3 3 -2 9 -12 12 -14 6 -15 5 -6 -5z"/>
<path d="M6888 1601 c8 -4 13 -11 13 -15 -3 -20 1 -24 19 -19 19 5 19 6 -4 24
-13 11 -28 19 -33 19 -4 0 -2 -4 5 -9z"/>
<path d="M6562 1580 c0 -14 2 -19 5 -12 2 6 2 18 0 25 -3 6 -5 1 -5 -13z"/>
<path d="M3330 1565 c0 -14 -5 -25 -10 -25 -6 0 -8 -25 -4 -67 3 -41 0 -103
-9 -155 -8 -49 -10 -88 -6 -88 5 0 9 -8 9 -17 0 -15 -2 -15 -9 -4 -7 10 -11 1
-16 -32 -4 -25 -5 -49 -2 -54 3 -4 1 -28 -3 -53 -14 -72 5 -149 68 -273 31
-62 60 -113 64 -115 4 -2 18 -34 33 -72 42 -110 95 -103 92 13 -2 79 11 211
29 307 16 86 18 149 5 182 -5 13 -19 55 -31 93 -12 39 -39 108 -61 154 -21 46
-39 90 -39 98 0 7 -7 16 -15 19 -8 3 -20 21 -27 40 -6 19 -16 34 -21 34 -4 0
-5 9 -2 20 5 16 2 20 -19 20 -21 0 -26 -5 -26 -25z m116 -230 c43 -89 91 -225
80 -225 -2 0 -19 24 -39 53 -20 28 -60 76 -89 105 l-54 52 8 73 c3 39 7 83 8
97 1 23 2 22 18 -10 9 -19 40 -84 68 -145z m-129 -57 c-3 -8 -6 -5 -6 6 -1 11
2 17 5 13 3 -3 4 -12 1 -19z m174 -163 c32 -70 20 -126 -51 -234 -23 -35 -36
-48 -38 -37 -2 9 -7 16 -12 16 -5 0 -7 6 -4 14 3 7 -2 20 -10 29 -8 8 -12 17
-9 21 4 3 2 6 -4 6 -6 0 -20 32 -33 71 -23 75 -23 79 6 259 l6 35 66 -70 c36
-38 73 -88 83 -110z m25 -242 c-9 -59 -16 -141 -17 -180 -2 -77 -10 -85 -29
-27 -8 25 -15 32 -20 24 -5 -9 -8 -5 -8 11 0 13 -4 38 -10 56 -9 28 -6 39 33
106 24 41 47 86 51 101 15 59 15 12 0 -91z"/>
<path d="M6733 1330 c-13 -5 -23 -13 -23 -16 0 -4 3 -4 7 -1 3 4 12 2 18 -3 9
-8 14 -5 18 10 3 11 4 20 4 19 -1 0 -12 -4 -24 -9z"/>
<path d="M6780 1250 c-12 -7 -10 -9 7 -7 12 0 19 5 17 9 -6 10 -6 10 -24 -2z"/>
<path d="M6570 1172 c0 -12 19 -26 26 -19 2 2 -2 10 -11 17 -9 8 -15 8 -15 2z"/>
<path d="M6514 1122 c4 -3 14 -7 22 -8 9 -1 13 0 10 4 -4 3 -14 7 -22 8 -9 1
-13 0 -10 -4z"/>
<path d="M835 1090 c3 -5 8 -10 11 -10 2 0 4 5 4 10 0 6 -5 10 -11 10 -5 0 -7
-4 -4 -10z"/>
<path d="M6810 1076 c0 -2 7 -7 16 -10 8 -3 12 -2 9 4 -6 10 -25 14 -25 6z"/>
<path d="M6578 1053 c6 -2 18 -2 25 0 6 3 1 5 -13 5 -14 0 -19 -2 -12 -5z"/>
<path d="M6776 1042 c-3 -5 1 -9 9 -9 8 0 12 4 9 9 -3 4 -7 8 -9 8 -2 0 -6 -4
-9 -8z"/>
<path d="M6663 985 c-9 -10 -9 -16 -2 -20 14 -9 22 0 17 18 -2 13 -5 13 -15 2z"/>
<path d="M6700 981 c0 -5 5 -13 10 -16 6 -3 10 -2 10 4 0 5 -4 13 -10 16 -5 3
-10 2 -10 -4z"/>
<path d="M6685 920 c-3 -5 -1 -10 4 -10 6 0 11 5 11 10 0 6 -2 10 -4 10 -3 0
-8 -4 -11 -10z"/>
<path d="M6724 915 c-18 -15 -18 -16 6 -11 14 3 19 3 12 0 -6 -3 -9 -10 -6
-16 4 -6 1 -8 -7 -6 -8 3 -22 -1 -31 -9 -15 -14 -18 -13 -24 13 l-8 29 -6 -25
c-4 -14 -12 -24 -18 -23 -7 2 -9 -4 -5 -14 5 -12 3 -14 -8 -8 -8 5 -11 4 -6 0
13 -14 37 -14 37 0 0 8 7 11 20 8 11 -3 20 -9 20 -14 0 -4 13 0 29 9 16 9 28
19 25 21 -2 2 11 17 29 33 30 28 31 29 6 19 -16 -6 -30 -6 -36 0 -6 6 -17 3
-29 -6z"/>
<path d="M6780 890 c0 -5 5 -10 10 -10 6 0 10 5 10 10 0 6 -4 10 -10 10 -5 0
-10 -4 -10 -10z"/>
<path d="M6273 821 c0 -11 5 -17 9 -15 11 7 10 34 -1 34 -6 0 -9 -9 -8 -19z"/>
<path d="M6675 830 c3 -5 8 -10 11 -10 2 0 4 5 4 10 0 6 -5 10 -11 10 -5 0 -7
-4 -4 -10z"/>
<path d="M6141 814 c0 -11 3 -14 6 -6 3 7 2 16 -1 19 -3 4 -6 -2 -5 -13z"/>
<path d="M6626 807 c3 -10 9 -15 12 -12 3 3 0 11 -7 18 -10 9 -11 8 -5 -6z"/>
<path d="M6670 803 c0 -5 5 -15 10 -23 8 -12 10 -11 10 8 0 12 -4 22 -10 22
-5 0 -10 -3 -10 -7z"/>
<path d="M6184 766 c-10 -8 -17 -17 -14 -19 3 -3 14 1 24 9 11 7 17 16 15 19
-3 3 -14 -2 -25 -9z"/>
<path d="M6305 750 c-3 -5 -2 -10 4 -10 5 0 13 5 16 10 3 6 2 10 -4 10 -5 0
-13 -4 -16 -10z"/>
<path d="M6680 750 c15 -9 13 -11 -12 -14 -13 -1 -24 -26 -11 -26 5 0 17 6 28
13 18 14 14 37 -8 37 -7 0 -6 -4 3 -10z"/>
<path d="M6817 737 c-3 -8 1 -14 9 -14 8 0 14 6 14 14 0 7 -4 13 -9 13 -5 0
-11 -6 -14 -13z"/>
<path d="M6227 723 c-11 -10 -8 -33 3 -33 6 0 10 7 10 16 0 9 5 12 12 8 7 -4
8 -3 4 4 -8 13 -19 15 -29 5z"/>
<path d="M6773 713 c-7 -3 -13 -10 -13 -15 0 -6 3 -8 7 -5 9 10 34 -14 26 -26
-3 -5 -1 -7 5 -4 10 7 5 44 -7 51 -3 2 -12 1 -18 -1z"/>
<path d="M6141 694 c0 -11 3 -14 6 -6 3 7 2 16 -1 19 -3 4 -6 -2 -5 -13z"/>
<path d="M6196 695 c4 -8 10 -15 15 -15 4 0 6 7 3 15 -4 8 -10 15 -15 15 -4 0
-6 -7 -3 -15z"/>
<path d="M6670 684 c0 -23 17 -34 51 -34 10 0 19 -5 19 -11 0 -5 4 -8 9 -5 7
5 8 24 2 59 0 4 -7 2 -15 -5 -8 -7 -12 -16 -9 -20 2 -5 -3 -8 -12 -8 -10 0
-13 5 -9 13 4 6 4 9 -1 5 -4 -4 -14 0 -21 10 -12 16 -13 15 -14 -4z"/>
<path d="M6160 680 c0 -5 7 -7 15 -4 8 4 15 8 15 10 0 2 -7 4 -15 4 -8 0 -15
-4 -15 -10z"/>
<path d="M6123 659 c-2 -23 3 -25 10 -4 4 8 3 16 -1 19 -4 3 -9 -4 -9 -15z"/>
<path d="M6204 666 c-26 -12 -31 -18 -27 -40 4 -19 1 -26 -11 -26 -9 0 -16 -5
-16 -11 0 -5 -4 -7 -10 -4 -16 10 -12 -25 5 -41 13 -14 15 -14 15 2 0 13 3 14
15 4 9 -7 15 -8 15 -2 0 5 -8 13 -17 17 -17 6 -17 7 0 17 14 7 23 6 36 -6 10
-9 26 -13 40 -9 17 4 22 3 17 -5 -4 -7 -2 -12 3 -12 6 0 11 7 11 15 0 19 16
19 24 0 9 -24 -5 -47 -25 -42 -11 3 -17 1 -13 -4 3 -5 11 -9 19 -9 8 0 17 -4
20 -10 3 -6 -1 -7 -9 -4 -9 3 -16 1 -16 -4 0 -6 -9 -14 -20 -17 -11 -4 -18
-11 -15 -16 4 -5 19 -3 35 6 l29 15 -13 -31 c-7 -18 -21 -36 -30 -41 -9 -5
-16 -18 -16 -29 0 -13 4 -18 13 -13 9 5 9 3 -1 -7 -7 -8 -18 -14 -24 -14 -6 0
-13 -6 -16 -14 -3 -8 0 -11 6 -7 18 11 23 -11 6 -28 -8 -9 -10 -16 -4 -16 8 0
8 -6 -1 -21 -9 -17 -8 -20 3 -17 13 5 14 9 17 48 1 14 12 22 40 30 39 10 66
32 55 43 -4 3 -18 0 -33 -7 -24 -13 -27 -12 -38 10 -12 26 3 47 38 49 26 2 34
12 22 27 -6 7 -11 29 -11 49 -1 33 1 36 21 32 49 -11 53 -13 37 -23 -9 -6 -10
-10 -3 -10 7 0 17 8 23 18 10 15 11 14 7 -5 -3 -13 -2 -23 3 -23 4 0 7 -7 6
-16 0 -9 7 -21 17 -28 15 -9 21 -7 33 8 18 25 18 36 0 36 -18 0 -29 27 -13 34
9 3 8 8 -3 15 -13 10 -13 12 0 22 13 9 12 10 -2 5 -18 -5 -22 3 -18 38 2 23
-18 12 -30 -18 l-9 -21 0 22 c-1 12 4 25 10 29 8 4 7 9 -2 15 -12 7 -11 9 1
10 8 1 18 1 23 0 4 0 7 3 7 8 0 5 8 12 18 14 9 3 -2 3 -25 0 -29 -4 -43 -2
-43 6 0 6 -8 11 -17 11 -15 0 -16 -2 -3 -10 9 -5 15 -28 16 -62 2 -29 3 -54 3
-56 1 -1 10 2 20 7 14 8 20 7 24 -3 7 -17 -25 -24 -67 -16 -17 3 -30 12 -32
22 -3 23 -31 51 -44 43 -12 -8 -13 1 -1 43 6 20 6 30 0 27 -5 -4 -9 -1 -9 4 0
15 -28 13 -66 -3z m27 -26 c6 0 7 6 3 13 -4 6 2 3 13 -8 20 -19 21 -41 2 -30
-5 4 -9 2 -9 -4 0 -5 6 -12 13 -14 7 -3 4 -6 -6 -6 -10 -1 -15 -5 -12 -11 3
-5 4 -10 1 -10 -3 0 -10 10 -17 21 -8 15 -8 19 0 15 6 -4 11 -2 11 3 0 6 -9
11 -20 11 -23 0 -26 10 -8 28 8 8 14 9 16 2 2 -5 8 -10 13 -10z m94 -199 c3
-5 1 -12 -5 -16 -5 -3 -10 1 -10 9 0 18 6 21 15 7z"/>
<path d="M6510 645 c-7 -9 -8 -15 -2 -15 5 0 12 7 16 15 3 8 4 15 2 15 -2 0
-9 -7 -16 -15z"/>
<path d="M6058 643 c7 -3 16 -2 19 1 4 3 -2 6 -13 5 -11 0 -14 -3 -6 -6z"/>
<path d="M6096 635 c-9 -26 -7 -32 5 -12 6 10 9 21 6 23 -2 3 -7 -2 -11 -11z"/>
<path d="M6343 625 c0 -8 4 -12 9 -9 5 3 6 10 3 15 -9 13 -12 11 -12 -6z"/>
<path d="M6100 580 c0 -5 5 -10 10 -10 6 0 10 5 10 10 0 6 -4 10 -10 10 -5 0
-10 -4 -10 -10z"/>
<path d="M6499 543 c-13 -16 -12 -17 4 -4 9 7 17 15 17 17 0 8 -8 3 -21 -13z"/>
<path d="M6127 531 c6 -7 9 -20 6 -27 -3 -8 -3 -14 0 -14 14 0 14 30 -1 41
-14 11 -15 11 -5 0z"/>
<path d="M6526 515 c4 -8 12 -15 20 -15 20 0 17 7 -6 20 -16 9 -18 8 -14 -5z"/>
<path d="M6206 507 c3 -10 9 -15 12 -12 3 3 0 11 -7 18 -10 9 -11 8 -5 -6z"/>
<path d="M6560 474 c0 -8 6 -11 15 -8 8 4 15 9 15 13 0 4 -7 8 -15 8 -8 0 -15
-6 -15 -13z"/>
<path d="M6360 460 c0 -5 5 -10 11 -10 5 0 7 5 4 10 -3 6 -8 10 -11 10 -2 0
-4 -4 -4 -10z"/>
<path d="M181 433 c-1 -18 4 -33 9 -33 12 0 12 17 0 45 -7 17 -9 15 -9 -12z"/>
<path d="M4577 443 c-8 -10 -19 -30 -22 -46 -4 -15 -11 -30 -16 -33 -16 -10
-9 -73 12 -114 31 -60 66 -80 137 -80 55 0 62 3 86 31 19 23 24 37 20 57 -11
53 -28 88 -61 130 -55 68 -122 92 -156 55z m113 -45 c37 -46 -24 -98 -75 -64
-28 18 -34 63 -12 85 17 17 65 6 87 -21z m-15 -105 c21 3 45 13 51 22 11 15
13 15 23 -4 33 -61 -3 -111 -79 -111 -47 0 -52 2 -80 42 -16 22 -30 54 -30 69
l0 28 38 -25 c29 -21 45 -25 77 -21z"/>
<path d="M6750 440 c0 -5 5 -10 10 -10 6 0 10 5 10 10 0 6 -4 10 -10 10 -5 0
-10 -4 -10 -10z"/>
<path d="M6780 440 c0 -14 15 -19 29 -11 9 6 7 10 -8 14 -12 3 -21 1 -21 -3z"/>
<path d="M6460 420 c0 -5 6 -10 14 -10 8 0 18 5 21 10 3 6 -3 10 -14 10 -12 0
-21 -4 -21 -10z"/>
<path d="M6685 420 c4 -6 11 -8 16 -5 14 9 11 15 -7 15 -8 0 -12 -5 -9 -10z"/>
<path d="M6153 413 c-19 -7 -16 -27 7 -41 12 -7 18 -17 15 -22 -3 -6 -1 -10 4
-10 6 0 11 7 11 15 0 8 -5 15 -11 15 -6 0 -9 6 -6 13 2 6 10 11 17 9 11 -3 11
0 0 12 -13 17 -17 18 -37 9z m27 -7 c0 -2 -7 -7 -16 -10 -8 -3 -12 -2 -9 4 6
10 25 14 25 6z"/>
<path d="M6365 410 c6 -10 3 -12 -13 -8 -12 4 -20 2 -16 -3 7 -12 31 -12 39 0
3 5 0 13 -6 17 -8 5 -9 3 -4 -6z"/>
<path d="M6390 409 c0 -5 5 -7 10 -4 6 3 10 8 10 11 0 2 -4 4 -10 4 -5 0 -10
-5 -10 -11z"/>
<path d="M6420 405 c0 -8 5 -15 10 -15 6 0 10 7 10 15 0 8 -4 15 -10 15 -5 0
-10 -7 -10 -15z"/>
<path d="M6307 389 c7 -7 15 -10 18 -7 3 3 -2 9 -12 12 -14 6 -15 5 -6 -5z"/>
<path d="M181 383 c0 -4 4 -17 9 -28 8 -19 9 -19 9 2 1 12 -3 25 -9 28 -5 3
-10 3 -9 -2z"/>
<path d="M6637 377 c-3 -8 1 -14 8 -14 7 0 11 6 8 14 -3 7 -6 13 -8 13 -2 0
-5 -6 -8 -13z"/>
<path d="M6371 353 c-1 -16 5 -23 17 -23 10 0 13 3 6 8 -6 4 -14 14 -17 22 -4
10 -6 8 -6 -7z"/>
<path d="M6139 343 c-13 -16 -12 -17 4 -4 16 13 21 21 13 21 -2 0 -10 -8 -17
-17z"/>
<path d="M6673 327 c12 -13 25 -22 30 -20 4 2 12 1 18 -3 19 -11 88 -13 95 -2
3 5 1 15 -5 21 -8 8 -11 6 -11 -6 0 -21 -14 -22 -35 -1 -8 9 -22 13 -30 10 -8
-3 -27 1 -42 9 -40 21 -46 18 -20 -8z"/>
<path d="M6624 303 c1 -32 4 -39 14 -31 6 6 12 18 12 26 0 13 2 13 13 -2 12
-16 13 -16 14 3 2 23 -21 29 -33 9 -6 -9 -10 -5 -15 12 -5 19 -7 14 -5 -17z"/>
<path d="M6575 321 c-19 -8 -19 -8 1 -19 23 -12 34 -7 34 15 0 14 -6 15 -35 4z"/>
<path d="M6390 310 c-14 -4 -20 -8 -13 -9 6 -1 19 -4 29 -8 11 -4 15 -3 11 4
-4 6 -1 14 5 16 20 8 -4 6 -32 -3z"/>
<path d="M201 239 c1 -24 5 -57 9 -74 5 -18 6 -2 3 40 -6 79 -14 101 -12 34z"/>
<path d="M1107 228 c6 -42 8 -44 39 -29 30 13 27 37 -5 34 -11 -2 -20 2 -18 8
1 6 -3 13 -10 16 -8 3 -10 -6 -6 -29z"/>
<path d="M6160 252 c0 -5 7 -9 15 -9 8 0 12 4 9 9 -3 4 -9 8 -15 8 -5 0 -9 -4
-9 -8z"/>
<path d="M6230 209 c0 -11 4 -18 10 -14 5 3 7 12 3 20 -7 21 -13 19 -13 -6z"/>
<path d="M6205 180 c-3 -5 -20 -10 -37 -10 -41 0 -33 -6 20 -14 33 -5 42 -3
42 8 0 19 -17 29 -25 16z"/>
<path d="M6130 125 c-7 -14 -10 -28 -7 -32 4 -3 7 1 7 10 0 10 4 17 9 17 5 0
11 7 15 15 9 25 -10 17 -24 -10z"/>
<path d="M1175 130 c-8 -13 5 -13 25 0 13 8 13 10 -2 10 -9 0 -20 -4 -23 -10z"/>
<path d="M6160 76 c0 -2 7 -7 16 -10 8 -3 12 -2 9 4 -6 10 -25 14 -25 6z"/>
<path d="M1455 10 c-3 -6 1 -7 9 -4 18 7 21 14 7 14 -6 0 -13 -4 -16 -10z"/>
</g>
</svg>
