<svg width="250" height="250" viewBox="0 0 250 250" fill="none" xmlns="http://www.w3.org/2000/svg">
<path d="M186.35 63.5991L227.258 104.507C228.116 105.365 229.209 105.95 230.398 106.19C231.588 106.429 232.821 106.311 233.944 105.851C235.067 105.392 236.029 104.61 236.709 103.606C237.39 102.601 237.758 101.418 237.768 100.205L238.389 23.9971C238.403 22.3601 238.09 20.7368 237.47 19.2218C236.849 17.7068 235.934 16.3304 234.776 15.1729C233.619 14.0153 232.242 13.0997 230.727 12.4795C229.212 11.8592 227.589 11.5466 225.952 11.56L149.745 12.1816C148.532 12.1914 147.348 12.5596 146.344 13.2398C145.339 13.92 144.558 14.882 144.098 16.0049C143.638 17.1277 143.52 18.3615 143.759 19.551C143.999 20.7406 144.584 21.8329 145.442 22.6909L186.35 63.5991ZM219.222 67.1367L182.813 30.727L219.521 30.4277L219.222 67.1367Z" fill="#F4C7B5"/>
<path d="M231.417 197.481H18.5835C14.6765 197.481 11.5093 200.648 11.5093 204.555V231.366C11.5093 235.273 14.6765 238.44 18.5835 238.44H231.417C235.324 238.44 238.492 235.273 238.492 231.366V204.555C238.492 200.648 235.324 197.481 231.417 197.481Z" fill="#6B2D8C"/>
<path d="M225.249 106.517C230.759 112.185 240.672 108.106 240.61 100.228L241.231 24.02C241.471 15.8203 234.258 8.54491 226.057 8.71776C225.969 8.6079 149.828 9.41747 149.721 9.33934C147.948 9.35396 146.218 9.89227 144.75 10.8866C143.281 11.881 142.14 13.2871 141.468 14.9284C140.796 16.5696 140.624 18.3728 140.973 20.1115C141.323 21.8501 142.179 23.4467 143.433 24.7007L225.249 106.517ZM146.729 17.082C146.969 16.4726 147.388 15.9501 147.931 15.5828C148.473 15.2155 149.114 15.0205 149.769 15.0234L225.977 14.4043C227.236 14.3943 228.485 14.635 229.651 15.1124C230.816 15.5898 231.875 16.2944 232.766 17.185C233.657 18.0757 234.361 19.1347 234.839 20.3004C235.316 21.466 235.557 22.715 235.547 23.9746L234.926 100.182C234.926 100.838 234.731 101.479 234.365 102.023C234 102.568 233.481 102.991 232.874 103.239C232.267 103.488 231.6 103.55 230.958 103.418C230.316 103.286 229.727 102.966 229.267 102.499L220.743 93.9751L223.614 91.1045C223.881 90.8413 224.093 90.5279 224.239 90.1822C224.384 89.8366 224.459 89.4657 224.461 89.0907C224.462 88.7158 224.389 88.3442 224.246 87.9976C224.104 87.6509 223.894 87.336 223.628 87.0708C223.363 86.8057 223.048 86.5957 222.702 86.4529C222.355 86.3101 221.983 86.2372 221.608 86.2386C221.233 86.24 220.863 86.3156 220.517 86.4611C220.171 86.6065 219.858 86.8188 219.595 87.0859L216.725 89.9565L208.701 81.9336L211.571 79.063C212.098 78.5287 212.392 77.808 212.389 77.058C212.386 76.3079 212.087 75.5893 211.557 75.0589C211.026 74.5285 210.308 74.2293 209.558 74.2265C208.808 74.2237 208.087 74.5175 207.553 75.0439L204.682 77.9145L196.391 69.6225L199.261 66.7524C199.794 66.2195 200.093 65.4967 200.093 64.743C200.093 63.9893 199.794 63.2664 199.261 62.7334C198.728 62.2004 198.006 61.9009 197.252 61.9008C196.498 61.9007 195.775 62.2 195.242 62.7329L192.372 65.6035L184.082 57.31L186.953 54.4394C187.486 53.9065 187.785 53.1838 187.785 52.4302C187.785 51.6765 187.486 50.9538 186.953 50.4209C186.689 50.157 186.376 49.9477 186.031 49.8049C185.686 49.6621 185.317 49.5886 184.943 49.5886C184.19 49.5886 183.467 49.888 182.934 50.4209L180.064 53.2915L172.037 45.2676L174.907 42.397C175.174 42.1338 175.387 41.8204 175.532 41.4748C175.678 41.1292 175.753 40.7582 175.755 40.3833C175.756 40.0083 175.683 39.6368 175.54 39.2901C175.398 38.9435 175.187 38.6285 174.922 38.3633C174.657 38.0982 174.342 37.8881 173.996 37.7452C173.649 37.6024 173.277 37.5295 172.902 37.5309C172.528 37.5322 172.157 37.6078 171.811 37.7531C171.465 37.8985 171.152 38.1109 170.889 38.3779L168.018 41.2485L159.994 33.2246L162.865 30.354C163.132 30.0908 163.344 29.7774 163.49 29.4318C163.635 29.0862 163.711 28.7153 163.712 28.3403C163.713 27.9654 163.641 27.5938 163.498 27.2472C163.355 26.9005 163.145 26.5855 162.88 26.3203C162.615 26.0552 162.3 25.8451 161.953 25.7023C161.606 25.5594 161.235 25.4865 160.86 25.4879C160.485 25.4893 160.114 25.5648 159.768 25.7102C159.423 25.8556 159.109 26.0679 158.846 26.3349L155.975 29.2056L147.451 20.6816C146.982 20.2242 146.662 19.6358 146.534 18.9935C146.405 18.3512 146.473 17.685 146.729 17.082V17.082Z" fill="#333333"/>
<path d="M217.213 69.1465C218.89 70.9292 222.125 69.6074 222.064 67.1601L222.363 30.4507C222.367 30.0737 222.295 29.6999 222.153 29.3509C222.01 29.0019 221.799 28.6848 221.533 28.418C221.268 28.1495 220.951 27.9374 220.602 27.7944C220.253 27.6513 219.878 27.5802 219.501 27.5854L182.793 27.8852C180.351 27.8276 179.014 31.062 180.806 32.7368L217.213 69.1465ZM216.656 33.293L216.436 60.331L189.619 33.5132L216.656 33.293Z" fill="#333333"/>
<path d="M14.3516 174.761H22.9326C26.6802 174.666 26.6807 169.172 22.9326 169.077H17.1934V155.158H22.9326C23.6799 155.148 24.3933 154.845 24.9183 154.313C25.4433 153.781 25.7376 153.064 25.7376 152.316C25.7376 151.569 25.4433 150.851 24.9183 150.32C24.3933 149.788 23.6799 149.484 22.9326 149.474H17.1934V135.558H22.9326C23.6863 135.558 24.4091 135.259 24.9421 134.726C25.475 134.193 25.7744 133.47 25.7744 132.716C25.7744 131.963 25.475 131.24 24.9421 130.707C24.4091 130.174 23.6863 129.875 22.9326 129.875H17.1934V115.953H22.9326C23.6799 115.943 24.3933 115.64 24.9183 115.108C25.4433 114.576 25.7376 113.858 25.7376 113.111C25.7376 112.364 25.4433 111.646 24.9183 111.115C24.3933 110.583 23.6799 110.279 22.9326 110.269H17.1934V96.3501H22.9326C23.3058 96.3501 23.6753 96.2766 24.0201 96.1338C24.3649 95.991 24.6782 95.7816 24.9421 95.5178C25.206 95.2539 25.4153 94.9406 25.5581 94.5958C25.7009 94.251 25.7744 93.8815 25.7744 93.5083C25.7744 93.1351 25.7009 92.7656 25.5581 92.4208C25.4153 92.076 25.206 91.7627 24.9421 91.4988C24.6782 91.235 24.3649 91.0256 24.0201 90.8828C23.6753 90.74 23.3058 90.6665 22.9326 90.6665H17.1934V76.7476H22.9326C23.6863 76.7476 24.4091 76.4482 24.9421 75.9152C25.475 75.3823 25.7744 74.6594 25.7744 73.9058C25.7744 73.1521 25.475 72.4292 24.9421 71.8963C24.4091 71.3634 23.6863 71.064 22.9326 71.064H17.1934V57.145H22.9326C23.6863 57.145 24.4091 56.8456 24.9421 56.3127C25.475 55.7797 25.7744 55.0569 25.7744 54.3032C25.7744 53.5495 25.475 52.8267 24.9421 52.2938C24.4091 51.7608 23.6863 51.4614 22.9326 51.4614H17.1934V37.5425H22.9326C23.6799 37.5327 24.3933 37.2289 24.9183 36.697C25.4433 36.1651 25.7376 35.4478 25.7376 34.7004C25.7376 33.9531 25.4433 33.2358 24.9183 32.7039C24.3933 32.1719 23.6799 31.8682 22.9326 31.8584H14.3516C13.5978 31.8585 12.875 32.158 12.3421 32.6911C11.8092 33.2241 11.5098 33.9469 11.5098 34.7007V171.919C11.5098 172.292 11.5833 172.662 11.7261 173.006C11.8689 173.351 12.0782 173.665 12.3421 173.928C12.606 174.192 12.9193 174.402 13.2641 174.544C13.6088 174.687 13.9784 174.761 14.3516 174.761V174.761Z" fill="#333333"/>
<path d="M47.1494 109.253H100.052C100.452 109.253 100.848 109.168 101.213 109.005C101.578 108.842 101.905 108.603 102.171 108.305L144.896 60.5166L187.509 103.492C188.04 104.027 188.762 104.33 189.516 104.333C190.27 104.336 190.994 104.039 191.53 103.508C192.065 102.977 192.368 102.255 192.371 101.501C192.374 100.747 192.077 100.023 191.546 99.4878L146.808 54.3706C146.534 54.0975 146.207 53.8828 145.847 53.7397C145.488 53.5966 145.103 53.5279 144.716 53.5379C144.33 53.5479 143.949 53.6364 143.597 53.7979C143.246 53.9594 142.93 54.1906 142.671 54.4775L98.7793 103.569H53.5009L93.1572 59.2144H123.772C124.149 59.2193 124.522 59.1494 124.872 59.0088C125.221 58.8682 125.538 58.6596 125.806 58.3952C126.074 58.1308 126.287 57.8159 126.432 57.4686C126.577 57.1213 126.652 56.7487 126.652 56.3723C126.652 55.9959 126.577 55.6233 126.432 55.276C126.287 54.9288 126.074 54.6138 125.806 54.3494C125.538 54.085 125.221 53.8764 124.872 53.7358C124.522 53.5952 124.149 53.5253 123.772 53.5303H91.8877C91.4878 53.5302 91.0924 53.6146 90.7274 53.778C90.3624 53.9413 90.0359 54.1798 89.7695 54.478L45.0302 104.517C43.3955 106.231 44.7602 109.338 47.1494 109.253Z" fill="#333333"/>
<path d="M112.632 115.851C111.879 115.851 111.156 116.15 110.623 116.683C110.09 117.216 109.79 117.939 109.79 118.692V171.831C109.79 172.585 110.09 173.308 110.623 173.841C111.156 174.373 111.879 174.673 112.632 174.673H133.938C145.562 174.644 169.28 174.694 180.813 174.673C181.567 174.673 182.29 174.373 182.823 173.84C183.356 173.308 183.655 172.585 183.655 171.831V118.692C183.655 117.939 183.356 117.216 182.823 116.683C182.29 116.15 181.567 115.851 180.813 115.851C180.06 115.851 179.337 116.15 178.804 116.683C178.271 117.216 177.972 117.939 177.972 118.692V168.989H162.349V145.068C162.349 140.924 160.702 136.95 157.772 134.02C154.842 131.09 150.868 129.443 146.724 129.443C142.58 129.443 138.605 131.09 135.675 134.02C132.745 136.95 131.099 140.924 131.099 145.068V168.989H115.474V118.692C115.474 117.939 115.175 117.216 114.642 116.683C114.109 116.15 113.386 115.851 112.632 115.851V115.851ZM136.78 145.068C137.248 131.91 156.199 131.914 156.665 145.068V168.989H136.78V145.068Z" fill="#333333"/>
<path d="M61.5845 115.851C60.8308 115.851 60.108 116.15 59.575 116.683C59.0421 117.216 58.7427 117.939 58.7427 118.692V171.831C58.7427 172.585 59.0421 173.308 59.575 173.841C60.108 174.373 60.8308 174.673 61.5845 174.673H100.562C100.935 174.673 101.304 174.599 101.649 174.457C101.994 174.314 102.307 174.104 102.571 173.841C102.835 173.577 103.044 173.263 103.187 172.919C103.33 172.574 103.403 172.204 103.403 171.831C103.403 171.458 103.33 171.088 103.187 170.744C103.044 170.399 102.835 170.085 102.571 169.822C102.307 169.558 101.994 169.348 101.649 169.206C101.304 169.063 100.935 168.989 100.562 168.989H64.4287V118.692C64.4287 118.319 64.3551 117.949 64.2122 117.604C64.0692 117.259 63.8596 116.946 63.5955 116.682C63.3314 116.418 63.0178 116.209 62.6727 116.066C62.3277 115.924 61.9579 115.85 61.5845 115.851V115.851Z" fill="#333333"/>
<path d="M231.417 194.639H18.583C15.954 194.642 13.4336 195.688 11.5746 197.547C9.71564 199.406 8.66996 201.926 8.66699 204.555V231.366C8.66996 233.995 9.71564 236.516 11.5746 238.375C13.4336 240.234 15.954 241.279 18.583 241.282H231.417C234.046 241.279 236.566 240.234 238.425 238.375C240.284 236.516 241.33 233.995 241.333 231.366V204.555C241.33 201.926 240.284 199.406 238.425 197.547C236.566 195.688 234.046 194.642 231.417 194.639V194.639ZM235.649 231.366C235.648 232.488 235.202 233.564 234.408 234.358C233.615 235.151 232.539 235.597 231.417 235.599H18.583C17.4609 235.597 16.3851 235.151 15.5917 234.358C14.7982 233.564 14.3519 232.488 14.3506 231.366V204.555C14.3519 203.433 14.7982 202.357 15.5917 201.564C16.3851 200.77 17.4609 200.324 18.583 200.323H33.9468V206.062C33.9468 206.816 34.2462 207.539 34.7791 208.071C35.3121 208.604 36.0349 208.904 36.7886 208.904C37.5423 208.904 38.2651 208.604 38.798 208.071C39.331 207.539 39.6304 206.816 39.6304 206.062V200.323H53.5493V206.062C53.5493 206.816 53.8487 207.539 54.3817 208.071C54.9146 208.604 55.6374 208.904 56.3911 208.904C57.1448 208.904 57.8676 208.604 58.4006 208.071C58.9335 207.539 59.2329 206.816 59.2329 206.062V200.323H73.1519V212.457C73.1617 213.204 73.4654 213.917 73.9973 214.442C74.5292 214.967 75.2465 215.262 75.9939 215.262C76.7413 215.262 77.4586 214.967 77.9905 214.442C78.5224 213.917 78.8261 213.204 78.8359 212.457V200.323H92.752V206.062C92.747 206.438 92.8169 206.812 92.9575 207.161C93.0981 207.51 93.3067 207.828 93.5711 208.096C93.8355 208.364 94.1504 208.576 94.4977 208.722C94.845 208.867 95.2176 208.942 95.594 208.942C95.9704 208.942 96.343 208.867 96.6903 208.722C97.0376 208.576 97.3525 208.364 97.6169 208.096C97.8813 207.828 98.0899 207.51 98.2305 207.161C98.3711 206.812 98.441 206.438 98.436 206.062V200.323H112.355V206.062C112.355 206.816 112.654 207.539 113.187 208.071C113.72 208.604 114.443 208.904 115.197 208.904C115.95 208.904 116.673 208.604 117.206 208.071C117.739 207.539 118.039 206.816 118.039 206.062V200.323H131.958V212.457C131.958 213.21 132.257 213.933 132.79 214.466C133.323 214.999 134.046 215.298 134.799 215.298C135.553 215.298 136.276 214.999 136.809 214.466C137.342 213.933 137.641 213.21 137.641 212.457V200.323H151.562V206.062C151.558 206.438 151.627 206.812 151.768 207.161C151.909 207.51 152.117 207.828 152.382 208.096C152.646 208.364 152.961 208.576 153.308 208.722C153.656 208.867 154.028 208.942 154.405 208.942C154.781 208.942 155.154 208.867 155.501 208.722C155.848 208.576 156.163 208.364 156.427 208.096C156.692 207.828 156.9 207.51 157.041 207.161C157.182 206.812 157.252 206.438 157.247 206.062V200.323H171.166V206.062C171.166 206.816 171.465 207.539 171.998 208.071C172.531 208.604 173.254 208.904 174.007 208.904C174.761 208.904 175.484 208.604 176.017 208.071C176.55 207.539 176.849 206.816 176.849 206.062V200.323H190.768V212.457C190.778 213.204 191.082 213.917 191.614 214.442C192.145 214.967 192.863 215.262 193.61 215.262C194.357 215.262 195.075 214.967 195.607 214.442C196.139 213.917 196.442 213.204 196.452 212.457V200.323H210.368V206.062C210.363 206.438 210.433 206.812 210.574 207.161C210.714 207.51 210.923 207.828 211.187 208.096C211.452 208.364 211.767 208.576 212.114 208.722C212.461 208.867 212.834 208.942 213.21 208.942C213.587 208.942 213.959 208.867 214.307 208.722C214.654 208.576 214.969 208.364 215.233 208.096C215.498 207.828 215.706 207.51 215.847 207.161C215.987 206.812 216.057 206.438 216.052 206.062V200.323H231.415C232.537 200.324 233.613 200.77 234.406 201.564C235.2 202.357 235.646 203.433 235.647 204.555L235.649 231.366Z" fill="#333333"/>
</svg>
