<svg width="292" height="219" viewBox="0 0 292 219" fill="none" xmlns="http://www.w3.org/2000/svg">
<path d="M287.438 209.875H268.777V204.446C272.396 203.605 275.62 201.556 277.918 198.636C280.215 195.717 281.449 192.101 281.415 188.386C281.415 187.929 277.719 142.761 265.446 142.761C253.173 142.761 249.478 188.112 249.478 188.386C249.443 192.101 250.677 195.717 252.975 198.636C255.272 201.556 258.497 203.605 262.116 204.446V209.875H230.178V131.993L244.55 149.011C248.337 153.574 255.044 147.323 251.211 142.989L131.765 1.55125C131.343 1.0703 130.824 0.683628 130.242 0.416369C129.66 0.149111 129.029 0.0072476 128.389 0C127.155 0.0434005 125.983 0.548136 125.104 1.41437L80.3 50.1875H22.1281C20.9181 50.1875 19.7576 50.6682 18.902 51.5238C18.0463 52.3795 17.5656 53.5399 17.5656 54.75V209.875H4.5625C3.35245 209.875 2.19196 210.356 1.33633 211.211C0.480691 212.067 0 213.227 0 214.438C0 215.648 0.480691 216.808 1.33633 217.664C2.19196 218.519 3.35245 219 4.5625 219H287.438C288.648 219 289.808 218.519 290.664 217.664C291.519 216.808 292 215.648 292 214.438C292 213.227 291.519 212.067 290.664 211.211C289.808 210.356 288.648 209.875 287.438 209.875ZM256.002 188.386C256.002 179.945 261.249 153.482 265.127 149.65C269.188 153.482 274.252 179.945 274.252 188.386C274.298 190.339 273.746 192.26 272.67 193.891C271.593 195.522 270.044 196.785 268.229 197.511C268.229 194.728 269.37 188.386 264.899 188.386C260.428 188.386 261.751 194.728 261.568 197.511C259.868 196.69 258.447 195.387 257.482 193.764C256.516 192.142 256.049 190.271 256.139 188.386H256.002ZM221.19 127.75V209.875H159.277V127.75H221.19ZM128.161 11.3606L219 118.625H115.021V54.75C115.021 53.5399 114.54 52.3795 113.684 51.5238C112.829 50.6682 111.668 50.1875 110.458 50.1875H92.2081L128.161 11.3606ZM26.5538 59.3125H106.169V209.875H97.3181V82.125C97.3181 80.9149 96.8374 79.7545 95.9818 78.8988C95.1262 78.0432 93.9657 77.5625 92.7556 77.5625H53.1075C51.8975 77.5625 50.737 78.0432 49.8813 78.8988C49.0257 79.7545 48.545 80.9149 48.545 82.125V209.875H26.5538V59.3125ZM88.4669 168.812H57.5331V86.6875H88.4669V168.812ZM57.5331 209.875V177.938H88.4669V209.875H57.5331ZM115.021 209.875V127.75H150.562V209.875H115.021Z" fill="black"/>
</svg>
