<?xml version="1.0" standalone="no"?>
<!DOCTYPE svg PUBLIC "-//W3C//DTD SVG 20010904//EN"
 "http://www.w3.org/TR/2001/REC-SVG-20010904/DTD/svg10.dtd">
<svg version="1.0" xmlns="http://www.w3.org/2000/svg"
 width="477.000000pt" height="500.000000pt" viewBox="0 0 477.000000 500.000000"
 preserveAspectRatio="xMidYMid meet">

<g transform="translate(0.000000,500.000000) scale(0.100000,-0.100000)"
fill="#000000" stroke="none">
<path d="M4657 4884 c-1 -2 -21 -4 -42 -6 -22 -1 -76 -15 -120 -31 -105 -38
-285 -66 -412 -66 -56 1 -106 -2 -111 -5 -6 -3 -92 -15 -193 -26 -101 -11
-202 -25 -224 -31 -22 -6 -57 -10 -77 -9 -45 1 -88 -18 -68 -30 16 -10 96 -4
208 16 45 8 108 17 140 19 31 2 89 10 127 17 39 6 119 13 178 14 186 3 340 23
382 48 36 22 118 44 190 51 109 9 135 15 135 29 0 9 -16 13 -55 13 -30 0 -56
-1 -58 -3z"/>
<path d="M1965 4770 c-107 -97 -162 -161 -240 -280 -17 -25 -33 -47 -36 -50
-3 -3 -27 -45 -54 -95 -26 -49 -59 -106 -72 -125 -12 -19 -23 -38 -23 -42 0
-4 -20 -36 -45 -71 -25 -36 -45 -68 -45 -72 0 -4 -8 -19 -19 -33 -10 -15 -33
-54 -51 -87 -47 -85 -46 -84 -75 -145 -14 -30 -30 -62 -34 -70 -5 -8 -15 -28
-22 -45 -8 -16 -16 -32 -19 -35 -14 -13 -94 -154 -104 -184 -6 -19 -17 -40
-23 -47 -6 -8 -19 -33 -28 -56 -10 -24 -20 -43 -24 -43 -4 0 -17 -20 -29 -44
-12 -24 -39 -63 -60 -87 -48 -57 -100 -137 -156 -240 -14 -26 -39 -67 -56 -92
-16 -25 -30 -47 -30 -50 0 -3 -16 -23 -35 -44 -19 -21 -35 -41 -35 -45 0 -9
22 -10 44 -2 20 8 131 163 139 194 3 14 15 35 25 46 11 11 28 38 38 59 14 30
104 160 152 220 4 6 23 36 41 68 34 60 54 66 50 13 -4 -56 1 -77 19 -83 9 -4
23 -13 30 -20 7 -7 32 -13 55 -13 50 0 101 37 132 94 11 20 23 36 27 36 5 0 8
5 8 12 0 6 6 19 14 27 7 9 28 43 46 76 18 33 36 62 40 65 4 3 13 16 20 30 7
14 26 42 42 62 16 21 27 41 24 46 -6 10 28 78 120 239 35 61 64 115 64 120 0
4 15 30 34 56 19 26 37 59 41 74 3 14 17 40 31 58 13 17 24 35 24 39 0 3 11
24 25 45 13 22 33 66 44 99 11 33 36 89 54 126 35 67 39 109 11 120 -21 8 -64
-11 -64 -29 0 -12 -6 -15 -20 -10 -11 3 -20 3 -20 -2 0 -4 -18 -26 -40 -48
-21 -22 -39 -45 -40 -50 0 -6 -28 -44 -62 -86 -35 -41 -79 -101 -98 -133 -33
-54 -97 -146 -120 -173 -5 -7 -15 -24 -22 -38 -6 -14 -14 -25 -18 -25 -3 0
-16 -17 -27 -38 -12 -20 -33 -48 -47 -61 -14 -14 -26 -29 -26 -34 0 -6 -6 -18
-14 -26 -7 -9 -28 -43 -45 -76 -18 -33 -43 -73 -55 -90 -12 -16 -25 -38 -29
-48 -4 -9 -24 -43 -45 -75 -21 -31 -51 -84 -67 -117 -15 -33 -30 -54 -32 -47
-3 7 21 56 51 110 31 53 95 174 142 267 86 173 102 201 159 290 43 68 121 200
184 312 64 116 150 229 252 333 83 83 113 97 140 63 11 -12 14 -51 13 -152 0
-118 -4 -150 -28 -234 -15 -54 -29 -104 -30 -111 -1 -8 -6 -20 -12 -27 -14
-18 -64 -134 -64 -147 0 -5 -7 -15 -15 -22 -8 -7 -15 -19 -15 -27 0 -8 -9 -28
-20 -43 -11 -16 -23 -42 -26 -59 -4 -17 -10 -31 -15 -31 -4 0 -15 -13 -23 -30
-24 -45 -45 -82 -66 -115 -11 -16 -24 -41 -30 -55 -11 -26 -53 -108 -86 -170
-11 -19 -22 -36 -26 -38 -5 -2 -8 -7 -8 -11 0 -5 -21 -42 -47 -82 -68 -106
-70 -110 -93 -154 -11 -22 -25 -47 -30 -55 -5 -8 -23 -46 -39 -85 -29 -69 -28
-95 3 -95 16 0 137 128 192 203 40 54 89 147 144 272 12 28 29 64 38 80 9 17
29 53 44 80 15 28 33 61 38 75 29 65 131 262 168 322 116 189 263 368 332 402
71 36 122 -41 128 -194 4 -83 0 -111 -27 -213 -18 -64 -34 -130 -36 -145 -5
-37 -20 -102 -44 -191 -11 -40 -22 -93 -26 -117 -3 -25 -10 -55 -15 -68 -5
-13 -6 -26 -4 -29 3 -3 1 -13 -5 -24 -20 -36 -61 -150 -61 -171 0 -11 -4 -23
-9 -26 -9 -6 -30 -75 -35 -116 -6 -43 -28 -125 -37 -134 -5 -6 -9 -20 -9 -32
0 -12 -6 -27 -13 -33 -8 -6 -22 -44 -32 -85 -17 -68 -22 -77 -62 -105 -42 -30
-54 -53 -32 -67 6 -3 16 -1 22 5 15 15 32 14 20 -1 -5 -7 -18 -35 -28 -63 -10
-27 -24 -59 -30 -70 -7 -11 -20 -56 -29 -100 -9 -44 -25 -107 -36 -140 -11
-33 -22 -80 -26 -105 -3 -25 -14 -64 -25 -87 -10 -24 -19 -46 -19 -50 0 -4 -8
-16 -19 -27 -10 -12 -31 -46 -47 -76 -16 -30 -31 -57 -34 -60 -3 -3 -25 -31
-50 -64 -72 -94 -66 -89 -90 -76 -11 6 -23 24 -27 40 -3 16 -10 27 -15 24 -10
-6 -6 -55 7 -100 7 -22 6 -22 -160 -176 -38 -35 -86 -71 -105 -78 -19 -8 -53
-27 -75 -42 -32 -22 -56 -28 -117 -33 -176 -14 -312 44 -471 200 -205 200
-238 393 -130 755 14 47 31 94 37 105 25 42 68 156 62 162 -9 9 -44 -26 -52
-51 -3 -11 -12 -34 -19 -51 -31 -68 -48 -112 -55 -140 -71 -259 -73 -271 -72
-361 2 -103 26 -215 56 -253 5 -7 11 -19 12 -26 7 -48 186 -265 219 -265 7 0
32 -15 56 -34 87 -66 193 -96 337 -96 66 0 97 5 127 20 54 27 139 82 173 111
15 13 60 53 101 87 40 35 84 76 97 90 l23 27 42 -45 c24 -25 59 -56 79 -70 21
-14 56 -39 78 -56 39 -29 40 -32 24 -47 -9 -8 -28 -18 -42 -22 -14 -4 -29 -11
-35 -15 -5 -4 -28 -13 -50 -20 -75 -23 -105 -71 -105 -163 0 -47 3 -56 28 -74
15 -11 37 -23 50 -27 23 -8 92 12 92 26 0 4 7 8 16 8 8 0 42 25 74 56 59 56
70 80 72 162 1 17 3 32 5 32 2 0 42 -18 88 -40 47 -21 117 -46 157 -54 40 -8
100 -25 133 -37 71 -26 222 -42 276 -30 21 5 40 6 43 4 3 -3 -10 -26 -29 -51
-30 -38 -35 -53 -35 -98 0 -30 -3 -54 -7 -55 -5 0 -100 -1 -213 -2 -156 -2
-235 1 -330 15 -140 20 -387 25 -448 8 -56 -15 -119 -15 -136 -1 -14 11 -110
5 -208 -15 -31 -6 -78 -69 -78 -106 0 -40 74 -113 135 -133 27 -9 54 -20 60
-25 25 -21 146 -40 260 -41 66 0 113 -3 105 -6 -8 -3 -36 -21 -62 -40 -60 -43
-90 -93 -81 -134 l6 -32 -99 9 c-116 10 -137 9 -224 -5 -36 -6 -116 -11 -179
-11 -62 0 -141 -4 -175 -9 -33 -6 -96 -13 -139 -16 -55 -5 -80 -11 -84 -22 -3
-8 -2 -18 3 -23 5 -5 80 -3 171 4 89 6 172 8 184 4 21 -8 71 -1 174 23 51 12
115 14 235 5 179 -12 445 -14 515 -5 39 6 153 12 255 14 102 2 237 10 300 16
179 18 458 21 579 6 112 -14 198 -13 371 1 58 4 213 8 345 7 168 -1 253 2 285
11 25 7 95 15 155 19 61 3 136 10 168 14 32 4 69 6 82 4 27 -6 36 6 28 36 -5
22 -9 22 -77 17 -149 -11 -343 -34 -386 -46 -34 -10 -75 -11 -165 -4 -69 6
-148 6 -185 1 -36 -5 -83 -8 -105 -7 -54 2 -38 3 -250 -5 -138 -6 -216 -4
-285 6 -52 7 -126 14 -165 14 -101 2 -97 1 -74 39 17 30 19 40 10 73 -6 21
-11 41 -11 44 0 4 21 10 48 14 26 4 52 11 58 16 6 4 61 11 123 15 61 4 114 11
117 16 3 4 13 8 23 8 25 0 144 96 157 127 15 35 6 69 -28 103 -26 27 -36 30
-93 30 -35 0 -80 -7 -101 -16 -38 -16 -128 -20 -299 -15 -106 3 -111 6 -67 44
44 38 71 69 72 81 0 4 11 21 25 38 31 36 32 61 4 87 l-21 20 66 20 c36 11 76
26 89 32 45 24 117 73 117 80 0 4 9 10 19 14 19 6 157 104 236 167 49 40 138
131 173 178 14 19 40 50 58 68 17 18 40 49 50 70 10 20 21 39 24 42 19 19 80
200 80 238 0 13 4 42 9 65 6 23 12 58 16 78 l5 35 69 -8 c59 -7 78 -5 125 13
31 11 56 25 56 30 0 5 8 9 18 9 19 0 34 11 99 70 32 28 103 121 103 134 0 4 9
19 19 34 11 15 32 65 47 111 23 72 25 93 20 155 -4 39 -17 105 -29 146 -20 67
-29 82 -87 141 -165 165 -309 181 -454 49 -36 -32 -73 -63 -83 -69 -10 -5 -29
-30 -42 -56 -21 -43 -24 -45 -40 -31 -10 9 -20 16 -23 16 -3 0 -35 17 -69 38
-35 21 -91 49 -124 61 -98 39 -168 61 -173 57 -2 -3 -16 0 -31 6 -55 23 -243
28 -281 8 -8 -4 -32 -11 -53 -14 -21 -3 -51 -13 -67 -21 -16 -8 -35 -15 -43
-15 -8 0 -30 -13 -48 -30 -19 -17 -41 -27 -50 -25 -10 4 -30 -9 -52 -34 -26
-28 -41 -38 -56 -34 -13 3 -24 -2 -33 -16 -7 -12 -18 -21 -25 -21 -6 0 -18 -6
-25 -13 -7 -7 -23 -17 -35 -22 -23 -10 -67 -48 -172 -145 -33 -30 -72 -63 -89
-72 -29 -18 -49 -14 -34 6 18 23 53 125 76 221 28 113 42 161 79 256 14 37 28
77 29 90 2 13 10 35 17 48 7 13 11 43 9 67 -2 24 0 44 4 44 5 0 8 13 8 29 0
17 5 33 11 36 6 4 8 13 5 20 -2 8 6 44 20 81 13 37 23 72 22 78 -1 6 4 28 11
48 6 20 11 43 10 50 -1 7 3 26 9 41 7 16 12 35 12 43 0 8 7 29 16 45 23 46 14
225 -16 302 -19 50 -28 61 -65 79 -26 13 -52 18 -67 15 -75 -19 -242 -213
-380 -442 -68 -113 -348 -668 -348 -690 0 -4 -27 -46 -60 -94 -56 -82 -107
-138 -116 -128 -10 10 72 168 146 282 61 94 170 302 162 310 -3 3 6 18 20 33
34 36 60 81 167 297 126 254 158 363 162 554 3 106 -8 148 -45 176 -18 14 -43
25 -54 25 -12 0 -47 -22 -77 -50z m2198 -1432 c62 -33 132 -97 143 -130 3 -10
9 -18 13 -18 7 0 28 -60 38 -110 10 -54 14 -204 5 -223 -5 -12 -16 -38 -23
-57 -18 -48 -93 -163 -134 -204 -18 -19 -67 -50 -109 -70 -63 -31 -85 -36
-143 -36 -38 0 -73 -4 -79 -10 -6 -6 -7 29 -3 93 7 112 4 186 -12 292 -19 123
-29 149 -80 210 -35 40 -47 61 -40 68 6 6 11 18 11 27 1 20 22 44 99 110 87
75 114 88 190 89 53 1 73 -4 124 -31z m-3013 18 c0 -3 -4 -8 -10 -11 -5 -3
-10 -1 -10 4 0 6 5 11 10 11 6 0 10 -2 10 -4z m2060 -36 c80 -11 195 -43 267
-76 17 -8 34 -14 38 -14 19 0 149 -97 203 -151 70 -71 84 -110 106 -299 2 -19
5 -42 7 -50 6 -27 -12 -252 -31 -380 -21 -139 -37 -194 -85 -290 -59 -115
-239 -313 -360 -396 -33 -22 -112 -76 -175 -120 -131 -91 -138 -95 -240 -128
-52 -17 -78 -22 -87 -15 -15 13 -48 3 -72 -22 -20 -22 -131 -49 -203 -49 -50
0 -156 22 -216 45 -20 7 -68 21 -105 30 -123 29 -267 99 -348 168 -35 30 -74
57 -85 61 -22 7 -60 45 -87 87 -15 23 -14 27 45 99 33 41 71 99 83 128 13 28
28 52 32 52 13 0 69 117 87 180 21 74 63 238 86 330 21 88 35 126 49 135 6 3
11 14 11 23 0 9 7 30 15 46 8 15 15 34 15 42 0 7 33 45 73 85 76 75 262 239
271 239 3 0 15 8 26 17 11 10 46 31 77 48 32 16 75 43 95 58 76 58 328 140
403 130 11 -1 58 -7 105 -13z m-1234 -1861 c3 -6 -8 -26 -26 -44 -28 -29 -31
-37 -20 -50 15 -19 -6 -55 -48 -82 -15 -10 -29 -20 -32 -24 -9 -11 -68 -39
-83 -39 -8 0 -24 8 -35 18 -19 16 -20 21 -10 66 11 46 15 49 72 76 34 16 80
36 103 45 23 10 44 24 47 31 6 17 22 18 32 3z m915 -138 l20 -18 -20 -39 c-11
-22 -33 -52 -48 -67 -40 -41 -119 -97 -137 -97 -26 0 -31 47 -10 87 25 49 117
140 146 146 13 2 24 5 26 6 2 0 12 -7 23 -18z m-756 -275 c62 -10 135 -13 235
-11 132 4 400 6 686 4 75 0 125 5 155 15 24 9 65 16 90 16 39 0 49 -4 63 -25
24 -36 20 -46 -32 -91 -57 -49 -83 -59 -203 -74 -52 -6 -125 -16 -164 -22 -80
-13 -232 -15 -350 -6 -50 4 -105 2 -145 -6 -43 -8 -132 -12 -260 -10 -107 2
-276 4 -375 5 -276 2 -450 36 -523 103 -40 35 -44 51 -21 80 20 26 23 26 142
26 67 0 140 4 162 9 63 13 438 4 540 -13z m-62 -261 c199 -6 317 -4 389 5 71
9 248 14 248 6 0 -9 -52 -96 -61 -101 -12 -8 -11 -49 2 -62 10 -10 -21 -13
-341 -33 -85 -5 -203 -12 -262 -16 -74 -5 -108 -3 -108 4 0 6 3 12 8 14 12 5
42 77 42 103 0 34 -37 65 -76 65 -18 0 -36 5 -40 12 -5 8 5 9 34 5 24 -3 42
-1 42 5 0 5 5 6 10 3 6 -4 57 -8 113 -10z m741 -35 c12 0 30 -6 40 -13 17 -13
17 -16 3 -44 -23 -44 -80 -65 -139 -50 -25 7 -41 37 -20 37 5 0 17 15 27 34
19 34 57 61 63 45 2 -5 14 -9 26 -9z m-886 -59 c2 -11 -4 -33 -12 -50 -19 -36
-75 -56 -151 -52 -77 4 -95 32 -54 85 29 37 50 43 138 40 67 -3 76 -6 79 -23z"/>
<path d="M2375 4301 c-3 -6 -24 -15 -45 -21 -29 -8 -47 -22 -69 -53 -16 -24
-36 -49 -45 -56 -8 -7 -32 -43 -53 -79 -21 -37 -43 -76 -50 -87 -7 -11 -23
-40 -36 -65 -13 -25 -51 -88 -85 -140 -34 -52 -62 -98 -62 -102 0 -5 -11 -26
-25 -48 -14 -22 -35 -66 -47 -98 -25 -69 -76 -164 -134 -252 -23 -36 -50 -92
-60 -125 -17 -59 -19 -125 -5 -135 5 -3 20 -24 35 -47 14 -24 33 -43 41 -43 8
0 15 -6 15 -14 0 -24 92 -76 136 -76 21 0 44 4 50 8 15 9 84 140 84 158 0 8 5
23 10 34 6 11 14 29 19 39 14 26 94 263 96 281 0 8 8 26 16 40 7 14 14 30 15
35 0 6 4 19 9 30 35 92 86 229 100 270 9 28 25 77 36 109 11 33 23 64 28 70 5
6 12 28 15 50 4 21 11 46 16 55 22 42 43 118 43 155 0 76 -28 139 -48 107z"/>
<path d="M3193 3778 c-80 -7 -113 -14 -113 -23 0 -23 29 -25 148 -9 83 10 190
14 369 13 139 -1 256 0 259 3 18 19 -492 30 -663 16z"/>
<path d="M72 3479 c6 -17 132 -37 238 -37 64 0 79 3 70 12 -6 8 -36 13 -78 14
-37 0 -78 3 -92 7 -14 3 -51 9 -84 12 -47 5 -58 3 -54 -8z"/>
<path d="M1056 2872 c-13 -39 59 -129 122 -153 21 -8 30 -5 54 18 32 31 37 53
9 46 -13 -3 -21 2 -26 16 -8 25 -25 18 -25 -10 0 -17 -3 -18 -22 -8 -32 16
-88 71 -88 85 0 21 -18 25 -24 6z"/>
<path d="M1433 2713 c-3 -10 -8 -21 -9 -24 -6 -11 68 -79 106 -98 40 -21 120
-35 135 -23 22 15 54 65 49 74 -3 5 -17 0 -30 -13 -20 -19 -31 -21 -80 -16
-32 3 -60 10 -63 15 -3 5 -11 11 -17 13 -7 2 -28 24 -48 47 -31 38 -37 41 -43
25z"/>
<path d="M818 2649 c-17 -9 -17 -11 -1 -37 10 -15 20 -29 23 -32 10 -10 31
-48 76 -140 26 -52 62 -116 80 -141 19 -26 34 -51 34 -57 0 -5 7 -12 15 -16
20 -7 19 -26 0 -26 -20 0 -96 50 -90 60 6 10 -25 36 -55 45 -14 4 -44 9 -67
11 -40 2 -43 1 -43 -22 0 -21 11 -30 63 -54 34 -17 76 -39 92 -50 17 -11 44
-27 62 -37 38 -19 48 -40 31 -61 -25 -29 -164 -112 -198 -118 -71 -12 -106
-33 -80 -49 6 -3 10 -15 10 -26 0 -10 1 -19 3 -19 1 0 34 10 73 23 42 13 69
27 67 34 -5 13 71 56 80 47 3 -4 21 5 39 19 33 25 33 25 57 6 13 -10 31 -19
41 -19 10 0 21 -8 25 -17 3 -10 32 -39 63 -64 149 -119 140 -113 165 -100 13
7 32 11 43 9 13 -2 20 4 22 18 4 26 -22 48 -58 50 -15 1 -48 14 -74 30 -26 16
-58 35 -72 42 -33 18 -42 59 -18 81 26 24 216 62 270 55 36 -5 42 -4 47 15 11
44 -36 53 -162 32 -64 -12 -75 -11 -89 3 -14 14 -13 16 12 26 15 5 31 10 37
10 18 0 249 124 249 135 0 5 -4 17 -9 25 -8 11 -31 3 -129 -48 -66 -34 -135
-63 -153 -64 -30 -3 -34 0 -37 24 -5 39 -27 52 -88 52 -42 0 -57 -4 -69 -19
-14 -19 -14 -18 -15 18 0 35 -14 51 -22 25 -2 -6 -18 9 -36 33 -17 24 -38 51
-46 59 -8 9 -27 43 -41 75 -15 33 -30 68 -36 77 -26 49 -3 49 49 1 43 -41 102
-144 102 -180 0 -12 5 -25 10 -28 17 -10 -1 74 -27 131 -13 28 -38 67 -57 86
-53 54 -135 87 -168 67z"/>
<path d="M938 1923 c6 -2 18 -2 25 0 6 3 1 5 -13 5 -14 0 -19 -2 -12 -5z"/>
<path d="M1073 1729 c-17 -18 -34 -22 -99 -23 -82 -1 -108 -17 -59 -36 46 -17
124 -12 161 11 19 11 34 24 34 29 0 5 3 15 6 24 9 23 -18 20 -43 -5z"/>
<path d="M4526 1573 c-3 -3 -106 -8 -228 -9 -316 -5 -532 -15 -542 -24 -4 -5
-5 -14 -1 -20 6 -9 29 -11 85 -6 43 3 174 8 291 11 354 8 429 14 429 35 0 10
-26 20 -34 13z"/>
<path d="M12 1188 c-7 -7 -12 -23 -12 -36 0 -24 0 -24 83 -18 124 10 203 9
302 -4 50 -7 106 -12 125 -11 68 2 150 13 155 21 7 11 -54 21 -72 12 -18 -10
-77 -6 -227 15 -73 10 -148 13 -225 9 -64 -3 -108 -3 -98 0 9 3 17 10 17 15 0
13 -34 11 -48 -3z"/>
</g>
</svg>
