<?xml version="1.0" standalone="no"?>
<!DOCTYPE svg PUBLIC "-//W3C//DTD SVG 20010904//EN"
 "http://www.w3.org/TR/2001/REC-SVG-20010904/DTD/svg10.dtd">
<svg version="1.0" xmlns="http://www.w3.org/2000/svg"
 width="808.000000pt" height="825.000000pt" viewBox="0 0 808.000000 825.000000"
 preserveAspectRatio="xMidYMid meet">

<g transform="translate(0.000000,825.000000) scale(0.100000,-0.100000)"
fill="#000000" stroke="none">
<path d="M4487 7118 c-14 -18 -53 -81 -87 -141 -49 -84 -60 -110 -51 -121 7
-8 21 -12 32 -9 24 7 59 -22 59 -48 0 -10 12 -25 26 -32 15 -8 66 -52 113 -99
47 -46 124 -120 171 -164 105 -98 137 -144 99 -144 -9 0 -202 170 -207 182 -4
8 -217 189 -236 199 -6 4 -23 12 -38 18 -20 8 -28 18 -28 36 0 27 -12 32 -28
13 -5 -7 -45 -80 -88 -163 -42 -82 -89 -168 -103 -190 -14 -22 -24 -46 -22
-54 1 -7 89 -98 194 -202 141 -139 197 -187 210 -183 10 3 17 0 17 -7 0 -6 13
6 29 27 33 44 126 147 155 172 65 57 130 113 180 157 31 28 69 56 82 63 22 11
23 15 11 25 -8 7 -66 93 -130 192 -64 99 -131 201 -149 226 -95 133 -122 175
-144 225 -13 30 -28 54 -33 54 -6 0 -21 -15 -34 -32z"/>
<path d="M5660 6972 c0 -5 7 -13 16 -16 10 -4 14 -1 12 6 -5 15 -28 23 -28 10z"/>
<path d="M2736 6925 c-3 -8 -12 -15 -20 -15 -9 0 -25 -19 -37 -42 -17 -33 -22
-64 -25 -156 -3 -93 -1 -113 10 -109 7 3 19 0 25 -6 8 -8 11 -3 11 20 0 29 3
31 47 37 25 3 48 4 50 2 2 -2 1 -16 -3 -30 -5 -20 -11 -25 -25 -21 -13 4 -19
1 -19 -8 0 -12 10 -14 40 -11 22 2 40 -1 40 -6 0 -6 7 -10 15 -10 23 0 18 -16
-10 -28 -33 -15 -32 -30 3 -34 19 -2 28 -9 30 -25 2 -15 10 -23 22 -23 22 0
34 -29 23 -56 -5 -15 -4 -17 8 -8 20 16 65 23 81 12 11 -6 10 -10 -2 -17 -8
-5 -18 -7 -24 -4 -5 4 -7 -1 -3 -12 4 -9 2 -23 -3 -31 -9 -9 -6 -18 11 -35 18
-18 34 -23 70 -22 l48 1 -2 -42 c-1 -46 -12 -58 -44 -49 -17 4 -23 1 -23 -11
0 -10 6 -13 15 -10 9 4 15 0 15 -9 0 -9 6 -22 13 -29 8 -7 19 -23 25 -35 9
-17 9 -22 -4 -27 -22 -8 -24 -8 -24 7 0 8 -9 22 -20 32 -23 21 -26 14 -8 -15
10 -16 10 -24 -1 -42 -10 -16 -10 -23 -2 -26 6 -2 11 -12 11 -22 0 -10 5 -20
12 -22 17 -6 0 -28 -23 -28 -12 0 -19 -7 -19 -20 0 -13 -7 -20 -20 -20 -25 0
-25 -7 2 -50 26 -41 48 -81 48 -86 0 -2 -11 -4 -25 -4 -14 0 -25 -4 -25 -10 0
-16 -30 -11 -37 6 -4 11 -8 12 -13 4 -9 -15 -51 -3 -49 13 5 40 -1 49 -28 44
-31 -6 -53 1 -53 15 0 6 14 8 30 6 33 -5 38 3 15 22 -8 7 -15 19 -15 27 0 7
-7 16 -16 20 -8 3 -13 12 -10 20 3 7 -1 16 -9 19 -7 3 -11 12 -8 20 4 10 -3
14 -21 14 -42 0 -116 23 -116 36 0 7 -34 20 -77 30 -99 24 -112 47 -21 39 34
-4 68 -8 75 -10 6 -2 14 3 17 10 3 10 -5 16 -29 21 -20 3 -35 12 -35 20 0 8
-10 14 -25 14 -16 0 -25 6 -25 15 0 8 -9 15 -20 15 -11 0 -20 4 -20 9 0 12 29
23 41 15 5 -3 12 2 15 10 3 9 12 16 20 16 8 0 14 4 14 9 0 6 -9 8 -20 6 -13
-2 -20 2 -20 11 0 8 -10 15 -25 15 -41 2 -45 4 -45 14 1 6 26 9 60 7 47 -2 70
-9 108 -34 26 -17 55 -41 64 -52 l18 -21 0 21 c0 11 -4 24 -9 30 -5 5 -19 61
-31 124 -12 63 -25 121 -30 130 -15 25 -12 -4 11 -95 11 -47 19 -98 17 -115
l-3 -30 -110 68 c-60 37 -148 93 -195 123 -47 31 -112 70 -145 88 -33 18 -62
36 -65 40 -3 3 -16 12 -30 19 -14 7 -61 35 -105 62 -44 27 -90 54 -101 59 -12
5 -57 35 -99 65 -43 31 -81 56 -85 56 -3 0 -5 -13 -2 -29 3 -21 37 -63 121
-148 64 -65 163 -170 220 -233 57 -63 143 -158 191 -210 48 -52 106 -117 130
-145 23 -27 63 -73 89 -100 124 -134 191 -215 191 -228 0 -17 49 -62 103 -96
20 -12 37 -25 37 -27 0 -3 -14 -31 -30 -63 -17 -33 -34 -76 -37 -97 -3 -22
-11 -45 -17 -53 -13 -17 -12 -153 3 -207 16 -62 22 -137 11 -144 -5 -3 -7 -16
-3 -28 3 -12 9 -19 14 -16 14 8 29 -42 29 -97 0 -51 -8 -59 -34 -33 -15 14
-16 13 -16 -15 0 -16 -4 -33 -10 -36 -11 -7 -78 32 -292 167 -81 51 -157 97
-168 103 -11 5 -20 13 -20 17 0 5 -5 8 -12 8 -18 0 31 -47 89 -86 30 -20 61
-43 71 -53 9 -10 55 -44 102 -77 47 -32 94 -67 104 -76 11 -10 23 -18 27 -18
5 0 16 -9 26 -19 10 -10 27 -21 38 -23 11 -2 21 -11 23 -20 4 -21 -34 -34 -53
-18 -17 14 -17 14 -20 -17 -2 -17 3 -23 18 -23 18 0 18 -1 3 -25 -9 -13 -16
-33 -16 -44 0 -11 -4 -23 -10 -26 -15 -9 -12 -25 5 -25 31 0 61 -29 63 -62 2
-18 7 -34 12 -36 6 -2 10 -8 10 -12 0 -5 14 -24 30 -42 42 -46 47 -68 20 -90
l-22 -18 30 6 c39 8 48 -17 27 -76 -8 -23 -15 -58 -15 -76 0 -18 -9 -49 -19
-68 -13 -23 -19 -48 -16 -75 2 -22 0 -43 -5 -46 -5 -3 -14 -31 -20 -62 -15
-68 -28 -93 -49 -86 -13 4 -13 2 1 -10 17 -13 17 -20 -8 -118 -14 -57 -33
-115 -42 -129 -9 -14 -17 -34 -18 -45 -3 -65 -3 -67 -26 -59 -22 6 -22 6 -6
-12 9 -11 18 -26 19 -34 5 -24 -11 -91 -27 -115 -13 -21 -31 -95 -39 -170 -2
-16 -11 -50 -20 -75 -9 -25 -20 -79 -26 -120 -5 -41 -19 -115 -31 -163 -19
-81 -19 -90 -5 -105 15 -14 14 -18 -9 -49 l-25 -33 25 -23 c29 -27 28 -61 -2
-65 -39 -6 -39 -52 0 -52 11 0 22 -8 25 -20 7 -27 47 -26 65 1 12 18 17 20 35
11 30 -16 37 -42 13 -42 -11 0 -20 -4 -20 -10 0 -5 -9 -10 -19 -10 -11 0 -22
-4 -25 -9 -10 -16 -60 -19 -86 -6 -14 7 -95 48 -180 91 -85 42 -172 88 -193
101 -21 13 -42 21 -47 18 -14 -9 -120 -235 -120 -257 0 -10 10 -22 24 -28 13
-5 27 -14 31 -19 3 -6 14 -11 24 -11 26 0 314 -148 331 -171 10 -12 22 -18 32
-14 13 5 18 -2 25 -37 7 -37 12 -43 36 -46 21 -3 27 1 27 17 0 11 -4 23 -10
26 -5 3 -10 17 -10 31 0 19 -5 24 -25 24 -14 0 -29 8 -35 20 -7 14 -17 19 -29
15 -21 -6 -181 70 -181 87 0 6 9 8 23 3 12 -3 71 -20 131 -36 61 -16 118 -37
128 -46 21 -19 45 -5 50 30 2 18 10 22 38 22 31 0 35 3 38 28 3 22 8 27 31 27
35 0 81 -21 81 -37 0 -7 5 -13 10 -13 11 0 13 7 14 60 1 21 6 35 14 34 6 -1
21 -2 32 -2 18 -2 20 -8 17 -57 -2 -33 1 -56 7 -58 16 -6 48 12 41 24 -4 5
-11 7 -16 4 -19 -12 -8 15 16 39 15 15 31 23 41 19 12 -5 15 1 12 28 -3 32 -5
34 -40 33 -21 -1 -38 2 -38 6 0 11 42 44 83 65 32 15 40 16 47 5 4 -7 6 -19 3
-27 -3 -7 0 -13 6 -13 6 0 11 -7 11 -15 0 -8 5 -15 11 -15 6 0 9 6 6 14 -8 20
20 28 43 13 24 -14 25 -23 5 -31 -17 -6 -21 -46 -5 -46 18 0 11 -18 -9 -25
-25 -7 -35 -34 -20 -51 9 -11 8 -19 -6 -34 -27 -30 -10 -39 75 -36 l80 3 0
-26 c0 -14 5 -33 10 -41 15 -23 44 1 48 39 2 18 12 41 23 52 32 32 19 68 -23
61 -22 -4 -23 11 -3 28 8 7 15 20 15 30 0 13 9 17 39 17 l38 0 7 -66 c4 -36 9
-106 11 -156 2 -49 7 -110 11 -135 13 -84 15 -105 14 -152 0 -25 4 -49 10 -53
15 -9 80 23 80 40 0 7 -10 15 -22 17 -22 3 -23 9 -29 103 -4 68 -2 102 5 107
8 5 7 8 -1 8 -7 0 -13 9 -13 19 0 14 8 21 28 23 38 4 38 42 1 46 -33 4 -40 26
-25 83 9 35 15 44 30 41 10 -2 38 -1 61 2 36 6 42 10 38 26 -6 21 20 29 32 10
3 -5 15 -10 26 -10 11 0 30 -11 43 -25 29 -31 32 -31 40 0 5 21 12 25 42 25
21 0 33 4 29 10 -3 6 1 10 9 10 8 0 16 10 18 22 4 27 44 35 70 15 26 -21 14
-83 -18 -91 -13 -4 -24 -11 -24 -17 0 -7 7 -8 18 -3 43 19 117 3 127 -28 8
-22 8 -22 12 4 5 32 33 38 33 8 0 -11 6 -20 14 -20 9 0 12 7 9 20 -4 14 1 20
21 25 14 3 37 7 51 10 17 4 27 1 31 -10 4 -8 12 -15 19 -15 19 0 29 -19 30
-55 0 -25 4 -30 25 -30 23 0 25 3 22 40 -2 22 -10 45 -18 51 -19 15 -18 21 8
27 21 6 21 7 -6 28 -24 19 -32 20 -48 10 -29 -18 -81 -4 -95 25 -7 15 -8 26
-1 30 15 10 138 12 138 3 0 -4 9 -13 21 -20 17 -9 23 -7 36 10 23 34 40 25 46
-24 2 -26 8 -49 11 -53 4 -4 26 -6 49 -6 27 1 46 -4 53 -14 6 -9 18 -13 28 -9
21 8 34 39 18 45 -7 2 -12 21 -12 42 0 35 4 41 34 55 26 13 39 14 55 6 25 -14
41 -14 41 -1 0 6 -7 10 -15 10 -21 0 -19 27 3 39 16 10 15 10 -3 11 -23 0 -56
52 -45 70 4 7 12 10 18 6 7 -4 10 2 9 15 -1 17 -22 34 -54 44 0 0 -4 16 -8 36
-6 30 -3 37 17 46 l23 12 -22 0 c-26 1 -29 11 -11 29 10 10 8 19 -5 42 -17 28
-17 30 3 50 26 26 44 25 63 -2 14 -22 15 -22 34 -6 25 23 58 23 81 0 47 -47
81 -36 47 15 -31 44 -31 55 -2 51 12 -2 21 -8 20 -14 -1 -5 7 -15 18 -22 16
-10 19 -9 19 3 0 8 7 15 15 15 10 0 15 -10 15 -30 0 -17 -5 -30 -12 -30 -9 0
-9 -3 1 -9 10 -7 12 -20 7 -49 -3 -23 -2 -43 3 -46 15 -10 14 -186 -1 -186
-10 0 -9 -3 1 -9 11 -7 12 -31 7 -117 -10 -170 -14 -184 -42 -184 -27 0 -32
-15 -9 -24 8 -3 15 -11 15 -19 0 -14 -96 -97 -111 -97 -5 0 -9 -16 -9 -34 0
-34 3 -37 88 -81 48 -25 116 -56 152 -69 36 -13 102 -38 146 -54 76 -28 81
-29 77 -11 -8 30 23 25 168 -27 31 -11 36 -10 46 5 10 16 -2 21 -121 56 -72
21 -135 42 -140 47 -6 4 -20 8 -33 8 -13 0 -23 5 -23 10 0 15 105 12 173 -6
42 -11 63 -12 65 -5 5 15 95 14 144 -1 31 -9 41 -9 47 1 5 7 20 14 34 14 43 3
21 13 -55 26 -40 7 -93 17 -118 21 -25 5 -63 12 -85 15 -83 13 -365 118 -365
136 0 19 22 18 61 -1 22 -12 43 -19 47 -16 3 3 -11 12 -31 21 -19 8 -38 19
-41 24 -10 16 21 20 54 8 25 -10 32 -9 40 3 6 9 22 14 42 12 30 -2 28 0 -19
20 -92 40 -52 73 51 43 74 -22 83 -14 11 9 -62 19 -74 31 -52 54 14 13 23 14
68 4 63 -15 75 -10 19 7 -33 10 -40 16 -40 36 0 32 21 32 120 1 41 -13 98 -26
125 -29 l50 -6 -55 15 c-175 47 -200 57 -200 75 0 25 9 24 136 -15 156 -48
167 -50 181 -21 9 21 7 28 -12 47 -17 17 -22 31 -18 51 3 15 11 27 18 27 20 0
6 81 -17 101 -29 26 -23 42 13 35 25 -5 32 -2 36 14 6 24 7 24 36 6 12 -8 33
-17 47 -21 22 -7 23 -6 12 8 -21 25 3 29 44 6 30 -17 42 -19 61 -10 14 6 29 8
35 5 6 -4 6 1 -1 14 -15 28 -14 35 4 28 8 -3 15 -3 15 -1 0 3 -35 23 -77 44
-43 22 -96 51 -117 64 -34 21 -37 25 -21 34 15 9 10 15 -39 48 -31 20 -56 43
-56 51 0 16 26 19 35 4 3 -5 12 -10 18 -10 7 0 3 7 -7 15 -13 10 -16 19 -10
25 6 6 29 0 63 -16 77 -35 75 -22 -3 17 -36 19 -66 39 -66 46 0 21 20 25 45 9
13 -9 29 -16 34 -16 5 0 48 -18 96 -41 48 -22 89 -38 91 -36 2 2 -27 18 -66
36 -64 30 -84 51 -61 66 9 5 128 -45 244 -103 31 -16 57 -26 57 -21 0 5 -4 9
-10 9 -5 0 -10 5 -10 10 0 13 47 3 77 -16 12 -8 28 -14 35 -14 8 0 6 5 -4 11
-25 14 -23 32 2 24 40 -13 19 5 -41 36 -53 26 -60 33 -48 44 12 12 21 12 58
-1 24 -8 50 -13 58 -10 21 8 11 41 -12 42 -11 1 -37 9 -58 18 -33 14 -37 20
-35 49 3 28 0 32 -22 33 -29 0 -50 11 -50 25 0 5 6 9 14 9 22 0 29 19 15 36
-10 12 -9 16 7 20 11 3 26 18 33 35 11 25 18 29 51 29 27 0 44 7 61 25 13 13
29 25 36 25 7 0 10 7 7 15 -5 12 2 14 41 8 45 -6 47 -5 40 16 -6 20 -4 21 22
16 15 -4 45 -13 66 -21 20 -8 51 -14 67 -14 24 0 31 5 36 27 5 20 2 30 -15 44
-13 10 -19 23 -16 29 4 7 -2 14 -14 17 -13 3 -20 12 -19 22 3 14 -20 16 -222
16 -124 0 -271 -2 -327 -5 -55 -3 -105 -1 -109 3 -4 4 -2 51 5 105 8 53 14
107 16 119 1 12 7 29 14 37 9 11 10 16 2 16 -14 0 -15 132 -1 146 6 6 7 21 1
39 -4 17 -6 36 -4 43 6 17 182 16 306 -3 76 -11 103 -12 123 -3 22 10 28 10
39 -6 8 -10 19 -15 25 -11 6 4 20 -1 32 -11 19 -18 20 -18 17 1 -3 16 1 19 19
18 39 -5 24 15 -42 52 -68 38 -175 77 -241 89 -95 17 -100 31 -15 41 97 11 69
23 -45 18 -87 -3 -105 -1 -105 10 0 10 -16 17 -46 22 -55 8 -54 29 2 32 160 9
356 28 360 35 3 4 -4 8 -15 8 -11 0 -24 6 -28 14 -18 29 -53 36 -192 35 -77 0
-156 3 -176 7 -52 9 -45 32 13 36 l47 4 -52 8 c-42 7 -53 12 -53 27 0 17 6 18
75 12 101 -8 99 11 -2 23 -68 8 -78 11 -78 29 0 18 6 20 50 18 l50 -1 -47 10
c-41 10 -48 15 -48 36 0 23 3 24 40 19 22 -3 40 -1 40 4 0 5 -18 9 -39 9 -50
0 -71 8 -71 27 0 12 11 14 55 11 30 -1 55 0 55 5 0 4 -17 7 -37 7 -53 0 -83
10 -83 26 0 12 14 14 68 9 l67 -5 -56 13 c-74 18 -91 25 -85 36 3 5 34 8 69 6
62 -4 50 0 -30 11 -35 4 -43 9 -43 26 0 19 5 20 113 16 l112 -3 -3 25 c-2 14
-8 27 -13 28 -5 2 -9 9 -9 16 0 9 -32 17 -102 25 -56 6 -107 16 -115 22 -21
18 -4 31 36 25 87 -13 189 -17 195 -8 7 12 -25 26 -33 14 -3 -5 -37 -6 -76 -3
-57 5 -70 9 -73 24 -3 16 3 18 55 17 79 -2 82 -1 51 16 -16 8 -28 21 -28 28 0
16 -27 29 -42 20 -14 -9 -98 5 -98 17 0 5 23 9 50 9 56 0 67 17 18 27 l-31 6
24 20 c16 13 20 21 12 24 -20 7 -15 33 6 33 11 0 22 4 25 8 2 4 38 4 78 0 180
-18 267 -21 283 -8 20 17 19 54 -4 126 -10 32 -26 82 -34 109 -8 28 -22 66
-31 86 -8 20 -12 40 -8 43 3 4 2 10 -4 14 -6 4 -22 30 -36 57 -56 114 -111
201 -163 260 -30 35 -55 67 -55 72 0 4 -12 16 -26 26 -23 17 -27 18 -49 3 -15
-10 -25 -26 -25 -39 0 -22 -149 -326 -175 -357 -7 -8 -31 -48 -54 -88 -24 -40
-49 -76 -58 -79 -18 -7 -35 15 -29 40 5 22 -10 23 -18 1 -4 -9 -9 -14 -13 -10
-6 6 -27 -24 -39 -56 -6 -18 -25 -24 -37 -12 -8 8 9 52 28 70 21 21 20 45 -2
37 -13 -5 -15 -2 -10 11 4 10 7 20 7 22 0 2 9 4 20 4 15 0 20 7 20 25 0 14 5
25 10 25 6 0 10 7 10 15 0 8 -5 15 -11 15 -7 0 -9 11 -6 29 5 25 3 28 -13 24
-32 -8 -25 33 10 67 17 17 35 30 39 30 5 0 8 11 7 25 0 14 -4 25 -8 25 -12 0
-9 28 4 36 6 4 16 0 23 -9 17 -24 25 -21 25 9 0 40 18 66 41 59 10 -4 19 -2
19 3 0 6 -5 12 -11 14 -8 3 -7 8 3 18 7 8 14 30 13 47 0 41 18 47 25 9 5 -32
23 -38 29 -10 2 10 10 24 18 32 7 8 12 19 10 25 -2 6 7 22 20 35 22 22 32 49
14 38 -5 -3 -12 1 -15 10 -8 21 -8 21 14 27 20 5 28 27 10 27 -5 0 -10 5 -10
10 0 6 7 10 15 10 11 0 14 7 9 24 -4 18 -1 25 15 29 11 2 22 0 26 -7 3 -6 4 4
2 22 -2 21 1 32 10 32 7 0 13 10 13 22 0 12 -3 18 -7 15 -9 -10 -33 13 -33 30
0 10 7 14 20 10 23 -6 24 -3 9 25 -14 25 -6 33 20 18 12 -6 21 -9 21 -6 0 14
-26 62 -37 69 -18 11 -17 41 1 34 8 -3 16 -2 18 3 2 5 13 11 25 13 29 4 29 4
36 59 5 36 3 51 -10 63 -14 15 -14 19 5 44 16 22 18 31 9 40 -9 10 -6 18 16
36 15 13 27 29 27 35 0 15 -36 12 -50 -5 -7 -8 -19 -15 -26 -15 -8 0 -14 -4
-14 -10 0 -5 -16 -17 -35 -26 l-36 -17 32 -27 c39 -32 33 -61 -7 -35 -13 8
-24 11 -24 6 0 -6 7 -14 16 -19 14 -8 14 -12 3 -30 -16 -26 -34 -28 -43 -6 -3
8 -10 12 -16 9 -15 -9 -12 -25 4 -25 19 0 27 -68 8 -75 -7 -3 -10 -9 -7 -15 4
-6 11 -7 17 -4 8 5 9 1 5 -10 -4 -10 -7 -20 -7 -22 0 -3 -4 -2 -10 1 -5 3 -10
-1 -10 -9 0 -25 -19 -18 -26 9 -7 30 -24 33 -24 4 0 -24 -26 -53 -39 -44 -10
6 -31 -25 -31 -46 0 -7 10 -3 23 9 13 12 26 22 29 22 12 0 20 -61 9 -74 -6 -7
-8 -16 -4 -19 3 -4 1 -7 -6 -7 -7 0 -10 -7 -7 -18 4 -12 -3 -27 -19 -42 l-25
-23 -1 39 c-1 32 -2 34 -8 15 -8 -30 -24 -36 -43 -17 -18 18 -38 3 -38 -27 0
-15 -5 -18 -20 -14 -13 3 -28 -2 -40 -16 -22 -23 -26 -37 -10 -37 6 0 10 -18
10 -40 0 -34 3 -40 21 -40 28 0 19 -23 -14 -34 -31 -11 -57 6 -57 36 0 14 -5
18 -15 14 -20 -7 -48 23 -42 45 3 12 0 19 -9 19 -8 0 -14 -5 -14 -11 0 -6 -7
-9 -15 -5 -22 8 -18 -4 10 -30 14 -13 25 -28 25 -33 0 -6 11 -13 24 -17 19 -5
24 -12 24 -35 -1 -24 -5 -29 -24 -29 -13 0 -29 -9 -36 -20 -16 -25 -48 -26
-48 -2 0 9 9 32 20 50 11 17 16 32 10 32 -5 0 -11 -4 -14 -9 -3 -4 -17 -7 -31
-6 -28 4 -32 -7 -10 -25 21 -17 19 -30 -6 -30 -18 0 -20 -5 -17 -37 2 -29 -1
-38 -14 -41 -9 -2 -22 6 -27 17 -7 12 -17 18 -26 15 -9 -4 -22 -1 -30 6 -14
12 -15 8 -9 -30 7 -43 7 -43 -19 -36 -15 3 -27 2 -27 -3 0 -18 -56 -22 -86 -6
-17 9 -49 15 -80 14 -55 -3 -78 6 -70 26 3 8 -1 19 -9 25 -10 8 -14 8 -17 -1
-3 -8 -11 -10 -22 -6 -18 7 -18 8 -1 27 10 11 23 20 29 20 6 0 17 9 24 20 7
12 8 20 2 20 -5 0 -10 -4 -10 -10 0 -14 -27 -13 -36 1 -3 6 -1 15 5 19 8 4 -3
20 -31 45 -24 21 -77 70 -118 109 -41 39 -113 105 -159 145 l-83 75 -19 -25
c-10 -13 -19 -27 -19 -30 0 -3 -20 -41 -45 -84 -35 -61 -42 -82 -34 -96 5 -11
14 -19 19 -19 13 0 110 -70 110 -79 0 -9 -112 -7 -127 2 -12 7 -43 -17 -43
-34 0 -17 -48 -10 -53 9 -3 14 -6 12 -15 -10 -11 -26 -29 -44 -38 -35 -3 2 0
24 5 48 l10 43 -25 -30 c-22 -26 -25 -28 -37 -12 -20 25 -34 8 -33 -42 0 -41
-4 -48 -43 -77 -23 -18 -48 -33 -55 -33 -17 0 -51 64 -43 82 4 11 19 15 49 15
40 0 43 1 41 26 -1 15 2 27 8 27 5 0 9 5 9 10 0 6 -11 10 -25 10 -21 0 -25 5
-25 30 0 17 -4 30 -10 30 -5 0 -10 -4 -10 -10 0 -5 -9 -10 -19 -10 -27 0 -37
-21 -18 -35 10 -7 17 -15 17 -19 0 -12 -66 -6 -86 8 -14 10 -23 11 -32 4 -10
-8 -15 -3 -25 21 -6 17 -17 31 -24 31 -7 0 -13 5 -13 11 0 6 -9 8 -20 4 -16
-5 -20 -2 -20 19 0 14 -5 26 -10 26 -6 0 -30 20 -54 45 -50 50 -54 52 -52 29
2 -25 -17 -27 -32 -3 -12 18 -12 23 -1 30 16 9 6 14 -55 27 -34 6 -41 13 -48
40 -8 32 -27 39 -77 32 -10 -1 -12 8 -9 36 4 31 -1 42 -28 71 -18 19 -35 41
-38 49 -3 8 -10 13 -15 9 -17 -10 -21 13 -5 29 19 19 12 46 -12 46 -9 0 -14 6
-11 13 3 8 -10 31 -29 52 -19 21 -34 42 -34 46 0 4 -9 5 -19 2 -15 -4 -19 -1
-15 14 3 11 -10 42 -35 78 -43 63 -71 87 -71 60 0 -8 -6 -15 -14 -15 -8 0 -16
-6 -19 -12 -3 -10 -8 -10 -16 -2 -10 9 -8 20 6 50 15 32 24 39 45 37 20 -1 25
2 21 13 -3 8 1 14 11 14 19 0 21 11 4 28 -16 16 -25 15 -32 -3z"/>
<path d="M5691 6844 c0 -11 3 -14 6 -6 3 7 2 16 -1 19 -3 4 -6 -2 -5 -13z"/>
<path d="M5437 6775 c-37 -36 -72 -65 -77 -65 -6 0 -10 -5 -10 -10 0 -16 29 2
81 52 25 23 54 48 64 53 10 6 16 17 14 23 -3 8 -32 -14 -72 -53z"/>
<path d="M2876 6797 c3 -10 9 -15 12 -12 3 3 0 11 -7 18 -10 9 -11 8 -5 -6z"/>
<path d="M5576 6755 c-3 -8 -1 -15 4 -15 6 0 10 7 10 15 0 8 -2 15 -4 15 -2 0
-6 -7 -10 -15z"/>
<path d="M2971 6693 c7 -12 15 -20 18 -17 3 2 -3 12 -13 22 -17 16 -18 16 -5
-5z"/>
<path d="M5288 6655 c-25 -19 -49 -39 -54 -46 -4 -7 15 3 41 22 27 19 54 37
59 41 6 4 8 9 6 12 -3 2 -26 -11 -52 -29z"/>
<path d="M2650 6571 c0 -6 5 -13 10 -16 6 -3 10 1 10 9 0 9 -4 16 -10 16 -5 0
-10 -4 -10 -9z"/>
<path d="M5160 6559 c0 -5 5 -7 10 -4 6 3 10 8 10 11 0 2 -4 4 -10 4 -5 0 -10
-5 -10 -11z"/>
<path d="M2700 6525 c0 -11 5 -27 10 -35 8 -12 10 -12 10 5 0 11 -5 27 -10 35
-8 12 -10 12 -10 -5z"/>
<path d="M3110 6536 c0 -2 8 -10 18 -17 15 -13 16 -12 3 4 -13 16 -21 21 -21
13z"/>
<path d="M5657 6523 c-4 -3 -7 -15 -7 -26 0 -25 13 -14 15 13 2 22 1 23 -8 13z"/>
<path d="M5190 6505 c-8 -9 -8 -15 -2 -15 12 0 26 19 19 26 -2 2 -10 -2 -17
-11z"/>
<path d="M5054 6495 c-17 -13 -17 -14 -2 -15 9 0 20 5 23 11 11 17 0 20 -21 4z"/>
<path d="M5292 6480 c-12 -19 -11 -20 15 -14 37 9 40 13 23 24 -21 13 -24 13
-38 -10z"/>
<path d="M5000 6470 c0 -5 7 -7 15 -4 8 4 15 8 15 10 0 2 -7 4 -15 4 -8 0 -15
-4 -15 -10z"/>
<path d="M3196 6447 c3 -10 9 -15 12 -12 3 3 0 11 -7 18 -10 9 -11 8 -5 -6z"/>
<path d="M2805 6440 c-3 -5 -2 -10 4 -10 5 0 13 5 16 10 3 6 2 10 -4 10 -5 0
-13 -4 -16 -10z"/>
<path d="M5250 6418 c0 -19 2 -20 10 -8 13 19 13 30 0 30 -5 0 -10 -10 -10
-22z"/>
<path d="M3230 6410 c0 -5 5 -10 11 -10 5 0 7 5 4 10 -3 6 -8 10 -11 10 -2 0
-4 -4 -4 -10z"/>
<path d="M2857 6403 c-12 -11 -8 -23 8 -23 8 0 15 7 15 15 0 16 -12 20 -23 8z"/>
<path d="M3065 6400 c3 -5 8 -10 11 -10 2 0 4 5 4 10 0 6 -5 10 -11 10 -5 0
-7 -4 -4 -10z"/>
<path d="M5615 6338 c-9 -40 -21 -76 -27 -79 -6 -4 -11 -22 -11 -41 1 -18 -6
-53 -13 -77 -19 -56 -11 -64 10 -11 9 22 20 40 26 40 6 0 6 9 0 25 -6 16 -6
26 1 31 6 3 8 12 5 20 -3 7 2 21 11 29 11 11 16 36 18 76 0 32 0 59 -1 59 -1
0 -10 -33 -19 -72z"/>
<path d="M3100 6360 c0 -5 5 -10 11 -10 5 0 7 5 4 10 -3 6 -8 10 -11 10 -2 0
-4 -4 -4 -10z"/>
<path d="M3296 6341 c-3 -5 1 -11 9 -15 8 -3 15 -1 15 4 0 13 -18 22 -24 11z"/>
<path d="M5210 6320 c0 -5 5 -10 10 -10 6 0 10 5 10 10 0 6 -4 10 -10 10 -5 0
-10 -4 -10 -10z"/>
<path d="M3332 6290 c7 -10 14 -18 15 -16 6 6 -9 36 -18 36 -5 0 -4 -9 3 -20z"/>
<path d="M2952 6280 c15 -23 28 -26 28 -6 0 8 -7 17 -16 20 -24 9 -25 8 -12
-14z"/>
<path d="M4940 6279 c0 -5 5 -7 10 -4 6 3 10 8 10 11 0 2 -4 4 -10 4 -5 0 -10
-5 -10 -11z"/>
<path d="M5255 6270 c-3 -5 -1 -10 4 -10 6 0 11 5 11 10 0 6 -2 10 -4 10 -3 0
-8 -4 -11 -10z"/>
<path d="M3650 6260 c0 -9 39 -25 46 -18 2 3 -7 10 -21 16 -14 6 -25 7 -25 2z"/>
<path d="M2760 6253 c0 -5 5 -15 10 -23 8 -12 10 -11 10 8 0 12 -4 22 -10 22
-5 0 -10 -3 -10 -7z"/>
<path d="M3060 6250 c0 -5 5 -10 11 -10 5 0 7 5 4 10 -3 6 -8 10 -11 10 -2 0
-4 -4 -4 -10z"/>
<path d="M5120 6245 c-14 -16 -3 -20 19 -6 8 5 9 11 3 15 -5 3 -15 -1 -22 -9z"/>
<path d="M2990 6239 c0 -5 9 -9 20 -9 11 0 20 2 20 4 0 2 -9 6 -20 9 -11 3
-20 1 -20 -4z"/>
<path d="M2975 6211 c-3 -5 -1 -12 5 -16 5 -3 10 1 10 9 0 18 -6 21 -15 7z"/>
<path d="M5072 6189 c2 -6 8 -10 13 -10 5 0 11 4 13 10 2 6 -4 11 -13 11 -9 0
-15 -5 -13 -11z"/>
<path d="M2741 6164 c0 -11 3 -14 6 -6 3 7 2 16 -1 19 -3 4 -6 -2 -5 -13z"/>
<path d="M2795 6150 c3 -5 8 -10 11 -10 2 0 4 5 4 10 0 6 -5 10 -11 10 -5 0
-7 -4 -4 -10z"/>
<path d="M2756 6105 c9 -14 19 -24 21 -21 6 6 -20 46 -30 46 -4 0 0 -11 9 -25z"/>
<path d="M3535 6100 c-3 -5 -13 -6 -23 -3 -15 6 -16 5 -2 -13 8 -10 19 -22 24
-26 14 -9 37 18 30 36 -7 18 -20 21 -29 6z"/>
<path d="M5537 6064 c-4 -4 -7 -19 -6 -33 l0 -26 10 24 c10 26 8 47 -4 35z"/>
<path d="M2977 6053 c-10 -9 -9 -23 2 -23 5 0 11 7 15 15 5 15 -5 20 -17 8z"/>
<path d="M2856 5987 c3 -10 9 -15 12 -12 3 3 0 11 -7 18 -10 9 -11 8 -5 -6z"/>
<path d="M4510 5979 c0 -5 5 -7 10 -4 6 3 10 8 10 11 0 2 -4 4 -10 4 -5 0 -10
-5 -10 -11z"/>
<path d="M2880 5942 c0 -12 19 -26 26 -19 2 2 -2 10 -11 17 -9 8 -15 8 -15 2z"/>
<path d="M3620 5890 c0 -5 7 -10 15 -10 8 0 15 5 15 10 0 6 -7 10 -15 10 -8 0
-15 -4 -15 -10z"/>
<path d="M4611 5873 c-10 -26 -10 -27 4 -9 8 11 15 23 15 28 0 15 -7 8 -19
-19z"/>
<path d="M1738 5531 c18 -17 37 -31 43 -31 18 0 -5 22 -43 43 l-33 19 33 -31z"/>
<path d="M5177 5502 c-15 -15 -27 -32 -27 -37 0 -5 8 0 18 11 49 55 56 75 9
26z"/>
<path d="M1811 5477 c2 -1 13 -9 24 -17 19 -14 19 -14 6 3 -7 9 -18 17 -24 17
-6 0 -8 -1 -6 -3z"/>
<path d="M5147 5433 c-4 -3 -7 -16 -6 -27 0 -19 1 -19 10 3 10 24 8 36 -4 24z"/>
<path d="M2040 5296 c0 -2 8 -10 18 -17 15 -13 16 -12 3 4 -13 16 -21 21 -21
13z"/>
<path d="M2080 5262 c0 -12 19 -26 26 -19 2 2 -2 10 -11 17 -9 8 -15 8 -15 2z"/>
<path d="M2185 5170 c3 -5 11 -10 16 -10 6 0 7 5 4 10 -3 6 -11 10 -16 10 -6
0 -7 -4 -4 -10z"/>
<path d="M5675 4790 c-3 -5 3 -10 14 -10 12 0 21 5 21 10 0 6 -6 10 -14 10 -8
0 -18 -4 -21 -10z"/>
<path d="M5640 4665 c0 -8 -5 -15 -12 -15 -6 0 -9 -2 -7 -5 3 -2 18 -1 35 4
29 7 29 8 7 20 -19 10 -23 9 -23 -4z"/>
<path d="M1795 4631 c-3 -6 3 -15 14 -20 28 -16 33 -14 21 9 -12 22 -25 26
-35 11z"/>
<path d="M2450 4636 c0 -2 7 -6 15 -10 8 -3 15 -1 15 4 0 6 -7 10 -15 10 -8 0
-15 -2 -15 -4z"/>
<path d="M2525 4610 c3 -5 14 -10 23 -10 15 0 15 2 2 10 -20 13 -33 13 -25 0z"/>
<path d="M1830 4510 c0 -5 5 -10 11 -10 5 0 7 5 4 10 -3 6 -8 10 -11 10 -2 0
-4 -4 -4 -10z"/>
<path d="M2429 4494 c-6 -7 -4 -16 6 -24 12 -10 15 -10 15 4 0 9 7 16 15 16 8
0 15 4 15 8 0 12 -40 9 -51 -4z"/>
<path d="M5668 4503 c17 -2 47 -2 65 0 17 2 3 4 -33 4 -36 0 -50 -2 -32 -4z"/>
<path d="M5725 4459 c-10 -15 1 -23 20 -15 9 3 13 10 10 16 -8 13 -22 13 -30
-1z"/>
<path d="M5655 4440 c3 -5 10 -10 16 -10 5 0 9 5 9 10 0 6 -7 10 -16 10 -8 0
-12 -4 -9 -10z"/>
<path d="M2565 4430 c3 -5 8 -10 11 -10 2 0 4 5 4 10 0 6 -5 10 -11 10 -5 0
-7 -4 -4 -10z"/>
<path d="M2750 4389 c0 -5 5 -7 10 -4 6 3 10 8 10 11 0 2 -4 4 -10 4 -5 0 -10
-5 -10 -11z"/>
<path d="M2360 4379 c0 -5 5 -7 10 -4 6 3 10 8 10 11 0 2 -4 4 -10 4 -5 0 -10
-5 -10 -11z"/>
<path d="M5690 4380 c0 -12 34 -12 70 0 20 7 16 8 -22 9 -27 1 -48 -3 -48 -9z"/>
<path d="M5870 4340 c0 -5 5 -10 11 -10 5 0 7 5 4 10 -3 6 -8 10 -11 10 -2 0
-4 -4 -4 -10z"/>
<path d="M2735 4310 c-3 -5 1 -10 9 -10 8 0 18 5 21 10 3 6 -1 10 -9 10 -8 0
-18 -4 -21 -10z"/>
<path d="M5663 4313 c9 -2 25 -2 35 0 9 3 1 5 -18 5 -19 0 -27 -2 -17 -5z"/>
<path d="M5758 4313 c7 -3 16 -2 19 1 4 3 -2 6 -13 5 -11 0 -14 -3 -6 -6z"/>
<path d="M2670 4280 c0 -5 5 -10 10 -10 6 0 10 5 10 10 0 6 -4 10 -10 10 -5 0
-10 -4 -10 -10z"/>
<path d="M2515 4200 c-3 -5 -1 -10 4 -10 6 0 11 5 11 10 0 6 -2 10 -4 10 -3 0
-8 -4 -11 -10z"/>
<path d="M2601 3984 c0 -11 3 -14 6 -6 3 7 2 16 -1 19 -3 4 -6 -2 -5 -13z"/>
<path d="M5566 3931 c-4 -7 -5 -15 -2 -18 9 -9 19 4 14 18 -4 11 -6 11 -12 0z"/>
<path d="M2455 3880 c3 -5 8 -10 11 -10 2 0 4 5 4 10 0 6 -5 10 -11 10 -5 0
-7 -4 -4 -10z"/>
<path d="M5766 3821 c-4 -7 -5 -15 -2 -18 9 -9 19 4 14 18 -4 11 -6 11 -12 0z"/>
<path d="M2597 3723 c5 -12 -31 -71 -51 -85 -19 -13 11 -58 39 -58 14 0 25 5
25 12 0 6 14 33 31 59 39 62 36 84 -13 84 -24 1 -34 -3 -31 -12z"/>
<path d="M5628 3713 c7 -3 16 -2 19 1 4 3 -2 6 -13 5 -11 0 -14 -3 -6 -6z"/>
<path d="M5895 3680 c-3 -5 -1 -10 4 -10 6 0 11 5 11 10 0 6 -2 10 -4 10 -3 0
-8 -4 -11 -10z"/>
<path d="M2555 3500 c3 -5 8 -10 11 -10 2 0 4 5 4 10 0 6 -5 10 -11 10 -5 0
-7 -4 -4 -10z"/>
<path d="M2465 3340 c-3 -5 -1 -10 4 -10 6 0 11 5 11 10 0 6 -2 10 -4 10 -3 0
-8 -4 -11 -10z"/>
<path d="M5380 2836 c0 -3 9 -10 20 -16 11 -6 20 -8 20 -6 0 3 -9 10 -20 16
-11 6 -20 8 -20 6z"/>
<path d="M5647 2819 c7 -7 15 -10 18 -7 3 3 -2 9 -12 12 -14 6 -15 5 -6 -5z"/>
<path d="M5520 2816 c0 -2 7 -7 16 -10 8 -3 12 -2 9 4 -6 10 -25 14 -25 6z"/>
<path d="M5687 2799 c7 -7 15 -10 18 -7 3 3 -2 9 -12 12 -14 6 -15 5 -6 -5z"/>
<path d="M5448 2793 c7 -3 16 -2 19 1 4 3 -2 6 -13 5 -11 0 -14 -3 -6 -6z"/>
<path d="M5830 2775 c13 -14 31 -25 39 -25 11 0 6 8 -14 25 -39 32 -55 32 -25
0z"/>
<path d="M5487 2779 c7 -7 15 -10 18 -7 3 3 -2 9 -12 12 -14 6 -15 5 -6 -5z"/>
<path d="M5465 2740 c3 -5 8 -10 11 -10 2 0 4 5 4 10 0 6 -5 10 -11 10 -5 0
-7 -4 -4 -10z"/>
<path d="M5856 2722 c-3 -5 8 -13 25 -19 16 -6 29 -8 29 -4 0 11 -49 31 -54
23z"/>
<path d="M4582 2699 c2 -7 10 -15 17 -17 8 -3 12 1 9 9 -2 7 -10 15 -17 17 -8
3 -12 -1 -9 -9z"/>
<path d="M5765 2700 c3 -5 8 -10 11 -10 2 0 4 5 4 10 0 6 -5 10 -11 10 -5 0
-7 -4 -4 -10z"/>
<path d="M5705 2665 c17 -13 34 -24 39 -25 6 0 -5 11 -24 25 -44 32 -54 32
-15 0z"/>
<path d="M5849 2661 c13 -12 28 -21 34 -21 12 0 11 0 -28 24 l-30 17 24 -20z"/>
<path d="M5670 2646 c0 -3 14 -14 30 -26 17 -12 30 -17 30 -11 0 6 -13 17 -30
26 -16 9 -30 13 -30 11z"/>
<path d="M5765 2630 c3 -5 11 -10 16 -10 6 0 7 5 4 10 -3 6 -11 10 -16 10 -6
0 -7 -4 -4 -10z"/>
<path d="M5635 2590 c3 -5 11 -10 16 -10 6 0 7 5 4 10 -3 6 -11 10 -16 10 -6
0 -7 -4 -4 -10z"/>
<path d="M4620 2570 c0 -5 5 -10 10 -10 6 0 10 5 10 10 0 6 -4 10 -10 10 -5 0
-10 -4 -10 -10z"/>
<path d="M5620 2497 c0 -3 66 -79 146 -169 80 -89 148 -170 152 -178 11 -28
127 -140 139 -135 7 2 29 -3 50 -12 21 -9 70 -17 108 -18 39 -1 79 -6 90 -10
19 -8 19 -7 2 11 -10 10 -32 24 -50 30 -19 6 -33 18 -35 30 -3 19 -69 64 -94
64 -7 0 -33 9 -57 20 -35 16 -41 23 -32 34 9 11 9 16 0 22 -9 5 -7 11 6 20 17
13 17 14 1 20 -10 4 -22 17 -27 30 -6 18 -16 24 -38 24 -42 0 -61 9 -61 31 0
13 7 19 22 19 30 0 12 15 -37 30 -56 18 -132 56 -187 96 -43 31 -98 54 -98 41z"/>
<path d="M4484 2313 c-3 -12 -17 -24 -30 -27 -27 -7 -31 -28 -10 -46 12 -9 20
-4 41 30 20 31 24 45 16 53 -9 9 -13 6 -17 -10z"/>
<path d="M2912 2274 c-17 -18 -12 -49 8 -49 10 0 15 11 16 33 1 35 -4 39 -24
16z"/>
<path d="M3705 2240 c3 -5 8 -10 11 -10 2 0 4 5 4 10 0 6 -5 10 -11 10 -5 0
-7 -4 -4 -10z"/>
<path d="M5298 2233 c7 -3 16 -2 19 1 4 3 -2 6 -13 5 -11 0 -14 -3 -6 -6z"/>
<path d="M5340 2236 c0 -2 9 -6 20 -9 11 -3 18 -1 14 4 -5 9 -34 13 -34 5z"/>
<path d="M2623 2213 c-7 -2 -13 -16 -13 -29 0 -30 36 -34 45 -4 10 32 -3 45
-32 33z"/>
<path d="M2870 2196 c0 -8 -13 -26 -30 -39 -37 -31 -37 -37 -5 -37 22 0 25 -3
19 -24 -6 -24 17 -43 37 -30 13 8 11 42 -3 47 -10 3 -10 9 0 26 7 12 10 32 6
46 -7 27 -24 34 -24 11z"/>
<path d="M2710 2180 c0 -5 4 -10 9 -10 6 0 13 5 16 10 3 6 -1 10 -9 10 -9 0
-16 -4 -16 -10z"/>
<path d="M3526 2182 c-3 -5 -18 -7 -33 -5 -15 2 -37 -2 -48 -11 -19 -14 -19
-16 -3 -32 14 -14 21 -15 45 -5 29 12 72 61 54 61 -5 0 -12 -4 -15 -8z"/>
<path d="M3575 2180 c-3 -5 -1 -10 4 -10 6 0 11 5 11 10 0 6 -2 10 -4 10 -3 0
-8 -4 -11 -10z"/>
<path d="M5278 2183 c6 -2 18 -2 25 0 6 3 1 5 -13 5 -14 0 -19 -2 -12 -5z"/>
<path d="M5360 2180 c8 -5 26 -9 40 -9 23 0 23 1 5 9 -11 5 -29 9 -40 9 -17 1
-17 -1 -5 -9z"/>
<path d="M4180 2174 c0 -7 27 -34 35 -34 3 0 1 9 -5 20 -10 18 -30 28 -30 14z"/>
<path d="M3570 2146 c0 -7 -7 -19 -15 -26 -21 -17 -15 -84 7 -88 24 -5 40 39
32 89 -6 36 -24 56 -24 25z"/>
<path d="M2760 2137 c0 -8 -9 -17 -20 -20 -21 -5 -29 -47 -9 -47 20 0 39 -29
39 -59 0 -26 4 -31 24 -31 18 0 29 9 40 32 21 42 20 58 -4 58 -11 0 -23 7 -26
15 -4 8 -13 15 -21 15 -10 0 -12 6 -8 19 3 11 1 22 -5 26 -5 3 -10 0 -10 -8z"/>
<path d="M4385 2140 c-9 -15 4 -30 26 -30 23 0 26 25 3 34 -21 8 -22 8 -29 -4z"/>
<path d="M2630 2130 c0 -5 5 -10 10 -10 6 0 10 5 10 10 0 6 -4 10 -10 10 -5 0
-10 -4 -10 -10z"/>
<path d="M3660 2130 c0 -3 7 -13 15 -23 17 -24 50 -18 50 8 0 16 -7 20 -32 20
-18 1 -33 -2 -33 -5z"/>
<path d="M3935 2130 c-3 -5 -16 -10 -29 -10 -28 0 -36 -8 -29 -26 3 -9 21 -14
52 -14 26 0 52 -5 59 -12 19 -19 14 -1 -10 37 -24 36 -33 42 -43 25z"/>
<path d="M4240 2130 c0 -5 5 -10 10 -10 6 0 10 5 10 10 0 6 -4 10 -10 10 -5 0
-10 -4 -10 -10z"/>
<path d="M4620 2130 c0 -5 7 -7 15 -4 8 4 15 8 15 10 0 2 -7 4 -15 4 -8 0 -15
-4 -15 -10z"/>
<path d="M2562 2107 c-43 -46 -16 -82 31 -41 31 27 36 64 9 64 -10 0 -28 -10
-40 -23z"/>
<path d="M5180 2120 c0 -5 5 -10 10 -10 6 0 10 5 10 10 0 6 -4 10 -10 10 -5 0
-10 -4 -10 -10z"/>
<path d="M4450 2110 c-18 -11 -4 -42 17 -38 10 2 19 10 21 19 4 19 -19 31 -38
19z"/>
<path d="M4250 2094 c0 -8 5 -12 10 -9 6 3 10 10 10 16 0 5 -4 9 -10 9 -5 0
-10 -7 -10 -16z"/>
<path d="M3002 2088 c-16 -16 -15 -38 2 -38 23 0 29 -20 12 -39 -20 -22 -20
-37 -2 -44 33 -13 76 18 61 43 -3 5 0 20 7 35 13 30 6 40 -37 49 -19 4 -35 2
-43 -6z"/>
<path d="M5315 2090 c-3 -5 6 -12 20 -15 14 -3 37 -7 51 -10 16 -4 23 -2 19 5
-3 5 -17 10 -30 10 -13 0 -27 5 -30 10 -8 13 -22 13 -30 0z"/>
<path d="M5040 2080 c0 -5 5 -10 10 -10 6 0 10 5 10 10 0 6 -4 10 -10 10 -5 0
-10 -4 -10 -10z"/>
<path d="M4620 2070 c0 -5 5 -10 10 -10 6 0 10 5 10 10 0 6 -4 10 -10 10 -5 0
-10 -4 -10 -10z"/>
<path d="M2933 2063 c-7 -2 -13 -13 -13 -23 0 -10 -7 -20 -15 -24 -8 -3 -15
-17 -15 -31 0 -32 35 -35 45 -4 4 12 16 30 27 41 15 15 17 22 7 34 -12 15 -16
16 -36 7z"/>
<path d="M3824 2055 c-8 -19 3 -35 26 -35 22 0 33 23 17 39 -15 15 -37 14 -43
-4z"/>
<path d="M4270 2045 c-16 -20 5 -48 31 -40 9 3 20 1 24 -5 3 -5 11 -10 17 -10
10 0 -42 68 -53 69 -4 1 -12 -6 -19 -14z"/>
<path d="M5168 2053 c7 -3 16 -2 19 1 4 3 -2 6 -13 5 -11 0 -14 -3 -6 -6z"/>
<path d="M2692 2038 c-17 -17 -15 -35 5 -42 21 -8 36 6 31 30 -4 22 -20 28
-36 12z"/>
<path d="M5215 2040 c3 -5 10 -10 16 -10 5 0 9 5 9 10 0 6 -7 10 -16 10 -8 0
-12 -4 -9 -10z"/>
<path d="M2602 2027 c-14 -17 2 -42 22 -34 20 8 21 47 2 47 -7 0 -18 -6 -24
-13z"/>
<path d="M3133 2029 c-13 -13 -7 -66 10 -86 13 -17 46 -16 53 1 6 16 -26 88
-41 93 -6 2 -16 -2 -22 -8z"/>
<path d="M3721 2026 c-8 -10 -8 -16 2 -24 17 -14 42 2 34 22 -8 20 -21 20 -36
2z"/>
<path d="M3395 2002 c4 -21 1 -34 -11 -47 -16 -15 -15 -16 17 -13 22 2 34 8
34 18 0 8 4 21 9 28 10 16 0 27 -33 37 -21 6 -23 5 -16 -23z"/>
<path d="M5370 2020 c8 -5 22 -10 30 -10 13 0 13 1 0 10 -8 5 -22 10 -30 10
-13 0 -13 -1 0 -10z"/>
<path d="M2464 1995 c-8 -21 2 -45 20 -45 19 0 29 29 15 46 -15 18 -28 18 -35
-1z"/>
<path d="M3514 1995 c-4 -9 -2 -21 4 -27 15 -15 44 -1 40 19 -4 23 -36 29 -44
8z"/>
<path d="M4435 2000 c3 -5 11 -10 16 -10 6 0 7 5 4 10 -3 6 -11 10 -16 10 -6
0 -7 -4 -4 -10z"/>
<path d="M4360 1965 c-8 -9 -6 -17 6 -29 20 -21 38 -16 42 11 4 24 -32 38 -48
18z"/>
<path d="M4194 1958 c-7 -10 20 -38 38 -38 11 0 28 36 21 44 -11 10 -51 7 -59
-6z"/>
<path d="M5360 1966 c0 -2 11 -6 25 -8 14 -3 25 -1 25 3 0 5 -11 9 -25 9 -14
0 -25 -2 -25 -4z"/>
<path d="M2682 1944 c-32 -22 -28 -44 7 -44 33 0 54 20 45 44 -8 20 -23 20
-52 0z"/>
<path d="M3584 1945 c-4 -9 -2 -21 4 -27 15 -15 44 -1 40 19 -4 23 -36 29 -44
8z"/>
<path d="M2872 1941 c-20 -12 -10 -46 13 -46 14 0 20 7 20 24 0 27 -13 35 -33
22z"/>
<path d="M4090 1940 c0 -5 9 -10 20 -10 11 0 20 5 20 10 0 6 -9 10 -20 10 -11
0 -20 -4 -20 -10z"/>
<path d="M2322 1923 c-12 -24 -4 -43 18 -43 22 0 34 28 19 46 -15 19 -26 18
-37 -3z"/>
<path d="M3884 1925 c-4 -9 -2 -21 4 -27 15 -15 44 -1 40 19 -4 23 -36 29 -44
8z"/>
<path d="M3984 1925 c-10 -24 12 -42 34 -29 24 16 21 38 -6 42 -13 2 -25 -3
-28 -13z"/>
<path d="M3800 1911 c0 -22 21 -33 40 -21 18 11 4 40 -20 40 -13 0 -20 -7 -20
-19z"/>
<path d="M4126 1906 c3 -9 11 -16 16 -16 13 0 5 23 -10 28 -7 2 -10 -2 -6 -12z"/>
<path d="M2447 1903 c-12 -12 -7 -41 7 -46 19 -7 40 18 32 38 -6 15 -28 20
-39 8z"/>
<path d="M3002 1878 c-7 -7 -12 -20 -12 -30 0 -18 4 -19 78 -22 12 -1 17 7 17
24 0 19 -5 25 -22 25 -11 0 -25 3 -29 8 -10 10 -18 9 -32 -5z"/>
<path d="M4410 1874 c0 -8 5 -12 10 -9 6 3 10 10 10 16 0 5 -4 9 -10 9 -5 0
-10 -7 -10 -16z"/>
<path d="M2792 1861 c-16 -10 -13 -42 4 -48 15 -5 46 26 41 41 -5 14 -28 18
-45 7z"/>
<path d="M2397 1829 c-18 -25 -14 -39 13 -39 24 0 34 30 17 48 -13 12 -17 11
-30 -9z"/>
<path d="M4183 1844 c4 -7 0 -17 -8 -24 -32 -26 -8 -57 29 -38 13 7 21 6 26
-2 4 -7 10 -8 13 -3 3 5 -2 18 -11 29 -20 24 -59 54 -49 38z"/>
<path d="M2556 1824 c-16 -15 -16 -18 -2 -33 15 -14 18 -14 33 2 16 15 16 18
2 33 -15 14 -18 14 -33 -2z"/>
<path d="M2647 1814 c-4 -4 -7 -18 -7 -31 0 -20 5 -24 23 -21 16 2 22 10 22
28 0 24 -23 39 -38 24z"/>
<path d="M2276 1794 c-4 -9 -1 -23 5 -30 15 -18 39 -1 39 27 0 24 -35 26 -44
3z"/>
<path d="M4490 1794 c0 -8 5 -12 10 -9 6 3 10 10 10 16 0 5 -4 9 -10 9 -5 0
-10 -7 -10 -16z"/>
<path d="M3630 1785 c-10 -12 -9 -16 3 -21 17 -6 37 2 37 16 0 15 -29 19 -40
5z"/>
<path d="M4345 1790 c3 -5 8 -10 11 -10 2 0 4 5 4 10 0 6 -5 10 -11 10 -5 0
-7 -4 -4 -10z"/>
<path d="M5340 1792 c0 -4 20 -14 45 -23 25 -9 45 -13 45 -9 0 5 -13 11 -30
15 -16 4 -32 11 -35 16 -7 11 -25 12 -25 1z"/>
<path d="M3471 1776 c-10 -12 -8 -17 8 -25 22 -12 37 0 27 24 -7 19 -20 19
-35 1z"/>
<path d="M4556 1775 c-9 -25 -8 -27 22 -23 16 2 27 9 27 18 0 21 -41 25 -49 5z"/>
<path d="M3754 1755 c-10 -24 12 -42 34 -29 24 16 21 38 -6 42 -13 2 -25 -3
-28 -13z"/>
<path d="M4262 1758 c2 -6 10 -14 16 -16 7 -2 10 2 6 12 -7 18 -28 22 -22 4z"/>
<path d="M2433 1740 c-6 -21 -28 -27 -38 -10 -8 13 -22 5 -35 -20 -15 -28 24
-49 49 -26 10 9 25 16 33 16 21 0 42 26 34 45 -8 22 -37 18 -43 -5z"/>
<path d="M2737 1743 c-11 -10 -8 -41 4 -49 16 -9 43 21 36 40 -7 16 -28 21
-40 9z"/>
<path d="M2910 1735 c-25 -30 10 -61 38 -33 7 7 8 17 1 30 -12 22 -23 23 -39
3z"/>
<path d="M2604 1715 c-4 -9 -2 -21 4 -27 15 -15 44 -1 40 19 -4 23 -36 29 -44
8z"/>
<path d="M5330 1720 c8 -5 24 -9 35 -9 l20 0 -20 9 c-11 5 -27 9 -35 9 -13 1
-13 0 0 -9z"/>
<path d="M3992 1708 c-7 -7 -12 -17 -12 -24 0 -19 27 -24 41 -8 17 21 -10 51
-29 32z"/>
<path d="M4575 1710 c-3 -5 -2 -10 4 -10 5 0 13 5 16 10 3 6 2 10 -4 10 -5 0
-13 -4 -16 -10z"/>
<path d="M5284 1695 c11 -8 27 -15 35 -15 10 1 7 6 -9 15 -33 19 -50 18 -26 0z"/>
<path d="M3690 1685 c-16 -20 -1 -39 26 -33 27 5 32 48 6 48 -11 0 -25 -7 -32
-15z"/>
<path d="M5167 1689 c7 -7 15 -10 18 -7 3 3 -2 9 -12 12 -14 6 -15 5 -6 -5z"/>
<path d="M2497 1663 c-11 -10 -8 -41 4 -49 16 -9 41 20 33 39 -6 17 -25 22
-37 10z"/>
<path d="M4330 1664 c0 -13 18 -39 24 -34 2 3 -2 14 -10 24 -8 11 -14 16 -14
10z"/>
<path d="M2992 1628 c-7 -7 -12 -20 -12 -29 0 -9 -7 -19 -15 -23 -15 -5 -21
-37 -9 -49 4 -3 19 0 34 8 25 13 40 47 40 91 0 17 -22 18 -38 2z"/>
<path d="M5285 1630 c3 -5 10 -10 16 -10 5 0 9 5 9 10 0 6 -7 10 -16 10 -8 0
-12 -4 -9 -10z"/>
<path d="M2344 1606 c-3 -14 -12 -26 -19 -26 -18 0 -48 -37 -40 -49 9 -15 65
-10 65 6 0 6 9 18 21 26 25 18 23 60 -3 65 -12 2 -19 -5 -24 -22z"/>
<path d="M4650 1620 c0 -5 5 -10 10 -10 6 0 10 5 10 10 0 6 -4 10 -10 10 -5 0
-10 -4 -10 -10z"/>
<path d="M2663 1604 c-4 -10 0 -22 8 -28 9 -6 18 -19 22 -29 10 -26 51 -18 55
11 2 14 -3 24 -15 29 -10 3 -22 12 -26 20 -11 18 -36 16 -44 -3z"/>
<path d="M4326 1584 c-16 -15 -16 -18 -1 -35 9 -9 23 -15 30 -13 22 9 25 31 6
49 -17 15 -20 15 -35 -1z"/>
<path d="M4556 1565 c-3 -9 1 -18 10 -22 19 -7 39 11 30 26 -10 16 -33 13 -40
-4z"/>
<path d="M2467 1563 c-13 -12 -7 -41 9 -47 22 -9 34 1 34 30 0 17 -6 24 -18
24 -10 0 -22 -3 -25 -7z"/>
<path d="M3607 1563 c-15 -14 -7 -43 12 -43 22 0 45 25 36 40 -7 11 -38 14
-48 3z"/>
<path d="M4730 1541 c0 -7 7 -19 15 -27 13 -13 15 -13 15 -1 0 8 -7 20 -15 27
-11 9 -15 10 -15 1z"/>
<path d="M2527 1508 c-26 -14 -20 -34 15 -56 34 -22 58 -19 58 7 0 26 -52 61
-73 49z"/>
<path d="M3935 1500 c-7 -12 12 -40 27 -40 16 0 21 32 7 41 -18 12 -26 11 -34
-1z"/>
<path d="M2670 1475 c-16 -19 -5 -47 17 -43 11 2 18 12 18 27 0 29 -17 37 -35
16z"/>
<path d="M2815 1480 c-9 -15 4 -30 26 -30 12 0 19 7 19 20 0 21 -33 29 -45 10z"/>
<path d="M4154 1465 c-4 -9 -2 -21 4 -27 15 -15 44 -1 40 19 -4 23 -36 29 -44
8z"/>
<path d="M3771 1446 c-9 -10 -8 -16 4 -26 19 -16 41 1 32 24 -8 20 -21 20 -36
2z"/>
<path d="M3068 1432 c-5 -19 -46 -29 -153 -37 -92 -6 -161 -19 -180 -31 -22
-16 -61 -18 -69 -5 -3 5 -20 7 -38 5 -18 -1 -36 -3 -40 -3 -5 -1 -8 -8 -8 -16
0 -11 -7 -14 -25 -9 -16 4 -25 2 -25 -6 0 -6 -8 -9 -19 -5 -10 3 -23 -1 -30
-9 -7 -8 -18 -13 -26 -10 -7 3 -16 1 -20 -5 -3 -6 -17 -11 -30 -11 -13 0 -27
-5 -30 -11 -4 -6 -14 -8 -22 -4 -9 3 -25 -2 -35 -12 -11 -10 -34 -18 -51 -19
-62 -3 -142 -29 -145 -47 -4 -22 25 -33 50 -18 24 15 107 33 173 37 94 7 110
9 120 16 6 4 37 5 68 3 32 -1 60 1 63 7 3 5 15 6 26 3 12 -4 27 0 39 11 19 17
21 17 49 0 17 -9 30 -12 30 -7 0 6 7 11 15 11 8 0 15 -4 15 -9 0 -5 19 -8 43
-7 36 2 42 6 40 23 -2 17 5 21 44 27 25 3 72 6 104 6 32 0 60 4 63 8 2 4 28 7
57 5 35 -1 57 3 66 13 8 8 23 12 32 10 9 -3 44 -8 79 -10 38 -3 68 -11 78 -20
21 -21 35 -20 41 4 6 21 37 27 48 10 3 -5 15 -10 27 -10 14 0 18 5 14 16 -3 9
-6 17 -6 20 0 11 -94 44 -108 38 -31 -12 -77 -11 -109 4 -18 8 -48 12 -65 9
-52 -8 -128 13 -128 35 0 23 -16 23 -22 0z"/>
<path d="M3425 1440 c-4 -7 -3 -16 3 -22 14 -14 45 -2 40 15 -6 16 -34 21 -43
7z"/>
<path d="M4410 1421 c0 -27 19 -36 37 -18 18 18 9 37 -18 37 -12 0 -19 -7 -19
-19z"/>
<path d="M4810 1430 c0 -5 7 -10 15 -10 8 0 15 5 15 10 0 6 -7 10 -15 10 -8 0
-15 -4 -15 -10z"/>
<path d="M2271 1401 c-19 -12 -6 -43 16 -39 10 2 18 12 18 22 0 22 -14 29 -34
17z"/>
<path d="M2362 1388 c-15 -15 -16 -45 -2 -53 16 -10 41 16 38 38 -4 25 -20 31
-36 15z"/>
<path d="M3530 1361 c0 -15 6 -21 21 -21 25 0 22 33 -4 38 -12 2 -17 -3 -17
-17z"/>
<path d="M3590 1370 c-11 -7 -11 -11 -1 -24 18 -22 41 -20 41 3 0 22 -21 33
-40 21z"/>
<path d="M5423 1373 c-18 -2 -33 -8 -33 -14 0 -5 -7 -9 -16 -9 -10 0 -14 -6
-11 -14 3 -8 -1 -20 -9 -26 -19 -16 -18 -27 7 -61 11 -16 17 -33 14 -39 -6
-10 -5 -11 34 -15 13 -1 28 -10 33 -19 6 -11 16 -15 28 -11 12 4 26 -2 38 -15
17 -18 20 -19 25 -6 8 21 27 21 27 0 0 -8 4 -13 9 -9 5 3 12 1 16 -5 4 -6 16
-4 31 7 20 13 27 14 34 4 4 -7 10 -9 13 -4 3 5 52 8 109 7 200 -4 335 39 157
50 -34 3 -65 9 -68 14 -3 5 -23 12 -44 15 -21 3 -52 13 -69 21 -17 9 -50 16
-74 16 -24 0 -46 5 -49 10 -3 6 -14 10 -24 10 -11 0 -21 9 -24 22 -5 16 -9 19
-19 11 -15 -13 -148 -5 -148 8 0 10 13 12 47 9 37 -3 47 10 24 31 -11 10 -21
18 -23 17 -2 0 -18 -3 -35 -5z"/>
<path d="M3663 1344 c-8 -23 6 -32 57 -36 39 -2 45 0 45 17 0 16 -6 20 -32 18
-17 -2 -35 2 -38 7 -9 15 -25 12 -32 -6z"/>
<path d="M3842 1344 c5 -25 35 -41 49 -27 18 18 3 43 -26 43 -19 0 -26 -5 -23
-16z"/>
<path d="M3983 1344 c-10 -26 38 -47 52 -24 8 14 -13 40 -32 40 -7 0 -16 -7
-20 -16z"/>
<path d="M4082 1333 c2 -10 14 -19 26 -21 19 -3 23 1 20 15 -2 10 -14 19 -26
21 -19 3 -23 -1 -20 -15z"/>
<path d="M4164 1325 c-7 -17 10 -35 34 -35 20 0 10 44 -11 48 -9 2 -20 -4 -23
-13z"/>
<path d="M4718 1279 c-28 -16 -21 -39 15 -54 37 -16 55 -6 59 35 3 21 -1 25
-27 27 -16 2 -38 -2 -47 -8z"/>
<path d="M5526 1101 c-4 -7 -5 -15 -2 -18 9 -9 19 4 14 18 -4 11 -6 11 -12 0z"/>
</g>
</svg>
