<?xml version="1.0" standalone="no"?>
<!DOCTYPE svg PUBLIC "-//W3C//DTD SVG 20010904//EN"
 "http://www.w3.org/TR/2001/REC-SVG-20010904/DTD/svg10.dtd">
<svg version="1.0" xmlns="http://www.w3.org/2000/svg"
 width="724.000000pt" height="1024.000000pt" viewBox="0 0 724.000000 1024.000000"
 preserveAspectRatio="xMidYMid meet">

<g transform="translate(0.000000,1024.000000) scale(0.100000,-0.100000)"
fill="#000000" stroke="none">
<path d="M1238 9810 c-12 -105 -29 -451 -22 -461 3 -5 27 -20 54 -34 26 -13
57 -37 68 -52 l20 -28 6 25 c4 20 28 295 39 450 l2 35 -77 9 -77 9 -3 56 -3
56 -7 -65z m151 -76 c4 -3 -31 -447 -36 -453 -1 -2 -11 3 -20 11 -10 9 -37 25
-60 37 l-43 21 0 79 c0 43 3 133 7 200 l6 122 71 -7 c39 -4 73 -8 75 -10z"/>
<path d="M6134 9750 c3 -30 11 -116 16 -190 6 -74 17 -215 25 -314 8 -98 12
-183 9 -187 -3 -5 -17 -9 -31 -9 -21 0 -24 -4 -20 -22 3 -13 9 -62 12 -110 l7
-88 52 -1 c47 -1 78 1 83 5 1 0 -13 138 -31 306 -29 280 -30 305 -15 308 9 2
52 -6 95 -17 43 -11 80 -19 82 -17 3 3 -259 359 -280 381 -7 7 -8 -9 -4 -45z
m141 -160 c63 -84 114 -155 112 -156 -1 -2 -40 6 -85 18 -46 11 -85 18 -88 16
-2 -3 7 -115 21 -249 14 -134 29 -274 32 -311 l6 -68 -57 0 c-52 0 -56 2 -56
23 0 13 -3 58 -6 100 l-7 77 27 0 c32 0 32 -25 1 365 -27 333 -28 351 -20 343
3 -3 57 -74 120 -158z"/>
<path d="M4870 9748 c-35 -5 -65 -10 -67 -12 -1 -1 2 -31 8 -67 6 -35 8 -94 6
-131 -5 -62 -4 -68 13 -68 29 0 107 105 169 228 l31 62 -47 -1 c-27 -1 -77 -6
-113 -11z m140 -2 c0 -3 -24 -46 -52 -96 -50 -87 -112 -170 -126 -170 -4 0 -7
56 -8 125 l-1 124 41 6 c113 14 146 17 146 11z"/>
<path d="M2644 9653 c-3 -36 -4 -129 -1 -207 8 -216 52 -431 144 -710 41 -124
45 -144 39 -198 -8 -66 -20 -106 -28 -92 -3 5 -36 96 -74 202 -37 105 -72 192
-77 192 -14 0 -58 -112 -74 -189 -20 -95 -6 -187 41 -286 25 -52 35 -90 40
-145 4 -41 14 -149 22 -238 l16 -164 -25 -36 c-35 -55 -51 -86 -38 -78 6 4 23
28 38 53 23 40 28 43 38 29 34 -45 64 3 49 77 l-9 42 -21 -34 -22 -34 -7 86
c-7 85 -7 89 44 244 28 87 53 170 57 186 7 33 11 33 33 5 25 -30 51 -18 51 24
0 19 -9 65 -20 103 -17 62 -17 71 -4 81 11 9 23 9 43 1 15 -6 36 -7 45 -4 21
8 53 76 110 241 58 163 77 257 78 376 0 165 -48 305 -155 444 -52 69 -89 99
-72 60 73 -172 91 -427 49 -714 -26 -179 -30 -177 -37 15 -12 364 -70 569
-193 685 -29 27 -57 50 -63 50 -5 0 -13 -30 -17 -67z m93 -101 c91 -189 129
-441 112 -738 -5 -82 -11 -156 -12 -164 -4 -19 -78 204 -111 337 -57 222 -86
488 -71 629 7 64 8 67 22 49 9 -11 36 -62 60 -113z m218 78 l20 -25 -22 19
c-13 11 -23 24 -23 29 0 6 1 8 3 6 1 -2 11 -15 22 -29z m-214 3 c12 -14 12
-16 0 -8 -11 6 -13 4 -8 -11 7 -19 7 -19 -8 0 -8 10 -12 23 -9 27 7 12 10 11
25 -8z m24 -44 c-4 -5 -12 -9 -18 -8 -9 0 -8 2 1 6 6 2 9 10 6 15 -4 7 -2 8 5
4 6 -4 9 -12 6 -17z m29 -35 c3 -8 2 -12 -4 -9 -6 3 -10 10 -10 16 0 14 7 11
14 -7z m230 -20 c3 -8 2 -12 -4 -9 -6 3 -10 10 -10 16 0 14 7 11 14 -7z m-47
-46 c-3 -8 -6 -5 -6 6 -1 11 2 17 5 13 3 -3 4 -12 1 -19z m-136 -91 c-10 -9
-11 -8 -5 6 3 10 9 15 12 12 3 -3 0 -11 -7 -18z m13 -113 c3 -8 2 -12 -4 -9
-6 3 -10 10 -10 16 0 14 7 11 14 -7z m10 -80 c3 -8 2 -12 -4 -9 -6 3 -10 10
-10 16 0 14 7 11 14 -7z m249 -85 c-4 -4 -6 18 -3 49 l5 57 3 -49 c2 -27 0
-52 -5 -57z m-216 -46 c-3 -10 -5 -4 -5 12 0 17 2 24 5 18 2 -7 2 -21 0 -30z
m90 -25 c-3 -8 -6 -5 -6 6 -1 11 2 17 5 13 3 -3 4 -12 1 -19z m113 -48 c0 -5
-2 -10 -4 -10 -3 0 -8 5 -11 10 -3 6 -1 10 4 10 6 0 11 -4 11 -10z m-135 -209
c-6 -5 -25 10 -25 20 0 5 6 4 14 -3 8 -7 12 -15 11 -17z m-334 -24 c-10 -9
-11 -8 -5 6 3 10 9 15 12 12 3 -3 0 -11 -7 -18z m236 -29 c-3 -7 -5 -2 -5 12
0 14 2 19 5 13 2 -7 2 -19 0 -25z m30 0 c-3 -8 -6 -5 -6 6 -1 11 2 17 5 13 3
-3 4 -12 1 -19z m-40 -70 c-3 -8 -6 -5 -6 6 -1 11 2 17 5 13 3 -3 4 -12 1 -19z
m60 -30 c-2 -13 -4 -5 -4 17 -1 22 1 32 4 23 2 -10 2 -28 0 -40z m-57 -8 c0
-5 -5 -10 -11 -10 -5 0 -7 5 -4 10 3 6 8 10 11 10 2 0 4 -4 4 -10z m40 -23 c0
-20 0 -20 -14 -2 -8 11 -12 23 -9 28 8 13 23 -3 23 -26z m-313 -19 c-3 -8 -6
-5 -6 6 -1 11 2 17 5 13 3 -3 4 -12 1 -19z m0 -50 c-3 -8 -6 -5 -6 6 -1 11 2
17 5 13 3 -3 4 -12 1 -19z m173 -33 c0 -5 -5 -3 -10 5 -5 8 -10 20 -10 25 0 6
5 3 10 -5 5 -8 10 -19 10 -25z m98 -70 c13 -77 3 -97 -27 -59 -12 15 -19 34
-16 42 3 7 8 32 11 53 9 52 21 39 32 -36z m-110 -182 c2 -1 -11 -48 -29 -105
l-32 -103 -13 100 c-7 55 -13 112 -13 127 l-1 26 43 -21 c23 -12 44 -23 45
-24z m-6 -455 c-2 -10 -8 -18 -12 -18 -16 0 -21 39 -9 62 l13 23 6 -25 c4 -14
4 -33 2 -42z"/>
<path d="M4506 9534 l-98 -147 -71 69 c-40 38 -101 96 -135 129 l-64 60 7
-190 c4 -104 9 -197 11 -206 3 -12 22 -18 64 -23 33 -4 60 -12 60 -17 0 -6
-13 -30 -29 -53 l-29 -42 19 -45 c40 -89 128 -366 138 -438 13 -80 11 -87 -68
-221 l-26 -45 -6 92 c-10 128 -19 193 -30 193 -5 0 -9 -10 -9 -22 0 -35 -52
-136 -104 -202 -25 -33 -46 -68 -46 -78 0 -10 9 -36 20 -58 34 -66 88 -310
121 -540 7 -47 15 -89 19 -93 15 -17 41 352 39 556 l-1 128 78 137 c177 312
251 473 300 647 25 89 28 116 28 245 0 134 -2 150 -27 214 -27 69 -43 96 -57
96 -4 0 -51 -66 -104 -146z m132 79 c36 -84 45 -136 45 -248 -1 -200 -66 -394
-236 -713 -13 -23 -27 -39 -31 -35 -4 4 -4 0 -1 -9 4 -9 2 -19 -3 -22 -6 -3
-13 16 -17 46 -4 29 -20 96 -35 148 -16 52 -26 98 -24 102 3 4 1 8 -4 8 -5 0
-15 19 -23 43 -7 23 -25 73 -40 111 l-27 69 36 56 c48 74 79 112 85 103 2 -4
2 -1 1 6 -4 16 46 93 56 87 3 -2 7 1 7 8 0 24 45 87 56 80 18 -11 38 -12 31
-2 -3 5 -9 7 -14 4 -5 -3 -11 -1 -15 4 -5 9 41 91 52 91 2 0 1 -5 -3 -12 -4
-7 -3 -8 5 -4 6 4 9 11 6 16 -6 9 55 109 66 110 4 0 16 -21 27 -47z m-356
-120 l117 -118 -48 -70 -48 -70 -52 2 c-91 4 -91 5 -91 152 0 70 -3 149 -6
175 -4 25 -3 46 2 46 5 0 62 -53 126 -117z m-16 -1040 c13 -237 4 -713 -15
-713 -3 0 -17 66 -30 148 -29 180 -75 365 -101 410 -11 18 -20 39 -20 46 0 7
24 44 54 83 29 39 62 92 72 117 10 25 22 46 25 46 4 0 10 -62 15 -137z"/>
<path d="M5782 9369 c-24 -9 -42 -45 -42 -87 0 -21 117 -602 145 -719 5 -21 2
-23 -40 -23 l-45 0 0 -47 c0 -117 24 -439 34 -445 6 -4 47 -21 91 -37 44 -16
104 -38 132 -50 l53 -21 21 43 c12 23 22 43 23 44 1 1 19 -3 40 -9 l38 -12 -6
-50 c-9 -64 -53 -287 -62 -311 -5 -12 -4 -16 3 -12 6 4 18 46 28 94 10 49 21
92 25 96 4 5 63 -9 131 -31 140 -45 230 -65 265 -56 52 13 57 131 10 237 -22
49 -26 72 -26 152 0 94 -62 480 -80 499 -17 17 -215 125 -218 118 -1 -4 15
-95 36 -202 l39 -196 103 -154 c143 -214 179 -299 163 -394 -7 -47 -27 -55
-101 -44 -53 8 -285 80 -309 96 -8 5 -7 30 5 97 11 64 16 154 16 310 0 205 -2
227 -26 316 -30 111 -89 231 -150 309 l-44 54 23 86 c50 184 36 220 -108 295
-108 56 -137 65 -167 54z m67 -18 c12 -8 12 -14 1 -41 -19 -46 -7 -219 28
-383 16 -76 32 -140 35 -143 8 -8 86 202 108 291 10 44 19 97 19 118 0 38 13
50 24 21 19 -50 -10 -189 -87 -419 l-44 -131 28 -144 c61 -306 59 -289 37
-296 -11 -3 -22 -4 -24 -1 -3 3 -35 144 -70 314 -36 169 -83 394 -105 498 -43
198 -51 284 -29 310 14 17 57 20 79 6z m111 -56 l70 -35 0 -53 c0 -56 -35
-198 -70 -287 -12 -30 -26 -66 -31 -79 -5 -13 -12 -22 -14 -19 -10 10 -56 278
-62 360 -6 85 6 148 28 148 5 0 41 -16 79 -35z m170 -515 c87 -146 126 -346
117 -594 -4 -82 -10 -153 -15 -158 -10 -10 -63 7 -73 23 -7 12 -228 81 -243
76 -5 -2 43 -23 107 -46 64 -24 117 -45 117 -48 0 -4 -30 -65 -35 -71 -2 -2
-62 18 -133 45 l-131 48 -5 45 c-10 80 -28 421 -23 427 3 3 23 2 44 -1 l38 -7
18 -92 c10 -51 25 -122 34 -159 l15 -66 30 9 c17 4 33 10 35 12 2 3 -15 102
-38 222 l-43 217 34 102 c18 55 37 112 42 126 l10 25 30 -35 c16 -19 47 -64
68 -100z m295 -113 l90 -52 32 -175 c18 -96 31 -180 30 -187 -3 -18 -177 85
-187 111 -10 22 -70 320 -70 343 0 20 8 17 105 -40z m83 -402 l82 -47 0 -79
c0 -43 -2 -79 -5 -79 -2 0 -25 33 -51 73 -26 39 -65 99 -87 131 -22 32 -36 57
-31 54 5 -3 46 -27 92 -53z"/>
<path d="M1096 9098 c-2 -18 -12 -213 -20 -432 l-16 -400 27 -45 c40 -69 75
-113 84 -104 4 4 33 94 64 198 104 354 125 409 215 594 49 101 90 187 90 192
0 13 -50 18 -252 24 l-187 7 -5 -34z m340 6 l92 -6 -94 -195 c-94 -195 -103
-219 -229 -645 -21 -70 -42 -125 -46 -122 -5 3 -27 36 -49 73 -37 63 -40 72
-35 122 3 30 10 178 15 329 6 151 13 316 16 366 l7 91 116 -4 c64 -2 157 -6
207 -9z"/>
<path d="M942 9074 c-32 -22 -30 -69 4 -91 24 -15 29 -15 53 -2 36 20 41 71 9
93 -28 20 -38 20 -66 0z"/>
<path d="M902 8873 c-22 -41 -35 -180 -36 -377 l-1 -209 37 -2 c20 -1 41 1 47
5 10 6 32 151 61 410 6 47 13 97 16 113 5 25 3 27 -28 28 -18 1 -46 0 -62 -1
-26 -2 -28 0 -22 24 7 30 1 34 -12 9z m108 -65 c0 -13 -14 -129 -30 -258 -16
-129 -30 -238 -30 -242 0 -5 -18 -8 -40 -8 l-40 0 0 108 c0 115 17 376 26 405
4 13 17 17 60 17 49 0 54 -2 54 -22z"/>
<path d="M1067 8097 c-3 -56 -17 -167 -31 -247 -37 -214 -41 -191 26 -193 40
-1 59 2 63 11 10 27 4 229 -10 327 -24 175 -28 195 -35 200 -4 2 -10 -42 -13
-98z m43 -167 c6 -58 10 -139 8 -180 l-3 -75 -47 -3 c-30 -2 -48 1 -48 8 0 6
11 70 24 143 14 73 28 166 32 207 7 67 8 71 15 40 4 -19 13 -82 19 -140z"/>
<path d="M4656 7260 c-3 -30 -10 -147 -16 -260 -6 -113 -13 -235 -16 -272 -3
-38 -3 -68 0 -68 3 0 24 24 46 54 l41 54 120 7 c65 4 119 12 119 17 0 14 -262
479 -267 474 -3 -2 52 -106 121 -230 69 -123 126 -230 126 -235 0 -28 -25 -1
-120 129 -56 77 -105 140 -110 140 -8 0 -15 -64 -26 -235 -6 -95 -16 -135 -32
-135 -8 0 12 375 26 505 5 44 6 87 1 95 -4 8 -9 -7 -13 -40z m143 -335 c50
-69 91 -127 91 -129 0 -2 -40 -6 -90 -8 -52 -3 -97 -11 -106 -18 -13 -12 -15
-8 -10 36 3 27 8 93 12 147 3 53 7 97 9 97 2 0 44 -56 94 -125z"/>
<path d="M3016 7131 l-118 -119 123 -153 c68 -85 153 -190 190 -235 66 -80 68
-82 98 -205 52 -208 97 -519 75 -519 -5 0 -22 18 -38 40 -31 42 -51 45 -36 5
5 -14 22 -73 36 -132 22 -86 27 -129 26 -212 -1 -92 -5 -113 -34 -187 -18 -46
-35 -84 -38 -83 -3 0 -35 37 -72 82 -57 70 -169 198 -315 360 -64 71 -46 29
24 -54 163 -198 276 -350 318 -431 44 -84 66 -108 98 -108 19 0 32 34 58 160
19 89 23 137 23 320 1 135 -4 249 -13 308 l-14 93 49 51 c68 69 296 281 317
293 12 7 21 39 33 118 8 60 21 131 28 158 7 27 11 51 8 53 -4 5 -120 -126
-326 -369 -91 -107 -111 -125 -116 -109 -4 10 -11 85 -14 167 l-8 147 69 98
c89 124 146 218 142 231 -9 24 -153 181 -160 174 -4 -4 -31 -123 -59 -263 -29
-140 -53 -256 -55 -258 -3 -4 -29 95 -100 393 -36 149 -69 278 -73 288 -6 14
-28 -4 -126 -102z m137 17 c9 -40 45 -192 81 -338 35 -146 63 -266 62 -267 -2
-3 -350 428 -367 455 -13 21 -10 27 91 122 58 54 108 99 111 100 3 0 13 -33
22 -72z m353 -166 c33 -37 64 -73 68 -79 11 -19 -226 -374 -241 -360 -3 4 32
186 94 480 3 15 8 27 12 27 3 0 33 -31 67 -68z m293 -424 l-22 -136 -46 -35
c-25 -20 -107 -94 -181 -165 -74 -72 -136 -129 -138 -127 -2 2 -6 28 -9 58
l-5 55 208 244 c115 135 210 244 212 243 1 -1 -8 -63 -19 -137z m-429 -74 c0
-30 7 -145 16 -255 8 -110 13 -206 10 -212 -2 -7 -5 4 -5 23 -2 67 -66 400
-88 458 -4 10 -2 13 5 8 6 -3 19 4 29 18 25 33 33 24 33 -40z m56 -696 c12
-187 -17 -193 -60 -13 -14 61 -28 121 -32 135 -5 22 -1 21 30 -14 l36 -39 1
69 2 69 9 -55 c4 -30 11 -99 14 -152z m4 -172 c0 -102 -49 -397 -70 -419 -17
-19 -52 17 -89 91 -21 42 -71 119 -110 170 -39 50 -70 92 -68 92 2 0 51 -54
108 -120 57 -65 107 -116 111 -112 20 20 68 180 74 245 6 66 9 74 25 70 11 -3
19 -10 19 -17z"/>
<path d="M5697 7090 c-75 -68 -137 -126 -137 -129 0 -3 52 -40 115 -81 77 -50
113 -80 110 -90 -2 -8 -7 -53 -10 -100 l-7 -85 82 -136 81 -137 -15 -373 c-9
-206 -17 -426 -18 -489 l-3 -115 47 -3 47 -3 -6 -34 c-5 -33 -4 -34 38 -46 24
-7 65 -13 90 -13 30 -1 54 -7 66 -18 11 -10 24 -18 30 -18 6 0 48 35 93 78 72
67 88 88 114 152 l31 74 108 32 c60 17 112 36 117 40 13 13 50 282 56 409 7
122 -3 165 -36 165 -22 0 -77 -76 -119 -168 -23 -49 -26 -52 -63 -52 -21 0
-38 4 -38 8 0 5 35 83 78 173 44 90 93 194 110 230 18 37 32 76 32 87 0 39
-38 109 -79 144 -50 43 -98 58 -182 58 l-64 0 -54 -65 c-29 -36 -57 -65 -62
-65 -4 0 -108 66 -230 146 l-221 146 5 37 c13 81 38 342 35 352 -2 7 -66 -44
-141 -111z m127 58 c-7 -52 -34 -302 -34 -315 0 -7 -47 18 -105 55 -57 37
-103 71 -102 75 3 11 230 216 239 217 4 0 5 -15 2 -32z m199 -499 c116 -78
213 -143 215 -144 2 -2 -44 -73 -102 -159 l-105 -157 -126 212 -127 211 7 62
c7 74 15 116 21 116 2 0 100 -64 217 -141z m535 -38 c51 -26 97 -81 112 -137
l12 -43 -222 -278 c-122 -153 -226 -279 -230 -281 -7 -3 -132 198 -178 285
-11 19 -1 39 92 177 56 85 132 189 167 231 l64 77 71 -5 c43 -3 87 -13 112
-26z m79 -268 c-8 -14 -138 -287 -307 -645 l-164 -348 -50 1 c-28 0 -70 4 -93
7 l-43 7 128 243 127 244 199 249 c172 215 223 275 203 242z m-493 -636 c-41
-78 -98 -188 -127 -245 -50 -98 -53 -103 -82 -100 l-30 3 3 80 c1 44 7 181 12
305 5 124 12 301 16 393 l7 169 137 -232 138 -232 -74 -141z m570 407 c6 -26
5 -82 -3 -164 -12 -126 -38 -315 -46 -337 -3 -10 -204 -78 -210 -71 -1 2 33
88 76 192 44 105 79 196 79 203 0 7 -11 13 -25 13 l-25 0 36 73 c43 86 82 139
97 134 6 -2 16 -21 21 -43z m-117 -191 c-3 -5 -53 -125 -112 -268 l-107 -260
-71 -73 c-92 -94 -96 -96 -132 -68 l-28 22 103 220 c56 120 125 267 153 327
l50 107 74 0 c41 0 72 -3 70 -7z m-450 -588 c9 -3 9 -11 0 -34 -10 -27 -16
-31 -47 -31 -41 0 -110 18 -110 28 0 4 3 16 6 27 5 19 12 21 72 17 37 -2 72
-5 79 -7z"/>
<path d="M1045 7023 c19 -75 24 -154 14 -242 -6 -51 -8 -95 -5 -98 3 -3 49 -5
103 -4 133 3 137 1 114 -53 -10 -23 -22 -56 -25 -73 -8 -35 -31 -43 -120 -43
l-51 0 -125 216 c-69 119 -131 219 -139 222 -46 18 -170 -103 -285 -277 -111
-169 -128 -198 -118 -205 22 -13 476 -186 490 -186 8 0 91 21 184 46 93 26
170 45 172 43 12 -17 46 -82 44 -84 -2 -2 -108 -58 -236 -125 -174 -92 -232
-126 -230 -139 2 -9 7 -15 11 -14 4 0 110 54 235 120 125 65 230 119 233 121
3 1 35 -26 71 -61 l65 -64 -79 -111 -78 -112 10 -67 c31 -199 83 -397 102
-391 6 2 50 72 97 154 146 255 221 379 262 433 50 66 59 112 59 295 0 284 -67
460 -196 517 -34 15 -50 17 -97 9 -30 -5 -70 -16 -87 -25 -18 -9 -39 -14 -47
-10 -9 3 -89 57 -179 120 -89 63 -165 115 -169 115 -4 0 -4 -12 0 -27z m186
-114 l159 -112 -40 -40 c-22 -23 -43 -49 -46 -60 -3 -11 -12 -16 -21 -13 -8 3
-61 6 -119 6 l-104 0 7 48 c10 64 10 188 0 240 -4 23 -5 42 -1 42 3 0 77 -50
165 -111z m-421 18 c0 -8 -11 -19 -25 -25 -65 -30 -170 -152 -250 -292 -21
-36 -50 -75 -64 -87 -14 -12 -22 -22 -17 -23 5 0 18 7 28 17 21 19 4 27 231
-102 98 -55 177 -106 177 -112 0 -9 -7 -10 -22 -4 -142 55 -398 155 -416 162
-15 6 -20 13 -16 21 5 7 9 20 9 29 3 32 148 248 224 332 34 38 115 97 133 97
4 0 8 -6 8 -13z m10 -43 c0 -8 14 -132 31 -276 17 -143 28 -262 26 -265 -3 -2
-86 42 -185 99 l-180 103 15 30 c56 109 182 265 248 306 37 23 45 24 45 3z
m178 -265 l72 -125 84 4 83 4 6 -58 c3 -32 5 -59 4 -59 -39 -18 -310 -83 -322
-78 -13 4 -16 3 -11 -5 4 -7 3 -12 -3 -12 -5 0 -10 8 -10 18 0 9 -16 141 -35
292 -20 151 -36 282 -36 290 0 16 47 -61 168 -271z m558 165 c-4 -31 -9 -61
-12 -65 -3 -5 -32 9 -66 32 -39 27 -57 44 -50 51 14 14 83 37 111 38 23 0 24
-2 17 -56z m159 -36 c63 -91 95 -243 94 -443 -2 -193 -14 -199 -23 -10 -11
246 -33 324 -135 474 -23 33 -41 62 -41 66 0 16 79 -48 105 -87z m-130 15 c-7
-60 -11 -70 -21 -61 -9 10 7 118 18 118 7 0 8 -21 3 -57z m95 -63 c52 -89 80
-176 80 -250 0 -33 -3 -60 -6 -60 -3 0 -22 14 -43 31 -36 29 -39 35 -45 101
-8 79 -20 112 -52 148 -20 22 -22 32 -17 84 l6 59 19 -23 c11 -13 37 -54 58
-90z m-235 7 c-68 -56 -105 -147 -105 -262 0 -39 4 -84 9 -101 8 -28 6 -33
-15 -42 -21 -10 -25 -7 -48 41 -36 72 -43 159 -21 228 26 80 59 140 100 181
l37 38 38 -28 38 -27 -33 -28z m69 4 c3 -5 22 -12 41 -15 46 -9 80 -60 94
-140 16 -88 14 -102 -20 -141 -67 -76 -117 -77 -158 -5 -26 47 -27 81 -2 111
17 22 22 23 50 12 37 -14 40 -9 7 12 -33 22 -59 7 -80 -46 -16 -39 -16 -42 6
-81 51 -91 103 -98 174 -24 l41 43 47 -35 c41 -30 47 -38 41 -61 -8 -34 -47
-93 -97 -147 -38 -41 -44 -44 -92 -44 -93 0 -168 70 -203 189 -37 130 14 318
102 369 24 14 42 15 49 3z m257 -457 c-3 -6 -32 -40 -64 -74 -41 -44 -61 -60
-69 -52 -8 8 3 26 35 63 26 29 57 72 69 96 l23 44 6 -33 c3 -18 3 -38 0 -44z
m-338 -58 c24 -25 34 -43 28 -49 -11 -11 -121 88 -121 109 0 22 25 23 40 0 8
-11 32 -39 53 -60z m347 -41 c0 -73 -1 -77 -49 -147 -26 -40 -104 -167 -171
-283 -68 -115 -131 -223 -141 -240 l-18 -29 -11 29 c-29 76 -80 326 -80 392 0
25 18 57 75 137 l75 104 37 -14 c41 -14 105 -18 138 -8 11 4 45 35 75 69 30
35 58 64 63 64 4 1 7 -33 7 -74z m-202 -21 c37 -5 52 -11 52 -22 0 -12 -10
-14 -52 -9 -66 7 -111 23 -102 38 3 6 16 8 28 5 11 -3 45 -9 74 -12z"/>
<path d="M2519 6726 l-77 -71 -6 -185 c-9 -225 -29 -449 -56 -603 l-20 -116
57 -130 c31 -72 60 -131 63 -131 4 0 13 35 19 78 10 72 15 124 41 397 13 136
37 442 50 635 6 80 12 155 14 168 2 12 1 24 -3 26 -3 2 -40 -28 -82 -68z m51
-238 c-41 -529 -82 -953 -93 -964 -2 -2 -27 49 -55 115 -44 106 -49 124 -42
158 34 151 70 533 70 743 l0 108 67 60 c37 34 69 59 71 57 2 -2 -6 -126 -18
-277z"/>
<path d="M2688 6778 c-9 -17 -14 -105 -16 -325 l-4 -302 39 -19 c61 -31 134
-53 154 -47 39 13 20 314 -31 495 -32 111 -92 220 -121 220 -5 0 -14 -10 -21
-22z m55 -28 c66 -93 116 -297 124 -512 l6 -138 -32 0 c-17 0 -61 13 -97 30
l-66 30 5 287 c5 271 10 343 26 343 3 0 18 -18 34 -40z"/>
<path d="M2345 6528 c-36 -105 -38 -118 -36 -215 1 -56 -5 -163 -15 -238 l-17
-136 28 -70 c15 -39 30 -68 32 -65 9 8 23 93 38 231 18 156 31 605 17 605 -5
0 -26 -50 -47 -112z m36 -218 c-9 -194 -35 -457 -46 -468 -2 -2 -13 18 -25 45
-19 44 -20 55 -11 123 19 129 30 313 23 354 -6 31 -1 59 23 128 42 124 49 91
36 -182z"/>
<path d="M4752 6560 c-45 -4 -85 -9 -87 -12 -3 -2 17 -74 44 -159 81 -255 152
-473 157 -481 9 -14 -5 -9 -83 27 l-76 35 7 -41 c19 -116 -47 -177 -254 -239
-97 -29 -147 -55 -155 -80 -4 -14 12 -49 59 -123 73 -117 159 -284 174 -338 5
-20 8 -48 5 -61 -6 -33 31 -62 112 -87 75 -23 263 -47 275 -35 22 24 120 382
120 440 0 14 -5 34 -11 45 -7 13 -7 24 -1 32 5 7 33 62 61 123 l50 112 -37 72
c-36 70 -37 76 -37 179 l0 106 74 154 c75 156 93 220 72 260 -36 66 -216 93
-469 71z m367 -25 c29 -7 65 -24 78 -37 22 -20 24 -29 19 -68 -3 -25 -38 -111
-77 -192 -38 -81 -75 -174 -82 -206 l-12 -60 -45 129 c-24 71 -48 129 -52 129
-4 0 16 -64 44 -142 28 -79 61 -175 73 -215 13 -40 33 -90 46 -112 12 -23 21
-43 18 -45 -3 -3 -225 157 -245 177 -4 4 -204 628 -204 637 0 14 38 17 215 19
119 0 186 -4 224 -14z m-315 -624 l64 -29 7 -103 c7 -116 1 -141 -59 -231 -43
-63 -158 -191 -203 -225 l-35 -27 -51 59 c-29 33 -87 94 -129 136 -120 118
-113 131 100 199 168 53 232 110 232 208 0 23 2 42 5 42 3 0 34 -13 69 -29z
m203 -126 c62 -47 113 -90 113 -95 0 -19 -79 -181 -136 -277 -87 -148 -197
-253 -264 -253 -34 0 -55 16 -95 70 l-37 50 84 82 c96 95 155 169 194 247 28
57 33 110 19 212 -4 27 -3 49 1 49 4 0 58 -38 121 -85z m-540 -382 c38 -43 90
-105 115 -139 26 -33 63 -75 83 -93 28 -24 41 -47 56 -99 10 -37 19 -70 19
-73 0 -8 -96 14 -141 34 -34 14 -36 18 -42 71 -6 60 -63 191 -135 309 -22 37
-37 67 -32 67 4 0 39 -35 77 -77z m558 -70 c-16 -84 -92 -343 -104 -356 -6 -6
-164 10 -167 16 -6 15 -34 131 -34 142 0 8 7 15 15 15 62 0 178 113 260 254
26 44 29 47 37 27 4 -12 1 -53 -7 -98z"/>
<path d="M1141 6059 c-85 -33 -156 -60 -157 -62 -1 -1 -54 -96 -118 -212
l-117 -209 11 -48 c6 -31 77 -167 201 -386 105 -185 195 -341 200 -347 14 -15
11 37 -15 230 -60 443 -68 519 -58 550 5 16 57 146 115 288 58 141 103 257 99
256 -4 0 -76 -27 -161 -60z m118 26 c-22 -25 -469 -470 -469 -467 0 3 46 87
101 188 l102 182 131 51 c139 53 142 54 135 46z m-6 -67 c-9 -24 -56 -140
-104 -258 l-88 -215 -122 -23 c-146 -28 -169 -25 -169 21 0 29 21 53 192 222
106 105 185 181 177 170 -9 -11 -91 -109 -184 -218 -92 -109 -165 -200 -163
-203 3 -2 110 120 238 271 129 151 235 275 237 275 1 0 -5 -19 -14 -42z m-183
-505 c1 -10 20 -166 44 -348 24 -181 42 -331 41 -333 -1 -1 -84 142 -184 319
-100 177 -180 324 -176 327 5 6 225 49 258 51 10 1 17 -6 17 -16z"/>
<path d="M2676 5998 c-12 -197 -14 -298 -6 -303 10 -6 149 216 180 288 30 68
9 86 -117 102 l-51 7 -6 -94z m134 59 c19 -7 36 -20 38 -30 4 -22 -30 -91
-107 -212 l-56 -90 -3 40 c-2 22 -1 100 3 173 l7 132 42 -1 c22 0 57 -5 76
-12z"/>
<path d="M3532 4493 c-11 -27 -23 -65 -27 -86 -6 -31 -10 -35 -21 -26 -9 7
-32 10 -62 6 -62 -7 -633 -156 -649 -169 -16 -13 -17 -72 -2 -101 6 -12 23
-31 37 -43 24 -20 25 -22 9 -45 -20 -28 -22 -79 -4 -101 6 -9 30 -25 51 -36
l39 -19 -36 -7 c-39 -7 -67 -29 -67 -51 0 -7 15 -36 34 -63 l34 -51 -29 -6
c-43 -10 -79 -43 -79 -72 0 -29 36 -93 52 -93 6 0 -10 -22 -36 -50 -68 -73
-63 -111 22 -154 l33 -17 -46 -44 c-60 -59 -60 -99 3 -134 16 -9 15 -11 -4
-33 -31 -35 -34 -52 -14 -86 13 -21 36 -37 79 -53 l60 -24 -57 -26 c-66 -30
-95 -59 -86 -83 3 -9 36 -34 73 -55 36 -22 86 -61 111 -86 63 -66 117 -89 188
-80 31 4 66 11 79 16 13 5 23 7 23 6 0 -2 -13 -122 -30 -267 -32 -280 -33
-297 -24 -288 3 3 23 122 45 264 21 143 41 269 44 281 5 22 7 22 143 16 140
-5 192 3 192 30 0 19 -52 27 -185 27 -60 0 -116 4 -123 9 -10 6 -12 21 -7 54
7 46 7 46 39 39 17 -4 85 -7 151 -7 135 0 198 15 272 66 118 81 59 111 -256
129 -90 5 -166 12 -170 15 -12 13 27 25 84 25 92 0 250 27 295 50 44 23 71 63
53 81 -20 20 -90 29 -247 29 l-158 0 6 23 c3 12 6 27 6 33 0 7 38 13 103 17
122 7 227 29 281 60 73 42 73 74 0 82 -35 4 -36 4 -8 -4 51 -13 58 -20 39 -41
-40 -44 -146 -72 -329 -86 -84 -7 -88 -6 -83 12 3 10 9 38 12 62 4 23 7 43 8
43 1 1 74 8 162 15 l160 13 -161 -5 -162 -5 5 25 c5 25 8 26 76 26 133 0 233
26 285 73 29 27 28 43 -4 64 -29 19 -167 23 -276 9 -48 -6 -57 -5 -52 7 3 10
30 16 87 21 105 9 204 29 262 55 36 16 45 25 45 45 0 42 -55 52 -203 37 -67
-7 -132 -15 -144 -18 -20 -4 -23 -1 -23 23 0 49 11 55 116 65 182 17 266 48
244 89 -20 38 -157 49 -297 24 -31 -6 -33 -5 -33 24 0 37 7 38 213 48 81 4
150 11 153 16 12 19 -31 48 -85 58 -30 5 -101 10 -158 10 l-104 0 6 33 c3 17
17 106 30 197 14 91 27 175 30 188 9 39 -12 23 -33 -25z m-53 -449 c-94 -611
-107 -696 -134 -879 -31 -212 -62 -407 -74 -475 l-10 -55 4 65 c12 180 128
1036 186 1379 37 220 83 421 93 410 2 -2 -27 -203 -65 -445z m0 322 c9 -11 6
-42 -13 -136 -14 -67 -27 -125 -30 -127 -5 -6 -25 -7 -355 -28 -164 -10 -230
-11 -247 -3 -49 22 -82 111 -51 135 6 6 77 27 157 48 80 21 219 57 310 81 181
47 212 51 229 30z m-43 -292 c-3 -9 -6 -27 -6 -40 l0 -24 -152 0 c-142 1 -382
20 -394 33 -6 6 71 13 351 31 105 7 194 14 199 15 4 0 5 -6 2 -15z m357 -4
c20 -6 37 -15 37 -20 0 -14 -31 -18 -192 -25 -144 -6 -148 -6 -148 13 0 54 3
55 139 49 69 -3 143 -10 164 -17z m-808 -56 c55 -7 175 -13 268 -13 l167 -1 0
-29 c0 -17 -5 -33 -10 -36 -6 -4 -59 -11 -118 -16 -59 -6 -160 -16 -225 -24
-73 -9 -127 -11 -142 -5 -32 12 -66 64 -73 112 -5 38 -3 41 14 33 10 -5 64
-14 119 -21z m-145 -22 c0 -9 9 -32 20 -50 26 -43 25 -45 -9 -27 -33 17 -46
45 -37 81 7 27 26 24 26 -4z m940 -62 c28 -15 25 -35 -7 -49 -25 -11 -159 -33
-266 -44 l-48 -5 6 42 c4 22 10 44 14 48 10 12 162 27 224 22 32 -2 67 -8 77
-14z m-370 -34 c0 -8 -4 -25 -9 -38 -9 -24 -10 -24 -107 -16 -127 9 -292 30
-278 35 20 7 268 30 332 32 48 1 62 -2 62 -13z m-286 -50 c67 -8 155 -17 197
-21 l75 -6 -5 -41 c-5 -36 -10 -43 -36 -50 -39 -10 -453 -31 -465 -23 -19 12
-11 91 12 121 32 41 39 45 72 39 17 -3 84 -12 150 -19z m-228 -5 c-10 -11 -23
-39 -30 -62 l-13 -44 -17 33 c-30 59 -12 87 58 91 18 1 18 0 2 -18z m911 -107
c8 -22 -13 -39 -72 -59 -53 -18 -291 -52 -300 -44 -3 3 -2 26 1 51 l6 46 67
10 c36 5 117 10 179 11 94 1 114 -2 119 -15z m-431 -46 c-3 -13 -6 -34 -6 -47
l0 -24 -117 6 c-80 4 -147 14 -206 31 -49 13 -91 27 -93 29 -5 5 252 23 365
25 61 2 63 1 57 -20z m-384 -32 c111 -33 192 -47 288 -48 44 -1 80 -4 80 -7 0
-5 -223 -36 -490 -68 -25 -3 -43 1 -60 15 -22 18 -23 21 -10 51 15 37 79 94
97 86 7 -2 50 -15 95 -29z m-164 -1 c-15 -14 -31 -33 -37 -42 -13 -24 -25 -10
-17 20 5 23 36 45 66 46 10 1 5 -8 -12 -24z m916 -75 c33 -12 33 -25 1 -54
-35 -32 -126 -56 -243 -63 l-99 -6 8 49 c4 27 8 54 8 61 1 6 18 14 39 16 80 8
262 7 286 -3z m-390 -57 c-3 -32 -8 -61 -11 -65 -8 -15 -101 -8 -250 17 -81
14 -164 29 -183 34 -33 8 -34 8 -10 14 21 6 283 38 400 50 19 2 41 5 48 5 11
2 12 -11 6 -55z m-334 -50 c69 -13 169 -27 223 -30 86 -5 97 -8 97 -24 0 -11
-1 -19 -2 -19 -78 -3 -299 -36 -373 -55 -55 -14 -105 -25 -112 -25 -7 0 -22
15 -34 33 -23 37 -21 89 6 131 15 22 23 26 44 21 14 -4 82 -18 151 -32z m-215
-3 c-17 -34 -20 -83 -5 -111 15 -27 -7 -25 -37 3 -32 30 -29 62 12 103 43 43
50 44 30 5z m525 -109 c0 -10 -3 -40 -7 -66 l-6 -48 -126 6 c-120 5 -301 39
-301 57 0 17 271 67 378 69 54 1 62 -1 62 -18z m-375 -87 c72 -19 136 -28 228
-31 l127 -6 0 -29 c0 -16 -6 -31 -12 -33 -34 -11 -460 -37 -469 -28 -20 20
-22 80 -4 117 10 20 20 36 24 36 3 0 51 -12 106 -26z m-150 -69 c0 -36 -3 -65
-7 -65 -14 0 -48 39 -48 54 0 11 46 76 53 76 1 0 2 -29 2 -65z m893 -44 c24
-5 49 -14 55 -20 18 -18 -29 -57 -91 -75 -61 -17 -209 -36 -280 -36 l-44 0 7
53 c12 90 6 87 168 87 78 -1 161 -5 185 -9z m-391 -18 c-3 -10 -8 -40 -12 -66
-6 -46 -8 -48 -33 -43 -215 45 -405 86 -408 89 -4 4 336 32 419 36 32 1 38 -2
34 -16z m-355 -57 c62 -14 160 -34 218 -46 169 -35 159 -47 -63 -78 -171 -24
-169 -25 -238 29 -39 31 -65 79 -55 104 7 19 4 19 138 -9z m-149 -24 c3 -16
23 -45 44 -65 43 -42 36 -47 -21 -14 -49 27 -61 46 -52 80 8 35 22 34 29 -1z
m804 -102 c124 -12 193 -28 193 -45 0 -22 -70 -74 -130 -97 -43 -16 -79 -21
-165 -22 -60 -1 -131 3 -156 7 l-46 8 13 75 c7 41 15 78 18 82 5 9 131 5 273
-8z m-331 -36 c-3 -26 -6 -57 -6 -70 0 -13 -6 -24 -12 -24 -21 0 -279 92 -273
98 6 6 224 39 269 41 29 1 29 1 22 -45z m-171 -59 l150 -54 -2 -52 c-2 -28 -5
-54 -8 -57 -7 -7 -329 76 -382 99 -26 11 -43 24 -41 32 6 17 100 87 118 87 8
-1 83 -25 165 -55z m-266 6 c-34 -34 -37 -56 -9 -71 29 -16 138 -48 285 -85
71 -18 131 -37 132 -42 6 -19 -18 -36 -73 -49 -91 -22 -122 -12 -206 63 -40
35 -97 79 -128 97 -68 40 -74 69 -20 97 48 26 53 24 19 -10z m669 -197 c50 -4
89 -10 87 -15 -16 -25 -304 -17 -313 9 -4 14 77 16 226 6z m-251 -81 c-3 -10
-5 -4 -5 12 0 17 2 24 5 18 2 -7 2 -21 0 -30z"/>
<path d="M4735 4353 c-13 -336 -16 -303 28 -325 21 -11 41 -18 44 -14 4 3 12
75 19 159 7 83 15 170 18 192 5 35 0 48 -41 108 -25 37 -50 67 -54 67 -4 0
-10 -84 -14 -187z m64 106 l34 -50 -13 -162 c-7 -89 -15 -177 -19 -194 l-6
-33 -33 20 c-23 14 -32 26 -28 38 3 9 8 110 12 225 4 114 9 207 13 207 3 0 21
-23 40 -51z"/>
<path d="M838 4295 c4 -111 3 -116 -21 -145 -43 -51 -52 -93 -51 -250 0 -104
7 -182 23 -275 19 -106 22 -151 17 -244 l-5 -113 29 -29 c15 -16 37 -29 48
-29 23 0 72 53 72 77 0 8 -18 37 -41 64 -22 27 -38 49 -35 49 11 0 121 -43
129 -50 5 -4 1 -31 -7 -61 -18 -58 -20 -82 -7 -59 8 14 91 314 129 468 9 34
19 62 24 62 17 0 148 -85 205 -133 81 -69 144 -147 186 -232 50 -100 67 -170
67 -269 l0 -86 -90 71 c-50 39 -96 69 -104 66 -19 -7 -81 -105 -96 -151 -26
-80 3 -202 65 -268 19 -21 41 -29 100 -39 41 -7 80 -16 85 -19 14 -9 -15 -112
-48 -173 -30 -57 -49 -67 -175 -97 -88 -21 -260 -27 -329 -11 l-38 9 0 -38 c0
-60 10 -63 164 -50 75 6 150 15 168 21 52 14 56 12 64 -38 15 -102 66 -167
155 -201 l52 -19 -59 -16 -59 -17 47 5 c75 7 207 56 273 100 118 79 136 171
59 303 -14 24 -28 42 -30 39 -3 -2 7 -24 21 -48 80 -140 46 -238 -112 -316
-90 -44 -127 -46 -205 -11 -61 28 -100 72 -118 133 -15 52 -10 109 10 113 13
2 16 -9 17 -52 2 -86 31 -128 113 -165 75 -34 107 -29 174 31 32 28 62 62 67
75 5 13 25 31 44 39 19 8 35 18 35 24 0 5 -12 42 -27 82 -42 117 -43 113 72
251 56 67 137 160 181 206 73 78 77 85 59 95 -11 6 -53 44 -93 85 -84 87 -76
89 -147 -34 l-47 -80 7 60 c10 97 54 329 91 483 19 79 34 150 34 157 0 17 -52
37 -86 33 -28 -3 -30 -7 -77 -168 -55 -193 -79 -270 -82 -270 -2 0 -18 15 -36
33 -19 18 -50 46 -69 62 -26 22 -46 57 -75 130 -45 113 -153 315 -261 489
l-74 118 24 92 c13 50 23 92 22 93 -1 1 -83 14 -181 28 -257 36 -235 29 -235
81 0 24 -3 44 -7 44 -5 0 -6 -52 -5 -115z m262 -26 c80 -11 147 -23 149 -25 2
-2 -9 -24 -23 -49 -15 -25 -44 -108 -66 -186 -21 -77 -40 -142 -43 -145 -2 -2
-59 22 -125 53 -87 41 -123 64 -126 78 -3 11 -7 85 -10 164 l-5 144 52 -6 c29
-3 117 -16 197 -28z m88 -265 c-44 -167 -45 -170 -53 -162 -3 3 13 72 35 154
47 174 49 178 55 172 3 -3 -14 -77 -37 -164z m-334 -66 c4 -117 10 -235 13
-263 l6 -50 -22 20 c-22 19 -23 23 -18 195 4 127 3 150 -3 85 -4 -49 -8 -137
-9 -195 -2 -140 -15 -157 -30 -38 -21 159 -25 271 -11 342 11 60 40 116 59
116 5 0 11 -96 15 -212z m451 -28 c93 -151 181 -316 229 -428 45 -104 45 -115
2 -36 -18 34 -49 84 -70 112 -49 67 -174 183 -247 230 -32 20 -59 43 -59 50 0
29 54 212 61 205 4 -4 42 -64 84 -133z m-282 -21 c71 -36 87 -48 87 -66 0 -13
-3 -23 -7 -23 -5 0 -53 16 -108 36 -55 20 -106 38 -112 40 -8 2 -13 20 -13 44
l0 40 33 -13 c17 -8 71 -34 120 -58z m-8 -73 c65 -26 79 -36 77 -52 -6 -33
-83 -318 -92 -341 -8 -18 -17 -23 -49 -23 -21 0 -55 7 -75 15 -20 8 -36 12
-36 7 0 -4 23 -35 50 -70 54 -66 55 -76 11 -116 -21 -19 -22 -19 -49 1 -26 19
-27 25 -30 119 -2 54 0 140 3 191 l7 92 25 -16 25 -17 -7 128 -8 128 34 -7
c19 -4 70 -21 114 -39z m121 -2 c-3 -9 -6 -20 -6 -25 0 -6 -4 -8 -9 -5 -12 8
-2 46 11 46 6 0 7 -7 4 -16z m95 -50 c72 -52 190 -163 221 -209 12 -16 -10 0
-48 36 -68 66 -156 130 -224 164 -44 22 -42 19 -34 39 9 23 15 21 85 -30z
m-154 -176 c-24 -90 -47 -175 -51 -190 -4 -19 -13 -28 -26 -28 -18 0 -41 20
-23 20 23 1 34 25 63 130 49 183 73 256 77 243 2 -6 -16 -85 -40 -175z m883
61 c4 -6 6 -19 4 -28 -63 -283 -170 -656 -236 -821 -17 -41 -34 -86 -39 -99
-7 -16 -13 -21 -20 -14 -11 11 6 182 22 222 9 21 8 23 -4 12 -13 -10 -16 -4
-19 36 -3 36 4 66 28 127 18 43 54 152 80 242 27 90 50 162 52 160 9 -9 -91
-445 -122 -531 -4 -11 0 -7 9 9 27 46 116 429 150 646 4 25 10 49 12 54 7 11
75 0 83 -15z m-255 -401 c14 -17 24 -36 22 -42 -2 -6 -16 -48 -31 -93 -15 -46
-29 -83 -31 -83 -5 0 -43 174 -50 228 -3 29 -9 60 -12 70 -9 21 65 -36 102
-80z m-265 -159 c32 -103 27 -224 -14 -293 l-28 -48 -24 28 c-32 39 -64 126
-64 173 0 21 7 57 15 80 15 45 71 131 84 131 5 0 18 -32 31 -71z m81 -1 l79
-63 -1 -65 c-1 -73 -21 -245 -29 -244 -41 5 -160 28 -160 30 0 2 11 19 24 39
50 73 56 191 16 311 -9 30 -15 54 -13 54 3 0 40 -28 84 -62z m136 -248 c-2
-85 -9 -130 -25 -173 -20 -56 -86 -157 -102 -157 -4 0 3 26 15 58 39 94 68
305 76 542 1 23 8 2 21 -60 14 -71 18 -124 15 -210z m194 234 c-6 -32 -11 -79
-11 -106 0 -40 -12 -72 -66 -181 -73 -146 -71 -143 -80 -134 -4 4 14 60 39
124 25 65 62 173 84 240 21 67 39 120 41 118 2 -2 -1 -29 -7 -61z m178 -22
c29 -35 64 -68 77 -74 13 -6 24 -14 24 -17 0 -3 -46 -55 -101 -116 -56 -60
-133 -149 -172 -198 -44 -54 -77 -85 -85 -82 -8 3 -12 -1 -10 -13 1 -10 -22
-56 -51 -102 -30 -46 -62 -109 -72 -139 -19 -63 -35 -75 -45 -34 -9 36 15 129
62 238 28 64 41 85 56 85 15 0 17 4 9 18 -7 13 13 62 86 207 101 204 153 297
164 293 3 -2 30 -31 58 -66z m-329 -432 c0 -8 -57 -3 -68 5 -1 1 3 15 10 30
l12 27 23 -26 c13 -15 23 -31 23 -36z m-27 -16 c3 -3 -8 -35 -23 -70 -65 -145
-86 -257 -54 -289 23 -22 38 -14 45 26 3 19 12 48 18 64 18 45 101 175 112
175 5 0 9 -1 9 -3 0 -2 14 -40 30 -86 l30 -82 -30 -11 c-20 -6 -38 -24 -50
-47 -23 -46 -118 -121 -152 -121 -35 0 -129 50 -152 82 -13 18 -21 49 -24 88
l-4 61 96 99 c53 54 96 104 96 109 0 12 42 15 53 5z m-223 -174 c-55 -43 -229
-80 -380 -80 -76 0 -78 1 -84 26 -4 15 -5 28 -3 30 2 2 41 -1 87 -7 95 -12
206 -1 310 30 86 25 101 25 70 1z"/>
<path d="M6059 4379 c-37 -14 -50 -50 -60 -164 -37 -430 -15 -624 92 -825 l40
-74 -22 -48 -22 -48 -44 66 c-43 64 -91 104 -125 104 -51 0 -18 -234 52 -371
18 -35 18 -37 -5 -116 -49 -170 -58 -359 -21 -444 21 -50 118 -137 162 -145
93 -17 157 17 226 119 23 34 52 74 64 90 53 64 35 223 -36 314 l-17 21 -32
-30 c-18 -17 -34 -29 -36 -27 -1 2 -24 56 -50 119 -26 63 -63 146 -82 184 -19
37 -33 69 -31 70 2 2 43 9 92 16 197 28 420 198 497 378 33 78 36 122 11 145
-26 23 -60 21 -152 -9 -113 -37 -188 -106 -348 -316 -37 -48 -67 -86 -69 -85
-1 2 44 95 101 208 202 403 278 654 235 778 -13 37 -19 38 -47 9 -50 -55 -100
-199 -103 -298 l-1 -45 -10 40 c-5 22 -18 76 -29 120 -24 101 -81 218 -118
245 -36 25 -78 32 -112 19z m105 -30 c38 -30 84 -127 111 -233 28 -112 58
-295 53 -332 -3 -27 -6 -25 -95 60 -156 148 -230 286 -220 407 3 31 12 70 21
87 15 29 21 32 60 32 29 0 52 -7 70 -21z m310 -162 c-1 -79 -7 -109 -42 -213
-22 -67 -49 -139 -60 -160 l-20 -39 -7 59 c-11 88 1 242 24 317 11 36 35 85
52 108 43 60 54 44 53 -72z m-347 -249 c31 -38 89 -98 129 -135 41 -36 74 -72
74 -79 0 -16 -182 -384 -190 -384 -12 0 -72 116 -94 184 -40 119 -51 208 -50
397 1 219 5 233 45 149 17 -35 55 -95 86 -132z m573 -236 c19 -15 22 -25 16
-53 -29 -154 -245 -374 -422 -429 -63 -19 -178 -29 -191 -17 -7 8 121 188 215
299 93 112 156 159 252 192 90 31 101 31 130 8z m-715 -363 c17 -16 45 -52 62
-81 l32 -53 -42 -104 -42 -103 -27 58 c-36 78 -58 178 -58 259 0 64 1 66 23
60 12 -4 36 -20 52 -36z m177 -306 c60 -136 87 -204 170 -428 l29 -80 -46 45
c-112 108 -305 372 -305 417 0 26 69 193 80 193 4 0 37 -66 72 -147z m-87
-188 c74 -109 125 -172 224 -278 l64 -68 -39 -56 c-56 -81 -102 -115 -163
-121 -44 -4 -57 0 -100 27 -90 58 -131 142 -131 271 0 100 53 353 70 333 4 -4
37 -53 75 -108z m304 -67 c27 -52 31 -72 31 -138 0 -59 -4 -83 -17 -99 -18
-21 -19 -19 -65 111 l-48 133 28 27 c15 15 30 27 34 27 3 1 20 -27 37 -61z"/>
<path d="M4935 4033 c-37 -65 -68 -122 -68 -128 0 -10 162 -385 190 -438 l15
-29 50 48 c50 49 50 49 44 101 -10 89 -125 497 -155 550 -5 10 -28 -21 -76
-104z m116 -53 c46 -146 87 -298 99 -369 l11 -64 -42 -44 -43 -43 -14 25 c-7
14 -52 115 -99 223 l-86 197 23 40 c13 22 41 71 63 109 46 80 38 87 88 -74z"/>
<path d="M4708 3804 c-4 -3 -2 -20 3 -37 22 -74 50 -270 54 -366 l3 -104 94
-96 c51 -52 94 -97 96 -100 1 -2 4 -2 6 0 6 6 -131 615 -144 638 -6 11 -30 32
-54 46 -46 27 -50 28 -58 19z m75 -46 c28 -27 37 -47 52 -113 9 -44 39 -174
65 -290 25 -115 46 -211 45 -213 -1 -1 -38 34 -82 79 l-80 82 -6 117 c-6 102
-28 247 -52 343 -10 38 14 36 58 -5z"/>
<path d="M4817 3110 c-7 -29 -67 -480 -67 -502 0 -10 24 -20 78 -33 42 -10 83
-20 91 -23 11 -4 13 17 8 129 -5 141 -29 256 -80 389 -21 56 -26 62 -30 40z
m37 -95 c38 -118 57 -218 63 -327 7 -136 13 -129 -92 -99 -48 13 -60 20 -59
36 7 90 59 453 65 448 3 -5 14 -30 23 -58z"/>
<path d="M4794 2463 c-31 -6 -64 -46 -75 -90 -9 -39 6 -174 23 -203 5 -9 6 3
2 32 l-6 48 36 -15 c19 -8 56 -15 81 -15 78 0 110 52 103 164 -3 46 -5 50 -38
61 -45 16 -99 23 -126 18z m134 -32 c43 -23 22 -164 -29 -191 -26 -14 -93 -9
-135 11 -25 12 -29 20 -32 63 -4 63 3 91 30 118 18 18 29 20 83 16 34 -3 71
-11 83 -17z"/>
<path d="M4892 2388 c-2 -15 -12 -18 -60 -18 -32 0 -63 -5 -70 -12 -33 -33 13
-98 71 -98 51 0 69 26 64 91 -2 30 -4 46 -5 37z m-5 -44 c9 -24 -10 -68 -30
-72 -32 -6 -66 8 -84 34 -16 25 -16 27 2 40 27 20 104 18 112 -2z"/>
<path d="M5779 1657 c-52 -45 -64 -117 -63 -367 0 -206 9 -298 51 -523 l26
-139 -22 -38 c-38 -69 -17 -166 51 -237 41 -42 85 -51 143 -28 35 13 59 34
107 93 33 43 84 100 111 129 58 60 62 76 73 273 20 373 -99 655 -350 829 -33
23 -66 41 -75 41 -9 -1 -32 -15 -52 -33z m181 -130 c33 -42 78 -110 102 -150
43 -73 110 -235 123 -294 l7 -33 -66 0 c-60 0 -66 2 -66 21 0 41 -32 145 -70
226 -47 100 -113 199 -181 273 l-51 54 34 27 33 28 38 -37 c21 -20 65 -72 97
-115z m50 14 c133 -134 203 -291 229 -506 14 -115 14 -208 1 -200 -5 3 -10 28
-10 56 0 107 -70 337 -142 466 -37 67 -121 188 -175 252 -65 75 0 30 97 -68z
m-191 -1 c152 -183 199 -304 189 -496 -5 -103 -28 -160 -89 -220 l-37 -36 -21
40 c-58 113 -95 261 -111 442 -12 128 -5 330 11 330 4 0 31 -27 58 -60z m-69
-377 c18 -139 77 -314 136 -405 l18 -27 -48 -46 c-27 -25 -50 -44 -51 -43 -4
6 -44 225 -54 298 -15 102 -31 331 -30 405 l2 60 8 -80 c5 -44 13 -117 19
-162z m296 -100 c-10 -11 -14 0 -20 62 l-5 60 15 -58 c9 -32 14 -61 10 -64z
m4 -67 c0 -80 -51 -186 -83 -173 -13 5 -12 14 13 59 16 29 31 71 35 93 4 22 9
48 12 58 8 31 23 7 23 -37z m154 2 c4 -18 10 -68 13 -110 l6 -78 -111 0 -111
0 25 50 c14 28 30 77 36 110 l12 60 62 0 c61 0 62 0 68 -32z m-244 -188 c13
-8 10 -15 -16 -41 -32 -31 -32 -31 -44 -10 -9 19 -8 25 12 41 27 22 28 23 48
10z m225 -18 l40 -7 -3 -85 c-3 -60 -8 -91 -20 -107 -15 -19 -40 -49 -162
-195 -25 -29 -56 -52 -84 -63 -44 -17 -46 -17 -90 5 -37 18 -50 32 -76 82 -53
107 -41 141 103 285 l92 91 80 0 c44 1 98 -2 120 -6z"/>
<path d="M6195 1543 c88 -215 128 -370 145 -562 11 -136 2 -312 -26 -461 -33
-185 -33 -185 15 -66 139 348 110 695 -85 1027 -43 74 -66 102 -49 62z m171
-374 c34 -124 44 -344 21 -464 -18 -95 -47 -198 -54 -192 -2 3 1 41 8 84 7 43
13 158 13 258 -1 192 -14 294 -59 447 -13 46 -26 92 -29 103 -4 11 12 -17 34
-61 22 -45 51 -124 66 -175z"/>
<path d="M6567 693 c-13 -21 -118 -456 -113 -469 7 -19 123 -74 157 -74 56 0
61 42 29 238 -20 121 -58 303 -65 310 -1 2 -5 0 -8 -5z m47 -233 c45 -245 45
-300 -3 -300 -20 0 -136 54 -145 68 -3 5 1 34 8 63 8 30 31 119 51 199 21 80
40 149 43 155 8 12 17 -25 46 -185z"/>
</g>
</svg>
