<?xml version="1.0" encoding="iso-8859-1"?>
<!-- Generator: Adobe Illustrator 20.1.0, SVG Export Plug-In . SVG Version: 6.00 Build 0)  -->
<svg version="1.1" id="Halloween-ghost" xmlns="http://www.w3.org/2000/svg" xmlns:xlink="http://www.w3.org/1999/xlink" x="0px"
	 y="0px" viewBox="0 0 24 29" style="enable-background:new 0 0 24 29;" xml:space="preserve">
<g>
	<path d="M13,8c0,1.206,0.799,3,3,3s3-1.794,3-3V7h-6V8z"/>
	<path d="M8,11c2.201,0,3-1.794,3-3V7H5v1C5,9.206,5.799,11,8,11z"/>
	<polygon points="6,17 8,17 8,19 10,19 10,17 14,17 14,19 16,19 16,17 18,17 18,15 6,15 	"/>
	<path d="M18,0H6C2.691,0,0,2.691,0,6v22c0,0.404,0.244,0.769,0.617,0.924c0.374,0.154,0.803,0.069,1.09-0.217l3.185-3.185L7.2,28.6
		c0.174,0.232,0.44,0.377,0.729,0.397c0.292,0.021,0.573-0.085,0.778-0.291L12,25.414l3.293,3.293
		c0.205,0.205,0.491,0.307,0.778,0.291c0.289-0.021,0.555-0.166,0.729-0.397l2.309-3.078l3.185,3.185C22.484,28.898,22.74,29,23,29
		c0.129,0,0.259-0.025,0.383-0.076C23.756,28.769,24,28.404,24,28V6C24,2.691,21.309,0,18,0z M22,25.586l-2.293-2.293
		c-0.205-0.206-0.49-0.312-0.778-0.291c-0.289,0.021-0.555,0.166-0.729,0.397l-2.309,3.078l-3.185-3.185
		C12.512,23.098,12.256,23,12,23s-0.512,0.098-0.707,0.293l-3.185,3.185L5.8,23.4c-0.174-0.232-0.44-0.377-0.729-0.397
		c-0.283-0.017-0.573,0.086-0.778,0.291L2,25.586V6c0-2.206,1.794-4,4-4h12c2.206,0,4,1.794,4,4V25.586z"/>
</g>
</svg>
