<?xml version="1.0" standalone="no"?>
<!DOCTYPE svg PUBLIC "-//W3C//DTD SVG 20010904//EN"
 "http://www.w3.org/TR/2001/REC-SVG-20010904/DTD/svg10.dtd">
<svg version="1.0" xmlns="http://www.w3.org/2000/svg"
 width="619.000000pt" height="825.000000pt" viewBox="0 0 619.000000 825.000000"
 preserveAspectRatio="xMidYMid meet">

<g transform="translate(0.000000,825.000000) scale(0.100000,-0.100000)"
fill="#000000" stroke="none">
<path d="M1 8123 c0 -115 2 -128 19 -140 26 -18 26 -37 0 -30 -18 5 -19 -1
-18 -96 1 -56 5 -106 10 -112 4 -5 21 -26 37 -45 17 -19 27 -37 25 -40 -3 -3
-11 3 -18 13 -14 18 -32 24 -21 7 3 -6 -1 -7 -10 -3 -9 3 -12 9 -7 12 9 6 -2
51 -12 51 -3 0 -5 -74 -5 -165 l0 -166 44 -47 c25 -26 45 -54 45 -62 -1 -9
-12 -3 -30 18 -16 17 -35 32 -42 32 -6 0 -2 -10 10 -23 31 -33 28 -57 -3 -27
l-25 23 0 -49 c0 -28 5 -55 12 -62 9 -9 9 -15 0 -24 -19 -19 -15 -98 6 -115
16 -14 16 -14 0 -9 -17 5 -18 -75 -18 -1446 0 -798 2 -1450 4 -1447 2 2 6 103
10 224 4 121 11 317 16 435 6 118 19 438 30 710 11 272 25 590 30 705 5 116
12 278 15 360 8 258 27 666 40 885 3 47 12 227 20 400 8 173 18 325 20 338 5
22 4 22 -89 22 l-95 0 0 -127z m34 -23 c3 -5 1 -10 -4 -10 -6 0 -11 5 -11 10
0 6 2 10 4 10 3 0 8 -4 11 -10z m5 -281 c0 -6 -4 -7 -10 -4 -5 3 -10 11 -10
16 0 6 5 7 10 4 6 -3 10 -11 10 -16z m60 -114 c0 -5 -21 12 -45 38 -58 62 -58
74 0 17 25 -24 45 -49 45 -55z m-62 -90 c-3 -3 -9 2 -12 12 -6 14 -5 15 5 6 7
-7 10 -15 7 -18z m72 -1 c0 -16 -16 -19 -25 -4 -8 13 4 32 16 25 5 -4 9 -13 9
-21z m-60 -206 c27 -45 25 -56 -5 -24 -14 15 -25 34 -25 42 0 22 9 17 30 -18z
m50 -158 c0 -5 -2 -10 -4 -10 -3 0 -8 5 -11 10 -3 6 -1 10 4 10 6 0 11 -4 11
-10z"/>
<path d="M4420 8246 c0 -3 19 -51 41 -108 23 -57 52 -130 64 -163 39 -99 93
-232 144 -349 27 -61 67 -158 91 -216 23 -58 65 -159 92 -225 82 -194 137
-324 175 -415 19 -47 41 -98 48 -115 49 -109 125 -300 125 -313 0 -8 13 -58
29 -111 115 -377 337 -1258 431 -1711 12 -58 37 -176 56 -262 19 -86 34 -159
34 -162 0 -3 10 -14 22 -26 18 -17 19 -20 5 -20 -9 0 -17 -2 -17 -5 0 -9 121
-539 140 -615 11 -41 31 -124 45 -185 35 -147 80 -318 167 -630 l73 -260 3
2740 c1 1507 0 2749 -3 2760 -2 11 -21 38 -41 60 -20 22 -50 58 -68 81 -17 22
-71 89 -120 147 l-89 107 -724 0 c-397 0 -723 -2 -723 -4z m1480 -4366 c0 -5
-2 -10 -4 -10 -3 0 -8 5 -11 10 -3 6 -1 10 4 10 6 0 11 -4 11 -10z"/>
<path d="M5910 8230 c6 -11 15 -18 19 -15 5 2 11 -4 14 -15 6 -23 27 -27 27
-5 0 8 8 15 18 16 12 0 10 3 -8 10 -20 8 -22 12 -10 19 11 7 3 10 -28 10 -40
0 -42 -1 -32 -20z"/>
<path d="M5995 8241 c-3 -6 4 -9 15 -8 11 1 20 5 20 9 0 11 -28 10 -35 -1z"/>
<path d="M6040 8240 c0 -5 5 -10 11 -10 5 0 7 5 4 10 -3 6 -8 10 -11 10 -2 0
-4 -4 -4 -10z"/>
<path d="M5991 8184 c0 -11 3 -14 6 -6 3 7 2 16 -1 19 -3 4 -6 -2 -5 -13z"/>
<path d="M6056 8105 c-3 -8 -1 -15 4 -15 6 0 10 7 10 15 0 8 -2 15 -4 15 -2 0
-6 -7 -10 -15z"/>
<path d="M1 7374 c0 -11 3 -14 6 -6 3 7 2 16 -1 19 -3 4 -6 -2 -5 -13z"/>
<path d="M4765 5840 c-3 -5 1 -10 10 -10 9 0 13 5 10 10 -3 6 -8 10 -10 10 -2
0 -7 -4 -10 -10z"/>
<path d="M4650 5747 c0 -13 98 -52 108 -43 4 4 -91 56 -103 56 -3 0 -5 -6 -5
-13z"/>
<path d="M695 5350 c3 -5 32 -9 63 -9 57 1 57 1 17 10 -56 11 -87 11 -80 -1z"/>
<path d="M2845 4723 c-8 -20 -13 -38 -10 -41 2 -3 9 7 14 21 5 14 15 28 20 32
14 8 14 25 1 25 -5 0 -17 -16 -25 -37z"/>
<path d="M1618 4553 c12 -2 32 -2 45 0 12 2 2 4 -23 4 -25 0 -35 -2 -22 -4z"/>
<path d="M4647 4350 c3 -11 9 -20 15 -20 5 0 4 9 -2 20 -6 11 -12 20 -14 20
-2 0 -2 -9 1 -20z"/>
<path d="M1192 4310 c0 -14 2 -19 5 -12 2 6 2 18 0 25 -3 6 -5 1 -5 -13z"/>
<path d="M1621 4294 c0 -11 3 -14 6 -6 3 7 2 16 -1 19 -3 4 -6 -2 -5 -13z"/>
<path d="M1452 4275 c0 -16 2 -22 5 -12 2 9 2 23 0 30 -3 6 -5 -1 -5 -18z"/>
<path d="M1612 4250 c0 -14 2 -19 5 -12 2 6 2 18 0 25 -3 6 -5 1 -5 -13z"/>
<path d="M4460 4190 c0 -5 5 -10 11 -10 5 0 7 5 4 10 -3 6 -8 10 -11 10 -2 0
-4 -4 -4 -10z"/>
<path d="M2140 4177 c0 -15 23 -52 48 -75 34 -32 37 -22 3 13 -15 17 -32 39
-39 50 -6 11 -12 16 -12 12z"/>
<path d="M1141 4124 c0 -11 3 -14 6 -6 3 7 2 16 -1 19 -3 4 -6 -2 -5 -13z"/>
<path d="M1142 4070 c0 -19 2 -27 5 -17 2 9 2 25 0 35 -3 9 -5 1 -5 -18z"/>
<path d="M2365 4060 c-3 -11 -2 -28 4 -37 8 -15 10 -11 11 20 0 41 -5 47 -15
17z"/>
<path d="M1191 3944 c1 -71 5 -174 9 -229 6 -72 7 -38 4 124 -2 123 -6 226 -9
229 -3 3 -4 -53 -4 -124z"/>
<path d="M4772 4020 c0 -14 2 -19 5 -12 2 6 2 18 0 25 -3 6 -5 1 -5 -13z"/>
<path d="M1143 3970 c0 -36 2 -50 4 -32 2 17 2 47 0 65 -2 17 -4 3 -4 -33z"/>
<path d="M5192 3970 c0 -14 2 -19 5 -12 2 6 2 18 0 25 -3 6 -5 1 -5 -13z"/>
<path d="M1702 3930 c0 -14 2 -19 5 -12 2 6 2 18 0 25 -3 6 -5 1 -5 -13z"/>
<path d="M1142 3875 c0 -16 2 -22 5 -12 2 9 2 23 0 30 -3 6 -5 -1 -5 -18z"/>
<path d="M1151 3733 c-1 -46 3 -83 7 -83 7 0 5 134 -3 155 -2 6 -4 -27 -4 -72z"/>
<path d="M1681 3784 c0 -11 3 -14 6 -6 3 7 2 16 -1 19 -3 4 -6 -2 -5 -13z"/>
<path d="M2155 3709 c-4 -6 -5 -12 -2 -15 2 -3 7 2 10 11 7 17 1 20 -8 4z"/>
<path d="M2401 3685 c-1 -40 11 -65 33 -65 20 1 20 1 3 14 -10 8 -22 27 -27
43 -6 20 -8 22 -9 8z"/>
<path d="M3810 3659 c0 -5 5 -7 10 -4 6 3 10 8 10 11 0 2 -4 4 -10 4 -5 0 -10
-5 -10 -11z"/>
<path d="M3870 3619 c0 -5 5 -7 10 -4 6 3 10 8 10 11 0 2 -4 4 -10 4 -5 0 -10
-5 -10 -11z"/>
<path d="M5038 3603 c6 -2 18 -2 25 0 6 3 1 5 -13 5 -14 0 -19 -2 -12 -5z"/>
<path d="M5338 3553 c7 -3 16 -2 19 1 4 3 -2 6 -13 5 -11 0 -14 -3 -6 -6z"/>
<path d="M3640 3536 c0 -2 8 -10 18 -17 15 -13 16 -12 3 4 -13 16 -21 21 -21
13z"/>
<path d="M5535 3500 c3 -5 11 -10 16 -10 6 0 7 5 4 10 -3 6 -11 10 -16 10 -6
0 -7 -4 -4 -10z"/>
<path d="M5438 3473 c6 -2 18 -2 25 0 6 3 1 5 -13 5 -14 0 -19 -2 -12 -5z"/>
<path d="M4440 3370 c0 -5 5 -10 10 -10 6 0 10 5 10 10 0 6 -4 10 -10 10 -5 0
-10 -4 -10 -10z"/>
<path d="M3730 3335 c0 -14 4 -25 9 -25 4 0 6 11 3 25 -2 14 -6 25 -8 25 -2 0
-4 -11 -4 -25z"/>
<path d="M3742 3290 c0 -8 6 -31 13 -50 9 -23 14 -28 14 -15 0 11 -6 34 -14
50 -7 17 -13 23 -13 15z"/>
<path d="M2881 3264 c0 -11 3 -14 6 -6 3 7 2 16 -1 19 -3 4 -6 -2 -5 -13z"/>
<path d="M4521 3249 c1 -19 5 -45 9 -59 6 -16 7 -6 3 30 -7 63 -13 80 -12 29z"/>
<path d="M2892 3180 c0 -14 2 -19 5 -12 2 6 2 18 0 25 -3 6 -5 1 -5 -13z"/>
<path d="M2766 3130 c3 -19 6 -43 6 -52 -1 -10 3 -20 9 -23 13 -9 11 13 -6 65
-13 37 -14 39 -9 10z"/>
<path d="M2902 3130 c0 -14 3 -45 7 -70 l8 -45 1 40 c0 22 -4 54 -8 70 -7 27
-8 28 -8 5z"/>
<path d="M3086 3127 c3 -10 9 -15 12 -12 3 3 0 11 -7 18 -10 9 -11 8 -5 -6z"/>
<path d="M3056 3101 c8 -28 74 -124 81 -117 3 3 -7 20 -21 39 -27 35 -34 53
-16 42 6 -3 7 1 4 9 -3 9 -11 16 -16 16 -6 0 -17 8 -25 18 -13 15 -13 15 -7
-7z"/>
<path d="M1360 3080 c0 -5 5 -10 11 -10 5 0 7 5 4 10 -3 6 -8 10 -11 10 -2 0
-4 -4 -4 -10z"/>
<path d="M3792 3013 c-7 -13 -10 -23 -7 -23 6 0 -4 -13 -34 -46 -7 -8 -11 -17
-8 -20 9 -9 69 76 65 93 -3 16 -5 15 -16 -4z"/>
<path d="M2921 2954 c0 -11 3 -14 6 -6 3 7 2 16 -1 19 -3 4 -6 -2 -5 -13z"/>
<path d="M1237 2940 c-3 -11 -1 -23 4 -26 5 -3 9 6 9 20 0 31 -6 34 -13 6z"/>
<path d="M2813 2915 c0 -27 2 -38 4 -22 2 15 2 37 0 50 -2 12 -4 0 -4 -28z"/>
<path d="M1200 2886 c0 -20 2 -36 4 -36 8 0 12 61 4 66 -4 3 -8 -11 -8 -30z"/>
<path d="M2917 2905 c-6 -15 39 -59 70 -69 10 -4 28 -21 41 -39 l22 -32 -2 27
c-1 15 -4 25 -7 23 -2 -3 -16 6 -31 18 -15 12 -41 30 -59 39 -21 11 -29 22
-25 32 3 9 4 16 1 16 -3 0 -7 -7 -10 -15z"/>
<path d="M3690 2849 c-23 -35 -49 -67 -58 -71 -11 -5 -7 -7 13 -5 26 2 35 11
63 65 19 35 31 66 28 69 -3 3 -23 -23 -46 -58z"/>
<path d="M4650 2907 c0 -2 15 -16 33 -33 l32 -29 -29 33 c-28 30 -36 37 -36
29z"/>
<path d="M4226 2884 c-4 -9 -4 -19 -1 -22 2 -3 7 3 11 12 4 9 4 19 1 22 -2 3
-7 -3 -11 -12z"/>
<path d="M2127 2860 c-3 -11 -1 -18 4 -15 5 3 8 -18 6 -47 -4 -107 25 -538 48
-728 23 -183 62 -409 50 -285 -11 106 -45 412 -51 450 -4 31 -3 37 6 25 12
-16 11 6 -9 128 -8 53 -13 122 -26 377 -1 22 -3 57 -4 78 -1 40 -15 50 -24 17z"/>
<path d="M2054 2853 c3 -10 10 -60 16 -112 6 -52 13 -98 16 -102 2 -4 9 -70
14 -146 6 -76 17 -195 26 -265 9 -70 14 -134 12 -144 -4 -24 -109 152 -141
236 -60 161 -72 218 -72 357 0 107 -2 129 -13 120 -8 -6 -11 -20 -7 -35 4 -15
2 -21 -5 -17 -6 4 -10 -6 -10 -24 0 -16 5 -31 11 -33 9 -3 9 -9 0 -25 -6 -12
-11 -34 -10 -50 0 -25 1 -26 9 -8 7 16 9 13 9 -16 1 -41 62 -249 93 -318 27
-58 84 -155 119 -201 24 -32 27 -46 33 -155 9 -162 17 -235 26 -230 3 2 5 41
4 87 l-3 83 14 -78 c14 -85 18 -93 35 -82 7 4 8 11 2 18 -6 7 -19 73 -31 147
-12 74 -28 173 -36 220 -9 47 -18 135 -21 195 -3 61 -9 128 -14 150 -7 31 -60
422 -60 441 0 2 -5 4 -11 4 -6 0 -8 -8 -5 -17z"/>
<path d="M4277 2840 c-3 -11 -1 -20 4 -20 5 0 9 9 9 20 0 11 -2 20 -4 20 -2 0
-6 -9 -9 -20z"/>
<path d="M1201 2824 c0 -11 3 -14 6 -6 3 7 2 16 -1 19 -3 4 -6 -2 -5 -13z"/>
<path d="M4161 2800 c-31 -26 -17 -26 16 0 14 11 22 20 17 20 -5 -1 -20 -10
-33 -20z"/>
<path d="M1201 2784 c0 -11 3 -14 6 -6 3 7 2 16 -1 19 -3 4 -6 -2 -5 -13z"/>
<path d="M3774 2778 l-19 -23 25 20 c14 11 27 21 29 22 2 2 0 3 -6 3 -5 0 -18
-10 -29 -22z"/>
<path d="M1521 2754 c0 -11 3 -14 6 -6 3 7 2 16 -1 19 -3 4 -6 -2 -5 -13z"/>
<path d="M3492 2725 c-51 -25 -97 -45 -103 -45 -6 0 -30 -13 -53 -30 -24 -16
-46 -26 -50 -23 -3 4 -6 1 -6 -6 0 -7 -4 -10 -9 -7 -5 3 -11 -1 -15 -9 -3 -8
-1 -15 5 -15 9 0 58 28 69 40 3 3 30 16 60 29 60 27 213 101 219 107 16 16
-39 -4 -117 -41z"/>
<path d="M2885 2729 c20 -18 39 -28 43 -25 4 4 -1 12 -10 17 -9 5 -24 16 -32
24 -8 8 -20 15 -26 15 -6 0 5 -14 25 -31z"/>
<path d="M1201 2734 c0 -11 3 -14 6 -6 3 7 2 16 -1 19 -3 4 -6 -2 -5 -13z"/>
<path d="M3665 2718 c-33 -17 -61 -34 -63 -39 -2 -5 -10 -9 -18 -9 -8 0 -14
-5 -14 -10 0 -7 6 -7 19 0 38 20 76 33 90 31 7 -1 10 2 7 7 -3 5 6 15 19 22
14 7 25 17 25 22 0 10 5 12 -65 -24z"/>
<path d="M1451 2693 c-10 -26 -10 -27 4 -9 8 11 15 23 15 28 0 15 -7 8 -19
-19z"/>
<path d="M4067 2705 c-10 -9 -20 -28 -23 -43 -4 -15 -9 -31 -13 -37 -3 -5 -6
-12 -6 -15 -1 -3 -4 -21 -8 -40 -11 -54 4 -95 35 -96 30 -1 82 41 90 72 4 17
-5 12 -39 -22 -25 -24 -49 -41 -54 -38 -23 14 9 200 34 194 36 -9 47 -14 47
-21 0 -5 5 -9 10 -9 20 0 10 21 -14 30 -13 5 -29 16 -34 25 -8 16 -10 16 -25
0z"/>
<path d="M1501 2694 c0 -11 3 -14 6 -6 3 7 2 16 -1 19 -3 4 -6 -2 -5 -13z"/>
<path d="M3481 2630 c-39 -22 -60 -40 -45 -40 11 0 84 48 84 55 0 7 0 7 -39
-15z"/>
<path d="M1460 2611 c-12 -24 -13 -34 -1 -27 9 6 22 46 15 46 -2 0 -8 -9 -14
-19z"/>
<path d="M4234 2621 c3 -5 15 -7 26 -4 28 7 25 13 -6 13 -14 0 -23 -4 -20 -9z"/>
<path d="M4183 2603 c-22 -4 -34 -43 -14 -43 16 0 22 18 9 23 -7 3 -3 6 10 6
12 1 22 6 22 11 0 6 -1 9 -2 9 -2 -1 -13 -4 -25 -6z"/>
<path d="M2912 2585 c-52 -60 -78 -177 -50 -229 13 -25 15 -25 33 -10 16 12
16 15 3 10 -20 -6 -36 12 -33 39 4 43 26 105 35 100 5 -3 18 15 29 40 11 25
24 45 30 45 5 0 25 -9 44 -20 22 -13 46 -19 67 -16 19 2 43 1 55 -3 23 -9 67
0 72 14 2 6 -28 8 -78 5 -65 -4 -88 -2 -109 11 -41 25 -83 31 -98 14z"/>
<path d="M3768 2593 c7 -3 16 -2 19 1 4 3 -2 6 -13 5 -11 0 -14 -3 -6 -6z"/>
<path d="M3215 2580 c-3 -5 -2 -10 4 -10 5 0 13 5 16 10 3 6 2 10 -4 10 -5 0
-13 -4 -16 -10z"/>
<path d="M3400 2580 c-9 -6 -10 -10 -3 -10 6 0 15 5 18 10 8 12 4 12 -15 0z"/>
<path d="M3995 2580 c3 -5 8 -10 11 -10 2 0 4 5 4 10 0 6 -5 10 -11 10 -5 0
-7 -4 -4 -10z"/>
<path d="M1895 2528 c2 -31 10 -69 19 -85 8 -15 15 -24 16 -20 0 5 -5 17 -10
28 -6 10 -15 45 -20 77 l-9 57 4 -57z"/>
<path d="M1425 2544 c-9 -15 -12 -23 -6 -20 11 7 35 46 28 46 -3 0 -12 -12
-22 -26z"/>
<path d="M3700 2550 c-9 -6 -10 -10 -3 -10 6 0 15 5 18 10 8 12 4 12 -15 0z"/>
<path d="M3320 2541 c0 -6 5 -13 10 -16 6 -3 10 1 10 9 0 9 -4 16 -10 16 -5 0
-10 -4 -10 -9z"/>
<path d="M2988 2523 c6 -2 18 -2 25 0 6 3 1 5 -13 5 -14 0 -19 -2 -12 -5z"/>
<path d="M1190 2370 c0 -130 -3 -156 -17 -172 -14 -16 -14 -18 -1 -13 13 5 16
-14 22 -137 8 -177 6 -416 -4 -443 -7 -18 -11 -16 -52 26 -63 64 -86 119 -97
225 l-10 89 3 -90 c4 -109 23 -153 101 -232 52 -51 61 -72 57 -126 -1 -10 -8
-17 -14 -16 -12 2 -36 -3 -91 -18 -41 -11 -7 -13 43 -2 37 8 55 8 63 0 7 -7
14 -6 22 6 8 11 29 16 63 17 55 1 58 5 42 56 -7 23 -8 23 -9 3 -1 -25 -57 -59
-65 -39 -3 7 -5 7 -5 -1 -1 -19 -31 -16 -31 3 0 8 5 12 10 9 12 -7 6 66 -6 87
-4 6 -3 9 2 5 11 -6 10 120 -1 146 -4 10 -3 17 4 17 7 0 10 27 9 78 -1 72 -2
74 -8 27 l-7 -50 -2 60 c-1 33 -4 188 -7 345 -4 157 -8 287 -10 289 -2 2 -4
-65 -4 -149z"/>
<path d="M3230 2501 c0 -6 4 -13 10 -16 6 -3 7 1 4 9 -7 18 -14 21 -14 7z"/>
<path d="M3163 2475 c-18 -8 -33 -20 -33 -26 0 -7 3 -9 7 -6 3 4 12 2 20 -5
11 -8 12 -7 7 6 -4 10 -1 16 9 16 15 0 33 17 26 25 -2 2 -19 -3 -36 -10z"/>
<path d="M2980 2445 c-16 -20 -5 -32 14 -16 11 10 19 7 40 -14 31 -31 47 -32
72 -4 19 22 19 22 -6 14 -14 -4 -30 -10 -36 -12 -6 -2 -17 3 -24 12 -10 13 -9
15 6 16 14 1 13 3 -6 9 -38 12 -46 11 -60 -5z"/>
<path d="M1215 2398 c2 -29 4 -72 5 -95 0 -24 5 -43 11 -43 5 0 8 4 5 8 -3 5
-6 47 -7 95 -1 48 -5 87 -10 87 -4 0 -6 -24 -4 -52z"/>
<path d="M1365 2439 c-4 -6 -5 -12 -2 -15 2 -3 7 2 10 11 7 17 1 20 -8 4z"/>
<path d="M3413 2418 c42 -59 67 -110 79 -154 14 -58 25 -74 47 -73 13 1 13 2
-1 6 -10 2 -18 6 -18 7 0 45 -27 115 -65 170 -26 36 -49 66 -52 66 -3 0 2 -10
10 -22z"/>
<path d="M3525 2392 c13 -26 38 -65 55 -86 16 -22 30 -45 30 -52 0 -7 4 -15 9
-19 22 -13 -10 58 -59 129 -28 42 -53 76 -55 76 -3 0 7 -22 20 -48z"/>
<path d="M1932 2405 c0 -5 6 -26 13 -45 7 -19 14 -28 14 -20 0 8 -6 29 -14 45
-7 17 -13 26 -13 20z"/>
<path d="M3781 2363 c7 -12 15 -20 18 -17 3 2 -3 12 -13 22 -17 16 -18 16 -5
-5z"/>
<path d="M5411 2363 c0 -4 4 -17 9 -28 8 -19 9 -19 9 2 1 12 -3 25 -9 28 -5 3
-10 3 -9 -2z"/>
<path d="M1287 2338 c-2 -7 -1 -22 3 -33 6 -16 8 -13 7 13 0 35 -2 39 -10 20z"/>
<path d="M1961 2310 c0 -18 27 -79 28 -64 1 7 -6 27 -14 45 -8 19 -14 27 -14
19z"/>
<path d="M4212 2285 c0 -16 3 -41 7 -55 7 -24 8 -24 12 8 3 17 2 32 -2 32 -4
0 -10 10 -12 23 -3 16 -4 14 -5 -8z"/>
<path d="M4110 2289 c-14 -6 -45 -9 -69 -6 -27 3 -38 2 -30 -4 21 -13 80 -10
114 6 35 16 22 19 -15 4z"/>
<path d="M3850 2280 c0 -5 4 -10 9 -10 6 0 13 5 16 10 3 6 -1 10 -9 10 -9 0
-16 -4 -16 -10z"/>
<path d="M4601 2274 c0 -11 3 -14 6 -6 3 7 2 16 -1 19 -3 4 -6 -2 -5 -13z"/>
<path d="M3380 2271 c0 -12 48 -46 55 -39 3 2 -9 14 -25 27 -17 12 -30 17 -30
12z"/>
<path d="M4182 2260 c0 -14 2 -19 5 -12 2 6 2 18 0 25 -3 6 -5 1 -5 -13z"/>
<path d="M1228 2133 c4 -186 8 -201 10 -35 1 83 -1 152 -5 152 -5 0 -7 -53 -5
-117z"/>
<path d="M2202 2210 c0 -19 4 -46 8 -60 6 -20 8 -21 8 -5 1 11 -3 38 -7 60
l-9 40 0 -35z"/>
<path d="M3450 2221 c0 -6 5 -13 10 -16 6 -3 10 1 10 9 0 9 -4 16 -10 16 -5 0
-10 -4 -10 -9z"/>
<path d="M4192 2205 c0 -11 3 -29 8 -40 11 -25 11 1 0 35 -6 20 -8 21 -8 5z"/>
<path d="M2006 2197 c3 -10 9 -15 12 -12 3 3 0 11 -7 18 -10 9 -11 8 -5 -6z"/>
<path d="M3326 2187 c3 -10 9 -15 12 -12 3 3 0 11 -7 18 -10 9 -11 8 -5 -6z"/>
<path d="M4232 2180 c0 -14 2 -19 5 -12 2 6 2 18 0 25 -3 6 -5 1 -5 -13z"/>
<path d="M3457 2183 c-3 -5 -2 -24 2 -43 5 -26 9 -30 13 -18 11 27 -3 81 -15
61z"/>
<path d="M2026 2157 c3 -10 9 -15 12 -12 3 3 0 11 -7 18 -10 9 -11 8 -5 -6z"/>
<path d="M5650 2159 c0 -5 5 -7 10 -4 6 3 10 8 10 11 0 2 -4 4 -10 4 -5 0 -10
-5 -10 -11z"/>
<path d="M1291 2144 c0 -11 3 -14 6 -6 3 7 2 16 -1 19 -3 4 -6 -2 -5 -13z"/>
<path d="M3595 2128 c1 -18 14 -58 28 -88 15 -33 24 -45 22 -30 -1 14 -10 42
-19 62 -9 21 -16 46 -16 57 0 11 -4 22 -9 26 -5 3 -8 -9 -6 -27z"/>
<path d="M3670 2153 c0 -9 61 -59 73 -61 4 0 19 -8 33 -17 14 -9 28 -14 31
-12 4 5 -119 97 -131 97 -3 0 -6 -3 -6 -7z"/>
<path d="M3358 2133 c-4 -15 1 -28 18 -44 13 -12 24 -18 24 -12 0 6 -6 16 -14
23 -8 6 -16 21 -18 33 l-3 22 -7 -22z"/>
<path d="M4241 2134 c0 -11 3 -14 6 -6 3 7 2 16 -1 19 -3 4 -6 -2 -5 -13z"/>
<path d="M2040 2121 c0 -6 4 -13 10 -16 6 -3 7 1 4 9 -7 18 -14 21 -14 7z"/>
<path d="M2222 2075 c0 -16 2 -22 5 -12 2 9 2 23 0 30 -3 6 -5 -1 -5 -18z"/>
<path d="M3485 2080 c10 -11 22 -20 27 -20 5 0 4 9 -2 20 -6 11 -18 20 -27 20
-14 0 -14 -2 2 -20z"/>
<path d="M3750 2071 c0 -5 5 -13 10 -16 6 -3 10 -2 10 4 0 5 -4 13 -10 16 -5
3 -10 2 -10 -4z"/>
<path d="M999 2033 c-5 -15 -11 -45 -13 -67 -2 -23 -2 -32 1 -21 2 11 11 41
18 68 15 51 11 64 -6 20z"/>
<path d="M3410 2025 c0 -37 40 -156 54 -160 6 -1 31 -9 56 -16 48 -15 52 -16
74 -18 9 -1 13 -9 11 -21 -2 -11 0 -20 6 -20 5 0 9 9 9 19 0 11 7 27 17 36 15
16 15 20 -5 61 -12 24 -17 44 -12 44 6 0 10 5 10 10 0 6 -6 10 -14 10 -8 0
-23 17 -33 38 -11 20 -28 39 -38 41 -16 3 -16 0 4 -27 28 -40 71 -133 71 -154
0 -10 -5 -18 -11 -18 -5 0 -8 3 -6 8 3 4 -24 8 -60 8 -82 2 -94 13 -98 90 -3
63 -12 94 -26 94 -5 0 -9 -11 -9 -25z"/>
<path d="M2231 2025 c-1 -26 23 -179 44 -273 8 -40 13 -78 9 -84 -4 -6 2 -6
15 1 19 11 20 14 7 39 -16 31 -31 96 -56 237 -10 55 -18 91 -19 80z"/>
<path d="M3770 2036 c0 -2 7 -9 15 -16 9 -7 15 -8 15 -2 0 5 -7 12 -15 16 -8
3 -15 4 -15 2z"/>
<path d="M4231 2024 c0 -11 3 -14 6 -6 3 7 2 16 -1 19 -3 4 -6 -2 -5 -13z"/>
<path d="M1292 1995 c0 -16 2 -22 5 -12 2 9 2 23 0 30 -3 6 -5 -1 -5 -18z"/>
<path d="M3800 1985 c7 -8 16 -15 21 -15 5 0 6 7 3 15 -4 8 -13 15 -21 15 -13
0 -13 -3 -3 -15z"/>
<path d="M4241 1984 c0 -11 3 -14 6 -6 3 7 2 16 -1 19 -3 4 -6 -2 -5 -13z"/>
<path d="M3655 1970 c3 -5 8 -10 11 -10 2 0 4 5 4 10 0 6 -5 10 -11 10 -5 0
-7 -4 -4 -10z"/>
<path d="M3454 1958 c3 -15 26 -23 26 -8 0 6 -4 9 -9 6 -5 -4 -12 -1 -14 4 -3
6 -4 5 -3 -2z"/>
<path d="M1292 1935 c0 -16 2 -22 5 -12 2 9 2 23 0 30 -3 6 -5 -1 -5 -18z"/>
<path d="M4252 1940 c0 -14 2 -19 5 -12 2 6 2 18 0 25 -3 6 -5 1 -5 -13z"/>
<path d="M3464 1919 c-3 -6 2 -18 12 -27 17 -16 17 -16 5 0 -7 9 -10 22 -6 28
3 5 4 10 1 10 -3 0 -8 -5 -12 -11z"/>
<path d="M3542 1920 c-12 -5 -30 -7 -40 -4 -15 5 -15 4 1 -6 21 -13 100 -4 91
11 -6 11 -22 11 -52 -1z"/>
<path d="M4120 1910 c-11 -8 -7 -9 15 -4 37 8 45 14 19 14 -10 0 -26 -5 -34
-10z"/>
<path d="M4060 1890 c-9 -6 -10 -10 -3 -10 6 0 15 5 18 10 8 12 4 12 -15 0z"/>
<path d="M3840 1860 c-12 -8 -9 -10 13 -10 16 0 26 4 22 10 -8 12 -16 12 -35
0z"/>
<path d="M3770 1849 c-22 -6 -20 -7 13 -8 38 -1 47 3 25 11 -7 3 -24 1 -38 -3z"/>
<path d="M3668 1823 c7 -3 16 -2 19 1 4 3 -2 6 -13 5 -11 0 -14 -3 -6 -6z"/>
<path d="M3453 1803 c-7 -2 -13 -9 -13 -14 0 -14 26 -10 40 6 10 12 10 15 -1
14 -8 0 -20 -3 -26 -6z"/>
<path d="M3370 1781 c-14 -4 -20 -10 -15 -13 10 -6 55 7 55 17 0 6 -7 5 -40
-4z"/>
<path d="M2613 1703 c9 -2 23 -2 30 0 6 3 -1 5 -18 5 -16 0 -22 -2 -12 -5z"/>
<path d="M2065 1650 c3 -5 12 -7 20 -3 21 7 19 13 -6 13 -11 0 -18 -4 -14 -10z"/>
<path d="M2828 1653 c7 -3 16 -2 19 1 4 3 -2 6 -13 5 -11 0 -14 -3 -6 -6z"/>
<path d="M2788 1643 c7 -3 16 -2 19 1 4 3 -2 6 -13 5 -11 0 -14 -3 -6 -6z"/>
<path d="M2135 1612 c-61 -8 -46 -21 19 -17 80 6 126 24 56 22 -25 0 -58 -3
-75 -5z"/>
<path d="M2010 1580 c-13 -8 -12 -10 3 -10 9 0 17 5 17 10 0 12 -1 12 -20 0z"/>
<path d="M2048 1583 c6 -2 18 -2 25 0 6 3 1 5 -13 5 -14 0 -19 -2 -12 -5z"/>
<path d="M1875 1570 c-16 -7 -13 -9 15 -8 19 0 49 4 65 8 27 7 26 8 -15 8 -25
0 -54 -3 -65 -8z"/>
<path d="M1570 1540 c0 -5 10 -10 23 -10 18 0 19 2 7 10 -19 13 -30 13 -30 0z"/>
<path d="M1675 1540 c-3 -5 -1 -10 4 -10 6 0 11 5 11 10 0 6 -2 10 -4 10 -3 0
-8 -4 -11 -10z"/>
<path d="M1455 1531 c-3 -5 6 -8 20 -7 35 4 44 16 12 16 -14 0 -28 -4 -32 -9z"/>
<path d="M1353 1513 c9 -2 23 -2 30 0 6 3 -1 5 -18 5 -16 0 -22 -2 -12 -5z"/>
<path d="M6150 1329 c-33 -7 -433 -90 -865 -179 -104 -21 -321 -66 -480 -99
-160 -33 -409 -85 -555 -115 -146 -30 -364 -76 -485 -101 -121 -25 -251 -52
-290 -60 -38 -8 -124 -26 -190 -40 -111 -24 -277 -59 -640 -135 -77 -16 -257
-54 -400 -85 -143 -31 -291 -62 -330 -70 -38 -8 -178 -37 -310 -65 -302 -64
-411 -87 -1095 -229 -80 -16 -197 -39 -260 -51 -126 -23 -205 -39 -232 -47
-11 -2 -18 -14 -18 -29 l0 -24 3095 0 3095 0 0 670 c0 369 -1 670 -2 669 -2
-1 -19 -5 -38 -10z"/>
</g>
</svg>
