<svg width="512" height="512" viewBox="0 0 512 512" fill="none" xmlns="http://www.w3.org/2000/svg">
<path d="M329.5 0.900054C327.9 1.30005 324.9 2.50005 323 3.40005C318.4 5.70005 61.6999 262.4 59.4999 267C56.7999 272.3 56.3999 281.8 58.5999 288.2C60.2999 293.1 65.5999 298.7 137 370.3C179.1 412.5 215.8 448.7 218.6 450.6C224.7 454.8 232.9 456.1 240.7 454C245.2 452.8 252.9 445.3 376.3 322.1C456.4 242.2 507.9 190 509.2 187.6C510.3 185.4 511.5 181.1 511.7 177.9C512.2 173.2 511.8 171.3 509.6 166.4C507.2 161.1 498.7 152.3 429.2 82.8001C377 30.7001 350.1 4.50005 347.3 3.10005C342.6 0.800054 334 -0.299946 329.5 0.900054ZM417.5 95.0001C458.7 136.2 492.1 170.2 491.8 170.5C491.2 171.2 314.7 203.1 314.3 202.6C313.8 202.1 341.4 20.0001 342 20.0001C342.3 20.0001 376.2 53.7001 417.5 95.0001ZM307.5 131C298.9 187.9 291.7 234.6 291.5 234.9C290.9 235.4 88.7999 265.9 85.4999 266C84.1999 266 123.9 225.6 203 146.5C268.7 80.8001 322.5 27.2001 322.7 27.4001C322.8 27.5001 316 74.1001 307.5 131ZM484 190.3C484 190.4 430.5 244 365 309.5C299.6 374.9 246.3 427.5 246.5 426.5C246.8 425.4 253.8 386.7 262 340.5C270.3 294.3 277.2 256 277.4 255.4C277.6 254.9 281.7 253.9 286.5 253.2C296.9 251.8 303.2 249 305.9 244.7C307 242.9 308.6 237 309.6 231.5C310.5 226 311.4 221.3 311.6 221.1C312 220.6 479.3 190.3 482.3 190.1C483.2 190 484 190.1 484 190.3ZM243.4 347.6L227.5 436L152.3 360.8C110.9 319.4 77.2999 285.3 77.5999 285.1C78.6999 284 258.5 257.5 258.9 258.3C259.1 258.8 252.1 299 243.4 347.6Z" fill="black"/>
<path d="M225.5 146.8C221.2 149.6 215.3 156 214.1 159.2C211.9 165.2 217.3 171.4 223.6 170.2C226.9 169.6 235.4 161.8 237.4 157.6C241.3 149.4 233.1 142 225.5 146.8Z" fill="black"/>
<path d="M192.5 180.4C188.1 182.4 146.3 224.9 145.5 228.2C144.1 234 149.9 239.8 155.7 238.4C159.1 237.6 201.2 196.2 203.5 191.5C205.4 187.3 203.9 182.5 199.9 180.5C196.5 178.7 196.3 178.7 192.5 180.4Z" fill="black"/>
<path d="M56.5 325.4C54.9 326.2 41.4 339 26.6 353.8L-0.300049 380.9L0.299951 384.7C1.09995 389.4 4.09995 392 8.79995 392C12.2 392 14.1 390.4 40.2 364.2C64.9 339.5 68 336.1 68 333.3C68 329.8 64.8 325.5 61.5 324.6C60.4 324.3 58.2 324.7 56.5 325.4Z" fill="black"/>
<path d="M114.5 385.9C112.9 386.9 90.4999 408.9 64.7999 434.6C31.7999 467.7 17.8999 482.4 17.3999 484.4C15.9999 490.2 21.7999 496 27.5999 494.6C29.5999 494.1 44.0999 480.3 76.3999 448.2C101.6 423.1 123.5 400.7 125.1 398.6C128.8 393.7 128.8 390.6 125.1 386.9C121.7 383.5 118.7 383.2 114.5 385.9Z" fill="black"/>
<path d="M29.4999 402.9C27.8999 403.9 20.6999 410.6 13.6999 417.7C3.3999 428.1 0.799902 431.3 0.399902 434.1C-0.500098 439.2 3.0999 443.2 8.3999 443.2C11.9999 443.2 13.0999 442.3 26.1999 429.3C33.8999 421.7 40.7999 414.2 41.4999 412.6C43.1999 408.7 41.6999 404.4 37.8999 402.5C34.2999 400.6 33.0999 400.6 29.4999 402.9Z" fill="black"/>
<path d="M147.8 471.8C123.2 496.4 120 499.9 120 502.7C120 504.4 120.3 506.6 120.6 507.5C121.6 510 126.8 512.3 129.9 511.5C133.2 510.7 184.7 459.7 186.6 455.3C189 449.8 185.1 444 179.1 444C175.8 444 173.7 445.8 147.8 471.8Z" fill="black"/>
<path d="M100.4 469.8C99.3 469.9 91.5 477 83.2 485.4C66.3 502.4 65.6 503.7 70.9 509.1C74.2 512.3 76.7 512.7 80.8 510.6C85.1 508.3 109.8 482.8 110.5 479.9C111.9 474.4 106.3 468.8 100.4 469.8Z" fill="black"/>
</svg>
