<?xml version="1.0" encoding="utf-8"?>
<!-- Generator: Adobe Illustrator 16.0.0, SVG Export Plug-In . SVG Version: 6.00 Build 0)  -->
<!DOCTYPE svg PUBLIC "-//W3C//DTD SVG 1.1//EN" "http://www.w3.org/Graphics/SVG/1.1/DTD/svg11.dtd">
<svg version="1.1" id="icons" xmlns="http://www.w3.org/2000/svg" xmlns:xlink="http://www.w3.org/1999/xlink" x="0px" y="0px"
	 width="64px" height="64px" viewBox="0 0 64 64" enable-background="new 0 0 64 64" xml:space="preserve">
<g>
	<g>
		<g>
			<path fill="#545C66" d="M44,5H20c-2.76,0-5,2.24-5,5v1v44.002v2c0,3.3,2.7,6,6,6h11h11c3.3,0,6-2.7,6-6v-2V11v-1
				C49,7.24,46.76,5,44,5z"/>
		</g>
		<g>
			<path fill="#656D78" d="M44,0.998H20c-2.76,0-5,2.24-5,5v1v44v2c0,3.3,2.7,6,6,6h11h11c3.3,0,6-2.7,6-6v-2v-44v-1
				C49,3.238,46.76,0.998,44,0.998z"/>
		</g>
		<g>
			<rect x="15" y="6.998" fill="#E6E9ED" width="34" height="44"/>
		</g>
		<g>
			<path fill="#AAB2BD" d="M32,52.998c1.1,0,2,0.9,2,2c0,1.11-0.9,2-2,2s-2-0.89-2-2C30,53.898,30.9,52.998,32,52.998z"/>
		</g>
	</g>
	<g>
		<g>
			<polygon fill="#ED5565" points="19,10.996 19,35.996 32,35.996 45,35.996 45,10.996 			"/>
		</g>
		<g>
			<path fill="#FFFFFF" d="M24,42.996c1.1,0,2,0.9,2,2s-0.9,2-2,2s-2-0.9-2-2S22.9,42.996,24,42.996z"/>
		</g>
		<g>
			<path fill="#FFFFFF" d="M40,42.996c1.1,0,2,0.9,2,2s-0.9,2-2,2s-2-0.9-2-2S38.9,42.996,40,42.996z"/>
		</g>
		<g>
			<path fill="#FFFFFF" d="M32,41.996c1.66,0,3,1.34,3,3s-1.34,3-3,3s-3-1.34-3-3S30.34,41.996,32,41.996z"/>
		</g>
		<g>
			<path fill="#E6E9ED" d="M30,24.996c1.65,0,3,1.34,3,3s-1.35,3-3,3c-1.66,0-3-1.34-3-3S28.34,24.996,30,24.996z"/>
		</g>
		<g>
			<rect x="32" y="35.996" fill="#656D78" width="13" height="3"/>
		</g>
		<g>
			<rect x="19" y="35.996" fill="#545C66" width="13" height="3"/>
		</g>
	</g>
</g>
<g>
	<g>
		<g>
			<path d="M43,60H21c-3.859,0-7-3.141-7-7c0-0.553,0.447-1,1-1s1,0.447,1,1c0,2.757,2.243,5,5,5h22c2.757,0,5-2.243,5-5
				c0-0.553,0.447-1,1-1s1,0.447,1,1C50,56.859,46.859,60,43,60z"/>
		</g>
		<g>
			<g>
				<path d="M29.03,5c-0.553,0-1.005-0.447-1.005-1s0.442-1,0.994-1h0.011c0.552,0,1,0.447,1,1S29.582,5,29.03,5z"/>
			</g>
			<g>
				<path d="M35,5h-3c-0.553,0-1-0.447-1-1s0.447-1,1-1h3c0.553,0,1,0.447,1,1S35.553,5,35,5z"/>
			</g>
		</g>
		<g>
			<path d="M49,7.002c-0.553,0-1-0.447-1-1c0-2.206-1.794-4-4-4c-0.553,0-1-0.447-1-1s0.447-1,1-1c3.309,0,6,2.691,6,6
				C50,6.555,49.553,7.002,49,7.002z"/>
		</g>
		<g>
			<path d="M15,7c-0.553,0-1-0.447-1-1c0-3.309,2.691-6,6-6c0.553,0,1,0.447,1,1s-0.447,1-1,1c-2.206,0-4,1.794-4,4
				C16,6.553,15.553,7,15,7z"/>
		</g>
		<g>
			<path d="M44,2H20c-0.553,0-1-0.447-1-1s0.447-1,1-1h24c0.553,0,1,0.447,1,1S44.553,2,44,2z"/>
		</g>
		<g>
			<path d="M49,8.002H15c-0.553,0-1-0.447-1-1s0.447-1,1-1h34c0.553,0,1,0.447,1,1S49.553,8.002,49,8.002z"/>
		</g>
		<g>
			<g>
				<path d="M43,64H21c-3.859,0-7-3.141-7-7V6c0-0.553,0.447-1,1-1s1,0.447,1,1v51c0,2.757,2.243,5,5,5h22c2.757,0,5-2.243,5-5
					V6.002c0-0.553,0.447-1,1-1s1,0.447,1,1V57C50,60.859,46.859,64,43,64z"/>
			</g>
			<g>
				<path d="M49,52H15c-0.553,0-1-0.447-1-1s0.447-1,1-1h34c0.553,0,1,0.447,1,1S49.553,52,49,52z"/>
			</g>
			<g>
				<path d="M32,58c-1.654,0-3-1.346-3-3s1.346-3,3-3s3,1.346,3,3S33.654,58,32,58z M32,54c-0.552,0-1,0.448-1,1s0.448,1,1,1
					s1-0.448,1-1S32.552,54,32,54z"/>
			</g>
		</g>
	</g>
	<g>
		<g>
			<path d="M45.001,36.998H18.999c-0.553,0-1-0.447-1-1V10.996c0-0.553,0.447-1,1-1h26.002c0.553,0,1,0.447,1,1v25.002
				C46.001,36.551,45.554,36.998,45.001,36.998z M19.999,34.998h24.002V11.996H19.999V34.998z"/>
		</g>
		<g>
			<path d="M29.997,32c-2.206,0-4-1.794-4-4s1.794-4,4-4s4,1.794,4,4S32.203,32,29.997,32z M29.997,26c-1.103,0-2,0.897-2,2
				s0.897,2,2,2s2-0.897,2-2S31.1,26,29.997,26z"/>
		</g>
		<g>
			<path d="M32.997,29c-0.553,0-1-0.447-1-1V16.997c0-0.553,0.447-1,1-1s1,0.447,1,1V28C33.997,28.553,33.55,29,32.997,29z"/>
		</g>
		<g>
			<path d="M37.998,19.999c-0.124,0-0.25-0.022-0.372-0.071l-5.001-2.002c-0.513-0.206-0.762-0.788-0.557-1.301
				c0.206-0.513,0.787-0.762,1.301-0.557l5.001,2.002c0.513,0.206,0.762,0.788,0.557,1.301
				C38.77,19.762,38.395,19.999,37.998,19.999z"/>
		</g>
	</g>
	<g>
		<path d="M18.999,40c-0.553,0-1-0.447-1-1v-3.002c0-0.553,0.447-1,1-1s1,0.447,1,1V39C19.999,39.553,19.552,40,18.999,40z"/>
	</g>
	<g>
		<path d="M45.001,40H18.999c-0.553,0-1-0.447-1-1s0.447-1,1-1h26.002c0.553,0,1,0.447,1,1S45.554,40,45.001,40z"/>
	</g>
	<g>
		<path d="M45.001,40c-0.553,0-1-0.447-1-1v-3.002c0-0.553,0.447-1,1-1s1,0.447,1,1V39C46.001,39.553,45.554,40,45.001,40z"/>
	</g>
	<g>
		<path d="M32,40c-0.553,0-1-0.447-1-1v-3.002c0-0.553,0.447-1,1-1s1,0.447,1,1V39C33,39.553,32.553,40,32,40z"/>
	</g>
	<g>
		<path d="M32,49c-2.206,0-4-1.794-4-4s1.794-4,4-4s4,1.794,4,4S34.206,49,32,49z M32,43c-1.103,0-2,0.897-2,2s0.897,2,2,2
			s2-0.897,2-2S33.103,43,32,43z"/>
	</g>
	<g>
		<path d="M40,48c-1.654,0-3-1.346-3-3s1.346-3,3-3s3,1.346,3,3S41.654,48,40,48z M40,44c-0.552,0-1,0.448-1,1s0.448,1,1,1
			s1-0.448,1-1S40.552,44,40,44z"/>
	</g>
	<g>
		<path d="M24,48c-1.654,0-3-1.346-3-3s1.346-3,3-3s3,1.346,3,3S25.654,48,24,48z M24,44c-0.552,0-1,0.448-1,1s0.448,1,1,1
			s1-0.448,1-1S24.552,44,24,44z"/>
	</g>
	<g>
		<path d="M32.03,46c-0.553,0-1.005-0.447-1.005-1s0.442-1,0.994-1h0.011c0.552,0,1,0.447,1,1S32.582,46,32.03,46z"/>
	</g>
</g>
</svg>
