<svg width="251" height="244" viewBox="0 0 251 244" fill="none" xmlns="http://www.w3.org/2000/svg">
<path d="M155.108 66.0522H41.3622V76.2141H155.108V66.0522Z" fill="black"/>
<path d="M155.108 96.5378H41.3622V106.7H155.108V96.5378Z" fill="black"/>
<path d="M129.257 127.023H41.3622V137.185H129.257V127.023Z" fill="black"/>
<path d="M103.405 157.509H41.3622V167.671H103.405V157.509Z" fill="black"/>
<path d="M103.405 187.995H41.3622V198.157H103.405V187.995Z" fill="black"/>
<path d="M196.47 89.3534V38.544L157.249 0H0V243.885H196.47V154.532L250.314 101.619L217.152 69.0296L196.47 89.3534ZM191.3 108.803L209.841 127.023L147.797 187.995H129.257V169.774L191.3 108.803ZM160.279 17.3463L178.819 35.5666H160.279V17.3463ZM186.13 233.723H10.3405V10.1619H149.938V45.7284H186.13V99.5153L118.916 165.567V198.157H152.078L186.13 164.694V233.723ZM217.152 119.839L198.611 101.619L217.152 83.3985L235.692 101.619L217.152 119.839Z" fill="black"/>
</svg>
