<?xml version="1.0" standalone="no"?>
<!DOCTYPE svg PUBLIC "-//W3C//DTD SVG 20010904//EN"
 "http://www.w3.org/TR/2001/REC-SVG-20010904/DTD/svg10.dtd">
<svg version="1.0" xmlns="http://www.w3.org/2000/svg"
 width="619.000000pt" height="825.000000pt" viewBox="0 0 619.000000 825.000000"
 preserveAspectRatio="xMidYMid meet">

<g transform="translate(0.000000,825.000000) scale(0.100000,-0.100000)"
fill="#000000" stroke="none">
<path d="M2278 7585 c-33 -18 -31 -9 -68 -250 -17 -110 -40 -257 -51 -326 -25
-155 -23 -185 14 -213 22 -16 41 -20 90 -19 57 2 60 1 42 -13 -11 -8 -32 -18
-47 -21 -41 -8 -62 -36 -48 -62 8 -17 17 -20 38 -15 39 10 40 14 3 14 -25 0
-32 4 -29 17 3 18 119 81 151 82 11 1 15 5 11 13 -4 6 -3 8 3 5 6 -4 36 1 67
10 34 9 61 12 66 7 5 -5 11 -35 13 -67 3 -32 7 -61 11 -64 3 -4 6 -20 5 -37
l-1 -31 -11 35 c-14 46 -14 46 -34 28 -39 -34 -119 -60 -201 -65 -46 -3 -79
-9 -74 -12 5 -3 13 -22 16 -41 5 -26 4 -31 -3 -20 -14 19 -14 11 0 -27 8 -23
26 -39 72 -63 34 -18 75 -42 90 -53 33 -23 41 -19 28 16 -13 34 -43 179 -38
184 8 7 59 -196 54 -211 -4 -10 8 -26 34 -44 22 -16 67 -55 100 -87 l60 -57
29 -187 c16 -102 32 -201 36 -218 4 -22 3 -33 -5 -33 -6 0 -11 7 -11 15 0 8
-6 15 -14 15 -7 0 -19 -7 -26 -15 -18 -22 -47 -18 -53 6 -8 28 -42 21 -41 -9
1 -20 -4 -22 -62 -22 -34 0 -70 -3 -80 -7 -12 -4 -15 -2 -12 8 2 8 33 28 69
46 78 39 112 78 139 157 24 71 25 115 5 183 -12 40 -28 63 -81 112 -37 34 -70
58 -75 54 -4 -4 -14 -44 -23 -88 -8 -44 -22 -111 -30 -150 -9 -38 -15 -81 -15
-95 1 -20 3 -17 9 10 5 24 8 -1 9 -77 1 -87 -2 -115 -14 -127 -8 -8 -15 -19
-15 -25 0 -6 -4 -11 -10 -11 -14 0 -12 34 5 105 8 33 14 69 14 80 0 11 -9 -14
-18 -55 -29 -125 -31 -130 -46 -130 -18 0 -18 12 -5 77 14 64 70 368 70 376 0
4 -6 7 -14 7 -10 0 -22 -47 -45 -167 -17 -93 -36 -195 -43 -228 -6 -33 -15
-64 -19 -69 -12 -14 -11 399 1 465 6 30 17 78 26 107 10 29 14 56 10 60 -14
13 -34 -29 -55 -118 -18 -76 -21 -120 -21 -299 0 -198 -1 -211 -19 -221 -30
-15 -36 -12 -39 16 -1 14 -7 55 -12 90 -8 52 -7 74 7 124 14 53 15 73 5 148
-13 98 -95 431 -114 465 -12 21 -13 20 -16 -17 -3 -38 47 -271 56 -261 2 2 -8
53 -23 113 -15 60 -25 120 -23 133 4 29 94 -328 107 -425 9 -62 1 -159 -14
-174 -3 -3 -5 27 -5 67 0 71 -30 285 -37 264 -2 -6 3 -51 11 -100 9 -48 16
-113 15 -143 l-1 -55 -14 45 c-8 25 -17 77 -20 115 -8 109 -11 116 -38 109
-20 -5 -25 -1 -31 24 -3 16 -3 41 0 55 9 34 -2 67 -22 67 -43 0 -116 -77 -166
-174 l-14 -29 -36 53 -36 53 19 27 c30 42 79 75 148 100 48 18 64 28 68 47 9
34 -3 115 -19 125 -21 15 -106 -1 -230 -43 -65 -22 -120 -39 -122 -37 -5 6
-25 47 -25 51 0 3 14 10 30 17 17 7 29 15 26 17 -2 2 -18 -3 -34 -11 -30 -15
-31 -15 -51 13 -26 37 -26 51 0 51 11 0 18 4 15 9 -4 5 59 30 138 55 178 57
236 81 236 99 0 8 -31 35 -70 60 -38 26 -95 74 -127 108 -110 116 -256 240
-328 276 -60 31 -75 35 -120 30 -42 -5 -55 -12 -86 -46 -34 -38 -68 -119 -84
-201 -4 -19 -30 -105 -57 -190 -54 -165 -71 -277 -48 -305 7 -8 30 -18 52 -21
36 -6 37 -8 23 -24 -10 -11 -13 -27 -9 -48 7 -36 15 -39 49 -16 14 9 42 22 63
30 20 7 29 13 19 14 -10 0 -35 -9 -57 -20 -51 -26 -60 -25 -60 4 0 35 44 66
92 66 22 0 91 20 160 46 127 49 122 49 150 0 8 -16 7 -22 -8 -33 -18 -13 -17
-14 6 -8 20 5 28 0 43 -24 22 -38 22 -36 -15 -51 -63 -25 -123 -52 -173 -77
-40 -21 -59 -25 -105 -21 -68 6 -72 5 -104 -37 l-25 -33 90 -113 c49 -63 113
-143 142 -178 125 -152 187 -263 187 -334 0 -15 7 -43 15 -63 14 -34 14 -35
-12 -45 -15 -5 -32 -8 -39 -5 -18 7 -44 100 -44 158 0 27 -5 59 -11 71 -25 47
-113 157 -125 157 -22 0 -18 -8 40 -79 70 -87 76 -100 76 -165 0 -31 9 -78 19
-106 21 -56 13 -65 -19 -20 -12 17 -26 27 -32 24 -6 -4 -8 -2 -4 4 3 6 2 13
-3 16 -5 3 0 23 10 43 24 48 24 58 -5 96 -36 48 -158 226 -254 372 -134 204
-223 325 -237 325 -8 0 -17 -5 -21 -11 -4 -7 -13 0 -24 17 l-19 27 40 29 c47
34 51 67 16 119 -13 19 -64 93 -114 164 -50 72 -109 164 -132 205 -112 201
-237 371 -282 383 -26 7 -69 -32 -69 -64 0 -12 9 -40 19 -63 36 -76 173 -400
222 -526 71 -179 115 -267 144 -286 24 -16 50 -15 101 1 15 5 23 0 31 -18 10
-21 8 -28 -10 -45 -12 -11 -33 -25 -45 -32 -23 -11 -24 -21 -7 -62 6 -15 2
-18 -23 -18 -52 0 -62 -9 -62 -51 0 -28 -4 -39 -15 -39 -17 0 -20 -16 -5 -25
6 -3 10 -1 10 6 0 30 37 -24 80 -116 87 -183 230 -412 373 -593 36 -46 47 -66
39 -74 -12 -12 -43 11 -182 141 -86 81 -105 115 -34 61 21 -16 45 -30 52 -30
25 0 -9 43 -107 137 -53 51 -92 93 -87 93 4 0 21 -11 38 -25 32 -27 52 -33 46
-12 -3 6 -10 12 -15 12 -6 0 -35 19 -63 43 -53 42 -75 52 -67 30 2 -7 9 -12
15 -11 5 1 18 -8 28 -20 l19 -22 -22 19 c-13 11 -23 16 -23 12 0 -3 47 -52
105 -107 58 -56 105 -106 105 -112 0 -5 -8 -3 -17 5 -10 9 -33 23 -51 32 -78
40 -5 -49 160 -196 l69 -62 -38 -32 -37 -31 29 -27 c162 -144 343 -279 480
-357 82 -46 94 -56 119 -105 33 -64 95 -122 181 -169 80 -45 110 -79 129 -145
21 -71 50 -110 68 -92 10 10 9 18 -5 42 -10 16 -25 53 -33 81 -18 61 -49 92
-155 153 -86 50 -136 105 -173 188 -22 50 -27 55 -50 51 -48 -10 -326 175
-476 316 l-65 60 25 20 c61 49 62 49 133 -22 35 -36 74 -68 86 -72 14 -4 37 2
67 19 l46 26 65 -53 c72 -58 79 -69 89 -155 7 -67 16 -88 34 -77 12 8 11 24
-10 131 -11 59 -14 63 -83 119 -40 32 -77 62 -83 66 -6 5 -26 -2 -47 -16 -20
-14 -45 -25 -56 -25 -21 0 -131 100 -131 119 0 6 15 19 34 28 33 15 35 15 61
-6 35 -27 46 -27 75 4 l24 26 60 -59 c34 -32 87 -80 119 -107 31 -26 57 -56
57 -66 0 -36 94 -314 113 -336 11 -12 29 -23 40 -25 12 -2 27 -14 34 -28 7
-14 18 -25 25 -25 7 0 26 -20 43 -45 16 -24 48 -56 69 -71 29 -20 45 -41 63
-87 18 -44 30 -62 43 -62 12 0 21 -10 25 -31 4 -18 15 -33 26 -36 13 -4 21
-21 29 -62 21 -98 28 -127 29 -106 0 11 -4 40 -10 65 -10 44 -69 445 -69 465
1 6 16 -7 35 -28 27 -31 35 -50 40 -95 3 -32 13 -106 22 -167 18 -127 23 -308
8 -315 -5 -3 -13 9 -17 25 -6 26 -7 25 -3 -8 3 -33 1 -39 -27 -53 -41 -21 -45
-13 -54 118 -4 62 -11 108 -17 108 -7 0 -8 -46 -4 -135 l5 -134 -46 -30 c-26
-16 -59 -34 -74 -40 -17 -6 -28 -18 -28 -29 0 -26 126 -274 149 -293 19 -16
19 -16 -2 -38 -21 -21 -22 -30 -21 -184 0 -98 7 -206 18 -273 13 -89 14 -120
5 -162 -9 -44 -14 -52 -29 -47 -26 8 -50 -5 -50 -27 0 -11 -12 -34 -26 -51
-20 -24 -24 -37 -19 -61 3 -17 5 -42 4 -56 -1 -14 -2 -44 -3 -67 -1 -46 4 -43
-90 -59 l-39 -7 6 -83 c11 -157 142 -488 277 -700 180 -284 236 -354 281 -354
21 0 35 -11 62 -47 l35 -48 -56 -60 c-99 -106 -97 -101 -59 -128 42 -32 212
-108 306 -137 40 -13 83 -33 95 -44 39 -37 170 -189 215 -251 92 -123 141
-163 141 -116 0 11 -16 59 -35 107 -60 147 -53 145 105 -38 66 -76 97 -104
107 -94 3 3 -25 65 -61 138 l-68 133 52 -54 c58 -62 82 -60 56 4 -9 21 -15 39
-14 41 2 1 37 -38 78 -87 102 -121 116 -118 55 11 -20 40 -35 83 -33 94 2 16
18 1 68 -68 149 -204 189 -250 206 -234 14 15 -27 97 -148 296 -31 51 4 42 42
-12 32 -44 74 -75 86 -63 4 4 -5 33 -20 66 -14 32 -26 61 -26 65 0 16 25 3 58
-32 42 -43 50 -32 28 41 -8 26 -11 49 -6 52 9 5 32 -20 50 -55 18 -35 173
-241 198 -263 27 -24 46 -13 37 21 -6 26 -91 182 -147 271 -44 71 -33 82 22
22 28 -30 53 -52 56 -48 4 3 -1 24 -10 47 -24 61 -20 67 20 29 l36 -34 -7 45
-7 45 37 -43 c20 -23 45 -42 56 -42 36 0 34 31 -4 102 -20 37 -37 72 -37 78 0
27 25 3 75 -72 92 -136 172 -250 189 -266 12 -12 19 -13 27 -5 9 9 -11 54 -80
181 -50 94 -91 175 -91 181 0 21 24 11 50 -21 36 -42 56 -31 34 20 -28 66 -27
68 8 30 20 -21 41 -38 47 -38 26 0 10 40 -86 205 -14 24 -17 55 -18 158 l0
129 84 28 c50 17 96 27 111 23 23 -4 28 -1 33 24 13 57 23 61 61 24 19 -18 39
-30 45 -26 17 10 37 55 51 115 7 30 21 83 32 117 18 62 18 62 63 69 126 18
235 157 235 298 0 41 5 57 20 71 82 74 89 315 10 315 -11 0 -20 -3 -20 -7 0
-5 -21 -34 -46 -66 -44 -57 -46 -58 -67 -42 -70 51 -114 75 -138 75 -18 0 -30
6 -33 18 -10 34 -46 199 -65 297 l-19 100 26 45 c14 25 46 72 72 105 43 54 77
88 216 215 61 55 89 143 88 275 0 122 -21 224 -84 415 -63 189 -74 228 -56
209 7 -8 55 -60 105 -117 89 -98 126 -130 138 -118 11 10 -13 49 -82 134 -37
46 -65 85 -63 88 7 6 43 -30 101 -103 75 -94 212 -223 237 -223 11 0 20 3 20
7 0 14 -89 123 -168 206 -47 48 -82 91 -78 94 3 4 46 -33 95 -80 82 -81 121
-105 121 -74 0 6 -29 48 -65 92 -36 44 -65 83 -65 87 0 18 17 5 50 -38 47 -60
234 -244 249 -244 6 0 11 3 11 8 0 10 -104 150 -139 187 -49 52 -101 126 -101
143 0 10 23 -7 63 -46 35 -34 66 -60 70 -56 8 8 -16 55 -57 114 -45 63 -48 70
-38 70 5 0 29 -25 53 -56 73 -94 76 -97 88 -90 14 9 -21 74 -81 150 -21 27
-36 51 -33 55 4 3 13 -3 21 -13 11 -16 14 -17 14 -4 0 16 -72 116 -94 130 -7
4 1 20 21 40 63 66 92 178 63 247 -11 27 -10 37 8 79 39 91 38 99 -21 254 -31
79 -72 193 -92 253 -21 61 -68 187 -105 280 -37 94 -96 255 -130 359 -34 103
-70 194 -79 201 -23 19 -126 105 -188 156 -37 31 -52 51 -52 70 -1 40 -46 118
-108 190 -32 36 -80 92 -107 124 -80 93 -131 114 -185 76 -48 -34 -266 -280
-273 -309 -10 -36 8 -80 41 -97 15 -7 67 -20 117 -29 132 -23 159 -37 59 -32
l-80 5 75 -11 c41 -5 76 -12 78 -13 2 -2 -4 -18 -14 -37 -10 -18 -19 -39 -20
-46 -8 -45 -56 -53 -160 -26 -35 8 -74 14 -86 12 -22 -3 -23 -7 -21 -85 1 -85
18 -138 43 -138 10 0 17 14 20 45 3 25 12 56 20 70 8 14 14 36 13 50 0 21 1
21 4 3 2 -12 14 -24 27 -27 37 -9 60 -88 37 -125 -8 -12 -11 -9 -16 12 -12 47
-25 29 -26 -35 0 -36 -8 -82 -18 -107 l-18 -44 -7 41 c-7 50 -24 54 -72 17
-32 -25 -33 -25 -44 -6 -5 11 -10 73 -11 138 -1 204 -20 286 -55 239 -8 -11
-14 -37 -14 -58 0 -26 -4 -38 -14 -38 -28 0 -46 -42 -44 -100 l1 -55 6 50 7
50 9 -60 c5 -33 10 -52 12 -43 3 9 0 39 -5 66 -9 53 -1 82 23 82 10 0 15 11
15 36 0 19 5 45 11 57 l12 21 10 -24 c5 -14 11 -99 14 -190 7 -205 18 -233 73
-175 41 43 60 29 60 -46 0 -36 -11 -69 -60 -174 l-19 -40 0 65 c0 36 4 74 9
85 8 19 8 19 18 -5 10 -24 11 -24 11 -3 1 30 -19 40 -36 18 -8 -12 -13 -49
-13 -106 0 -75 -4 -96 -31 -158 -34 -75 -45 -85 -52 -48 l-4 22 -2 -22 c-1
-21 -6 -23 -62 -23 l-61 0 7 93 c4 51 3 87 -2 80 -11 -15 -80 92 -180 279 -67
125 -84 174 -67 191 4 3 16 -8 28 -26 16 -23 32 -33 58 -38 41 -6 80 -29 115
-67 32 -35 41 -22 58 79 17 96 38 178 55 209 17 31 3 60 -37 76 -19 9 -37 13
-40 10 -3 -3 6 -8 20 -11 53 -14 58 -32 31 -115 -14 -41 -30 -110 -36 -152
-15 -106 -18 -109 -67 -65 -22 20 -51 39 -63 41 -13 3 -34 7 -48 10 -17 3 -33
20 -49 49 -23 43 -23 45 -11 143 7 54 12 113 11 131 -1 30 1 32 36 36 l38 4
-39 1 c-30 2 -37 5 -32 18 3 9 6 19 6 24 0 5 8 11 18 13 16 4 16 5 0 6 -10 0
-18 8 -18 17 0 14 8 16 55 10 31 -3 96 -9 146 -13 84 -6 91 -5 114 17 18 17
25 34 25 63 0 101 -154 412 -237 477 -29 23 -81 26 -105 8 -9 -7 -47 -53 -84
-103 -37 -49 -88 -115 -114 -145 -89 -104 -110 -140 -110 -185 0 -74 45 -99
180 -99 79 -1 85 -2 88 -23 3 -17 -3 -22 -25 -26 l-28 -4 28 -2 c27 -1 34 -15
19 -38 -5 -8 -44 -13 -107 -16 l-100 -3 103 -2 103 -2 -6 -67 c-4 -38 -10 -84
-13 -104 l-7 -36 -32 14 c-29 11 -33 18 -39 63 -4 27 -10 50 -14 50 -4 0 -4
-17 1 -37 13 -58 9 -73 -7 -23 -18 56 -13 68 28 73 18 2 4 2 -32 0 -41 -3 -80
1 -105 10 -36 13 -44 13 -69 0 -26 -14 -31 -13 -77 16 -48 29 -49 30 -48 8 1
-12 5 -33 9 -47 7 -23 8 -23 9 -3 1 32 15 36 58 13 36 -18 40 -25 62 -107 13
-49 30 -113 38 -143 13 -51 56 -120 67 -110 2 3 -16 74 -42 159 -32 107 -48
148 -53 135 -10 -24 -10 2 0 36 6 20 11 11 30 -55 13 -44 34 -114 47 -156 14
-41 26 -88 28 -104 2 -19 15 -37 42 -57 36 -27 40 -28 51 -12 19 26 16 44 -17
127 -16 42 -30 85 -30 97 0 54 44 78 81 44 20 -18 14 -61 -6 -44 -21 18 -24
-2 -7 -52 13 -42 13 -60 2 -138 -11 -75 -15 -88 -27 -79 -21 18 -26 4 -9 -23
14 -22 14 -38 -1 -176 -10 -84 -20 -152 -24 -152 -14 0 -69 121 -105 229 -34
103 -36 114 -21 123 24 13 22 42 -3 35 -10 -3 -21 0 -24 7 -2 6 -5 1 -5 -11
-2 -53 93 -308 138 -372 12 -16 21 -40 21 -53 -1 -22 -2 -21 -30 11 -51 60
-128 240 -131 308 -2 26 -2 26 -6 4 -3 -13 0 -43 7 -65 11 -40 10 -44 -24 -94
-34 -51 -76 -149 -76 -177 0 -8 -9 -15 -20 -15 -13 0 -20 7 -20 18 0 36 39
172 70 242 l31 70 -21 37 c-21 40 -70 165 -117 300 -15 46 -34 83 -40 83 -15
0 -17 -21 -5 -35 5 -6 21 -46 37 -90 15 -44 43 -120 62 -168 19 -49 33 -91 30
-93 -2 -2 -26 44 -53 103 -71 156 -119 245 -130 242 -18 -5 -5 -42 93 -259 14
-30 34 -75 45 -99 l19 -44 -27 -76 c-15 -42 -29 -78 -30 -80 -10 -13 -44 39
-110 171 -73 144 -94 172 -94 126 0 -49 162 -330 185 -321 8 3 15 0 15 -6 0
-6 -4 -11 -9 -11 -5 0 -7 -9 -4 -20 3 -11 2 -36 -1 -55 l-7 -35 -64 0 c-36 0
-65 3 -65 6 0 3 14 23 31 44 38 47 34 76 -9 65 -15 -3 -37 -15 -48 -26 -12
-11 -24 -17 -27 -12 -2 4 -12 60 -22 123 -9 63 -22 147 -29 185 l-12 70 38 40
c22 22 41 49 43 60 29 152 27 147 123 275 17 24 31 52 31 64 -2 21 -2 21 -6 1
-2 -12 -31 -56 -64 -100 -58 -77 -89 -149 -89 -205 0 -25 -56 -110 -72 -110
-4 0 -10 10 -12 23 -3 12 -12 51 -21 87 -25 110 -65 314 -65 336 0 17 9 24 43
32 l42 11 -46 -6 -47 -5 -7 62 c-4 34 -5 63 -3 66 12 12 237 45 273 40 22 -3
34 -2 26 1 -9 4 1 13 30 27 38 18 44 26 47 55 2 19 -4 54 -14 79 -19 52 -127
183 -244 297 -45 44 -105 104 -133 133 -100 104 -216 146 -289 107z m160 -72
c48 -27 298 -272 381 -373 30 -35 60 -79 67 -97 16 -37 18 -83 5 -83 -5 0 -22
-3 -39 -6 l-31 -6 12 31 c10 27 8 37 -13 77 -14 25 -31 51 -39 57 -8 7 0 -13
18 -44 37 -67 38 -84 7 -104 -17 -12 -42 -15 -97 -12 -43 3 -64 1 -49 -3 14
-5 39 -9 55 -10 35 -3 -91 -28 -142 -29 -18 -1 -88 -19 -155 -41 -130 -42
-204 -51 -214 -25 -3 8 -1 32 4 52 l10 38 -1 -35 c0 -20 3 -41 7 -48 8 -14 55
-16 75 -3 10 6 0 8 -27 4 l-42 -6 0 74 c0 41 9 128 20 194 11 66 17 128 14
137 -5 16 20 206 32 250 16 54 62 57 142 11z m-1989 -258 c18 -25 29 -45 25
-45 -4 0 2 -10 13 -22 28 -32 95 -133 126 -193 22 -43 57 -122 57 -130 0 -1
-13 -5 -29 -8 -16 -3 -35 -12 -43 -20 -13 -13 -23 2 -78 111 -89 178 -121 259
-126 321 -6 63 1 61 55 -14z m3082 53 c48 -39 150 -220 189 -332 24 -72 27
-126 5 -126 -10 0 -15 10 -15 33 0 17 -4 38 -9 46 -5 8 -7 -4 -4 -33 l6 -46
-104 6 c-57 4 -105 8 -107 9 -2 2 11 60 29 131 31 125 33 161 14 244 -5 18 -1
15 14 -12 12 -20 26 -40 33 -44 19 -12 -32 69 -62 98 -35 32 -25 55 11 26z
m-61 -75 c0 -11 5 -9 19 8 l19 24 11 -26 c5 -15 13 -44 17 -65 7 -39 7 -39
-14 -21 -13 12 -28 17 -42 12 -18 -6 -20 -3 -16 22 3 15 -4 1 -15 -32 -19 -55
-20 -68 -10 -145 6 -47 14 -98 17 -114 6 -27 5 -29 -17 -23 -13 4 -66 7 -116
7 -56 0 -93 4 -93 10 0 6 38 63 84 128 90 125 146 214 146 228 0 5 -20 -22
-44 -61 -43 -67 -121 -178 -178 -252 -19 -24 -28 -30 -28 -19 0 32 28 82 80
141 30 33 78 93 107 133 51 68 73 82 73 45z m-2063 -23 c23 -10 82 -53 130
-95 86 -75 182 -175 167 -175 -4 0 1 -9 11 -20 10 -11 21 -17 25 -15 4 2 16
-5 26 -18 19 -22 19 -22 -2 -7 -11 8 -7 3 8 -11 15 -14 28 -35 28 -46 0 -22
-37 -43 -76 -43 -23 0 -204 -34 -247 -46 -16 -5 -17 2 -11 104 l7 109 -34 63
c-18 34 -52 83 -74 109 -38 41 -65 81 -65 95 0 5 27 13 50 15 8 0 34 -8 57
-19z m-128 -170 l8 -151 50 -52 c46 -48 89 -106 81 -110 -46 -25 -278 -137
-282 -137 -3 0 -6 12 -6 27 0 37 -11 22 -12 -16 -1 -23 -6 -31 -19 -31 -10 0
-21 5 -24 10 -10 15 22 158 60 271 19 56 42 139 51 186 10 49 23 87 31 90 7 3
13 10 13 17 0 15 31 59 37 52 3 -3 8 -73 12 -156z m67 83 c19 -21 51 -65 72
-98 36 -58 37 -62 36 -155 0 -52 -5 -103 -11 -114 -9 -17 -11 -16 -31 10 -11
16 -41 51 -66 78 -25 27 -46 58 -46 69 0 18 2 17 21 -7 25 -32 55 -33 86 -4
40 38 27 105 -26 132 -23 13 -32 13 -54 1 -33 -17 -37 -7 -37 88 1 54 3 68 11
55 5 -10 26 -35 45 -55z m2172 2 c3 -19 -2 -34 -15 -43 -17 -14 -17 -14 5 -9
19 4 22 2 17 -11 -4 -9 -13 -48 -22 -87 -9 -38 -19 -74 -23 -78 -8 -10 -26 54
-36 132 -7 53 -7 53 17 46 22 -7 22 -7 6 9 -22 22 -21 32 4 57 26 26 43 20 47
-16z m790 -109 c114 -125 200 -236 207 -266 8 -37 9 -35 -32 -43 -31 -6 -32
-6 -26 28 4 23 0 41 -12 57 -14 19 -16 19 -10 3 31 -81 15 -91 -115 -74 -82
11 -99 16 -96 29 3 8 13 48 22 87 17 70 17 74 -1 94 -11 11 -27 18 -37 16 -21
-6 -22 -4 -6 40 15 42 29 38 50 -18 9 -24 17 -38 17 -31 1 7 -6 28 -13 47 -17
40 -15 41 19 19 14 -9 25 -14 25 -11 0 8 -66 47 -79 47 -17 0 -63 -52 -131
-150 -86 -123 -107 -147 -120 -134 -19 19 5 56 125 187 85 91 124 127 140 127
15 0 40 -19 73 -54z m-2913 -11 c14 -13 25 -36 25 -50 0 -27 -31 -65 -54 -65
-23 0 -56 50 -56 84 0 59 43 74 85 31z m2781 -61 c-21 -61 -20 -79 4 -149 11
-32 20 -60 20 -63 0 -7 -180 4 -188 12 -3 4 -2 13 3 20 6 7 28 40 50 73 68
100 117 164 122 159 3 -3 -2 -26 -11 -52z m59 -24 c3 -10 1 -28 -4 -39 -6 -11
-7 -21 -2 -23 11 -4 -8 -98 -20 -98 -8 0 -39 85 -39 108 0 12 2 12 17 1 15
-13 15 -12 4 9 -8 16 -9 27 -1 42 14 26 37 26 45 0z m-3439 -205 c81 -114 97
-153 67 -163 -9 -2 -13 6 -13 25 0 30 -11 49 -76 135 -23 29 -53 78 -68 108
-31 65 -22 54 90 -105z m-110 110 c30 -45 -12 -108 -50 -76 -23 20 -28 72 -9
87 26 20 41 17 59 -11z m1156 11 c20 -15 14 -26 -14 -26 -11 0 -18 7 -18 20 0
23 8 25 32 6z m-1032 -195 c17 -25 30 -54 30 -64 0 -20 -77 -97 -97 -97 -15 0
-63 97 -63 127 0 13 -7 40 -15 60 -21 49 -19 57 15 70 17 6 30 19 30 28 0 17
34 -26 100 -124z m845 109 c-11 -5 -45 -16 -75 -25 -30 -9 -73 -27 -96 -40
-22 -13 -65 -33 -95 -44 -68 -27 -240 -74 -245 -68 -3 3 57 35 132 71 111 54
156 71 238 86 56 10 110 21 121 23 33 7 41 6 20 -3z m-1017 -45 c-3 -3 -9 2
-12 12 -6 14 -5 15 5 6 7 -7 10 -15 7 -18z m3595 4 c-8 -8 -19 -8 -40 -1 -28
10 -28 10 12 11 28 1 36 -2 28 -10z m80 -6 c-7 -2 -19 -2 -25 0 -7 3 -2 5 12
5 14 0 19 -2 13 -5z m-3654 -53 c0 -10 -3 -8 -9 5 -12 27 -12 43 0 25 5 -8 9
-22 9 -30z m1895 -121 c4 -33 0 -24 -19 35 -14 44 -25 87 -24 95 1 25 36 -81
43 -130z m-46 84 c49 -180 72 -265 85 -305 8 -27 12 -48 7 -48 -4 0 -10 8 -13
18 -25 86 -99 341 -103 355 -3 9 -1 17 4 17 5 0 14 -17 20 -37z m677 -11 c10
-61 22 -71 31 -26 l7 39 18 -50 c10 -27 18 -61 18 -75 0 -15 -7 -3 -18 30 -16
52 -17 54 -25 27 -5 -21 4 -65 29 -154 39 -135 43 -180 6 -61 -90 287 -99 324
-83 314 6 -3 13 -23 17 -44z m1297 26 c-2 -10 -9 -18 -15 -18 -6 0 -3 -6 7
-13 22 -16 12 -44 -17 -50 -18 -4 -17 -5 5 -6 19 -1 29 5 33 19 3 11 4 23 1
28 -2 4 6 12 19 19 23 10 25 8 51 -61 15 -39 74 -186 130 -326 l102 -255 -31
-13 c-24 -11 -32 -11 -38 0 -7 11 -63 152 -88 221 -11 29 -31 37 -31 11 0 -8
18 -63 41 -122 22 -59 43 -116 46 -127 l4 -20 -16 20 c-17 20 -17 20 -11 -1 5
-16 -1 -24 -29 -37 -47 -22 -62 -22 -42 1 24 27 21 61 -5 71 -54 21 -82 -45
-35 -81 l22 -18 -27 0 c-24 0 -29 7 -48 66 -12 36 -24 63 -26 61 -2 -2 5 -30
16 -62 11 -32 20 -61 20 -65 0 -7 -110 -33 -116 -27 -1 1 7 59 19 130 13 82
24 123 30 115 5 -9 7 -3 4 15 -4 25 1 33 47 62 33 21 55 30 62 24 7 -5 31 -59
55 -119 23 -61 44 -108 46 -106 6 5 -83 226 -96 239 -6 6 -21 2 -43 -12 -18
-12 -46 -27 -61 -33 -15 -7 -30 -22 -32 -33 -5 -23 -25 -171 -25 -186 0 -5 -4
-9 -8 -9 -12 0 -47 114 -77 250 -28 122 -53 175 -40 85 16 -118 58 -279 69
-268 5 4 6 -1 2 -13 -3 -11 3 -47 13 -79 11 -33 18 -62 15 -66 -4 -8 -134 -32
-140 -26 -2 2 -7 95 -11 208 -5 120 -12 204 -18 204 -19 0 -26 -93 -20 -256
l6 -167 -38 -4 c-21 -3 -38 -5 -39 -4 0 1 -24 69 -52 153 -51 150 -52 152 -36
190 9 21 21 49 27 63 8 22 12 12 28 -73 9 -55 20 -105 23 -114 11 -28 26 -1
27 50 1 110 14 158 47 186 21 17 32 35 32 51 0 33 26 70 50 70 24 0 61 -48 95
-123 15 -31 30 -57 35 -57 5 0 35 7 66 15 60 15 77 29 69 55 -2 8 -7 38 -10
65 -10 82 -26 133 -49 152 -21 18 -21 18 -4 -2 21 -26 35 -81 44 -171 l6 -72
-57 -17 c-31 -9 -60 -13 -64 -10 -3 4 -24 41 -46 83 -47 89 -62 101 -105 85
l-30 -11 0 59 c0 32 -1 62 -2 67 -1 4 11 10 28 13 l29 7 -32 1 c-18 0 -33 3
-33 5 0 17 15 36 29 36 12 0 13 2 3 9 -10 6 -11 13 -1 34 11 25 17 27 83 29
l71 2 -70 5 c-92 8 -50 18 71 17 81 -1 90 -3 86 -18z m-1987 -79 c14 -46 24
-88 22 -93 -2 -5 -13 26 -26 70 -33 114 -34 120 -27 113 3 -3 17 -43 31 -90z
m633 60 c-3 -8 -7 -3 -11 10 -4 17 -3 21 5 13 5 -5 8 -16 6 -23z m-617 -203
c20 -77 19 -111 0 -65 -16 35 -71 256 -70 276 1 22 44 -106 70 -211z m774 147
c7 -24 10 -43 5 -43 -9 0 -31 80 -29 107 1 16 2 15 6 -2 3 -11 11 -39 18 -62z
m-831 -58 c15 -60 29 -116 31 -122 3 -7 1 -13 -3 -13 -5 0 -21 51 -36 113 -15
61 -30 121 -33 132 -3 13 -2 17 5 10 5 -5 22 -59 36 -120z m-125 68 c18 -71
24 -119 13 -108 -9 8 -32 108 -32 137 0 20 10 5 19 -29z m35 -36 c19 -80 20
-120 1 -62 -14 45 -30 143 -22 135 3 -3 13 -36 21 -73z m24 -7 l0 -25 -8 25
c-4 14 -8 39 -8 55 l0 30 8 -30 c4 -16 8 -41 8 -55z m-432 62 c14 -9 25 -80
18 -109 -4 -14 -19 -26 -43 -34 -65 -21 -115 -51 -153 -91 -34 -37 -38 -38
-48 -21 -91 153 -98 168 -87 175 20 12 219 77 252 81 17 2 35 5 40 5 6 1 15
-2 21 -6z m322 -49 c5 -29 6 -53 2 -53 -7 0 -20 58 -20 94 0 32 8 14 18 -41z
m30 -28 l0 -30 -8 30 c-4 17 -8 44 -8 60 l0 30 8 -30 c4 -16 8 -43 8 -60z
m871 -65 c29 -100 33 -132 13 -93 -10 18 -52 178 -52 197 0 21 10 -4 39 -104z
m60 40 c0 -10 -3 -8 -9 5 -12 27 -12 43 0 25 5 -8 9 -22 9 -30z m778 -2 c-3
-8 -6 -5 -6 6 -1 11 2 17 5 13 3 -3 4 -12 1 -19z m33 18 c0 -3 -4 -8 -10 -11
-5 -3 -10 -1 -10 4 0 6 5 11 10 11 6 0 10 -2 10 -4z m-1642 -71 l1 -20 -9 20
c-5 11 -8 31 -8 45 l0 25 8 -25 c4 -14 8 -34 8 -45z m1672 23 c0 -49 -5 -47
-14 5 -4 23 -3 37 4 37 5 0 10 -19 10 -42z m37 5 c-3 -10 -5 -4 -5 12 0 17 2
24 5 18 2 -7 2 -21 0 -30z m-1550 5 c-3 -8 -6 -5 -6 6 -1 11 2 17 5 13 3 -3 4
-12 1 -19z m1530 -40 c-2 -13 -4 -3 -4 22 0 25 2 35 4 23 2 -13 2 -33 0 -45z
m111 -55 c-1 -68 -5 -93 -15 -97 -9 -4 -11 -1 -7 6 4 7 7 57 5 113 -1 70 1 95
8 85 6 -8 10 -56 9 -107z m-2559 -4 c34 -56 61 -106 61 -112 0 -23 -24 -87
-33 -87 -29 0 -235 236 -219 252 10 10 102 47 119 48 6 0 39 -46 72 -101z
m1659 -2 c23 -64 29 -94 22 -105 -5 -10 -10 -15 -10 -12 0 3 -13 52 -30 110
-16 58 -30 107 -30 109 0 18 22 -28 48 -102z m-323 -140 c58 -125 73 -176 27
-92 -42 77 -142 300 -141 316 0 15 29 -41 114 -224z m932 171 c-2 -13 -4 -3
-4 22 0 25 2 35 4 23 2 -13 2 -33 0 -45z m-2929 -25 c32 -43 89 -126 128 -185
38 -60 122 -185 187 -279 119 -174 132 -203 103 -242 -13 -16 -17 -14 -53 30
-57 68 -199 268 -230 322 -14 25 -38 64 -53 86 -42 61 -171 325 -165 335 12
19 25 9 83 -67z m1561 -1 c11 -39 17 -72 13 -72 -7 0 -42 122 -42 144 0 21 10
-3 29 -72z m40 28 c0 -9 -4 -8 -9 5 -5 11 -9 27 -9 35 0 9 4 8 9 -5 5 -11 9
-27 9 -35z m1588 -42 c-2 -18 -4 -4 -4 32 0 36 2 50 4 33 2 -18 2 -48 0 -65z
m-797 47 c0 -5 -5 -3 -10 5 -5 8 -10 20 -10 25 0 6 5 3 10 -5 5 -8 10 -19 10
-25z m573 -22 c-8 -52 -13 -54 -13 -5 0 23 4 42 9 42 6 0 7 -17 4 -37z m-2357
-156 c70 -74 85 -97 66 -97 -16 0 -251 263 -245 273 3 6 28 -14 56 -44 27 -30
83 -89 123 -132z m2561 61 c-2 -24 -4 -5 -4 42 0 47 2 66 4 43 2 -24 2 -62 0
-85z m-3239 -13 c34 -69 60 -125 58 -125 -5 0 -136 236 -136 244 0 25 25 -13
78 -119z m577 8 c54 -60 113 -125 132 -146 48 -51 33 -61 -18 -11 -47 45 -210
229 -222 250 -23 40 20 3 108 -93z m516 90 c1 -10 1 -37 0 -60 -3 -53 14 -86
40 -78 12 4 19 2 19 -7 1 -44 24 -168 49 -258 32 -114 47 -225 33 -234 -5 -3
-26 20 -47 51 -35 53 -38 62 -40 141 -3 68 -9 94 -31 138 -15 30 -33 54 -39
54 -7 0 -26 7 -43 16 -25 12 -36 13 -53 3 -20 -10 -25 -8 -45 16 -19 24 -20
32 -11 54 23 53 90 143 120 162 39 23 47 24 48 2z m-1113 -115 c34 -62 82
-144 106 -183 25 -38 66 -106 92 -150 26 -44 67 -111 92 -148 24 -37 42 -70
39 -73 -16 -16 -188 241 -326 488 -94 169 -98 178 -79 178 7 0 41 -51 76 -112z
m554 -138 c134 -143 172 -190 170 -208 -3 -20 -6 -19 -39 20 -19 23 -63 72
-98 108 -80 84 -285 318 -285 326 0 15 93 -76 252 -246z m107 41 c90 -98 109
-130 59 -97 -38 25 -258 283 -258 302 0 9 36 -28 199 -205z m-665 24 c130
-240 315 -515 348 -515 6 0 7 11 3 27 -4 16 -5 26 -2 23 33 -35 165 -205 161
-209 -2 -2 -11 4 -20 15 -15 18 -15 18 -9 -3 7 -24 -17 -43 -53 -43 -54 0
-386 492 -502 744 -22 48 -40 95 -40 105 0 53 26 21 114 -144z m452 103 c39
-40 88 -93 109 -118 21 -25 69 -78 107 -118 105 -113 80 -110 -30 3 -284 294
-294 305 -275 305 10 0 50 -33 89 -72z m77 -28 c43 -52 110 -128 148 -168 38
-40 69 -75 69 -78 0 -19 -35 7 -91 69 -123 133 -239 266 -239 272 0 4 8 5 17
3 10 -2 53 -46 96 -98z m-81 -78 c44 -51 79 -95 77 -97 -4 -4 -193 202 -223
244 -35 48 63 -50 146 -147z m-138 114 c271 -292 353 -400 380 -506 4 -14 -8
2 -27 36 -18 34 -51 83 -73 110 -203 253 -262 324 -293 357 -19 20 -31 37 -27
37 5 0 23 -15 40 -34z m2833 -3 c-3 -10 -5 -4 -5 12 0 17 2 24 5 18 2 -7 2
-21 0 -30z m-528 -128 c29 -55 48 -95 43 -90 -17 16 -132 223 -132 237 0 16
21 -19 89 -147z m-2313 107 c176 -215 317 -397 342 -442 17 -30 42 -89 55
-130 14 -41 28 -83 32 -92 5 -14 2 -18 -13 -18 -29 0 -41 20 -51 91 -5 35 -15
78 -22 94 -19 44 -85 140 -143 209 -28 34 -73 90 -99 126 -26 36 -70 92 -97
125 -27 33 -49 63 -50 68 0 16 17 5 46 -31z m1342 -35 c56 -57 72 -94 73 -172
1 -107 -47 -197 -125 -235 -49 -23 -66 -20 -66 12 0 19 45 68 62 68 4 0 19 17
33 37 19 29 25 50 25 95 0 67 -10 98 -50 148 -31 40 -42 100 -17 100 7 0 36
-24 65 -53z m1581 -96 c2 -88 -6 -54 -12 54 -4 71 -3 85 3 50 4 -27 9 -74 9
-104z m-648 47 c29 -51 75 -129 102 -173 79 -125 108 -203 72 -189 -8 3 -69
72 -136 152 l-121 146 7 45 c10 72 17 111 20 111 2 0 27 -42 56 -92z m-2698
71 c15 -7 33 -34 52 -77 66 -155 230 -413 390 -615 l85 -107 -40 -20 c-21 -11
-41 -20 -43 -20 -7 0 -99 121 -176 230 -104 149 -181 278 -255 432 -87 179
-89 212 -13 177z m991 -74 l37 -56 -19 -62 c-37 -121 -46 -193 -32 -268 7 -40
22 -84 36 -105 14 -20 24 -37 22 -39 -2 -1 -18 -7 -37 -14 -42 -14 -61 0 -98
72 -51 102 -47 259 12 425 19 53 35 98 35 100 0 9 12 -5 44 -53z m1043 -27
c44 -87 74 -154 58 -134 -16 21 -95 170 -95 180 0 16 12 1 37 -46z m-312 2
c40 -57 46 -152 13 -198 -12 -19 -38 -43 -57 -55 l-34 -21 7 89 c8 111 27 225
36 225 4 0 20 -18 35 -40z m1729 -157 c4 -107 3 -183 -3 -183 -11 0 -25 276
-16 330 4 23 8 40 10 38 1 -2 5 -85 9 -185z m-1977 85 c-2 -18 -4 -4 -4 32 0
36 2 50 4 33 2 -18 2 -48 0 -65z m2081 37 c0 -16 -2 -15 -8 5 -11 34 -11 60 0
35 5 -11 8 -29 8 -40z m-2369 -9 c17 -20 25 -81 14 -101 -8 -14 -16 -8 -47 38
-21 31 -35 60 -32 66 10 16 51 14 65 -3z m1091 -107 c-17 -40 -35 -93 -41
-119 -21 -96 -30 -120 -44 -120 -18 0 -18 -7 -1 82 19 97 50 184 84 233 23 35
27 37 30 18 2 -12 -11 -54 -28 -94z m-1221 87 c6 -7 13 -50 15 -94 6 -114 37
-183 93 -201 31 -10 45 -11 62 -1 24 13 30 8 66 -52 15 -27 15 -28 -3 -28 -11
0 -39 -7 -63 -15 -24 -9 -55 -16 -69 -17 -14 -1 -29 -5 -35 -8 -84 -57 -161
84 -135 247 14 83 41 183 50 183 4 0 13 -6 19 -14z m197 -51 c19 -42 24 -67
22 -111 l-3 -58 -29 45 c-25 37 -30 54 -30 111 -1 38 3 68 7 68 4 0 19 -25 33
-55z m1445 -37 c40 -51 100 -121 133 -156 33 -34 57 -65 54 -67 -3 -3 -52 43
-109 102 -114 118 -107 106 14 -25 42 -46 77 -88 77 -93 0 -5 -22 -9 -50 -9
l-49 0 -21 70 c-19 65 -34 89 -47 76 -3 -3 2 -12 11 -21 8 -9 20 -34 26 -56 6
-22 14 -47 17 -55 3 -9 -2 -14 -16 -14 -14 0 -22 8 -27 28 -10 45 -14 50 -10
10 l5 -38 -60 0 c-59 0 -63 2 -60 40 3 66 22 255 26 258 2 2 16 -9 30 -24 l27
-29 -26 36 c-23 31 -33 59 -23 59 2 0 37 -42 78 -92z m-1903 -83 c20 -27 42
-55 48 -62 6 -6 14 -34 17 -61 6 -49 46 -144 67 -157 16 -10 11 -25 -9 -25
-14 0 -27 21 -54 83 -19 45 -38 93 -42 107 -14 47 -48 105 -108 185 l-60 80
52 -50 c29 -27 69 -72 89 -100z m849 113 c-3 -7 -5 -2 -5 12 0 14 2 19 5 13 2
-7 2 -19 0 -25z m1710 10 c-3 -8 -6 -5 -6 6 -1 11 2 17 5 13 3 -3 4 -12 1 -19z
m-503 -77 c26 -40 45 -78 43 -84 -2 -6 -21 21 -42 59 -21 38 -45 80 -53 94
-34 55 8 0 52 -69z m430 -50 c20 -63 35 -116 33 -118 -5 -4 -131 -21 -135 -18
-2 2 3 13 10 24 11 18 11 23 0 30 -20 12 -26 75 -11 102 13 23 14 21 20 -36 6
-59 6 -59 7 23 2 82 16 133 32 116 4 -5 24 -60 44 -123z m-2144 59 c23 -33 39
-64 36 -68 -3 -5 -6 -27 -7 -50 -3 -47 -8 -50 -32 -24 -33 36 -73 202 -48 202
6 0 29 -27 51 -60z m337 -142 c-2 -35 -3 -9 -3 57 0 66 1 94 3 63 2 -32 2 -86
0 -120z m2132 107 c0 -5 -4 -3 -9 5 -5 8 -9 22 -9 30 0 16 17 -16 18 -35z
m-1190 -25 c13 -28 38 -73 58 -101 19 -28 33 -52 31 -52 -2 -1 -50 -1 -106 1
l-104 3 7 37 c10 54 66 162 84 162 4 0 18 -23 30 -50z m1378 3 c-4 -17 -4 -17
-12 0 -4 9 -4 25 0 35 8 16 8 16 12 0 3 -10 3 -26 0 -35z m36 34 c3 -8 1 -20
-4 -28 -6 -10 -9 -7 -9 14 0 29 5 35 13 14z m-203 -47 c0 -5 -4 -10 -10 -10
-5 0 -10 5 -10 10 0 6 5 10 10 10 6 0 10 -4 10 -10z m499 -177 c46 -104 107
-242 136 -308 163 -369 176 -415 136 -493 -25 -49 -112 -129 -148 -137 -15 -4
-33 -8 -40 -10 -28 -9 -93 21 -162 73 -201 154 -206 155 -195 63 5 -47 2 -64
-20 -111 -22 -47 -26 -69 -26 -148 l0 -93 -30 3 c-29 3 -32 8 -67 108 -38 114
-47 130 -63 114 -7 -7 -2 -33 16 -80 48 -131 51 -144 29 -144 -18 0 -24 12
-65 145 -18 55 -35 103 -38 106 -11 11 -82 -39 -92 -64 -5 -12 -17 -59 -27
-105 l-17 -83 -40 3 c-36 3 -41 6 -46 33 -8 35 -28 75 -38 75 -4 0 -14 -4 -22
-10 -15 -9 -14 -14 18 -98 3 -10 -2 -13 -17 -10 -17 2 -27 16 -40 56 -34 99
-65 98 -39 -1 9 -34 14 -65 11 -69 -2 -5 -17 -8 -33 -8 -26 0 -29 4 -45 70 -9
39 -21 73 -26 75 -13 9 -57 -6 -63 -20 -2 -7 5 -43 17 -79 11 -36 19 -67 16
-70 -2 -2 -15 -6 -29 -8 -24 -3 -25 0 -37 72 -6 41 -12 76 -12 78 -1 1 -8 2
-16 2 -28 0 -38 -43 -26 -111 11 -64 9 -79 -13 -79 -13 0 -26 61 -26 122 0 35
-24 47 -49 24 -27 -24 -31 -20 -31 31 0 76 -21 174 -52 243 l-29 64 20 51 c11
27 21 56 23 64 2 8 19 -12 37 -45 49 -86 110 -174 122 -174 15 0 0 46 -58 170
-29 63 -53 120 -53 127 0 7 21 21 47 33 25 11 44 23 41 26 -3 3 -24 -5 -47
-17 -23 -12 -44 -19 -47 -16 -12 11 8 48 34 63 15 8 19 13 8 9 -15 -4 -17 -1
-12 17 3 13 6 26 6 31 0 13 20 8 20 -5 1 -33 16 -40 49 -24 17 9 31 19 31 22
0 2 -9 0 -19 -6 -30 -15 -38 -13 -51 19 -9 23 -9 38 0 65 l11 36 41 -23 c22
-12 52 -28 66 -36 l25 -14 -34 -18 c-53 -28 -29 -22 42 11 35 16 58 29 52 30
-9 0 -14 22 -15 73 l-2 72 -3 -60 c-7 -125 -25 -111 -58 46 -13 63 -24 103
-24 89 0 -14 8 -65 19 -114 11 -50 20 -94 20 -98 0 -14 -18 -9 -53 15 -19 12
-42 27 -52 32 -17 10 -17 14 4 70 12 33 34 84 48 114 14 30 33 73 44 97 10 24
23 44 29 44 6 0 11 -34 12 -82 2 -73 2 -76 5 -23 5 84 23 104 103 115 36 5 68
6 71 2 7 -8 23 -70 40 -160 14 -73 10 -80 -72 -133 -44 -28 -65 -59 -39 -59 6
0 10 6 10 13 0 8 69 63 153 124 137 100 201 153 184 153 -3 0 -20 -13 -38 -30
-24 -21 -35 -26 -41 -17 -10 15 -10 134 0 140 4 3 33 8 66 12 l58 8 -8 -34
c-10 -44 -9 -52 13 -127 18 -59 34 -82 58 -82 6 1 2 5 -7 10 -28 17 -61 133
-53 189 7 49 7 49 53 60 26 6 63 13 83 15 19 2 67 15 106 29 l71 24 11 -21
c10 -19 11 -19 6 7 -14 69 17 11 94 -180 130 -323 168 -393 208 -393 20 0 15
24 -8 38 -24 15 -54 78 -155 330 -41 101 -81 197 -89 212 -14 26 -13 30 3 39
40 24 47 14 131 -176z m-2892 92 c-2 -5 -14 -10 -28 -10 -26 0 -35 21 -24 62
l6 26 25 -34 c13 -18 23 -38 21 -44z m846 32 c-13 -23 -68 -87 -74 -87 -4 0
-9 10 -12 22 -7 25 23 64 58 78 24 9 38 3 28 -13z m1087 -57 c-10 -19 -50 -29
-50 -13 0 4 8 27 17 52 l17 45 13 -33 c10 -23 10 -37 3 -51z m-1363 -22 c-3
-8 -6 -5 -6 6 -1 11 2 17 5 13 3 -3 4 -12 1 -19z m103 2 c0 -5 -5 -10 -11 -10
-5 0 -7 5 -4 10 3 6 8 10 11 10 2 0 4 -4 4 -10z m1560 -107 c0 -39 -4 -75 -10
-78 -6 -4 -10 27 -10 87 0 64 3 88 10 78 5 -8 10 -47 10 -87z m-2615 17 c15
-36 29 -71 32 -79 4 -9 2 -12 -5 -7 -6 3 -19 30 -30 59 -43 116 -41 134 3 27z
m2585 -18 c0 -49 -3 -92 -7 -96 -7 -7 -61 143 -63 172 0 7 13 12 35 12 l35 0
0 -88z m-81 6 c12 -40 28 -85 36 -100 11 -23 11 -27 -2 -33 -9 -3 -17 -4 -19
-3 -1 2 -12 41 -24 88 -11 47 -23 93 -26 103 -3 9 -1 17 4 17 5 0 19 -33 31
-72z m-1499 18 c0 -51 18 -54 37 -7 9 24 23 41 32 41 13 0 16 -14 17 -88 0
-73 4 -97 27 -146 15 -32 27 -60 27 -62 0 -2 -20 16 -44 41 -24 24 -60 48 -79
53 -96 27 -207 -51 -225 -158 l-7 -42 -39 56 -39 57 16 119 c9 65 20 125 23
133 6 16 47 27 99 27 28 0 32 -3 28 -19 -3 -10 0 -22 5 -25 15 -9 82 25 82 41
0 7 9 13 20 13 16 0 20 -7 20 -34z m29 12 c-17 -34 -19 -34 -19 -5 0 18 5 27
15 27 13 0 14 -4 4 -22z m271 -60 c0 -46 5 -116 10 -157 6 -41 8 -76 7 -78 -2
-1 -25 31 -51 72 -26 41 -58 83 -70 93 -15 11 -28 37 -35 70 -18 85 -20 82 64
82 l75 0 0 -82z m47 -49 c2 -68 1 -135 -3 -149 -7 -24 -7 -23 -15 10 -12 51
-23 235 -15 255 3 9 12 15 18 13 9 -3 13 -42 15 -129z m50 -15 c-4 -126 -7
-147 -23 -160 -18 -13 -17 -14 8 -8 24 5 29 2 38 -21 6 -15 8 -43 4 -61 -10
-53 2 -84 31 -84 17 0 25 -5 25 -17 0 -20 -17 -50 -23 -43 -23 27 -110 167
-109 175 9 52 11 110 11 228 0 134 0 137 22 137 21 0 22 -1 16 -146z m123 141
c0 -2 -7 -30 -16 -62 -12 -46 -14 -86 -9 -188 7 -123 6 -132 -14 -157 -32 -40
-6 -46 30 -7 l29 32 -1 116 c-2 81 3 138 15 189 l18 72 49 0 c53 0 54 -1 39
-31 -6 -11 -15 -92 -19 -181 -5 -105 -12 -163 -19 -166 -7 -2 -9 -19 -6 -46
l6 -43 -50 5 c-30 2 -52 0 -56 -7 -4 -7 0 -11 12 -11 40 0 56 -35 60 -134 l4
-93 -35 -21 c-19 -12 -38 -22 -43 -22 -19 1 -186 241 -179 257 2 7 2 13 -1 13
-3 0 -19 -30 -36 -67 l-31 -68 -18 72 -19 72 23 35 c21 33 47 48 47 26 0 -5
20 -32 45 -60 24 -27 67 -83 94 -122 83 -122 93 -131 116 -115 19 14 18 16
-10 53 -73 95 -75 100 -59 132 18 37 9 62 -22 62 -26 0 -26 -1 -30 80 -2 30
-6 102 -9 159 -4 57 -4 133 0 168 l7 63 44 0 c24 0 44 -2 44 -5z m18 -92 c-15
-70 -18 -107 -13 -180 5 -69 3 -97 -7 -111 -21 -31 -17 290 5 341 28 65 36 40
15 -50z m318 71 c-3 -8 -1 -14 4 -14 6 0 10 -6 10 -14 0 -12 -7 -12 -36 -4
-20 5 -50 18 -67 28 l-31 19 63 0 c50 -1 61 -4 57 -15z m95 -94 c77 -205 80
-215 68 -249 -13 -37 -22 -39 -38 -8 -9 16 -10 17 -5 2 4 -11 9 -33 11 -50 4
-25 -1 -21 -27 25 -17 30 -49 89 -71 130 -46 87 -75 128 -84 118 -12 -12 13
-68 90 -205 64 -112 74 -135 66 -156 -9 -24 -29 -37 -56 -37 -7 0 -54 82 -105
181 l-91 182 7 67 c9 92 12 96 61 70 23 -11 54 -22 69 -23 27 -2 29 0 26 31
-2 29 1 33 19 30 17 -2 29 -25 60 -108z m69 98 c0 -18 -21 -141 -27 -158 -4
-14 -62 130 -63 158 0 8 16 12 45 12 28 0 45 -5 45 -12z m140 8 c0 -2 -14 -35
-31 -73 -17 -37 -44 -103 -62 -146 l-31 -79 -14 28 c-19 36 -18 87 3 227 l7
47 64 0 c35 0 64 -2 64 -4z m-1464 -43 c-3 -21 -9 -68 -12 -105 -7 -71 -15
-82 -30 -47 -14 31 15 189 34 189 11 0 13 -8 8 -37z m28 -30 c-7 -38 -17 -95
-22 -128 -9 -55 -10 -57 -11 -18 -1 43 17 192 25 205 16 26 20 -1 8 -59z m191
57 c-3 -5 -10 -10 -16 -10 -5 0 -9 5 -9 10 0 6 7 10 16 10 8 0 12 -4 9 -10z
m-325 -17 c0 -10 -4 -24 -9 -31 -6 -10 -12 -7 -24 12 -12 18 -13 26 -4 29 24
10 37 7 37 -10z m46 -13 c-3 -16 -9 -44 -12 -61 -4 -19 -10 -27 -15 -22 -12
12 9 113 23 113 5 0 7 -13 4 -30z m-116 -49 c22 -33 40 -67 40 -75 0 -19 -51
-136 -59 -136 -14 0 -111 219 -111 251 0 4 10 10 23 12 59 11 65 8 107 -52z
m603 -81 l6 -35 -14 26 c-8 15 -17 53 -20 85 l-4 59 13 -50 c7 -27 16 -66 19
-85z m-726 63 c11 -32 38 -98 61 -148 22 -49 51 -114 63 -142 27 -63 36 -64
13 -2 -15 43 -15 46 13 124 15 44 33 78 38 75 10 -5 9 -261 -1 -290 -4 -11 -9
-9 -19 10 -32 57 -10 -3 84 -225 l98 -234 -28 -27 c-28 -27 -29 -27 -44 -8
-14 18 -132 290 -203 467 -19 48 -37 86 -39 83 -2 -2 2 -19 10 -37 7 -19 14
-51 15 -72 3 -37 2 -38 -20 -26 -12 7 -41 13 -63 14 -73 3 -322 185 -429 315
-35 41 -35 53 1 62 24 7 39 -5 162 -131 129 -132 189 -181 220 -181 19 0 12
31 -48 200 -45 130 -53 146 -78 154 -16 5 -35 11 -43 14 -15 5 45 26 104 37
31 6 31 6 58 -72 38 -105 107 -271 108 -255 0 7 -14 45 -31 85 -17 40 -46 113
-64 164 -36 99 -36 99 21 102 17 1 25 -10 41 -56z m2092 -23 c0 -10 -3 -8 -9
5 -12 27 -12 43 0 25 5 -8 9 -22 9 -30z m-2286 -9 c16 -6 63 -109 53 -118 -3
-4 -132 81 -158 105 -47 41 6 47 105 13z m-6 -101 c55 -34 75 -53 84 -78 6
-18 9 -35 6 -38 -7 -8 -178 123 -220 169 -48 52 -30 71 23 24 19 -18 67 -52
107 -77z m1080 -22 c72 -112 234 -356 268 -403 5 -8 6 -18 1 -22 -10 -10 -51
38 -121 143 -30 45 -66 92 -78 105 -77 79 -197 309 -162 309 3 0 44 -60 92
-132z m-1218 65 c48 -50 203 -173 230 -184 17 -7 47 -76 37 -86 -12 -12 -79
43 -203 170 -73 74 -133 138 -133 141 0 17 27 1 69 -41z m1838 -90 c68 -125
86 -163 79 -163 -9 0 -156 269 -156 285 0 15 14 -7 77 -122z m-863 83 c19 -8
53 -37 75 -66 54 -69 55 -86 1 -55 -51 29 -143 12 -185 -35 -21 -23 -27 -98
-11 -132 7 -15 3 -18 -17 -18 -20 0 -34 12 -63 55 -32 49 -36 61 -31 101 6 58
48 117 100 143 49 25 85 26 131 7z m768 -168 c70 -142 83 -175 71 -182 -20
-11 -27 -3 -73 85 -51 96 -52 82 0 -20 21 -43 36 -81 33 -85 -16 -16 -33 -1
-75 67 -70 111 -70 112 -64 180 4 34 7 77 8 95 1 17 4 32 8 32 3 0 45 -78 92
-172z m-1906 55 c48 -54 75 -87 59 -73 -99 82 -177 170 -151 170 2 0 43 -44
92 -97z m-112 34 l-26 -20 -20 21 -20 20 28 15 c26 14 31 14 46 0 16 -15 16
-17 -8 -36z m1459 -27 l33 -55 -19 -33 c-21 -35 -45 -45 -27 -11 9 16 8 24 -3
37 -8 9 -18 39 -22 66 -3 27 -9 56 -11 65 -4 14 -4 14 6 1 6 -8 25 -40 43 -70z
m-559 -88 c3 -43 17 -120 31 -171 14 -52 25 -113 25 -135 0 -42 -19 -106 -31
-106 -4 0 -16 24 -27 53 -11 28 -36 89 -56 133 -34 77 -35 84 -21 110 8 16 15
47 15 69 0 22 3 71 7 109 l6 69 22 -27 c17 -21 24 -47 29 -104z m433 57 c33
-16 43 -26 43 -45 0 -21 -3 -23 -19 -14 -33 17 -59 11 -95 -20 -38 -34 -57
-77 -56 -131 1 -19 -3 -54 -7 -79 l-8 -44 -42 67 c-24 38 -43 71 -43 75 0 4
10 8 21 9 31 3 33 9 15 48 -14 29 -15 42 -6 69 26 79 111 107 197 65z m-397
-143 c6 -37 9 -70 7 -73 -6 -5 -37 165 -36 192 1 24 13 -25 29 -119z m42 37
c58 -81 201 -313 196 -318 -2 -3 -14 -6 -27 -7 -20 -3 -25 5 -41 55 -18 58
-35 87 -51 87 -13 0 -10 -37 10 -112 l17 -67 -52 -56 c-29 -30 -55 -55 -59
-55 -4 0 -4 24 -1 53 19 178 18 200 -8 314 -24 105 -31 153 -22 153 2 0 19
-21 38 -47z m378 32 c23 -12 30 -24 35 -60 13 -83 -9 -95 -45 -24 -25 48 -37
49 -45 7 -5 -25 -16 -37 -40 -49 -41 -19 -49 -9 -34 43 10 37 63 98 86 98 8 0
27 -7 43 -15z m-964 -62 c3 3 42 -17 86 -44 59 -36 91 -49 119 -49 21 0 41 -4
44 -10 12 -20 45 -11 45 12 0 35 14 11 59 -102 31 -80 39 -111 33 -133 l-7
-27 -33 27 c-29 25 -33 35 -41 103 -5 41 -9 67 -10 58 0 -10 -6 -18 -11 -18
-21 0 -97 44 -170 99 -103 77 -122 89 -75 46 47 -43 204 -150 234 -160 18 -5
31 -45 16 -45 -38 0 -232 148 -330 251 l-60 63 48 -38 c26 -21 50 -36 53 -33z
m1597 -82 c20 -33 20 -35 3 -45 -10 -6 -34 -21 -53 -34 -20 -13 -36 -22 -38
-20 -1 2 -7 18 -14 37 -14 42 -14 68 0 148 l11 63 35 -57 c20 -32 45 -73 56
-92z m-167 89 c12 -12 6 -72 -7 -64 -5 3 -9 12 -9 21 0 9 -7 25 -17 35 -15 17
-15 18 3 18 11 0 25 -5 30 -10z m-376 -252 c0 -15 -4 -28 -8 -28 -12 0 -116
110 -131 138 -11 20 -9 63 6 116 7 26 133 -188 133 -226z m-1093 170 c25 -25
41 -63 73 -163 22 -71 45 -142 50 -157 11 -35 3 -37 -10 -3 -6 15 -17 25 -29
25 -41 0 -67 42 -110 176 -58 185 -54 206 26 122z m1288 -93 c54 -71 109 -143
122 -158 29 -36 31 -77 4 -77 -23 0 -35 11 -106 99 -29 36 -76 93 -104 126
-28 33 -51 63 -51 66 0 11 31 81 35 78 1 -2 47 -62 100 -134z m516 93 c-4 -14
-34 -37 -74 -58 -36 -19 -69 -39 -74 -44 -4 -5 3 -3 15 3 13 7 24 11 25 9 1
-2 12 -17 25 -35 12 -18 22 -38 22 -45 0 -6 -17 -63 -37 -125 -24 -72 -42
-113 -51 -113 -8 0 -36 8 -63 17 -47 17 -49 19 -49 55 0 45 11 54 35 28 10
-11 24 -20 32 -20 23 0 14 48 -23 128 l-36 77 26 20 c30 22 217 125 228 125 4
0 4 -10 -1 -22z m-854 -74 c18 -29 11 -52 -26 -89 l-30 -28 -21 34 c-30 49
-22 104 22 144 l33 29 3 -33 c2 -19 10 -44 19 -57z m119 31 c7 -27 6 -29 -9
-16 -10 7 -17 25 -17 39 0 33 16 18 26 -23z m859 -101 c31 -69 55 -128 52
-130 -7 -8 -59 70 -96 143 -30 60 -40 113 -22 113 4 0 34 -57 66 -126z m-151
53 c-9 -26 -19 -49 -23 -52 -4 -2 -15 11 -24 30 l-17 35 38 19 c20 10 38 18
39 17 2 -2 -4 -24 -13 -49z m-1644 -34 c11 -14 20 -31 20 -38 0 -21 81 -169
122 -223 38 -48 77 -152 78 -205 0 -33 -22 -12 -42 38 -21 55 -44 85 -64 85
-14 0 -68 60 -88 98 -18 35 -61 159 -85 245 l-20 67 29 -20 c16 -11 38 -32 50
-47z m1070 7 c4 -8 0 -36 -9 -64 l-17 -49 -22 78 c-11 43 -19 82 -15 87 5 10
49 -27 63 -52z m379 -102 c46 -98 40 -132 -10 -60 -46 66 -73 145 -64 188 l7
39 18 -50 c9 -27 31 -80 49 -117z m-839 52 c15 -58 15 -65 5 -68 -10 -3 -26
42 -39 108 -7 33 -6 34 9 15 8 -11 20 -35 25 -55z m267 28 c29 -27 29 -30 -3
-84 l-26 -44 -39 20 c-21 11 -39 25 -39 31 0 10 71 98 79 99 3 0 15 -10 28
-22z m-803 -82 c19 -40 54 -98 78 -128 42 -52 66 -103 53 -116 -3 -3 -5 2 -5
10 0 9 -20 42 -44 75 -63 84 -141 233 -121 233 3 0 21 -33 39 -74z m1050 39
l26 -34 -29 -33 c-25 -28 -33 -31 -48 -22 -11 7 -17 20 -15 35 4 27 29 89 35
89 3 0 17 -16 31 -35z m-644 -67 c-7 -32 -17 -58 -21 -58 -13 0 -10 32 6 60 8
14 15 41 16 60 1 21 3 27 6 16 3 -11 -1 -45 -7 -78z m829 30 c1 -48 0 -51 -16
-36 -14 15 -14 19 -2 34 12 16 12 17 -4 11 -30 -11 -39 3 -15 23 13 11 26 19
29 20 4 0 7 -23 8 -52z m-1205 -5 c13 -27 41 -64 61 -83 38 -36 65 -85 65
-117 -1 -11 -9 -2 -22 22 -11 22 -35 58 -52 80 -45 56 -94 145 -81 145 3 0 16
-21 29 -47z m846 -26 c0 -28 -1 -29 -37 -22 -21 4 -40 9 -42 11 -2 2 7 19 20
38 22 32 25 34 41 19 10 -9 18 -29 18 -46z m44 -9 c5 -24 3 -28 -14 -28 -21 0
-26 23 -13 69 6 22 7 23 13 5 4 -10 10 -31 14 -46z m-789 -36 c3 -8 4 -16 2
-18 -6 -7 -87 72 -87 85 0 15 76 -45 85 -67z m1180 5 c-8 -33 -16 -62 -19 -65
-10 -10 -6 60 6 100 18 59 28 31 13 -35z m-204 41 c19 -24 25 -53 11 -62 -13
-8 -122 6 -122 15 0 5 9 9 19 9 11 0 30 13 43 29 13 17 25 30 26 30 2 1 12 -9
23 -21z m507 -51 c11 -28 22 -64 26 -79 6 -27 5 -27 -19 -16 -14 6 -28 9 -31
5 -11 -10 17 -47 36 -47 23 0 27 -20 34 -172 5 -114 -7 -147 -19 -51 -10 83
-20 103 -50 103 -14 0 -25 5 -25 11 0 6 -13 29 -29 53 l-29 42 34 107 c20 59
39 105 44 102 5 -3 17 -29 28 -58z m-1346 -17 l19 -45 -25 24 c-19 18 -26 34
-25 60 0 20 3 29 6 21 4 -8 15 -35 25 -60z m399 28 c6 -13 20 -33 31 -45 23
-25 18 -37 -24 -59 -41 -21 -53 -14 -73 47 -17 50 -17 53 1 66 27 19 52 16 65
-9z m69 -25 c0 -23 -19 -23 -39 -1 -29 30 -26 38 9 25 17 -6 30 -17 30 -24z
m-127 -115 c-13 -23 -30 -1 -42 51 -19 86 -2 100 24 20 12 -35 20 -67 18 -71z
m547 122 c0 -5 -4 -10 -10 -10 -5 0 -10 5 -10 10 0 6 5 10 10 10 6 0 10 -4 10
-10z m166 -58 c-11 -10 -14 3 -8 33 l7 30 3 -28 c2 -16 1 -31 -2 -35z m-502
42 l46 -7 1 -46 c1 -25 4 -36 6 -23 3 13 16 27 29 33 34 12 164 12 164 -1 0
-5 -24 -10 -53 -10 -41 0 -63 -6 -96 -27 -41 -27 -42 -29 -40 -78 l3 -50 -44
-7 c-51 -9 -61 -3 -89 56 -23 47 -27 102 -9 141 12 27 14 28 82 19z m-261 -64
c14 -59 14 -61 -6 -75 -24 -17 -25 -15 -52 49 -13 31 -13 36 6 60 11 14 24 26
28 26 5 0 15 -27 24 -60z m347 40 c0 -5 -7 -10 -15 -10 -8 0 -15 5 -15 10 0 6
7 10 15 10 8 0 15 -4 15 -10z m2005 -62 c25 -13 58 -22 88 -22 26 0 47 -3 47
-7 0 -11 -50 -49 -64 -49 -6 0 -40 14 -74 30 -35 17 -75 30 -89 30 -21 0 -23
3 -17 23 5 12 8 32 7 45 l-1 23 32 -26 c17 -14 49 -35 71 -47z m-486 -61 c17
-54 31 -102 31 -106 0 -12 -74 -10 -82 2 -12 19 -9 24 15 23 17 -1 22 5 22 24
0 32 -32 40 -43 11 -7 -19 -10 -16 -24 23 l-17 45 27 -2 c30 -2 42 24 21 49
-10 13 -15 13 -35 -1 -35 -23 -32 7 3 35 36 28 43 18 82 -103z m-1310 82 c-9
-17 -8 -25 5 -37 13 -13 18 -13 31 -2 9 8 14 22 11 33 -4 17 -1 19 31 14 49
-8 53 -15 47 -74 -10 -76 -13 -79 -72 -48 -47 25 -239 72 -249 61 -9 -9 8 -26
26 -26 10 0 31 -10 47 -22 l28 -22 -25 -7 c-14 -4 -33 0 -46 7 -12 8 -31 14
-43 14 -31 0 -25 41 10 75 25 24 40 29 92 33 35 2 67 8 73 13 5 5 17 9 27 9
16 0 17 -3 7 -21z m2085 -16 c25 -27 32 -41 25 -49 -11 -14 3 -40 57 -109 34
-43 72 -111 56 -101 -5 3 -33 37 -62 76 -30 38 -58 70 -62 70 -25 0 -16 -35
19 -83 42 -55 67 -97 59 -97 -3 0 -26 23 -52 50 -46 49 -67 60 -79 40 -8 -13
40 -90 88 -142 47 -52 100 -118 123 -153 l19 -30 -43 33 c-23 19 -73 68 -110
110 -136 154 -130 148 -143 135 -9 -9 -3 -24 32 -68 89 -114 99 -128 94 -133
-3 -3 -45 34 -94 81 -84 82 -121 105 -121 73 0 -8 35 -49 78 -93 82 -83 168
-190 160 -199 -12 -11 -140 110 -212 200 -71 89 -109 126 -128 126 -20 0 -2
-32 67 -119 41 -51 75 -99 75 -105 -1 -12 -110 99 -204 207 l-59 67 6 86 c2
47 8 88 11 91 3 4 22 2 42 -3 32 -8 39 -15 56 -61 16 -44 24 -53 60 -67 32
-13 47 -15 73 -6 62 20 124 115 110 168 -5 21 5 40 22 42 1 0 18 -17 37 -37z
m-2052 2 c0 -5 -5 -11 -11 -13 -6 -2 -11 4 -11 13 0 9 5 15 11 13 6 -2 11 -8
11 -13z m-434 -34 c7 -21 23 -54 36 -74 13 -19 22 -38 18 -41 -12 -12 -47 -5
-67 14 l-21 20 -45 -28 c-60 -38 -126 -55 -134 -34 -3 8 3 24 12 36 18 21 18
21 -3 3 -18 -15 -22 -15 -27 -3 -5 13 30 56 47 56 4 0 20 8 34 19 41 29 116
70 128 71 6 0 16 -17 22 -39z m2412 7 c0 -37 -30 -94 -63 -120 -13 -10 -39
-18 -62 -18 -48 0 -81 24 -91 64 -6 26 -5 28 12 22 65 -25 113 -11 136 39 9
20 39 42 61 44 4 1 7 -14 7 -31z m-2639 -10 c7 -18 17 -36 22 -39 4 -3 -3 -13
-16 -22 -24 -15 -24 -15 -37 23 -21 65 6 98 31 38z m795 3 c-2 -9 -8 -35 -11
-58 -8 -51 -25 -57 -25 -9 0 58 11 95 26 89 8 -3 13 -13 10 -22z m1053 -60
c17 -47 31 -86 31 -88 0 -2 -23 -3 -51 -3 -51 0 -51 0 -45 28 3 15 11 55 18
90 6 34 12 61 14 60 1 -2 16 -41 33 -87z m28 67 c-3 -8 -6 -5 -6 6 -1 11 2 17
5 13 3 -3 4 -12 1 -19z m-1060 -58 c-5 -33 -14 -60 -19 -60 -5 0 -7 12 -4 28
2 15 7 44 11 65 3 21 10 35 14 33 4 -3 3 -32 -2 -66z m-995 -3 c6 -13 6 -23
-3 -33 -9 -11 -9 -54 0 -192 14 -218 14 -222 1 -202 -5 8 -10 38 -10 67 0 29
-7 105 -16 170 -8 65 -19 148 -23 185 l-7 68 24 -23 c13 -12 28 -30 34 -40z
m1166 -20 c41 -61 47 -71 34 -63 -6 3 -22 1 -35 -5 -15 -7 -41 -9 -61 -5 -30
6 -36 11 -37 34 -2 24 -2 24 -6 5 -5 -26 -43 -32 -43 -7 0 8 -5 12 -10 9 -17
-11 1 48 19 62 13 10 17 7 22 -15 6 -24 7 -22 8 11 1 35 0 37 -20 27 -24 -13
-34 -8 -26 14 5 13 14 12 67 -5 49 -17 66 -29 88 -62z m-1011 -12 c27 -67 29
-75 13 -75 -10 0 -34 23 -55 55 -37 53 -38 55 -20 75 10 11 21 20 25 20 3 0
20 -34 37 -75z m663 26 l35 -16 -54 -3 c-47 -3 -58 0 -79 22 l-25 25 44 -6
c24 -4 60 -13 79 -22z m-972 -41 c0 -9 -3 -7 -8 5 -5 11 -8 29 -8 40 0 16 2
15 8 -5 4 -14 8 -32 8 -40z m1796 -16 c9 -37 16 -68 14 -69 -2 -1 -13 -5 -24
-9 -19 -6 -23 0 -38 52 -22 79 -21 92 8 92 21 0 26 -8 40 -66z m100 34 c20
-50 27 -88 17 -88 -9 0 -23 36 -35 93 -9 37 2 34 18 -5z m102 -25 c23 -78 -16
-53 -41 25 -6 20 -4 23 11 20 11 -2 23 -19 30 -45z m-1226 27 c12 -8 11 -10
-7 -10 -13 0 -23 5 -23 10 0 13 11 13 30 0z m905 -82 c6 -58 5 -68 -8 -68 -10
0 -19 16 -26 50 -14 65 -14 83 1 98 17 17 25 0 33 -80z m-1487 60 c5 -8 6 -22
1 -33 -4 -11 -8 -87 -9 -170 -3 -176 -6 -172 -19 26 -12 173 -5 216 27 177z
m350 -16 c2 -8 -8 -12 -29 -12 -31 0 -32 1 -13 15 21 16 36 15 42 -3z m1047
-69 c7 -69 6 -73 -13 -73 -22 0 -27 10 -37 78 -6 34 -3 47 11 63 10 11 21 16
25 12 4 -5 10 -41 14 -80z m-1578 45 c-3 -8 -6 -5 -6 6 -1 11 2 17 5 13 3 -3
4 -12 1 -19z m853 8 c0 -16 -14 -36 -26 -36 -14 0 -19 22 -7 33 7 8 33 10 33
3z m60 -16 c0 -15 -7 -20 -25 -20 -24 0 -34 18 -18 33 15 15 43 7 43 -13z
m146 -5 c8 -10 13 -19 11 -20 -1 -2 -33 0 -72 4 -58 5 -70 9 -73 25 -4 17 2
18 58 14 46 -3 66 -9 76 -23z m402 -49 c14 -71 8 -94 -21 -83 -16 6 -34 128
-22 147 15 24 31 0 43 -64z m-660 47 c-2 -10 -13 -19 -26 -21 -17 -3 -22 2
-22 17 0 16 6 21 26 21 19 0 25 -5 22 -17z m-63 -17 c0 -13 -10 -22 -28 -27
-22 -6 -33 -3 -51 16 -28 28 -19 35 39 32 32 -2 40 -6 40 -21z m-501 -114 c9
-129 6 -152 -19 -152 -13 0 -15 21 -15 141 0 108 3 140 13 137 8 -3 15 -44 21
-126z m424 80 c2 -6 -1 -12 -6 -12 -6 0 -44 -16 -85 -35 -41 -19 -79 -35 -84
-35 -11 0 -56 90 -48 98 3 3 40 11 83 17 66 10 81 10 106 -4 16 -9 31 -22 34
-29z m435 28 c-3 -11 -7 -20 -9 -20 -2 0 -4 9 -4 20 0 11 4 20 9 20 5 0 7 -9
4 -20z m27 -16 c0 -14 -4 -23 -9 -20 -5 3 -7 15 -4 26 7 28 13 25 13 -6z m44
-65 c4 -34 5 -63 2 -66 -12 -12 -36 61 -36 109 1 46 2 51 14 35 7 -9 17 -45
20 -78z m248 3 c3 -33 0 -37 -23 -40 -24 -3 -27 0 -32 44 -4 40 -2 50 17 65
20 17 21 17 28 -7 4 -14 8 -42 10 -62z m-1405 56 c-3 -8 -6 -5 -6 6 -1 11 2
17 5 13 3 -3 4 -12 1 -19z m1189 14 c18 -11 25 -140 8 -146 -19 -7 -21 0 -29
82 -7 69 -3 81 21 64z m-767 -37 c33 -57 36 -82 11 -90 -12 -4 -22 -5 -24 -3
-19 30 -47 109 -42 117 13 20 34 11 55 -24z m1095 -7 c4 -24 3 -38 -4 -38 -5
0 -10 19 -10 42 0 49 5 47 14 -4z m-1214 -73 l30 -60 -22 -17 c-24 -18 -57
-32 -62 -26 -2 1 -6 50 -10 108 l-7 105 21 -25 c11 -14 34 -52 50 -85z m73 32
l26 -57 -29 -15 -30 -15 -30 60 c-32 64 -32 76 4 90 26 10 27 8 59 -63z m898
43 c6 -22 7 -23 8 -4 1 13 10 24 23 27 12 4 23 5 24 4 2 -1 6 -26 10 -55 6
-44 4 -52 -10 -52 -9 0 -19 -1 -23 -2 -4 -2 -11 11 -15 27 l-7 30 3 -32 c2
-28 -1 -33 -27 -39 -15 -3 -31 -3 -35 0 -3 4 -8 34 -10 67 l-5 61 29 -4 c20
-2 30 -10 35 -28z m949 5 c25 -65 24 -71 -17 -96 -21 -12 -61 -40 -89 -60
l-50 -37 -13 30 c-10 22 -11 36 -3 53 6 14 14 47 18 74 l6 50 47 4 c25 2 56 4
69 5 16 1 25 -5 32 -23z m106 -60 c28 -98 28 -91 4 -91 -11 0 -23 8 -26 18 -4
15 -12 13 -57 -19 -29 -21 -71 -53 -94 -71 -37 -29 -43 -32 -43 -16 0 16 -2
17 -10 4 -5 -8 -10 -10 -10 -4 0 5 5 15 12 22 9 9 8 12 -4 12 -17 0 -32 -26
-22 -41 3 -5 12 -9 21 -9 9 0 -18 -35 -65 -84 -206 -215 -370 -495 -473 -811
-16 -49 -32 -114 -36 -142 -5 -49 -8 -53 -33 -53 -26 0 -27 3 -33 63 -7 79 -2
102 28 115 26 12 35 45 26 98 -7 40 -26 56 -34 27 -3 -12 -5 -9 -6 9 0 15 3
29 8 32 9 6 81 113 122 181 l24 40 3 -33 c4 -44 27 -36 27 9 0 23 -4 33 -13
31 -14 -3 23 73 58 118 l20 25 0 -27 c0 -16 4 -28 10 -28 15 0 24 49 11 63 -8
10 1 30 37 83 39 58 47 65 50 46 2 -13 9 -21 15 -19 16 5 22 48 8 56 -13 9
124 169 202 236 31 26 82 65 114 86 105 69 98 60 79 96 -21 41 -20 52 3 46 10
-3 22 0 26 7 14 23 28 2 51 -75z m28 73 c31 -102 67 -206 108 -308 27 -69 59
-150 71 -180 26 -67 42 -89 58 -73 8 8 8 17 -1 33 -37 68 -175 429 -194 503
-6 26 -5 28 20 25 26 -3 29 -10 65 -134 21 -72 55 -176 75 -230 76 -203 82
-260 31 -308 -36 -34 -163 -101 -212 -112 -45 -10 -121 -61 -153 -103 -80
-103 -124 -207 -164 -381 -11 -46 -17 -56 -37 -58 -13 -2 -27 0 -32 5 -14 14
30 281 61 372 16 46 41 99 56 118 34 45 18 68 -18 24 -58 -69 -102 -222 -133
-468 -12 -92 -28 -74 -21 23 15 199 26 267 46 281 13 9 21 31 25 71 13 109 66
186 153 221 18 8 34 17 37 21 5 8 -91 290 -103 302 -14 14 -43 -3 -53 -29 -13
-36 -11 -50 5 -28 13 17 14 16 20 -21 6 -35 3 -48 -25 -92 -30 -49 -49 -65
-49 -42 0 5 9 32 20 60 29 73 24 86 -6 16 -16 -38 -24 -71 -21 -90 3 -20 -4
-48 -20 -79 -13 -26 -34 -87 -47 -135 l-24 -87 -23 50 c-34 73 -38 25 -4 -51
25 -57 26 -61 14 -145 -9 -69 -15 -86 -27 -85 -9 2 -18 9 -20 17 -3 11 -1 11
8 -1 9 -13 10 -12 7 5 -2 11 -8 19 -15 18 -6 -2 -9 3 -6 11 3 7 -7 40 -22 72
-22 47 -28 54 -31 37 -3 -12 16 -69 40 -125 l45 -103 -10 -80 c-14 -120 -29
-124 -71 -23 -14 35 -36 89 -47 121 -12 31 -26 57 -31 57 -19 0 -7 -49 36
-145 25 -55 45 -103 45 -107 0 -4 -25 -8 -56 -8 -42 0 -60 4 -70 18 -13 16
-13 16 -14 0 0 -14 -9 -18 -41 -18 l-41 0 4 103 c4 93 8 112 52 222 87 217
177 377 307 545 69 89 212 240 227 240 13 -1 70 -84 107 -158 39 -75 137 -183
172 -188 10 -2 29 5 42 15 l25 19 -44 133 c-24 73 -45 129 -47 123 -2 -5 15
-63 37 -129 37 -111 39 -121 23 -132 -24 -18 -29 -17 -43 17 -16 37 -25 33
-10 -4 8 -21 7 -25 -3 -20 -41 26 -101 96 -133 157 -20 40 -52 93 -70 120 -19
26 -34 53 -34 60 0 16 107 90 120 82 6 -4 10 -12 8 -18 -4 -22 13 -92 54 -215
36 -109 43 -123 62 -120 15 2 21 10 21 28 0 20 -6 26 -27 28 -22 3 -29 12 -42
49 -20 58 -20 60 3 66 34 8 32 55 -10 193 -21 71 -39 138 -39 147 0 20 29 23
34 5z m-294 -9 c0 -6 -8 -43 -17 -81 -13 -56 -14 -76 -5 -101 8 -22 9 -34 1
-42 -14 -14 -26 7 -70 124 -26 67 -33 98 -25 103 18 12 116 9 116 -3z m-1236
-30 c5 -28 -1 -158 -9 -185 -2 -8 -17 -9 -54 -1 -43 8 -51 13 -51 32 0 12 -9
48 -19 81 -11 32 -17 62 -13 66 4 4 21 10 38 14 26 5 31 2 47 -30 9 -20 21
-36 27 -36 5 0 1 15 -10 33 -25 41 -25 45 3 50 12 2 25 5 28 6 4 0 9 -13 13
-30z m92 4 c10 -51 29 -96 41 -100 6 -2 3 12 -8 34 -10 20 -19 50 -19 66 0 29
1 30 46 24 81 -9 94 -50 38 -116 -21 -26 -33 -31 -68 -31 -48 0 -66 15 -91 73
-25 60 -21 77 20 77 30 0 35 -4 41 -27z m1050 -98 c26 -73 40 -123 34 -129 -6
-6 -13 0 -19 15 -5 13 -16 40 -25 59 -20 44 -14 10 10 -52 l18 -47 -66 -69
c-83 -89 -180 -225 -302 -427 -54 -88 -110 -176 -126 -195 l-28 -34 -7 58 c-7
52 -3 77 35 211 42 149 44 153 72 159 34 7 33 26 0 41 -20 9 -22 17 -22 91 0
45 -3 109 -6 143 -5 41 -3 61 4 61 6 0 14 -17 17 -37 7 -47 26 -85 43 -91 11
-3 13 15 11 88 -3 82 -1 93 16 103 11 6 20 6 22 1 12 -34 31 -59 47 -62 17 -4
18 1 12 59 -6 63 -5 64 24 84 30 20 39 35 20 35 -5 0 -10 -4 -10 -10 0 -5 -10
-15 -22 -21 -19 -10 -18 -6 7 20 l30 32 12 -28 c7 -15 12 -33 13 -39 0 -23 26
-34 44 -21 15 11 16 19 7 57 -12 53 -8 60 29 60 26 0 30 -5 50 -66 12 -36 24
-63 26 -61 2 2 -5 30 -16 62 -23 67 -24 78 -9 73 6 -2 31 -58 55 -123z m-152
89 c3 -9 6 -31 6 -51 0 -45 -20 -39 -39 11 -12 33 -12 39 0 47 20 12 26 11 33
-7z m-1134 -73 c29 -99 30 -97 -46 -111 -38 -7 -69 -9 -73 -4 -26 38 -61 95
-61 102 0 6 145 82 157 82 1 0 11 -31 23 -69z m1037 52 c-9 -9 -20 -13 -24 -9
-4 4 -1 11 7 16 25 16 35 11 17 -7z m-645 -106 c-2 -45 -6 -83 -7 -85 -1 -1
-10 0 -19 4 -22 8 -22 101 1 149 23 48 30 29 25 -68z m612 71 c3 -18 8 -58 12
-88 6 -50 5 -54 -10 -40 -18 18 -42 121 -33 144 10 26 24 18 31 -16z m-44 -8
c0 -26 -36 -46 -44 -24 -12 31 -6 44 19 44 18 0 25 -5 25 -20z m-719 -64 c27
-7 44 -5 68 7 34 17 36 14 25 -42 -5 -25 -12 -31 -33 -32 -21 -1 -19 -3 10 -8
20 -4 58 -21 85 -37 74 -44 30 -42 -117 5 -123 40 -124 40 -74 42 l50 2 -45 4
c-25 3 -49 8 -54 13 -5 5 -5 34 -1 65 l7 56 22 -33 c14 -22 34 -36 57 -42z
m663 42 c4 -18 9 -78 12 -133 5 -92 4 -98 -10 -81 -9 11 -17 31 -18 45 -1 14
-3 37 -4 51 -1 14 -4 32 -7 40 -15 41 -18 93 -5 101 21 14 25 11 32 -23z m-50
-14 c4 -15 2 -32 -3 -37 -14 -14 -19 -7 -27 31 -5 25 -3 32 9 32 8 0 18 -12
21 -26z m-1018 -40 c20 -31 34 -56 32 -57 -1 -1 -28 -11 -58 -21 -30 -10 -60
-20 -66 -23 -6 -2 -21 16 -35 41 -13 25 -25 43 -27 41 -2 -1 6 -21 17 -43 12
-23 17 -43 12 -47 -5 -3 -17 16 -27 41 l-18 47 24 19 c33 26 51 19 78 -30 13
-24 26 -41 28 -39 2 2 -8 25 -22 51 -14 26 -25 48 -23 50 6 4 43 25 47 26 1 0
18 -25 38 -56z m594 -30 c3 -47 1 -73 -5 -71 -11 4 -22 98 -16 135 6 41 16 12
21 -64z m364 39 c12 -98 26 -276 22 -280 -12 -12 -30 51 -47 161 -24 154 -24
166 0 166 15 0 20 -10 25 -47z m13 15 c-3 -7 -5 -2 -5 12 0 14 2 19 5 13 2 -7
2 -19 0 -25z m-63 -25 c5 -39 3 -50 -11 -60 -30 -23 -40 -14 -47 39 -7 53 0
68 35 68 12 0 18 -13 23 -47z m226 37 c0 -12 -40 -34 -48 -26 -3 4 3 13 14 21
22 17 34 19 34 5z m-291 -88 c1 -21 -4 -35 -14 -39 -21 -8 -22 -6 -30 59 -6
50 -5 57 11 60 21 4 31 -21 33 -80z m-187 44 c4 -6 8 -37 8 -69 0 -55 -1 -58
-22 -55 -25 3 -35 32 -37 106 -1 41 0 43 22 36 12 -4 25 -12 29 -18z m134 -32
c7 -61 0 -74 -43 -74 -17 0 -23 7 -26 33 -4 31 -4 31 -5 -5 -2 -31 -6 -38 -22
-38 -17 0 -20 7 -20 49 0 27 -3 56 -6 65 -4 11 0 16 14 16 15 0 22 -8 25 -27
4 -26 4 -26 6 5 1 30 4 32 35 32 34 0 35 0 42 -56z m1079 -46 c6 -23 4 -25
-19 -21 -18 4 -26 1 -27 -8 0 -16 -13 13 -23 54 -5 23 -3 27 14 27 12 0 20 7
21 18 1 19 24 -28 34 -70z m-845 53 c0 -17 -18 -31 -41 -31 -15 0 -10 22 9 36
24 18 32 17 32 -5z m-1212 -374 c9 -56 1 -80 -19 -60 -9 9 -29 128 -51 297
l-12 89 30 23 29 24 7 -158 c4 -86 11 -183 16 -215z m28 322 c19 -38 23 -54
14 -59 -9 -6 -9 -23 4 -72 9 -35 16 -71 16 -79 -1 -16 -48 -54 -58 -45 -8 9
-16 306 -8 306 3 0 17 -23 32 -51z m1078 2 c9 -14 -4 -41 -20 -41 -19 0 -38
37 -21 43 20 9 35 8 41 -2z m90 -100 c3 -47 2 -112 -2 -145 l-7 -59 -45 35
c-49 37 -58 63 -59 166 -1 38 3 52 13 52 16 0 26 -21 26 -56 0 -37 27 -94 44
-94 18 0 19 15 7 128 -4 40 -5 75 -2 78 11 11 20 -25 25 -105z m-1266 -59 c38
-271 117 -556 213 -764 57 -124 74 -149 95 -141 8 3 14 0 14 -7 0 -6 -5 -8
-11 -4 -7 4 -10 1 -7 -6 8 -25 28 -22 28 3 0 22 5 25 43 29 23 3 44 3 47 1 2
-2 6 -32 8 -67 l4 -62 -46 -18 c-25 -10 -50 -15 -56 -11 -26 16 -98 139 -141
241 -112 266 -214 635 -244 882 -5 50 4 82 24 82 3 0 16 -71 29 -158z m455
133 c-10 -6 -46 -27 -81 -46 l-63 -34 -26 29 c-22 27 -23 30 -8 39 22 12 166
35 183 29 9 -3 8 -8 -5 -17z m217 -33 c58 -19 109 -38 113 -42 5 -4 -31 -19
-80 -34 -48 -15 -101 -33 -118 -39 -52 -21 -155 -13 -205 15 -24 13 -45 29
-47 35 -2 6 33 34 79 62 96 59 94 59 258 3z m-710 -312 c69 -296 203 -659 285
-777 49 -69 55 -86 28 -81 -10 2 -31 27 -47 56 -18 34 -32 50 -38 44 -5 -5
-13 -40 -17 -78 l-8 -69 -2 53 c0 30 6 68 14 86 15 31 14 34 -54 171 -99 203
-166 393 -216 615 -24 109 -54 216 -54 197 -1 -17 15 -86 59 -262 44 -170 125
-399 191 -536 62 -128 69 -146 59 -172 -5 -17 -10 -56 -10 -88 0 -48 -4 -60
-20 -69 -30 -16 -140 -49 -140 -41 0 3 -4 1 -8 -5 -4 -6 -22 -16 -40 -22 -31
-11 -33 -10 -43 16 -5 15 -14 38 -19 52 -56 153 -91 343 -96 520 l-5 155 41
-45 c49 -55 54 -44 5 13 -19 22 -35 44 -35 49 0 4 -5 8 -11 8 -18 0 -5 -327
16 -423 14 -66 15 -89 5 -144 -6 -36 -14 -111 -17 -167 -6 -96 -12 -116 -40
-116 -19 0 -17 184 2 269 14 61 14 76 0 162 -9 51 -19 168 -22 259 l-5 165 36
47 c33 43 36 52 36 115 0 37 -7 113 -15 168 -19 131 -19 130 10 143 35 16 35
16 35 -13 0 -18 4 -23 16 -18 12 4 14 14 10 34 -4 21 -2 29 9 29 7 0 15 -10
17 -22 6 -42 28 -32 29 14 1 27 8 -2 19 -77 9 -66 27 -163 40 -215z m-73 283
c-3 -10 -5 -4 -5 12 0 17 2 24 5 18 2 -7 2 -21 0 -30z m386 2 c36 -45 88 -84
134 -101 38 -13 37 -13 -42 -13 -44 -1 -86 3 -92 7 -18 11 -83 105 -83 119 0
10 17 19 45 22 6 0 22 -15 38 -34z m818 2 c-1 -4 -1 -17 -2 -29 0 -22 -1 -22
-9 -3 -7 17 -9 15 -9 -12 -1 -37 -11 -40 -46 -17 -32 21 -31 30 0 38 14 4 25
11 25 17 0 6 5 7 10 4 6 -3 10 -1 10 5 0 7 5 10 11 8 6 -2 10 -7 10 -11z
m-890 -34 c13 -21 28 -44 33 -52 6 -9 5 -12 -3 -7 -12 8 -61 81 -61 91 0 12
10 2 31 -32z m834 27 c-3 -5 -16 -10 -28 -9 -20 1 -20 2 3 9 14 4 26 8 28 9 2
1 0 -3 -3 -9z m-49 -56 c5 -34 3 -48 -7 -55 -31 -19 -39 -10 -39 46 0 48 3 55
19 55 16 0 21 -10 27 -46z m868 -26 c75 -211 74 -207 61 -218 -10 -8 -17 0
-29 36 -9 26 -16 56 -16 66 0 31 -14 20 -47 -34 -82 -136 -127 -305 -151 -563
-8 -99 -20 -183 -26 -187 -6 -4 -21 -8 -33 -8 -21 0 -22 4 -17 53 3 28 9 77
14 107 5 30 19 125 29 210 11 85 28 180 37 210 23 77 92 215 131 260 18 21 29
40 24 42 -11 4 -31 84 -23 93 13 13 22 1 46 -67z m-1039 26 c-55 -19 -119 -39
-143 -44 -23 -5 -51 -14 -61 -20 -24 -12 -71 -13 -90 -1 -10 6 -4 11 20 16 44
9 220 64 239 76 8 4 42 8 75 9 l60 0 -100 -36z m113 -31 c-3 -41 -6 -48 -28
-54 -37 -10 -278 -10 -284 0 -6 10 37 31 65 31 11 0 36 7 57 16 48 21 152 52
175 53 15 1 18 -6 15 -46z m-1195 15 c5 -19 17 -122 31 -253 2 -16 0 -40 -3
-53 -5 -19 -17 -3 -73 100 -92 169 -91 167 -26 200 65 33 65 33 71 6z m1305
-19 c-24 -16 -38 -9 -38 16 0 25 0 25 26 9 19 -13 22 -19 12 -25z m-541 -25
c-3 -3 -12 -4 -19 -1 -8 3 -5 6 6 6 11 1 17 -2 13 -5z m610 -31 c-3 -10 -5 -4
-5 12 0 17 2 24 5 18 2 -7 2 -21 0 -30z m-852 -7 c17 -3 68 -9 115 -12 77 -5
88 -8 115 -35 38 -36 55 -37 55 -4 0 25 2 26 38 18 20 -4 110 -8 200 -8 l162
0 0 -27 c0 -50 21 -128 35 -128 24 0 56 51 51 79 -3 14 -8 47 -11 72 l-7 45
38 12 c21 6 39 10 39 9 15 -23 35 -143 35 -212 l0 -88 -43 6 c-24 3 -72 19
-108 35 -116 52 -308 113 -424 134 -83 15 -161 16 -266 4 l-77 -8 -11 64 c-14
83 -15 81 12 64 12 -8 36 -17 52 -20z m-111 -53 c7 -60 4 -67 -31 -77 -19 -6
-22 -2 -29 39 -5 40 -3 49 17 71 12 13 26 24 29 24 4 0 10 -26 14 -57z m865
-49 c1 -38 -4 -55 -18 -68 -17 -16 -19 -14 -30 40 -16 82 -14 99 12 111 27 12
34 -5 36 -83z m205 64 c22 -17 42 -32 43 -33 2 -1 -3 -24 -11 -51 -8 -27 -20
-68 -26 -91 -15 -58 -37 -48 -44 20 -14 137 -17 187 -11 187 4 0 26 -14 49
-32z m-694 -4 c0 -27 -14 -25 -30 7 -9 16 -7 19 10 19 15 0 20 -7 20 -26z
m790 -4 c0 -5 -7 -10 -16 -10 -8 0 -12 5 -9 10 3 6 10 10 16 10 5 0 9 -4 9
-10z m574 -86 c5 -17 -2 -26 -34 -48 -43 -28 -100 -99 -100 -124 0 -9 -3 -13
-6 -9 -11 10 37 140 74 202 l36 59 12 -29 c6 -17 14 -39 18 -51z m-1365 20
c107 -19 341 -89 401 -118 l45 -22 0 -62 c-2 -339 -4 -372 -24 -372 -22 0 -27
12 -36 90 -8 68 -32 202 -45 252 -7 23 -22 45 -43 59 -17 13 -36 29 -40 36
-14 23 -54 14 -97 -22 -23 -19 -51 -35 -62 -35 -14 0 -18 -5 -15 -17 26 -93
74 -380 65 -388 -2 -1 -13 -6 -25 -9 -18 -6 -23 -3 -24 11 -1 17 -2 17 -6 1
-2 -10 -11 -18 -18 -18 -13 0 -17 12 -29 95 -3 17 -3 0 -1 -37 l4 -68 -43 0
c-42 0 -44 1 -50 35 -5 24 -12 35 -24 35 -29 0 -40 -14 -44 -50 -3 -31 -6 -35
-35 -38 l-33 -3 0 49 c0 66 25 192 46 234 19 38 63 88 78 88 30 0 71 -87 89
-190 4 -22 4 -21 6 6 2 43 -37 156 -61 177 -11 9 -28 17 -37 17 -45 0 -105
-116 -122 -236 -6 -43 -14 -97 -18 -119 l-8 -40 -10 40 c-6 22 -15 71 -21 108
-10 65 -9 73 23 168 73 216 157 292 209 191 18 -35 60 -211 52 -219 -3 -4 -1
-12 5 -19 6 -7 14 -34 19 -61 9 -47 9 -47 4 12 -5 60 -42 227 -62 277 -16 39
-48 68 -76 68 -51 0 -123 -112 -161 -248 -11 -39 -21 -59 -25 -50 -6 10 -28
141 -63 373 -2 9 125 31 197 34 16 0 68 -6 115 -15z m-356 -71 c3 -26 20 -140
36 -253 17 -112 31 -216 30 -230 -1 -21 -4 -18 -22 20 -47 102 -147 419 -147
466 0 13 79 54 91 48 3 -2 9 -25 12 -51z m636 -103 c46 -39 48 -43 64 -128 25
-127 40 -250 33 -267 -7 -18 -45 -20 -51 -2 -2 6 -13 72 -24 145 -11 74 -26
143 -35 157 -19 29 -51 32 -85 8 -23 -16 -24 -19 -17 -112 4 -53 9 -126 13
-163 10 -114 -12 -77 -30 50 -10 64 -25 150 -34 191 -17 71 -17 75 1 85 10 6
36 26 58 44 22 17 44 32 50 32 5 0 31 -18 57 -40z m235 9 l38 -11 -6 -51 c-7
-58 -25 -289 -26 -324 0 -20 -5 -23 -35 -23 l-35 0 0 113 c0 135 11 307 19
307 3 0 23 -5 45 -11z m91 -19 c4 -6 7 -49 7 -95 0 -47 5 -88 9 -91 12 -7 11
-71 -1 -79 -6 -4 -11 11 -11 37 l-2 43 -7 -50 c-5 -27 -8 -68 -8 -90 1 -40 1
-40 5 -5 6 48 43 72 43 27 0 -43 -23 -75 -58 -82 -19 -3 -35 -5 -37 -3 -4 5
22 317 30 361 7 37 18 46 30 27z m62 -22 c-3 -8 -6 -5 -6 6 -1 11 2 17 5 13 3
-3 4 -12 1 -19z m548 -60 c-4 -29 -12 -57 -17 -63 -7 -7 -9 -2 -5 15 3 14 9
42 12 63 11 56 18 45 10 -15z m-954 -15 c9 -22 49 -265 49 -295 0 -5 -9 -8
-19 -8 -15 0 -22 10 -28 43 -7 32 -14 43 -30 45 -21 3 -22 0 -16 -47 5 -41 3
-51 -9 -51 -16 0 -20 28 -34 216 -6 88 -6 92 17 108 34 24 58 20 70 -11z m456
-225 c-2 -13 -4 -3 -4 22 0 25 2 35 4 23 2 -13 2 -33 0 -45z m-464 -45 c4 -18
2 -35 -2 -38 -12 -7 -21 19 -21 58 0 38 15 25 23 -20z m696 -23 c0 -10 -3 -8
-9 5 -12 27 -12 43 0 25 5 -8 9 -22 9 -30z m-999 -36 c0 -13 -35 -26 -44 -16
-10 10 -6 38 6 50 10 10 15 9 25 -5 7 -9 13 -22 13 -29z m713 -56 c4 -49 2
-67 -7 -57 -9 10 -16 109 -8 109 5 0 12 -24 15 -52z m316 22 c11 -24 11 -24
-3 -6 -9 11 -16 24 -16 30 0 12 5 7 19 -24z m-345 -12 c12 -59 8 -68 -24 -68
-17 0 -30 5 -31 13 0 10 -2 10 -6 0 -2 -7 -14 -13 -25 -13 -18 0 -19 4 -13 43
10 55 9 55 54 55 35 1 39 -2 45 -30z m-310 -9 c10 -53 7 -69 -13 -69 -22 0
-31 19 -31 66 0 27 4 34 19 34 13 0 20 -10 25 -31z m70 15 c3 -9 6 -29 6 -45
0 -26 -4 -29 -30 -29 -24 0 -30 4 -30 23 0 12 -3 32 -6 45 -6 19 -3 22 24 22
18 0 32 -6 36 -16z m51 -25 c8 -45 4 -54 -20 -46 -20 8 -21 87 -1 87 9 0 17
-16 21 -41z m65 27 c0 -43 -14 -76 -31 -76 -13 0 -19 7 -19 23 0 12 -3 32 -6
45 -6 19 -3 22 25 22 20 0 31 -5 31 -14z m-270 -46 c0 -36 -4 -50 -14 -50 -17
0 -26 22 -26 66 0 27 4 34 20 34 17 0 20 -7 20 -50z m30 20 c0 -16 -4 -30 -10
-30 -5 0 -10 14 -10 30 0 17 5 30 10 30 6 0 10 -13 10 -30z m-108 -15 c0 -19
1 -41 2 -47 1 -7 -9 -14 -20 -16 -18 -3 -22 3 -27 40 -4 28 -2 45 6 50 25 16
37 7 39 -27z m30 -7 c8 -69 -7 -69 -18 0 -4 26 -3 42 4 42 5 0 12 -19 14 -42z
m578 -3 c0 -25 -4 -45 -10 -45 -11 0 -14 49 -4 74 10 26 14 18 14 -29z m-664
-11 c5 -34 3 -48 -7 -55 -16 -10 -26 16 -28 69 -2 52 26 41 35 -14z m-146 21
c0 -9 -9 -15 -25 -15 -24 0 -32 10 -18 23 12 13 43 7 43 -8z m104 -32 c7 -54
4 -59 -46 -68 -37 -7 -38 -6 -38 23 0 16 -3 44 -6 61 l-6 31 44 0 45 0 7 -47z
m1555 -125 c46 -219 47 -228 28 -228 -9 0 -18 13 -22 33 -4 17 -25 88 -47 156
l-40 124 18 38 c9 22 20 39 23 39 3 0 21 -73 40 -162z m-1669 98 c0 -14 -4
-28 -10 -31 -6 -4 -10 7 -10 24 0 17 5 31 10 31 6 0 10 -11 10 -24z m1300 -25
c0 -5 -6 -40 -14 -78 -8 -37 -22 -131 -31 -208 -8 -77 -20 -165 -25 -195 -5
-30 -21 -136 -36 -235 -29 -196 -57 -323 -77 -341 -12 -12 -67 -28 -67 -20 0
2 12 53 26 113 76 321 107 488 85 468 -13 -12 -38 -111 -96 -374 -24 -112 -50
-210 -56 -217 -14 -17 -39 -18 -39 -2 0 17 37 149 70 253 17 50 39 134 50 188
11 54 22 102 25 106 6 11 52 302 59 381 14 142 18 160 32 160 17 0 16 -12 -17
-240 -26 -181 -26 -174 -8 -178 13 -2 20 29 42 190 15 106 27 203 27 216 0 17
6 22 25 22 14 0 25 -4 25 -9z m-1880 -227 c0 -6 -21 -21 -47 -32 l-48 -21 -3
32 c-4 35 16 216 26 232 5 8 71 -185 72 -211z m1044 185 c3 -17 6 -47 6 -65 0
-31 -3 -34 -30 -34 -23 0 -30 5 -30 19 0 10 -3 39 -6 65 -7 46 -7 46 23 46 26
0 31 -5 37 -31z m36 -9 c0 -22 -4 -40 -10 -40 -5 0 -10 8 -10 18 0 9 -3 27 -6
40 -5 16 -2 22 10 22 12 0 16 -10 16 -40z m50 21 c0 -10 -3 -39 -6 -65 -6 -40
-10 -46 -30 -46 -24 0 -33 23 -14 35 6 3 10 26 10 51 0 37 3 44 20 44 13 0 20
-7 20 -19z m178 12 c43 -5 52 -9 47 -22 -4 -9 -9 -38 -12 -64 -5 -39 -9 -47
-22 -42 -9 4 -40 9 -68 12 l-53 6 -2 56 -1 56 -6 -60 c-5 -46 -10 -61 -23 -63
-14 -3 -18 4 -18 31 0 19 3 49 6 66 6 29 9 31 53 31 25 0 70 -3 99 -7z m440
-80 c-12 -137 -36 -295 -69 -448 -30 -136 -47 -201 -107 -410 -16 -55 -32
-112 -36 -127 -5 -21 -15 -30 -44 -37 -20 -6 -41 -11 -45 -11 -13 0 72 151 99
179 18 18 24 35 24 69 0 25 11 83 25 129 40 131 74 342 87 543 7 105 16 188
22 192 6 4 20 8 31 8 20 0 21 -4 13 -87z m-1408 26 l21 -39 -27 -11 c-36 -13
-43 -3 -37 53 6 54 15 53 43 -3z m543 38 c3 -8 8 -39 12 -69 6 -47 4 -56 -10
-62 -24 -9 -25 -7 -35 65 -7 47 -6 65 3 71 17 11 24 10 30 -5z m87 -6 c0 -10
3 -39 6 -65 6 -41 5 -46 -13 -46 -16 0 -21 9 -27 46 -10 74 -8 84 14 84 13 0
20 -7 20 -19z m433 12 c3 -5 7 -42 11 -83 l6 -75 -14 55 c-7 30 -16 67 -21 83
-7 25 6 39 18 20z m264 -183 c-5 -141 -25 -310 -43 -359 -7 -22 -77 51 -113
119 -38 71 -56 142 -76 289 -8 63 -15 118 -15 123 0 4 18 8 40 8 l40 0 0 -40
c0 -22 3 -40 8 -40 19 0 84 48 73 54 -21 14 -11 25 27 28 65 5 66 3 59 -182z
m527 103 c49 -148 57 -186 43 -195 -33 -21 -52 -8 -94 68 -24 42 -43 83 -43
90 0 17 52 124 60 124 3 0 19 -39 34 -87z m-1353 -8 c2 -28 0 -52 -6 -55 -6
-3 -11 24 -12 70 -2 83 12 70 18 -15z m713 69 c7 -19 8 -17 -21 -33 -21 -11
-23 -10 -23 19 0 23 5 30 19 30 10 0 22 -7 25 -16z m-746 -66 c-4 -95 -23
-100 -36 -11 -11 76 -9 83 19 83 18 0 20 -6 17 -72z m-54 35 c19 -96 18 -120
-2 -125 -23 -6 -32 22 -32 103 0 55 24 70 34 22z m171 -30 c4 -26 3 -43 -3
-43 -8 0 -22 53 -22 90 0 29 18 -6 25 -47z m470 -50 c9 -44 15 -98 13 -119
l-3 -39 -13 45 c-8 25 -20 58 -28 73 -15 31 -18 66 -8 117 9 43 18 25 39 -77z
m-682 14 c5 -66 4 -67 -22 -73 -14 -3 -31 -7 -37 -9 -14 -4 -24 40 -24 100 0
39 3 43 33 52 17 5 35 7 38 4 4 -3 9 -36 12 -74z m-905 42 c2 -13 -3 -15 -23
-12 -25 5 -31 14 -18 27 12 11 38 2 41 -15z m746 -21 c3 -7 7 -39 10 -71 6
-53 5 -58 -16 -66 -60 -22 -62 -22 -87 14 -13 20 -26 33 -29 30 -3 -2 0 -11 7
-19 8 -9 8 -21 1 -40 -15 -41 -21 -31 -19 32 1 31 -1 64 -5 73 -11 25 29 31
50 8 9 -10 23 -19 30 -19 22 0 27 21 8 34 -16 13 -16 14 2 24 25 15 44 15 48
0z m68 -48 c2 -51 0 -61 -15 -66 -24 -8 -24 -8 -32 58 -7 58 -6 59 37 67 3 0
8 -26 10 -59z m-814 10 c2 -21 -5 -30 -36 -48 -51 -28 -52 -28 -52 8 0 61 81
98 88 40z m575 -121 c5 -100 3 -118 -17 -173 -27 -71 -25 -74 -51 99 -22 146
-21 161 13 173 48 18 49 18 55 -99z m1751 38 l38 -72 -38 -40 c-20 -22 -51
-69 -68 -105 -27 -57 -31 -76 -31 -150 0 -47 4 -106 8 -131 l8 -46 -61 -32
c-34 -18 -64 -31 -66 -28 -5 4 39 221 86 432 23 103 68 245 78 245 4 0 24 -33
46 -73z m-1074 28 c0 -21 -5 -25 -30 -25 -23 0 -30 5 -30 19 0 20 12 29 43 30
12 1 17 -7 17 -24z m58 3 c3 -13 -3 -18 -22 -18 -20 0 -26 5 -26 21 0 15 5 20
22 17 13 -2 24 -11 26 -20z m62 7 c0 -8 -6 -15 -14 -15 -20 0 -29 17 -14 23
22 9 28 7 28 -8z m133 -2 c13 -15 14 -30 7 -93 -17 -143 -68 -393 -100 -484
-37 -108 -44 -103 -50 35 l-6 124 -2 -131 c-2 -125 -1 -133 23 -168 14 -20 25
-39 25 -41 0 -8 -72 -27 -78 -20 -9 9 -7 482 3 608 5 73 10 97 21 97 11 0 14
-21 16 -92 l2 -93 5 95 c7 105 8 107 93 109 43 1 53 12 38 42 -11 19 -17 20
-66 14 -36 -4 -54 -3 -54 4 0 19 105 13 123 -6z m133 -103 c19 -90 62 -179
116 -239 l39 -45 -43 -37 c-24 -21 -45 -38 -48 -39 -7 0 -25 46 -57 145 -21
65 -26 104 -29 210 -1 72 0 119 2 105 3 -14 12 -59 20 -100z m-1156 74 c0 -20
9 -99 21 -175 14 -98 17 -144 10 -156 -10 -17 -10 -17 -11 0 0 10 -7 82 -15
160 -22 207 -22 207 -13 207 4 0 8 -16 8 -36z m700 11 c0 -18 -5 -25 -20 -25
-15 0 -20 7 -20 25 0 18 5 25 20 25 15 0 20 -7 20 -25z m-1180 -9 c0 -13 3
-37 6 -55 6 -29 4 -32 -41 -51 -25 -11 -49 -20 -51 -20 -2 0 -4 19 -4 43 0 43
19 75 55 95 29 17 35 15 35 -12z m454 2 c2 -13 10 -81 16 -153 6 -71 13 -140
16 -152 2 -13 1 -23 -4 -23 -9 0 -132 214 -156 272 l-16 36 58 20 c74 26 81
26 86 0z m656 -9 c0 -24 -29 -37 -41 -18 -14 22 -11 37 9 42 24 5 32 -1 32
-24z m20 6 c0 -14 -2 -25 -4 -25 -2 0 -6 11 -8 25 -3 14 -1 25 3 25 5 0 9 -11
9 -25z m-77 -14 c3 -11 -1 -22 -8 -25 -8 -3 -15 5 -18 20 -5 29 18 34 26 5z
m-43 -1 c0 -5 -2 -10 -4 -10 -3 0 -8 5 -11 10 -3 6 -1 10 4 10 6 0 11 -4 11
-10z m-413 -82 c-2 -18 -4 -6 -4 27 0 33 2 48 4 33 2 -15 2 -42 0 -60z m377
66 c9 -23 8 -24 -19 -24 -37 0 -31 35 6 39 4 1 10 -6 13 -15z m-627 -82 c23
-48 65 -125 93 -172 l51 -85 -12 -77 c-6 -43 -14 -78 -18 -78 -20 1 -170 285
-214 407 l-26 72 27 10 c49 17 56 12 99 -77z m563 63 c0 -11 -11 -15 -40 -15
-63 0 -48 25 18 29 13 1 22 -5 22 -14z m661 -149 c21 -103 21 -110 5 -204 -17
-99 -67 -266 -89 -295 -7 -9 -26 -19 -43 -23 -27 -5 -34 -2 -53 24 -21 30 -21
31 -2 64 11 18 29 64 40 102 27 87 91 407 91 455 l1 36 14 -26 c8 -15 24 -74
36 -133z m-751 134 c0 -5 -9 -10 -21 -10 -11 0 -17 5 -14 10 3 6 13 10 21 10
8 0 14 -4 14 -10z m472 -152 c-8 -182 -9 -465 -2 -517 5 -34 4 -34 -57 -57
-35 -13 -63 -19 -63 -13 0 5 -9 63 -21 128 l-20 119 25 41 c19 29 33 41 50 41
60 0 81 79 73 276 -4 118 -2 144 9 144 11 0 12 -28 6 -162z m-1098 120 c28
-192 52 -331 72 -418 48 -215 139 -437 271 -658 59 -99 59 -102 5 -134 l-30
-18 -69 103 c-119 175 -151 242 -285 587 -34 90 -55 219 -64 395 l-7 130 44
22 c57 28 57 28 63 -9z m109 -182 c30 -61 76 -147 104 -191 l50 -80 -7 -63
c-13 -102 3 -227 40 -336 45 -130 56 -137 150 -104 l70 25 0 -87 0 -88 -44
-26 c-25 -14 -49 -26 -55 -26 -14 0 -119 178 -178 300 -59 123 -118 289 -148
415 -33 138 -75 389 -74 439 l0 41 20 -54 c10 -30 43 -105 72 -165z m960 147
c20 -203 -5 -333 -64 -333 -10 0 -33 15 -52 33 -35 33 -58 92 -92 239 -19 84
-19 98 0 98 9 0 15 -9 15 -23 0 -13 10 -59 23 -103 28 -94 70 -167 95 -162 15
3 17 20 16 161 l0 157 26 0 c26 0 27 -3 33 -67z m-69 11 c9 -72 7 -242 -4
-249 -16 -10 -61 71 -86 157 -33 112 -32 126 9 131 76 9 74 11 81 -39z m1646
-32 c-1 -52 -7 -79 -28 -121 -15 -30 -31 -55 -35 -55 -7 -1 -44 89 -50 120 -3
16 95 134 105 128 4 -3 8 -35 8 -72z m-2147 37 c21 -10 25 -21 35 -112 7 -56
12 -118 12 -137 0 -63 29 -171 57 -216 23 -36 33 -44 58 -44 17 0 53 -11 80
-25 28 -13 55 -25 62 -25 6 0 14 -4 17 -9 8 -13 28 -152 23 -157 -3 -3 -27
-11 -53 -19 -27 -7 -96 -32 -154 -54 -58 -23 -106 -41 -107 -41 -2 0 -3 59 -3
132 l0 132 -36 52 -36 52 -3 148 c-2 82 -8 174 -13 204 -8 43 -7 63 5 93 17
40 20 42 56 26z m299 -49 c29 -252 -32 -458 -133 -448 -29 3 -37 10 -61 58
-23 44 -31 81 -43 185 -8 72 -15 146 -15 165 l0 34 28 -30 c20 -23 30 -48 40
-104 12 -69 55 -170 74 -170 4 0 17 9 27 19 26 26 35 109 27 236 -3 56 -3 105
1 109 4 4 16 6 28 4 16 -2 21 -13 27 -58z m52 -27 c10 -49 28 -119 40 -158 13
-38 23 -95 24 -125 0 -30 12 -118 26 -194 15 -76 25 -141 23 -142 -10 -10 -98
-31 -102 -25 -2 5 -14 77 -25 162 -15 108 -22 216 -24 362 -2 231 8 264 38
120z m-961 -65 c8 -205 27 -292 103 -486 93 -236 143 -334 235 -472 78 -115
81 -122 63 -135 -17 -13 -22 -12 -47 18 -47 54 -174 265 -235 389 -31 65 -60
118 -64 118 -5 0 -8 -10 -8 -22 0 -28 114 -261 164 -338 46 -70 45 -86 -2 -34
-73 82 -241 346 -316 497 -64 131 -140 331 -156 414 -6 32 -13 68 -15 80 -4
18 1 22 38 28 23 4 69 18 101 31 33 13 61 24 63 24 2 0 3 -28 3 -62 1 -142 80
-548 107 -548 16 0 17 29 3 66 -32 82 -80 380 -80 490 0 68 5 80 31 83 3 1 9
-63 12 -141z m841 53 c11 -138 -6 -251 -37 -251 -22 0 -57 88 -69 172 -8 57
-16 82 -29 89 -10 5 -27 23 -39 39 l-22 30 47 -2 c27 -1 41 -5 33 -9 -7 -4 -9
-11 -5 -15 4 -4 16 2 27 14 13 14 33 22 54 22 l33 0 7 -89z m1658 50 c25 -16
48 -33 51 -38 6 -10 -99 -121 -106 -112 -2 2 -20 32 -40 65 -20 34 -44 67 -52
74 -31 25 -13 37 61 39 29 1 53 -7 86 -28z m-154 -92 c58 -87 62 -107 28 -136
-15 -13 -31 -23 -35 -23 -16 0 -53 106 -58 169 -7 81 6 79 65 -10z m-1797
-110 c9 -93 9 -131 1 -145 -10 -17 -11 -16 -12 11 -1 17 -5 80 -10 140 -7 97
-6 134 5 123 2 -2 9 -60 16 -129z m2076 -19 c3 -36 0 -83 -6 -106 -10 -38 -58
-113 -72 -114 -4 0 -10 16 -14 36 -3 20 -17 68 -31 107 -13 40 -24 78 -24 85
0 7 26 38 58 68 l57 55 14 -33 c7 -18 16 -62 18 -98z m-369 -14 l26 -68 -34
-28 c-42 -34 -46 -29 -56 63 -4 44 -2 82 6 114 l14 47 8 -30 c5 -16 21 -60 36
-98z m-1735 -37 l5 -126 46 -65 c25 -36 43 -68 39 -72 -11 -11 -63 -6 -91 8
-15 8 -42 30 -61 50 l-34 35 11 58 c7 32 13 67 15 78 2 16 8 12 31 -23 16 -23
31 -40 33 -38 3 3 -9 25 -27 51 l-32 46 23 70 c12 38 26 66 30 62 4 -5 10 -65
12 -134z m1042 -13 c11 -37 10 -42 -22 -95 -19 -31 -43 -81 -54 -113 -17 -44
-26 -57 -46 -61 -19 -4 -23 -1 -17 12 27 63 66 191 80 269 l18 92 14 -32 c8
-18 20 -51 27 -72z m165 57 c0 -18 -54 -193 -60 -193 -3 0 -16 27 -27 60 l-22
59 47 41 c46 39 62 48 62 33z m723 -83 c8 -25 19 -63 23 -85 l7 -39 -28 22
c-16 12 -42 41 -58 63 l-30 40 29 30 c32 33 36 31 57 -31z m-843 -95 c28 -84
22 -111 -28 -124 -87 -22 -92 -22 -92 -6 0 28 83 194 97 195 1 0 11 -29 23
-65z m805 -93 c-68 -6 -175 44 -175 82 0 7 16 24 36 39 l37 26 67 -72 68 -72
-33 -3z m-185 -2 c0 -9 -23 -49 -51 -89 -28 -40 -49 -75 -46 -77 2 -3 28 30
57 73 29 43 54 79 56 81 6 9 64 -30 64 -43 0 -15 -74 -192 -85 -203 -3 -3 -34
21 -68 54 -34 34 -81 75 -103 92 -37 29 -41 35 -35 63 6 28 16 36 86 69 l80
37 23 -20 c12 -11 22 -28 22 -37z m-1686 -56 c14 -3 37 -3 50 0 31 8 36 -10
36 -147 l0 -108 -47 -20 c-88 -38 -93 -36 -126 61 -23 67 -30 109 -34 200 l-6
115 51 -47 c28 -26 62 -50 76 -54z m1834 -2 c10 -7 6 -35 -18 -133 -17 -68
-38 -131 -46 -139 -12 -13 -18 -11 -46 18 l-33 32 17 43 c69 180 73 187 93
187 11 0 26 -4 33 -8z m-802 -104 c-38 -69 -50 -84 -80 -95 -35 -12 -36 -11
-52 19 -13 26 -14 37 -4 75 7 24 17 46 23 50 8 5 74 19 150 32 5 0 -12 -36
-37 -81z m529 -8 c11 -18 -16 -50 -65 -75 -27 -14 -51 -25 -53 -25 -5 0 11
128 18 151 6 18 10 17 50 -11 24 -17 47 -35 50 -40z m-665 48 c-1 -7 -7 -24
-14 -36 l-13 -24 -16 26 c-21 32 -21 33 1 39 32 8 42 7 42 -5z m-29 -78 c41
-70 40 -73 -22 -84 -35 -6 -36 -5 -78 60 -23 37 -41 68 -39 69 11 9 66 23 83
22 12 -1 32 -25 56 -67z m-128 -31 c29 -46 36 -64 26 -70 -11 -6 -169 -49
-182 -49 -3 0 -8 25 -12 57 -4 31 -9 61 -11 67 -4 10 92 52 126 55 8 0 32 -26
53 -60z m919 -90 c-12 -31 -20 -39 -41 -39 -14 0 -60 -12 -102 -27 -43 -15
-79 -26 -82 -23 -2 3 -1 32 2 64 l6 59 57 29 c32 16 63 38 69 50 10 19 13 18
59 -27 l48 -47 -16 -39z m-1098 20 c7 -56 7 -56 -21 -62 -15 -3 -35 -8 -44
-12 -13 -5 -20 7 -33 61 -9 36 -15 68 -13 70 2 3 24 10 48 17 51 15 52 14 63
-74z m686 57 c0 -3 -5 -17 -11 -33 -14 -35 -13 -261 1 -298 6 -15 13 -60 15
-99 5 -59 2 -80 -18 -125 -12 -30 -27 -56 -32 -58 -6 -1 -21 13 -34 32 l-24
36 27 54 c31 65 32 79 6 173 -30 106 -22 292 13 314 13 8 57 11 57 4z m-801
-53 c6 -27 13 -58 17 -70 4 -15 2 -23 -6 -23 -18 0 -201 -75 -280 -115 -38
-19 -72 -35 -75 -35 -3 0 -5 40 -5 88 l0 89 38 16 c90 40 249 96 274 97 23 0
28 -5 37 -47z m684 -45 c-15 -91 -11 -136 18 -245 l20 -72 -21 -49 c-20 -46
-23 -49 -44 -39 -22 10 -22 12 -7 53 15 41 14 45 -7 89 -25 51 -27 95 -12 212
17 125 16 123 61 132 3 0 -1 -36 -8 -81z m-57 10 c-3 -29 -9 -84 -12 -121 l-7
-68 -48 88 c-27 48 -49 96 -49 105 0 12 15 22 48 32 75 23 76 23 68 -36z m-94
-70 c78 -150 118 -248 112 -274 -3 -13 -10 -24 -14 -24 -9 0 -104 141 -184
273 -48 79 -49 91 -11 100 49 12 54 8 97 -75z m-141 10 l26 -41 -71 -63 c-84
-75 -156 -116 -248 -140 -67 -18 -96 -17 -220 8 -9 2 -13 -10 -12 -41 1 -38 7
-49 41 -82 37 -34 47 -38 116 -44 68 -7 83 -5 149 21 115 43 202 144 243 279
l12 40 58 -90 c32 -49 71 -111 88 -137 17 -27 34 -48 39 -48 18 0 -82 -118
-169 -199 -113 -106 -249 -177 -365 -190 -40 -5 -80 -5 -88 -1 -8 4 -34 10
-56 13 -31 3 -62 21 -125 71 -46 36 -94 81 -107 99 -25 38 -41 137 -42 263 l0
81 83 40 c90 45 259 113 279 113 7 0 23 -23 35 -50 39 -90 83 -77 83 25 l0 62
93 25 c125 34 127 34 158 -14z m-288 -37 c-3 -11 3 -33 13 -50 14 -23 15 -34
7 -42 -22 -22 -43 -2 -43 40 0 22 -5 43 -12 47 -8 5 -6 10 8 15 29 12 33 10
27 -10z m270 -137 c-40 -86 -121 -164 -207 -198 -61 -24 -76 -26 -139 -20 -63
6 -75 11 -108 43 -21 20 -41 47 -45 61 -7 24 -6 24 17 7 48 -35 89 -47 158
-47 115 0 227 63 306 173 22 31 41 52 43 48 2 -5 -10 -35 -25 -67z m-9 54
c-20 -34 -71 -91 -102 -114 -26 -21 -48 -27 -99 -30 -35 -2 -91 -13 -123 -24
-77 -26 -80 -26 -126 11 -38 31 -38 32 -9 23 17 -5 71 -9 120 -9 83 0 96 3
165 36 41 20 98 55 125 77 55 45 60 48 49 30z m-714 -155 l0 -67 -31 30 c-53
50 -54 61 -12 83 21 11 39 20 41 21 1 0 2 -30 2 -67z m-47 -39 c43 -47 48 -58
55 -118 5 -36 5 -66 1 -66 -12 0 -155 142 -168 167 -10 20 -7 25 26 47 20 14
37 24 38 23 1 -1 23 -25 48 -53z m-59 -96 c238 -238 318 -304 375 -313 20 -4
44 -11 55 -16 10 -6 41 -8 70 -5 43 4 46 4 16 -4 -19 -5 -61 -12 -92 -15 -41
-5 -58 -11 -58 -21 0 -31 167 -8 342 46 82 25 238 96 238 108 0 28 -24 27 -83
-4 -69 -36 -208 -91 -192 -75 6 5 39 24 75 42 73 36 201 147 274 238 l49 61
13 -26 c19 -35 18 -38 -11 -65 -13 -13 -25 -30 -25 -36 0 -22 31 -14 52 12 23
29 38 23 64 -27 20 -39 54 -37 91 6 25 28 38 34 83 38 62 6 95 35 106 93 l6
35 17 -23 c26 -34 84 -148 78 -153 -3 -3 -20 13 -38 35 -39 49 -62 55 -49 12
4 -15 13 -38 20 -50 17 -33 3 -38 -21 -8 -19 25 -69 39 -69 20 1 -10 37 -83
119 -236 65 -121 76 -160 25 -88 -118 168 -173 246 -196 281 -56 82 -79 34
-28 -60 51 -95 32 -121 -35 -49 -26 28 -40 38 -48 30 -7 -7 -7 -18 1 -36 14
-30 2 -34 -16 -5 -13 21 -37 27 -46 11 -3 -5 1 -26 10 -47 l16 -39 -37 43
c-41 47 -81 58 -70 20 4 -13 15 -36 25 -53 79 -130 151 -268 148 -282 -4 -20
-98 94 -197 238 -76 111 -100 110 -76 -1 l8 -35 -35 33 c-32 30 -68 43 -68 23
0 -5 11 -34 25 -65 28 -64 29 -66 16 -66 -6 0 -29 25 -53 55 -41 53 -78 72
-78 40 0 -9 26 -59 59 -113 68 -113 101 -176 101 -193 0 -19 -53 36 -96 99
-91 134 -147 202 -166 202 -25 0 -20 -27 23 -119 16 -35 28 -65 26 -67 -2 -2
-38 39 -80 91 -96 118 -115 126 -76 34 12 -27 19 -52 16 -55 -2 -3 -24 18 -47
45 -38 45 -70 65 -70 44 0 -3 29 -62 66 -131 36 -68 63 -126 61 -129 -4 -4
-86 87 -170 190 -37 46 -77 62 -77 32 0 -8 9 -35 20 -60 11 -25 29 -65 40 -90
47 -107 6 -84 -103 60 -34 44 -97 119 -140 167 -67 75 -76 88 -56 88 12 0 44
-18 70 -40 48 -40 79 -51 79 -27 0 7 -36 44 -80 83 -93 80 -310 311 -310 330
0 10 10 19 28 23 2 1 41 -36 86 -81z m-125 1 c12 -17 68 -77 123 -135 55 -57
98 -104 95 -104 -24 0 -201 64 -354 127 -7 3 -13 9 -13 15 0 11 109 128 120
128 3 0 16 -14 29 -31z"/>
<path d="M2338 7529 c-9 -5 -19 -30 -22 -56 -4 -27 -16 -85 -27 -131 -12 -46
-19 -86 -16 -88 4 -5 31 99 52 204 4 18 9 32 11 30 5 -6 22 -134 34 -261 11
-118 18 -137 84 -217 25 -30 46 -60 46 -66 0 -12 -7 -15 -118 -54 -62 -22 -83
-38 -26 -20 103 33 196 68 187 71 -6 3 -7 30 -2 77 8 76 -2 257 -16 270 -4 4
-4 -8 0 -27 11 -49 9 -275 -2 -295 -8 -14 -14 -9 -43 30 -64 85 -88 129 -95
169 -7 39 -6 39 12 22 11 -9 34 -22 52 -28 27 -10 35 -8 51 6 30 27 26 80 -6
110 -41 38 -78 31 -98 -17 -12 -27 -13 -22 -25 69 -7 54 -15 116 -18 138 l-6
40 23 -20 c12 -11 31 -38 42 -60 27 -54 66 -105 80 -105 7 0 3 9 -9 19 -11 11
-37 48 -56 84 -20 35 -44 70 -53 78 -15 12 -15 14 2 19 16 6 16 7 -3 12 -11 3
-27 2 -35 -3z m146 -260 c33 -26 37 -83 5 -99 -16 -9 -27 -7 -52 7 -40 23 -47
63 -18 92 26 26 32 26 65 0z"/>
<path d="M2401 7517 c2 -1 15 -11 29 -22 l25 -20 -19 23 c-11 12 -24 22 -29
22 -6 0 -8 -1 -6 -3z"/>
<path d="M2535 7401 c38 -42 91 -98 118 -126 27 -27 60 -69 74 -92 32 -55 42
-56 11 -2 -13 23 -79 98 -148 168 -69 70 -94 93 -55 52z"/>
<path d="M2573 6943 c9 -2 25 -2 35 0 9 3 1 5 -18 5 -19 0 -27 -2 -17 -5z"/>
<path d="M440 7223 c0 -16 73 -233 77 -229 4 4 -37 141 -57 193 -6 14 -5 23 3
26 6 2 4 6 -6 10 -9 3 -17 3 -17 0z"/>
<path d="M520 6979 c0 -3 16 -36 36 -75 19 -38 32 -58 28 -44 -10 36 -63 136
-64 119z"/>
<path d="M3600 7155 c0 -5 5 -17 10 -25 5 -8 10 -10 10 -5 0 6 -5 17 -10 25
-5 8 -10 11 -10 5z"/>
<path d="M1354 7205 c16 -9 41 -27 55 -41 14 -14 42 -34 61 -44 20 -10 77 -55
128 -100 51 -45 95 -80 98 -78 6 7 -162 149 -216 183 -25 15 -62 43 -83 61
-20 19 -45 34 -55 34 -11 0 -7 -5 12 -15z"/>
<path d="M1206 7004 c-4 -14 -5 -28 -3 -31 3 -2 8 8 11 23 4 14 5 28 3 31 -3
2 -8 -8 -11 -23z"/>
<path d="M1181 6904 c0 -11 3 -14 6 -6 3 7 2 16 -1 19 -3 4 -6 -2 -5 -13z"/>
<path d="M1156 6808 c-10 -40 -16 -84 -13 -98 3 -21 5 -19 6 8 0 19 8 58 17
88 8 30 14 59 12 65 -2 6 -12 -22 -22 -63z"/>
<path d="M4300 6976 c0 -2 8 -10 18 -17 15 -13 16 -12 3 4 -13 16 -21 21 -21
13z"/>
<path d="M4408 6613 c6 -2 18 -2 25 0 6 3 1 5 -13 5 -14 0 -19 -2 -12 -5z"/>
<path d="M4293 6543 c20 -2 54 -2 75 0 20 2 3 4 -38 4 -41 0 -58 -2 -37 -4z"/>
<path d="M4288 6513 c7 -3 16 -2 19 1 4 3 -2 6 -13 5 -11 0 -14 -3 -6 -6z"/>
<path d="M4378 6513 c6 -2 18 -2 25 0 6 3 1 5 -13 5 -14 0 -19 -2 -12 -5z"/>
<path d="M4420 6506 c0 -2 7 -7 16 -10 8 -3 12 -2 9 4 -6 10 -25 14 -25 6z"/>
<path d="M4530 6446 c0 -48 48 -176 66 -176 18 0 18 -4 -11 86 -14 42 -25 85
-25 95 0 11 -7 19 -15 19 -9 0 -15 -9 -15 -24z"/>
<path d="M4508 6099 c-22 -12 -23 -42 -2 -60 31 -26 70 25 44 56 -14 17 -19
18 -42 4z m42 -23 c0 -8 -4 -18 -10 -21 -5 -3 -10 3 -10 14 0 12 5 21 10 21 6
0 10 -6 10 -14z m-30 -11 c0 -8 -4 -15 -10 -15 -5 0 -10 7 -10 15 0 8 5 15 10
15 6 0 10 -7 10 -15z"/>
<path d="M4461 6060 c0 -8 4 -24 9 -35 5 -13 9 -14 9 -5 0 8 -4 24 -9 35 -5
13 -9 14 -9 5z"/>
<path d="M4608 5819 c-10 -6 -18 -22 -18 -37 0 -54 48 -70 76 -27 31 48 -10
93 -58 64z m52 -34 c0 -13 -4 -27 -10 -30 -11 -7 -25 39 -15 55 10 16 25 2 25
-25z m-40 -11 c0 -14 -4 -23 -10 -19 -5 3 -10 15 -10 26 0 10 5 19 10 19 6 0
10 -12 10 -26z"/>
<path d="M4720 5819 c0 -18 142 -377 160 -405 17 -28 10 -8 -75 206 -71 179
-85 212 -85 199z"/>
<path d="M4550 5793 c0 -16 31 -95 36 -90 2 2 -5 25 -16 53 -10 27 -19 43 -20
37z"/>
<path d="M4591 5685 c0 -5 8 -26 19 -45 11 -19 19 -30 19 -25 0 6 -8 26 -19
45 -11 19 -19 31 -19 25z"/>
<path d="M3955 5600 c-16 -16 -27 -31 -24 -32 31 -19 89 -45 93 -41 3 3 1 16
-5 30 -5 13 -9 35 -9 49 0 32 -20 30 -55 -6z m48 -17 c7 -35 5 -36 -27 -22
-25 12 -25 13 -10 31 23 25 31 23 37 -9z"/>
<path d="M4565 5590 c-25 -11 1 -11 35 0 20 6 21 8 5 8 -11 0 -29 -3 -40 -8z"/>
<path d="M4470 5560 c-18 -12 -2 -12 25 0 13 6 15 9 5 9 -8 0 -22 -4 -30 -9z"/>
<path d="M4535 5511 c-60 -21 -121 -44 -135 -50 -24 -11 -24 -11 6 -6 31 6 32
4 64 -69 19 -42 35 -74 37 -72 2 2 -10 36 -26 77 -16 41 -27 77 -23 80 9 7
114 44 164 57 l38 10 34 -61 c89 -161 215 -422 205 -426 -5 -1 -49 23 -97 54
-48 32 -80 51 -72 42 27 -27 153 -107 169 -107 19 0 117 45 124 56 3 5 -10 38
-29 74 -40 78 -45 74 -7 -5 l28 -56 -25 -19 c-13 -10 -35 -20 -47 -23 -21 -4
-32 14 -117 177 -51 100 -108 209 -125 244 -17 34 -37 62 -44 62 -6 -1 -61
-18 -122 -39z"/>
<path d="M4729 5529 c-16 -31 4 -71 33 -67 31 5 44 31 30 62 -14 32 -47 34
-63 5z m51 -25 c0 -13 -4 -24 -10 -24 -5 0 -10 14 -10 31 0 17 4 28 10 24 6
-3 10 -17 10 -31z m-33 -6 c-3 -8 -6 -5 -6 6 -1 11 2 17 5 13 3 -3 4 -12 1
-19z"/>
<path d="M4330 5505 c-14 -8 -20 -14 -15 -14 6 0 21 6 35 14 14 8 21 14 15 14
-5 0 -21 -6 -35 -14z"/>
<path d="M4260 5416 c-47 -19 -137 -54 -200 -78 -152 -59 -312 -129 -306 -135
2 -3 14 1 26 7 12 6 23 10 24 8 6 -7 87 -187 125 -278 22 -52 40 -90 41 -85 0
10 -43 115 -120 293 -29 68 -32 92 -9 92 6 0 47 16 92 35 101 42 210 86 342
136 55 21 93 38 85 38 -8 0 -53 -15 -100 -33z"/>
<path d="M4790 5400 c-15 -28 4 -62 33 -58 16 2 23 11 25 32 5 44 -38 64 -58
26z m50 -26 c0 -8 -4 -14 -10 -14 -5 0 -10 9 -10 21 0 11 5 17 10 14 6 -3 10
-13 10 -21z"/>
<path d="M4033 5390 c-34 -14 -28 -21 7 -9 17 6 30 13 30 15 0 6 -12 4 -37 -6z"/>
<path d="M4315 5380 c-9 -15 14 -40 31 -33 22 8 18 43 -5 43 -11 0 -23 -5 -26
-10z"/>
<path d="M4891 5385 c0 -5 6 -21 14 -35 8 -14 14 -20 14 -15 0 6 -6 21 -14 35
-8 14 -14 21 -14 15z"/>
<path d="M4224 5356 c-9 -24 4 -48 23 -44 12 2 18 12 18 28 0 29 -32 41 -41
16z m36 -17 c0 -5 -7 -9 -15 -9 -15 0 -20 12 -9 23 8 8 24 -1 24 -14z"/>
<path d="M4109 5324 c-10 -13 -10 -17 2 -25 22 -14 44 -6 47 19 4 27 -28 31
-49 6z m41 -3 c0 -6 -4 -13 -10 -16 -5 -3 -10 1 -10 9 0 9 5 16 10 16 6 0 10
-4 10 -9z"/>
<path d="M4852 5298 c-15 -15 -15 -41 0 -56 15 -15 48 3 48 26 0 17 -18 42
-30 42 -3 0 -11 -5 -18 -12z m25 -40 c-3 -7 -5 -2 -5 12 0 14 2 19 5 13 2 -7
2 -19 0 -25z"/>
<path d="M4512 5288 c3 -7 17 -19 32 -26 26 -13 27 -15 10 -33 -22 -24 -76
-34 -103 -19 -12 6 -30 23 -39 38 -15 24 -21 26 -57 21 l-40 -6 37 -2 c28 -1
41 -8 58 -31 30 -42 81 -50 134 -21 23 11 46 21 52 21 7 0 36 -16 65 -36 30
-19 45 -26 34 -15 -30 29 -187 123 -183 109z"/>
<path d="M4931 5295 c0 -5 6 -21 14 -35 8 -14 14 -20 14 -15 0 6 -6 21 -14 35
-8 14 -14 21 -14 15z"/>
<path d="M4048 5265 c17 -14 38 -25 48 -24 15 0 15 2 4 6 -8 3 -27 14 -42 24
-38 27 -45 23 -10 -6z"/>
<path d="M4278 5253 c7 -3 16 -2 19 1 4 3 -2 6 -13 5 -11 0 -14 -3 -6 -6z"/>
<path d="M3878 5229 c-35 -20 -11 -77 26 -63 22 9 33 54 15 65 -17 11 -20 11
-41 -2z m36 -17 c2 -4 1 -14 -4 -21 -11 -19 -41 -6 -34 14 6 16 29 20 38 7z"/>
<path d="M4143 5233 c9 -2 23 -2 30 0 6 3 -1 5 -18 5 -16 0 -22 -2 -12 -5z"/>
<path d="M5040 5223 c1 -5 9 -33 20 -63 31 -87 29 -93 -45 -134 -36 -20 -76
-38 -90 -42 -35 -9 -94 23 -199 106 -81 65 -116 83 -116 61 0 -13 190 -159
238 -182 33 -16 53 -20 85 -15 50 8 181 86 185 111 6 27 -48 165 -64 165 -8 0
-14 -3 -14 -7z"/>
<path d="M3763 5178 c3 -7 36 -78 73 -158 79 -169 145 -285 159 -279 11 5 8
36 -6 59 -6 10 -7 5 -3 -15 5 -29 5 -29 -11 -10 -18 22 -151 291 -181 367 -11
27 -23 48 -28 48 -4 0 -6 -6 -3 -12z"/>
<path d="M4913 5179 c-26 -9 -29 -27 -10 -53 19 -26 51 -17 55 15 4 33 -16 49
-45 38z m29 -41 c-9 -9 -12 -7 -12 12 0 19 3 21 12 12 9 -9 9 -15 0 -24z"/>
<path d="M4130 5157 c0 -9 9 -37 21 -64 29 -68 99 -254 99 -264 0 -47 -88 159
-121 284 -10 33 -18 47 -31 47 -14 0 -90 -33 -108 -47 -11 -9 2 -113 22 -173
25 -80 93 -181 131 -194 20 -8 31 -6 46 8 19 17 19 18 -4 59 -19 35 -44 96
-102 257 -15 42 -21 70 -15 70 4 0 20 -35 36 -77 50 -134 107 -277 111 -282 3
-2 15 5 28 16 45 40 96 64 139 65 56 0 77 12 94 54 21 51 20 187 -1 216 -15
19 -16 20 -9 3 4 -11 10 -51 12 -89 8 -136 -14 -174 -102 -175 l-56 0 -15 57
c-9 31 -20 68 -25 82 -5 14 -12 41 -15 60 -4 19 -8 42 -11 51 -3 12 2 15 25
11 30 -4 176 17 168 24 -2 3 -40 0 -83 -4 -74 -9 -163 -3 -213 13 -15 4 -21 2
-21 -8z m57 -77 c12 -30 35 -93 52 -139 18 -46 30 -85 28 -88 -5 -4 -97 224
-112 277 -13 45 11 8 32 -50z m-62 -3 c10 -26 16 -49 13 -52 -2 -2 -14 23 -27
58 -12 34 -18 57 -13 52 5 -6 17 -31 27 -58z m115 -62 c62 -184 42 -153 -34
53 -15 41 -21 81 -11 70 3 -3 23 -58 45 -123z m14 35 l6 -35 -13 35 c-8 19
-17 49 -20 65 l-6 30 13 -30 c8 -16 16 -46 20 -65z m-174 -75 c26 -71 55 -148
64 -169 9 -22 14 -41 11 -44 -7 -8 -51 92 -95 219 -21 63 -39 106 -40 96 0
-23 67 -220 92 -271 25 -49 7 -38 -33 20 -62 91 -107 291 -63 282 11 -2 32
-46 64 -133z m9 35 c0 -8 -6 0 -14 19 -8 18 -15 38 -14 45 1 15 28 -46 28 -64z
m92 -87 c10 -31 17 -58 15 -60 -3 -3 -40 93 -53 137 -11 38 20 -26 38 -77z
m-51 -18 c41 -104 44 -115 26 -84 -14 25 -66 155 -66 167 0 14 11 -9 40 -83z"/>
<path d="M3695 5148 c-3 -8 26 -89 66 -179 39 -90 78 -181 87 -201 8 -21 19
-38 24 -38 20 0 17 28 -8 79 -14 30 -53 118 -86 195 -64 151 -74 168 -83 144z"/>
<path d="M4538 5090 c5 -74 -13 -173 -39 -219 -15 -25 -17 -37 -9 -45 28 -28
80 117 80 224 0 75 -6 100 -24 100 -9 0 -11 -17 -8 -60z"/>
<path d="M2524 5617 c-41 -35 -28 -58 26 -46 23 5 57 7 76 3 42 -8 45 7 8 41
-34 31 -75 32 -110 2z m102 -12 c17 -13 13 -14 -45 -15 -55 0 -62 2 -51 15 16
19 70 19 96 0z"/>
<path d="M3220 5466 c0 -9 5 -16 10 -16 6 0 10 4 10 9 0 6 -4 13 -10 16 -5 3
-10 -1 -10 -9z"/>
<path d="M3511 5624 c-1 -13 65 -213 73 -221 3 -4 6 -4 6 -2 -1 12 -79 232
-79 223z"/>
<path d="M3490 5280 c0 -5 11 -25 24 -45 14 -20 26 -41 28 -47 2 -6 9 -8 16
-4 8 5 2 22 -19 56 -28 46 -49 63 -49 40z"/>
<path d="M3340 5425 c0 -11 12 -42 25 -70 26 -52 25 -44 -6 40 -10 28 -18 41
-19 30z"/>
<path d="M3354 5015 c-10 -8 -14 -15 -8 -15 6 0 17 7 24 15 16 19 9 19 -16 0z"/>
<path d="M2751 4766 c-20 -24 -9 -51 19 -51 21 0 25 5 25 30 0 34 -24 45 -44
21z m39 -20 c0 -14 -24 -29 -33 -19 -3 3 -3 11 0 19 7 18 33 18 33 0z"/>
<path d="M2628 4689 c-21 -11 -38 -22 -38 -24 0 -3 17 3 38 12 45 21 46 22 41
27 -2 2 -21 -5 -41 -15z"/>
<path d="M4097 4143 c-10 -10 -8 -53 2 -53 10 0 21 24 21 46 0 15 -12 19 -23
7z"/>
<path d="M3702 3513 c3 -54 20 -64 28 -18 8 40 1 65 -17 65 -11 0 -13 -11 -11
-47z m15 -10 c-3 -10 -5 -4 -5 12 0 17 2 24 5 18 2 -7 2 -21 0 -30z"/>
<path d="M4310 4041 c0 -9 24 -53 77 -140 10 -16 18 -20 25 -13 7 7 -3 33 -33
83 -41 67 -69 96 -69 70z"/>
<path d="M3955 4310 c-16 -11 -37 -20 -45 -20 -12 0 -15 -14 -16 -62 0 -43 -7
-78 -22 -108 -57 -121 -78 -210 -48 -210 8 0 25 15 38 33 33 47 179 226 189
233 14 8 11 58 -7 100 -25 59 -41 66 -89 34z m78 -40 c24 -57 22 -67 -26 -124
-63 -74 -129 -156 -157 -195 -13 -19 -26 -29 -28 -23 -5 15 32 132 59 184 12
23 24 70 27 103 5 58 6 61 46 81 23 11 46 19 51 17 6 -2 18 -21 28 -43z"/>
<path d="M3944 4246 c-11 -29 0 -51 26 -51 21 0 25 5 25 30 0 24 -5 31 -23 33
-13 2 -24 -3 -28 -12z m46 -10 c0 -2 -3 -11 -6 -20 -9 -23 -24 -20 -24 4 0 11
7 20 15 20 8 0 15 -2 15 -4z"/>
<path d="M3620 3605 c-15 -18 -9 -50 10 -50 10 0 16 12 18 33 3 34 -8 41 -28
17z"/>
<path d="M2244 3900 c0 -52 1 -74 3 -47 2 26 2 68 0 95 -2 26 -3 4 -3 -48z"/>
<path d="M2290 3672 c5 -183 123 -675 171 -714 26 -22 43 -23 63 -2 32 32 18
87 -131 499 -22 61 -43 128 -47 150 -11 63 -15 73 -36 78 -14 4 -20 0 -20 -11z
m40 -56 c13 -64 58 -197 100 -299 35 -86 100 -291 100 -317 0 -10 -7 -26 -16
-34 -21 -22 -51 -5 -69 38 -61 146 -167 666 -135 666 5 0 14 -24 20 -54z"/>
<path d="M2321 3150 c0 -8 4 -24 9 -35 5 -13 9 -14 9 -5 0 8 -4 24 -9 35 -5
13 -9 14 -9 5z"/>
<path d="M2352 3030 c0 -8 8 -37 18 -65 10 -27 18 -43 18 -35 0 8 -8 38 -18
65 -10 28 -18 43 -18 35z"/>
<path d="M3013 3335 c0 -22 2 -30 4 -17 2 12 2 30 0 40 -3 9 -5 -1 -4 -23z"/>
<path d="M2901 6868 c-1 -9 -11 -24 -23 -32 -12 -9 -18 -16 -12 -16 17 0 47
38 41 52 -4 9 -6 7 -6 -4z"/>
<path d="M2798 6823 c12 -2 30 -2 40 0 9 3 -1 5 -23 4 -22 0 -30 -2 -17 -4z"/>
<path d="M2644 6794 c-18 -14 -18 -14 6 -3 31 14 36 19 24 19 -6 0 -19 -7 -30
-16z"/>
<path d="M3163 6794 c-8 -22 8 -66 27 -72 11 -4 10 -1 -3 12 -18 19 -23 51 -8
61 6 3 29 0 53 -6 24 -6 59 -12 78 -14 l35 -4 -35 9 c-19 5 -53 13 -75 19 -55
14 -65 14 -72 -5z"/>
<path d="M2878 6773 c7 -3 16 -2 19 1 4 3 -2 6 -13 5 -11 0 -14 -3 -6 -6z"/>
<path d="M2765 6755 c-16 -8 -23 -14 -15 -14 8 0 29 6 45 14 17 7 23 13 15 13
-8 0 -28 -6 -45 -13z"/>
<path d="M2917 6763 c6 -4 13 -26 16 -48 4 -40 4 -40 3 4 -1 30 -6 46 -16 48
-10 3 -11 2 -3 -4z"/>
<path d="M3548 6763 c18 -2 45 -2 60 0 15 2 0 4 -33 4 -33 0 -45 -2 -27 -4z"/>
<path d="M3688 6749 c53 -11 53 -11 47 -41 -5 -21 -4 -28 4 -24 13 9 15 53 2
60 -5 4 -31 8 -58 11 l-48 4 53 -10z"/>
<path d="M1873 6733 c32 -4 38 -8 35 -26 -2 -12 -14 -27 -28 -34 -15 -8 -19
-13 -9 -13 27 0 51 25 47 51 -3 21 -9 24 -43 25 l-40 1 38 -4z"/>
<path d="M2698 6733 c6 -2 18 -2 25 0 6 3 1 5 -13 5 -14 0 -19 -2 -12 -5z"/>
<path d="M1740 6710 c-11 -8 -7 -9 15 -4 37 8 45 14 19 14 -10 0 -26 -5 -34
-10z"/>
<path d="M3588 6703 c18 -2 45 -2 60 0 15 2 0 4 -33 4 -33 0 -45 -2 -27 -4z"/>
<path d="M3940 6636 c0 -30 5 -48 18 -57 14 -11 15 -11 5 1 -7 8 -13 29 -13
48 l0 34 48 -6 c46 -5 34 2 -30 18 -27 6 -28 5 -28 -38z"/>
<path d="M1598 6663 c6 -2 18 -2 25 0 6 3 1 5 -13 5 -14 0 -19 -2 -12 -5z"/>
<path d="M1813 6653 c9 -2 23 -2 30 0 6 3 -1 5 -18 5 -16 0 -22 -2 -12 -5z"/>
<path d="M1730 6635 c-33 -19 -21 -19 21 0 19 8 27 14 19 14 -8 0 -26 -6 -40
-14z"/>
<path d="M3026 6631 c10 -37 33 -88 33 -71 0 8 -9 33 -20 55 -10 22 -16 29
-13 16z"/>
<path d="M1670 6610 c-8 -5 -10 -10 -5 -10 6 0 17 5 25 10 8 5 11 10 5 10 -5
0 -17 -5 -25 -10z"/>
<path d="M3011 6584 c0 -12 10 -64 24 -115 38 -143 94 -326 94 -309 1 8 -13
60 -29 115 -26 85 -67 242 -83 310 -4 19 -5 19 -6 -1z"/>
<path d="M4103 6563 c9 -2 23 -2 30 0 6 3 -1 5 -18 5 -16 0 -22 -2 -12 -5z"/>
<path d="M3061 6535 c0 -5 6 -30 13 -55 8 -25 15 -36 15 -25 -1 21 -27 98 -28
80z"/>
<path d="M1420 6505 c-25 -13 -40 -24 -35 -24 6 0 30 11 55 24 25 13 41 24 35
24 -5 0 -30 -11 -55 -24z"/>
<path d="M1263 6483 c9 -2 25 -2 35 0 9 3 1 5 -18 5 -19 0 -27 -2 -17 -5z"/>
<path d="M1333 6473 c9 -2 23 -2 30 0 6 3 -1 5 -18 5 -16 0 -22 -2 -12 -5z"/>
<path d="M4961 6429 c-13 -5 -22 -12 -19 -14 3 -3 17 -1 31 4 30 12 35 6 53
-49 7 -19 12 -27 13 -17 2 28 -27 87 -41 86 -7 0 -24 -5 -37 -10z"/>
<path d="M3090 6426 c0 -29 44 -185 51 -180 6 3 42 -13 80 -36 39 -23 73 -39
76 -37 3 3 -29 24 -70 47 -41 22 -80 46 -85 53 -5 7 -17 45 -27 85 -9 39 -19
72 -21 72 -2 0 -4 -2 -4 -4z"/>
<path d="M3783 6417 c-27 -12 -30 -39 -7 -58 20 -16 48 -1 52 28 4 28 -18 43
-45 30z m30 -13 c3 -4 2 -16 -4 -26 -13 -24 -35 -9 -26 16 7 17 19 21 30 10z"/>
<path d="M4954 6366 c6 -19 12 -33 14 -31 7 6 -9 65 -17 65 -5 0 -3 -15 3 -34z"/>
<path d="M5070 6359 c5 -18 12 -34 16 -38 4 -3 4 2 1 12 -4 10 -7 27 -7 38 0
10 -4 19 -9 19 -6 0 -6 -12 -1 -31z"/>
<path d="M5112 6383 c14 -2 31 -10 36 -16 5 -7 28 -95 52 -197 54 -233 58
-250 59 -225 1 38 -98 428 -111 436 -7 5 -24 8 -38 7 -25 -1 -25 -1 2 -5z"/>
<path d="M5277 6329 c7 -7 15 -10 18 -7 3 3 -2 9 -12 12 -14 6 -15 5 -6 -5z"/>
<path d="M5242 6305 c0 -16 2 -22 5 -12 2 9 2 23 0 30 -3 6 -5 -1 -5 -18z"/>
<path d="M4971 6311 c-1 -18 70 -244 74 -239 2 2 -13 60 -35 128 -21 69 -39
119 -39 111z"/>
<path d="M3707 6230 c-5 -47 -11 -101 -16 -120 l-7 -35 -59 88 c-42 63 -61 84
-67 75 -6 -9 -7 -6 -3 9 3 12 1 24 -5 28 -21 13 -24 -5 -6 -43 21 -45 117
-194 122 -189 2 2 -21 41 -51 87 -30 46 -55 88 -55 94 1 27 114 -148 116 -179
4 -74 7 -98 9 -85 10 49 36 310 33 330 -2 14 -7 -13 -11 -60z"/>
<path d="M5301 6284 c0 -11 3 -14 6 -6 3 7 2 16 -1 19 -3 4 -6 -2 -5 -13z"/>
<path d="M5051 6264 c0 -11 3 -14 6 -6 3 7 2 16 -1 19 -3 4 -6 -2 -5 -13z"/>
<path d="M5252 6245 c0 -16 2 -22 5 -12 2 9 2 23 0 30 -3 6 -5 -1 -5 -18z"/>
<path d="M530 6241 c0 -5 7 -14 15 -21 8 -7 15 -9 15 -5 0 4 29 -18 64 -49 68
-60 95 -72 75 -34 -8 14 -14 18 -17 10 -2 -7 -30 12 -71 48 -67 59 -81 68 -81
51z"/>
<path d="M3763 6215 c0 -22 2 -30 4 -17 2 12 2 30 0 40 -3 9 -5 -1 -4 -23z"/>
<path d="M5101 6224 c0 -11 3 -14 6 -6 3 7 2 16 -1 19 -3 4 -6 -2 -5 -13z"/>
<path d="M5071 6194 c0 -11 3 -14 6 -6 3 7 2 16 -1 19 -3 4 -6 -2 -5 -13z"/>
<path d="M5322 6190 c0 -14 2 -19 5 -12 2 6 2 18 0 25 -3 6 -5 1 -5 -13z"/>
<path d="M622 6130 c139 -163 173 -213 103 -151 -35 30 -55 39 -55 23 0 -13
28 -49 83 -105 29 -30 69 -74 89 -98 20 -24 37 -39 38 -34 0 6 -43 56 -95 112
-52 56 -95 104 -95 108 0 4 19 -10 42 -29 42 -36 58 -44 58 -27 0 12 -109 147
-175 216 l-57 60 64 -75z"/>
<path d="M5262 6175 c0 -11 6 -51 13 -90 7 -38 13 -56 14 -40 0 17 -6 57 -13
90 -8 33 -14 51 -14 40z"/>
<path d="M5081 6154 c0 -11 3 -14 6 -6 3 7 2 16 -1 19 -3 4 -6 -2 -5 -13z"/>
<path d="M5333 6125 c0 -22 2 -30 4 -17 2 12 2 30 0 40 -3 9 -5 -1 -4 -23z"/>
<path d="M3773 6070 c0 -41 2 -58 4 -37 2 20 2 54 0 75 -2 20 -4 3 -4 -38z"/>
<path d="M5091 6115 c-1 -11 8 -49 18 -85 25 -85 26 -56 1 35 -10 39 -19 61
-19 50z"/>
<path d="M5420 6097 c13 -7 27 -23 31 -37 l7 -25 1 27 c1 27 -22 48 -51 48 -7
0 -2 -6 12 -13z"/>
<path d="M5141 6074 c0 -11 3 -14 6 -6 3 7 2 16 -1 19 -3 4 -6 -2 -5 -13z"/>
<path d="M2937 6059 c-3 -13 0 -22 10 -26 17 -7 34 14 26 34 -8 20 -30 16 -36
-8z"/>
<path d="M5391 6064 c0 -11 3 -14 6 -6 3 7 2 16 -1 19 -3 4 -6 -2 -5 -13z"/>
<path d="M5342 6050 c0 -14 2 -19 5 -12 2 6 2 18 0 25 -3 6 -5 1 -5 -13z"/>
<path d="M5056 6030 c4 -19 13 -46 21 -60 l14 -25 -7 25 c-4 14 -13 41 -20 60
l-14 35 6 -35z"/>
<path d="M5151 6034 c0 -11 3 -14 6 -6 3 7 2 16 -1 19 -3 4 -6 -2 -5 -13z"/>
<path d="M5402 6020 c0 -14 2 -19 5 -12 2 6 2 18 0 25 -3 6 -5 1 -5 -13z"/>
<path d="M5463 5980 c0 -25 2 -35 4 -22 2 12 2 32 0 45 -2 12 -4 2 -4 -23z"/>
<path d="M5292 5990 c0 -14 2 -19 5 -12 2 6 2 18 0 25 -3 6 -5 1 -5 -13z"/>
<path d="M5352 5985 c0 -16 2 -22 5 -12 2 9 2 23 0 30 -3 6 -5 -1 -5 -18z"/>
<path d="M5412 5970 c0 -14 2 -19 5 -12 2 6 2 18 0 25 -3 6 -5 1 -5 -13z"/>
<path d="M3783 5895 c0 -44 2 -61 4 -37 2 23 2 59 0 80 -2 20 -4 1 -4 -43z"/>
<path d="M5131 5945 c0 -21 36 -137 38 -120 0 6 -8 39 -19 75 -10 36 -19 56
-19 45z"/>
<path d="M5361 5934 c0 -11 3 -14 6 -6 3 7 2 16 -1 19 -3 4 -6 -2 -5 -13z"/>
<path d="M5301 5924 c0 -11 3 -14 6 -6 3 7 2 16 -1 19 -3 4 -6 -2 -5 -13z"/>
<path d="M5092 5925 c0 -5 6 -26 13 -45 7 -19 14 -28 14 -20 0 8 -6 29 -14 45
-7 17 -13 26 -13 20z"/>
<path d="M5261 5910 c0 -8 8 -51 18 -95 11 -44 19 -71 20 -60 0 24 -37 177
-38 155z"/>
<path d="M5422 5880 c0 -19 2 -27 5 -17 2 9 2 25 0 35 -3 9 -5 1 -5 -18z"/>
<path d="M5477 5855 c3 -33 9 -80 14 -105 6 -35 7 -29 3 25 -3 39 -9 86 -14
105 -7 26 -8 20 -3 -25z"/>
<path d="M5191 5884 c0 -11 3 -14 6 -6 3 7 2 16 -1 19 -3 4 -6 -2 -5 -13z"/>
<path d="M5311 5890 c0 -8 6 -37 13 -65 8 -27 15 -43 15 -35 0 8 -6 38 -13 65
-8 28 -15 43 -15 35z"/>
<path d="M5436 5775 c3 -38 10 -88 14 -110 7 -29 7 -21 3 30 -3 39 -9 88 -14
110 -6 29 -7 21 -3 -30z"/>
<path d="M5131 5794 c0 -11 3 -14 6 -6 3 7 2 16 -1 19 -3 4 -6 -2 -5 -13z"/>
<path d="M5171 5794 c0 -11 3 -14 6 -6 3 7 2 16 -1 19 -3 4 -6 -2 -5 -13z"/>
<path d="M5141 5766 c-1 -4 31 -107 70 -227 51 -161 75 -222 90 -229 32 -18
32 10 0 80 -35 75 -40 74 -11 -1 12 -28 19 -57 17 -63 -6 -15 -32 46 -72 173
-44 139 -93 278 -94 267z"/>
<path d="M5186 5740 c4 -19 13 -50 20 -70 l14 -35 -6 35 c-4 19 -13 50 -20 70
l-14 35 6 -35z"/>
<path d="M5342 5740 c0 -14 2 -19 5 -12 2 6 2 18 0 25 -3 6 -5 1 -5 -13z"/>
<path d="M5552 5688 l2 -53 3 48 c4 43 7 48 26 45 13 -2 24 -13 28 -28 l7 -25
1 26 c1 27 -14 39 -50 39 -17 0 -19 -7 -17 -52z"/>
<path d="M5301 5705 c1 -21 27 -98 28 -80 0 6 -6 30 -13 55 -8 25 -15 36 -15
25z"/>
<path d="M5657 5707 c-17 -11 -17 -19 -3 -117 l14 -105 -5 106 c-6 104 -5 107
16 114 13 4 24 5 27 3 11 -12 24 -123 24 -214 l0 -104 -25 0 c-14 0 -25 -4
-25 -10 0 -7 62 -3 65 4 6 11 -16 289 -24 309 -11 29 -36 35 -64 14z"/>
<path d="M5351 5700 c0 -8 6 -37 13 -65 8 -27 15 -43 15 -35 0 8 -6 38 -13 65
-8 28 -15 43 -15 35z"/>
<path d="M5502 5660 c0 -19 2 -27 5 -17 2 9 2 25 0 35 -3 9 -5 1 -5 -18z"/>
<path d="M5623 5600 c0 -30 2 -43 4 -27 2 15 2 39 0 55 -2 15 -4 2 -4 -28z"/>
<path d="M5222 5620 c0 -8 6 -31 13 -50 7 -19 13 -28 13 -20 0 8 -6 31 -13 50
-7 19 -13 28 -13 20z"/>
<path d="M5462 5600 c0 -14 2 -19 5 -12 2 6 2 18 0 25 -3 6 -5 1 -5 -13z"/>
<path d="M5563 5575 c0 -22 2 -30 4 -17 2 12 2 30 0 40 -3 9 -5 -1 -4 -23z"/>
<path d="M5271 5595 c1 -19 18 -51 18 -35 0 8 -4 22 -9 30 -5 8 -9 11 -9 5z"/>
<path d="M5332 5585 c0 -11 4 -31 8 -45 6 -20 8 -21 8 -5 0 11 -4 31 -8 45 -6
20 -8 21 -8 5z"/>
<path d="M5511 5584 c0 -11 3 -14 6 -6 3 7 2 16 -1 19 -3 4 -6 -2 -5 -13z"/>
<path d="M5291 5524 c0 -11 3 -14 6 -6 3 7 2 16 -1 19 -3 4 -6 -2 -5 -13z"/>
<path d="M5471 5520 c0 -34 26 -141 38 -153 12 -12 41 -2 41 15 0 9 -3 9 -10
-2 -16 -26 -34 4 -52 88 -9 42 -17 66 -17 52z"/>
<path d="M5251 5514 c0 -11 3 -14 6 -6 3 7 2 16 -1 19 -3 4 -6 -2 -5 -13z"/>
<path d="M5392 5510 c0 -14 4 -38 8 -55 7 -27 8 -27 8 -5 0 14 -4 39 -8 55 -7
27 -8 27 -8 5z"/>
<path d="M5565 5487 c-4 -23 -5 -58 -3 -77 3 -32 5 -35 37 -35 22 0 36 5 39
15 4 12 2 13 -9 3 -7 -7 -21 -13 -31 -13 -21 0 -21 3 -18 88 2 71 -6 82 -15
19z"/>
<path d="M5522 5500 c0 -14 2 -19 5 -12 2 6 2 18 0 25 -3 6 -5 1 -5 -13z"/>
<path d="M5300 5494 c0 -9 37 -122 55 -166 13 -34 35 -21 34 20 l-2 37 -7 -35
c-7 -40 -7 -41 -49 75 -17 44 -30 75 -31 69z"/>
<path d="M5351 5484 c0 -11 3 -14 6 -6 3 7 2 16 -1 19 -3 4 -6 -2 -5 -13z"/>
<path d="M5441 5484 c0 -11 3 -14 6 -6 3 7 2 16 -1 19 -3 4 -6 -2 -5 -13z"/>
<path d="M5261 5474 c0 -11 3 -14 6 -6 3 7 2 16 -1 19 -3 4 -6 -2 -5 -13z"/>
<path d="M5362 5450 c0 -8 4 -26 8 -40 6 -20 8 -21 8 -5 0 11 -3 29 -8 40 -5
12 -8 14 -8 5z"/>
<path d="M5672 5430 c0 -19 2 -27 5 -17 2 9 2 25 0 35 -3 9 -5 1 -5 -18z"/>
<path d="M5532 5425 c0 -16 2 -22 5 -12 2 9 2 23 0 30 -3 6 -5 -1 -5 -18z"/>
<path d="M5421 5370 c0 -8 4 -22 9 -30 7 -12 12 -12 22 -2 9 9 9 12 -4 12 -9
0 -19 8 -21 18 -3 12 -5 13 -6 2z"/>
</g>
</svg>
