<?xml version="1.0" standalone="no"?>
<!DOCTYPE svg PUBLIC "-//W3C//DTD SVG 20010904//EN"
 "http://www.w3.org/TR/2001/REC-SVG-20010904/DTD/svg10.dtd">
<svg version="1.0" xmlns="http://www.w3.org/2000/svg"
 width="619.000000pt" height="825.000000pt" viewBox="0 0 619.000000 825.000000"
 preserveAspectRatio="xMidYMid meet">

<g transform="translate(0.000000,825.000000) scale(0.100000,-0.100000)"
fill="#000000" stroke="none">
<path d="M290 7008 c0 -962 3 -1245 13 -1256 9 -12 9 -16 0 -19 -15 -5 -18
-53 -3 -53 5 0 7 7 4 15 -4 8 -1 22 6 30 6 8 9 19 5 25 -4 6 -8 37 -10 68 l-4
57 19 -25 c23 -29 35 -83 24 -102 -13 -20 -13 -38 -1 -35 7 1 13 -13 15 -31 2
-23 -1 -34 -14 -39 -16 -6 -16 -7 2 -14 17 -7 17 -8 2 -8 -13 -1 -18 -9 -18
-31 0 -22 5 -30 18 -30 13 0 14 -2 3 -9 -7 -5 -10 -14 -7 -20 4 -6 0 -14 -8
-17 -26 -10 -18 -27 9 -21 33 6 28 -15 -6 -24 l-24 -7 25 -2 c14 -1 19 -4 12
-7 -10 -4 -10 -8 -1 -19 9 -11 8 -18 -2 -31 -11 -13 -11 -17 -1 -20 6 -3 12
-18 12 -35 0 -24 3 -29 17 -24 16 6 16 5 0 -12 -16 -18 -16 -20 -2 -26 9 -3
13 -10 10 -16 -3 -5 -2 -10 4 -10 13 0 7 -33 -8 -38 -9 -3 -9 -7 -1 -17 8 -10
8 -19 0 -35 -7 -14 -8 -26 -3 -31 13 -13 3 -70 -11 -62 -6 3 -6 0 1 -8 7 -7
13 -23 13 -36 0 -13 7 -26 15 -29 8 -4 15 -12 15 -20 0 -8 -6 -11 -17 -7 -15
6 -15 5 -2 -15 9 -12 28 -31 44 -43 l28 -23 18 23 c18 22 24 17 20 -18 -2 -8
2 -10 10 -5 8 4 10 3 5 -5 -6 -9 -11 -9 -22 0 -9 7 -14 8 -13 3 2 -5 -5 -24
-14 -42 -15 -28 -21 -31 -37 -22 -24 13 -26 7 -4 -14 8 -9 11 -16 5 -16 -5 0
-13 5 -16 10 -3 6 -11 10 -16 10 -6 0 -7 -6 -2 -12 4 -7 8 -15 9 -18 4 -23 19
-40 32 -38 9 2 16 -5 17 -19 1 -13 -2 -23 -7 -23 -4 0 -8 5 -8 10 0 6 -5 10
-11 10 -5 0 -7 -5 -3 -11 4 -7 -1 -7 -16 1 -12 6 -24 9 -27 6 -10 -9 27 -38
42 -32 17 6 18 0 5 -29 -6 -15 -9 -16 -9 -4 -1 9 -7 16 -15 16 -8 0 -14 -9
-13 -19 1 -11 9 -18 20 -18 14 0 18 -5 14 -20 -3 -14 1 -24 15 -31 17 -9 18
-13 7 -20 -11 -7 -12 -12 -2 -28 11 -17 9 -19 -13 -16 -20 2 -22 0 -13 -12 10
-11 8 -12 -6 -7 -13 5 -16 3 -13 -7 3 -8 10 -13 16 -12 7 2 9 -5 5 -15 -5 -14
-3 -15 8 -4 7 6 22 12 33 11 20 0 20 -1 2 -8 -14 -5 -16 -10 -7 -15 6 -4 18
-2 26 4 8 6 19 9 25 5 11 -7 10 -64 -2 -71 -4 -3 -8 -13 -8 -22 0 -13 2 -14 9
-4 7 11 9 10 14 -3 4 -9 3 -13 -3 -10 -6 3 -10 1 -10 -5 0 -6 -5 -8 -12 -4 -9
5 -8 2 1 -9 12 -15 12 -17 -1 -12 -9 4 -15 0 -15 -10 0 -9 6 -14 13 -11 8 3
16 1 19 -4 4 -6 0 -10 -8 -10 -8 0 -17 -9 -20 -20 -3 -11 -11 -19 -19 -18 -8
2 -14 -9 -16 -30 -3 -29 -1 -33 16 -28 12 4 24 0 33 -11 9 -11 10 -14 2 -9 -7
4 -13 3 -13 -3 0 -5 10 -12 22 -14 22 -4 22 -4 -1 -6 -23 -1 -23 -2 -7 -20 20
-22 19 -98 -1 -94 -11 3 -18 -16 -14 -39 0 -5 -5 -7 -12 -5 -6 1 -11 -6 -9
-15 2 -10 -2 -18 -8 -18 -14 0 -13 23 2 38 8 8 8 12 1 12 -13 0 -25 -26 -27
-57 -1 -13 4 -23 12 -23 9 0 11 -7 7 -22 -5 -18 -4 -20 4 -8 6 8 11 26 11 38
0 15 5 22 13 19 6 -2 11 -13 11 -25 -1 -12 3 -19 7 -16 5 3 7 9 4 14 -8 13 9
20 25 9 12 -7 12 -9 1 -9 -10 0 -12 -9 -7 -34 7 -37 -1 -69 -15 -60 -5 3 -9 0
-9 -5 0 -6 5 -11 10 -11 6 0 10 -7 10 -15 0 -8 -5 -15 -11 -15 -6 0 -9 -12 -7
-27 2 -18 8 -27 17 -25 11 2 13 -9 8 -58 -3 -33 -1 -62 4 -65 4 -3 3 -17 -3
-30 -6 -13 -15 -22 -19 -19 -14 8 -11 -9 5 -31 7 -11 13 -31 12 -45 -1 -14 1
-44 5 -68 3 -23 2 -45 -2 -47 -4 -3 -4 -19 1 -35 6 -20 5 -30 -2 -30 -6 0 -8
-3 -5 -6 4 -4 -3 -16 -16 -27 -21 -18 -21 -19 -2 -13 17 5 21 1 23 -19 1 -19
-2 -23 -16 -19 -12 4 -10 0 6 -13 18 -15 20 -21 10 -31 -6 -6 -8 -12 -4 -12 5
0 -2 -9 -15 -20 l-24 -20 23 -6 c12 -3 22 -13 22 -21 0 -8 -4 -11 -10 -8 -8 5
-15 -22 -11 -47 0 -4 -6 -5 -14 -2 -8 4 -15 10 -15 16 0 5 6 6 13 2 9 -5 9 -4
0 6 -6 7 -9 19 -6 26 3 8 0 14 -6 14 -6 0 -10 6 -8 13 1 7 -10 13 -27 15 -25
3 -28 1 -23 -17 2 -11 0 -22 -7 -24 -6 -3 -12 -18 -13 -33 -1 -16 1 -23 4 -16
8 19 22 14 16 -6 -3 -14 -11 -18 -31 -14 -15 3 -30 9 -33 15 -4 5 -9 5 -13 -2
-4 -6 -1 -14 8 -17 8 -3 13 -11 10 -18 -6 -15 26 -17 44 -3 9 7 11 6 6 -7 -6
-15 -18 -20 -38 -17 -5 1 -6 -5 -2 -14 3 -9 6 -19 6 -21 0 -3 5 -2 12 2 7 5 8
3 2 -7 -5 -8 -9 -17 -9 -21 0 -3 -3 -9 -7 -13 -3 -4 -5 1 -3 12 3 21 -35 94
-46 88 -4 -3 -5 -14 -2 -25 3 -11 2 -28 -2 -37 -3 -10 -6 -20 -5 -22 1 -2 -4
-7 -10 -11 -17 -11 -3 -31 16 -23 8 3 14 15 12 26 -2 11 2 22 7 24 6 1 11 -17
12 -43 1 -37 -1 -44 -13 -40 -8 3 -13 2 -10 -3 3 -5 -2 -15 -11 -22 -12 -10
-14 -10 -9 -1 4 6 3 12 -2 12 -5 0 -12 -14 -14 -30 -5 -30 8 -43 14 -15 2 10
7 6 15 -11 10 -22 10 -25 -3 -20 -8 3 -17 0 -19 -7 -2 -6 -6 -128 -9 -271 l-5
-258 22 6 c12 3 25 6 28 6 4 0 17 24 29 53 46 108 67 123 232 162 57 14 128
32 158 40 93 25 545 135 553 135 19 0 3 -36 -31 -70 l-37 -37 35 4 c24 4 40 0
48 -10 10 -12 7 -17 -20 -31 -34 -17 -55 -29 -98 -57 -57 -37 -193 -100 -320
-147 -189 -71 -221 -82 -250 -82 -14 0 -52 -9 -84 -20 -72 -24 -113 -25 -155
-4 -31 15 -33 15 -66 -11 -19 -14 -35 -34 -35 -43 0 -9 -2 -100 -5 -202 -2
-102 -5 -287 -6 -413 -1 -131 -6 -227 -12 -227 -5 0 -7 30 -4 70 3 47 1 70 -7
73 -8 3 -8 8 0 17 8 8 9 24 2 53 -5 22 -8 50 -7 61 1 12 0 64 -1 116 -2 89 -3
92 -11 45 -5 -27 -10 -92 -12 -142 -2 -87 -7 -107 -22 -83 -3 5 -12 7 -20 4
-8 -4 -12 -10 -9 -15 3 -5 -1 -9 -8 -9 -7 -1 -2 -7 11 -14 23 -13 23 -13 2
-19 -16 -4 -22 0 -27 18 -3 13 -3 28 0 34 4 5 2 40 -4 78 -10 74 -19 245 -19
417 -1 60 -3 107 -5 105 -4 -4 -16 -390 -18 -567 0 -39 -5 -72 -9 -72 -10 0
-12 13 -9 48 1 12 -3 22 -9 22 -6 0 -11 5 -11 11 0 5 4 8 8 5 4 -2 8 4 8 15 0
10 -4 19 -8 19 -4 0 -8 7 -8 16 0 8 5 12 10 9 6 -3 10 -1 10 4 0 6 -4 11 -10
11 -13 0 -13 36 1 62 8 16 8 19 -1 13 -9 -5 -11 3 -10 31 7 101 -1 468 -9 454
-8 -13 -17 -1576 -12 -2042 l1 -128 25 0 c14 0 40 6 59 14 27 11 36 11 57 0
20 -11 248 -13 1276 -14 l1251 0 16 42 16 43 -5 -43 -5 -42 180 0 c172 0 180
1 180 19 0 11 -5 23 -10 26 -7 4 -6 13 1 26 6 11 8 27 5 35 -3 8 1 14 10 14 9
0 14 -8 13 -17 -1 -10 7 -37 17 -60 l19 -43 517 0 518 0 16 25 c21 32 38 32
32 0 l-5 -25 234 0 235 0 11 30 c6 16 14 30 18 30 3 0 45 -14 92 -30 l87 -30
394 0 c255 0 397 4 401 10 9 15 -16 35 -48 37 -31 2 -70 34 -49 41 20 6 13 20
-8 15 -11 -3 -20 -8 -20 -12 0 -4 -6 -15 -13 -26 -13 -17 -14 -17 -12 1 0 11
4 25 9 32 11 18 -2 15 -25 -7 -12 -11 -18 -24 -14 -30 4 -7 -4 -11 -19 -11
-17 0 -26 6 -26 16 0 14 -2 14 -22 0 -15 -10 -26 -12 -39 -6 -12 7 -19 6 -23
-3 -3 -8 -8 -7 -16 5 -6 9 -17 15 -24 12 -9 -4 -16 3 -19 18 l-4 23 -2 -23 c0
-13 -6 -20 -11 -17 -6 3 -7 17 -4 31 8 30 -4 32 -16 2 l-9 -23 0 23 c-1 18 -7
22 -32 22 -25 0 -30 -3 -25 -16 5 -14 4 -15 -8 -5 -11 9 -15 9 -19 -1 -3 -7
-6 1 -7 17 -1 29 -2 29 -11 6 -6 -14 -15 -21 -23 -18 -8 3 -16 1 -18 -5 -2 -6
-16 1 -30 15 -23 23 -27 24 -33 9 -5 -14 -7 -14 -15 -2 -6 8 -10 11 -10 6 0
-5 -6 -4 -12 1 -7 5 -26 10 -42 11 -17 1 -33 8 -38 15 -6 9 -8 9 -8 0 0 -16
-11 -16 -47 -1 -15 6 -31 11 -35 10 -4 -1 -5 5 -2 13 4 8 -1 17 -10 21 -9 3
-16 17 -16 31 0 23 2 24 17 12 16 -13 16 -12 1 10 -12 17 -14 30 -8 47 9 22 6
28 -13 25 -4 0 -7 6 -7 15 0 8 4 13 9 10 4 -3 5 13 1 37 -5 23 -5 44 -1 47 5
3 0 14 -10 24 -11 12 -19 14 -19 7 0 -7 -4 -9 -10 -6 -20 12 -9 25 21 25 24 0
30 -4 25 -15 -3 -8 -1 -15 3 -15 16 0 21 31 7 36 -16 6 -14 40 3 36 6 -1 11 3
11 9 0 6 -9 9 -20 6 -13 -3 -20 0 -20 10 0 10 6 12 20 8 15 -5 18 -3 14 9 -3
9 -1 16 6 16 6 0 9 4 6 9 -9 14 4 41 20 41 17 0 18 17 2 23 -7 2 -18 -3 -23
-10 -9 -12 -11 -11 -11 6 0 11 4 17 8 15 4 -3 8 2 8 10 0 13 4 12 20 -4 29
-29 50 -26 51 8 1 16 3 20 6 10 2 -10 11 -18 20 -18 13 0 13 -3 2 -17 -12 -16
-11 -16 7 0 15 14 16 19 6 26 -11 6 -10 10 4 15 11 4 20 2 22 -3 2 -6 13 -1
23 11 l20 23 -11 -23 c-10 -20 -4 -28 16 -19 3 1 10 -6 15 -16 10 -17 29 -15
29 4 0 6 -5 7 -12 3 -7 -4 -8 -3 -4 5 4 6 20 10 36 9 22 -2 27 -5 18 -15 -8
-10 -6 -13 10 -13 24 0 37 -15 22 -25 -5 -3 -10 -12 -10 -18 0 -8 3 -7 9 2 5
7 13 11 19 7 6 -3 13 0 15 6 3 8 6 6 6 -4 1 -10 -5 -18 -13 -18 -8 0 -18 -5
-21 -10 -3 -6 2 -9 12 -7 23 4 63 29 63 40 0 4 -5 5 -12 1 -7 -4 -8 -3 -4 5 6
9 11 9 23 0 12 -10 16 -10 24 2 7 10 9 -4 7 -44 -2 -31 0 -57 5 -57 4 0 7 5 7
10 0 6 10 10 21 10 16 0 20 -5 17 -18 -3 -10 0 -22 6 -28 8 -7 11 3 11 38 0
34 -4 47 -12 43 -8 -2 -13 4 -13 15 0 11 5 20 10 20 6 0 10 4 10 9 0 6 -9 8
-20 6 -23 -4 -26 5 -8 23 7 7 10 12 8 13 -3 0 -13 2 -23 4 -9 2 -15 -1 -11 -6
3 -5 1 -9 -4 -9 -13 0 -22 39 -11 46 12 7 11 24 -2 24 -5 0 -8 -4 -5 -9 3 -5
-1 -12 -10 -15 -8 -3 -13 -10 -10 -14 3 -5 -6 -7 -19 -4 -32 6 -42 21 -12 18
16 -2 23 2 23 15 0 13 -5 15 -23 8 -17 -6 -23 -5 -23 6 0 7 4 17 10 20 6 3 10
13 10 21 0 12 -4 13 -22 3 -16 -9 -23 -9 -26 0 -5 14 -32 15 -32 1 0 -5 -5
-10 -10 -10 -6 0 -8 11 -4 26 6 24 5 25 -16 14 -12 -6 -24 -9 -28 -6 -3 3 -1
6 5 6 5 0 7 14 5 32 -5 30 -6 30 -19 12 -13 -18 -14 -17 -7 9 6 26 5 28 -22
23 -28 -5 -28 -5 -9 10 20 16 20 16 -3 9 -16 -5 -22 -2 -22 9 0 9 -9 16 -20
16 -14 0 -20 7 -20 21 0 19 -2 20 -17 8 -9 -8 -14 -9 -10 -3 8 13 -19 27 -34
19 -5 -4 -6 0 -3 8 3 8 -2 20 -11 27 -8 7 -15 9 -15 5 0 -8 -25 19 -50 54 -8
12 -20 21 -27 21 -6 0 -14 8 -18 18 -3 11 -17 24 -30 30 -14 6 -25 16 -25 21
0 6 -7 7 -17 4 -11 -4 -14 -3 -9 5 4 7 1 15 -8 18 -9 3 -16 14 -16 23 -1 14
-3 13 -15 -3 -12 -16 -15 -17 -15 -4 0 14 -42 34 -62 30 -4 -1 -5 4 -2 12 4
11 -26 28 -45 25 -2 0 -7 4 -10 9 -3 6 -13 12 -21 14 -8 2 -25 13 -38 26 -12
13 -27 20 -32 17 -6 -4 -10 -3 -9 2 3 17 -1 33 -8 31 -5 -2 -9 2 -11 7 -2 6
-10 18 -19 27 -8 10 -13 24 -10 32 4 9 -1 17 -14 21 -20 7 -27 25 -9 25 6 0
10 7 10 15 0 8 -7 15 -16 15 -8 0 -12 5 -9 10 4 6 3 10 -2 9 -15 -4 -43 13
-37 22 3 5 -2 9 -10 9 -8 0 -20 9 -26 20 -6 11 -15 18 -20 15 -6 -3 -7 0 -5 7
3 8 -8 21 -25 31 -21 13 -30 26 -30 43 0 14 -4 23 -9 19 -5 -3 -13 0 -16 5 -4
6 -18 15 -31 20 -13 5 -26 21 -30 35 -3 14 -10 25 -16 25 -5 0 -6 -4 -3 -10 3
-5 2 -10 -3 -10 -6 0 -15 15 -22 33 -7 17 -14 26 -17 20 -6 -17 -26 -17 -21
-1 4 12 -24 47 -39 49 -5 1 -7 5 -5 11 1 5 -2 7 -8 3 -5 -3 -18 -1 -27 4 -11
6 -13 11 -5 11 7 0 10 5 7 11 -4 6 -9 8 -12 5 -10 -10 -44 15 -37 26 4 7 3 8
-4 4 -7 -4 -12 -2 -12 4 0 6 -4 9 -9 6 -4 -3 -17 4 -27 15 -10 11 -27 27 -36
37 -10 9 -18 22 -18 28 0 7 -7 14 -15 18 -8 3 -14 11 -13 18 2 7 -1 12 -7 13
-28 2 -56 27 -50 45 5 15 2 17 -17 13 -17 -3 -19 -2 -9 5 9 7 10 12 2 16 -6 4
-11 16 -11 26 0 10 -6 20 -12 22 -7 3 -11 18 -10 36 2 25 -2 32 -15 32 -16 1
-16 2 1 15 11 8 15 15 8 15 -7 0 -9 10 -5 30 3 19 1 30 -5 30 -6 0 -9 7 -5 16
5 13 7 13 14 2 6 -9 9 -9 9 -1 0 6 -5 15 -11 18 -5 4 -8 12 -6 18 2 6 -2 36
-9 66 -7 30 -11 57 -9 61 2 4 7 30 10 58 4 39 3 52 -7 52 -8 0 -9 3 -3 8 6 4
10 59 11 127 0 66 4 134 8 150 6 22 5 26 -3 15 -20 -28 -11 2 11 38 l21 35
191 -6 c155 -5 582 -38 796 -62 94 -10 457 -46 515 -50 33 -3 80 -7 105 -10
25 -3 72 -8 105 -10 33 -3 70 -7 82 -10 12 -3 55 -8 95 -10 40 -3 91 -8 113
-11 56 -7 332 -35 382 -39 37 -2 43 0 52 24 9 24 16 284 26 981 3 206 4 868 4
1630 0 146 -3 177 -16 192 -17 19 -151 63 -161 54 -3 -4 -9 -469 -14 -1034 -5
-565 -11 -1195 -14 -1401 l-6 -374 -97 7 c-53 4 -168 13 -256 21 -88 8 -223
19 -300 25 -77 5 -210 16 -295 25 -85 8 -285 26 -445 40 -773 67 -1210 111
-1233 124 -12 7 1 8 43 4 71 -6 69 1 -6 21 l-54 15 50 1 50 2 -45 13 -45 13
40 2 c35 2 37 3 15 10 l-25 8 25 2 c43 4 -48 19 -117 19 -52 1 -64 4 -77 23
-13 18 -16 19 -16 5 0 -13 -9 -17 -40 -17 -22 0 -40 4 -40 10 0 5 -8 7 -17 3
-16 -6 -16 -4 1 15 22 25 28 28 20 8 -3 -8 -1 -17 5 -21 6 -3 11 -1 11 6 0 8
4 8 15 -1 12 -10 15 -10 15 3 0 11 9 15 33 13 25 -1 33 3 34 16 2 21 -13 24
-20 6 -4 -10 -6 -10 -6 -1 -1 6 4 15 9 18 8 5 7 11 -1 21 -9 11 -8 14 2 14 8
0 5 6 -7 15 -11 8 -14 15 -6 15 6 0 12 5 12 11 0 5 -5 7 -10 4 -6 -3 -10 -1
-10 4 0 6 7 11 15 11 8 0 15 6 15 14 0 9 -7 12 -19 9 -10 -3 -22 0 -25 6 -6
10 19 16 49 12 6 -1 -1 8 -14 19 -31 27 -61 27 -54 0 4 -14 0 -20 -13 -20 -9
0 -14 -3 -10 -7 4 -4 14 -8 22 -8 7 0 14 -3 14 -7 0 -5 -3 -7 -6 -5 -5 2 -28
-31 -29 -43 0 -3 -6 -14 -12 -25 -9 -16 -14 -18 -24 -7 -11 10 -11 12 0 12 7
0 9 4 6 10 -3 5 0 7 8 4 8 -3 14 2 14 11 0 8 -9 15 -21 15 -19 1 -19 2 -3 11
9 5 22 7 27 4 18 -11 10 4 -15 29 -14 14 -25 31 -25 37 0 7 3 10 6 6 3 -3 23
1 45 8 21 8 40 11 41 7 1 -4 5 88 8 203 3 116 2 214 -3 220 -6 8 -13 -308 -7
-372 1 -19 -4 -23 -25 -23 -20 0 -26 -4 -21 -15 4 -11 -1 -14 -18 -13 -16 2
-22 7 -18 16 4 11 6 11 13 0 7 -11 9 -11 9 0 0 7 -7 20 -15 28 -9 10 -15 36
-16 72 -1 31 -3 129 -4 216 -2 140 -5 161 -21 173 -15 11 -16 13 -2 13 12 0
17 9 16 28 0 15 3 44 6 65 3 21 2 36 -2 33 -4 -2 -8 4 -8 14 0 10 4 16 8 14 4
-3 8 2 8 10 0 9 -4 16 -10 16 -6 0 -6 9 0 25 7 19 5 27 -8 37 -21 16 -27 39
-7 32 10 -4 13 0 10 15 -2 12 0 21 5 21 5 0 8 9 7 20 -1 14 -8 19 -24 18 -24
-2 -33 -28 -10 -28 8 0 14 -7 14 -15 0 -8 -6 -15 -14 -15 -7 0 -13 -10 -14
-22 0 -13 -3 -17 -6 -10 -2 6 -11 12 -19 12 -8 0 -14 5 -14 10 0 21 -2 25 -18
43 -24 27 -26 173 -2 190 9 6 16 20 14 30 -1 9 2 17 7 17 5 0 9 -4 9 -8 0 -12
42 -30 58 -25 21 8 13 26 -9 20 -24 -6 -60 20 -52 38 2 7 1 15 -4 18 -5 3 -9
-2 -10 -11 -2 -29 -12 -65 -22 -75 -13 -13 -14 172 0 189 8 10 8 14 0 14 -15
0 -14 87 2 94 9 5 9 7 -1 12 -10 5 -10 9 -1 20 7 8 7 14 1 14 -14 0 -3 183 12
192 8 6 8 8 -1 8 -16 0 -18 146 -3 155 6 3 10 1 10 -5 0 -6 5 -8 10 -5 6 4 8
11 5 16 -4 5 -1 9 5 9 7 0 9 -8 5 -20 -5 -14 -2 -20 9 -20 9 0 16 -4 16 -9 0
-5 10 -11 21 -14 16 -4 19 -3 11 5 -6 6 -7 19 -2 32 4 12 7 39 6 60 -2 44 11
54 81 62 26 3 73 12 103 19 30 8 132 21 225 30 196 18 248 26 125 19 -184 -9
-314 -13 -297 -8 23 7 22 24 -1 24 -41 0 -31 16 20 32 45 14 49 16 23 18 -60
3 11 19 178 40 89 11 167 22 173 24 6 2 9 18 6 36 -3 21 -9 30 -18 26 -8 -3
-14 -1 -14 4 0 15 38 12 43 -2 2 -7 3 5 3 27 -1 22 -5 46 -9 53 -5 6 -5 17 -1
24 14 22 13 57 -1 52 -18 -7 -29 14 -15 31 12 15 10 56 -3 66 -5 3 1 23 13 44
16 29 18 40 9 46 -10 6 -10 11 1 23 11 14 10 16 -3 10 -12 -4 -16 1 -15 24 1
16 -2 34 -6 40 -4 6 3 16 14 22 22 12 27 36 8 43 -10 4 -10 6 0 6 7 1 10 6 7
11 -3 6 -2 10 3 10 6 0 8 10 5 21 -6 21 -6 21 -20 -2 l-14 -24 7 25 c4 14 8
34 8 45 1 11 6 23 11 27 6 5 5 8 -3 8 -10 0 -10 4 2 16 16 16 22 45 9 43 -26
-4 -35 3 -15 11 17 7 22 16 20 40 -1 16 -6 30 -10 30 -13 0 -9 18 9 35 10 11
13 19 6 23 -16 10 -11 142 4 142 7 0 12 11 11 25 -1 14 -6 25 -11 25 -4 0 -5
6 0 13 4 6 8 17 8 22 1 6 6 9 13 8 7 -2 12 2 12 7 0 6 -8 10 -17 10 -17 1 -17
1 0 11 9 6 15 14 12 20 -4 5 -3 9 2 9 4 0 9 12 10 28 1 15 4 42 6 60 4 29 -5
43 -16 25 -2 -5 -2 -2 0 5 1 8 3 23 3 35 0 16 3 18 12 9 20 -20 36 -14 40 15
2 19 9 27 25 28 30 2 43 15 16 15 -12 0 -24 8 -28 18 -5 14 -4 15 6 5 7 -7 18
-13 24 -13 5 0 3 5 -5 10 -11 7 -12 12 -3 21 7 7 9 19 3 34 -7 19 -6 22 10 18
15 -4 18 -1 13 16 -5 18 -3 19 20 8 14 -6 23 -15 21 -19 -3 -4 2 -5 10 -2 8 3
16 15 18 27 2 12 9 21 15 20 8 -2 9 6 3 28 -8 26 -7 29 6 18 12 -10 13 -9 8 5
-4 10 0 18 11 22 9 4 14 13 11 20 -3 8 0 11 9 7 8 -3 12 -9 9 -14 -3 -5 3 -9
13 -9 15 0 16 -2 3 -11 -13 -9 -13 -10 0 -6 8 2 17 17 18 33 2 16 10 33 18 37
13 7 13 11 2 25 -12 15 -11 16 5 3 17 -13 17 -15 0 -34 -10 -11 -13 -17 -6
-14 6 4 14 1 17 -5 3 -9 5 -8 4 2 -4 29 23 57 51 54 14 -2 18 -1 8 2 -9 3 -15
10 -12 15 4 5 0 9 -7 10 -7 0 -3 4 10 9 12 5 29 7 37 4 19 -8 19 3 1 22 -11
11 -16 11 -19 1 -3 -6 -4 -2 -4 11 1 26 12 29 21 6 3 -9 12 -14 19 -11 15 6
26 0 46 -25 11 -14 11 -21 1 -33 -6 -8 -10 -20 -7 -27 3 -8 6 -6 6 5 1 10 5
15 11 12 14 -9 13 28 -1 42 -9 9 -7 16 5 29 21 21 34 10 15 -13 -11 -14 -11
-15 0 -9 10 7 12 4 6 -13 -3 -11 -1 -29 5 -38 11 -17 11 -17 6 1 -5 13 -2 17
8 13 11 -5 13 0 6 23 -6 21 -5 30 6 34 9 3 13 -1 11 -14 -1 -10 3 -19 8 -19 6
0 10 9 11 22 2 42 4 47 19 47 10 0 13 -10 10 -37 -2 -21 -1 -32 2 -25 4 10 8
10 21 0 13 -11 15 -10 9 4 -4 12 -2 15 8 12 10 -4 13 0 10 15 -2 13 1 18 9 15
8 -3 16 2 20 11 3 10 11 13 18 9 10 -6 11 -4 1 7 -18 18 -16 30 3 22 9 -3 20
0 25 8 6 9 9 10 9 2 0 -6 -4 -15 -10 -18 -14 -8 -13 -25 2 -25 6 0 9 3 5 6 -3
3 -1 12 6 19 9 10 14 9 25 -4 10 -14 12 -12 7 14 l-5 30 14 -29 14 -30 -2 47
c-1 47 -16 74 -35 63 -16 -10 -14 -26 2 -20 8 3 14 -1 14 -9 0 -9 -7 -12 -20
-9 -15 4 -18 2 -12 -8 5 -9 4 -11 -4 -6 -6 4 -11 13 -10 19 4 34 -17 43 -51
22 -6 -3 -7 1 -4 9 3 9 10 14 14 11 5 -3 11 7 13 22 l4 28 2 -29 c1 -24 3 -27
16 -16 8 7 16 22 16 34 1 17 2 17 6 4 2 -10 11 -18 19 -18 8 0 14 -6 14 -12 0
-9 4 -8 10 2 5 8 10 13 11 10 0 -3 3 -14 5 -25 3 -11 6 -32 6 -46 1 -14 7 -26
15 -26 9 0 10 4 1 14 -6 7 -8 16 -5 20 4 3 2 14 -4 24 -6 12 -6 19 0 19 5 0
11 -5 13 -12 3 -8 7 -6 11 5 3 9 3 16 -1 15 -4 -1 -18 4 -32 12 -14 7 -27 12
-30 10 -3 -2 -7 5 -8 14 -3 13 0 16 10 11 7 -3 4 1 -7 11 -17 14 -17 16 -2 11
14 -5 16 -2 11 21 -3 15 -8 33 -10 41 -4 11 -2 11 10 2 8 -7 13 -18 10 -25 -3
-8 2 -20 10 -29 9 -8 12 -17 6 -19 -5 -2 2 -8 15 -14 23 -11 24 -11 14 8 -8
15 -8 22 1 28 9 5 9 9 1 14 -8 5 -7 16 4 36 19 37 19 40 -5 35 -21 -4 -28 11
-9 17 8 3 6 15 -5 38 l-18 35 26 -30 c19 -23 25 -26 26 -13 0 12 5 15 15 11
17 -6 15 -28 -3 -28 -18 0 -21 -9 -6 -23 8 -7 14 -8 14 -2 0 5 5 10 10 10 6 0
10 -8 10 -17 0 -23 15 -6 17 20 0 12 4 33 8 47 l6 25 -15 -25 c-10 -16 -15
-19 -16 -10 0 8 -3 26 -6 40 -4 20 -3 22 5 10 18 -25 13 6 -6 39 -18 31 -40
43 -29 16 3 -8 1 -15 -4 -15 -6 0 -10 4 -10 9 0 5 -3 18 -6 28 -5 15 -4 15 5
3 7 -10 11 -11 11 -2 0 8 8 10 24 6 16 -4 25 -1 29 10 5 14 3 15 -13 6 -15 -8
-22 -5 -38 15 -11 14 -23 21 -26 16 -4 -5 2 -14 11 -20 10 -6 13 -11 8 -11 -6
0 -16 5 -23 12 -7 7 -12 8 -12 2 0 -6 -7 -11 -16 -11 -15 0 -15 2 1 13 9 7 15
19 12 26 -4 10 -6 10 -6 1 -1 -7 -6 -13 -12 -13 -6 0 -8 10 -5 23 3 12 3 16 0
10 -9 -20 -27 -15 -19 5 5 13 4 14 -6 5 -9 -10 -10 -15 0 -27 7 -9 8 -16 2
-20 -5 -4 -13 3 -16 15 -6 17 -9 19 -17 8 -7 -10 -7 -7 -3 9 9 31 -13 92 -33
92 -13 0 -13 2 3 13 14 11 15 16 5 22 -7 5 -11 4 -8 -1 3 -5 -3 -17 -14 -26
-17 -17 -18 -16 -19 35 -1 28 -3 44 -6 34 -2 -9 -9 -14 -14 -11 -6 3 -5 -3 3
-15 10 -17 10 -23 -1 -33 -8 -8 -11 -8 -8 -2 4 7 0 14 -8 18 -8 3 -15 12 -15
19 0 8 -6 20 -14 26 -16 13 -27 61 -15 61 5 0 9 7 9 16 0 14 -1 14 -16 0 -9
-10 -13 -24 -9 -36 5 -15 3 -18 -9 -14 -10 4 -14 0 -12 -13 2 -10 1 -12 -1 -4
-4 12 -6 12 -15 0 -7 -10 -8 -8 -3 8 4 15 -1 29 -14 42 -13 13 -16 21 -8 21 9
0 8 3 -2 9 -11 7 -11 9 0 13 8 3 4 7 -10 11 -19 5 -22 2 -18 -13 4 -16 2 -17
-14 -7 -13 8 -15 13 -6 19 7 4 -873 8 -1956 8 l-1967 0 0 -1242z m4065 1113
c3 -5 1 -12 -5 -16 -5 -3 -10 1 -10 9 0 18 6 21 15 7z m248 -346 c-3 -9 -8
-14 -10 -11 -3 3 -2 9 2 15 9 16 15 13 8 -4z m-31 -113 c3 -9 2 -26 -2 -37 -6
-15 -8 -10 -8 18 0 40 3 47 10 19z m-92 -76 c0 -2 -7 -6 -15 -10 -8 -3 -15 -1
-15 4 0 6 7 10 15 10 8 0 15 -2 15 -4z m-46 -25 c3 -5 -1 -11 -9 -15 -8 -3
-17 0 -21 6 -4 7 -3 8 4 4 7 -4 12 -2 12 3 0 13 7 14 14 2z m-57 -26 c0 -8 -4
-12 -9 -9 -5 3 -6 10 -3 15 9 13 12 11 12 -6z m13 -60 c0 -8 -4 -15 -10 -15
-5 0 -7 7 -4 15 4 8 8 15 10 15 2 0 4 -7 4 -15z m-14 -106 c-9 -13 -16 -18
-16 -12 0 7 5 15 11 18 6 4 8 14 4 24 -5 12 -3 13 6 4 9 -9 8 -17 -5 -34z
m-436 -219 c0 -5 -5 -10 -11 -10 -5 0 -7 5 -4 10 3 6 8 10 11 10 2 0 4 -4 4
-10z m-240 -610 c0 -5 -4 -10 -10 -10 -5 0 -10 5 -10 10 0 6 5 10 10 10 6 0
10 -4 10 -10z m-2235 -310 c3 -5 1 -10 -4 -10 -6 0 -11 5 -11 10 0 6 2 10 4
10 3 0 8 -4 11 -10z m-221 -415 c3 -220 6 -452 6 -516 l0 -116 78 -17 c42 -10
102 -25 132 -33 30 -8 90 -24 134 -34 93 -23 97 -25 89 -46 -6 -14 -8 -14 -21
3 -13 18 -14 17 -10 -13 3 -20 0 -33 -6 -33 -6 0 -4 -5 4 -10 10 -6 11 -10 3
-10 -21 0 -15 -17 8 -23 12 -3 18 -10 15 -16 -4 -5 -2 -12 3 -15 14 -9 0 -48
-15 -42 -8 3 -13 0 -11 -7 4 -22 20 -25 36 -8 9 9 12 11 8 4 -5 -6 -5 -18 -1
-24 4 -8 3 -9 -5 -5 -8 5 -10 0 -7 -18 5 -28 -3 -33 -22 -14 -9 9 -11 7 -7
-10 2 -15 0 -19 -11 -15 -7 3 -11 10 -7 17 4 6 -1 5 -10 -3 -12 -9 -17 -10
-17 -2 0 7 -4 10 -9 7 -5 -3 -11 1 -15 9 -3 8 -1 15 4 15 6 0 10 4 10 8 0 14
-27 10 -28 -5 -1 -7 -3 -20 -4 -28 -2 -18 -73 -14 -226 14 -59 11 -122 22
-140 25 -19 2 -40 13 -49 23 -8 10 -12 12 -8 6 3 -7 1 -13 -5 -13 -8 0 -10 84
-10 285 2 244 4 285 16 285 9 0 12 -5 8 -12 -4 -7 -3 -8 4 -4 17 10 15 26 -3
26 -8 0 -15 5 -15 11 0 5 -4 8 -9 4 -11 -6 -4 47 8 55 10 7 12 50 2 50 -5 0
-11 9 -14 20 -3 11 -1 20 4 20 5 0 9 7 9 15 0 9 10 15 23 16 16 1 18 2 5 6
-10 2 -18 10 -18 16 0 7 -7 3 -15 -7 -16 -21 -21 -10 -6 13 6 8 14 10 22 5 8
-5 21 -9 29 -11 12 -1 11 1 -2 11 -19 14 -26 42 -8 31 6 -3 10 -2 10 4 0 5 -5
11 -11 13 -6 2 -12 20 -13 41 -2 28 0 35 9 27 6 -5 15 -7 18 -3 4 3 8 1 8 -5
3 -26 4 -31 12 -38 12 -12 8 19 -7 47 -11 22 -11 29 1 45 13 18 14 17 8 -8 -6
-22 -4 -28 9 -28 17 0 20 45 3 68 -6 8 -6 12 1 12 7 0 10 57 10 163 0 180 0
182 6 176 2 -2 6 -184 10 -404z m301 375 c3 -5 2 -10 -4 -10 -5 0 -13 5 -16
10 -3 6 -2 10 4 10 5 0 13 -4 16 -10z m-1215 -17 c0 -5 -5 -15 -10 -23 -7 -12
-9 -10 -7 8 1 19 17 33 17 15z m-13 -135 c-3 -8 -6 -5 -6 6 -1 11 2 17 5 13 3
-3 4 -12 1 -19z m853 -18 c0 -5 -5 -10 -11 -10 -5 0 -7 5 -4 10 3 6 8 10 11
10 2 0 4 -4 4 -10z m15 -90 c3 -6 -1 -7 -9 -4 -18 7 -21 14 -7 14 6 0 13 -4
16 -10z m-865 -10 c0 -5 -5 -10 -11 -10 -5 0 -7 5 -4 10 3 6 8 10 11 10 2 0 4
-4 4 -10z m807 -57 c-3 -10 -5 -2 -5 17 0 19 2 27 5 18 2 -10 2 -26 0 -35z
m70 12 c0 -8 -4 -12 -9 -9 -5 3 -6 10 -3 15 9 13 12 11 12 -6z m2486 -190 c-3
-9 -8 -14 -10 -11 -3 3 -2 9 2 15 9 16 15 13 8 -4z m-726 -390 c0 -8 -4 -12
-9 -9 -5 3 -6 10 -3 15 9 13 12 11 12 -6z m-2280 -57 c-3 -8 -6 -5 -6 6 -1 11
2 17 5 13 3 -3 4 -12 1 -19z m-257 -98 c0 -5 -2 -10 -4 -10 -3 0 -8 5 -11 10
-3 6 -1 10 4 10 6 0 11 -4 11 -10z m10 -58 c0 -10 -5 -23 -12 -30 -9 -9 -8
-12 5 -12 19 0 20 -2 11 -23 -3 -8 -13 -13 -23 -10 -21 5 -28 72 -9 84 20 13
28 11 28 -9z m104 -58 c4 -10 -2 -14 -20 -14 -14 0 -23 -4 -19 -10 4 -6 11 -7
17 -4 6 4 8 2 4 -4 -3 -6 -2 -13 4 -17 21 -13 9 -24 -14 -14 -21 10 -24 21
-17 61 0 4 9 4 19 1 15 -6 15 -5 3 10 -12 15 -12 17 2 11 8 -3 18 -12 21 -20z
m-30 -173 c-14 -10 -17 -44 -4 -36 7 4 6 -1 -2 -14 -13 -21 -13 -21 -22 8 -9
32 7 66 26 55 6 -4 6 -9 2 -13z m17 -58 c-12 -20 -14 -14 -5 12 4 9 9 14 11
11 3 -2 0 -13 -6 -23z m728 1 c9 -9 -55 -3 -69 6 -11 7 -3 8 25 4 22 -3 42 -8
44 -10z m-91 -61 c-10 -2 -26 -2 -35 0 -10 3 -2 5 17 5 19 0 27 -2 18 -5z
m-644 -72 c-4 -3 -9 0 -11 7 -3 6 -10 9 -15 6 -7 -4 -8 -2 -4 5 6 9 11 9 22 0
8 -6 12 -15 8 -18z m166 -58 c0 -24 -3 -33 -9 -25 -7 12 -4 62 5 62 2 0 4 -17
4 -37z m-147 5 c-2 -5 -10 -8 -18 -8 -8 0 -16 3 -18 8 -3 4 5 7 18 7 13 0 21
-3 18 -7z m147 -110 c0 -34 -3 -58 -6 -55 -4 3 -6 29 -6 57 1 60 1 60 7 60 3
0 5 -28 5 -62z m-3 -90 c-3 -8 -6 -5 -6 6 -1 11 2 17 5 13 3 -3 4 -12 1 -19z
m2273 -66 c0 -15 -2 -15 -10 -2 -13 20 -13 33 0 25 6 -3 10 -14 10 -23z
m-1770 7 c0 11 26 12 148 6 81 -3 170 -11 197 -17 28 -5 59 -10 69 -11 11 -1
21 -8 24 -16 3 -8 0 -11 -6 -7 -6 4 -8 -2 -5 -14 3 -11 12 -20 21 -20 8 0 12
-3 9 -7 -4 -3 -2 -12 4 -20 9 -10 6 -13 -16 -13 -34 0 -30 -7 6 -12 31 -4 71
-38 45 -38 -9 0 -16 8 -17 18 -1 11 -4 8 -8 -8 -5 -19 -13 -24 -32 -22 -21 2
-22 1 -6 -8 9 -6 21 -9 26 -6 15 10 41 -5 41 -22 0 -13 -3 -12 -14 4 -12 15
-17 16 -27 7 -10 -10 -9 -15 1 -28 8 -9 8 -15 2 -15 -6 0 -16 8 -21 18 -6 9
-11 12 -11 6 0 -6 7 -17 15 -24 8 -7 12 -17 8 -23 -4 -6 0 -8 10 -4 10 3 17 4
17 1 0 -3 -14 -10 -30 -16 -25 -8 -28 -13 -19 -24 12 -15 6 -19 -41 -27 -14
-2 21 -5 78 -6 90 -1 102 -3 102 -18 1 -36 0 -338 -1 -348 0 -5 -5 1 -9 15
l-8 25 -1 -25 c-1 -15 -6 -31 -12 -37 -9 -9 -7 -10 10 -6 16 4 21 1 20 -13 0
-11 -3 -14 -6 -6 -10 25 -20 1 -17 -43 2 -27 -1 -43 -7 -40 -5 4 -9 1 -9 -4 0
-6 7 -11 16 -11 13 0 14 -3 4 -14 -6 -8 -11 -25 -10 -38 1 -13 1 -41 0 -63 -3
-69 -17 -3 -24 118 -6 113 -44 243 -74 254 -22 9 -46 -10 -60 -48 l-12 -34 2
45 c3 42 1 45 -23 48 -22 3 -29 -2 -38 -29 -6 -18 -12 -48 -12 -68 -1 -27 -3
-30 -6 -11 -10 55 -40 45 -51 -17 -6 -38 -9 -40 -25 -28 -15 11 -17 17 -7 37
11 22 10 22 -4 4 -19 -23 -20 -46 -5 -80 10 -20 9 -31 -5 -53 l-17 -28 25 30
c14 16 28 26 31 23 4 -3 -1 -31 -11 -62 -14 -45 -15 -60 -6 -81 20 -44 15 -55
-22 -55 -24 0 -36 5 -39 18 -3 11 -5 7 -6 -10 0 -14 5 -28 11 -30 9 -3 8 -12
-5 -31 -21 -32 -21 -91 -1 -132 l14 -30 -6 35 c-3 19 -8 49 -11 66 -4 23 1 37
22 62 31 37 63 45 45 12 -14 -26 -47 -183 -42 -198 7 -22 40 -13 64 17 12 17
36 50 51 76 l29 45 -7 128 c-7 123 -7 128 15 147 l22 20 -7 -120 c-3 -66 -9
-127 -11 -136 -5 -19 48 -92 88 -122 39 -29 72 -17 92 33 18 46 30 53 20 13
-9 -34 -44 -82 -61 -82 -15 -1 -16 -10 -4 -30 7 -10 4 -20 -10 -32 -18 -15
-18 -17 -2 -30 9 -8 14 -9 11 -4 -4 6 -2 17 3 25 7 12 8 10 6 -7 -3 -19 -57
-82 -57 -66 0 3 -8 -1 -17 -10 -22 -19 -98 -41 -135 -40 -16 0 -26 -3 -23 -8
5 -6 -44 -21 -77 -24 -3 0 -10 -3 -14 -7 -4 -5 -16 -8 -26 -8 -10 0 -18 3 -19
8 -6 57 -2 87 11 84 11 -2 10 2 -3 12 -16 13 -18 29 -17 133 2 147 2 143 -11
143 -6 0 -9 -7 -5 -15 3 -8 1 -15 -4 -15 -6 0 -10 7 -10 15 0 8 -4 15 -10 15
-5 0 -10 7 -10 15 0 8 4 15 9 15 12 0 11 49 -1 56 -5 4 -15 1 -21 -5 -8 -8 -6
-11 9 -12 14 0 12 -3 -9 -11 -15 -5 -25 -14 -21 -19 3 -5 -2 -9 -11 -9 -12 0
-14 4 -5 19 8 15 7 22 -4 28 -15 8 -15 14 -16 173 0 36 -1 229 -3 429 -3 374
-1 434 14 410 7 -12 9 -12 9 0z m-93 -66 c-3 -10 -5 -4 -5 12 0 17 2 24 5 18
2 -7 2 -21 0 -30z m1900 5 c1 -11 10 -26 20 -33 15 -12 16 -16 4 -27 -12 -11
-13 -10 -8 5 4 11 3 16 -3 12 -6 -3 -10 -13 -10 -22 0 -8 -8 -27 -18 -41 -31
-44 -33 -50 -21 -58 8 -4 9 -3 5 4 -4 7 -2 12 3 12 13 0 13 -3 5 -24 -3 -9 -9
-14 -13 -11 -4 2 -7 -6 -6 -18 1 -16 8 -22 24 -21 12 0 20 -4 18 -10 -2 -6
-14 -10 -25 -10 -17 1 -22 -4 -22 -22 0 -12 5 -26 10 -29 7 -5 8 -11 1 -18 -5
-7 -9 -37 -9 -67 0 -81 -1 -90 -10 -90 -9 0 -8 402 2 418 4 7 12 9 18 6 6 -4
5 -10 -3 -15 -11 -7 -10 -9 4 -9 19 0 21 8 9 28 -5 7 -16 10 -25 7 -15 -6 -16
5 -2 51 6 20 51 4 52 -18z m-2310 -25 c-3 -10 -5 -4 -5 12 0 17 2 24 5 18 2
-7 2 -21 0 -30z m-155 -27 c7 4 8 2 4 -5 -9 -13 -26 -5 -25 12 0 9 2 8 6 -1 2
-6 10 -9 15 -6z m-55 -18 c-3 -8 -6 -5 -6 6 -1 11 2 17 5 13 3 -3 4 -12 1 -19z
m620 -15 c-3 -10 -5 -4 -5 12 0 17 2 24 5 18 2 -7 2 -21 0 -30z m568 -73 c3
-5 1 -10 -4 -10 -6 0 -11 5 -11 10 0 6 2 10 4 10 3 0 8 -4 11 -10z m-528 -82
c-3 -7 -5 -2 -5 12 0 14 2 19 5 13 2 -7 2 -19 0 -25z m-607 -48 c0 -5 -5 -10
-11 -10 -5 0 -7 5 -4 10 3 6 8 10 11 10 2 0 4 -4 4 -10z m2454 -46 c10 -25 -1
-29 -14 -5 -6 12 -7 21 -1 21 5 0 12 -7 15 -16z m1 -94 c3 -5 1 -10 -4 -10 -6
0 -11 5 -11 10 0 6 2 10 4 10 3 0 8 -4 11 -10z m-2286 -42 c0 -27 -2 -29 -8
-13 -5 11 -6 26 -4 33 8 21 13 13 12 -20z m-2 -100 c-3 -7 -5 -2 -5 12 0 14 2
19 5 13 2 -7 2 -19 0 -25z m848 -28 c-3 -5 -12 -10 -18 -10 -7 0 -6 4 3 10 19
12 23 12 15 0z m-848 -62 c-3 -7 -5 -2 -5 12 0 14 2 19 5 13 2 -7 2 -19 0 -25z
m848 22 c-3 -5 -10 -10 -16 -10 -5 0 -9 5 -9 10 0 6 7 10 16 10 8 0 12 -4 9
-10z m-20 -70 c3 -5 1 -10 -4 -10 -6 0 -11 5 -11 10 0 6 2 10 4 10 3 0 8 -4
11 -10z m-65 -50 c-7 -4 -9 -13 -6 -19 4 -6 -3 -24 -15 -39 l-21 -27 7 25 c16
54 37 95 42 81 3 -7 0 -17 -7 -21z m140 20 c0 -5 -4 -10 -10 -10 -5 0 -10 5
-10 10 0 6 5 10 10 10 6 0 10 -4 10 -10z m-903 -62 c-2 -13 -4 -5 -4 17 -1 22
1 32 4 23 2 -10 2 -28 0 -40z m2 -110 c-1 -46 -4 -73 -7 -60 -7 23 -4 142 4
142 2 0 4 -37 3 -82z m747 5 c-11 -20 -15 -23 -16 -10 0 21 24 61 28 48 2 -6
-4 -22 -12 -38z m1654 -27 c0 -2 -7 -9 -15 -16 -12 -10 -15 -10 -15 4 0 9 7
16 15 16 8 0 15 -2 15 -4z m50 -25 c0 -5 -7 -11 -14 -14 -10 -4 -13 -1 -9 9 6
15 23 19 23 5z m-1413 -48 c-3 -10 -5 -4 -5 12 0 17 2 24 5 18 2 -7 2 -21 0
-30z m-267 -54 c0 -8 -10 -30 -21 -49 -20 -32 -23 -33 -30 -15 -9 24 -11 97
-3 119 5 12 11 10 30 -13 13 -16 24 -35 24 -42z m21 8 c-13 -13 -14 5 -3 43
l7 25 3 -29 c2 -16 -1 -33 -7 -39z m-794 -9 c-2 -13 -4 -5 -4 17 -1 22 1 32 4
23 2 -10 2 -28 0 -40z m0 -60 c-3 -7 -5 -2 -5 12 0 14 2 19 5 13 2 -7 2 -19 0
-25z m-152 -28 c-3 -5 -13 -10 -21 -10 -8 0 -12 5 -9 10 3 6 13 10 21 10 8 0
12 -4 9 -10z m152 -27 c-3 -10 -5 -4 -5 12 0 17 2 24 5 18 2 -7 2 -21 0 -30z
m-227 2 c0 -8 -4 -15 -10 -15 -5 0 -10 -7 -10 -16 0 -8 -5 -12 -10 -9 -6 4 -7
12 -3 18 4 7 8 15 9 20 3 15 4 17 14 17 6 0 10 -7 10 -15z m13 -51 c-4 -12 -8
-13 -14 -3 -9 15 -2 32 11 24 5 -3 6 -13 3 -21z m-8 -34 c3 -5 1 -10 -4 -10
-6 0 -11 5 -11 10 0 6 2 10 4 10 3 0 8 -4 11 -10z m51 -36 c-3 -7 0 -15 7 -18
7 -2 4 -5 -5 -5 -10 -1 -18 5 -18 12 0 7 -3 8 -8 2 -12 -16 -52 -18 -52 -2 0
22 11 28 47 25 22 -1 32 -6 29 -14z m-76 -34 c12 -7 12 -12 2 -22 -10 -10 -15
-10 -22 2 -19 29 -9 39 20 20z m60 -14 c0 -3 -4 -8 -10 -11 -5 -3 -10 -1 -10
4 0 6 5 11 10 11 6 0 10 -2 10 -4z m1950 -615 c0 -20 -33 -86 -79 -153 -27
-40 -65 -99 -85 -131 -20 -31 -49 -65 -66 -75 -16 -11 -27 -23 -22 -28 4 -4
-1 -2 -11 5 -10 8 -16 20 -13 28 3 8 2 11 -3 8 -5 -3 -12 4 -16 15 -3 11 -13
21 -21 21 -8 1 -18 3 -24 4 -5 1 -20 3 -32 4 -22 2 -22 3 -3 10 28 12 51 42
53 69 1 17 -3 22 -14 18 -8 -3 -14 -2 -14 2 0 12 17 34 26 34 16 1 59 23 77
39 10 9 43 28 73 43 31 15 76 43 101 62 43 33 73 43 73 25z m395 -131 c-10
-11 -26 -22 -36 -25 -22 -7 -25 -25 -5 -25 8 0 25 -15 37 -32 13 -18 26 -35
29 -38 11 -10 60 -79 60 -84 0 -14 -31 -4 -55 17 -15 13 -27 34 -28 52 -2 27
-6 30 -39 33 -33 3 -36 5 -34 35 1 25 9 38 41 59 49 32 53 34 30 8z m-127 -6
c25 -7 31 -44 7 -44 -10 0 -15 -10 -15 -26 0 -15 -8 -34 -18 -43 -9 -9 -30
-31 -45 -50 -26 -31 -28 -39 -21 -85 11 -80 6 -324 -9 -401 -13 -66 -13 -56
-10 159 l4 228 -46 -6 c-25 -4 -62 -14 -82 -22 -33 -14 -37 -14 -45 1 -8 13
-13 14 -24 4 -10 -8 -14 -8 -14 0 0 15 230 260 260 277 29 16 29 15 58 8z
m-859 -58 c17 -21 -1 -58 -50 -100 -66 -56 -116 -82 -235 -121 -60 -20 -143
-56 -184 -80 -114 -64 -178 -95 -245 -117 -33 -11 -68 -27 -79 -36 -24 -23
-46 -66 -46 -94 -1 -21 -1 -21 -11 -5 -10 18 -9 35 17 314 7 71 42 137 74 140
73 7 106 15 162 39 68 29 154 42 170 26 6 -6 24 -6 50 0 37 8 69 1 41 -9 -17
-6 -16 -21 1 -39 19 -18 36 -18 36 1 0 12 5 13 18 7 9 -4 33 -6 52 -3 29 5 35
10 35 31 0 22 5 26 40 30 22 3 49 11 60 18 27 16 80 15 94 -2z m-226 -23 c-7
-2 -19 -2 -25 0 -7 3 -2 5 12 5 14 0 19 -2 13 -5z m-60 -10 c-7 -2 -19 -2 -25
0 -7 3 -2 5 12 5 14 0 19 -2 13 -5z m1257 -123 c-8 -5 -22 -9 -30 -9 -10 0 -8
3 5 9 27 12 43 12 25 0z m360 6 c0 -2 -7 -7 -16 -10 -8 -3 -12 -2 -9 4 6 10
25 14 25 6z m-831 -234 c5 -10 21 -72 35 -137 14 -66 33 -142 42 -168 14 -41
14 -70 0 -56 -7 6 -60 198 -83 297 -18 77 -16 105 6 64z m327 -104 c-20 -62
-48 -171 -61 -243 -13 -71 -24 -113 -24 -93 -2 77 42 273 91 406 36 96 31 45
-6 -70z m834 -199 c0 -47 -24 -219 -30 -219 -31 0 -34 65 -9 197 8 39 14 51
25 46 8 -3 14 -13 14 -24z m-3404 -144 c0 -74 -2 -132 -5 -129 -8 8 -12 36
-13 97 0 35 -5 57 -12 57 -7 0 -6 3 2 8 10 7 10 15 2 36 -6 17 -6 25 0 21 6
-4 10 5 10 19 0 14 4 26 8 26 5 0 8 -61 8 -135z m3297 15 c-7 -27 -23 -15 -23
17 0 21 3 23 14 14 8 -7 12 -21 9 -31z m-944 -2 c10 -30 9 -31 -4 -14 -8 11
-15 26 -15 33 0 22 8 14 19 -19z m-2249 18 c0 -2 -8 -10 -17 -17 -16 -13 -17
-12 -4 4 13 16 21 21 21 13z m2937 -54 c-37 -89 -48 -114 -53 -110 -2 3 10 43
28 89 17 46 33 78 36 71 2 -7 -3 -29 -11 -50z m293 -23 c0 -18 -18 -9 -23 12
-4 16 -3 18 9 8 8 -6 14 -15 14 -20z m91 -144 c-6 -66 -13 -149 -16 -185 -3
-36 -14 -148 -25 -250 -11 -102 -24 -221 -28 -265 -8 -79 -8 -79 -19 -43 -11
37 -9 72 27 453 6 61 17 180 25 265 8 85 18 166 21 180 l6 25 11 -30 c7 -20 7
-66 -2 -150z m-981 -130 c-12 -66 -27 -154 -35 -195 -7 -41 -21 -119 -30 -173
-10 -54 -19 -96 -21 -94 -5 5 8 98 46 327 11 69 26 175 31 235 14 133 23 160
27 80 2 -33 -6 -114 -18 -180z m-2453 78 c-3 -10 -5 -4 -5 12 0 17 2 24 5 18
2 -7 2 -21 0 -30z m13 -77 c0 -3 -4 -8 -10 -11 -5 -3 -10 -1 -10 4 0 6 5 11
10 11 6 0 10 -2 10 -4z m1674 -12 c9 -8 16 -27 16 -41 0 -23 -3 -25 -29 -20
-20 4 -31 2 -34 -7 -14 -35 41 -35 73 -1 27 29 87 35 96 10 7 -17 -17 -75 -31
-75 -12 0 -55 -44 -55 -57 0 -11 -24 -31 -81 -67 -25 -16 -51 -42 -58 -57 -7
-16 -19 -29 -28 -29 -8 0 -17 -9 -20 -20 -3 -11 -12 -20 -19 -20 -8 0 -17 -7
-21 -15 -7 -19 -63 -50 -63 -35 0 5 4 10 10 10 5 0 7 7 4 15 -8 20 -31 2 -36
-27 -3 -20 -14 -25 -178 -76 -36 -11 -93 -23 -128 -27 -68 -7 -222 12 -222 28
0 5 12 6 28 3 81 -19 96 -18 115 9 15 20 15 25 3 25 -8 0 -16 -4 -18 -8 -1 -5
-23 -12 -48 -15 l-45 -7 29 24 c16 14 53 37 83 52 29 16 53 32 53 37 0 4 4 6
9 3 5 -3 20 3 32 14 14 11 18 19 11 20 -7 0 -11 4 -8 9 4 5 20 7 36 5 17 -3
30 -1 30 5 0 6 8 11 18 11 20 1 54 24 46 32 -3 3 11 9 31 12 l35 7 -15 29
c-14 28 -45 33 -45 8 0 -6 -7 -7 -16 -4 -15 6 -66 -15 -94 -40 -14 -12 -70
-27 -70 -19 0 11 173 132 256 180 221 128 309 158 348 119z m1623 -319 c-13
-205 -13 -209 -29 -174 -22 51 -7 373 20 402 16 19 17 19 19 1 2 -11 -3 -113
-10 -229z m-277 185 c0 -10 -124 -197 -143 -215 -12 -11 -5 -1 120 203 14 23
23 28 23 12z m1810 -100 c0 -5 -5 -10 -11 -10 -5 0 -7 5 -4 10 3 6 8 10 11 10
2 0 4 -4 4 -10z m-2483 -262 c-3 -7 -5 -2 -5 12 0 14 2 19 5 13 2 -7 2 -19 0
-25z m-1497 -8 c0 -5 -4 -10 -10 -10 -5 0 -10 5 -10 10 0 6 5 10 10 10 6 0 10
-4 10 -10z m1487 -42 c-3 -7 -5 -2 -5 12 0 14 2 19 5 13 2 -7 2 -19 0 -25z
m40 -10 c-3 -7 -5 -2 -5 12 0 14 2 19 5 13 2 -7 2 -19 0 -25z m2353 -8 c0 -5
-4 -10 -10 -10 -5 0 -7 -7 -4 -15 4 -8 1 -15 -5 -15 -12 0 -15 32 -4 43 10 10
23 8 23 -3z m-2363 -42 c-3 -7 -5 -2 -5 12 0 14 2 19 5 13 2 -7 2 -19 0 -25z
m216 16 c18 -6 24 -44 7 -44 -5 0 -18 10 -29 21 -13 14 -27 20 -40 16 -11 -3
-40 1 -63 9 l-43 14 75 -5 c41 -3 83 -8 93 -11z m257 -13 c0 -5 3 -18 6 -28 5
-17 5 -17 -9 -1 -8 10 -17 15 -21 11 -4 -4 -4 0 0 10 6 18 24 24 24 8z m-140
-25 c0 -3 -4 -8 -10 -11 -5 -3 -10 -1 -10 4 0 6 5 11 10 11 6 0 10 -2 10 -4z
m162 -78 l37 -29 -22 -22 -22 -23 -41 40 c-22 23 -47 41 -55 41 -9 0 -14 11
-15 31 l-1 31 41 -20 c23 -11 58 -33 78 -49z m-616 -85 c-11 -11 -19 6 -11 24
8 17 8 17 12 0 3 -10 2 -21 -1 -24z m1000 -13 c13 0 24 -6 24 -13 0 -11 -12
-12 -64 -3 -77 13 -104 32 -32 22 27 -3 59 -6 72 -6z m1609 -30 c-3 -5 -12
-10 -18 -10 -7 0 -6 4 3 10 19 12 23 12 15 0z m-1885 -40 c0 -5 -5 -10 -11
-10 -5 0 -7 5 -4 10 3 6 8 10 11 10 2 0 4 -4 4 -10z m2197 -5 c0 -8 -4 -12 -9
-9 -5 3 -6 10 -3 15 9 13 12 11 12 -6z"/>
<path d="M1160 5764 c0 -13 18 -39 24 -34 2 3 -2 14 -10 24 -8 11 -14 16 -14
10z"/>
<path d="M1145 5480 c3 -5 8 -10 11 -10 2 0 4 5 4 10 0 6 -5 10 -11 10 -5 0
-7 -4 -4 -10z"/>
<path d="M1195 5450 c-3 -5 -1 -10 4 -10 6 0 11 5 11 10 0 6 -2 10 -4 10 -3 0
-8 -4 -11 -10z"/>
<path d="M1141 5394 c0 -11 3 -14 6 -6 3 7 2 16 -1 19 -3 4 -6 -2 -5 -13z"/>
<path d="M1180 5391 c0 -6 4 -13 10 -16 6 -3 7 1 4 9 -7 18 -14 21 -14 7z"/>
<path d="M1140 5342 c0 -12 3 -12 15 -2 8 7 15 13 15 15 0 1 -7 2 -15 2 -8 0
-15 -7 -15 -15z"/>
<path d="M406 5075 c-3 -8 -1 -15 4 -15 6 0 10 7 10 15 0 8 -2 15 -4 15 -2 0
-6 -7 -10 -15z"/>
<path d="M1618 4203 c7 -3 16 -2 19 1 4 3 -2 6 -13 5 -11 0 -14 -3 -6 -6z"/>
<path d="M1423 3715 c-32 -49 -29 -58 3 -11 26 37 28 38 41 20 14 -19 15 -19
11 1 -5 32 -31 28 -55 -10z"/>
<path d="M1170 3629 c0 -11 4 -18 10 -14 5 3 7 12 3 20 -7 21 -13 19 -13 -6z"/>
<path d="M1171 3564 c0 -11 3 -14 6 -6 3 7 2 16 -1 19 -3 4 -6 -2 -5 -13z"/>
<path d="M455 2990 c3 -5 8 -10 11 -10 2 0 4 5 4 10 0 6 -5 10 -11 10 -5 0 -7
-4 -4 -10z"/>
<path d="M2225 2025 c-15 -14 -25 -28 -22 -31 3 -3 17 7 32 21 14 15 24 29 21
32 -3 3 -17 -7 -31 -22z"/>
<path d="M1710 2090 c0 -5 6 -10 14 -10 8 0 18 5 21 10 3 6 -3 10 -14 10 -12
0 -21 -4 -21 -10z"/>
<path d="M1021 1694 c0 -11 3 -14 6 -6 3 7 2 16 -1 19 -3 4 -6 -2 -5 -13z"/>
<path d="M1513 829 c-25 -9 -30 -19 -10 -19 15 0 43 17 37 23 -3 3 -15 1 -27
-4z"/>
<path d="M1520 790 c-12 -8 -10 -10 8 -10 13 0 20 4 17 10 -7 12 -6 12 -25 0z"/>
<path d="M4317 8243 c-4 -3 -7 -13 -7 -22 1 -13 3 -13 11 2 11 19 8 33 -4 20z"/>
<path d="M4567 7969 c7 -7 15 -10 18 -7 3 3 -2 9 -12 12 -14 6 -15 5 -6 -5z"/>
<path d="M4653 7851 c0 -11 5 -18 9 -15 4 3 5 11 1 19 -7 21 -12 19 -10 -4z"/>
<path d="M4686 7831 c4 -15 10 -66 13 -102 0 -9 8 -16 16 -16 17 0 14 39 -3
45 -8 2 -9 9 -3 21 6 10 6 23 1 31 -5 9 -5 17 1 21 6 3 2 9 -9 11 -14 4 -18 1
-16 -11z"/>
<path d="M4736 7811 c-4 -7 -5 -15 -2 -18 9 -9 19 4 14 18 -4 11 -6 11 -12 0z"/>
<path d="M4737 7763 c-2 -5 -1 -19 3 -33 l6 -25 6 28 c5 26 -5 47 -15 30z"/>
<path d="M4765 7720 c3 -5 8 -10 11 -10 2 0 4 5 4 10 0 6 -5 10 -11 10 -5 0
-7 -4 -4 -10z"/>
<path d="M4680 7688 c0 -12 7 -18 23 -17 15 0 17 2 7 6 -8 3 -18 11 -22 17 -5
7 -8 4 -8 -6z"/>
<path d="M4806 7665 c4 -8 8 -15 10 -15 2 0 4 7 4 15 0 8 -4 15 -10 15 -5 0
-7 -7 -4 -15z"/>
<path d="M4676 7645 c4 -8 8 -15 10 -15 2 0 4 7 4 15 0 8 -4 15 -10 15 -5 0
-7 -7 -4 -15z"/>
<path d="M4710 7639 c0 -5 5 -7 10 -4 6 3 10 8 10 11 0 2 -4 4 -10 4 -5 0 -10
-5 -10 -11z"/>
<path d="M4605 7550 c-3 -5 1 -10 10 -10 9 0 13 5 10 10 -3 6 -8 10 -10 10 -2
0 -7 -4 -10 -10z"/>
<path d="M4616 7513 c-6 -14 -5 -15 5 -6 7 7 10 15 7 18 -3 3 -9 -2 -12 -12z"/>
<path d="M4970 7500 c0 -22 -15 -27 -23 -7 -4 7 -6 6 -6 -4 -1 -9 8 -19 19
-22 17 -4 20 0 20 24 0 16 -2 29 -5 29 -3 0 -5 -9 -5 -20z"/>
<path d="M4653 7489 c3 -9 1 -21 -4 -26 -6 -6 -4 -10 5 -10 14 0 14 33 0 46
-4 3 -5 -1 -1 -10z"/>
<path d="M4961 7434 c0 -11 3 -14 6 -6 3 7 2 16 -1 19 -3 4 -6 -2 -5 -13z"/>
<path d="M4560 7419 c0 -5 5 -7 10 -4 6 3 10 8 10 11 0 2 -4 4 -10 4 -5 0 -10
-5 -10 -11z"/>
<path d="M4591 7414 c0 -11 3 -14 6 -6 3 7 2 16 -1 19 -3 4 -6 -2 -5 -13z"/>
<path d="M4620 7426 c0 -2 7 -7 16 -10 8 -3 12 -2 9 4 -6 10 -25 14 -25 6z"/>
<path d="M4570 7395 c0 -5 5 -17 10 -25 5 -8 10 -10 10 -5 0 6 -5 17 -10 25
-5 8 -10 11 -10 5z"/>
<path d="M4401 7314 c0 -11 3 -14 6 -6 3 7 2 16 -1 19 -3 4 -6 -2 -5 -13z"/>
<path d="M4160 7300 c0 -5 4 -10 9 -10 6 0 13 5 16 10 3 6 -1 10 -9 10 -9 0
-16 -4 -16 -10z"/>
<path d="M4202 7260 c0 -14 2 -19 5 -12 2 6 2 18 0 25 -3 6 -5 1 -5 -13z"/>
<path d="M4051 7204 c0 -11 3 -14 6 -6 3 7 2 16 -1 19 -3 4 -6 -2 -5 -13z"/>
<path d="M3987 7193 c-4 -3 -7 -18 -6 -32 1 -26 1 -25 10 3 9 31 7 41 -4 29z"/>
<path d="M290 5565 c0 -60 2 -106 5 -103 8 7 9 197 2 205 -4 3 -7 -42 -7 -102z"/>
<path d="M5618 5603 c6 -2 18 -2 25 0 6 3 1 5 -13 5 -14 0 -19 -2 -12 -5z"/>
<path d="M5448 5593 c17 -2 47 -2 65 0 17 2 3 4 -33 4 -36 0 -50 -2 -32 -4z"/>
<path d="M5323 5583 c15 -2 37 -2 50 0 12 2 0 4 -28 4 -27 0 -38 -2 -22 -4z"/>
<path d="M4908 5553 c12 -2 32 -2 45 0 12 2 2 4 -23 4 -25 0 -35 -2 -22 -4z"/>
<path d="M4823 5543 c9 -2 23 -2 30 0 6 3 -1 5 -18 5 -16 0 -22 -2 -12 -5z"/>
<path d="M4408 5513 c12 -2 32 -2 45 0 12 2 2 4 -23 4 -25 0 -35 -2 -22 -4z"/>
<path d="M4283 5503 c15 -2 37 -2 50 0 12 2 0 4 -28 4 -27 0 -38 -2 -22 -4z"/>
<path d="M4198 5493 c6 -2 18 -2 25 0 6 3 1 5 -13 5 -14 0 -19 -2 -12 -5z"/>
<path d="M3943 5473 c9 -2 25 -2 35 0 9 3 1 5 -18 5 -19 0 -27 -2 -17 -5z"/>
<path d="M3838 5463 c12 -2 30 -2 40 0 9 3 -1 5 -23 4 -22 0 -30 -2 -17 -4z"/>
<path d="M3728 5453 c12 -2 30 -2 40 0 9 3 -1 5 -23 4 -22 0 -30 -2 -17 -4z"/>
<path d="M293 5410 c0 -25 2 -35 4 -22 2 12 2 32 0 45 -2 12 -4 2 -4 -23z"/>
<path d="M290 5339 c0 -13 4 -30 9 -38 6 -9 8 -4 6 18 -3 38 -15 54 -15 20z"/>
<path d="M2985 5180 c3 -5 8 -10 11 -10 2 0 4 5 4 10 0 6 -5 10 -11 10 -5 0
-7 -4 -4 -10z"/>
<path d="M2970 5130 c-9 -6 -10 -10 -3 -10 6 0 15 5 18 10 8 12 4 12 -15 0z"/>
<path d="M3002 5116 c-33 -19 -34 -22 -4 -20 15 0 30 -4 34 -10 6 -8 8 -8 8 1
0 6 -5 15 -11 19 -8 4 -7 9 2 15 21 13 -3 9 -29 -5z"/>
<path d="M3234 5112 c4 -7 3 -12 -2 -12 -20 0 -32 -277 -30 -680 1 -228 2
-508 2 -622 1 -140 5 -211 12 -218 7 -7 67 -20 135 -31 68 -10 149 -23 180
-29 30 -5 66 -9 80 -9 13 1 2 5 -24 9 -68 12 -77 22 -77 92 0 38 -4 57 -10 53
-6 -4 -8 -27 -5 -58 5 -39 4 -48 -5 -35 -6 10 -19 15 -32 13 -12 -3 -27 3 -34
13 -19 24 -17 37 2 18 19 -20 24 -20 24 0 0 8 -4 13 -9 10 -5 -4 -11 -1 -13 4
-2 6 -13 12 -26 13 -19 1 -22 7 -22 44 0 23 -3 44 -7 46 -5 3 -7 -20 -5 -51 2
-44 0 -53 -8 -42 -9 12 -10 4 -8 -32 2 -27 0 -48 -4 -48 -9 0 -12 59 -9 136 2
33 -2 55 -10 59 -8 5 -10 4 -5 -4 4 -7 5 -34 1 -61 -6 -44 -10 -49 -36 -55
-29 -7 -37 -19 -19 -30 6 -3 10 -14 10 -23 -1 -16 -2 -15 -14 1 -27 35 -40
382 -14 398 11 7 10 11 -2 18 -9 7 -17 6 -21 -1 -4 -5 -9 -6 -11 -2 -9 16 -8
268 1 307 5 21 5 37 0 37 -5 0 -9 23 -9 50 0 53 16 69 23 23 2 -16 5 5 6 45 0
40 6 104 12 142 6 38 9 83 7 101 -3 30 -4 31 -18 14 -9 -11 -10 -16 -2 -11 8
5 12 -2 12 -23 0 -17 -4 -31 -9 -31 -4 0 -8 -15 -8 -32 3 -94 -4 -168 -14
-168 -12 0 -7 457 6 535 4 22 10 59 15 83 5 27 4 45 -3 49 -6 3 -7 1 -3 -5z
m175 -1539 c9 -7 28 -13 44 -13 15 0 27 -5 27 -11 0 -8 -11 -9 -32 -5 -33 6
-78 47 -78 69 0 7 6 3 12 -8 6 -11 19 -25 27 -32z"/>
<path d="M2951 5058 c-1 -20 14 -24 25 -6 4 6 3 8 -4 4 -5 -3 -13 0 -15 6 -3
8 -6 6 -6 -4z"/>
<path d="M3021 5051 c-10 -6 -9 -10 3 -14 8 -3 18 -2 21 3 8 13 -9 20 -24 11z"/>
<path d="M4155 5046 c-18 -13 -18 -14 8 -9 21 4 29 1 36 -18 9 -22 10 -22 10
-3 1 19 -16 44 -29 44 -3 0 -15 -6 -25 -14z"/>
<path d="M2993 5015 c0 -7 8 -10 19 -7 10 2 18 6 18 7 0 1 -8 5 -18 7 -11 3
-19 0 -19 -7z"/>
<path d="M3007 4987 c-3 -7 3 -13 14 -13 13 0 15 3 7 13 -6 7 -12 13 -13 13
-2 0 -5 -6 -8 -13z"/>
<path d="M3320 4986 c0 -2 11 -6 25 -8 13 -3 22 -1 19 3 -5 9 -44 13 -44 5z"/>
<path d="M3981 4951 c-1 -25 47 -117 56 -107 3 3 -6 24 -20 48 -13 24 -27 52
-30 63 -4 17 -5 17 -6 -4z"/>
<path d="M415 4910 c-3 -5 -3 -10 2 -10 4 0 0 -5 -10 -11 -16 -9 -16 -12 -2
-26 9 -8 19 -12 23 -8 4 4 1 10 -6 12 -6 3 -10 9 -7 14 4 5 12 3 19 -4 8 -6
11 -16 8 -21 -3 -5 0 -6 6 -2 19 11 14 34 -8 41 -11 4 -18 11 -15 16 4 5 4 9
1 9 -3 0 -8 -4 -11 -10z"/>
<path d="M3389 4896 l-17 -21 -22 20 -23 20 12 -22 c15 -29 47 -30 61 -2 16
28 9 32 -11 5z"/>
<path d="M3030 4890 c0 -5 5 -10 11 -10 5 0 7 5 4 10 -3 6 -8 10 -11 10 -2 0
-4 -4 -4 -10z"/>
<path d="M3410 4860 c-13 -8 -13 -10 2 -10 9 0 20 5 23 10 8 13 -5 13 -25 0z"/>
<path d="M3025 4840 c4 -6 11 -8 16 -5 14 9 11 15 -7 15 -8 0 -12 -5 -9 -10z"/>
<path d="M3022 4798 c2 -28 18 -33 26 -8 3 7 0 10 -7 6 -6 -4 -11 -2 -11 3 0
6 5 11 10 11 6 0 10 4 10 8 0 5 -7 9 -15 9 -10 0 -14 -9 -13 -29z"/>
<path d="M378 4771 c-2 -16 0 -28 4 -25 5 3 15 0 23 -6 20 -17 19 -7 -4 30
l-19 31 -4 -30z"/>
<path d="M3030 4690 c0 -5 5 -10 11 -10 5 0 7 5 4 10 -3 6 -8 10 -11 10 -2 0
-4 -4 -4 -10z"/>
<path d="M3012 4645 l-23 -13 27 -6 c14 -4 29 -5 32 -1 3 3 -3 5 -13 5 -14 0
-15 3 -5 15 14 17 13 17 -18 0z"/>
<path d="M409 4618 c-6 -12 -5 -46 2 -43 4 3 7 14 6 25 -1 18 -5 25 -8 18z"/>
<path d="M3162 4600 c0 -14 2 -19 5 -12 2 6 2 18 0 25 -3 6 -5 1 -5 -13z"/>
<path d="M3164 4310 c0 -146 2 -205 3 -132 2 72 2 192 0 265 -1 72 -3 13 -3
-133z"/>
<path d="M3025 4550 c3 -5 1 -10 -5 -10 -6 0 -9 -4 -5 -9 3 -5 -3 -12 -12 -14
-11 -3 -6 -5 11 -6 24 -1 27 -4 23 -22 -5 -17 -3 -19 6 -10 9 9 8 17 -2 33
-10 16 -10 23 -2 26 13 4 5 22 -10 22 -6 0 -7 -4 -4 -10z"/>
<path d="M3000 4465 c0 -8 2 -15 4 -15 2 0 6 7 10 15 3 8 1 15 -4 15 -6 0 -10
-7 -10 -15z"/>
<path d="M3397 4463 c-4 -3 -7 -13 -7 -21 0 -12 3 -12 15 -2 8 7 15 16 15 21
0 11 -14 12 -23 2z"/>
<path d="M428 4443 c7 -3 16 -2 19 1 4 3 -2 6 -13 5 -11 0 -14 -3 -6 -6z"/>
<path d="M387 4427 c-3 -8 3 -13 15 -14 10 -1 18 3 16 9 -6 18 -25 21 -31 5z"/>
<path d="M460 4424 c0 -16 9 -18 28 -5 10 6 9 10 -7 14 -14 3 -21 0 -21 -9z"/>
<path d="M2990 4429 c0 -8 5 -10 30 -13 6 -1 10 4 10 9 0 6 -9 11 -20 11 -11
1 -20 -3 -20 -7z"/>
<path d="M370 4378 c0 -3 9 -6 20 -5 11 1 20 5 20 9 0 3 -9 6 -20 5 -11 -1
-20 -5 -20 -9z"/>
<path d="M428 4383 c7 -3 16 -2 19 1 4 3 -2 6 -13 5 -11 0 -14 -3 -6 -6z"/>
<path d="M3243 4330 c0 -25 2 -35 4 -22 2 12 2 32 0 45 -2 12 -4 2 -4 -23z"/>
<path d="M398 4347 c26 -12 29 -37 5 -37 -15 0 -15 -2 -4 -9 20 -13 41 9 30
30 -4 9 -7 18 -4 20 2 2 -9 5 -23 5 -26 2 -26 1 -4 -9z"/>
<path d="M450 4341 c0 -6 5 -13 10 -16 6 -3 10 1 10 9 0 9 -4 16 -10 16 -5 0
-10 -4 -10 -9z"/>
<path d="M357 4319 c7 -7 15 -10 18 -7 3 3 -2 9 -12 12 -14 6 -15 5 -6 -5z"/>
<path d="M387 4267 c-7 -20 17 -24 29 -5 4 6 3 8 -4 4 -5 -3 -12 -1 -14 6 -3
8 -7 6 -11 -5z"/>
<path d="M3249 4248 c-3 -22 -1 -34 4 -29 5 5 7 21 5 37 -3 27 -4 26 -9 -8z"/>
<path d="M4115 4241 c28 -4 59 -11 70 -16 16 -6 18 -5 8 5 -7 7 -38 14 -70 16
l-58 3 50 -8z"/>
<path d="M420 4230 c0 -5 5 -10 11 -10 5 0 7 5 4 10 -3 6 -8 10 -11 10 -2 0
-4 -4 -4 -10z"/>
<path d="M4029 4221 c-13 -11 -22 -21 -19 -23 3 -2 16 6 29 19 29 28 22 30
-10 4z"/>
<path d="M3835 4200 c-10 -16 3 -26 16 -13 13 13 38 6 58 -16 9 -11 9 -8 -2 9
-15 27 -60 39 -72 20z"/>
<path d="M412 4188 c-7 -7 -12 -20 -12 -29 0 -10 -6 -20 -12 -22 -7 -3 -1 -5
13 -4 21 1 25 6 24 27 -1 14 3 28 9 32 8 5 8 8 1 8 -6 0 -16 -5 -23 -12z"/>
<path d="M3768 4113 c7 -3 16 -2 19 1 4 3 -2 6 -13 5 -11 0 -14 -3 -6 -6z"/>
<path d="M3785 4099 c-29 -7 -29 -7 8 -8 38 -1 45 -8 27 -29 -7 -9 -7 -9 2 -2
19 15 26 12 42 -17 13 -23 15 -25 15 -8 0 23 -26 58 -49 66 -8 3 -28 2 -45 -2z"/>
<path d="M453 4086 c3 -7 0 -13 -6 -13 -40 1 -61 -4 -49 -12 7 -4 24 -6 37 -3
20 3 23 1 18 -17 -7 -26 8 -27 24 -1 8 12 9 21 3 25 -6 4 -8 10 -5 15 3 4 -2
11 -11 14 -11 4 -15 2 -11 -8z"/>
<path d="M4145 4059 c-34 -16 -36 -18 -11 -14 16 4 39 13 50 21 28 20 9 16
-39 -7z"/>
<path d="M3700 4049 c-6 -11 -10 -27 -8 -35 2 -8 8 1 14 20 12 40 10 46 -6 15z"/>
<path d="M4070 4060 c8 -5 20 -10 25 -10 6 0 3 5 -5 10 -8 5 -19 10 -25 10 -5
0 -3 -5 5 -10z"/>
<path d="M4640 4010 c0 -5 5 -10 10 -10 6 0 10 5 10 10 0 6 -4 10 -10 10 -5 0
-10 -4 -10 -10z"/>
<path d="M3870 3985 c0 -8 -12 -26 -27 -40 -15 -14 -22 -25 -15 -25 19 0 52
38 52 60 0 11 -2 20 -5 20 -3 0 -5 -7 -5 -15z"/>
<path d="M3321 3944 c0 -11 3 -14 6 -6 3 7 2 16 -1 19 -3 4 -6 -2 -5 -13z"/>
<path d="M3323 3810 c0 -25 2 -35 4 -22 2 12 2 32 0 45 -2 12 -4 2 -4 -23z"/>
<path d="M3493 3755 c0 -33 2 -45 4 -27 2 18 2 45 0 60 -2 15 -4 0 -4 -33z"/>
<path d="M3440 3758 c16 -20 11 -38 -12 -48 l-23 -9 22 0 c28 -1 41 36 19 55
-9 8 -11 9 -6 2z"/>
<path d="M3252 3735 c0 -16 2 -22 5 -12 2 9 2 23 0 30 -3 6 -5 -1 -5 -18z"/>
<path d="M3577 3655 c6 -66 17 -95 36 -95 9 0 9 2 -1 8 -6 5 -19 39 -26 78
l-15 69 6 -60z"/>
<path d="M3645 3660 c3 -20 17 -46 32 -60 20 -19 23 -19 9 -3 -10 12 -24 39
-32 60 l-15 38 6 -35z"/>
<path d="M3702 3670 c7 -10 14 -18 15 -16 6 6 -9 36 -18 36 -5 0 -4 -9 3 -20z"/>
<path d="M3839 3665 c24 -14 45 -24 47 -22 8 8 -32 35 -61 41 -26 6 -24 3 14
-19z"/>
<path d="M3532 3640 c0 -14 2 -19 5 -12 2 6 2 18 0 25 -3 6 -5 1 -5 -13z"/>
<path d="M4112 3638 c-7 -7 -11 -21 -11 -32 1 -21 1 -21 6 -1 3 11 10 26 15
33 13 15 6 16 -10 0z"/>
<path d="M4292 3630 c0 -14 2 -19 5 -12 2 6 2 18 0 25 -3 6 -5 1 -5 -13z"/>
<path d="M440 3618 c0 -9 7 -19 16 -22 15 -6 15 -4 3 11 -7 10 -15 20 -16 22
-2 2 -3 -3 -3 -11z"/>
<path d="M4330 3621 c0 -5 11 -12 25 -15 32 -8 33 -39 3 -60 -12 -9 -17 -16
-10 -16 17 0 52 37 52 54 0 8 -7 22 -16 30 -17 17 -54 22 -54 7z"/>
<path d="M3971 3603 c0 -12 -4 -30 -7 -40 -5 -17 -5 -17 6 0 6 10 9 28 7 40
-4 22 -4 22 -6 0z"/>
<path d="M3855 3580 c4 -14 14 -32 22 -40 12 -12 11 -7 -2 20 -22 45 -29 52
-20 20z"/>
<path d="M416 3573 c-6 -14 -5 -15 5 -6 7 7 10 15 7 18 -3 3 -9 -2 -12 -12z"/>
<path d="M4068 3563 c5 -21 7 -23 10 -9 2 10 0 22 -6 28 -6 6 -7 0 -4 -19z"/>
<path d="M4302 3550 c0 -19 2 -27 5 -17 2 9 2 25 0 35 -3 9 -5 1 -5 -18z"/>
<path d="M378 3563 c7 -3 16 -2 19 1 4 3 -2 6 -13 5 -11 0 -14 -3 -6 -6z"/>
<path d="M4111 3554 c0 -11 3 -14 6 -6 3 7 2 16 -1 19 -3 4 -6 -2 -5 -13z"/>
<path d="M420 3540 c-13 -8 -12 -10 3 -10 9 0 17 5 17 10 0 12 -1 12 -20 0z"/>
<path d="M4210 3531 c0 -6 4 -13 10 -16 6 -3 7 1 4 9 -7 18 -14 21 -14 7z"/>
<path d="M3648 3523 c6 -2 18 -2 25 0 6 3 1 5 -13 5 -14 0 -19 -2 -12 -5z"/>
<path d="M3080 3501 c0 -6 5 -13 10 -16 6 -3 10 -1 10 5 0 6 5 8 10 5 6 -3 10
-1 10 4 0 6 -9 11 -20 11 -11 0 -20 -4 -20 -9z"/>
<path d="M416 3455 c-11 -8 -15 -15 -9 -15 6 0 16 7 23 15 16 19 11 19 -14 0z"/>
<path d="M400 3245 c0 -8 4 -15 10 -15 5 0 7 7 4 15 -4 8 -8 15 -10 15 -2 0
-4 -7 -4 -15z"/>
<path d="M413 3205 c0 -8 6 -15 13 -15 7 0 15 -8 17 -17 4 -15 5 -15 6 -2 0 9
-7 23 -17 32 -16 15 -19 15 -19 2z"/>
<path d="M333 3152 c-10 -17 -8 -18 13 -14 13 2 24 9 24 14 0 5 -4 7 -9 4 -5
-4 -11 -2 -13 4 -2 6 -8 2 -15 -8z"/>
<path d="M465 3160 c-3 -5 -2 -10 4 -10 5 0 13 5 16 10 3 6 2 10 -4 10 -5 0
-13 -4 -16 -10z"/>
<path d="M326 3053 c-6 -14 -5 -15 5 -6 7 7 10 15 7 18 -3 3 -9 -2 -12 -12z"/>
<path d="M1178 2503 c7 -3 16 -2 19 1 4 3 -2 6 -13 5 -11 0 -14 -3 -6 -6z"/>
<path d="M870 2425 c-23 -19 -38 -35 -32 -35 5 0 15 7 22 15 7 8 16 12 21 9 9
-5 79 32 79 42 0 2 -11 4 -24 4 -13 0 -43 -16 -66 -35z"/>
<path d="M5136 673 c-4 -9 -1 -21 5 -27 9 -8 10 -7 4 3 -6 11 -4 13 10 7 14
-5 16 -4 7 7 -7 8 -9 17 -5 20 3 4 2 7 -4 7 -6 0 -14 -8 -17 -17z"/>
<path d="M4940 629 c0 -5 -4 -7 -10 -4 -5 3 -10 1 -10 -4 0 -6 7 -11 15 -11 8
0 15 7 15 15 0 8 -2 15 -5 15 -3 0 -5 -5 -5 -11z"/>
<path d="M5263 606 c3 -8 1 -17 -6 -20 -9 -3 -8 -5 1 -5 7 -1 11 -5 8 -10 -4
-5 3 -7 14 -4 11 3 20 10 20 15 0 5 -4 6 -10 3 -5 -3 -10 3 -10 14 0 12 -5 21
-11 21 -6 0 -9 -6 -6 -14z"/>
<path d="M5290 609 c0 -5 5 -7 10 -4 6 3 10 8 10 11 0 2 -4 4 -10 4 -5 0 -10
-5 -10 -11z"/>
<path d="M5342 530 c0 -14 2 -19 5 -12 2 6 2 18 0 25 -3 6 -5 1 -5 -13z"/>
<path d="M5475 541 c-3 -5 -2 -12 3 -15 5 -3 9 1 9 9 0 17 -3 19 -12 6z"/>
<path d="M5305 530 c-3 -5 -1 -10 4 -10 6 0 11 5 11 10 0 6 -2 10 -4 10 -3 0
-8 -4 -11 -10z"/>
<path d="M4903 500 c1 -21 10 -18 13 5 1 8 -2 15 -6 15 -5 0 -8 -9 -7 -20z"/>
<path d="M5401 464 c0 -11 3 -14 6 -6 3 7 2 16 -1 19 -3 4 -6 -2 -5 -13z"/>
<path d="M5260 154 c0 -8 5 -12 10 -9 6 4 8 11 5 16 -9 14 -15 11 -15 -7z"/>
<path d="M5170 141 c0 -6 4 -13 10 -16 6 -3 7 1 4 9 -7 18 -14 21 -14 7z"/>
<path d="M5571 134 c0 -11 3 -14 6 -6 3 7 2 16 -1 19 -3 4 -6 -2 -5 -13z"/>
<path d="M5752 37 c-17 -10 -20 -15 -10 -25 18 -18 25 -15 30 13 3 14 5 25 4
25 0 -1 -11 -6 -24 -13z"/>
<path d="M4780 10 c0 -5 9 -10 21 -10 11 0 17 4 14 10 -8 13 -35 13 -35 0z"/>
<path d="M5900 10 c0 -5 5 -10 10 -10 6 0 10 5 10 10 0 6 -4 10 -10 10 -5 0
-10 -4 -10 -10z"/>
</g>
</svg>
