<?xml version="1.0" encoding="utf-8"?>
<!-- Generator: Adobe Illustrator 16.0.0, SVG Export Plug-In . SVG Version: 6.00 Build 0)  -->
<!DOCTYPE svg PUBLIC "-//W3C//DTD SVG 1.1//EN" "http://www.w3.org/Graphics/SVG/1.1/DTD/svg11.dtd">
<svg version="1.1" id="Layer_1" xmlns="http://www.w3.org/2000/svg" xmlns:xlink="http://www.w3.org/1999/xlink" x="0px" y="0px"
	 width="130px" height="130px" viewBox="0 0 130 130" enable-background="new 0 0 130 130" xml:space="preserve">
<g>
	<g>
		<polygon fill="#F4C7B5" points="84.449,84.078 84.449,129 6.646,84.078 6.646,39.154 		"/>
		<polyline fill="#EFB8A5" points="6.646,39.154 84.449,84.078 84.449,129 		"/>
		<polygon fill="#D69385" points="123.354,61.617 123.354,106.54 84.449,129 84.449,84.078 		"/>
		<polyline fill="#C68979" points="84.449,129 84.449,84.078 123.354,61.617 		"/>
		<polygon fill="#E3E5C1" points="45.545,16.695 123.354,61.617 84.449,84.078 6.646,39.154 		"/>
		<polygon fill="#CDD1A6" points="45.978,18.862 119.582,61.378 84.018,81.909 10.423,39.392 		"/>
		<polygon fill="#BABC91" points="117.861,62.373 84.018,81.909 12.143,40.384 45.978,20.854 		"/>
		<polyline fill="#B5B586" points="117.861,62.373 84.018,81.909 12.143,40.384 		"/>
		<g>
			<polygon fill="#391B51" points="9.652,49.487 9.569,85.458 25.088,94.412 25.088,58.587 			"/>
			<polygon fill="#712D9E" points="10.617,84.758 25.088,93.11 25.088,58.587 10.697,50.1 			"/>
			<polyline fill="#6B2D8C" points="25.088,93.11 25.088,58.587 10.697,50.1 			"/>
		</g>
	</g>
	<g>
		<polygon fill="#712D9E" points="85.186,70.939 85.186,84.861 4.434,38.237 4.434,24.312 		"/>
		<polyline fill="#6B2D8C" points="4.434,24.312 85.186,70.939 85.186,84.861 		"/>
		<polygon fill="#461E60" points="125.566,47.626 125.566,61.552 85.186,84.861 85.186,70.939 		"/>
		<polyline fill="#391B51" points="85.186,84.861 85.186,70.939 125.566,47.626 		"/>
		<polygon fill="#9055C9" points="44.808,1 125.566,47.626 85.186,70.939 4.434,24.312 		"/>
		<polygon fill="#6B2D8C" points="45.256,3.251 121.652,47.377 84.738,68.687 8.354,24.557 		"/>
		<polygon fill="#391B51" points="119.865,48.411 84.738,68.687 10.139,25.588 45.256,5.317 		"/>
		<polyline fill="#2C1542" points="119.865,48.411 84.738,68.687 10.139,25.588 		"/>
	</g>
	<g>
		<g>
			<g>
				<g>
					<g>
						<polygon fill="#712D9E" points="27.922,62.614 52.31,76.699 52.31,104.825 27.922,90.795 						"/>
					</g>
				</g>
			</g>
		</g>
		<polygon fill="#3A94D8" points="28.622,90.218 52.31,103.847 52.31,76.699 28.622,63.019 		"/>
		<polyline fill="#2087C6" points="52.31,103.847 52.31,76.699 28.622,63.019 		"/>
	</g>
	<g>
		<g>
			<g>
				<g>
					<g>
						<polygon fill="#712D9E" points="54.234,77.667 78.623,91.752 78.623,119.879 54.234,105.849 						"/>
					</g>
				</g>
			</g>
		</g>
		<polygon fill="#3A94D8" points="54.936,105.271 78.623,118.899 78.623,91.752 54.936,78.072 		"/>
		<polyline fill="#2087C6" points="78.623,118.899 78.623,91.752 54.936,78.072 		"/>
	</g>
	
		<line fill="none" stroke="#F4C7B5" stroke-width="0.5" stroke-linecap="round" stroke-miterlimit="10" x1="26.611" y1="65.03" x2="7.275" y2="53.627"/>
	
		<line fill="none" stroke="#F4C7B5" stroke-width="0.5" stroke-linecap="round" stroke-miterlimit="10" x1="16.943" y1="59.329" x2="16.943" y2="89.22"/>
	<g>
		<polygon fill="#2C1542" points="70.656,24.151 79.973,29.524 79.973,32.751 70.656,38.13 61.344,32.751 61.344,29.524 		"/>
		<g>
			<g>
				<polygon fill="#AAC7CC" points="79.973,27.792 79.973,31.017 70.656,36.391 70.656,33.166 				"/>
				<polyline fill="#9BBBBF" points="70.656,36.391 70.656,33.166 79.973,27.792 				"/>
				<polygon fill="#769293" points="61.344,27.792 61.344,31.017 70.656,36.391 70.656,33.166 				"/>
				<polyline fill="#6C8A8C" points="70.656,36.391 70.656,33.166 61.344,27.792 				"/>
				<polygon fill="#BDDCE0" points="70.656,22.415 79.973,27.792 70.656,33.166 61.344,27.792 				"/>
				<polyline fill="#AAC7CC" points="79.973,27.792 70.656,33.166 61.344,27.792 				"/>
			</g>
		</g>
		<polygon fill="#2C1542" points="81.112,30.271 90.428,35.649 90.428,38.871 81.112,44.25 71.805,38.871 71.805,35.649 		"/>
		<g>
			<g>
				<polygon fill="#AAC7CC" points="90.428,33.913 90.428,37.135 81.112,42.515 81.112,39.287 				"/>
				<polyline fill="#9BBBBF" points="81.112,42.515 81.112,39.287 90.428,33.913 				"/>
				<polygon fill="#769293" points="71.805,33.913 71.805,37.135 81.112,42.515 81.112,39.287 				"/>
				<polyline fill="#6C8A8C" points="81.112,42.515 81.112,39.287 71.805,33.913 				"/>
				<polygon fill="#BDDCE0" points="81.112,28.54 90.428,33.913 81.112,39.287 71.805,33.913 				"/>
				<polyline fill="#AAC7CC" points="90.428,33.913 81.112,39.287 71.805,33.913 				"/>
			</g>
		</g>
	</g>
	<g>
		<polygon fill="#73E5FF" points="94.238,86.732 116.515,73.871 116.515,76.703 94.238,89.564 		"/>
		<polygon fill="#76C4FF" points="115.708,76.041 94.238,88.437 94.238,86.732 115.708,74.336 		"/>
		<polygon fill="#73E5FF" points="94.238,91.475 116.515,78.613 116.515,81.445 94.238,94.307 		"/>
		<polygon fill="#76C4FF" points="115.708,80.782 94.238,93.178 94.238,91.475 115.708,79.077 		"/>
		<polygon fill="#73E5FF" points="94.238,96.216 116.515,83.354 116.515,86.189 94.238,99.048 		"/>
		<polygon fill="#76C4FF" points="115.708,85.524 94.238,97.92 94.238,96.216 115.708,83.819 		"/>
	</g>
</g>
</svg>
