<?xml version="1.0" standalone="no"?>
<!DOCTYPE svg PUBLIC "-//W3C//DTD SVG 20010904//EN"
 "http://www.w3.org/TR/2001/REC-SVG-20010904/DTD/svg10.dtd">
<svg version="1.0" xmlns="http://www.w3.org/2000/svg"
 width="810.000000pt" height="825.000000pt" viewBox="0 0 810.000000 825.000000"
 preserveAspectRatio="xMidYMid meet">

<g transform="translate(0.000000,825.000000) scale(0.100000,-0.100000)"
fill="#000000" stroke="none">
<path d="M1915 7104 c-91 -52 -226 -152 -233 -174 -5 -13 -3 -13 15 0 115 85
149 108 218 146 44 25 90 45 102 46 27 3 30 13 7 22 -22 9 -21 9 -109 -40z"/>
<path d="M2106 7017 c3 -10 9 -15 12 -12 3 3 0 11 -7 18 -10 9 -11 8 -5 -6z"/>
<path d="M2125 6982 c-49 -26 -139 -80 -199 -121 l-108 -73 -30 34 -29 33 25
-35 25 -36 -49 -33 c-59 -40 -65 -53 -37 -78 19 -16 20 -16 8 0 -16 20 -16 19
43 61 25 17 91 64 148 105 96 68 285 171 315 171 7 0 13 5 13 10 0 20 -36 9
-125 -38z"/>
<path d="M2425 6899 c-22 -12 -74 -41 -117 -65 -116 -66 -497 -342 -542 -393
-18 -20 -18 -23 -3 -38 15 -15 16 -15 11 3 -3 15 12 30 68 67 40 26 98 68 128
92 116 93 457 319 498 330 23 6 31 25 10 25 -7 -1 -31 -10 -53 -21z"/>
<path d="M2641 6840 c-29 -16 -59 -35 -67 -41 -7 -6 -19 -7 -25 -3 -7 4 -9 3
-5 -4 4 -6 -42 -44 -112 -92 -200 -136 -603 -486 -653 -566 -22 -36 -20 -48
14 -66 19 -9 20 -9 11 3 -18 22 23 76 139 181 146 132 647 533 738 590 29 19
40 15 33 -10 -5 -14 -4 -14 6 1 12 19 6 37 -13 37 -7 0 -36 -14 -66 -30z"/>
<path d="M2780 6731 c-13 -11 -28 -17 -32 -15 -4 3 -8 -1 -8 -9 0 -8 -127
-139 -282 -293 -410 -404 -600 -615 -576 -639 3 -3 23 -8 44 -11 37 -4 37 -4
12 7 -47 18 -40 31 92 174 30 33 91 101 135 150 96 106 283 295 494 497 109
104 157 145 163 136 5 -9 8 -8 8 5 0 22 -19 21 -50 -2z"/>
<path d="M2927 6610 c-15 -12 -31 -18 -37 -15 -5 3 -10 0 -10 -7 0 -8 -105
-119 -232 -248 -292 -295 -444 -463 -532 -590 -21 -31 -31 -38 -37 -28 -6 9
-9 5 -9 -14 0 -15 -5 -39 -11 -55 -6 -15 -12 -43 -15 -62 l-4 -34 48 7 c76 10
109 0 117 -38 13 -56 13 -80 -1 -151 -8 -38 -14 -77 -14 -85 1 -28 17 12 25
60 15 98 32 140 102 255 7 11 16 27 20 35 22 46 376 430 395 430 12 0 53 44
50 53 -2 8 33 50 88 106 58 59 68 80 13 28 -35 -34 -52 -45 -56 -35 -5 12 -7
7 -7 -17 0 -3 -8 -13 -17 -23 -10 -10 -38 -43 -63 -72 -25 -30 -88 -97 -141
-150 -121 -121 -239 -253 -239 -268 0 -7 -6 -12 -14 -12 -18 0 -41 -27 -27
-32 6 -1 -8 -31 -31 -66 -43 -65 -66 -79 -30 -17 28 47 10 45 -20 -2 -20 -34
-23 -36 -26 -16 -2 12 -11 24 -20 27 -22 7 -83 10 -102 5 -25 -7 -15 42 23
107 20 33 71 100 114 149 43 48 107 122 142 164 159 190 460 509 550 584 23
19 40 26 53 21 15 -4 19 -2 16 7 -7 22 -32 21 -61 -1z"/>
<path d="M1808 6589 c12 -14 22 -30 22 -37 0 -14 17 -25 24 -14 3 5 -11 24
-32 43 -20 19 -27 22 -14 8z"/>
<path d="M3243 6575 c-34 -13 -92 -39 -128 -60 -54 -30 -69 -34 -81 -24 -12
10 -13 9 -8 -5 4 -11 -1 -23 -12 -32 -16 -13 -14 -13 13 1 18 8 37 15 43 15 6
0 29 12 51 26 23 14 51 27 63 28 11 2 35 9 51 16 89 37 158 47 188 27 12 -8
43 -17 67 -21 l45 -6 -37 16 c-61 26 -36 37 66 29 55 -4 101 -2 116 4 18 7
-31 10 -175 9 -182 -1 -206 -3 -262 -23z"/>
<path d="M3770 6560 c0 -5 -9 -14 -21 -20 -26 -14 -194 -33 -274 -31 -33 1
-86 -5 -117 -12 -41 -10 -59 -11 -62 -3 -3 7 -5 7 -5 -1 -1 -15 -60 -47 -69
-38 -4 3 -2 9 4 13 103 71 133 97 73 66 -50 -26 -225 -174 -205 -174 5 0 2 -8
-5 -17 -12 -14 -10 -14 14 1 51 34 27 -1 -40 -59 -38 -32 -123 -111 -191 -176
-67 -65 -128 -118 -134 -116 -7 1 -13 -5 -13 -13 0 -8 -6 -14 -12 -13 -11 2
-30 -17 -132 -137 -125 -146 -184 -209 -192 -204 -10 6 -61 -69 -88 -130 -24
-56 -25 -60 -9 -50 8 5 9 -5 3 -37 -5 -24 -9 -160 -10 -301 -2 -217 -5 -260
-19 -279 -19 -27 -22 -49 -4 -31 18 18 30 15 24 -5 -10 -37 -16 -88 -8 -69 8
19 9 19 14 -2 4 -12 2 -25 -3 -28 -5 -3 -9 -22 -9 -42 0 -28 3 -33 10 -22 7
11 10 -6 12 -55 3 -122 4 -130 10 -145 11 -26 49 -271 57 -375 8 -94 8 -96 11
-35 2 59 3 62 10 30 5 -19 12 -52 15 -72 4 -26 11 -38 22 -38 13 0 14 -3 6
-11 -9 -9 -7 -21 7 -50 14 -27 16 -39 7 -42 -7 -2 5 -32 36 -85 26 -45 47 -85
47 -89 0 -5 10 -13 22 -18 22 -10 85 -122 74 -132 -3 -3 -13 11 -21 32 -9 20
-19 35 -22 32 -5 -6 16 -59 53 -133 l20 -42 -39 14 c-22 8 -48 14 -59 14 -27
0 -20 -15 45 -109 63 -91 119 -151 141 -151 26 0 18 14 -17 31 -20 10 -57 51
-101 113 -38 53 -67 99 -64 101 2 3 26 -4 54 -14 41 -15 54 -27 76 -67 17 -30
34 -49 45 -49 14 0 19 -11 24 -46 6 -41 33 -109 43 -109 3 0 0 16 -6 36 -15
55 -4 51 31 -11 41 -73 54 -105 40 -105 -5 0 -9 -8 -7 -17 3 -19 30 -51 39
-47 3 2 6 -2 7 -9 2 -27 9 -45 36 -97 16 -30 42 -80 58 -110 l28 -55 -23 -3
c-72 -11 -54 -100 24 -116 45 -9 84 -43 133 -116 59 -87 62 -105 31 -155 l-26
-40 6 61 c4 36 3 64 -3 68 -11 6 -22 -39 -22 -90 0 -19 -4 -34 -8 -34 -5 0
-24 35 -43 77 -33 75 -119 218 -166 278 -21 27 -25 43 -28 130 -4 153 -61 294
-134 333 -47 26 -134 115 -184 190 -42 64 -95 197 -83 209 3 3 29 -6 58 -21
l53 -27 -44 41 c-24 22 -50 40 -57 40 -8 0 -14 7 -14 15 0 8 -18 56 -41 107
-26 59 -48 129 -59 193 -10 55 -19 87 -19 70 -2 -59 29 -183 65 -265 25 -57
34 -91 30 -110 -3 -16 3 -51 14 -81 11 -30 20 -57 20 -62 0 -15 -52 27 -60 48
-5 13 -21 26 -37 30 -46 11 -52 21 -41 68 12 56 2 164 -32 317 -14 67 -18 76
-18 45 -1 -22 3 -62 9 -90 26 -138 30 -295 7 -295 -5 0 -7 4 -4 8 3 4 -4 82
-14 173 -18 152 -19 125 -3 -91 7 -98 -2 -107 -11 -10 -36 404 -56 681 -52
755 2 62 1 74 -4 40 -6 -47 -7 -45 -8 30 -1 44 5 120 13 170 8 49 13 91 11 93
-2 2 -7 -9 -10 -25 -24 -124 -30 -178 -30 -323 -1 -91 -2 -151 -4 -135 -2 17
-7 33 -11 37 -11 12 0 -65 11 -79 7 -8 7 -13 1 -13 -6 0 -7 -22 -2 -57 20
-155 29 -259 27 -330 -1 -61 -2 -66 -5 -23 -5 88 -25 251 -30 246 -3 -3 0 -52
7 -110 9 -73 10 -110 3 -118 -14 -17 7 -162 29 -203 18 -33 74 -82 158 -137
56 -37 113 -99 185 -197 45 -63 41 -63 -86 0 -43 21 -81 39 -83 39 -12 0 -116
84 -116 93 0 5 7 4 15 -3 20 -17 46 3 28 21 -15 15 -50 2 -56 -22 -5 -18 15
-49 32 -49 5 0 19 -11 32 -24 13 -13 35 -27 49 -31 14 -4 67 -28 119 -53 92
-45 108 -63 37 -43 -43 11 -52 1 -31 -36 13 -24 15 -24 9 -5 -5 22 -4 23 33
16 56 -10 82 -26 144 -91 65 -67 109 -163 109 -237 0 -50 -1 -51 -51 -35 -54
19 -98 57 -140 123 -46 72 -51 71 -10 -3 45 -82 91 -125 158 -146 75 -23 83
-30 83 -72 0 -29 3 -33 14 -24 20 17 122 -132 196 -286 l60 -124 -25 -42 c-42
-71 -54 -82 -67 -69 -6 6 -15 56 -19 110 -12 152 -62 256 -143 299 -69 36
-186 56 -186 32 0 -6 -9 -8 -20 -4 -11 4 -20 2 -20 -4 0 -20 -25 -12 -58 18
-17 17 -32 31 -32 33 0 2 12 4 27 3 34 0 41 20 12 36 -19 10 -25 9 -35 -5 -11
-16 -13 -16 -18 2 -15 47 10 60 69 37 20 -8 20 -8 1 13 -10 12 -27 24 -37 27
-13 4 -19 16 -19 35 0 16 -5 41 -12 55 -13 28 -82 70 -98 60 -6 -3 -10 -35
-10 -69 0 -78 15 -96 63 -78 37 14 42 11 28 -16 -24 -44 -5 -96 53 -154 27
-26 27 -28 15 -82 l-12 -55 -23 17 c-13 9 -24 23 -24 30 0 14 -20 17 -20 2 0
-21 -33 -9 -66 24 -29 29 -34 41 -34 80 0 57 21 62 62 14 22 -26 28 -29 28
-15 0 31 -56 79 -87 75 -24 -3 -28 -7 -27 -33 1 -16 2 -46 3 -66 1 -47 47 -93
114 -117 36 -13 61 -31 95 -72 51 -60 84 -94 122 -125 13 -11 -8 16 -48 59
-120 133 -80 110 59 -33 71 -74 127 -136 124 -139 -3 -3 -13 2 -23 11 -10 10
-22 17 -27 17 -5 0 -2 -6 7 -12 9 -7 48 -51 87 -97 72 -83 79 -104 50 -135
-11 -12 -49 21 -43 37 4 12 -56 57 -75 57 -5 0 -21 14 -36 31 -14 17 -28 29
-31 27 -3 -3 7 -20 21 -37 23 -27 25 -32 10 -37 -25 -10 -111 3 -138 20 -28
19 -59 73 -82 146 -10 30 -22 61 -28 68 -5 6 -7 12 -3 12 4 0 -1 14 -9 30
l-16 31 28 -7 c46 -11 107 -41 134 -66 14 -13 41 -36 60 -53 19 -16 48 -58 64
-92 31 -66 47 -80 21 -19 -8 20 -13 36 -10 36 25 0 -211 229 -257 250 -50 22
-197 28 -246 9 -24 -9 -31 -7 -50 15 -24 29 -54 34 -72 12 -17 -20 1 -52 34
-60 14 -4 25 -11 25 -16 0 -20 31 -9 39 14 11 28 44 36 148 36 59 0 84 -5 123
-25 27 -13 51 -29 55 -35 9 -14 -7 -12 -30 3 -28 19 -86 38 -96 31 -5 -3 5
-32 21 -64 17 -33 30 -63 30 -67 1 -22 25 -93 45 -133 40 -77 80 -100 177
-100 53 0 59 -2 48 -15 -7 -8 -8 -15 -2 -15 5 0 15 7 22 15 10 12 23 6 85 -45
40 -33 80 -69 90 -80 16 -18 16 -19 -20 -34 -69 -29 -146 -14 -255 50 -30 17
-65 34 -77 38 -11 4 -24 13 -27 21 -7 19 -46 19 -46 0 0 -7 8 -19 18 -24 13
-8 14 -10 2 -11 -8 0 -25 3 -37 6 -50 14 -9 74 50 74 23 0 31 -6 40 -30 12
-32 30 -35 35 -7 5 24 -43 67 -74 67 -53 0 -108 -49 -97 -88 6 -25 67 -56 94
-49 10 3 17 1 13 -4 -3 -5 2 -6 10 -3 8 3 12 13 9 22 -3 11 -2 13 4 5 10 -14
138 -79 195 -99 22 -7 61 -14 87 -15 25 0 40 -3 34 -6 -7 -2 -13 -14 -14 -26
0 -22 0 -22 -9 1 -15 36 -17 25 -6 -30 10 -49 11 -50 17 -23 4 17 7 26 8 20 3
-20 21 21 22 50 1 29 1 30 9 5 7 -23 8 -23 10 10 l2 35 8 -30 8 -30 1 35 c2
34 2 34 18 15 13 -16 15 -17 10 -3 -8 23 6 23 24 2 12 -15 6 -23 -46 -70 -74
-66 -51 -73 28 -9 31 25 58 45 60 45 11 0 -19 -76 -35 -92 -20 -20 -24 -48 -8
-48 6 0 10 7 10 15 0 8 6 15 14 15 14 0 16 4 42 104 10 38 28 72 49 95 50 54
69 80 105 143 24 43 38 58 54 58 27 0 57 20 120 79 46 42 48 43 25 11 -14 -19
-53 -55 -86 -80 -34 -25 -68 -56 -76 -70 -9 -14 -49 -65 -91 -114 -63 -76 -77
-98 -87 -145 -8 -40 -8 -56 0 -59 6 -2 11 -10 11 -18 0 -8 5 -14 10 -14 6 0
10 4 10 9 0 6 -4 13 -10 16 -14 9 -12 60 4 98 18 45 197 256 241 286 19 13 49
39 65 57 35 41 40 42 40 9 0 -14 5 -44 12 -69 10 -38 9 -51 -11 -103 -12 -32
-35 -79 -51 -104 -25 -36 -30 -54 -30 -103 0 -74 11 -67 13 7 2 39 8 64 24 85
41 56 75 152 69 196 -2 23 -8 67 -12 99 -3 31 -11 57 -16 57 -5 0 -2 7 7 16
23 23 28 12 26 -51 -1 -30 5 -71 14 -91 14 -34 13 -42 -7 -116 -12 -44 -36
-103 -54 -131 -28 -44 -30 -53 -16 -56 9 -2 27 10 40 25 17 21 22 23 17 9 -24
-64 -11 -58 18 8 20 43 41 85 48 93 7 9 25 50 39 92 14 43 30 76 35 76 6 -1
20 -30 32 -65 24 -68 29 -178 14 -272 -4 -26 -4 -47 0 -47 4 0 12 37 17 83
l11 82 -3 -97 c-1 -54 1 -98 5 -98 14 0 20 85 16 215 -3 114 -8 140 -34 212
-38 103 -33 142 32 278 38 77 49 94 60 85 28 -24 75 -108 89 -160 14 -54 14
-55 18 -20 3 22 5 14 5 -25 1 -46 -1 -54 -8 -35 -6 18 -7 12 -2 -20 14 -104 4
-137 -64 -211 -17 -19 -28 -49 -38 -105 -17 -93 -19 -204 -5 -204 6 0 10 33
10 79 0 101 15 179 40 211 54 67 73 103 80 152 l8 53 1 -63 c1 -70 -7 -91 -50
-130 -24 -22 -32 -42 -44 -105 -8 -43 -14 -106 -14 -140 l2 -62 7 75 c14 141
29 191 71 237 39 42 39 43 39 125 0 71 -8 137 -27 228 l-6 25 -7 -25 c-5 -14
-8 -19 -9 -12 -1 7 -10 32 -21 54 -11 23 -18 43 -16 45 2 2 19 -14 38 -35 28
-31 38 -53 47 -105 6 -36 18 -84 26 -107 8 -23 12 -54 8 -68 -4 -17 -2 -23 5
-18 8 5 10 2 6 -8 -9 -23 4 -55 15 -37 6 9 14 4 31 -21 13 -18 38 -46 57 -63
28 -26 38 -48 67 -150 36 -127 45 -129 22 -5 -8 41 -17 106 -21 143 -7 65 -6
73 28 145 20 42 44 106 53 142 l17 65 -30 91 c-24 71 -50 120 -118 220 -49 71
-100 147 -115 169 -15 22 -32 56 -39 75 -23 73 -51 178 -51 193 0 8 -15 35
-33 59 -18 24 -41 57 -51 73 -22 33 -46 60 -46 50 0 -14 35 -73 71 -122 32
-43 58 -107 59 -147 0 -6 -13 10 -28 35 -16 24 -50 66 -75 93 -26 27 -47 53
-47 58 0 4 -4 8 -10 8 -5 0 -10 -13 -10 -30 0 -20 4 -28 13 -24 32 12 181
-185 179 -237 0 -19 3 -27 10 -23 8 5 9 1 5 -10 -4 -9 -3 -15 2 -12 4 3 13 -5
18 -17 6 -13 43 -69 82 -125 39 -56 71 -104 71 -106 0 -3 17 -31 38 -63 21
-33 45 -90 56 -130 l18 -72 -31 -94 c-18 -52 -38 -103 -46 -113 -27 -36 -17
39 13 97 22 43 27 65 25 111 -3 73 -18 108 -81 187 -56 70 -106 111 -134 111
-14 0 -18 -8 -19 -42 0 -35 -2 -39 -9 -21 -14 34 -45 46 -78 31 -22 -11 -28
-21 -30 -55 -2 -23 2 -53 9 -65 18 -35 -11 -8 -33 30 -17 29 -17 29 17 70 19
22 35 43 35 46 0 3 9 15 21 27 11 11 18 23 15 26 -3 3 -15 -5 -26 -18 l-20
-24 -35 40 c-71 82 -100 186 -89 327 5 67 3 85 -8 85 -7 0 -21 4 -30 8 -22 9
-44 -27 -51 -82 -4 -37 -3 -43 14 -43 16 0 19 7 19 50 0 28 4 50 9 50 15 0 21
-30 11 -51 -8 -15 -8 -19 2 -17 9 2 15 -20 19 -77 8 -99 21 -146 59 -210 65
-110 62 -96 29 -145 -17 -25 -35 -47 -41 -49 -6 -2 -8 1 -5 6 9 15 -20 143
-53 233 -49 133 -56 149 -63 156 -7 7 21 -94 30 -108 2 -5 6 -16 8 -25 3 -10
16 -56 30 -102 14 -47 25 -107 25 -133 0 -30 4 -48 12 -48 6 0 -1 -14 -17 -30
-38 -40 -131 -103 -143 -99 -6 2 13 40 43 84 29 44 51 83 48 88 -2 4 1 7 6 7
16 0 13 107 -4 175 -21 78 -71 161 -116 192 -22 15 -39 35 -42 51 -7 34 -44
82 -62 82 -28 0 -49 -61 -51 -143 -1 -66 -5 -82 -23 -100 l-21 -21 0 103 c0
95 2 105 25 132 13 16 29 46 35 67 12 46 13 142 1 142 -5 0 -7 -9 -4 -20 7
-25 -15 -144 -31 -165 -10 -14 -15 -14 -53 5 -50 24 -104 87 -137 161 -14 30
-25 49 -25 42 -1 -18 29 -81 61 -130 16 -23 28 -44 28 -46 0 -3 -23 4 -50 14
-62 24 -71 13 -45 -59 21 -59 29 -68 80 -109 41 -31 49 -50 70 -158 6 -34 -18
-107 -81 -240 -24 -51 -39 -73 -42 -62 -2 10 3 33 11 50 41 87 49 119 54 198
8 117 -18 187 -101 277 -41 44 -56 41 -58 -10 -1 -24 -3 -61 -4 -83 -4 -60 22
-129 78 -203 40 -53 48 -70 43 -91 -3 -14 -7 -34 -8 -43 -1 -10 -4 -18 -8 -18
-4 0 -35 36 -68 80 -50 67 -59 85 -55 109 4 17 -1 41 -11 61 -10 18 -25 57
-35 85 -17 48 -17 57 -3 121 8 38 19 77 24 86 5 10 9 25 9 33 0 8 4 15 9 15
18 0 64 135 69 203 4 62 3 70 -17 84 -14 9 -20 21 -16 30 3 9 0 22 -7 31 -8 9
-13 45 -13 95 1 71 3 82 23 95 27 18 29 36 3 29 -12 -3 -22 1 -25 9 -6 16 -32
19 -41 4 -3 -5 4 -19 15 -30 18 -18 20 -28 14 -68 -4 -26 -8 -56 -7 -67 0 -29
14 -85 22 -85 3 0 7 -21 9 -47 1 -26 6 -50 11 -53 20 -12 -24 -190 -47 -190
-25 0 -72 182 -65 255 3 28 2 47 -2 43 -23 -22 -9 -178 26 -279 17 -49 18 -66
9 -120 -5 -35 -14 -77 -18 -94 l-9 -30 -17 33 c-9 18 -13 38 -9 45 22 35 21
102 -2 127 -24 27 -80 27 -95 1 -16 -32 -12 -47 29 -99 22 -27 49 -72 61 -100
20 -46 21 -52 6 -79 -9 -17 -15 -22 -16 -12 0 16 -16 56 -79 192 -36 78 -36
78 -16 117 9 17 11 30 6 30 -5 0 -13 -9 -16 -20 -11 -35 -32 -21 -64 44 -17
35 -31 68 -31 73 0 5 15 29 33 53 l32 45 -1 120 c-1 109 -4 128 -33 210 -49
133 -130 231 -256 311 -65 40 -82 57 -125 120 -36 51 -63 178 -58 269 1 36 0
66 -3 68 -11 4 -18 100 -10 122 4 11 5 34 0 52 -4 18 -4 35 0 37 4 3 4 30 1
60 -3 31 -2 62 2 70 4 8 9 32 11 53 5 53 65 183 86 184 9 1 24 1 33 0 13 -2
16 3 12 14 -4 9 -10 13 -13 8 -3 -4 -14 -9 -23 -9 -16 -2 -16 1 -3 26 7 14 34
51 58 81 24 30 42 59 40 66 -2 6 1 14 6 18 7 4 9 -5 7 -24 -2 -17 1 -28 5 -25
5 3 9 11 9 17 0 11 84 91 129 123 56 40 272 150 381 195 25 10 39 18 32 18
-27 2 -201 -74 -278 -120 -88 -53 -104 -59 -83 -31 9 11 6 10 -11 -4 -106 -90
-161 -134 -168 -134 -26 2 269 245 391 323 42 27 77 51 77 53 0 17 -193 -117
-312 -216 -54 -45 -98 -77 -98 -72 0 18 186 187 258 235 40 27 72 50 72 53 0
7 -78 -34 -98 -52 -52 -44 -91 -74 -97 -74 -9 0 49 53 83 77 12 8 22 22 22 30
0 8 5 11 12 7 6 -4 8 -3 4 4 -4 6 20 33 54 61 34 28 58 51 54 51 -16 0 -132
-102 -242 -212 -47 -49 -92 -88 -99 -88 -7 0 -10 -6 -7 -15 3 -8 -13 -37 -38
-68 -100 -126 -126 -161 -173 -241 -27 -46 -58 -98 -68 -116 -26 -47 -35 -26
-26 55 18 157 37 246 58 263 9 7 10 11 4 7 -7 -3 -13 -1 -13 4 0 6 4 11 10 11
5 0 7 7 4 15 -3 8 6 46 21 85 31 81 29 106 -3 33 -33 -77 -107 -387 -97 -404
3 -4 -1 -33 -9 -66 -14 -55 -29 -172 -19 -145 15 39 20 -8 20 -165 0 -98 5
-225 12 -283 6 -58 14 -127 17 -155 7 -69 26 -145 35 -139 4 2 10 -5 14 -16 4
-11 10 -18 15 -15 5 3 14 -5 21 -17 12 -22 11 -22 -6 -8 -17 14 -17 14 -7 -7
12 -21 30 -38 43 -38 4 0 26 -12 49 -28 23 -15 46 -24 51 -21 5 3 8 0 7 -8 -2
-7 4 -12 14 -10 9 1 19 -2 23 -8 4 -6 -1 -7 -12 -3 -10 3 3 -16 30 -43 26 -27
54 -58 63 -69 9 -11 6 -2 -6 20 l-22 40 26 -30 c68 -77 116 -214 123 -351 5
-83 2 -107 -12 -138 -10 -20 -19 -35 -20 -34 -2 2 0 42 4 89 3 48 4 108 1 135
-4 38 -6 24 -11 -61 l-6 -110 1 127 c1 70 -2 120 -5 110 -6 -15 -7 -15 -10 2
-2 11 -2 -36 -1 -105 2 -68 0 -139 -5 -156 -5 -22 -8 24 -7 130 0 89 4 173 8
187 5 17 4 21 -2 11 -8 -11 -11 -9 -17 8 -4 13 -9 20 -13 17 -3 -3 -16 11 -28
32 -26 41 -32 68 -9 38 8 -11 15 -15 15 -8 0 15 -120 143 -130 137 -8 -5 -48
35 -49 50 -1 6 -5 10 -11 10 -5 0 -16 9 -24 20 -9 11 -16 16 -16 12 0 -13 38
-66 91 -125 114 -126 171 -219 168 -276 -1 -15 -3 -13 -8 9 -4 17 -19 48 -33
70 -27 43 -186 235 -194 235 -2 0 34 -46 81 -102 47 -57 97 -125 110 -153 30
-62 45 -154 35 -220 -7 -45 -7 -47 -9 -13 -4 122 -94 318 -196 428 -25 27 -95
140 -95 153 0 5 4 6 9 3 4 -3 1 10 -8 28 -10 20 -19 29 -23 22 -12 -17 -9 -28
4 -20 7 4 8 3 4 -5 -10 -15 42 -108 114 -201 60 -79 102 -143 113 -172 10 -29
-1 -21 -18 12 -8 16 -30 45 -48 63 -53 56 -108 130 -125 167 -8 19 -28 63 -45
97 -16 34 -26 66 -23 72 4 6 2 20 -5 32 -6 12 -22 85 -36 163 -21 116 -25 175
-26 339 -1 109 -5 190 -9 180 -4 -11 -7 3 -7 34 -1 28 -6 55 -13 59 -7 4 -8 3
-4 -4 4 -7 3 -12 -2 -12 -5 0 -7 -11 -4 -25 2 -15 0 -25 -7 -25 -11 0 -13 36
-11 330 1 174 7 272 18 280 4 3 8 21 9 40 4 76 59 153 81 114 6 -11 12 -13 16
-6 3 6 2 13 -4 17 -6 4 -3 16 10 32 11 14 17 30 13 37 -3 6 -3 8 2 4 6 -6 35
14 35 24 0 2 61 66 136 142 141 143 179 195 58 80 -38 -37 -86 -82 -106 -102
-21 -20 -41 -33 -44 -29 -9 8 206 227 287 293 36 29 99 86 138 127 40 41 85
81 99 88 47 25 150 129 157 159 4 18 16 32 33 38 126 48 150 51 122 16 -8 -8
-14 -24 -15 -34 -1 -10 -18 -40 -39 -67 l-38 -48 40 43 c22 23 48 65 58 92
l18 50 70 1 c169 2 288 21 321 50 18 17 94 9 176 -21 46 -16 104 -34 127 -40
24 -6 58 -24 75 -40 18 -16 49 -44 70 -61 20 -18 37 -39 37 -47 0 -21 -225
-241 -287 -281 -30 -19 -50 -39 -46 -45 3 -6 3 -8 -2 -4 -10 9 -67 -30 -60
-41 7 -13 -257 -214 -347 -264 -66 -36 -128 -76 -128 -82 0 -3 18 6 40 20 22
14 42 25 45 25 11 0 180 109 230 148 261 202 455 365 518 434 42 45 80 79 83
75 8 -7 -38 -57 -191 -206 -119 -117 -162 -157 -211 -197 -25 -20 -42 -39 -40
-42 7 -7 53 33 206 178 146 138 251 230 262 230 4 0 4 8 1 18 -6 15 -5 15 10
3 9 -7 17 -10 17 -6 0 11 -42 44 -75 59 -16 7 -52 34 -79 59 -58 54 -86 68
-191 99 -44 13 -79 28 -77 33 2 5 -5 12 -15 16 -27 11 -153 10 -153 -1z
m-1443 -1867 c7 -76 -5 -64 -13 13 -4 32 -3 56 1 52 4 -4 9 -33 12 -65z m-80
-520 c-3 -10 -5 -4 -5 12 0 17 2 24 5 18 2 -7 2 -21 0 -30z m130 -35 c-3 -7
-5 -2 -5 12 0 14 2 19 5 13 2 -7 2 -19 0 -25z m-120 -70 c-3 -8 -6 -5 -6 6 -1
11 2 17 5 13 3 -3 4 -12 1 -19z m443 -208 c8 -5 11 -10 5 -10 -5 0 -17 5 -25
10 -8 5 -10 10 -5 10 6 0 17 -5 25 -10z m20 -101 c0 -11 -26 -5 -44 10 -9 7
-14 17 -11 21 3 4 -2 13 -10 20 -8 7 -15 17 -15 23 0 6 18 -7 40 -28 22 -21
40 -42 40 -46z m-98 -108 c46 -53 91 -145 112 -231 23 -93 15 -146 -13 -82
-10 25 -10 26 4 8 27 -36 11 17 -22 73 -2 2 -6 1 -9 -2 -4 -4 -1 -13 6 -22 7
-9 10 -18 7 -21 -3 -3 -13 9 -22 26 -9 18 -12 29 -6 26 6 -4 11 -3 11 2 0 9
-74 158 -96 193 -4 8 -10 23 -11 34 -2 10 -9 23 -16 27 -6 4 -8 8 -2 8 5 0 4
5 -3 12 -7 7 -12 19 -12 27 0 10 6 7 17 -9 9 -14 34 -45 55 -69z m-342 9 c0
-33 -4 -60 -10 -60 -11 0 -14 78 -4 104 11 28 14 18 14 -44z m860 -46 c0 -8
-4 -12 -10 -9 -5 3 -10 10 -10 16 0 5 5 9 10 9 6 0 10 -7 10 -16z m-353 -116
c-3 -8 -6 -5 -6 6 -1 11 2 17 5 13 3 -3 4 -12 1 -19z m-142 -8 c3 -5 1 -10 -4
-10 -6 0 -11 5 -11 10 0 6 2 10 4 10 3 0 8 -4 11 -10z m19 -36 c3 -8 2 -12 -4
-9 -6 3 -10 10 -10 16 0 14 7 11 14 -7z m526 -143 c0 -6 -4 -13 -10 -16 -5 -3
-10 1 -10 9 0 9 5 16 10 16 6 0 10 -4 10 -9z m-373 -33 c-3 -7 -5 -2 -5 12 0
14 2 19 5 13 2 -7 2 -19 0 -25z m20 -309 c34 -69 59 -184 48 -226 -6 -24 -7
-25 -20 -7 -8 11 -15 35 -15 54 -1 48 -23 138 -45 180 -9 19 -34 53 -54 74
l-36 39 45 -25 c36 -21 52 -39 77 -89z m192 70 c16 -29 8 -79 -13 -79 -21 0
-26 22 -9 41 12 14 11 18 -2 29 -11 9 -18 10 -29 1 -11 -9 -15 -9 -19 1 -15
44 48 51 72 7z m280 -74 c47 -27 55 -30 46 -15 -10 16 7 12 27 -7 15 -14 18
-31 17 -122 l-1 -106 -13 49 c-8 28 -12 53 -10 57 3 3 -14 19 -36 35 -23 15
-36 30 -30 32 17 6 13 52 -5 59 -10 4 -22 -1 -29 -11 -11 -15 -14 -13 -24 15
-6 18 -11 34 -11 35 0 10 30 1 69 -21z m224 -33 c9 -10 20 -32 23 -49 5 -26 1
-37 -21 -59 l-27 -27 26 7 c31 8 31 4 10 -78 -18 -69 -15 -152 9 -206 60 -139
75 -183 70 -198 -37 -97 -208 -282 -262 -282 -6 0 -8 7 -5 15 4 8 10 15 15 15
11 0 17 4 76 55 23 20 55 62 70 93 25 51 28 68 27 152 0 76 -5 105 -23 145
-24 54 -69 108 -83 99 -16 -10 -116 -219 -137 -288 -11 -37 -21 -87 -21 -110
0 -45 25 -143 42 -164 10 -12 6 -21 -63 -129 -18 -30 -24 -29 -64 11 l-35 33
1 134 c0 114 3 138 20 164 10 17 23 40 28 52 13 28 28 36 35 18 8 -23 26 -18
26 7 0 12 20 60 44 108 25 47 54 112 67 145 12 35 33 69 50 83 15 13 38 36 49
52 20 28 20 35 10 83 -9 39 -9 62 -1 95 13 47 20 51 44 24z m-226 -7 c8 -22
-6 -33 -17 -15 -13 20 -12 30 0 30 6 0 13 -7 17 -15z m-48 -111 c32 -53 35
-68 39 -152 l4 -94 -41 39 c-44 41 -92 143 -90 190 1 27 1 27 9 -4 10 -45 57
-138 77 -154 15 -13 16 -9 10 43 -10 86 -55 175 -83 164 -16 -6 -17 -2 -8 32
6 21 8 22 28 9 11 -8 37 -41 55 -73z m-723 -20 c7 -29 -7 -44 -43 -44 -17 0
-23 6 -23 21 0 19 1 19 16 5 18 -19 34 -13 34 14 0 22 -23 33 -39 17 -8 -8
-11 -4 -11 16 0 27 0 27 30 12 17 -9 33 -27 36 -41z m690 -19 c14 -30 24 -65
21 -77 -3 -19 -7 -16 -25 24 -24 50 -39 108 -28 108 4 0 18 -25 32 -55z m407
16 c59 -52 89 -122 95 -220 5 -94 -10 -143 -58 -186 -21 -19 -22 -19 -36 -1
-19 27 -73 171 -80 214 -3 21 -1 66 5 102 25 140 22 136 74 91z m-1123 -1 c0
-5 -4 -10 -10 -10 -5 0 -10 5 -10 10 0 6 5 10 10 10 6 0 10 -4 10 -10z m594
-83 c10 -27 15 -51 12 -54 -3 -4 -7 -4 -9 -2 -2 2 -18 23 -35 45 -36 48 -35
44 -22 80 l11 28 12 -25 c7 -13 21 -46 31 -72z m-64 -74 c0 -15 -9 -16 -27 -5
-7 5 -10 17 -6 31 6 23 7 23 20 6 7 -11 13 -25 13 -32z m82 -43 c12 -19 44
-60 70 -91 26 -30 48 -64 48 -75 0 -12 -12 0 -36 34 -20 30 -62 80 -95 113
-35 35 -59 68 -59 80 0 21 0 21 25 -2 14 -13 35 -40 47 -59z m-512 46 c0 -11
-19 -15 -25 -6 -3 5 1 10 9 10 9 0 16 -2 16 -4z m884 -120 c24 -46 30 -73 34
-139 3 -71 0 -89 -21 -137 -30 -65 -73 -116 -105 -125 -21 -6 -18 1 21 48 58
72 81 140 74 223 -5 64 -32 139 -55 148 -13 6 -58 -85 -94 -189 -15 -46 -19
-77 -16 -132 3 -40 10 -79 17 -86 11 -14 6 -47 -9 -47 -10 0 -40 97 -40 132 0
40 27 144 49 188 10 19 35 68 55 108 21 42 42 72 49 69 7 -2 25 -29 41 -61z
m-799 16 c11 -9 26 -30 33 -47 12 -28 11 -28 -19 8 -17 21 -34 36 -36 33 -3
-3 13 -27 36 -54 43 -52 55 -78 21 -47 -11 10 -20 14 -20 8 0 -5 14 -22 30
-36 17 -15 30 -33 30 -40 -1 -6 -27 17 -60 53 -32 35 -61 62 -64 59 -3 -3 33
-48 80 -100 l86 -94 -87 89 c-47 48 -88 86 -91 83 -3 -2 35 -47 83 -99 107
-114 259 -280 300 -328 19 -22 33 -52 38 -80 4 -25 13 -55 21 -67 8 -13 10
-23 5 -23 -17 0 -34 30 -42 76 -8 44 -70 144 -90 144 -15 0 -11 -12 14 -39 12
-14 -3 -3 -33 24 -30 28 -51 52 -46 54 5 2 17 -7 27 -20 10 -13 20 -21 24 -18
3 4 -24 40 -61 80 -112 125 -249 260 -252 249 -2 -6 -8 -8 -13 -5 -12 8 45
156 60 155 3 -1 15 -8 26 -18z m146 -2 c20 -6 56 -27 78 -48 53 -47 91 -144
91 -232 0 -54 -2 -60 -20 -60 -54 0 -162 86 -194 155 -31 64 -74 193 -68 200
8 7 56 1 113 -15z m634 -95 c18 -59 12 -131 -15 -191 -20 -47 -47 -72 -35 -33
4 13 14 37 22 53 20 38 30 146 14 146 -6 0 -11 -17 -11 -41 0 -46 -69 -231
-84 -226 -38 13 -28 151 19 262 18 44 36 89 40 100 l6 20 15 -20 c8 -11 21
-43 29 -70z m607 57 c51 -34 125 -137 138 -193 18 -74 15 -103 -14 -154 l-26
-44 -27 25 c-14 13 -30 24 -34 24 -12 0 -54 87 -67 140 -6 25 -13 74 -17 110
-5 62 -4 63 9 34 7 -17 17 -51 21 -75 10 -69 33 -131 61 -164 20 -25 26 -28
34 -15 24 37 -2 157 -46 216 -38 50 -62 74 -74 74 -5 0 -10 9 -10 20 0 25 17
25 52 2z m-102 -27 c18 -29 21 -44 15 -80 -3 -25 -10 -45 -15 -45 -13 0 -59
59 -66 86 -3 13 -3 35 0 49 9 37 40 32 66 -10z m121 -73 c14 -20 31 -52 37
-71 14 -39 16 -121 4 -121 -16 0 -51 77 -62 138 -6 35 -14 70 -17 78 -10 27
12 13 38 -24z m-1843 -24 c18 -18 14 -38 -7 -38 -23 0 -35 15 -27 35 7 18 18
19 34 3z m1507 -75 c-48 -93 -57 -141 -42 -218 8 -36 7 -38 -6 -21 -14 19 -15
18 -30 -15 -9 -19 -22 -57 -31 -86 -13 -48 -64 -148 -71 -141 -10 9 42 158 71
206 19 32 34 70 34 85 0 42 -25 89 -60 112 -16 11 -30 22 -30 25 0 3 22 15 48
27 26 13 72 43 102 67 30 25 56 45 57 45 2 1 -17 -38 -42 -86z m308 -119 c9
-18 31 -44 48 -58 29 -24 33 -36 44 -109 7 -45 11 -84 9 -86 -7 -8 -56 44 -81
86 -24 42 -41 95 -69 223 -8 36 -19 73 -25 83 -7 14 -7 23 2 34 11 12 16 2 34
-64 12 -43 29 -92 38 -109z m-1140 -20 c115 -116 147 -160 147 -206 0 -21 15
-49 56 -105 10 -14 12 -23 5 -23 -19 0 -63 78 -72 126 -9 49 -11 51 -188 244
-40 44 -71 80 -68 80 2 0 56 -52 120 -116z m702 16 c27 -29 30 -99 6 -130 -23
-28 -26 -27 -35 16 -7 30 -5 31 18 27 19 -4 26 -1 26 10 0 16 -26 30 -41 21
-5 -3 -9 13 -9 35 0 46 8 51 35 21z m-593 -71 c17 -30 47 -74 66 -98 26 -32
37 -56 40 -88 2 -33 0 -44 -9 -41 -18 6 -49 68 -49 98 0 30 -21 63 -80 127
-76 81 -77 83 -35 68 28 -9 44 -24 67 -66z m99 -9 c2 -49 0 -85 -6 -85 -5 0
-22 18 -38 41 l-29 41 33 46 c18 26 34 46 35 44 1 -1 4 -40 5 -87z m846 38
c-3 -8 -6 -5 -6 6 -1 11 2 17 5 13 3 -3 4 -12 1 -19z m-352 -28 c3 -5 1 -10
-4 -10 -6 0 -11 5 -11 10 0 6 2 10 4 10 3 0 8 -4 11 -10z m143 -210 c0 -34 0
-34 -9 9 -4 23 -11 53 -14 65 -2 12 2 8 10 -9 8 -16 14 -46 13 -65z m-708 -55
c24 -25 51 -45 59 -45 12 0 12 -3 3 -12 -9 -9 -15 -9 -20 -3 -4 6 -35 33 -69
59 l-62 48 14 35 c8 20 16 38 16 42 1 3 5 -13 8 -37 6 -32 19 -54 51 -87z
m1127 73 c-3 -8 -6 -5 -6 6 -1 11 2 17 5 13 3 -3 4 -12 1 -19z m-998 -12 l22
-24 -25 -28 c-24 -27 -25 -28 -26 -8 0 12 -3 36 -6 53 -8 37 4 40 35 7z"/>
<path d="M2670 3786 c0 -2 8 -10 18 -17 15 -13 16 -12 3 4 -13 16 -21 21 -21
13z"/>
<path d="M3492 2868 c5 -34 38 -37 38 -4 0 20 -5 26 -21 26 -15 0 -20 -5 -17
-22z m25 -10 c-3 -8 -6 -5 -6 6 -1 11 2 17 5 13 3 -3 4 -12 1 -19z"/>
<path d="M3583 2744 c-10 -26 6 -119 33 -196 14 -40 28 -80 31 -88 8 -27 23
11 23 60 -1 54 -13 110 -41 184 -21 57 -35 69 -46 40z m66 -143 c13 -63 15
-109 2 -95 -25 27 -59 172 -51 219 3 18 37 -69 49 -124z"/>
<path d="M2660 2493 c0 -5 11 -20 25 -33 14 -13 25 -19 25 -13 0 5 -11 20 -25
33 -14 13 -25 19 -25 13z"/>
<path d="M2766 2513 c-27 -28 38 -149 128 -235 39 -38 74 -64 78 -60 23 23
-61 202 -117 247 -49 39 -80 56 -89 48z m72 -54 c32 -23 52 -52 83 -116 23
-46 39 -87 36 -90 -14 -13 -121 96 -151 154 -47 92 -39 104 32 52z"/>
<path d="M3925 2450 c-10 -16 5 -50 21 -50 9 0 14 11 14 30 0 30 -21 42 -35
20z m25 -16 c0 -8 -5 -12 -10 -9 -6 4 -8 11 -5 16 9 14 15 11 15 -7z"/>
<path d="M3348 6553 c6 -2 18 -2 25 0 6 3 1 5 -13 5 -14 0 -19 -2 -12 -5z"/>
<path d="M3136 6485 c-11 -8 -15 -15 -9 -15 6 0 16 7 23 15 16 19 11 19 -14 0z"/>
<path d="M3705 6459 c-10 -30 0 -33 13 -4 6 14 7 25 2 25 -5 0 -12 -9 -15 -21z"/>
<path d="M3070 6439 c0 -5 5 -7 10 -4 6 3 10 8 10 11 0 2 -4 4 -10 4 -5 0 -10
-5 -10 -11z"/>
<path d="M3888 6443 c-9 -2 -19 -16 -23 -30 -3 -14 -34 -56 -68 -92 l-61 -66
63 60 c66 64 128 136 114 134 -4 -1 -15 -3 -25 -6z"/>
<path d="M3661 6357 c-13 -21 -12 -21 5 -5 10 10 16 20 13 22 -3 3 -11 -5 -18
-17z"/>
<path d="M3059 6343 c-13 -16 -12 -17 4 -4 9 7 17 15 17 17 0 8 -8 3 -21 -13z"/>
<path d="M4360 6348 c0 -5 20 -8 45 -8 25 0 45 3 45 8 0 4 -20 7 -45 7 -25 0
-45 -3 -45 -7z"/>
<path d="M4526 6315 c-8 -8 -19 -15 -25 -15 -6 0 -8 -6 -5 -13 3 -8 -2 -19
-10 -26 -12 -10 -21 -9 -45 3 -36 19 -57 20 -67 4 -4 -7 -3 -8 4 -4 7 4 12 2
12 -4 0 -7 7 -10 14 -7 8 3 29 -1 47 -10 31 -15 32 -15 49 7 13 18 19 20 25 9
5 -7 4 -14 -2 -16 -6 -2 -9 -12 -6 -23 13 -50 -127 -246 -270 -375 -34 -31
-51 -51 -38 -45 30 15 214 205 259 268 37 51 87 151 83 167 -1 5 7 1 18 -9 23
-21 21 -28 -29 -111 -35 -58 -53 -95 -46 -95 2 0 22 31 45 70 47 78 67 97 59
57 -3 -16 -1 -24 5 -20 15 9 -2 -36 -44 -114 -21 -40 -34 -75 -29 -78 15 -9
92 155 99 210 l6 50 22 -35 c12 -19 29 -59 39 -89 14 -45 15 -61 6 -98 -16
-59 -15 -74 3 -39 21 39 21 99 2 164 -17 55 -16 57 11 42 9 -5 35 -14 57 -20
65 -16 69 -21 51 -64 -18 -44 -12 -48 9 -5 16 30 17 30 37 12 21 -18 21 -18
14 1 -6 19 -6 19 12 3 10 -9 23 -17 29 -17 14 0 37 -29 29 -37 -3 -3 -15 2
-26 12 -11 10 -23 16 -26 13 -8 -8 56 -68 83 -79 25 -9 43 -45 43 -85 0 -13 4
-24 9 -24 7 0 46 -132 54 -185 2 -11 10 -36 19 -55 34 -79 32 -94 -21 -143
-55 -52 -63 -54 -231 -61 -99 -4 -230 -29 -218 -41 2 -2 25 2 51 10 25 8 97
17 159 20 186 10 195 12 244 57 48 44 74 45 33 2 -56 -60 -75 -67 -201 -75
-126 -8 -301 -49 -407 -96 -59 -26 -210 -57 -331 -67 -135 -12 -224 -28 -260
-46 -87 -44 -212 -45 -440 -5 -145 26 -261 15 -370 -34 -27 -12 -55 -18 -72
-14 -20 4 -35 0 -49 -13 -14 -13 -37 -19 -69 -20 -71 -1 -199 -68 -293 -153
-44 -40 -129 -160 -157 -224 -17 -39 -19 -40 -19 -14 -1 37 34 140 63 185 44
68 165 164 269 213 34 17 36 19 12 14 -35 -8 -194 -112 -248 -164 -21 -20 -45
-48 -53 -63 -8 -16 -21 -28 -28 -28 -10 0 -14 -12 -13 -37 0 -21 -6 -69 -13
-108 -17 -97 -8 -273 18 -350 21 -60 16 -82 -16 -70 -17 6 -9 -22 24 -85 30
-57 82 -107 208 -201 119 -89 113 -83 158 -139 43 -53 98 -164 99 -200 0 -14
4 -34 9 -45 l9 -20 0 20 c3 86 -72 227 -169 318 -39 37 -68 67 -64 67 10 0 62
-41 124 -98 49 -45 63 -65 86 -128 31 -86 44 -94 16 -9 -11 31 -18 64 -15 74
2 9 -3 25 -12 36 -16 20 -16 20 -6 -2 20 -41 11 -38 -37 13 -26 27 -74 70
-107 95 -33 24 -92 75 -132 112 -62 59 -74 67 -92 58 -21 -12 -39 6 -76 78
-17 34 -14 42 20 54 6 2 4 19 -4 44 -7 23 -10 47 -6 53 5 8 4 11 -2 7 -14 -9
-33 90 -33 171 0 97 5 85 30 -70 8 -48 17 -75 24 -72 6 2 25 -19 41 -47 42
-72 148 -168 224 -204 153 -72 145 -66 164 -125 25 -75 57 -233 57 -281 0 -33
4 -41 26 -49 46 -18 95 -1 141 46 24 24 46 56 49 71 4 16 16 38 26 50 17 18
19 30 13 70 -6 46 7 116 34 186 15 39 13 47 -4 17 -26 -48 -47 -153 -41 -202
8 -60 -7 -70 -24 -15 -7 23 -22 62 -34 87 l-22 46 34 45 c19 24 51 78 71 119
29 62 36 89 39 152 4 84 -16 206 -49 293 -37 100 -145 166 -285 173 -79 4 -81
5 -92 35 -6 16 -9 34 -6 38 9 15 177 10 234 -7 66 -20 141 -87 193 -176 20
-34 37 -58 37 -53 0 18 -48 94 -90 144 -62 73 -122 101 -236 111 -54 5 -109 4
-127 -1 -18 -5 -33 -5 -37 0 -3 5 -17 12 -32 16 -28 7 -74 -12 -122 -52 -31
-26 -47 -24 -25 3 52 63 192 138 279 148 23 3 53 12 66 21 13 8 35 15 50 15
15 0 59 11 98 24 39 13 109 27 156 31 82 6 115 3 315 -36 94 -18 224 -6 340
31 76 24 131 34 230 41 147 11 241 32 400 90 83 30 150 46 272 64 186 28 228
37 263 62 14 10 33 16 42 15 23 -4 17 28 -28 161 -18 54 -34 120 -35 150 -1
64 -24 150 -50 196 -16 27 -18 36 -7 43 10 6 6 14 -17 33 -16 13 -39 32 -50
42 -33 30 -109 83 -120 83 -5 0 -18 9 -30 20 -32 33 -137 91 -166 93 -15 1
-25 5 -23 8 5 8 -63 39 -86 39 -21 0 -27 15 -10 25 13 8 13 25 1 25 -5 0 -16
-7 -25 -15z m224 -165 c13 -8 13 -10 -2 -10 -9 0 -20 5 -23 10 -8 13 5 13 25
0z m253 -160 c9 -11 13 -20 8 -20 -4 0 -16 9 -26 20 -10 11 -14 20 -9 20 5 0
17 -9 27 -20z m-2210 -1112 l-1 -63 12 60 12 60 7 -47 c4 -26 8 -89 11 -140 2
-63 1 -77 -4 -43 l-7 50 -3 -60 c-1 -33 -6 -73 -10 -90 -7 -29 -8 -29 -10 10
l-3 40 -7 -40 c-4 -22 -8 -31 -9 -20 -1 11 -8 29 -16 39 -15 19 -15 19 -15 -2
0 -12 12 -52 26 -89 19 -50 27 -91 29 -153 2 -80 2 -81 -4 -20 l-7 65 -4 -60
-3 -60 -7 66 c-5 36 -17 86 -28 110 -62 136 -72 172 -72 250 0 43 6 90 12 106
12 25 13 19 18 -67 l6 -95 2 109 c2 91 4 107 17 102 8 -3 15 0 15 6 0 10 28
37 40 38 3 0 4 -28 3 -62z m66 -16 c6 -20 9 -50 7 -67 -2 -16 -5 -41 -6 -55
-2 -14 -6 7 -10 45 -4 39 -11 83 -15 99 -6 20 -5 27 3 22 6 -4 16 -24 21 -44z
m-190 -128 c1 -49 8 -89 26 -134 14 -35 20 -59 15 -54 -6 6 -19 33 -30 60 -10
27 -19 44 -20 37 0 -6 -3 -20 -6 -30 -5 -15 -4 -16 6 -3 10 13 11 13 6 -3 -3
-9 8 -52 25 -94 17 -42 35 -97 39 -122 l8 -46 1 37 c0 21 -8 61 -19 90 -11 28
-17 54 -15 56 10 10 65 -125 65 -160 0 -43 0 -43 -40 -23 -25 13 -30 21 -30
54 0 22 -12 72 -26 113 -14 40 -28 81 -31 90 -3 10 -9 15 -14 12 -5 -3 -7 1
-4 8 2 7 0 29 -5 48 l-10 35 5 -40 c4 -39 4 -39 -10 -15 -8 14 -14 22 -15 18
0 -3 -3 -14 -7 -24 -4 -12 -3 -15 5 -10 8 4 10 2 6 -8 -3 -8 2 -29 11 -48 14
-28 14 -30 0 -14 -8 11 -15 24 -15 30 0 7 -3 7 -10 0 -7 -7 -6 -21 3 -42 7
-18 16 -29 20 -26 3 4 9 -7 12 -22 4 -16 8 -34 10 -41 2 -7 0 -15 -5 -18 -6
-4 -10 10 -11 32 -1 33 -2 35 -9 13 -8 -27 -9 -26 -31 45 -14 45 -21 125 -9
106 10 -17 30 39 31 88 l1 36 8 -30 8 -30 1 37 c0 20 11 52 24 71 20 32 22 33
29 13 3 -12 6 -53 7 -92z m425 67 c66 -29 104 -58 122 -93 31 -60 63 -203 69
-308 4 -81 -55 -228 -116 -286 -28 -27 -31 -28 -43 -11 -7 9 -19 17 -26 17 -8
0 -10 8 -6 25 4 14 2 34 -4 44 -7 14 -5 31 10 63 30 70 44 174 30 228 -23 84
-116 140 -232 140 -26 0 -48 1 -48 3 0 1 9 31 20 65 11 35 20 83 20 106 l0 42
79 -7 c43 -4 99 -16 125 -28z m-406 -380 c3 -30 2 -42 -6 -37 -6 3 -11 23 -10
44 0 20 -5 50 -11 65 -16 42 -12 47 6 7 9 -19 18 -55 21 -79z m119 87 c-3 -8
-6 -5 -6 6 -1 11 2 17 5 13 3 -3 4 -12 1 -19z m200 -49 c1 -27 -2 -39 -10 -36
-7 2 -11 16 -10 31 1 21 -2 26 -12 22 -8 -3 -15 -1 -15 4 0 7 10 12 40 19 3 0
6 -17 7 -40z m-349 -20 c4 -53 -8 -46 -18 11 -5 29 -4 40 4 37 6 -2 12 -23 14
-48z m285 34 c-7 -2 -19 -2 -25 0 -7 3 -2 5 12 5 14 0 19 -2 13 -5z m-6 -39
c-9 -9 -28 6 -21 18 4 6 10 6 17 -1 6 -6 8 -13 4 -17z m30 4 c-3 -8 -6 -5 -6
6 -1 11 2 17 5 13 3 -3 4 -12 1 -19z m-44 -37 c70 3 68 6 61 -65 -9 -90 -2
-110 46 -129 39 -15 40 -17 40 -62 0 -38 4 -48 20 -52 22 -6 68 -77 89 -136
16 -47 17 -110 2 -115 -6 -2 -11 -13 -11 -25 0 -18 -2 -19 -10 -7 -8 13 -10
12 -10 -4 0 -24 -37 -56 -56 -49 -8 3 -14 2 -12 -3 2 -5 -1 -11 -7 -14 -5 -3
-11 9 -13 25 -4 47 -32 173 -58 258 -32 106 -65 166 -117 219 -44 43 -45 45
-44 110 1 62 2 66 20 57 10 -6 37 -10 60 -8z m160 -19 c4 -19 3 -31 -3 -27 -5
3 -9 -3 -9 -12 -1 -17 -6 -70 -9 -85 -1 -5 -10 -8 -19 -8 -15 0 -16 -2 -3 -10
13 -9 13 -10 0 -10 -19 0 -40 19 -40 37 0 7 7 13 15 13 17 0 20 21 4 37 -7 7
-3 12 16 17 21 5 26 12 22 26 -3 13 -1 18 6 13 7 -4 8 0 4 11 -4 10 -4 22 -1
28 8 12 10 9 17 -30z m-461 -55 c13 -12 32 -33 43 -46 l20 -25 -27 20 c-15 10
-28 22 -28 26 0 4 -10 16 -22 28 -12 11 -19 20 -15 20 3 0 16 -10 29 -23z
m205 -9 c-3 -7 -5 -2 -5 12 0 14 2 19 5 13 2 -7 2 -19 0 -25z m-94 -45 c4 -7
14 -13 21 -13 8 0 16 -7 20 -15 3 -8 13 -15 21 -15 9 0 13 5 10 10 -15 24 15
6 62 -37 50 -47 101 -120 57 -82 -10 9 -48 27 -82 40 -35 12 -66 28 -68 34 -3
7 -27 36 -54 66 -54 57 -68 88 -23 48 16 -13 32 -30 36 -36z m57 2 c7 -8 8
-15 2 -15 -5 0 -15 7 -22 15 -7 8 -8 15 -2 15 5 0 15 -7 22 -15z m-145 -200
c43 -41 74 -75 70 -75 -10 0 -102 67 -139 101 -16 15 -26 32 -22 38 4 6 8 11
10 11 1 0 38 -34 81 -75z"/>
<path d="M2813 4820 c0 -30 2 -43 4 -27 2 15 2 39 0 55 -2 15 -4 2 -4 -28z"/>
<path d="M2771 4814 c0 -11 3 -14 6 -6 3 7 2 16 -1 19 -3 4 -6 -2 -5 -13z"/>
<path d="M2803 4705 c0 -27 2 -38 4 -22 2 15 2 37 0 50 -2 12 -4 0 -4 -28z"/>
<path d="M2743 4695 c0 -22 2 -30 4 -17 2 12 2 30 0 40 -3 9 -5 -1 -4 -23z"/>
<path d="M2782 4685 c0 -16 2 -22 5 -12 2 9 2 23 0 30 -3 6 -5 -1 -5 -18z"/>
<path d="M2721 4654 c0 -11 3 -14 6 -6 3 7 2 16 -1 19 -3 4 -6 -2 -5 -13z"/>
<path d="M2731 4614 c0 -11 3 -14 6 -6 3 7 2 16 -1 19 -3 4 -6 -2 -5 -13z"/>
<path d="M2771 4494 c0 -11 3 -14 6 -6 3 7 2 16 -1 19 -3 4 -6 -2 -5 -13z"/>
<path d="M2566 4614 c-4 -9 -4 -19 -1 -22 2 -3 7 3 11 12 4 9 4 19 1 22 -2 3
-7 -3 -11 -12z"/>
<path d="M3061 4014 c0 -11 3 -14 6 -6 3 7 2 16 -1 19 -3 4 -6 -2 -5 -13z"/>
<path d="M3071 3974 c0 -11 3 -14 6 -6 3 7 2 16 -1 19 -3 4 -6 -2 -5 -13z"/>
<path d="M3152 3920 c0 -14 2 -19 5 -12 2 6 2 18 0 25 -3 6 -5 1 -5 -13z"/>
<path d="M3062 3890 c0 -14 2 -19 5 -12 2 6 2 18 0 25 -3 6 -5 1 -5 -13z"/>
<path d="M3091 3894 c0 -11 3 -14 6 -6 3 7 2 16 -1 19 -3 4 -6 -2 -5 -13z"/>
<path d="M3162 3870 c0 -14 2 -19 5 -12 2 6 2 18 0 25 -3 6 -5 1 -5 -13z"/>
<path d="M3142 3850 c0 -14 2 -19 5 -12 2 6 2 18 0 25 -3 6 -5 1 -5 -13z"/>
<path d="M3072 3845 c0 -11 4 -33 8 -50 7 -27 8 -27 8 -5 0 14 -4 36 -8 50 -6
20 -8 21 -8 5z"/>
<path d="M3121 3814 c0 -11 3 -14 6 -6 3 7 2 16 -1 19 -3 4 -6 -2 -5 -13z"/>
<path d="M3040 4320 c0 -5 5 -10 10 -10 6 0 10 5 10 10 0 6 -4 10 -10 10 -5 0
-10 -4 -10 -10z"/>
<path d="M3040 4280 c0 -5 5 -10 10 -10 6 0 10 5 10 10 0 6 -4 10 -10 10 -5 0
-10 -4 -10 -10z"/>
<path d="M2820 4221 c0 -5 7 -12 16 -15 14 -5 15 -4 4 9 -14 17 -20 19 -20 6z"/>
<path d="M1870 6295 c7 -9 15 -13 17 -11 7 7 -7 26 -19 26 -6 0 -6 -6 2 -15z"/>
<path d="M3197 6217 c-14 -19 -80 -80 -146 -137 -67 -56 -121 -105 -121 -108
0 -6 18 8 115 89 95 80 191 176 183 184 -3 3 -17 -10 -31 -28z"/>
<path d="M4473 6208 c-20 -26 -26 -41 -15 -34 12 7 36 46 29 46 -3 0 -9 -6
-14 -12z"/>
<path d="M4429 6143 c-13 -16 -12 -17 4 -4 9 7 17 15 17 17 0 8 -8 3 -21 -13z"/>
<path d="M4324 6028 l-29 -33 33 29 c17 17 32 31 32 33 0 8 -8 1 -36 -29z"/>
<path d="M1909 5985 c26 -25 51 -45 56 -45 9 0 -87 89 -97 90 -4 0 15 -20 41
-45z"/>
<path d="M3765 6004 l-30 -26 33 22 c17 12 32 23 32 26 0 7 -4 5 -35 -22z"/>
<path d="M4461 6006 c-10 -11 -9 -14 1 -12 14 2 23 15 15 22 -2 2 -10 -2 -16
-10z"/>
<path d="M3494 5988 l-19 -23 23 19 c21 18 27 26 19 26 -2 0 -12 -10 -23 -22z"/>
<path d="M3669 5993 c-13 -16 -12 -17 4 -4 9 7 17 15 17 17 0 8 -8 3 -21 -13z"/>
<path d="M4593 5983 c-3 -10 -8 -22 -11 -27 -3 -5 0 -6 5 -3 11 7 25 47 17 47
-3 0 -7 -8 -11 -17z"/>
<path d="M3419 5973 c-13 -16 -12 -17 4 -4 9 7 17 15 17 17 0 8 -8 3 -21 -13z"/>
<path d="M2899 5953 c-13 -16 -12 -17 4 -4 9 7 17 15 17 17 0 8 -8 3 -21 -13z"/>
<path d="M3598 5901 c-89 -54 -117 -78 -43 -36 75 43 125 75 125 80 0 7 3 8
-82 -44z"/>
<path d="M4209 5923 c-13 -16 -12 -17 4 -4 16 13 21 21 13 21 -2 0 -10 -8 -17
-17z"/>
<path d="M2834 5894 l-39 -35 43 32 c38 30 48 39 39 39 -2 0 -21 -16 -43 -36z"/>
<path d="M3745 5899 c-27 -17 -54 -36 -60 -42 -11 -11 58 28 96 55 40 28 17
20 -36 -13z"/>
<path d="M4511 5897 c-13 -21 -12 -21 5 -5 10 10 16 20 13 22 -3 3 -11 -5 -18
-17z"/>
<path d="M3514 5894 c-18 -14 -18 -15 4 -4 12 6 22 13 22 15 0 8 -5 6 -26 -11z"/>
<path d="M4316 5835 c-39 -41 -75 -75 -80 -75 -5 0 -2 8 5 18 13 15 12 16 -3
3 -10 -7 -16 -17 -13 -21 3 -5 -9 -20 -27 -35 -22 -18 -25 -23 -10 -15 32 16
185 151 178 157 -3 3 5 14 17 24 12 10 18 18 13 19 -5 0 -41 -34 -80 -75z"/>
<path d="M2574 5878 l-19 -23 23 19 c21 18 27 26 19 26 -2 0 -12 -10 -23 -22z"/>
<path d="M3329 5883 c-9 -10 -53 -45 -98 -77 -88 -64 -105 -82 -38 -39 67 42
147 105 147 115 0 5 5 6 12 2 7 -4 8 -3 4 4 -9 15 -9 15 -27 -5z"/>
<path d="M4154 5878 l-19 -23 25 20 c14 11 27 21 29 22 2 2 0 3 -6 3 -5 0 -18
-10 -29 -22z"/>
<path d="M3109 5873 c-13 -16 -12 -17 4 -4 9 7 17 15 17 17 0 8 -8 3 -21 -13z"/>
<path d="M4350 5782 c-47 -47 -71 -76 -55 -65 39 28 162 153 150 152 -6 0 -48
-39 -95 -87z"/>
<path d="M4704 5848 l-19 -23 23 19 c21 18 27 26 19 26 -2 0 -12 -10 -23 -22z"/>
<path d="M2769 5843 c-13 -16 -12 -17 4 -4 16 13 21 21 13 21 -2 0 -10 -8 -17
-17z"/>
<path d="M3798 5834 c-21 -13 -38 -26 -38 -29 0 -14 29 -1 59 25 41 36 30 38
-21 4z"/>
<path d="M4986 5851 c-4 -7 -5 -15 -2 -18 9 -9 19 4 14 18 -4 11 -6 11 -12 0z"/>
<path d="M3039 5813 l-34 -38 38 34 c34 33 42 41 34 41 -2 0 -19 -17 -38 -37z"/>
<path d="M4509 5833 c-13 -16 -12 -17 4 -4 9 7 17 15 17 17 0 8 -8 3 -21 -13z"/>
<path d="M4450 5825 c-7 -9 -8 -15 -2 -15 5 0 12 7 16 15 3 8 4 15 2 15 -2 0
-9 -7 -16 -15z"/>
<path d="M5027 5825 c-4 -8 -2 -17 3 -20 6 -4 10 3 10 14 0 25 -6 27 -13 6z"/>
<path d="M3450 5810 c-14 -11 -20 -20 -14 -20 6 0 19 9 29 20 23 25 17 25 -15
0z"/>
<path d="M2719 5793 c-44 -50 -62 -73 -56 -73 3 0 24 23 47 50 44 53 51 69 9
23z"/>
<path d="M4049 5803 c-13 -16 -12 -17 4 -4 9 7 17 15 17 17 0 8 -8 3 -21 -13z"/>
<path d="M3565 5790 c-16 -11 -25 -20 -20 -20 10 0 64 39 55 40 -3 0 -18 -9
-35 -20z"/>
<path d="M2489 5773 c-13 -16 -12 -17 4 -4 9 7 17 15 17 17 0 8 -8 3 -21 -13z"/>
<path d="M3324 5774 c-18 -14 -18 -15 4 -4 12 6 22 13 22 15 0 8 -5 6 -26 -11z"/>
<path d="M3383 5769 c-18 -12 -33 -23 -33 -25 0 -7 58 25 65 36 9 14 5 13 -32
-11z"/>
<path d="M4004 5774 c-18 -14 -18 -15 4 -4 12 6 22 13 22 15 0 8 -5 6 -26 -11z"/>
<path d="M4410 5779 c0 -5 5 -7 10 -4 6 3 10 8 10 11 0 2 -4 4 -10 4 -5 0 -10
-5 -10 -11z"/>
<path d="M4455 5770 c-10 -11 -14 -20 -9 -20 5 0 15 9 22 20 7 11 11 20 9 20
-2 0 -12 -9 -22 -20z"/>
<path d="M3200 5752 c-80 -48 -195 -129 -210 -148 -14 -18 -14 -18 7 -4 11 8
70 48 130 89 105 71 132 92 123 90 -3 0 -25 -12 -50 -27z"/>
<path d="M3686 5750 c-45 -34 -62 -52 -26 -27 14 10 35 22 48 29 12 6 22 15
22 20 0 11 0 11 -44 -22z"/>
<path d="M4704 5758 l-19 -23 23 19 c21 18 27 26 19 26 -2 0 -12 -10 -23 -22z"/>
<path d="M4950 5737 c-33 -38 -33 -39 -7 -22 25 16 53 53 45 59 -2 1 -19 -15
-38 -37z"/>
<path d="M2947 5740 c-95 -72 -326 -283 -367 -336 -14 -18 -14 -18 5 -4 11 7
26 21 33 29 6 8 12 10 12 4 0 -6 48 37 108 96 104 104 161 157 230 214 44 36
28 34 -21 -3z"/>
<path d="M3505 5760 c-3 -6 1 -7 9 -4 18 7 21 14 7 14 -6 0 -13 -4 -16 -10z"/>
<path d="M3885 5760 c-3 -6 1 -7 9 -4 18 7 21 14 7 14 -6 0 -13 -4 -16 -10z"/>
<path d="M1971 5756 c7 -8 118 -10 126 -3 3 4 -24 7 -62 7 -38 0 -66 -2 -64
-4z"/>
<path d="M4374 5738 l-19 -23 23 19 c12 11 22 21 22 23 0 8 -8 2 -26 -19z"/>
<path d="M4100 5740 c-9 -6 -10 -10 -3 -10 6 0 15 5 18 10 8 12 4 12 -15 0z"/>
<path d="M3245 5730 c-3 -6 1 -7 9 -4 18 7 21 14 7 14 -6 0 -13 -4 -16 -10z"/>
<path d="M3924 5724 c-18 -14 -18 -15 4 -4 12 6 22 13 22 15 0 8 -5 6 -26 -11z"/>
<path d="M4590 5722 c0 -5 -11 -15 -25 -22 -14 -7 -23 -15 -21 -17 4 -4 -4
-14 -98 -112 l-51 -54 56 46 c63 53 166 167 150 167 -6 0 -11 -4 -11 -8z"/>
<path d="M2569 5693 c-13 -16 -12 -17 4 -4 9 7 17 15 17 17 0 8 -8 3 -21 -13z"/>
<path d="M2610 5663 c-23 -26 -48 -61 -56 -78 -7 -16 -21 -39 -31 -50 -11 -11
-18 -26 -16 -32 5 -13 73 69 73 86 0 5 18 32 41 61 52 66 45 76 -11 13z"/>
<path d="M3211 5664 c-60 -41 -107 -79 -71 -58 43 25 150 96 150 100 0 9 -18
0 -79 -42z"/>
<path d="M4329 5693 c-13 -16 -12 -17 4 -4 9 7 17 15 17 17 0 8 -8 3 -21 -13z"/>
<path d="M3844 5684 c-18 -14 -18 -15 4 -4 12 6 22 13 22 15 0 8 -5 6 -26 -11z"/>
<path d="M4087 5661 c-38 -21 -63 -41 -56 -43 11 -4 129 68 129 78 0 6 -1 6
-73 -35z"/>
<path d="M4350 5680 c-14 -11 -30 -18 -37 -15 -16 5 -63 -33 -63 -51 0 -25 34
-8 35 18 0 3 4 10 9 15 5 5 6 3 2 -4 -13 -23 8 -13 49 22 43 37 46 47 5 15z"/>
<path d="M3313 5654 c-35 -19 -63 -37 -63 -40 0 -6 109 53 125 68 17 15 0 8
-62 -28z"/>
<path d="M3688 5683 c7 -3 16 -2 19 1 4 3 -2 6 -13 5 -11 0 -14 -3 -6 -6z"/>
<path d="M4784 5657 l-29 -32 30 25 c17 14 32 26 34 28 2 1 2 4 -1 7 -2 3 -18
-10 -34 -28z"/>
<path d="M3119 5649 l-24 -20 28 17 c15 9 27 18 27 20 0 8 -8 4 -31 -17z"/>
<path d="M3615 5634 c-22 -20 -31 -31 -20 -25 29 15 82 60 70 60 -5 0 -28 -16
-50 -35z"/>
<path d="M3768 5644 c-27 -13 -48 -27 -48 -29 0 -3 23 6 50 20 28 14 50 28 50
30 0 7 1 7 -52 -21z"/>
<path d="M4190 5649 c-22 -18 -22 -19 -3 -10 12 6 25 16 28 21 9 15 3 12 -25
-11z"/>
<path d="M4594 5648 l-19 -23 23 19 c21 18 27 26 19 26 -2 0 -12 -10 -23 -22z"/>
<path d="M4844 5638 l-29 -33 33 29 c30 28 37 36 29 36 -2 0 -16 -15 -33 -32z"/>
<path d="M4960 5652 c-8 -10 -21 -29 -28 -43 l-13 -24 22 25 c12 14 26 24 32
22 5 -2 7 4 4 12 -4 9 1 17 11 19 13 4 14 5 2 6 -9 0 -22 -7 -30 -17z"/>
<path d="M3998 5644 c-39 -21 -35 -28 5 -8 37 19 44 24 31 24 -5 -1 -21 -8
-36 -16z"/>
<path d="M4906 5648 c3 -5 10 -6 15 -3 13 9 11 12 -6 12 -8 0 -12 -4 -9 -9z"/>
<path d="M2465 5594 c-44 -50 -44 -54 0 -12 21 21 37 39 35 42 -3 2 -18 -12
-35 -30z"/>
<path d="M3844 5614 c-18 -14 -18 -14 6 -3 31 14 36 19 24 19 -6 0 -19 -7 -30
-16z"/>
<path d="M3315 5581 c-33 -16 -69 -36 -80 -45 -11 -9 17 2 63 25 45 22 82 42
82 45 0 6 2 6 -65 -25z"/>
<path d="M3644 5592 c-7 -7 -17 -12 -21 -12 -16 2 -43 -8 -43 -17 0 -4 30 -6
67 -4 53 3 64 6 51 14 -15 10 -15 12 0 23 14 11 13 12 -12 11 -16 -1 -35 -8
-42 -15z"/>
<path d="M5080 5603 c0 -5 -17 -27 -37 -48 -21 -21 -32 -36 -24 -33 20 6 76
76 68 85 -4 3 -7 2 -7 -4z"/>
<path d="M3158 5574 c-38 -20 -36 -28 2 -9 17 9 30 18 30 20 0 7 -1 6 -32 -11z"/>
<path d="M3950 5570 c-9 -6 -10 -10 -3 -10 6 0 15 5 18 10 8 12 4 12 -15 0z"/>
<path d="M4160 5569 c0 -5 5 -7 10 -4 6 3 10 8 10 11 0 2 -4 4 -10 4 -5 0 -10
-5 -10 -11z"/>
<path d="M4698 5536 c-85 -55 -315 -141 -334 -126 -9 8 -20 7 -41 -3 -29 -15
-103 -38 -103 -32 0 2 34 20 76 40 42 20 73 39 71 42 -3 2 -16 -2 -29 -11 -12
-8 -27 -16 -33 -17 -5 0 -38 -14 -72 -29 -34 -16 -72 -32 -84 -35 -34 -11 -14
11 23 25 41 17 188 100 188 107 0 3 -21 -8 -47 -23 -73 -43 -221 -114 -237
-114 -8 0 -17 -4 -21 -9 -3 -6 -13 -9 -23 -9 -21 1 -77 -21 -70 -28 3 -2 17 0
32 6 15 5 53 10 83 10 31 0 70 4 87 10 17 5 98 25 179 44 81 20 189 53 240 75
51 21 100 41 110 44 10 4 16 11 13 16 -4 5 10 19 29 31 19 12 35 24 35 26 0 7
-2 5 -72 -40z"/>
<path d="M4760 5550 c-25 -16 -40 -30 -35 -30 6 0 30 14 55 30 25 16 41 30 35
29 -5 0 -30 -13 -55 -29z"/>
<path d="M3861 5551 c-26 -14 -30 -19 -18 -24 9 -3 32 0 52 9 40 16 46 24 13
17 -19 -4 -20 -3 -8 6 24 17 -2 12 -39 -8z m19 -11 c-8 -5 -19 -10 -25 -10 -5
0 -3 5 5 10 8 5 20 10 25 10 6 0 3 -5 -5 -10z"/>
<path d="M4637 5546 c-48 -29 -61 -43 -22 -23 31 16 74 46 65 46 -3 0 -22 -10
-43 -23z"/>
<path d="M3400 5550 c-9 -6 -10 -10 -3 -10 6 0 15 5 18 10 8 12 4 12 -15 0z"/>
<path d="M4180 5550 c0 -5 5 -10 11 -10 5 0 7 5 4 10 -3 6 -8 10 -11 10 -2 0
-4 -4 -4 -10z"/>
<path d="M4569 5543 c-13 -16 -12 -17 4 -4 16 13 21 21 13 21 -2 0 -10 -8 -17
-17z"/>
<path d="M4853 5519 c-24 -22 -43 -44 -43 -49 0 -4 -6 -11 -12 -13 -9 -4 -9
-6 -2 -6 7 -1 27 16 45 36 21 24 40 37 53 36 20 -3 20 -2 2 5 -14 6 -16 11 -8
16 7 4 16 5 21 1 5 -3 12 -1 16 5 16 26 -35 5 -72 -31z"/>
<path d="M2480 5535 c-7 -9 -8 -15 -2 -15 5 0 12 7 16 15 3 8 4 15 2 15 -2 0
-9 -7 -16 -15z"/>
<path d="M3360 5541 c0 -6 -10 -12 -22 -12 -17 -1 -18 -3 -6 -6 23 -6 55 12
39 21 -6 4 -11 2 -11 -3z"/>
<path d="M3480 5540 c-9 -6 -10 -10 -3 -10 6 0 15 5 18 10 8 12 4 12 -15 0z"/>
<path d="M4136 5543 c5 -5 12 -12 15 -16 3 -5 9 -2 12 7 5 12 0 16 -15 16 -12
0 -17 -3 -12 -7z"/>
<path d="M4461 5536 c-8 -10 -9 -16 -1 -21 5 -3 10 -5 11 -3 4 18 7 38 4 38
-1 0 -8 -6 -14 -14z"/>
<path d="M3068 5524 c-38 -20 -36 -28 2 -9 17 9 30 18 30 20 0 7 -1 6 -32 -11z"/>
<path d="M3740 5530 c-8 -5 -10 -10 -5 -10 6 0 17 5 25 10 8 5 11 10 5 10 -5
0 -17 -5 -25 -10z"/>
<path d="M4095 5530 c-3 -5 1 -10 9 -10 9 0 16 5 16 10 0 6 -4 10 -9 10 -6 0
-13 -4 -16 -10z"/>
<path d="M4114 5504 c-18 -14 -18 -15 4 -4 12 6 22 13 22 15 0 8 -5 6 -26 -11z"/>
<path d="M4425 5511 c-3 -5 -2 -12 3 -15 5 -3 9 1 9 9 0 17 -3 19 -12 6z"/>
<path d="M3745 5500 c-3 -6 1 -7 9 -4 18 7 21 14 7 14 -6 0 -13 -4 -16 -10z"/>
<path d="M4040 5490 c-9 -6 -10 -10 -3 -10 6 0 15 5 18 10 8 12 4 12 -15 0z"/>
<path d="M4915 5480 c-11 -12 -13 -20 -6 -20 6 0 14 7 17 15 4 8 11 12 17 8 6
-3 7 -1 3 5 -9 16 -10 15 -31 -8z"/>
<path d="M3683 5475 c-17 -7 -34 -11 -37 -8 -3 4 -6 1 -6 -6 0 -14 28 -8 70
15 33 17 14 17 -27 -1z"/>
<path d="M2402 5469 c2 -6 8 -10 13 -10 5 0 11 4 13 10 2 6 -4 11 -13 11 -9 0
-15 -5 -13 -11z"/>
<path d="M4064 5464 c-18 -14 -18 -15 4 -4 12 6 22 13 22 15 0 8 -5 6 -26 -11z"/>
<path d="M3508 5463 c7 -3 16 -2 19 1 4 3 -2 6 -13 5 -11 0 -14 -3 -6 -6z"/>
<path d="M2161 5402 c-11 -33 -20 -70 -20 -83 1 -20 2 -21 6 -4 2 11 13 46 25
78 11 32 18 60 16 63 -3 2 -15 -22 -27 -54z"/>
<path d="M3590 5450 c0 -5 -7 -6 -17 -3 -12 5 -14 3 -8 -7 6 -10 4 -12 -7 -7
-9 3 -71 -10 -139 -29 -67 -18 -124 -32 -127 -30 -6 6 45 31 106 50 51 17 74
34 30 21 -72 -20 -148 -59 -148 -75 0 -17 3 -17 73 1 39 10 95 19 122 19 33 0
45 3 36 9 -11 7 -10 10 5 14 11 3 40 10 67 17 48 13 64 30 27 30 -11 0 -20 -4
-20 -10z"/>
<path d="M3745 5434 c-43 -16 -95 -26 -137 -27 -76 -3 -104 -16 -37 -19 73 -2
90 -1 161 12 38 8 63 17 57 21 -8 4 -4 9 10 14 11 3 21 11 21 16 0 5 -1 9 -2
8 -2 0 -34 -11 -73 -25z"/>
<path d="M4413 5443 c-24 -8 -43 -19 -43 -24 0 -13 10 -11 60 16 51 27 45 29
-17 8z"/>
<path d="M2196 5435 c-3 -9 -6 -22 -5 -28 0 -7 5 -1 10 12 5 13 8 26 5 28 -2
2 -6 -3 -10 -12z"/>
<path d="M2919 5433 c-13 -16 -12 -17 4 -4 9 7 17 15 17 17 0 8 -8 3 -21 -13z"/>
<path d="M2380 5435 c0 -2 7 -8 15 -15 12 -10 15 -10 15 2 0 8 -7 15 -15 15
-8 0 -15 -1 -15 -2z"/>
<path d="M4005 5430 c-3 -5 -1 -10 4 -10 6 0 11 5 11 10 0 6 -2 10 -4 10 -3 0
-8 -4 -11 -10z"/>
<path d="M4070 5420 c-9 -6 -10 -10 -3 -10 6 0 15 5 18 10 8 12 4 12 -15 0z"/>
<path d="M2879 5403 c-13 -16 -12 -17 4 -4 9 7 17 15 17 17 0 8 -8 3 -21 -13z"/>
<path d="M5178 5380 c3 -8 4 -23 4 -32 0 -10 4 -18 9 -18 6 0 9 -8 8 -17 -1
-10 2 -27 7 -38 5 -11 9 -39 9 -62 0 -22 3 -39 6 -37 3 2 5 -19 3 -46 -2 -27
0 -51 4 -54 5 -3 5 -31 1 -63 -4 -32 -8 -69 -10 -83 -1 -14 -5 -3 -9 25 l-7
50 -2 -50 c-1 -27 -8 -68 -16 -90 -8 -22 -15 -59 -15 -82 0 -28 -4 -43 -12
-43 -7 0 -29 -10 -48 -22 -19 -12 -39 -22 -43 -23 -4 0 -11 -6 -16 -13 -5 -8
-11 -13 -15 -13 -3 1 -7 1 -8 0 -2 0 -14 -3 -28 -5 -14 -3 -27 -9 -28 -14 -2
-6 -7 -8 -12 -5 -4 3 -13 -2 -20 -10 -7 -8 -18 -15 -26 -15 -7 0 -18 -9 -24
-20 -6 -11 -31 -31 -55 -46 -42 -24 -58 -44 -35 -44 15 0 63 32 73 47 4 7 14
13 21 13 7 0 25 9 38 20 14 10 29 16 33 12 5 -4 6 0 3 8 -4 11 1 16 15 18 12
0 27 8 33 17 6 8 16 15 22 15 6 0 16 8 21 18 8 13 10 14 11 2 0 -9 3 -11 8 -5
8 12 113 67 118 62 6 -5 26 -189 21 -193 -7 -8 -37 87 -37 118 0 33 -15 38
-23 7 -7 -25 9 -77 61 -194 22 -49 49 -119 61 -155 39 -112 65 -175 81 -188 8
-8 10 -11 3 -8 -7 4 -9 -1 -6 -14 3 -11 9 -18 13 -15 4 3 8 -1 7 -8 -1 -34 5
-47 21 -47 12 0 14 -2 4 -8 -10 -7 -7 -21 13 -65 13 -31 34 -87 46 -124 12
-38 27 -77 32 -88 6 -11 12 -26 13 -32 4 -23 29 -73 36 -73 5 0 8 -12 8 -26 0
-14 -4 -23 -9 -20 -5 4 -22 1 -38 -5 -15 -6 -57 -14 -93 -18 -46 -5 -59 -10
-45 -15 11 -4 29 -12 40 -16 11 -5 25 -10 31 -12 8 -2 3 -16 -12 -38 -16 -23
-24 -29 -24 -17 0 9 -4 17 -10 17 -5 0 -10 -9 -10 -20 0 -25 49 -148 62 -156
20 -12 18 5 -7 57 -30 65 -31 79 -6 79 31 0 91 43 85 61 -2 9 5 24 16 34 18
16 20 17 14 2 -3 -9 -10 -17 -15 -17 -5 0 -9 -4 -9 -10 0 -24 30 6 49 50 25
57 21 129 -8 166 -38 48 -228 496 -261 614 -16 58 -35 123 -55 185 -28 87 -30
215 -6 343 12 62 21 143 20 180 -3 112 -53 348 -69 323 -4 -7 -10 -9 -12 -5
-3 5 -3 2 0 -6z m28 -584 c-4 -19 -12 -38 -18 -42 -7 -5 -9 5 -3 32 4 21 9 43
12 47 10 17 15 -3 9 -37z m325 -1051 c22 -53 27 -75 19 -75 -6 0 -51 113 -66
168 -5 20 30 -49 47 -93z m-62 -219 c-22 -20 -22 -20 -6 0 9 11 17 27 18 35 0
11 2 11 6 0 3 -7 -5 -23 -18 -35z"/>
<path d="M2262 5355 c0 -16 2 -22 5 -12 2 9 2 23 0 30 -3 6 -5 -1 -5 -18z"/>
<path d="M3244 5355 c-18 -14 -18 -14 4 -8 12 3 22 9 22 14 0 12 -3 11 -26 -6z"/>
<path d="M2633 5327 c-21 -19 -48 -42 -60 -53 -13 -10 -23 -25 -23 -33 0 -7
23 9 51 38 27 28 54 51 58 51 5 0 11 7 15 15 8 22 0 19 -41 -18z"/>
<path d="M4590 5353 c-8 -3 -26 -10 -39 -15 -13 -5 -21 -11 -19 -14 3 -2 27 4
54 15 42 17 46 29 4 14z"/>
<path d="M2560 5315 c-12 -19 -34 -42 -48 -50 -23 -12 -24 -14 -7 -15 l20 -1
-20 -17 c-11 -9 -21 -28 -23 -42 -2 -14 -17 -52 -33 -84 -16 -32 -32 -75 -34
-95 -5 -36 -5 -36 13 9 33 80 92 199 102 205 6 3 10 14 10 24 0 10 11 35 25
56 15 20 24 39 22 42 -3 2 -15 -12 -27 -32z"/>
<path d="M3458 5343 c7 -3 16 -2 19 1 4 3 -2 6 -13 5 -11 0 -14 -3 -6 -6z"/>
<path d="M3396 5331 c-3 -4 6 -6 19 -3 14 2 25 6 25 8 0 8 -39 4 -44 -5z"/>
<path d="M3130 5311 c-25 -9 -89 -38 -142 -64 -53 -26 -110 -47 -125 -47 -15
-1 -48 -12 -73 -26 -25 -14 -36 -22 -25 -18 11 4 40 10 65 14 25 3 101 33 170
66 69 33 141 67 160 76 44 21 29 20 -30 -1z"/>
<path d="M3335 5320 c-11 -5 -47 -9 -80 -10 -54 -2 -56 -3 -25 -10 19 -4 50
-11 69 -15 24 -6 32 -5 27 3 -4 7 6 17 26 26 18 8 26 14 18 14 -8 1 -24 -3
-35 -8z"/>
<path d="M2252 5270 c-1 -30 -13 -120 -27 -200 -26 -152 -28 -166 -20 -159 12
12 56 314 52 361 l-3 53 -2 -55z"/>
<path d="M4475 5305 c-16 -8 -23 -14 -15 -14 8 0 26 6 40 14 32 18 15 18 -25
0z"/>
<path d="M2161 5294 c0 -11 3 -14 6 -6 3 7 2 16 -1 19 -3 4 -6 -2 -5 -13z"/>
<path d="M3885 5300 c-3 -6 1 -7 9 -4 18 7 21 14 7 14 -6 0 -13 -4 -16 -10z"/>
<path d="M3535 5295 c-5 -1 -36 -8 -67 -15 -59 -13 -71 -36 -14 -27 45 8 124
31 132 40 7 7 -31 9 -51 2z"/>
<path d="M2128 5284 c-5 -4 -8 -16 -8 -28 0 -14 3 -17 11 -9 6 6 9 19 7 28 -1
9 -6 13 -10 9z"/>
<path d="M4403 5283 c9 -2 23 -2 30 0 6 3 -1 5 -18 5 -16 0 -22 -2 -12 -5z"/>
<path d="M4228 5273 c28 -2 76 -2 105 0 28 2 5 3 -53 3 -58 0 -81 -1 -52 -3z"/>
<path d="M2152 5245 c0 -16 2 -22 5 -12 2 9 2 23 0 30 -3 6 -5 -1 -5 -18z"/>
<path d="M4088 5263 c12 -2 30 -2 40 0 9 3 -1 5 -23 4 -22 0 -30 -2 -17 -4z"/>
<path d="M3728 5253 c7 -3 16 -2 19 1 4 3 -2 6 -13 5 -11 0 -14 -3 -6 -6z"/>
<path d="M3920 5217 l-65 -32 -175 1 c-149 1 -164 0 -100 -8 41 -5 120 -7 175
-6 90 4 108 7 180 41 44 20 73 36 65 36 -8 0 -44 -15 -80 -32z"/>
<path d="M2122 5210 c0 -14 2 -19 5 -12 2 6 2 18 0 25 -3 6 -5 1 -5 -13z"/>
<path d="M3283 5223 c20 -2 54 -2 75 0 20 2 3 4 -38 4 -41 0 -58 -2 -37 -4z"/>
<path d="M3142 5188 c-53 -28 -65 -31 -82 -20 -30 19 -55 15 -91 -15 -22 -19
-49 -30 -83 -34 l-51 -6 46 -2 c38 -1 53 5 84 29 38 30 78 39 90 20 10 -16 41
-12 80 11 20 12 53 28 73 35 24 8 30 13 16 14 -11 0 -48 -15 -82 -32z"/>
<path d="M4568 5196 c-36 -13 -92 -39 -125 -58 -32 -19 -82 -48 -110 -63 -59
-31 -68 -55 -27 -74 23 -10 32 -6 107 50 96 72 189 119 234 119 18 0 72 -14
120 -30 111 -38 105 -37 110 -24 6 16 -103 81 -157 93 -63 15 -77 14 -152 -13z"/>
<path d="M2141 5140 c-1 -41 -8 -100 -16 -130 -8 -30 -14 -73 -14 -95 1 -37 2
-35 10 15 4 30 13 66 19 80 9 21 10 14 6 -35 -2 -33 -9 -73 -16 -90 l-12 -30
-13 25 c-13 24 -14 23 -13 -21 0 -26 -3 -52 -6 -58 -4 -6 -3 -18 2 -27 7 -12
16 3 40 60 29 69 32 84 31 178 0 57 -4 126 -9 153 -7 49 -7 49 -9 -25z"/>
<path d="M2690 5195 c-8 -9 -8 -15 -2 -15 12 0 26 19 19 26 -2 2 -10 -2 -17
-11z"/>
<path d="M3440 5200 c8 -5 26 -10 39 -10 32 0 24 6 -19 14 -25 4 -31 3 -20 -4z"/>
<path d="M2758 5193 c7 -3 16 -2 19 1 4 3 -2 6 -13 5 -11 0 -14 -3 -6 -6z"/>
<path d="M2321 5154 c0 -11 3 -14 6 -6 3 7 2 16 -1 19 -3 4 -6 -2 -5 -13z"/>
<path d="M2440 5148 c-12 -22 -12 -22 6 -6 10 10 15 20 12 24 -4 3 -12 -5 -18
-18z"/>
<path d="M2320 5119 c0 -5 5 -7 10 -4 6 3 10 8 10 11 0 2 -4 4 -10 4 -5 0 -10
-5 -10 -11z"/>
<path d="M2569 5089 c-38 -50 -42 -59 -27 -59 16 0 61 65 56 81 -2 6 -15 -4
-29 -22z"/>
<path d="M2321 5091 c-10 -6 -10 -10 -1 -16 13 -8 24 -1 19 14 -3 6 -10 7 -18
2z"/>
<path d="M4603 5045 c-291 -204 -347 -238 -448 -276 -31 -12 -55 -27 -55 -35
0 -17 12 -17 65 -3 102 27 267 116 344 183 104 92 196 125 295 107 68 -13 116
-36 201 -101 59 -44 72 -50 116 -50 27 0 49 5 49 10 0 6 -11 10 -24 10 -26 0
-65 29 -168 122 -71 63 -139 88 -241 88 -51 0 -62 -4 -134 -55z"/>
<path d="M2332 5065 c-15 -8 -20 -15 -13 -20 6 -3 9 -11 5 -16 -6 -11 13 -39
28 -39 5 0 2 7 -7 16 -13 14 -14 19 -3 25 11 7 11 9 0 9 -10 0 -10 4 2 16 9 8
16 17 16 20 0 5 1 5 -28 -11z"/>
<path d="M4659 4988 c-20 -5 -67 -34 -105 -63 -38 -30 -106 -79 -151 -110
-111 -74 -131 -115 -59 -115 31 0 36 -5 65 -65 30 -61 101 -134 168 -174 17
-10 17 -12 -1 -26 -27 -20 -75 -19 -108 3 -15 10 -67 58 -116 108 -87 87 -136
124 -148 111 -13 -13 58 -101 188 -233 131 -135 211 -154 296 -71 23 23 42 51
42 63 0 18 9 23 71 33 39 6 84 18 99 26 36 19 90 64 90 76 0 15 -26 10 -40 -7
-37 -43 -183 -94 -272 -94 -35 0 -108 29 -108 42 0 7 5 6 13 -1 11 -8 18 -6
32 9 10 11 22 17 26 14 5 -3 12 1 15 10 3 8 14 14 24 13 10 -1 16 -5 14 -9 -3
-5 -9 -6 -13 -3 -14 8 -46 -34 -34 -46 7 -7 19 1 40 24 19 21 43 37 65 41 65
12 140 66 185 134 72 107 71 174 -5 252 -30 31 -61 52 -87 59 -48 13 -136 13
-186 -1z m52 -122 c13 -46 19 -210 9 -226 -8 -13 -11 -13 -23 0 -10 10 -16 53
-21 138 -5 112 -4 123 11 120 9 -2 20 -16 24 -32z m-56 -62 c4 -41 3 -90 -2
-107 l-9 -32 -18 28 c-26 39 -31 105 -13 150 9 20 20 37 26 37 5 0 12 -34 16
-76z m-215 -148 c0 -9 7 -13 19 -11 11 2 35 -10 57 -29 38 -33 38 -33 16 -45
-13 -7 -20 -17 -16 -24 5 -9 4 -9 -6 0 -11 10 -10 16 6 35 l19 22 -27 -17
c-34 -21 -38 -21 -38 -1 0 9 5 12 13 8 8 -5 8 -2 -2 9 -16 20 -25 23 -15 5 3
-7 -5 0 -20 16 -27 31 -33 46 -16 46 6 0 10 -6 10 -14z m189 -113 c7 -5 -42
-37 -61 -40 -10 -2 -22 7 -28 18 -11 19 -10 20 12 8 13 -6 20 -8 16 -4 -4 5
-2 15 5 24 11 14 10 14 -5 2 -10 -8 -18 -9 -18 -3 0 21 48 18 79 -5z"/>
<path d="M2321 4966 c-8 -9 -9 -16 -4 -16 6 0 8 -12 5 -26 -3 -19 -1 -25 8
-22 15 5 21 46 11 66 -6 11 -10 10 -20 -2z"/>
<path d="M2497 4953 c-2 -10 -8 -27 -12 -38 -4 -11 2 -7 14 10 23 32 26 45 12
45 -5 0 -11 -8 -14 -17z"/>
<path d="M2192 4880 c0 -14 2 -19 5 -12 2 6 2 18 0 25 -3 6 -5 1 -5 -13z"/>
<path d="M2317 4876 c-7 -19 11 -32 24 -19 6 6 5 14 -4 22 -12 9 -16 8 -20 -3z"/>
<path d="M5262 4860 c0 -14 2 -19 5 -12 2 6 2 18 0 25 -3 6 -5 1 -5 -13z"/>
<path d="M5005 4810 c0 -33 3 -60 8 -60 4 0 7 27 7 60 0 33 -3 60 -7 60 -5 0
-8 -27 -8 -60z"/>
<path d="M2181 4835 c-1 -11 -4 -31 -6 -45 l-6 -25 11 25 c6 13 9 33 7 45 -4
19 -4 19 -6 0z"/>
<path d="M5038 4810 c-2 -23 -1 -43 3 -46 10 -6 20 69 10 79 -5 5 -10 -10 -13
-33z"/>
<path d="M5080 4810 c0 -16 2 -30 4 -30 2 0 6 14 8 30 3 17 1 30 -4 30 -4 0
-8 -13 -8 -30z"/>
<path d="M5110 4815 c0 -14 5 -25 10 -25 6 0 10 11 10 25 0 14 -4 25 -10 25
-5 0 -10 -11 -10 -25z"/>
<path d="M2226 4743 c-6 -14 -5 -15 5 -6 7 7 10 15 7 18 -3 3 -9 -2 -12 -12z"/>
<path d="M2163 4715 c0 -22 2 -30 4 -17 2 12 2 30 0 40 -3 9 -5 -1 -4 -23z"/>
<path d="M3927 4710 c-56 -10 -60 -12 -52 -32 5 -13 13 -13 61 5 29 11 54 24
54 28 0 5 -3 8 -7 8 -5 -1 -30 -5 -56 -9z"/>
<path d="M5233 4685 c0 -22 2 -30 4 -17 2 12 2 30 0 40 -3 9 -5 -1 -4 -23z"/>
<path d="M2101 4684 c0 -11 3 -14 6 -6 3 7 2 16 -1 19 -3 4 -6 -2 -5 -13z"/>
<path d="M3625 4660 c-8 -13 55 -13 75 0 11 7 4 10 -27 10 -23 0 -45 -4 -48
-10z"/>
<path d="M2102 4635 c0 -16 2 -22 5 -12 2 9 2 23 0 30 -3 6 -5 -1 -5 -18z"/>
<path d="M2154 4535 c0 -66 1 -92 3 -57 2 34 2 88 0 120 -2 31 -3 3 -3 -63z"/>
<path d="M2272 4575 c0 -16 2 -22 5 -12 2 9 2 23 0 30 -3 6 -5 -1 -5 -18z"/>
<path d="M2104 4555 c4 -38 16 -43 16 -7 0 18 -4 32 -9 32 -5 0 -8 -11 -7 -25z"/>
<path d="M2263 4505 c0 -22 2 -30 4 -17 2 12 2 30 0 40 -3 9 -5 -1 -4 -23z"/>
<path d="M4700 4505 c-11 -12 -20 -24 -20 -27 0 -10 27 -3 44 11 14 12 16 11
10 -5 -5 -18 -4 -18 11 1 9 11 18 18 20 15 2 -3 7 -1 12 4 5 5 -2 7 -15 3 -17
-4 -22 -2 -19 7 8 20 -21 14 -43 -9z m18 -5 c-7 -10 -14 -17 -17 -15 -4 4 18
35 25 35 2 0 -1 -9 -8 -20z"/>
<path d="M4620 4495 c-7 -9 -8 -15 -2 -15 5 0 12 7 16 15 3 8 4 15 2 15 -2 0
-9 -7 -16 -15z"/>
<path d="M2110 4462 c0 -11 4 -23 9 -27 6 -3 8 4 6 16 -6 30 -15 37 -15 11z"/>
<path d="M2283 4433 c-15 -5 -18 -184 -6 -348 7 -92 8 -96 13 -44 3 30 1 113
-4 184 -6 88 -6 141 2 169 12 46 12 45 -5 39z"/>
<path d="M4964 4405 c-4 -9 -4 -35 -1 -58 5 -37 -11 -87 -34 -107 -3 -3 -19
-27 -35 -53 -16 -27 -38 -63 -48 -80 -11 -18 -38 -65 -60 -105 -40 -71 -118
-183 -123 -178 -2 1 -4 40 -5 86 -1 71 -4 86 -24 109 l-23 26 -1 -33 c0 -17 9
-49 20 -69 24 -44 26 -92 5 -119 -8 -10 -15 -25 -15 -32 0 -16 -151 -234 -158
-227 -3 2 5 27 17 54 25 59 25 63 6 129 -25 82 -39 66 -32 -35 5 -64 2 -104
-9 -148 -19 -73 -71 -169 -114 -210 l-31 -30 20 48 c11 26 18 47 15 47 -2 0 1
10 7 23 7 12 14 42 15 67 2 25 6 72 9 106 6 56 5 62 -14 67 -22 5 -28 31 -11
42 12 8 13 45 1 45 -16 0 -33 -30 -33 -56 0 -14 10 -36 22 -49 21 -22 22 -29
14 -92 -4 -37 -8 -80 -9 -94 -1 -14 -5 -31 -9 -37 -4 -7 -4 -16 -1 -22 3 -5 1
-10 -4 -10 -6 0 -11 -9 -11 -20 0 -11 -4 -20 -10 -20 -5 0 -10 -8 -10 -17 0
-35 -59 -139 -101 -179 -54 -51 -105 -78 -113 -59 -6 16 13 35 34 35 9 0 11 3
4 8 -13 9 -31 56 -38 102 -8 47 7 94 43 135 16 18 32 43 36 54 10 33 22 25 49
-31 40 -85 38 -143 -6 -194 -27 -30 -29 -35 -10 -25 72 39 79 160 15 264 -29
46 -40 46 -58 4 -7 -18 -23 -41 -34 -51 -37 -33 -55 -113 -44 -190 8 -53 7
-69 -4 -78 -7 -6 -17 -8 -21 -4 -10 10 -30 116 -21 116 10 0 27 48 34 98 4 23
11 42 16 42 26 0 73 170 51 184 -4 2 -9 -11 -9 -31 -1 -48 -22 -120 -39 -134
-10 -8 -14 -8 -14 -1 0 6 -11 22 -24 35 -38 38 -47 153 -14 173 8 5 9 -9 5
-44 -4 -37 -1 -63 10 -89 l16 -38 13 30 c16 38 17 58 3 106 -7 23 -19 39 -31
42 -17 5 -18 9 -8 27 7 13 17 19 26 16 12 -5 12 0 -2 24 -20 33 -28 31 -30 -8
-1 -15 -11 -53 -23 -85 -18 -50 -20 -64 -10 -100 6 -23 22 -57 35 -74 17 -23
22 -38 16 -48 -6 -12 -18 0 -50 50 -78 122 -89 202 -40 281 14 21 33 61 43 87
11 30 21 44 26 36 10 -17 40 -3 33 16 -3 8 -10 15 -15 15 -5 0 -6 12 -3 26 5
19 4 25 -5 20 -6 -4 -11 -1 -11 8 0 10 6 13 17 9 11 -4 14 -3 9 5 -17 28 -33
10 -39 -43 -4 -36 -21 -86 -48 -143 -41 -83 -43 -86 -50 -57 -5 24 -7 17 -9
-30 -1 -33 -1 -69 0 -80 2 -30 88 -206 112 -232 19 -20 20 -26 9 -50 l-12 -26
-20 32 c-10 17 -19 37 -19 44 0 28 -54 102 -111 155 -34 32 -64 56 -68 55 -3
-2 -7 -12 -7 -23 -1 -11 3 -17 8 -14 5 3 12 -4 15 -16 4 -15 8 -18 13 -9 12
18 95 -56 119 -105 42 -86 73 -173 78 -216 4 -36 -1 -56 -25 -103 -29 -56 -27
-82 4 -56 9 7 20 24 25 37 5 13 13 20 19 17 5 -3 10 -1 10 4 0 21 22 10 71
-35 27 -26 64 -71 82 -101 67 -113 77 -128 77 -120 0 4 -14 35 -30 69 l-30 61
25 43 c21 35 24 51 19 86 -5 36 -4 41 7 31 20 -19 29 -16 29 12 0 16 -6 25
-15 25 -20 0 -19 23 3 49 l17 22 22 -20 c17 -16 21 -31 21 -78 0 -77 -31 -133
-85 -154 -26 -10 -31 -29 -8 -29 22 0 81 56 95 90 7 16 16 30 21 30 5 0 9 25
9 55 0 72 30 155 81 228 22 32 39 60 37 62 -8 8 -82 -103 -106 -157 l-25 -57
-30 30 c-16 16 -34 28 -41 26 -24 -7 -50 -82 -52 -150 -1 -45 -8 -76 -19 -94
l-18 -27 -52 59 -53 59 47 22 c47 21 94 70 124 130 9 17 28 39 42 48 23 15 97
105 171 208 43 59 47 68 34 68 -7 0 -14 -9 -17 -20 -3 -11 -9 -20 -14 -20 -5
0 -9 -5 -9 -10 0 -6 -9 -20 -20 -32 -11 -12 -20 -17 -20 -12 0 14 75 120 138
196 94 112 219 283 215 295 -5 13 64 130 151 256 48 71 62 85 67 70 7 -16 8
-15 8 5 1 13 -5 22 -14 22 -11 0 -15 12 -15 44 0 46 -15 70 -26 41z m13 -37
c-3 -8 -6 -5 -6 6 -1 11 2 17 5 13 3 -3 4 -12 1 -19z m-334 -380 c7 -27 -2
-45 -14 -27 -11 18 -11 49 0 49 5 0 11 -10 14 -22z m-165 -303 l0 -50 -9 40
c-4 22 -8 54 -8 70 0 26 2 27 9 10 5 -11 8 -42 8 -70z m-415 -158 c-9 -48 -23
-29 -22 31 1 56 1 56 14 27 7 -17 11 -43 8 -58z"/>
<path d="M2190 4379 c0 -11 4 -18 10 -14 5 3 7 12 3 20 -7 21 -13 19 -13 -6z"/>
<path d="M2162 4360 c0 -19 2 -27 5 -17 2 9 2 25 0 35 -3 9 -5 1 -5 -18z"/>
<path d="M2125 4370 c-3 -5 -1 -10 4 -10 6 0 11 5 11 10 0 6 -2 10 -4 10 -3 0
-8 -4 -11 -10z"/>
<path d="M3790 4368 c0 -12 29 -37 44 -38 4 0 5 7 2 16 -3 8 -2 12 4 9 6 -3
10 0 10 7 0 7 -13 14 -30 15 -17 1 -30 -3 -30 -9z m30 -8 c0 -5 -2 -10 -4 -10
-3 0 -8 5 -11 10 -3 6 -1 10 4 10 6 0 11 -4 11 -10z"/>
<path d="M2421 4360 c0 -8 4 -24 9 -35 5 -13 9 -14 9 -5 0 8 -4 24 -9 35 -5
13 -9 14 -9 5z"/>
<path d="M2131 4334 c0 -11 3 -14 6 -6 3 7 2 16 -1 19 -3 4 -6 -2 -5 -13z"/>
<path d="M5346 4317 c3 -10 9 -15 12 -12 3 3 0 11 -7 18 -10 9 -11 8 -5 -6z"/>
<path d="M4780 4301 c0 -5 9 -25 19 -43 11 -18 25 -52 32 -75 7 -24 15 -43 20
-43 4 0 2 19 -4 43 -6 23 -10 59 -9 80 1 31 -2 38 -16 35 -9 -1 -23 1 -29 5
-7 5 -13 4 -13 -2z"/>
<path d="M2173 4255 c0 -27 2 -38 4 -22 2 15 2 37 0 50 -2 12 -4 0 -4 -28z"/>
<path d="M3843 4250 c0 -25 2 -35 4 -22 2 12 2 32 0 45 -2 12 -4 2 -4 -23z"/>
<path d="M3296 4214 c-4 -14 -5 -28 -3 -31 3 -2 8 8 11 23 4 14 5 28 3 31 -3
2 -8 -8 -11 -23z"/>
<path d="M5387 4210 c6 -22 23 -38 23 -21 0 17 -12 41 -20 41 -5 0 -6 -9 -3
-20z"/>
<path d="M3420 4211 c0 -5 -9 -7 -20 -4 -11 3 -20 0 -20 -6 0 -5 6 -8 14 -5 8
3 21 -7 32 -25 l19 -30 1 40 c1 27 -3 39 -12 39 -8 0 -14 -4 -14 -9z"/>
<path d="M2141 4193 c0 -4 4 -17 9 -28 8 -19 9 -19 9 2 1 12 -3 25 -9 28 -5 3
-10 3 -9 -2z"/>
<path d="M2182 4175 c0 -16 2 -22 5 -12 2 9 2 23 0 30 -3 6 -5 -1 -5 -18z"/>
<path d="M2197 4080 c2 -30 8 -59 13 -64 5 -5 5 8 0 30 -5 22 -11 50 -13 64
-3 14 -3 0 0 -30z"/>
<path d="M2153 4083 c3 -16 9 -56 13 -91 3 -34 11 -65 17 -69 6 -4 8 5 4 25
-4 17 -9 61 -13 97 -4 36 -11 65 -17 65 -5 0 -7 -12 -4 -27z"/>
<path d="M2705 4081 c11 -13 52 -50 90 -83 54 -47 59 -50 23 -14 -44 44 -61
76 -39 76 13 0 96 -99 96 -115 0 -8 6 -20 12 -26 10 -10 10 -5 2 22 -14 43
-14 46 -5 91 7 39 -5 57 -27 40 -7 -6 -27 -8 -46 -6 -19 2 -40 -1 -48 -8 -11
-9 -21 -5 -46 18 -22 20 -25 21 -12 5z m162 -77 c-10 -10 -47 26 -47 45 0 11
7 8 27 -11 15 -15 24 -31 20 -34z m13 46 c0 -5 -4 -10 -10 -10 -5 0 -10 5 -10
10 0 6 5 10 10 10 6 0 10 -4 10 -10z"/>
<path d="M3524 4077 c-3 -8 2 -29 11 -47 9 -17 15 -43 12 -58 -3 -27 -4 -26
-20 11 -25 55 -29 45 -7 -19 l20 -56 -51 -106 c-28 -58 -57 -122 -64 -141 -8
-20 -14 -29 -14 -20 -1 9 -7 22 -15 28 -10 9 -17 7 -27 -6 -13 -16 -12 -17 3
-5 14 11 17 10 23 -8 4 -12 8 -82 9 -156 2 -119 1 -130 -11 -101 -8 17 -17 34
-21 37 -4 3 -22 28 -41 55 -18 28 -47 62 -63 76 l-30 27 27 48 c15 27 32 56
37 64 6 8 -4 -1 -21 -20 -33 -37 -127 -218 -118 -227 8 -7 47 58 47 78 0 8 7
24 16 35 15 18 15 18 11 -9 -3 -21 -1 -27 9 -23 29 11 110 -100 180 -250 24
-51 44 -100 44 -109 0 -8 4 -15 9 -15 5 0 7 9 4 20 -10 38 12 19 37 -32 14
-29 39 -60 57 -72 29 -19 41 -38 75 -126 9 -24 9 -24 27 15 34 76 54 147 43
154 -11 7 -36 90 -29 97 3 3 13 -18 23 -46 10 -27 21 -50 25 -50 17 0 49 55
49 84 0 31 -1 31 -20 -11 -10 -24 -22 -43 -25 -43 -3 0 -4 4 0 9 3 5 1 12 -5
16 -14 9 -60 100 -60 120 0 8 -4 15 -9 15 -26 0 -55 215 -31 230 9 6 10 19 5
46 l-8 39 -9 -33 -9 -32 -39 41 c-35 36 -60 44 -60 19 0 -19 63 -81 77 -76 17
7 20 -2 27 -89 6 -70 6 -70 -12 -43 -38 57 -136 128 -154 110 -8 -8 -8 -18 1
-34 6 -13 9 -15 7 -5 -8 25 9 21 57 -12 53 -37 105 -93 99 -109 -2 -7 1 -12 7
-12 6 0 10 -3 9 -7 -1 -5 6 -33 17 -63 22 -64 26 -173 8 -191 -7 -7 -13 -19
-13 -27 0 -12 3 -12 15 -2 8 7 15 21 15 31 0 28 19 33 25 6 5 -16 -3 -43 -21
-78 -15 -30 -28 -49 -29 -44 -15 67 -31 97 -65 119 -30 20 -87 99 -109 151 -2
5 -12 16 -21 25 -37 32 -62 235 -40 315 9 32 16 42 21 33 7 -10 9 -9 9 5 0 9
-5 17 -11 17 -15 0 -4 28 58 155 29 61 56 128 60 150 3 22 16 48 27 58 12 10
15 16 9 12 -21 -10 -38 8 -38 39 0 32 -21 47 -31 23z m25 -24 c0 -25 -1 -26
-9 -8 -12 27 -12 35 0 35 6 0 10 -12 9 -27z m37 -469 c9 -13 13 -28 10 -32 -8
-8 -66 52 -66 69 0 16 38 -8 56 -37z"/>
<path d="M2300 4051 c0 -11 4 -22 9 -25 4 -3 6 6 3 19 -5 30 -12 33 -12 6z"/>
<path d="M2436 4035 c-9 -26 -7 -32 5 -12 6 10 9 21 6 23 -2 3 -7 -2 -11 -11z"/>
<path d="M3883 4017 c4 -10 7 -24 8 -30 0 -7 4 -3 9 8 8 19 8 19 19 -5 7 -16
10 -19 8 -6 -1 10 -13 26 -27 35 -23 15 -24 15 -17 -2z"/>
<path d="M2312 3990 c0 -14 2 -19 5 -12 2 6 2 18 0 25 -3 6 -5 1 -5 -13z"/>
<path d="M4880 3985 c-27 -20 -30 -25 -14 -25 21 0 46 13 45 24 -1 3 2 6 7 5
4 -1 6 -5 5 -10 -5 -17 15 -9 21 8 4 10 4 14 0 10 -4 -4 -12 -2 -19 3 -8 7
-22 2 -45 -15z"/>
<path d="M2293 3930 c0 -30 2 -43 4 -27 2 15 2 39 0 55 -2 15 -4 2 -4 -28z"/>
<path d="M3906 3955 c4 -11 10 -51 14 -90 6 -61 7 -64 9 -22 1 37 7 54 26 73
25 25 33 54 16 54 -22 0 -41 -13 -41 -29 -1 -11 -5 -9 -16 9 -10 16 -13 18 -8
5z m56 -17 c-7 -7 -12 -8 -12 -2 0 6 3 14 7 17 3 4 9 5 12 2 2 -3 -1 -11 -7
-17z"/>
<path d="M3821 3950 c0 -8 4 -22 9 -30 12 -18 12 -2 0 25 -6 13 -9 15 -9 5z"/>
<path d="M3465 3940 c-3 -5 -1 -10 4 -10 14 0 14 -27 1 -35 -6 -4 -16 -2 -23
4 -19 15 -40 -3 -32 -28 4 -13 1 -28 -5 -36 -19 -23 0 -18 37 11 36 27 67 79
58 94 -8 13 -32 13 -40 0z"/>
<path d="M5510 3940 c0 -5 5 -10 10 -10 6 0 10 5 10 10 0 6 -4 10 -10 10 -5 0
-10 -4 -10 -10z"/>
<path d="M5520 3913 c0 -4 5 -15 10 -23 8 -13 10 -13 10 2 0 9 -4 20 -10 23
-5 3 -10 3 -10 -2z"/>
<path d="M2595 3890 c10 -11 20 -20 23 -20 3 0 -3 9 -13 20 -10 11 -20 20 -23
20 -3 0 3 -9 13 -20z"/>
<path d="M3848 3885 c16 -30 41 -61 41 -50 0 6 -11 24 -25 40 -14 17 -21 21
-16 10z"/>
<path d="M2196 3834 c13 -58 24 -80 24 -50 0 28 -22 106 -30 106 -4 0 -2 -25
6 -56z"/>
<path d="M3790 3831 c-24 -46 -2 -101 41 -101 27 0 24 19 -6 30 -14 5 -25 15
-25 21 0 8 5 8 15 -1 13 -11 18 -10 30 6 16 22 17 26 9 48 -9 22 -51 20 -64
-3z m50 -11 c0 -5 -4 -10 -10 -10 -5 0 -10 5 -10 10 0 6 5 10 10 10 6 0 10 -4
10 -10z"/>
<path d="M4116 3825 c-6 -18 20 -78 32 -71 4 2 7 -26 8 -63 1 -59 20 -159 29
-149 2 2 -3 32 -12 68 -8 36 -12 81 -9 100 3 19 7 40 8 47 1 6 7 9 15 6 7 -3
13 0 13 6 0 6 -4 11 -9 11 -6 0 -16 12 -23 27 -15 32 -43 41 -52 18z m42 -28
c4 -29 -12 -37 -22 -11 -10 26 -7 46 7 42 6 -3 13 -17 15 -31z"/>
<path d="M3591 3816 c-7 -8 -11 -23 -8 -33 4 -14 5 -12 6 5 1 34 23 22 34 -18
5 -20 4 -43 -2 -59 -7 -17 -8 -37 -2 -56 l9 -30 1 33 c1 21 12 47 33 73 17 21
28 42 25 46 -4 3 -7 2 -7 -3 0 -5 -9 -20 -20 -34 -16 -21 -20 -22 -20 -7 0 10
11 29 25 42 14 15 19 25 11 25 -8 0 -21 -10 -29 -22 -16 -22 -16 -22 -16 -2
-1 11 -7 28 -14 38 -12 16 -14 16 -26 2z"/>
<path d="M4801 3770 c-29 -22 -60 -40 -70 -40 -47 -1 -155 -73 -182 -122 -7
-14 -6 -16 6 -12 8 4 15 10 15 15 0 12 63 68 94 84 14 7 40 16 58 20 66 13
103 29 126 52 22 24 29 43 14 43 -4 0 -31 -18 -61 -40z m49 16 c0 -10 -32 -36
-43 -36 -7 1 -1 10 12 20 23 20 31 24 31 16z"/>
<path d="M3344 3774 c-36 -52 -37 -60 -4 -28 18 18 30 38 28 45 -3 8 -12 2
-24 -17z"/>
<path d="M3912 3760 c0 -19 2 -27 5 -17 2 9 2 25 0 35 -3 9 -5 1 -5 -18z"/>
<path d="M5052 3758 c-7 -7 -12 -16 -12 -22 0 -5 -12 -25 -27 -45 l-28 -36 -5
30 c-7 40 -40 48 -40 9 0 -15 7 -35 15 -44 13 -15 12 -19 -10 -40 l-25 -23 0
21 c0 14 -6 22 -16 22 -12 0 -15 -7 -12 -30 4 -23 -4 -40 -35 -77 -53 -65 -87
-134 -92 -191 l-4 -47 10 45 c23 104 118 240 168 240 17 0 21 5 17 18 -6 20
48 86 79 96 24 7 59 61 50 76 -8 13 -18 13 -33 -2z m4 -40 c-19 -27 -21 -19
-4 18 7 14 14 21 16 15 2 -6 -4 -21 -12 -33z m-86 -34 c0 -14 -4 -23 -10 -19
-5 3 -10 15 -10 26 0 10 5 19 10 19 6 0 10 -12 10 -26z"/>
<path d="M3873 3641 c0 -11 5 -18 9 -15 4 3 5 11 1 19 -7 21 -12 19 -10 -4z"/>
<path d="M2981 3634 c0 -11 3 -14 6 -6 3 7 2 16 -1 19 -3 4 -6 -2 -5 -13z"/>
<path d="M3722 3638 c2 -6 10 -14 16 -16 7 -2 10 2 6 12 -7 18 -28 22 -22 4z"/>
<path d="M2550 3630 c0 -5 5 -10 11 -10 5 0 7 5 4 10 -3 6 -8 10 -11 10 -2 0
-4 -4 -4 -10z"/>
<path d="M4200 3612 c0 -4 15 -31 33 -58 l32 -51 19 24 c18 24 15 60 -4 48 -6
-4 -20 5 -31 19 -19 24 -49 35 -49 18z m50 -37 c7 -14 11 -28 7 -31 -3 -3 -13
8 -22 25 -8 17 -12 31 -7 31 5 0 15 -11 22 -25z"/>
<path d="M4655 3582 c-3 -11 -4 -43 -3 -71 3 -43 6 -51 23 -51 13 0 26 13 39
39 16 34 16 42 4 67 -16 35 -53 44 -63 16z m45 -46 c0 -11 -5 -28 -10 -36 -9
-13 -11 -13 -20 0 -14 21 -12 30 5 30 8 0 15 5 15 11 0 6 -7 9 -15 5 -15 -5
-21 14 -8 27 10 11 33 -14 33 -37z"/>
<path d="M5096 3555 c-4 -14 -37 -56 -75 -93 -50 -49 -73 -81 -86 -119 -11
-29 -21 -53 -24 -53 -4 0 -7 -15 -8 -33 -4 -63 -27 -152 -45 -171 -10 -11 -18
-28 -18 -38 0 -11 -7 -18 -20 -18 -12 0 -20 -7 -20 -16 0 -27 76 -12 111 22
29 28 59 99 59 141 0 13 6 23 14 23 16 0 25 19 19 38 -7 18 -31 15 -37 -5 -3
-11 -4 -7 -3 7 2 20 8 26 37 30 32 5 34 6 14 17 -34 20 -68 -4 -72 -51 -2 -28
0 -36 9 -31 9 6 10 0 5 -21 -12 -50 -57 -134 -78 -145 -29 -15 -35 -2 -10 24
14 15 26 51 37 112 32 174 64 241 146 306 36 28 44 31 61 20 23 -14 34 -9 22
11 -5 7 -7 25 -5 40 3 36 -24 38 -33 3z"/>
<path d="M2990 3561 c0 -6 4 -13 10 -16 6 -3 7 1 4 9 -7 18 -14 21 -14 7z"/>
<path d="M3714 3544 c-9 -35 2 -177 18 -239 13 -49 36 -67 46 -36 3 8 0 11 -6
7 -15 -9 -27 18 -41 90 -12 65 -13 162 0 169 4 3 14 -7 24 -21 25 -39 29 -22
4 20 -25 43 -36 45 -45 10z"/>
<path d="M2964 3538 c3 -13 5 -32 6 -43 1 -15 3 -16 7 -5 4 8 13 21 22 28 14
12 14 13 -1 8 -11 -3 -18 0 -18 9 0 7 -5 17 -10 20 -6 4 -8 -3 -6 -17z"/>
<path d="M3051 3470 c0 -40 2 -70 4 -68 6 5 13 47 14 76 1 13 5 20 11 17 6 -4
7 2 1 16 -17 49 -30 31 -30 -41z"/>
<path d="M4190 3528 c0 -4 23 -31 50 -60 l50 -53 -6 35 c-8 39 -14 52 -14 27
0 -25 -9 -21 -46 21 -18 20 -33 34 -34 30z"/>
<path d="M3256 3429 c-18 -90 1 -199 50 -294 48 -92 72 -125 91 -125 14 0 15
11 10 78 -4 46 -15 96 -27 122 -11 25 -17 34 -13 20 3 -14 12 -47 19 -75 8
-27 14 -70 14 -95 0 -39 -2 -42 -14 -30 -23 23 -86 140 -103 189 -15 46 -23
166 -13 197 5 13 15 -1 40 -54 18 -40 35 -71 37 -69 5 6 -70 167 -77 167 -4 0
-10 -14 -14 -31z"/>
<path d="M2313 3433 c-3 -10 -8 -22 -10 -28 -3 -5 2 -2 10 8 8 9 21 15 29 12
18 -7 38 -47 38 -76 0 -11 4 -18 9 -14 11 6 5 69 -10 96 -12 24 -57 25 -66 2z"/>
<path d="M3830 3357 c0 -62 5 -91 19 -117 72 -134 90 -165 98 -167 14 -5 -3
180 -21 222 -22 52 -67 128 -72 122 -2 -2 11 -30 30 -62 39 -64 59 -141 54
-210 l-3 -46 -49 96 c-47 93 -48 97 -44 170 2 41 0 75 -4 75 -5 0 -8 -37 -8
-83z"/>
<path d="M4580 3432 c0 -6 -9 -8 -20 -5 -15 4 -20 0 -20 -13 0 -16 2 -16 10
-4 8 12 10 12 16 -3 3 -10 4 -29 1 -43 -6 -35 14 -25 30 14 7 18 11 32 8 32
-3 0 -10 -10 -15 -22 -8 -22 -9 -22 -9 4 -1 14 4 28 11 30 9 3 9 6 0 12 -7 4
-12 3 -12 -2z"/>
<path d="M3233 3395 c0 -22 2 -30 4 -17 2 12 2 30 0 40 -3 9 -5 -1 -4 -23z"/>
<path d="M3490 3398 c0 -58 28 -144 66 -203 43 -69 57 -67 15 1 -37 62 -58
117 -64 172 -5 43 -5 43 15 25 11 -10 28 -36 38 -58 23 -54 51 -180 44 -198
-3 -8 -1 -18 5 -22 34 -20 -19 198 -63 263 -40 58 -56 64 -56 20z"/>
<path d="M3070 3408 c0 -7 7 -65 15 -128 15 -114 36 -165 51 -127 8 21 -5 145
-15 151 -4 3 -4 -16 0 -42 11 -64 11 -92 0 -92 -11 0 -23 74 -27 165 -1 39 -3
73 -3 78 -2 12 -21 8 -21 -5z"/>
<path d="M3202 3400 c0 -14 2 -19 5 -12 2 6 2 18 0 25 -3 6 -5 1 -5 -13z"/>
<path d="M3781 3363 c0 -35 2 -63 7 -63 4 0 6 21 4 48 -5 75 -10 82 -11 15z"/>
<path d="M4125 3358 c-26 -55 -35 -148 -15 -148 26 0 58 49 64 96 7 45 -5 104
-19 104 -3 0 -17 -24 -30 -52z m39 -1 c9 -39 -21 -127 -45 -127 -9 0 -3 60 13
113 13 42 23 47 32 14z"/>
<path d="M2979 3393 c0 -5 -2 -18 -5 -30 -2 -13 1 -23 6 -23 6 0 10 14 10 30
0 26 -9 44 -11 23z"/>
<path d="M3463 3340 c0 -36 2 -50 4 -32 2 17 2 47 0 65 -2 17 -4 3 -4 -33z"/>
<path d="M4840 3384 c0 -9 14 -32 30 -51 37 -41 38 -35 4 23 -28 48 -34 53
-34 28z"/>
<path d="M4601 3318 c-16 -84 -22 -186 -11 -193 5 -3 10 -13 10 -21 0 -17 -30
-19 -31 -1 -2 41 -27 167 -27 142 -1 -16 5 -66 13 -110 8 -44 15 -82 15 -84 0
-2 -18 19 -41 47 l-40 51 16 48 c18 51 13 147 -7 159 -7 5 -8 -4 -4 -27 15
-68 0 -179 -23 -179 -9 0 -33 -73 -37 -115 -4 -40 -25 -159 -29 -163 -2 -2
-14 8 -28 22 -15 14 -35 26 -45 26 -37 0 -51 -63 -27 -122 4 -11 3 -18 -4 -18
-6 0 -2 -19 10 -46 25 -60 35 -170 20 -217 -21 -64 -32 -62 -88 11 -82 108
-109 158 -129 232 -18 70 -39 99 -27 38 16 -88 61 -173 171 -327 43 -59 61
-107 88 -228 16 -77 16 -84 1 -101 -23 -25 -21 -34 5 -30 21 3 24 -2 31 -57 4
-33 12 -82 17 -110 5 -27 15 -86 23 -130 17 -92 38 -150 44 -123 3 10 -5 55
-16 100 -12 46 -24 104 -27 129 -6 42 -4 48 17 59 19 11 29 9 66 -11 34 -19
42 -28 41 -49 -1 -14 -1 -40 0 -59 2 -32 3 -33 15 -16 13 16 14 15 9 -13 -2
-18 -1 -40 3 -49 4 -10 7 -30 6 -44 -1 -14 5 -66 13 -115 9 -49 16 -104 16
-121 0 -23 5 -33 15 -33 19 0 19 12 -5 149 -11 62 -20 132 -20 155 0 22 -7 70
-14 106 -8 36 -13 66 -11 68 6 7 98 -257 108 -310 13 -64 37 -88 37 -36 0 30
-63 226 -101 315 -10 25 -19 49 -19 53 0 5 20 21 44 35 24 14 49 32 56 39 6 8
19 12 29 9 24 -6 64 48 59 81 -1 13 2 30 9 37 12 15 22 38 76 189 48 133 51
144 38 136 -6 -4 -15 -26 -22 -49 -19 -71 -91 -251 -107 -267 -13 -13 -14 -13
-7 5 14 39 85 300 85 314 0 31 -13 -1 -36 -91 -14 -51 -31 -118 -39 -147 -17
-63 -30 -80 -46 -64 -8 8 -7 17 5 34 8 13 20 58 26 99 6 41 13 90 16 108 3 17
1 32 -4 32 -5 0 -14 -44 -21 -97 -7 -54 -15 -106 -18 -115 -6 -25 -22 -22 -32
4 -6 16 -3 28 11 42 10 11 18 32 18 46 0 15 3 49 6 76 5 33 3 46 -4 39 -5 -5
-12 -38 -14 -72 -5 -68 -19 -94 -48 -86 -19 5 -19 6 0 32 19 27 34 141 18 141
-4 0 -8 -18 -8 -39 0 -50 -15 -91 -41 -109 -11 -7 -26 -28 -33 -45 -8 -18 -15
-25 -15 -17 0 8 13 38 29 65 30 51 42 137 20 150 -6 4 -10 -15 -10 -51 0 -40
-6 -67 -21 -90 -11 -19 -22 -34 -24 -34 -2 0 5 23 16 50 20 54 25 120 9 120
-5 0 -10 -18 -10 -40 0 -21 -9 -62 -20 -90 -11 -28 -20 -64 -20 -80 0 -17 -4
-30 -9 -30 -13 0 -24 52 -13 59 29 19 43 103 20 117 -6 4 -20 -3 -31 -17 -18
-22 -19 -34 -13 -134 4 -71 3 -106 -3 -100 -13 14 -52 168 -50 197 1 13 1 44
1 70 -2 45 -3 47 -29 44 -35 -4 -38 -21 -19 -85 14 -49 14 -52 -12 -113 -14
-35 -28 -65 -30 -68 -7 -10 -19 23 -30 85 l-12 64 36 66 c40 73 38 71 107 78
56 5 61 -8 22 -59 -14 -18 -25 -38 -25 -44 0 -15 80 70 90 96 10 26 59 34 207
34 135 0 178 12 244 66 30 24 57 44 61 44 4 0 15 11 24 25 18 28 10 50 -9 25
-15 -20 -125 -104 -156 -120 -13 -7 -84 -16 -157 -20 -74 -5 -154 -12 -179
-16 -46 -6 -65 8 -26 21 10 3 31 17 45 30 25 23 30 24 72 14 98 -25 221 1 302
62 31 24 82 99 82 122 0 16 2 17 21 3 24 -16 49 -11 49 10 0 7 -9 18 -20 24
-10 6 -17 16 -14 24 6 16 -21 40 -36 31 -5 -3 -10 -23 -10 -43 -1 -122 -121
-222 -277 -230 -40 -2 -79 1 -90 7 -15 9 -13 10 17 11 69 1 177 44 203 81 15
20 35 10 22 -11 -13 -22 25 -8 54 19 28 26 30 32 20 59 -13 37 -43 66 -62 59
-7 -3 -23 -29 -33 -59 -19 -49 -25 -56 -83 -85 -60 -31 -145 -52 -158 -39 -3
3 2 15 12 26 14 15 21 17 31 9 14 -11 29 -4 74 33 47 38 62 96 39 141 -18 35
-51 67 -69 67 -22 0 -67 -89 -79 -156 -10 -52 -58 -144 -75 -144 -5 0 -6 29
-3 68 4 37 7 77 7 90 0 12 6 22 13 23 18 0 53 48 104 146 26 48 58 106 73 128
35 52 43 76 25 69 -20 -8 -38 33 -38 90 l0 51 -10 -51 c-8 -42 -6 -58 8 -87 9
-20 15 -40 13 -44 -15 -37 -137 -239 -159 -265 l-28 -33 -1 32 c0 22 9 42 31
65 31 33 119 202 119 228 0 9 -4 8 -14 -5 -15 -21 -13 -29 -37 148 -6 48 -13
87 -16 87 -2 0 -2 -48 0 -107 4 -88 3 -98 -4 -53 -11 63 -58 170 -76 170 -6 0
-16 -24 -22 -52z m73 -84 c23 -85 21 -197 -5 -253 -21 -48 -29 -46 -49 9 -24
71 -29 90 -19 90 5 0 14 -20 21 -45 7 -25 15 -45 19 -45 10 0 17 137 8 177 -4
21 -15 59 -25 84 -10 26 -14 53 -10 64 7 18 7 18 25 -1 10 -10 26 -46 35 -80z
m-35 -119 c0 -66 -1 -68 -14 -45 -9 15 -14 53 -14 95 0 66 1 68 14 45 9 -15
14 -53 14 -95z m78 -27 c-2 -13 -4 -5 -4 17 -1 22 1 32 4 23 2 -10 2 -28 0
-40z m-199 -10 c17 -18 38 -51 48 -73 18 -43 35 -185 22 -185 -4 0 -8 -9 -8
-19 0 -21 -63 -148 -83 -169 -11 -10 -19 0 -45 52 -25 51 -32 77 -32 124 0 82
43 302 59 302 4 0 21 -15 39 -32z m72 -60 c0 -19 -2 -20 -10 -8 -13 19 -13 30
0 30 6 0 10 -10 10 -22z m7 -60 c-3 -7 -5 -2 -5 12 0 14 2 19 5 13 2 -7 2 -19
0 -25z m-232 -78 c14 -15 17 -31 13 -76 -4 -46 -3 -54 7 -40 18 24 22 20 29
-25 4 -22 15 -58 26 -79 15 -30 18 -45 10 -64 -5 -15 -14 -26 -18 -26 -10 0
-42 104 -42 137 0 11 -9 28 -21 39 -12 10 -27 31 -35 45 -12 25 -12 27 6 22
26 -7 38 23 18 43 -13 14 -17 14 -32 -1 -15 -15 -16 -15 -16 8 0 42 25 50 55
17z m455 -39 c7 -17 10 -41 7 -53 -8 -31 -67 -96 -73 -81 -3 7 -12 9 -20 6
-11 -4 -14 6 -14 46 0 65 41 136 70 121 9 -5 23 -23 30 -39z m271 -14 c-8 -8
-11 -7 -11 4 0 20 13 34 18 19 3 -7 -1 -17 -7 -23z m-737 2 c-3 -5 -10 -7 -15
-3 -5 3 -7 10 -3 15 3 5 10 7 15 3 5 -3 7 -10 3 -15z m776 -29 c0 -5 -4 -10
-9 -10 -6 0 -13 5 -16 10 -3 6 1 10 9 10 9 0 16 -4 16 -10z m-130 -44 c0 -6
-5 -18 -10 -26 -8 -13 -11 -12 -24 5 -19 26 -3 63 20 44 8 -6 14 -17 14 -23z
m-629 -81 c29 -103 36 -157 23 -162 -8 -3 -11 -9 -9 -14 6 -9 -37 -83 -54 -93
-16 -11 -23 45 -7 68 31 49 40 101 26 168 -7 35 -19 75 -27 90 -20 41 -15 46
12 13 14 -16 30 -48 36 -70z m222 18 c-8 -103 -15 -120 -60 -138 -83 -35 -103
-30 -60 17 29 32 68 91 98 151 13 26 25 47 26 47 2 0 0 -35 -4 -77z m-34 -330
c0 -10 -4 -27 -9 -38 -7 -16 -9 -13 -9 18 -1 20 4 37 9 37 6 0 10 -8 9 -17z
m-75 -168 c20 -61 36 -115 36 -120 0 -13 -100 -79 -107 -71 -8 7 -24 103 -24
139 0 15 9 53 21 85 11 31 23 63 26 71 7 21 10 15 48 -104z m181 79 c22 -9 43
-59 37 -90 -4 -23 -46 -54 -72 -54 -5 0 -10 11 -10 25 0 26 20 125 25 125 2 0
11 -3 20 -6z m-108 -101 c-3 -10 -5 -4 -5 12 0 17 2 24 5 18 2 -7 2 -21 0 -30z
m168 -26 c-14 -21 -15 -26 -15 -47 0 -14 -46 -54 -91 -79 l-38 -22 -12 41
c-16 53 5 80 65 80 44 1 68 14 79 43 4 10 11 15 17 12 6 -4 4 -14 -5 -28z
m-158 -29 c-3 -7 -5 -2 -5 12 0 14 2 19 5 13 2 -7 2 -19 0 -25z m193 -12 c0
-24 -16 -43 -26 -33 -8 7 7 57 17 57 5 0 9 -11 9 -24z m-227 -96 c6 -23 3 -24
-25 -9 -17 9 -18 13 -7 20 21 13 26 11 32 -11z"/>
<path d="M4477 3023 c-4 -3 -7 -29 -7 -57 0 -28 -5 -80 -10 -115 -10 -68 4
-151 25 -151 16 0 45 103 45 158 0 27 -9 76 -21 110 -22 66 -22 66 -32 55z
m32 -97 c15 -61 14 -94 -5 -151 -14 -39 -18 -45 -26 -30 -12 20 -1 225 12 225
4 0 13 -20 19 -44z"/>
<path d="M4755 2823 c-4 -15 -8 -33 -10 -39 -2 -6 1 -17 6 -25 14 -21 41 19
37 55 -4 39 -26 45 -33 9z m16 -40 c-9 -16 -10 -16 -11 -1 0 9 3 25 7 35 7 16
8 17 11 1 2 -10 -1 -25 -7 -35z"/>
<path d="M4644 2216 c-7 -19 3 -36 22 -36 10 0 14 8 12 22 -4 26 -26 36 -34
14z"/>
<path d="M3100 3355 c0 -5 5 -17 10 -25 5 -8 10 -10 10 -5 0 6 -5 17 -10 25
-5 8 -10 11 -10 5z"/>
<path d="M4796 3313 c-6 -14 -5 -15 5 -6 7 7 10 15 7 18 -3 3 -9 -2 -12 -12z"/>
<path d="M4825 3310 c-14 -60 -11 -85 13 -88 18 -3 22 1 22 21 0 14 -6 40 -14
58 -14 34 -14 34 -21 9z m16 -73 c-8 -8 -11 0 -10 29 1 39 1 39 11 11 7 -21 7
-32 -1 -40z"/>
<path d="M5386 3268 l-27 -53 35 39 c20 22 36 45 36 53 0 27 -18 11 -44 -39z"/>
<path d="M2964 3266 c-3 -21 -4 -39 -1 -42 2 -3 8 11 11 32 4 20 5 38 2 41 -2
3 -8 -11 -12 -31z"/>
<path d="M3220 3261 c0 -17 4 -32 8 -35 4 -2 6 11 4 30 -5 42 -12 45 -12 5z"/>
<path d="M3791 3275 c0 -11 9 -36 20 -55 20 -35 19 -28 -7 40 -8 22 -13 27
-13 15z"/>
<path d="M4417 3243 c-17 -40 -26 -127 -14 -139 11 -12 58 107 55 139 -4 44
-22 44 -41 0z m17 -59 c-15 -33 -18 -36 -21 -18 -2 12 4 39 13 60 15 33 18 36
21 18 2 -12 -4 -39 -13 -60z"/>
<path d="M4757 3273 c-2 -5 -1 -19 4 -33 7 -23 7 -23 8 8 1 31 -3 40 -12 25z"/>
<path d="M5140 3214 c-25 -13 -52 -24 -60 -24 -12 0 -12 -2 2 -10 12 -7 32 -4
71 10 54 20 54 20 97 1 39 -18 70 -19 70 -2 0 3 -26 14 -58 24 -31 10 -61 20
-67 22 -5 2 -30 -7 -55 -21z"/>
<path d="M2951 3194 c0 -11 3 -14 6 -6 3 7 2 16 -1 19 -3 4 -6 -2 -5 -13z"/>
<path d="M4762 3190 c0 -14 2 -19 5 -12 2 6 2 18 0 25 -3 6 -5 1 -5 -13z"/>
<path d="M5010 3190 c-8 -5 -11 -12 -7 -16 4 -4 15 0 24 9 18 18 8 23 -17 7z"/>
<path d="M2937 3156 c-4 -10 -5 -21 -2 -24 9 -9 17 6 13 25 -3 17 -4 17 -11
-1z"/>
<path d="M5214 3157 c-3 -9 -11 -14 -19 -11 -12 5 -30 -24 -20 -34 2 -3 7 2
11 11 3 9 11 14 19 11 12 -5 30 24 20 34 -2 3 -7 -2 -11 -11z"/>
<path d="M5325 3143 c11 -46 25 -51 25 -10 0 27 -4 37 -16 37 -13 0 -15 -6 -9
-27z"/>
<path d="M5240 3144 c0 -8 5 -12 10 -9 6 3 10 10 10 16 0 5 -4 9 -10 9 -5 0
-10 -7 -10 -16z"/>
<path d="M5041 3101 c-8 -17 -11 -34 -8 -38 8 -7 29 46 24 60 -2 6 -9 -4 -16
-22z"/>
<path d="M5107 3110 c-3 -11 -1 -20 4 -20 5 0 9 2 9 4 0 2 3 11 6 20 3 9 2 16
-4 16 -5 0 -12 -9 -15 -20z"/>
<path d="M4959 3076 c-13 -27 -32 -54 -41 -60 -24 -15 -23 -29 1 -17 23 13 74
97 68 114 -2 6 -14 -11 -28 -37z"/>
<path d="M4998 3083 c-10 -20 -15 -39 -13 -42 7 -7 13 1 30 42 20 48 5 48 -17
0z"/>
<path d="M5077 3098 c-9 -31 -2 -33 11 -3 6 14 8 25 3 25 -5 0 -11 -10 -14
-22z"/>
<path d="M2570 3106 c0 -21 120 -220 152 -253 50 -51 82 -58 72 -15 -19 79
-94 180 -178 240 -25 18 -46 31 -46 28z m120 -113 c45 -51 90 -131 90 -160 0
-33 -88 68 -131 150 -33 64 -37 77 -21 68 11 -6 39 -32 62 -58z"/>
<path d="M4305 3073 l-28 -38 34 32 c18 18 30 35 27 38 -3 3 -18 -11 -33 -32z"/>
<path d="M2373 3044 c-6 -16 4 -34 19 -34 7 0 6 5 -1 14 -18 22 7 32 27 12 14
-14 15 -18 3 -25 -8 -6 3 -11 35 -16 56 -8 93 -43 136 -127 35 -68 71 -151 70
-160 -4 -21 196 -122 222 -112 27 10 18 23 -21 29 -64 10 -159 54 -180 83 -11
15 -28 50 -38 77 -38 99 -119 215 -152 215 -8 0 -13 12 -13 28 0 27 -2 28 -51
29 -33 0 -52 -4 -56 -13z m91 -19 c-4 -8 -8 -15 -10 -15 -2 0 -4 7 -4 15 0 8
4 15 10 15 5 0 7 -7 4 -15z"/>
<path d="M5284 3045 c-15 -11 -16 -14 -3 -15 8 0 24 7 35 15 15 11 16 14 3 15
-8 0 -24 -7 -35 -15z"/>
<path d="M4050 3023 c0 -21 3 -24 9 -14 5 8 7 20 4 28 -8 21 -13 15 -13 -14z"/>
<path d="M2566 3027 c3 -10 9 -15 12 -12 3 3 0 11 -7 18 -10 9 -11 8 -5 -6z"/>
<path d="M4094 3008 c4 -24 44 -172 72 -268 20 -67 86 -194 99 -189 13 5 9
104 -6 154 -27 92 -69 184 -113 253 -26 39 -49 72 -52 72 -2 0 -3 -10 0 -22z
m108 -171 c38 -95 58 -171 58 -222 l0 -50 -30 59 c-33 65 -57 132 -91 251 -12
44 -24 87 -27 95 -14 39 71 -87 90 -133z"/>
<path d="M2580 2995 c0 -5 5 -17 10 -25 5 -8 10 -10 10 -5 0 6 -5 17 -10 25
-5 8 -10 11 -10 5z"/>
<path d="M4066 2936 c3 -33 10 -69 14 -80 5 -12 6 3 3 39 -3 33 -10 69 -15 80
-5 12 -6 -2 -2 -39z"/>
<path d="M3819 2966 c-2 -3 -2 -26 1 -53 l4 -48 6 50 5 50 32 -55 c37 -62 49
-132 35 -205 l-9 -50 -28 63 c-16 34 -30 61 -32 59 -4 -5 46 -130 57 -141 25
-26 34 176 11 234 -25 61 -67 111 -82 96z"/>
<path d="M5204 2948 c14 -49 18 -125 7 -132 -6 -4 -11 -15 -11 -24 1 -14 4
-13 20 7 30 35 24 171 -7 171 -11 0 -13 -6 -9 -22z"/>
<path d="M3822 2815 c0 -16 2 -22 5 -12 2 9 2 23 0 30 -3 6 -5 -1 -5 -18z"/>
<path d="M3981 2714 c0 -11 3 -14 6 -6 3 7 2 16 -1 19 -3 4 -6 -2 -5 -13z"/>
<path d="M3971 2683 c-1 -6 -4 -20 -7 -30 -5 -17 -5 -17 6 0 6 10 9 23 6 30
-3 9 -5 9 -5 0z"/>
<path d="M3950 2620 c0 -5 5 -10 11 -10 5 0 7 5 4 10 -3 6 -8 10 -11 10 -2 0
-4 -4 -4 -10z"/>
<path d="M2447 2546 c-3 -8 2 -21 12 -30 16 -15 19 -15 31 -1 10 12 10 18 0
30 -16 19 -36 19 -43 1z m33 -16 c0 -5 -2 -10 -4 -10 -3 0 -8 5 -11 10 -3 6
-1 10 4 10 6 0 11 -4 11 -10z"/>
<path d="M3799 2275 c-30 -62 -32 -69 -25 -143 3 -42 9 -87 12 -99 17 -61 94
65 94 152 0 51 -24 140 -40 150 -5 3 -23 -24 -41 -60z m61 -30 c11 -46 11 -66
1 -103 -12 -48 -41 -97 -57 -97 -17 0 -28 146 -14 185 16 45 40 81 49 75 4 -2
14 -29 21 -60z"/>
<path d="M2590 2230 c0 -7 18 -45 41 -84 29 -51 53 -80 83 -99 52 -33 71 -35
56 -8 -5 11 -10 27 -10 36 0 9 -34 49 -76 88 -82 77 -94 85 -94 67z m151 -157
c15 -48 -61 8 -92 69 -10 21 -19 40 -19 44 0 14 105 -92 111 -113z"/>
<path d="M2775 2190 c10 -11 23 -20 28 -20 6 0 1 9 -11 20 -12 11 -24 20 -28
20 -4 0 1 -9 11 -20z"/>
<path d="M4302 2130 c-7 -36 -25 -87 -39 -115 l-26 -50 18 -155 c12 -103 23
-160 33 -170 13 -13 14 -11 8 20 -13 63 -27 150 -36 226 -9 69 -8 79 14 122
29 59 49 132 44 163 -2 15 -8 -1 -16 -41z"/>
<path d="M3921 2072 c-12 -23 -21 -45 -21 -49 1 -4 10 9 21 30 11 22 23 37 25
34 10 -10 -32 -84 -73 -129 -23 -25 -45 -57 -47 -70 -9 -38 -12 -268 -3 -268
4 0 7 51 7 113 0 139 8 167 63 226 49 53 74 110 59 137 -8 15 -13 11 -31 -24z"/>
<path d="M4010 2058 c0 -21 2 -38 4 -38 9 0 12 50 5 62 -6 8 -9 -1 -9 -24z"/>
<path d="M4293 2006 c-20 -57 -21 -71 -13 -147 6 -46 14 -104 19 -129 13 -67
13 -9 0 109 -10 88 -10 108 5 162 23 81 16 84 -11 5z"/>
<path d="M3481 2030 c-12 -18 -35 -36 -49 -41 -15 -6 -41 -29 -59 -52 -18 -23
-51 -62 -74 -87 -80 -88 -99 -120 -97 -164 1 -39 1 -39 5 -7 5 36 39 97 68
121 10 8 16 11 14 5 -3 -5 -15 -32 -27 -58 -12 -27 -22 -56 -22 -65 1 -9 16
15 34 53 24 50 53 88 101 135 40 39 65 57 62 45 -4 -11 -18 -54 -33 -95 -19
-54 -24 -84 -20 -113 4 -24 2 -45 -5 -54 -9 -10 -9 -17 -1 -25 7 -7 12 -10 12
-7 7 117 22 196 49 255 42 97 20 97 -75 3 -41 -41 -74 -68 -74 -62 0 6 4 13 8
15 5 2 37 36 71 76 34 39 68 72 75 72 7 0 21 9 31 20 10 11 22 17 26 14 17
-10 9 -44 -25 -111 -45 -89 -56 -133 -54 -220 2 -99 12 -82 14 22 1 78 4 91
45 172 42 86 48 118 30 165 -6 17 -9 16 -30 -12z"/>
<path d="M4322 1973 c-12 -51 -11 -75 7 -193 19 -127 20 -92 2 65 -5 41 -5 89
1 118 5 26 8 52 6 58 -2 6 -9 -16 -16 -48z"/>
<path d="M2329 2004 c-11 -14 -10 -18 6 -30 10 -8 22 -14 26 -14 5 0 12 -16
18 -35 14 -50 45 -90 94 -118 65 -38 89 -42 118 -17 l24 21 -31 -16 c-29 -17
-32 -16 -75 5 -89 45 -142 125 -109 165 15 19 5 49 -15 41 -8 -3 -17 -1 -20 4
-9 14 -21 12 -36 -6z m31 -14 c0 -5 -4 -10 -10 -10 -5 0 -10 5 -10 10 0 6 5
10 10 10 6 0 10 -4 10 -10z"/>
<path d="M4022 1973 c-2 -35 -8 -46 -38 -69 -45 -35 -52 -55 -60 -157 -3 -45
-7 -92 -10 -104 -2 -13 -1 -23 4 -23 5 0 14 53 20 118 l11 117 41 35 c39 33
41 38 37 80 l-4 45 -1 -42z"/>
<path d="M3690 1966 c0 -13 -18 -60 -40 -104 -57 -113 -80 -182 -62 -182 4 0
13 23 19 51 7 28 18 58 25 67 7 8 27 45 44 81 l31 66 12 -56 c8 -39 9 -82 3
-139 -4 -44 -5 -83 -1 -86 4 -2 10 40 14 95 5 75 3 112 -9 160 -9 35 -16 65
-16 67 0 2 -4 4 -10 4 -5 0 -10 -11 -10 -24z"/>
<path d="M4054 1974 c-6 -3 -9 -18 -6 -34 3 -24 -4 -36 -43 -72 l-47 -44 -5
-102 c-5 -77 -3 -102 6 -102 8 0 12 15 11 43 -6 135 -3 147 42 189 l43 39 12
-47 c7 -27 17 -86 22 -133 6 -46 13 -87 17 -90 10 -10 -8 160 -21 209 -26 90
-25 94 5 36 24 -44 34 -82 44 -157 13 -98 26 -140 26 -83 0 39 -26 182 -39
216 -5 15 -22 46 -36 68 -15 23 -24 44 -21 48 3 3 6 0 6 -6 0 -7 17 -29 39
-50 39 -37 45 -56 85 -247 2 -11 4 -2 5 20 0 22 -8 76 -19 119 -17 65 -27 86
-58 115 -20 20 -41 43 -47 52 -5 9 -15 15 -21 13z"/>
<path d="M4354 1943 c-3 -16 -8 -35 -10 -43 -3 -10 -2 -11 4 -5 10 11 24 75
17 75 -3 0 -7 -12 -11 -27z"/>
<path d="M4453 1928 c2 -13 14 -70 26 -128 22 -103 39 -152 26 -75 -13 78 -47
225 -52 225 -3 0 -3 -10 0 -22z"/>
<path d="M4375 1898 c-3 -13 -2 -41 3 -63 9 -38 9 -36 8 22 0 35 -2 63 -3 63
-2 0 -5 -10 -8 -22z"/>
<path d="M4495 1890 c2 -19 7 -57 10 -85 9 -73 15 -91 26 -74 5 8 9 9 9 4 0
-6 -5 -16 -12 -23 -9 -9 -8 -12 6 -12 15 0 17 7 11 58 -3 31 -9 68 -12 82 l-6
25 -7 -25 c-8 -25 -8 -24 -10 5 -1 17 -6 41 -11 55 -7 21 -8 20 -4 -10z m32
-127 c-3 -10 -5 -2 -5 17 0 19 2 27 5 18 2 -10 2 -26 0 -35z"/>
<path d="M4510 1901 c0 -11 5 -23 10 -26 6 -4 10 5 10 19 0 14 -4 26 -10 26
-5 0 -10 -9 -10 -19z"/>
<path d="M4353 1840 c0 -25 2 -35 4 -22 2 12 2 32 0 45 -2 12 -4 2 -4 -23z"/>
<path d="M4046 1743 c7 -105 9 -121 19 -112 8 9 -8 219 -17 219 -5 0 -6 -47
-2 -107z"/>
<path d="M3335 1798 c-15 -23 -29 -59 -31 -82 l-4 -41 16 48 c19 57 34 61 34
7 0 -22 3 -40 8 -40 4 0 7 34 8 75 0 41 -1 75 -2 75 -1 0 -14 -19 -29 -42z"/>
<path d="M3661 1807 c-19 -32 -44 -117 -36 -126 6 -5 25 46 25 67 0 9 7 26 15
36 15 20 15 20 16 0 1 -10 1 -36 -1 -58 -1 -26 2 -36 9 -32 13 9 15 146 2 146
-5 0 -18 -15 -30 -33z"/>
<path d="M4005 1730 c0 -55 3 -100 8 -100 4 0 7 45 7 100 0 55 -3 100 -7 100
-5 0 -8 -45 -8 -100z"/>
<path d="M4616 1755 c8 -73 36 -205 44 -205 8 0 -10 102 -34 195 l-16 60 6
-50z"/>
<path d="M2736 1762 c38 -33 103 -145 74 -127 -6 3 -10 12 -10 19 0 29 -103
126 -135 126 -15 0 -2 -20 18 -25 33 -10 82 -61 102 -106 10 -21 22 -39 27
-39 22 0 18 35 -11 90 -17 33 -29 60 -26 60 9 0 65 -105 65 -122 0 -10 5 -18
11 -18 24 0 -48 145 -72 145 -8 1 -24 6 -36 13 -36 20 -40 13 -7 -16z"/>
<path d="M4362 1765 c-1 -16 3 -48 7 -70 11 -53 12 -5 2 55 -6 34 -9 37 -9 15z"/>
<path d="M4392 1738 c1 -31 4 -62 9 -70 11 -17 11 32 0 87 -9 39 -9 39 -9 -17z"/>
<path d="M2831 1735 c3 -5 12 -26 21 -45 9 -19 19 -44 23 -54 3 -10 8 -16 11
-13 10 10 -19 86 -39 104 -11 10 -18 14 -16 8z"/>
<path d="M2889 1680 c17 -52 36 -70 25 -22 -11 45 -23 72 -32 72 -5 0 -1 -22
7 -50z"/>
<path d="M2927 1685 c3 -16 9 -37 14 -45 15 -27 10 11 -6 45 l-14 30 6 -30z"/>
<path d="M3504 1660 c-1 -22 2 -40 7 -40 5 0 9 18 9 40 0 22 -3 40 -8 40 -4 0
-8 -18 -8 -40z"/>
<path d="M4311 1664 c0 -11 3 -14 6 -6 3 7 2 16 -1 19 -3 4 -6 -2 -5 -13z"/>
<path d="M3337 1646 c-3 -8 -2 -18 3 -21 13 -8 24 15 12 27 -6 6 -11 4 -15 -6z"/>
<path d="M3530 1636 c0 -14 5 -26 10 -26 6 0 10 9 10 19 0 11 -4 23 -10 26 -6
4 -10 -5 -10 -19z"/>
<path d="M3030 1630 c-6 -12 -10 -31 -7 -43 3 -21 4 -21 11 -2 20 52 26 60 20
25 -4 -25 -3 -32 5 -25 6 6 12 21 13 35 4 32 -26 39 -42 10z"/>
<path d="M3255 1637 c-4 -10 -5 -21 -1 -24 10 -10 18 4 13 24 -4 17 -4 17 -12
0z"/>
<path d="M3300 1629 c0 -11 5 -17 10 -14 6 3 10 13 10 21 0 8 -4 14 -10 14 -5
0 -10 -9 -10 -21z"/>
<path d="M3560 1636 c0 -8 5 -18 10 -21 6 -3 10 3 10 14 0 12 -4 21 -10 21 -5
0 -10 -6 -10 -14z"/>
<path d="M3600 1631 c0 -11 5 -23 10 -26 6 -4 10 5 10 19 0 14 -4 26 -10 26
-5 0 -10 -9 -10 -19z"/>
<path d="M3220 1625 c0 -8 5 -15 10 -15 6 0 10 7 10 15 0 8 -4 15 -10 15 -5 0
-10 -7 -10 -15z"/>
<path d="M3457 1620 c-3 -11 -1 -20 4 -20 5 0 9 2 9 4 0 2 3 11 6 20 3 9 2 16
-4 16 -5 0 -12 -9 -15 -20z"/>
<path d="M3660 1614 c0 -14 4 -23 10 -19 6 3 10 15 10 26 0 10 -4 19 -10 19
-5 0 -10 -12 -10 -26z"/>
<path d="M3697 1620 c-3 -11 -2 -22 3 -25 4 -3 10 4 13 15 3 11 2 22 -3 25 -4
3 -10 -4 -13 -15z"/>
<path d="M4460 1626 c0 -8 5 -18 10 -21 6 -3 10 3 10 14 0 12 -4 21 -10 21 -5
0 -10 -6 -10 -14z"/>
<path d="M4490 1633 c0 -5 5 -15 10 -23 8 -12 10 -11 10 8 0 12 -4 22 -10 22
-5 0 -10 -3 -10 -7z"/>
<path d="M4560 1626 c0 -8 5 -18 10 -21 6 -3 10 3 10 14 0 12 -4 21 -10 21 -5
0 -10 -6 -10 -14z"/>
<path d="M3140 1614 c0 -8 5 -12 10 -9 6 3 10 10 10 16 0 5 -4 9 -10 9 -5 0
-10 -7 -10 -16z"/>
<path d="M4417 1611 c3 -12 10 -21 15 -21 13 0 6 32 -9 37 -7 3 -9 -3 -6 -16z"/>
<path d="M4527 1611 c3 -12 10 -21 15 -21 13 0 6 32 -9 37 -7 3 -9 -3 -6 -16z"/>
<path d="M2960 1590 c0 -16 5 -30 10 -30 6 0 10 14 10 30 0 17 -4 30 -10 30
-5 0 -10 -13 -10 -30z"/>
<path d="M3720 1595 c0 -14 5 -25 10 -25 6 0 10 11 10 25 0 14 -4 25 -10 25
-5 0 -10 -11 -10 -25z"/>
<path d="M4380 1615 c0 -18 19 -40 26 -32 4 4 0 15 -9 24 -9 10 -17 13 -17 8z"/>
<path d="M2931 1580 c0 -33 1 -34 10 -11 6 16 6 28 -1 35 -7 7 -10 -1 -9 -24z"/>
<path d="M2990 1589 c0 -11 5 -17 10 -14 6 3 10 13 10 21 0 8 -4 14 -10 14 -5
0 -10 -9 -10 -21z"/>
<path d="M4240 1596 c0 -8 5 -18 10 -21 6 -3 10 1 10 9 0 8 -4 18 -10 21 -5 3
-10 -1 -10 -9z"/>
<path d="M4280 1586 c0 -14 5 -26 10 -26 6 0 10 9 10 19 0 11 -4 23 -10 26 -6
4 -10 -5 -10 -19z"/>
<path d="M4310 1591 c0 -12 5 -21 10 -21 6 0 10 6 10 14 0 8 -4 18 -10 21 -5
3 -10 -3 -10 -14z"/>
<path d="M4340 1603 c0 -14 19 -38 25 -32 8 8 -5 39 -16 39 -5 0 -9 -3 -9 -7z"/>
<path d="M2890 1578 c-5 -14 -9 -17 -9 -8 -1 25 -39 22 -44 -3 -4 -22 -4 -22
-6 1 -2 33 -21 27 -21 -7 0 -24 3 -28 20 -24 11 3 20 13 20 22 1 15 1 15 10
-1 15 -24 50 -11 50 18 0 30 -8 31 -20 2z"/>
<path d="M3800 1579 c0 -12 7 -19 20 -19 11 0 20 6 20 14 0 7 -9 16 -20 19
-15 4 -20 0 -20 -14z"/>
<path d="M3855 1587 c-4 -10 -5 -21 -1 -24 10 -10 18 4 13 24 -4 17 -4 17 -12
0z"/>
<path d="M3902 1580 c0 -14 2 -19 5 -12 2 6 2 18 0 25 -3 6 -5 1 -5 -13z"/>
<path d="M3930 1576 c0 -14 5 -26 10 -26 6 0 10 9 10 19 0 11 -4 23 -10 26 -6
4 -10 -5 -10 -19z"/>
<path d="M4190 1576 c0 -31 6 -34 13 -6 3 11 1 23 -4 26 -5 3 -9 -6 -9 -20z"/>
<path d="M3760 1575 c0 -8 5 -15 10 -15 6 0 10 7 10 15 0 8 -4 15 -10 15 -5 0
-10 -7 -10 -15z"/>
<path d="M3992 1570 c0 -14 2 -19 5 -12 2 6 2 18 0 25 -3 6 -5 1 -5 -13z"/>
<path d="M4027 1569 c4 -13 9 -17 15 -11 11 11 3 32 -12 32 -4 0 -6 -9 -3 -21z"/>
<path d="M4080 1575 c0 -8 5 -15 10 -15 6 0 10 7 10 15 0 8 -4 15 -10 15 -5 0
-10 -7 -10 -15z"/>
<path d="M4140 1571 c0 -25 6 -27 13 -6 4 8 2 17 -3 20 -6 4 -10 -3 -10 -14z"/>
<path d="M2776 1554 c-6 -24 -2 -44 8 -33 9 11 15 59 7 59 -5 0 -12 -12 -15
-26z"/>
<path d="M3270 1540 c-30 -4 -95 -18 -145 -31 -77 -20 -114 -23 -260 -23 -93
-1 -218 3 -277 8 -74 6 -108 6 -108 -1 0 -7 44 -13 108 -17 59 -3 156 -9 216
-12 118 -7 196 2 359 42 83 21 122 24 265 24 189 0 261 -9 324 -41 36 -19 58
-22 133 -21 159 2 356 13 489 28 71 7 133 11 138 8 4 -3 15 -20 22 -39 l14
-33 146 4 c122 4 146 2 146 -10 0 -7 -7 -17 -16 -20 -28 -11 -364 -7 -385 5
-13 6 -153 10 -402 10 -272 0 -384 3 -389 11 -4 8 -103 12 -340 11 -333 0
-433 -6 -872 -49 l-48 -4 41 46 c63 72 49 76 -18 5 -57 -59 -59 -63 -44 -81 9
-10 20 -17 25 -14 5 3 88 7 186 10 97 2 265 8 372 14 420 21 645 28 661 20 8
-5 184 -8 391 -7 315 2 378 0 392 -13 15 -11 57 -14 218 -13 l200 1 29 32 c57
62 39 70 -142 63 -142 -6 -149 -5 -149 13 0 10 -7 28 -15 38 -15 19 -18 20
-193 3 -97 -10 -256 -20 -352 -23 -172 -7 -176 -6 -236 19 -87 37 -342 57
-484 37z"/>
<path d="M4672 1491 c2 -7 7 -12 11 -12 12 1 9 15 -3 20 -7 2 -11 -2 -8 -8z"/>
<path d="M4720 1470 c0 -5 5 -10 11 -10 5 0 7 5 4 10 -3 6 -8 10 -11 10 -2 0
-4 -4 -4 -10z"/>
<path d="M3310 1309 c-85 -4 -202 -10 -260 -13 -58 -3 -188 -6 -290 -6 l-186
0 -17 -29 c-13 -23 -14 -31 -4 -39 13 -11 428 -24 747 -23 91 0 399 0 685 0
389 1 526 4 543 13 27 14 56 63 47 78 -4 6 -66 10 -144 10 -75 0 -141 4 -146
8 -6 4 -183 5 -395 1 -215 -3 -389 -3 -394 2 -6 5 -15 8 -20 8 -6 -1 -81 -5
-166 -10z m215 -19 c11 0 184 2 384 5 203 2 369 0 375 -4 6 -5 69 -9 140 -10
71 0 131 -3 134 -5 2 -3 -8 -11 -24 -17 -21 -8 -84 -9 -224 -3 -240 11 -1402
12 -1600 1 -125 -6 -142 -5 -127 7 14 10 63 14 210 15 106 1 289 6 407 10 118
5 235 7 260 5 25 -3 54 -4 65 -4z m743 -51 c84 -6 178 -8 209 -4 41 5 53 4 48
-5 -5 -8 -49 -11 -144 -10 -342 4 -902 -1 -923 -9 -23 -9 -690 5 -736 15 -57
12 0 22 135 23 81 1 149 3 150 5 8 8 1127 -5 1261 -15z"/>
<path d="M3655 1118 c-15 -10 -102 -13 -367 -13 -335 0 -348 -1 -362 -20 -9
-11 -15 -22 -16 -25 0 -3 172 -5 383 -5 269 1 390 4 409 12 19 9 78 10 200 6
180 -6 190 -4 200 36 4 20 -417 28 -447 9z m424 -14 c16 -14 -33 -18 -195 -16
-136 2 -190 -1 -206 -10 -35 -20 -753 -19 -734 1 10 10 41 13 112 12 540 -9
532 -10 634 17 32 8 379 4 389 -4z"/>
</g>
</svg>
