<?xml version="1.0" standalone="no"?>
<!DOCTYPE svg PUBLIC "-//W3C//DTD SVG 20010904//EN"
 "http://www.w3.org/TR/2001/REC-SVG-20010904/DTD/svg10.dtd">
<svg version="1.0" xmlns="http://www.w3.org/2000/svg"
 width="1594.000000pt" height="1594.000000pt" viewBox="0 0 1594.000000 1594.000000"
 preserveAspectRatio="xMidYMid meet">

<g transform="translate(0.000000,1594.000000) scale(0.100000,-0.100000)"
fill="#000000" stroke="none">
<path d="M0 7970 l0 -7970 7970 0 7970 0 0 7970 0 7970 -7970 0 -7970 0 0
-7970z m15270 -5 l0 -7205 -7295 0 -7295 0 0 7205 0 7205 7295 0 7295 0 0
-7205z"/>
<path d="M10082 14944 c-16 -11 -22 -12 -22 -3 0 7 -3 9 -7 5 -14 -13 -42
-200 -42 -280 -1 -68 3 -86 25 -125 15 -25 39 -59 54 -76 23 -25 29 -42 33
-100 19 -227 154 -481 401 -758 118 -132 196 -299 196 -415 0 -107 -12 -109
-60 -6 -23 49 -52 108 -63 132 -24 52 -135 158 -191 183 -27 12 -65 19 -110
19 l-69 0 -47 -47 c-41 -43 -50 -59 -75 -148 -55 -197 -28 -379 74 -499 29
-34 112 -66 172 -66 72 0 174 31 227 70 26 18 44 26 48 19 11 -18 -7 -158 -28
-223 -44 -136 -135 -260 -247 -335 -58 -39 -261 -145 -296 -155 -19 -6 -20 -2
-14 127 4 72 14 177 24 232 14 80 17 132 12 263 -3 91 -10 169 -16 176 -6 7
-8 15 -6 18 13 13 -92 460 -130 553 -7 17 -25 69 -40 118 -15 48 -46 125 -69
170 -44 89 -61 100 -116 77 -25 -10 -29 -20 -40 -78 -14 -77 -36 -156 -90
-329 -68 -213 -73 -366 -19 -553 53 -184 210 -426 322 -496 71 -44 76 -61 72
-239 -3 -130 -13 -198 -54 -367 -9 -37 -8 -38 20 -38 16 0 29 4 29 10 0 5 6 7
13 4 20 -7 53 75 48 118 -1 9 3 19 9 23 5 3 10 17 10 31 0 41 16 60 72 84 164
69 343 184 419 268 121 135 207 344 216 527 5 93 8 107 49 191 24 50 44 103
44 117 0 14 4 28 9 32 11 6 -17 112 -49 181 -13 27 -23 52 -22 56 2 10 -31 80
-51 108 -10 14 -40 60 -67 102 -28 42 -74 103 -103 135 -178 195 -252 341
-291 573 l-16 95 25 48 c30 59 31 85 4 168 -25 75 -49 125 -95 195 -19 28 -34
62 -34 76 0 37 -21 51 -48 32z m67 -263 c21 -49 30 -161 13 -161 -18 0 -62
106 -62 151 0 76 19 80 49 10z m-351 -1143 c103 -310 167 -598 176 -784 l2
-42 -43 2 c-63 2 -72 -21 -44 -112 11 -39 21 -80 21 -93 l0 -22 -26 24 c-77
71 -184 243 -236 379 -31 82 -32 90 -32 240 -1 166 12 232 67 365 13 33 27 72
31 87 11 46 25 78 35 78 5 0 27 -55 49 -122z m567 -208 c61 -31 128 -96 169
-165 23 -38 76 -186 76 -212 0 -7 -17 -21 -38 -32 -41 -21 -49 -21 -221 9 -62
11 -80 19 -111 49 -57 54 -76 129 -63 243 6 49 17 98 27 112 24 37 84 35 161
-4z"/>
<path d="M13653 14936 c-40 -47 -110 -192 -153 -316 -27 -79 -42 -232 -31
-320 11 -83 60 -230 78 -230 7 0 13 -5 13 -10 0 -21 52 -92 71 -97 10 -3 19
-11 19 -18 0 -15 89 -95 106 -95 28 0 52 -47 62 -125 35 -259 19 -404 -68
-616 -37 -88 -127 -210 -300 -404 -73 -82 -139 -176 -181 -255 -15 -30 -24
-39 -27 -28 -4 21 40 108 90 176 80 108 116 236 123 437 6 164 -5 224 -66 353
-21 45 -39 87 -39 92 0 21 -23 20 -55 -2 -19 -12 -35 -26 -35 -30 0 -4 -13
-22 -29 -40 -76 -87 -147 -278 -157 -423 -6 -91 -4 -108 21 -190 14 -49 31
-97 36 -105 5 -8 17 -31 26 -50 10 -19 24 -43 32 -53 13 -16 13 -26 -2 -87
-17 -63 -22 -211 -9 -234 2 -4 6 -25 7 -46 2 -21 11 -53 21 -71 10 -19 19 -41
19 -49 1 -22 36 -100 45 -100 4 0 10 -15 13 -33 5 -30 25 -69 101 -189 16 -27
34 -48 39 -48 5 0 7 -9 4 -20 -4 -16 -1 -19 16 -16 35 5 32 40 -12 127 -23 44
-41 82 -41 85 0 2 55 31 121 65 104 52 132 71 198 137 42 42 85 95 96 117 11
22 29 54 41 70 12 17 24 46 27 65 3 19 10 53 15 74 15 56 -3 135 -40 180 -50
61 -172 83 -283 51 -62 -18 -141 -83 -161 -131 -19 -46 6 -110 68 -171 44 -43
53 -48 101 -49 28 -2 66 4 84 11 65 27 84 104 42 171 -25 41 -60 52 -94 30
-28 -18 -32 -34 -11 -42 45 -17 14 -74 -40 -74 -84 0 -67 123 24 185 62 42
165 24 192 -33 48 -106 3 -274 -100 -378 -63 -64 -315 -203 -333 -185 -6 6 -8
11 -4 11 3 0 -10 37 -30 83 -65 151 -56 234 41 397 55 92 64 103 205 259 63
69 136 155 163 191 67 88 131 224 167 350 30 108 45 214 29 204 -5 -3 -6 15
-3 43 4 26 2 85 -3 131 l-10 83 35 57 c18 31 52 94 74 138 36 72 41 93 45 170
3 49 9 90 14 92 10 4 5 66 -8 117 -6 20 -16 31 -30 33 -12 2 -22 10 -22 17 0
9 6 12 15 9 8 -4 15 -2 15 2 0 37 -142 312 -166 321 -8 3 -14 15 -14 27 0 13
-11 33 -25 46 -14 13 -25 27 -25 32 0 4 -19 37 -42 72 -48 72 -76 86 -105 52z
m74 -138 c141 -223 229 -405 254 -525 23 -113 -22 -274 -106 -377 l-24 -30
-53 36 c-105 71 -218 199 -250 283 -9 22 -19 87 -23 145 -9 143 15 251 91 411
32 66 60 119 64 119 4 0 25 -28 47 -62z m268 -378 c3 -5 1 -10 -4 -10 -6 0
-11 5 -11 10 0 6 2 10 4 10 3 0 8 -4 11 -10z m55 -143 c0 -5 -4 -5 -10 -2 -5
3 -10 14 -10 23 0 15 2 15 10 2 5 -8 10 -19 10 -23z m-718 -914 c9 -16 24 -55
34 -88 25 -85 26 -341 1 -443 -10 -40 -15 -77 -12 -83 4 -5 1 -9 -5 -9 -6 0
-17 -15 -25 -32 -17 -39 -58 -88 -74 -88 -6 0 -15 10 -20 23 -5 12 -20 38 -33
57 -13 19 -34 69 -47 110 -27 86 -29 194 -5 288 28 108 128 292 159 292 6 0
18 -12 27 -27z"/>
<path d="M6093 14574 c-32 -14 -55 -46 -66 -95 -12 -47 21 -137 133 -361 60
-121 110 -227 110 -235 0 -8 -40 -33 -92 -57 -183 -85 -274 -129 -358 -171
-47 -23 -97 -45 -112 -49 -31 -7 -64 -49 -53 -67 15 -23 93 1 250 79 88 44
192 94 230 111 39 17 79 37 90 43 11 6 32 19 47 27 33 19 63 6 63 -28 0 -22
-54 -59 -376 -257 -126 -77 -150 -103 -141 -147 3 -14 10 -16 40 -11 37 6 150
63 218 109 20 14 49 25 64 25 15 0 54 13 86 30 32 16 69 30 80 30 12 0 48 14
79 30 64 34 65 34 65 20 0 -5 -23 -22 -51 -37 -68 -38 -98 -54 -139 -80 -37
-23 -77 -45 -180 -103 -36 -20 -99 -56 -140 -82 -41 -25 -94 -55 -116 -66 -40
-20 -66 -52 -42 -52 6 0 16 -7 23 -16 10 -14 20 -12 91 24 213 107 337 163
539 244 98 40 130 42 130 8 0 -6 -94 -60 -210 -119 -272 -138 -385 -220 -360
-261 10 -16 52 -12 90 10 20 11 42 20 50 20 8 0 15 6 15 13 0 7 17 19 38 26
20 7 75 31 122 53 47 23 101 42 120 43 19 1 50 10 69 19 102 53 231 62 159 11
-66 -46 -260 -161 -341 -201 -125 -63 -123 -61 -91 -96 34 -35 50 -35 122 -2
31 14 113 44 182 66 69 22 151 48 183 59 79 26 109 26 105 -3 -3 -23 -77 -70
-222 -143 -38 -19 -88 -49 -112 -67 -25 -18 -70 -52 -102 -75 -111 -82 -130
-98 -147 -126 -20 -34 -13 -77 13 -77 53 0 387 112 431 144 7 6 27 16 45 22
17 6 77 30 134 54 83 34 105 40 117 30 22 -19 18 -28 -17 -44 -32 -13 -188
-113 -292 -186 -92 -65 -186 -151 -192 -176 -4 -16 -1 -31 8 -40 12 -13 21
-11 69 10 30 14 65 32 79 40 40 24 236 106 254 106 9 0 19 7 22 15 4 8 14 15
24 15 9 0 47 16 83 35 36 19 68 35 71 35 2 0 14 -17 27 -37 55 -94 362 -437
383 -430 6 2 11 19 11 38 0 26 -4 33 -17 31 -10 -1 -45 31 -93 88 -42 49 -80
90 -84 90 -5 0 -21 18 -35 41 -15 22 -39 54 -54 70 -30 34 -82 111 -82 121 0
9 60 42 80 44 8 1 23 2 32 3 29 2 31 37 5 78 -30 47 -39 75 -29 88 4 6 47 29
97 50 49 22 111 57 137 78 26 20 52 37 58 37 6 0 16 12 22 26 28 60 -47 56
-217 -11 -166 -66 -168 -66 -206 8 -16 33 -28 65 -26 71 3 6 57 40 122 75 64
35 119 70 122 77 3 8 2 25 -1 39 -5 20 -13 25 -37 25 -16 0 -43 -7 -58 -15
-43 -22 -193 -75 -210 -75 -9 1 -26 21 -38 46 -35 70 -42 63 242 208 109 56
126 78 73 95 -43 14 -89 3 -169 -41 -95 -53 -227 -104 -238 -92 -5 5 -12 20
-16 34 -5 22 2 30 57 66 35 23 111 70 171 105 73 43 107 68 107 81 0 30 -43
32 -112 5 -69 -28 -213 -92 -240 -107 -31 -17 -64 -11 -77 14 -8 13 -11 30 -9
37 2 6 40 31 84 55 43 24 109 60 147 80 45 25 69 44 73 60 14 55 -29 58 -135
8 -120 -57 -228 -104 -239 -104 -12 0 -34 49 -27 61 4 5 50 34 103 65 182 106
213 134 193 172 -18 35 -83 38 -144 9 -86 -42 -220 -97 -237 -97 -16 0 -26 15
-82 120 -39 72 -126 209 -180 285 -112 156 -161 186 -245 149z m122 -116 c90
-93 313 -438 303 -469 -2 -6 -39 -26 -82 -45 -64 -28 -81 -32 -93 -22 -9 7
-64 112 -124 234 -114 231 -144 319 -120 348 25 29 53 18 116 -46z m495 -488
c-33 -26 -69 -35 -82 -22 -8 8 -6 13 8 18 10 3 28 9 39 14 11 5 29 9 40 9 18
1 18 -1 -5 -19z m-136 -57 c8 -21 -21 -45 -105 -84 -56 -27 -59 -27 -69 -9
-17 32 -12 39 53 68 103 48 112 50 121 25z m66 -102 c19 -37 22 -35 -127 -97
-30 -13 -33 -12 -44 7 -14 27 -5 36 76 78 70 36 81 38 95 12z m-237 -125 c4
-10 -6 -18 -31 -27 -20 -6 -56 -22 -79 -35 -48 -28 -61 -30 -43 -9 7 8 16 15
21 15 5 0 31 16 57 35 52 38 67 42 75 21z m335 -33 c6 -15 9 -30 5 -34 -5 -4
-42 -21 -83 -38 -66 -27 -77 -28 -90 -15 -9 9 -11 17 -5 22 53 38 140 92 149
92 6 0 17 -12 24 -27z m-392 -68 c-11 -8 -25 -15 -30 -15 -6 1 0 7 14 15 32
19 40 18 16 0z m434 -29 c0 -7 -136 -86 -148 -86 -20 0 -13 29 11 42 47 26
137 55 137 44z m-277 -31 c1 -6 -11 -11 -28 -13 -29 -3 -29 -3 -10 12 21 16
35 17 38 1z m342 -56 c8 -25 12 -22 -59 -53 -114 -50 -145 -24 -43 37 71 42
93 46 102 16z m-225 -107 c0 -9 -61 -34 -68 -28 -4 5 48 35 61 36 4 0 7 -4 7
-8z m332 -81 c11 -18 17 -39 15 -45 -3 -6 -29 -20 -58 -30 -30 -11 -59 -21
-66 -23 -11 -4 -43 45 -43 66 0 14 101 72 119 69 8 -2 23 -18 33 -37z m-206
-88 c18 -24 17 -31 -7 -44 -28 -15 -190 -61 -196 -56 -2 3 29 23 69 45 40 22
82 47 93 56 25 19 25 19 41 -1z m207 -64 c-49 -29 -79 -31 -70 -6 4 13 63 35
97 36 20 0 15 -5 -27 -30z m100 -54 c24 -34 47 -99 38 -113 -9 -16 -93 -44
-101 -35 -4 5 -21 33 -38 65 -34 62 -33 65 28 91 47 21 52 20 73 -8z m-157
-109 c20 -30 33 -59 30 -64 -3 -5 -33 -20 -67 -32 -33 -13 -63 -29 -66 -36 -3
-8 -15 -13 -26 -13 -24 2 -168 -47 -257 -86 -167 -73 -263 -101 -205 -58 11 8
58 43 105 79 47 35 88 64 92 64 4 0 47 25 97 55 50 30 116 68 148 84 32 17 67
37 78 45 11 9 23 16 27 16 4 0 24 -24 44 -54z m464 28 c0 -7 -145 -74 -161
-74 -8 0 -8 4 1 15 10 12 10 15 -1 15 -12 0 -12 2 0 9 7 5 21 6 31 4 10 -3 35
4 56 16 38 19 74 27 74 15z m-223 -89 c7 -19 -18 -40 -66 -56 -27 -9 -35 -9
-42 2 -14 22 -11 27 29 48 45 24 71 26 79 6z m49 -69 c8 -8 14 -28 14 -44 0
-24 -8 -34 -37 -52 -43 -25 -58 -20 -86 28 l-18 31 48 25 c57 30 60 30 79 12z
m-146 -98 c11 -18 18 -37 17 -43 -2 -5 -26 -18 -54 -30 -27 -11 -57 -28 -67
-37 -10 -10 -25 -18 -34 -19 -51 -2 -86 -12 -166 -49 -136 -63 -128 -53 64 80
103 72 196 130 208 130 7 0 21 -15 32 -32z"/>
<path d="M2575 14178 c-30 -27 -49 -57 -145 -237 -39 -74 -80 -164 -92 -200
-11 -36 -24 -75 -28 -86 -5 -11 -13 -36 -19 -55 -6 -19 -20 -66 -32 -103 -30
-97 -48 -240 -39 -307 4 -30 17 -77 28 -105 11 -27 30 -86 42 -129 l22 -79
-20 -36 c-52 -92 -67 -152 -67 -261 0 -104 1 -106 41 -181 23 -41 60 -102 83
-135 l41 -59 -27 -19 c-57 -40 -119 -113 -153 -180 -30 -59 -34 -78 -35 -144
0 -95 13 -101 90 -43 65 49 165 150 165 166 0 6 12 22 26 36 14 13 30 34 35
47 12 31 24 28 74 -20 44 -42 45 -46 66 -158 12 -63 25 -144 30 -180 15 -112
32 -174 52 -194 19 -19 20 -19 84 13 83 41 196 127 207 158 4 13 5 44 1 68 -5
37 -14 51 -57 87 -28 24 -56 48 -62 53 -6 6 -33 26 -60 45 -117 85 -112 76
-167 289 -2 8 7 17 21 21 22 6 105 49 285 145 28 15 73 39 100 53 28 15 52 29
55 32 3 3 41 34 85 69 89 71 215 191 215 204 0 5 11 23 25 41 14 18 22 36 18
39 -3 4 1 7 10 7 27 0 49 43 38 74 -10 25 2 39 12 14 3 -8 6 -5 6 5 1 10 5 16
10 13 13 -8 49 36 55 68 3 16 10 34 16 40 5 5 10 19 10 31 1 11 8 38 16 60 38
98 69 315 49 341 -16 22 -100 31 -122 13 -9 -8 -54 -63 -99 -124 -46 -60 -113
-144 -149 -185 -35 -41 -65 -78 -65 -82 0 -5 -9 -19 -21 -32 -12 -13 -21 -27
-20 -30 0 -3 -22 -27 -50 -53 -28 -26 -57 -59 -64 -73 -7 -14 -31 -44 -52 -66
-47 -52 -105 -122 -117 -143 -24 -41 -302 -316 -319 -316 -6 0 -22 29 -35 65
-51 137 -95 248 -128 323 -19 43 -34 85 -34 93 0 15 15 51 67 160 18 39 33 76
33 82 0 11 19 56 80 187 31 67 67 186 79 260 35 212 -5 635 -61 635 -4 0 -19
-10 -33 -22z m36 -135 c18 -89 18 -378 0 -458 -18 -83 -46 -162 -87 -246 -65
-132 -144 -318 -144 -336 0 -31 -25 6 -55 82 -20 52 -29 93 -32 160 -4 81 0
106 36 247 43 168 148 457 181 498 11 14 31 46 45 73 14 26 29 47 34 47 5 0
15 -30 22 -67z m900 -879 c-12 -19 -21 -43 -21 -52 -1 -50 -142 -299 -214
-376 -100 -107 -294 -246 -343 -246 -12 0 -98 -44 -101 -52 -2 -5 -10 -8 -18
-8 -12 0 -13 4 -3 23 11 19 75 104 90 117 3 3 31 37 63 75 33 39 82 94 110
124 28 30 61 68 73 84 12 16 57 66 100 112 92 97 157 172 161 185 2 6 10 10
18 10 8 0 14 6 13 13 -1 6 17 33 42 60 l44 47 3 -40 c2 -28 -3 -53 -17 -76z
m-1122 -442 c17 -34 39 -89 112 -277 23 -61 82 -295 76 -301 -8 -9 -129 98
-146 129 -9 16 -27 41 -40 56 -34 37 -83 145 -89 196 -11 98 23 235 58 235 5
0 18 -17 29 -38z m51 -562 c13 -7 17 -16 13 -28 -19 -50 -171 -229 -217 -254
-17 -9 -18 -7 -11 28 12 68 53 139 117 202 65 66 69 68 98 52z m426 -338 c36
-29 68 -61 71 -70 5 -11 -10 -31 -48 -64 -64 -58 -98 -83 -104 -76 -3 3 -12
61 -20 129 -8 68 -18 135 -21 148 l-7 24 32 -19 c18 -10 62 -43 97 -72z"/>
<path d="M765 13330 c3 -5 8 -10 11 -10 2 0 4 5 4 10 0 6 -5 10 -11 10 -5 0
-7 -4 -4 -10z"/>
<path d="M9631 10956 c-8 -9 -8 -42 -1 -111 14 -135 56 -419 80 -544 11 -58
23 -136 26 -175 l6 -71 -52 -75 c-29 -41 -66 -104 -82 -139 -16 -36 -35 -79
-43 -95 -59 -134 -86 -320 -87 -597 0 -157 4 -233 12 -249 6 -12 9 -31 7 -42
-3 -11 -1 -31 4 -45 5 -14 11 -41 13 -61 3 -21 9 -59 15 -87 6 -27 16 -72 22
-100 6 -27 15 -61 20 -75 5 -14 11 -43 13 -65 10 -95 29 -179 72 -311 l46
-140 -31 -45 c-84 -118 -127 -203 -171 -334 -12 -38 -26 -77 -30 -85 -4 -9
-11 -30 -15 -48 -5 -23 -28 -51 -82 -100 -119 -105 -222 -236 -284 -359 -51
-101 -54 -113 -53 -178 1 -77 25 -138 71 -181 22 -20 36 -24 93 -24 37 0 89 7
116 15 64 19 62 20 77 -17 18 -42 62 -86 90 -90 60 -10 112 26 317 221 165
157 231 211 261 211 34 0 76 51 84 103 4 25 0 121 -9 214 -9 92 -22 219 -28
282 -13 141 -5 449 17 586 8 55 18 118 20 140 3 22 8 48 11 59 3 10 10 41 14
70 17 108 40 224 60 311 12 50 32 139 46 199 14 60 27 113 30 117 13 22 40
242 36 305 -3 70 -5 72 -37 90 -31 16 -41 17 -105 6 -80 -14 -135 -39 -229
-106 -65 -46 -81 -53 -81 -37 0 12 -175 346 -212 403 l-30 47 33 58 c18 32 50
83 72 113 73 106 87 125 96 136 5 7 30 44 55 83 25 38 60 87 79 108 18 21 58
72 87 113 30 41 79 101 108 134 29 32 55 69 58 82 6 24 -1 44 -16 44 -25 0
-262 -269 -360 -407 -24 -35 -47 -63 -51 -63 -10 0 -19 28 -19 59 0 15 -7 52
-14 82 -16 59 -55 303 -81 504 -8 66 -17 130 -20 141 -6 27 -30 37 -44 20z
m50 -1403 c30 -65 78 -163 106 -217 29 -55 52 -101 50 -102 -1 -1 -65 -52
-142 -113 l-140 -112 -6 78 c-7 77 -6 113 7 283 6 87 22 171 44 225 6 17 11
31 11 33 -4 14 1 42 7 42 5 0 33 -53 63 -117z m544 -245 c4 -28 -3 -88 -20
-173 -15 -71 -32 -160 -39 -197 -7 -37 -15 -70 -18 -73 -14 -14 -205 313 -196
335 7 18 125 104 171 126 78 36 95 33 102 -18z m-306 -233 c18 -41 58 -112 88
-157 80 -121 92 -151 81 -201 -9 -39 -112 -291 -128 -312 -4 -5 -22 -37 -40
-70 -18 -33 -46 -85 -63 -115 -16 -30 -45 -76 -63 -103 -19 -26 -34 -52 -34
-57 0 -6 -3 -10 -7 -10 -5 0 -15 28 -24 63 -9 34 -30 114 -47 177 -17 63 -40
165 -51 225 -12 61 -28 142 -36 180 -8 39 -19 99 -25 134 l-11 64 33 33 c33
33 278 222 289 223 3 1 20 -33 38 -74z m131 -729 c-4 -12 -11 -43 -13 -67 -3
-24 -13 -89 -21 -144 -9 -55 -19 -183 -22 -285 l-7 -185 -68 -63 c-57 -53 -70
-71 -84 -119 -11 -38 -14 -72 -10 -107 13 -104 75 -259 130 -324 l25 -30 -42
-35 c-24 -19 -56 -42 -71 -52 -15 -10 -35 -31 -43 -46 -14 -27 -44 -40 -44
-20 0 8 70 96 89 111 3 3 14 15 24 27 33 38 -2 86 -37 51 -49 -51 -148 -164
-185 -211 -42 -55 -43 -58 -28 -81 16 -23 15 -26 -32 -73 -81 -82 -149 -101
-163 -45 -6 22 13 36 60 47 36 8 38 12 17 42 -16 23 -94 63 -122 63 -10 0 -52
-21 -93 -45 -41 -25 -86 -45 -101 -45 -32 0 -60 31 -85 95 -16 44 -16 45 12
112 16 37 53 102 83 143 61 86 152 193 158 187 2 -2 -8 -49 -22 -103 -41 -155
-46 -302 -11 -288 8 3 20 -4 28 -14 13 -19 15 -19 35 -4 11 10 28 31 36 47 35
69 88 253 101 350 13 87 63 266 108 380 41 104 194 409 243 485 13 19 26 45
30 58 3 12 11 22 17 22 5 0 8 7 4 15 -3 8 -1 15 4 15 7 0 33 46 85 149 13 27
26 16 15 -13z m-40 -898 c18 -164 29 -250 36 -290 11 -66 -13 -43 -60 55 -28
58 -49 118 -56 163 -11 69 -10 74 14 123 40 78 52 68 66 -51z"/>
<path d="M7118 10885 c-198 -73 -506 -340 -683 -594 -22 -32 -61 -87 -88 -123
-51 -71 -117 -206 -117 -240 0 -12 6 -29 13 -37 21 -26 274 -461 357 -616 24
-44 62 -109 85 -145 23 -36 56 -92 73 -125 74 -146 313 -497 421 -619 83 -95
109 -115 120 -98 4 6 25 19 46 28 67 27 105 61 105 94 0 26 -60 180 -81 206
-30 37 -119 301 -169 497 -15 62 -35 137 -43 167 -46 167 -51 226 -51 515 1
266 3 289 33 475 47 282 89 509 102 556 18 59 8 74 -43 73 -24 0 -60 -7 -80
-14z m21 -107 c-5 -18 -16 -73 -24 -123 -8 -49 -28 -171 -46 -270 -17 -99 -35
-218 -40 -265 -11 -110 -11 -557 1 -635 49 -327 214 -819 334 -994 20 -30 35
-60 32 -68 -3 -7 -1 -13 5 -13 19 0 -2 -20 -41 -40 -22 -11 -41 -20 -43 -20
-13 0 -86 140 -160 305 -100 225 -190 483 -216 615 -20 107 -53 356 -52 403 0
26 -4 47 -10 47 -5 0 -9 12 -9 28 0 21 2 24 10 12 8 -12 10 -11 10 6 0 12 -7
24 -15 28 -13 4 -14 33 -12 183 3 148 8 200 31 307 15 71 34 136 42 144 10 9
12 18 6 24 -7 7 -3 25 9 52 10 22 19 47 19 54 0 7 9 32 19 55 11 24 23 56 27
72 10 44 29 67 76 97 56 34 58 34 47 -4z m-172 -110 c-31 -74 -107 -339 -128
-448 -39 -202 -31 -573 19 -825 11 -55 23 -125 27 -155 11 -83 141 -454 218
-622 20 -43 32 -78 28 -78 -16 0 -241 340 -328 495 -31 55 -66 114 -79 130
-12 17 -37 57 -54 90 -18 33 -42 76 -55 95 -52 82 -61 97 -81 140 -12 25 -72
128 -132 229 l-110 184 24 39 c14 21 29 49 33 62 37 96 320 451 451 566 76 66
173 140 178 136 2 -2 -3 -19 -11 -38z"/>
<path d="M6901 10094 c0 -11 3 -14 6 -6 3 7 2 16 -1 19 -3 4 -6 -2 -5 -13z"/>
<path d="M6880 9959 c0 -5 5 -7 10 -4 6 3 10 8 10 11 0 2 -4 4 -10 4 -5 0 -10
-5 -10 -11z"/>
<path d="M6878 9837 c-3 -19 -2 -25 4 -19 6 6 8 18 6 28 -3 14 -5 12 -10 -9z"/>
<path d="M2795 10567 c-25 -19 -13 -65 20 -73 35 -9 53 1 61 31 12 47 -38 73
-81 42z"/>
<path d="M12647 10377 c-33 -44 -47 -146 -47 -355 0 -222 67 -362 244 -506
128 -104 128 -104 172 -237 3 -9 -3 -19 -18 -26 -13 -6 -51 -35 -84 -65 -46
-41 -72 -57 -103 -62 -47 -7 -169 -64 -216 -100 -55 -43 -86 -76 -80 -86 3 -5
-5 -25 -19 -43 -33 -44 -60 -106 -84 -194 -16 -61 -18 -87 -11 -164 11 -114
19 -158 30 -165 5 -3 7 -9 4 -14 -3 -5 12 -41 35 -81 22 -39 40 -73 40 -75 0
-10 115 -172 143 -201 28 -30 29 -35 18 -57 -12 -21 -142 -197 -214 -288 -15
-20 -25 -42 -22 -50 3 -8 47 -26 98 -41 51 -15 115 -35 142 -43 123 -38 533
-9 602 44 32 23 32 24 15 47 -9 13 -30 27 -47 31 -36 8 -103 44 -168 90 -53
38 -59 40 -51 19 10 -25 -24 -17 -41 9 -9 13 -27 27 -41 30 -29 8 -184 152
-184 172 0 8 5 14 10 14 6 0 10 6 10 13 0 17 89 190 102 198 6 4 27 -3 47 -15
58 -36 202 -98 214 -92 7 2 4 5 -5 5 -9 1 -20 6 -24 12 -5 8 12 10 59 7 37 -2
68 -1 69 2 5 11 130 50 139 44 15 -9 10 -26 -6 -20 -9 3 -30 -1 -48 -8 -87
-37 -85 -36 -42 -30 22 3 56 10 75 16 43 13 121 68 114 79 -3 5 12 27 33 49
21 22 46 49 56 60 18 21 24 80 7 80 -5 0 -10 -7 -10 -15 0 -20 -32 -85 -42
-85 -11 0 -10 3 7 36 8 16 15 37 15 46 0 9 5 20 10 23 6 3 10 15 10 26 0 10 5
18 12 17 6 -2 14 6 16 16 3 14 0 17 -12 13 -9 -4 -16 -2 -16 3 0 6 7 10 15 10
11 0 14 7 11 23 -6 29 -17 95 -22 130 -2 16 -10 42 -19 60 -12 24 -13 32 -3
38 9 6 9 9 -3 14 -8 3 -28 31 -44 62 -17 30 -40 62 -52 70 -13 9 -23 19 -23
23 0 19 -109 112 -159 136 -30 15 -61 32 -68 39 -7 8 -26 16 -43 20 -34 7 -45
23 -53 77 -5 34 -3 37 26 48 60 21 158 23 270 6 214 -34 331 -19 451 58 136
87 230 264 240 455 5 83 3 103 -8 107 -8 3 -17 13 -20 21 -6 14 -4 14 10 2 15
-12 16 -9 10 41 -9 71 -53 207 -79 243 -11 16 -25 47 -32 70 -12 41 -25 53
-137 123 -59 36 -121 47 -221 40 -114 -8 -163 -30 -267 -121 -94 -83 -131
-152 -138 -261 -6 -93 8 -144 70 -251 26 -46 48 -88 48 -93 0 -28 108 -137
169 -171 46 -26 67 -31 114 -30 118 2 239 89 263 187 4 16 9 33 12 38 7 13 6
137 -3 174 -16 75 -119 211 -188 249 -34 19 -96 15 -145 -9 -53 -25 -137 -102
-128 -117 4 -5 2 -12 -4 -16 -5 -3 -10 -15 -10 -26 0 -28 35 -17 117 37 87 57
118 58 176 4 65 -60 99 -129 105 -215 4 -59 1 -78 -17 -112 -44 -86 -126 -116
-216 -79 -58 24 -159 94 -171 119 -6 12 -26 51 -46 87 -19 36 -43 91 -52 123
-36 125 23 267 143 345 l56 37 120 0 c140 0 171 -12 252 -97 51 -52 71 -85 84
-133 5 -16 15 -55 24 -85 52 -185 29 -367 -58 -463 -47 -53 -201 -152 -258
-167 -63 -17 -139 -18 -216 -4 -82 15 -190 11 -297 -11 -39 -8 -75 -15 -80
-15 -10 0 -2 68 17 142 14 53 15 104 3 258 -4 61 -34 171 -52 191 -8 8 -14 19
-14 24 0 8 -74 128 -92 149 -5 6 -27 40 -50 76 -23 36 -63 89 -89 117 -26 29
-57 75 -70 103 -12 27 -28 50 -35 50 -6 0 -23 -15 -37 -33z m135 -220 c31 -32
76 -86 99 -120 23 -34 45 -61 50 -60 4 2 6 -4 3 -11 -3 -8 3 -23 13 -33 10
-10 18 -29 18 -43 0 -17 5 -24 15 -23 10 2 16 -5 17 -19 2 -18 0 -20 -7 -8 -8
13 -10 12 -10 -3 0 -11 9 -21 21 -24 13 -4 16 -8 9 -13 -8 -5 -8 -14 1 -36 13
-32 17 -50 23 -109 2 -22 7 -48 11 -58 11 -27 -19 -127 -39 -127 -5 0 -25 15
-45 33 -20 17 -54 45 -76 62 -66 49 -143 137 -169 190 -62 127 -77 309 -40
474 5 23 5 23 26 5 12 -11 48 -45 80 -77z m1270 -239 c-8 -8 -10 -2 -10 23 1
31 2 32 11 11 7 -16 7 -26 -1 -34z m-362 -682 c0 -2 -7 -7 -16 -10 -8 -3 -12
-2 -9 4 6 10 25 14 25 6z m-650 -80 c0 -2 3 -12 7 -21 5 -14 2 -16 -18 -10
-31 9 -32 11 -24 24 6 10 35 16 35 7z m-40 -117 c50 -11 50 -11 50 -50 0 -31
-4 -39 -18 -39 -10 0 -23 5 -29 11 -6 6 -38 13 -72 16 -33 3 -61 8 -61 10 0 3
8 18 17 34 19 32 35 35 113 18z m-236 -90 c-8 -41 -19 -83 -24 -94 -34 -79
-53 -151 -57 -216 -6 -82 2 -116 58 -235 16 -33 29 -65 29 -71 0 -6 3 -13 8
-15 4 -1 20 -20 35 -41 20 -26 26 -44 22 -58 -12 -36 -76 -140 -90 -145 -7 -3
-16 -16 -19 -30 -4 -13 -10 -24 -15 -24 -15 0 -61 68 -61 89 0 12 -9 26 -20
33 -11 7 -20 20 -20 29 0 9 -7 22 -15 29 -8 7 -12 16 -10 21 3 4 -3 17 -15 29
-11 11 -20 29 -20 41 0 11 -6 33 -14 47 -79 148 -82 315 -10 469 34 72 130
168 185 185 22 6 44 17 51 25 18 23 19 10 2 -68z m442 10 c75 -39 105 -67 163
-154 77 -113 102 -161 116 -222 12 -50 12 -68 -1 -133 -19 -90 -48 -161 -77
-188 -12 -10 -47 -27 -77 -37 -30 -10 -65 -21 -77 -26 -28 -11 -141 3 -209 26
-28 9 -66 29 -83 43 l-32 27 20 42 c19 39 25 42 78 52 73 14 146 49 139 68 -3
7 1 13 11 13 9 0 14 3 10 6 -3 3 2 15 13 26 27 29 49 129 40 180 -9 48 -60
156 -95 203 -12 17 -24 47 -27 68 -5 47 9 48 88 6z m-205 -116 l41 -16 -7 -78
c-7 -81 -37 -205 -54 -222 -12 -12 -63 23 -78 55 -24 48 -61 165 -64 203 l-4
40 49 12 c26 7 51 14 54 18 8 8 18 6 63 -12z m147 -152 c12 -21 22 -56 22 -78
0 -32 -7 -46 -37 -75 -35 -34 -90 -64 -100 -54 -2 2 9 46 26 97 16 52 32 108
36 126 8 40 25 35 53 -16z m-345 -34 c3 -21 13 -45 23 -52 16 -13 17 -16 4
-24 -12 -9 -12 -12 1 -28 9 -10 28 -39 43 -65 14 -26 34 -51 43 -56 20 -12 12
-51 -20 -87 l-23 -27 -23 44 c-12 23 -33 62 -46 86 -38 67 -51 149 -36 218 14
62 25 59 34 -9z m617 -479 c0 -9 3 -9 12 0 7 7 19 12 28 12 9 0 5 -6 -10 -13
-26 -14 -64 -11 -54 4 8 13 24 11 24 -3z m-405 -18 c3 -5 2 -10 -4 -10 -5 0
-13 5 -16 10 -3 6 -2 10 4 10 5 0 13 -4 16 -10z m-232 -299 c69 -65 134 -116
179 -141 20 -11 52 -35 70 -54 18 -19 52 -42 76 -51 23 -10 42 -21 42 -25 0
-22 -295 -32 -415 -15 -49 7 -118 23 -152 35 -71 25 -71 21 -6 108 21 28 61
83 88 121 28 39 54 70 58 71 5 0 32 -22 60 -49z m298 -151 c31 -25 18 -25 -23
0 -20 12 -26 20 -17 20 9 0 27 -9 40 -20z"/>
<path d="M12640 8155 c7 -8 17 -15 22 -15 5 0 3 7 -6 15 -8 8 -18 15 -22 15
-3 0 -1 -7 6 -15z"/>
<path d="M3190 10356 c-14 -9 -33 -15 -42 -16 -10 0 -26 -8 -36 -17 -24 -23
-34 -29 -193 -109 -74 -37 -156 -82 -184 -100 -330 -210 -411 -263 -475 -310
-41 -30 -101 -71 -133 -92 -32 -20 -97 -65 -145 -99 -48 -34 -118 -83 -155
-110 -38 -26 -85 -57 -104 -68 -39 -22 -42 -25 -77 -105 -14 -30 -34 -71 -45
-90 -27 -47 -78 -168 -86 -203 -3 -16 -2 -34 3 -40 6 -7 28 -61 50 -122 149
-410 223 -564 405 -849 71 -112 117 -208 117 -248 0 -13 9 -34 20 -48 11 -14
20 -32 20 -42 0 -28 58 -170 103 -249 29 -54 63 -96 112 -141 78 -70 181 -124
218 -112 19 5 83 47 97 64 16 18 119 100 126 100 5 0 40 30 78 66 38 36 72 62
76 57 4 -4 24 -51 45 -103 41 -102 107 -223 270 -497 92 -153 108 -189 150
-320 86 -269 157 -414 203 -413 21 1 66 38 81 67 15 30 14 59 -6 101 -27 59
-51 67 -71 25 -10 -23 -10 -29 2 -35 8 -5 17 -21 21 -37 7 -32 -10 -75 -26
-66 -21 14 -70 129 -108 256 -22 74 -52 168 -66 209 -14 41 -28 90 -30 109 -2
18 -9 38 -14 45 -6 6 -15 42 -21 78 -5 36 -19 95 -29 130 -11 34 -23 81 -26
103 -4 22 -12 56 -17 75 -6 19 -12 45 -14 57 -3 29 -15 102 -21 128 -2 11 -9
58 -14 105 -10 85 -47 210 -62 210 -4 0 -5 5 -2 10 8 12 -1 12 -45 0 -22 -6
-58 -33 -95 -70 -33 -33 -65 -60 -72 -60 -16 0 -193 363 -193 398 0 9 -7 31
-16 47 -9 17 -22 50 -30 75 -8 25 -20 54 -25 66 -6 11 -9 24 -8 30 2 9 -3 26
-21 69 -5 11 -18 56 -30 100 -12 44 -26 91 -31 105 -26 75 -60 336 -61 480 -2
149 19 375 36 389 18 14 167 68 236 86 36 9 110 38 166 65 81 39 112 61 156
109 64 68 161 209 153 221 -3 5 4 23 14 42 25 41 47 138 56 238 6 64 3 86 -19
156 -14 45 -33 87 -41 94 -23 19 -96 23 -125 6z m50 -251 c0 -35 -35 -150 -52
-172 -5 -6 -13 -24 -17 -40 -5 -16 -34 -68 -66 -116 -77 -117 -157 -177 -310
-229 -60 -20 -111 -35 -113 -33 -7 7 67 136 145 252 76 115 119 158 263 265
41 31 89 68 105 82 40 33 45 32 45 -9z m-400 -100 c-49 -58 -102 -124 -116
-147 -15 -23 -45 -62 -68 -87 -45 -50 -108 -132 -149 -196 -37 -57 -54 -111
-77 -247 -18 -107 -26 -130 -75 -223 -30 -56 -55 -112 -55 -122 0 -11 -16 -51
-35 -89 -37 -71 -68 -149 -90 -224 -50 -169 -95 -453 -95 -600 0 -33 -4 -60
-8 -60 -13 0 -44 40 -71 90 -13 25 -38 65 -54 89 -49 73 -191 358 -241 486
-26 66 -64 158 -83 205 -56 134 -57 138 -26 185 69 102 351 356 638 575 61 47
115 88 120 92 93 74 250 181 392 269 98 60 179 109 181 109 1 0 -38 -47 -88
-105z m-331 -835 c-10 -65 -13 -405 -5 -419 3 -4 12 -56 21 -116 9 -59 31
-160 50 -224 36 -127 116 -365 133 -397 5 -10 22 -50 38 -89 15 -38 58 -135
96 -214 37 -79 68 -150 68 -157 0 -16 -102 -109 -165 -149 -27 -18 -77 -53
-109 -79 -33 -25 -64 -46 -70 -46 -11 0 -60 55 -90 103 -10 15 -25 27 -32 27
-8 0 -14 8 -14 18 0 16 -33 61 -114 154 -13 15 -19 29 -14 30 4 2 -9 32 -30
68 -85 147 -115 240 -116 370 -3 230 49 525 125 718 33 82 229 475 235 470 2
-2 -1 -33 -7 -68z m-240 -1585 c17 -31 74 -112 126 -180 53 -72 88 -125 79
-125 -15 0 -81 56 -124 104 -31 35 -110 185 -110 208 0 9 -4 20 -10 23 -5 3
-10 13 -10 21 0 24 16 8 49 -51z m890 36 c13 -23 28 -90 42 -183 6 -40 15
-102 20 -138 5 -36 14 -78 19 -95 18 -56 52 -226 47 -232 -3 -3 -14 11 -24 31
-110 218 -182 365 -215 440 l-40 91 24 15 c12 8 41 32 63 52 46 43 51 45 64
19z"/>
<path d="M6197 9537 c-30 -45 -57 -547 -37 -697 4 -36 15 -123 24 -195 16
-128 20 -150 52 -290 30 -136 124 -369 194 -485 15 -25 53 -89 85 -144 32 -54
95 -147 139 -207 45 -60 106 -143 136 -186 83 -118 264 -291 293 -280 7 2 20
46 30 98 16 85 30 120 152 362 150 299 143 264 76 367 -20 31 -40 63 -46 71
-5 9 -30 43 -55 75 -150 198 -219 291 -250 333 -19 27 -56 75 -81 107 -25 32
-76 104 -114 159 -38 55 -88 128 -112 162 -24 34 -43 64 -43 66 0 3 -20 38
-45 78 -25 40 -45 76 -45 80 0 4 -28 55 -61 115 -34 60 -89 159 -122 219 -33
61 -71 123 -84 138 -12 16 -26 39 -29 53 -8 31 -37 31 -57 1z m82 -133 c14
-26 81 -147 268 -489 68 -124 420 -632 445 -643 23 -10 -11 -193 -77 -417 -8
-27 -19 -70 -25 -95 -18 -88 -95 -291 -109 -290 -3 1 -28 30 -55 66 -44 59
-74 104 -210 320 -89 143 -166 322 -211 496 -28 107 -40 178 -70 398 -18 133
-22 271 -12 430 17 277 20 290 56 224z m815 -1264 l23 -34 -23 -41 c-22 -40
-62 -176 -89 -300 -20 -92 -65 -304 -75 -358 -6 -27 -10 -66 -10 -88 0 -21 -3
-39 -7 -39 -14 0 -103 141 -103 162 0 11 8 32 18 46 37 55 81 184 173 507 11
39 25 98 31 132 13 69 22 71 62 13z m148 -197 c117 -142 116 -140 80 -194 -41
-62 -192 -367 -192 -388 0 -9 -4 -21 -9 -27 -16 -17 -58 -151 -60 -191 -2 -25
-22 -12 -66 45 -43 54 -46 60 -40 102 8 58 61 315 74 358 5 18 15 67 21 110
11 72 58 231 81 274 6 11 14 18 19 16 5 -2 46 -49 92 -105z"/>
<path d="M13570 8400 c0 -5 5 -10 10 -10 6 0 10 5 10 10 0 6 -4 10 -10 10 -5
0 -10 -4 -10 -10z"/>
<path d="M6009 8184 c-14 -13 -14 -21 -4 -57 7 -23 20 -89 28 -147 9 -58 20
-130 26 -160 6 -30 18 -95 27 -145 36 -206 77 -329 153 -460 72 -124 165 -189
531 -364 58 -28 154 -80 215 -116 60 -36 118 -65 127 -65 35 0 17 29 -39 67
-74 49 -444 417 -508 506 -28 38 -66 87 -86 110 -20 23 -40 52 -43 65 -4 12
-12 20 -17 17 -5 -4 -9 3 -9 13 0 11 -8 26 -17 33 -14 12 -16 12 -9 -1 4 -8
-2 -4 -13 10 -27 31 -62 100 -56 110 2 4 -7 18 -21 31 -54 51 -179 360 -218
542 -7 31 -41 37 -67 11z m175 -470 c75 -151 155 -279 230 -369 23 -27 62 -77
86 -110 25 -33 103 -119 174 -192 71 -73 125 -133 121 -133 -4 0 -79 36 -166
79 -170 86 -240 132 -307 205 -41 44 -122 195 -122 227 0 8 -4 19 -10 25 -11
11 -42 155 -65 304 -9 57 -19 109 -22 115 -4 5 -3 7 0 4 4 -3 40 -73 81 -155z"/>
<path d="M10372 5800 c-29 -4 -86 -15 -125 -24 -40 -8 -119 -25 -177 -37 -58
-11 -125 -28 -150 -36 -73 -25 -208 -91 -230 -113 -11 -11 -20 -18 -20 -15 0
10 -113 -78 -202 -156 -99 -87 -166 -159 -221 -237 -32 -45 -37 -60 -37 -107
0 -44 6 -63 28 -94 23 -34 34 -40 75 -46 41 -6 57 -2 125 28 108 50 336 137
357 137 14 0 16 -5 10 -27 -4 -16 -27 -127 -52 -248 -47 -233 -72 -444 -73
-613 0 -89 -3 -111 -26 -160 -14 -31 -40 -75 -58 -97 -54 -66 -190 -274 -238
-365 -64 -118 -71 -160 -59 -306 6 -65 16 -182 21 -259 21 -269 30 -310 84
-366 35 -38 120 -50 277 -42 l125 6 13 -124 c7 -68 16 -175 21 -238 9 -123 21
-152 54 -128 25 18 25 120 1 252 -14 73 12 25 49 -90 36 -117 74 -227 125
-365 17 -47 30 -96 29 -109 -2 -16 -23 -41 -58 -69 -30 -25 -64 -58 -74 -75
-19 -29 -19 -30 -1 -43 10 -8 22 -14 27 -14 4 0 45 34 89 75 45 41 85 75 90
75 21 0 17 44 -10 107 -46 106 -81 198 -122 323 -21 63 -50 149 -64 190 -112
325 -121 365 -130 621 -4 90 -10 194 -15 230 -12 82 -1 135 69 359 70 222 110
334 155 435 13 28 40 91 60 140 62 150 139 294 235 440 36 55 78 124 93 154
15 29 33 61 41 70 8 9 25 36 37 61 12 25 46 81 74 125 29 44 71 109 94 145 51
81 90 135 165 226 59 74 75 108 54 121 -20 13 -91 11 -108 -4 -24 -20 -181
-75 -190 -66 -4 4 -9 74 -11 154 -3 155 -11 181 -52 178 -44 -4 -66 1 -66 16
0 17 -21 17 -108 5z m161 -212 c3 -73 7 -142 9 -153 2 -13 -3 -20 -17 -23 -11
-2 -42 -12 -70 -22 -47 -17 -119 -40 -240 -75 -27 -8 -83 -24 -124 -35 -41
-12 -110 -30 -155 -40 -79 -18 -212 -63 -331 -112 -33 -14 -78 -31 -100 -38
-22 -7 -73 -28 -114 -47 -82 -37 -96 -39 -104 -19 -8 21 12 86 29 93 8 3 14
11 14 19 0 7 9 18 20 24 11 6 20 15 20 21 0 18 101 131 173 194 198 175 391
262 662 300 61 9 119 18 129 21 16 5 108 17 177 23 14 1 17 -17 22 -131z m157
-233 c0 -3 -57 -92 -126 -198 -70 -105 -164 -255 -209 -332 -45 -77 -97 -165
-115 -195 -18 -30 -51 -91 -74 -135 -24 -44 -66 -121 -94 -172 -28 -50 -58
-109 -68 -130 -48 -110 -71 -173 -124 -327 -32 -94 -60 -164 -64 -157 -13 21
-7 491 9 726 9 126 18 232 20 235 2 4 9 47 15 96 17 144 62 360 77 375 7 7
127 44 183 56 48 10 315 89 475 141 62 20 95 26 95 17z m-986 -1645 c10 -113
21 -233 27 -268 9 -57 7 -70 -21 -153 l-30 -90 20 -107 c25 -129 66 -293 85
-339 14 -32 13 -34 -8 -42 -12 -5 -71 -16 -131 -26 -101 -15 -112 -15 -152 0
-39 15 -89 65 -64 65 6 0 8 15 4 38 -8 49 -14 53 -15 11 l-1 -34 -9 35 c-5 19
-8 62 -7 95 0 33 -2 80 -5 105 -4 25 -14 136 -23 246 l-17 202 58 103 c32 57
68 122 80 144 24 46 56 97 129 208 l51 77 6 -32 c4 -18 14 -125 23 -238z"/>
<path d="M2632 5400 c-21 -34 -15 -42 27 -35 36 6 39 4 51 -25 8 -20 11 -54 7
-99 -9 -105 -81 -238 -221 -405 -124 -148 -175 -196 -426 -406 -171 -143 -350
-328 -424 -439 -35 -53 -66 -106 -69 -118 -13 -58 38 -202 108 -298 51 -71 78
-114 105 -165 14 -25 30 -52 36 -60 7 -8 12 -19 12 -23 0 -13 55 -121 69 -135
7 -7 13 -17 13 -22 0 -5 18 -47 40 -94 22 -47 40 -88 40 -92 0 -5 12 -25 27
-46 l26 -39 28 33 c16 18 28 38 29 45 0 6 -16 45 -35 87 -43 91 -68 169 -52
159 104 -62 141 -117 135 -203 -3 -42 -13 -72 -39 -115 -30 -51 -43 -62 -117
-101 -70 -37 -93 -44 -139 -44 -31 0 -73 5 -94 11 -43 13 -109 64 -109 84 0 7
-6 15 -14 18 -8 3 -18 25 -21 49 -8 50 19 140 68 227 36 64 30 85 -27 87 -32
1 -43 -5 -84 -51 -77 -85 -97 -134 -97 -242 0 -85 2 -94 30 -134 52 -75 130
-127 216 -145 132 -28 296 -1 395 65 32 22 49 29 54 21 8 -13 70 55 70 76 0 7
6 14 14 17 11 5 19 26 32 87 2 8 6 27 10 42 8 36 -27 150 -65 209 -16 26 -65
76 -108 113 -197 165 -241 258 -189 404 32 91 113 246 204 387 7 11 20 33 30
48 9 15 34 46 55 69 20 23 37 46 37 52 0 5 16 28 35 52 19 23 35 47 35 53 0 6
4 11 9 11 5 0 14 12 20 28 6 15 30 48 54 74 23 25 60 72 82 102 101 141 251
286 367 354 22 13 47 31 56 40 10 10 76 57 148 105 73 48 134 95 136 105 11
42 -20 55 -70 28 -15 -7 -51 -24 -79 -37 -29 -13 -53 -28 -53 -32 0 -5 -10 -5
-21 -2 -15 5 -19 4 -15 -4 4 -6 1 -11 -8 -11 -8 0 -21 -10 -27 -22 -7 -13 -14
-18 -16 -11 -2 6 -24 -9 -49 -33 -25 -24 -49 -44 -52 -44 -3 0 -1 5 6 12 7 7
12 19 12 28 0 9 9 26 20 38 11 12 20 25 20 30 0 5 7 15 15 22 9 8 13 21 9 32
-4 13 -1 18 8 16 7 -2 14 1 15 5 0 5 13 22 28 37 15 16 24 33 21 39 -4 6 -3
11 3 11 14 0 43 58 36 70 -22 35 -112 -37 -180 -144 -20 -31 -38 -56 -41 -56
-8 0 5 72 16 85 4 6 10 27 13 47 5 30 2 38 -13 43 -11 3 -29 22 -41 41 -12 19
-24 33 -26 30 -3 -3 -12 1 -20 9 -22 22 -76 19 -91 -5z m-434 -1022 c-68 -85
-265 -385 -332 -506 -37 -67 -69 -137 -71 -155 -4 -47 -16 -87 -26 -87 -5 0
-22 30 -39 67 -17 37 -38 75 -47 85 -15 16 -15 24 -4 56 12 34 25 57 87 152
13 19 39 52 59 73 19 20 35 42 35 47 0 6 7 10 15 10 8 0 15 3 15 8 1 12 103
115 145 146 22 16 45 34 50 40 24 27 138 116 142 112 3 -3 -10 -24 -29 -48z"/>
<path d="M1525 5309 c-14 -22 6 -76 41 -110 81 -78 190 -252 230 -367 10 -28
30 -63 44 -77 26 -25 28 -25 49 -8 20 17 21 22 11 75 -11 56 -56 154 -108 234
-15 23 -40 61 -56 85 -42 65 -115 138 -160 160 -47 22 -43 22 -51 8z"/>
<path d="M6452 5048 c-28 -87 -2 -1015 35 -1288 l6 -45 -92 92 -92 91 -19 199
c-11 109 -30 308 -44 443 -28 273 -42 446 -39 473 2 13 -4 17 -27 17 -26 0
-36 -8 -66 -56 -20 -31 -56 -100 -81 -153 -45 -96 -189 -386 -230 -464 -12
-23 -22 -47 -22 -53 -1 -12 97 -107 209 -202 41 -35 118 -106 171 -158 l96
-93 12 -203 c7 -112 16 -279 20 -371 7 -135 12 -172 25 -185 14 -14 18 -14 29
-2 11 12 12 42 6 140 -10 176 -29 445 -35 508 -3 28 -3 52 1 52 3 0 46 -38 94
-85 l88 -85 7 -333 c5 -182 9 -352 11 -377 6 -99 7 -454 1 -795 -5 -349 6
-640 27 -672 20 -31 61 -12 193 89 144 108 153 117 136 127 -15 9 -32 57 -32
88 0 14 -6 39 -14 56 -51 114 -208 766 -226 939 -5 51 -9 145 -9 208 l0 115
39 65 c22 36 51 88 66 115 33 61 120 191 149 223 21 23 21 29 18 325 -2 201 2
360 11 477 18 209 17 350 -1 350 -7 0 -13 7 -13 15 0 10 -10 15 -29 15 -23 0
-51 -20 -133 -97 -186 -174 -191 -179 -183 -158 14 37 18 71 7 60 -5 -5 -12
-19 -15 -30 -3 -11 -5 -4 -4 15 0 19 5 41 10 48 5 7 7 27 4 46 -3 18 0 39 5
44 8 8 7 13 -5 18 -19 7 -24 59 -7 69 6 4 7 12 3 18 -4 6 -7 97 -8 202 0 187
0 190 -22 193 -16 2 -23 -4 -31 -30z m-288 -149 c-4 -7 22 -307 55 -619 35
-332 35 -326 14 -308 -10 8 -59 51 -109 94 -50 43 -130 113 -177 154 -48 41
-87 80 -87 86 0 6 34 79 75 163 42 84 87 180 101 214 66 156 115 251 124 237
5 -8 7 -17 4 -21z m641 -436 c-9 -174 -15 -369 -21 -628 l-6 -290 -89 -133
c-49 -73 -89 -137 -89 -142 0 -6 -4 -10 -9 -10 -5 0 -10 70 -11 158 0 86 -3
177 -5 202 -3 25 -9 90 -15 145 -6 55 -12 123 -15 150 -3 28 -8 74 -11 104 -5
39 -4 52 5 47 14 -9 15 38 1 65 -8 13 -7 25 1 41 10 18 9 20 -6 14 -16 -6 -17
0 -12 51 5 47 11 62 34 81 86 73 132 112 180 155 29 26 57 47 62 47 5 0 7 -26
6 -57z m-270 -353 c3 -5 1 -10 -4 -10 -6 0 -11 5 -11 10 0 6 2 10 4 10 3 0 8
-4 11 -10z m115 -1903 c23 -93 59 -230 81 -305 21 -76 39 -147 39 -160 0 -13
-16 -39 -36 -60 -20 -20 -43 -50 -52 -67 l-15 -30 -8 25 c-22 68 -74 787 -56
770 2 -3 24 -81 47 -173z"/>
<path d="M12905 4463 c-66 -8 -124 -28 -210 -72 -73 -37 -107 -63 -180 -137
-50 -50 -97 -106 -106 -125 -9 -19 -27 -56 -40 -83 -36 -75 -34 -174 6 -244
37 -68 149 -183 204 -212 51 -26 208 -60 278 -60 40 0 53 -4 57 -17 11 -40 27
-181 24 -218 l-3 -40 -88 -31 c-97 -35 -123 -53 -130 -90 -4 -21 2 -28 33 -44
70 -36 145 -60 201 -66 48 -6 58 -4 82 17 25 22 26 27 17 64 -15 63 -13 74 18
81 40 9 135 39 237 74 139 48 185 59 185 45 0 -7 -29 -65 -64 -129 -35 -64
-62 -116 -60 -116 3 0 -6 -15 -18 -32 -13 -18 -30 -44 -36 -58 -15 -29 -98
-71 -185 -95 l-57 -16 -32 37 c-34 39 -117 84 -155 84 -66 0 -193 -140 -193
-213 0 -53 37 -81 103 -78 28 1 83 13 121 26 39 14 72 23 74 20 16 -16 -90
-129 -268 -285 -52 -45 -117 -104 -145 -129 -114 -105 -224 -177 -365 -237
-36 -16 -79 -39 -96 -53 -26 -20 -30 -29 -25 -50 11 -39 66 -37 170 6 123 50
185 70 501 158 69 19 156 44 193 56 38 11 70 19 72 17 4 -4 40 -105 98 -278
14 -41 42 -133 62 -205 20 -71 45 -149 56 -171 11 -23 24 -67 29 -99 14 -88
92 -314 106 -308 6 2 14 -6 17 -18 4 -15 11 -20 22 -15 9 3 22 6 29 6 15 0 33
36 51 100 17 61 84 251 95 272 6 10 10 26 10 35 0 10 9 33 20 51 11 18 20 41
20 52 0 11 5 20 11 20 6 0 9 6 6 13 -2 6 2 17 10 22 7 6 15 27 18 48 3 21 15
51 27 68 12 16 23 39 23 52 2 31 53 134 70 140 8 4 11 14 8 26 -4 15 -1 21 10
21 18 0 30 30 21 54 -3 9 -2 16 4 16 9 0 23 30 26 55 1 6 12 20 26 31 13 12
25 32 25 45 1 13 11 40 23 59 12 19 22 41 22 48 0 13 26 58 47 80 11 12 83 32
298 87 277 70 348 109 388 213 23 59 22 73 -19 191 -59 173 -118 278 -172 305
-57 28 -77 28 -118 -4 -21 -17 -43 -29 -51 -26 -16 6 -27 -10 -13 -19 7 -4 -3
-25 -23 -53 -19 -26 -58 -90 -87 -142 -29 -52 -60 -106 -69 -120 -18 -29 -103
-202 -137 -278 -25 -56 -49 -73 -129 -87 -22 -4 -45 -12 -52 -17 -7 -5 -16 -7
-21 -4 -4 2 -52 -6 -107 -20 -54 -13 -100 -22 -102 -20 -11 10 225 505 258
544 32 37 35 50 16 76 -15 20 -18 19 -366 -74 -62 -17 -116 -29 -118 -26 -3 3
7 27 22 53 15 26 37 66 49 88 12 22 40 72 61 110 21 39 56 97 77 129 69 108
44 137 -75 88 -40 -16 -101 -39 -137 -50 -36 -11 -117 -39 -180 -61 -116 -41
-160 -49 -160 -31 0 11 67 148 96 197 79 130 111 203 99 223 -11 18 -47 10
-84 -18 -70 -55 -110 -74 -159 -75 l-47 -2 -18 100 c-25 141 -29 184 -23 210
9 33 75 72 190 110 175 57 236 110 236 204 0 65 -20 110 -70 155 -59 53 -134
76 -243 75 -51 -1 -105 -4 -122 -6z m221 -100 c102 -32 161 -126 115 -185 -19
-24 -58 -42 -202 -92 -62 -22 -160 -103 -183 -151 -17 -35 -17 -46 -7 -95 32
-147 44 -220 38 -226 -14 -14 -197 24 -252 52 -96 48 -179 155 -191 246 -7 53
15 142 51 203 59 101 227 224 334 245 31 6 61 13 66 15 31 11 184 3 231 -12z
m-117 -864 c-16 -23 -24 -28 -30 -17 -19 29 -10 48 22 48 l30 0 -22 -31z
m1472 -342 c77 -123 132 -277 127 -357 -3 -52 -4 -54 -51 -83 -43 -26 -262
-109 -327 -123 -14 -4 -54 -15 -89 -25 -35 -11 -67 -17 -70 -14 -9 9 171 357
244 470 39 61 126 173 135 174 3 1 17 -18 31 -42z m-1533 -24 c5 -18 -23 -16
-39 3 -11 14 -10 15 11 12 13 -1 25 -9 28 -15z m816 -151 c3 -5 -13 -48 -36
-98 -22 -49 -60 -134 -85 -189 -25 -55 -52 -111 -60 -125 -7 -14 -26 -51 -40
-82 -22 -50 -30 -59 -62 -67 -20 -5 -106 -26 -191 -46 -225 -53 -430 -109
-570 -155 -143 -48 -171 -48 -109 -3 24 17 85 70 134 118 50 47 116 109 147
137 70 62 152 179 171 244 7 26 20 51 28 56 8 4 136 46 284 93 149 48 293 94
320 105 61 22 63 22 69 12z m-797 -117 c21 -14 23 -19 12 -30 -36 -33 -219
-80 -219 -55 0 20 41 71 74 92 36 22 92 19 133 -7z m921 -512 c-17 -38 -42
-82 -55 -100 -12 -17 -23 -38 -23 -47 0 -8 -5 -18 -10 -21 -6 -3 -15 -26 -21
-51 -6 -24 -15 -44 -19 -44 -5 0 -11 -13 -15 -30 -4 -16 -11 -30 -16 -30 -5 0
-9 -5 -9 -12 0 -17 -87 -232 -125 -308 -17 -36 -38 -83 -45 -105 -7 -22 -21
-52 -31 -66 -10 -14 -21 -38 -24 -55 -4 -16 -10 -38 -15 -49 -5 -11 -21 -53
-36 -93 -15 -40 -31 -75 -35 -78 -5 -2 -15 17 -23 43 -8 26 -21 65 -30 86 -9
21 -14 42 -11 47 3 5 0 12 -6 15 -5 4 -8 14 -4 23 3 8 2 18 -3 21 -5 3 -26 74
-46 156 -43 174 -70 260 -138 444 -27 73 -48 135 -46 136 10 9 251 70 366 92
75 14 205 41 287 59 83 18 153 33 157 33 4 1 -7 -29 -24 -66z"/>
</g>
</svg>
