<?xml version="1.0" encoding="utf-8"?>
<!-- Generator: Adobe Illustrator 22.0.1, SVG Export Plug-In . SVG Version: 6.00 Build 0)  -->
<svg version="1.1" xmlns="http://www.w3.org/2000/svg" xmlns:xlink="http://www.w3.org/1999/xlink" x="0px" y="0px"
	 viewBox="0 0 512 512" style="enable-background:new 0 0 512 512;" xml:space="preserve">
<style type="text/css">
	.st0{fill:#7585F0;stroke:#000000;stroke-width:20;stroke-linecap:round;stroke-linejoin:round;stroke-miterlimit:10;}
	.st1{fill:none;stroke:#000000;stroke-width:20;stroke-linecap:round;stroke-linejoin:round;stroke-miterlimit:10;}
	.st2{fill:#FFFFFF;}
	.st3{fill:#E4B75C;stroke:#000000;stroke-width:20;stroke-linecap:round;stroke-linejoin:round;stroke-miterlimit:10;}
	.st4{fill:#DE5A5A;stroke:#000000;stroke-width:20;stroke-linecap:round;stroke-linejoin:round;stroke-miterlimit:10;}
	.st5{fill:#D4F4FF;}
	.st6{fill:#D4F4FF;stroke:#000000;stroke-width:20;stroke-linecap:round;stroke-linejoin:round;stroke-miterlimit:10;}
	.st7{fill:#F2DF98;stroke:#000000;stroke-width:20;stroke-linecap:round;stroke-linejoin:round;stroke-miterlimit:10;}
	.st8{fill:#FFFFFF;stroke:#000000;stroke-width:20;stroke-linecap:round;stroke-linejoin:round;stroke-miterlimit:10;}
	.st9{fill:#87BF8C;stroke:#000000;stroke-width:20;stroke-linecap:round;stroke-linejoin:round;stroke-miterlimit:10;}
	.st10{fill:#7585F0;}
	.st11{fill:#EDD4B4;stroke:#000000;stroke-width:20;stroke-linecap:round;stroke-linejoin:round;stroke-miterlimit:10;}
	.st12{fill:#E4B75C;}
	.st13{fill:#AACF9A;stroke:#000000;stroke-width:20;stroke-linecap:round;stroke-linejoin:round;stroke-miterlimit:10;}
	.st14{fill:#E8C673;stroke:#000000;stroke-width:20;stroke-linecap:round;stroke-linejoin:round;stroke-miterlimit:10;}
	.st15{fill:#F2DF98;}
	.st16{fill:#D0524E;stroke:#000000;stroke-width:20;stroke-linecap:round;stroke-linejoin:round;stroke-miterlimit:10;}
	.st17{fill:#87BF8C;}
	.st18{fill:#AACF9A;}
	.st19{fill:#DE5A5A;}
	.st20{fill:#E8C673;}
	.st21{fill:#7ACBAA;}
	.st22{fill:#EFCDC2;}
	.st23{fill:#6B7DFA;stroke:#000000;stroke-width:20;stroke-linecap:round;stroke-linejoin:round;stroke-miterlimit:10;}
</style>
<g id="GUIDELINES">
</g>
<g id="ICON_1_">
	<g>
		<path class="st10" d="M50.3,85.3H30.6c-11,0-19.9,8.9-19.9,19.9v317.7c0,28.4,23,51.5,51.4,51.5h147.6
			C218.6,490.8,236,502,256,502s37.4-11.2,46.3-27.6h147.6c28.4,0,51.4-23,51.4-51.5V105.2c0-11-8.9-19.9-19.9-19.9h-19.8"/>
		<path class="st1" d="M50.3,85.3H30.6c-11,0-19.9,8.9-19.9,19.9v317.7c0,28.4,23,51.5,51.4,51.5h147.6C218.6,490.8,236,502,256,502
			s37.4-11.2,46.3-27.6h98.4"/>
		<g>
			<path class="st5" d="M461.4,383.2V80.4l0-3.2c0.1-11.1-8.8-20.1-19.9-20.1H295c-11.6,0-22.3,6.4-27.9,16.6v0
				c-1.7,3.2-5.6,6.7-11.2,6.7v302.9h140.6"/>
			<line class="st1" x1="256" y1="383.2" x2="396.6" y2="383.2"/>
			<path class="st1" d="M418.9,57H295c-11.6,0-22.3,6.4-27.9,16.6v0c-1.7,3.2-5.6,6.7-11.2,6.7"/>
		</g>
		<g>
			<path class="st7" d="M50.6,383.2v15.5c0,18.8,15.2,34,34,34h125.2h23.8l11.3,20.9c1.7,3.2,5.6,6.7,11.2,6.7v-77.1"/>
			<path class="st2" d="M123.4,383.2H256V80.4c-5.6,0-9.4-3.5-11.2-6.7l0,0C239.3,63.4,228.6,57,217,57H70.4c-11.1,0-20,9-19.9,20.1
				l0,3.2v302.9"/>
			<line class="st1" x1="123.4" y1="383.2" x2="256" y2="383.2"/>
			<path class="st1" d="M256,314.3V80.4c-5.6,0-9.4-3.5-11.2-6.7l0,0C239.3,63.4,228.6,57,217,57H70.4c-11.1,0-20,9-19.9,20.1l0,3.2
				v302.9"/>
		</g>
		<g>
			<line class="st1" x1="200" y1="324.6" x2="106.3" y2="324.6"/>
			<line class="st1" x1="200" y1="280.6" x2="140" y2="280.6"/>
			<line class="st1" x1="200" y1="236.6" x2="106.3" y2="236.6"/>
			
				<rect x="106.3" y="131.9" transform="matrix(-1 -1.224647e-16 1.224647e-16 -1 306.3067 321.8323)" class="st14" width="93.7" height="58.1"/>
		</g>
		<line class="st1" x1="311.9" y1="131.9" x2="356.7" y2="131.9"/>
		<line class="st1" x1="311.9" y1="175.9" x2="396.6" y2="175.9"/>
		<line class="st1" x1="311.9" y1="324.6" x2="396.6" y2="324.6"/>
		<line class="st1" x1="311.9" y1="219.9" x2="356.7" y2="219.9"/>
		<line class="st1" x1="311.9" y1="281.9" x2="356.7" y2="281.9"/>
		<g>
			<g>
				<path class="st8" d="M501.3,114.8L501.3,114.8c0-17.8-5.2-35.3-14.9-50.2l-3.3-5h-64.3l-3.3,5c-9.7,15-14.9,32.4-14.9,50.2v0"/>
				<g>
					<path class="st12" d="M451,122.9c-6.7-8.9-17.4-14.7-29.4-14.7c-7.8,0-15,2.4-20.9,6.6v268.6H451"/>
					<line class="st1" x1="400.7" y1="383.4" x2="451" y2="383.4"/>
					<path class="st1" d="M451,122.9c-6.7-8.9-17.4-14.7-29.4-14.7c-7.8,0-15,2.4-20.9,6.6v219"/>
					<path class="st7" d="M451,172.1v211.3h50.3V114.8c-5.9-4.1-13.2-6.6-20.9-6.6c-12,0-22.7,5.8-29.4,14.7"/>
				</g>
				<polygon class="st0" points="418.9,59.5 483.2,59.5 451,10 				"/>
			</g>
			<g>
				<path class="st4" d="M400.7,464.5c0,15.8,12.8,28.5,28.5,28.5h43.6c15.8,0,28.5-12.8,28.5-28.5v-34.6H400.7V464.5z"/>
				<rect x="400.7" y="383.4" class="st8" width="100.6" height="46.5"/>
				<path class="st7" d="M400.7,383.4L256,383.2v77.1c5.6,0,9.4-3.5,11.2-6.7l11.3-20.9h122.2V383.4z"/>
			</g>
		</g>
	</g>
</g>
</svg>
